<?xml version="1.0" encoding="utf-8" standalone="no"?>
<!DOCTYPE svg PUBLIC "-//W3C//DTD SVG 1.1//EN"
  "http://www.w3.org/Graphics/SVG/1.1/DTD/svg11.dtd">
<!-- Created with matplotlib (https://matplotlib.org/) -->
<svg height="216pt" version="1.1" viewBox="0 0 504 216" width="504pt" xmlns="http://www.w3.org/2000/svg" xmlns:xlink="http://www.w3.org/1999/xlink">
 <defs>
  <style type="text/css">
*{stroke-linecap:butt;stroke-linejoin:round;}
  </style>
 </defs>
 <g id="figure_1">
  <g id="patch_1">
   <path d="M 0 216 
L 504 216 
L 504 0 
L 0 0 
z
" style="fill:#ffffff;"/>
  </g>
  <g id="axes_1">
   <g id="patch_2">
    <path d="M 63 192.24 
L 453.6 192.24 
L 453.6 25.92 
L 63 25.92 
z
" style="fill:#ffffff;"/>
   </g>
   <g id="matplotlib.axis_1">
    <g id="xtick_1">
     <g id="line2d_1"/>
     <g id="text_1">
      <!-- Mar -->
      <defs>
       <path d="M 9.8125 72.90625 
L 24.515625 72.90625 
L 43.109375 23.296875 
L 61.8125 72.90625 
L 76.515625 72.90625 
L 76.515625 0 
L 66.890625 0 
L 66.890625 64.015625 
L 48.09375 14.015625 
L 38.1875 14.015625 
L 19.390625 64.015625 
L 19.390625 0 
L 9.8125 0 
z
" id="DejaVuSans-77"/>
       <path d="M 34.28125 27.484375 
Q 23.390625 27.484375 19.1875 25 
Q 14.984375 22.515625 14.984375 16.5 
Q 14.984375 11.71875 18.140625 8.90625 
Q 21.296875 6.109375 26.703125 6.109375 
Q 34.1875 6.109375 38.703125 11.40625 
Q 43.21875 16.703125 43.21875 25.484375 
L 43.21875 27.484375 
z
M 52.203125 31.203125 
L 52.203125 0 
L 43.21875 0 
L 43.21875 8.296875 
Q 40.140625 3.328125 35.546875 0.953125 
Q 30.953125 -1.421875 24.3125 -1.421875 
Q 15.921875 -1.421875 10.953125 3.296875 
Q 6 8.015625 6 15.921875 
Q 6 25.140625 12.171875 29.828125 
Q 18.359375 34.515625 30.609375 34.515625 
L 43.21875 34.515625 
L 43.21875 35.40625 
Q 43.21875 41.609375 39.140625 45 
Q 35.0625 48.390625 27.6875 48.390625 
Q 23 48.390625 18.546875 47.265625 
Q 14.109375 46.140625 10.015625 43.890625 
L 10.015625 52.203125 
Q 14.9375 54.109375 19.578125 55.046875 
Q 24.21875 56 28.609375 56 
Q 40.484375 56 46.34375 49.84375 
Q 52.203125 43.703125 52.203125 31.203125 
z
" id="DejaVuSans-97"/>
       <path d="M 41.109375 46.296875 
Q 39.59375 47.171875 37.8125 47.578125 
Q 36.03125 48 33.890625 48 
Q 26.265625 48 22.1875 43.046875 
Q 18.109375 38.09375 18.109375 28.8125 
L 18.109375 0 
L 9.078125 0 
L 9.078125 54.6875 
L 18.109375 54.6875 
L 18.109375 46.1875 
Q 20.953125 51.171875 25.484375 53.578125 
Q 30.03125 56 36.53125 56 
Q 37.453125 56 38.578125 55.875 
Q 39.703125 55.765625 41.0625 55.515625 
z
" id="DejaVuSans-114"/>
      </defs>
      <g style="fill:#871f78;" transform="translate(69.117129 203.338437)scale(0.1 -0.1)">
       <use xlink:href="#DejaVuSans-77"/>
       <use x="86.279297" xlink:href="#DejaVuSans-97"/>
       <use x="147.558594" xlink:href="#DejaVuSans-114"/>
      </g>
     </g>
    </g>
    <g id="xtick_2">
     <g id="line2d_2"/>
     <g id="text_2">
      <!-- Apr -->
      <defs>
       <path d="M 34.1875 63.1875 
L 20.796875 26.90625 
L 47.609375 26.90625 
z
M 28.609375 72.90625 
L 39.796875 72.90625 
L 67.578125 0 
L 57.328125 0 
L 50.6875 18.703125 
L 17.828125 18.703125 
L 11.1875 0 
L 0.78125 0 
z
" id="DejaVuSans-65"/>
       <path d="M 18.109375 8.203125 
L 18.109375 -20.796875 
L 9.078125 -20.796875 
L 9.078125 54.6875 
L 18.109375 54.6875 
L 18.109375 46.390625 
Q 20.953125 51.265625 25.265625 53.625 
Q 29.59375 56 35.59375 56 
Q 45.5625 56 51.78125 48.09375 
Q 58.015625 40.1875 58.015625 27.296875 
Q 58.015625 14.40625 51.78125 6.484375 
Q 45.5625 -1.421875 35.59375 -1.421875 
Q 29.59375 -1.421875 25.265625 0.953125 
Q 20.953125 3.328125 18.109375 8.203125 
z
M 48.6875 27.296875 
Q 48.6875 37.203125 44.609375 42.84375 
Q 40.53125 48.484375 33.40625 48.484375 
Q 26.265625 48.484375 22.1875 42.84375 
Q 18.109375 37.203125 18.109375 27.296875 
Q 18.109375 17.390625 22.1875 11.75 
Q 26.265625 6.109375 33.40625 6.109375 
Q 40.53125 6.109375 44.609375 11.75 
Q 48.6875 17.390625 48.6875 27.296875 
z
" id="DejaVuSans-112"/>
      </defs>
      <g style="fill:#871f78;" transform="translate(112.599785 203.338437)scale(0.1 -0.1)">
       <use xlink:href="#DejaVuSans-65"/>
       <use x="68.408203" xlink:href="#DejaVuSans-112"/>
       <use x="131.884766" xlink:href="#DejaVuSans-114"/>
      </g>
     </g>
    </g>
    <g id="xtick_3">
     <g id="line2d_3"/>
     <g id="text_3">
      <!-- May -->
      <defs>
       <path d="M 32.171875 -5.078125 
Q 28.375 -14.84375 24.75 -17.8125 
Q 21.140625 -20.796875 15.09375 -20.796875 
L 7.90625 -20.796875 
L 7.90625 -13.28125 
L 13.1875 -13.28125 
Q 16.890625 -13.28125 18.9375 -11.515625 
Q 21 -9.765625 23.484375 -3.21875 
L 25.09375 0.875 
L 2.984375 54.6875 
L 12.5 54.6875 
L 29.59375 11.921875 
L 46.6875 54.6875 
L 56.203125 54.6875 
z
" id="DejaVuSans-121"/>
      </defs>
      <g style="fill:#871f78;" transform="translate(152.233958 203.338437)scale(0.1 -0.1)">
       <use xlink:href="#DejaVuSans-77"/>
       <use x="86.279297" xlink:href="#DejaVuSans-97"/>
       <use x="147.558594" xlink:href="#DejaVuSans-121"/>
      </g>
     </g>
    </g>
    <g id="xtick_4">
     <g id="line2d_4"/>
     <g id="text_4">
      <!-- Jun -->
      <defs>
       <path d="M 9.8125 72.90625 
L 19.671875 72.90625 
L 19.671875 5.078125 
Q 19.671875 -8.109375 14.671875 -14.0625 
Q 9.671875 -20.015625 -1.421875 -20.015625 
L -5.171875 -20.015625 
L -5.171875 -11.71875 
L -2.09375 -11.71875 
Q 4.4375 -11.71875 7.125 -8.046875 
Q 9.8125 -4.390625 9.8125 5.078125 
z
" id="DejaVuSans-74"/>
       <path d="M 8.5 21.578125 
L 8.5 54.6875 
L 17.484375 54.6875 
L 17.484375 21.921875 
Q 17.484375 14.15625 20.5 10.265625 
Q 23.53125 6.390625 29.59375 6.390625 
Q 36.859375 6.390625 41.078125 11.03125 
Q 45.3125 15.671875 45.3125 23.6875 
L 45.3125 54.6875 
L 54.296875 54.6875 
L 54.296875 0 
L 45.3125 0 
L 45.3125 8.40625 
Q 42.046875 3.421875 37.71875 1 
Q 33.40625 -1.421875 27.6875 -1.421875 
Q 18.265625 -1.421875 13.375 4.4375 
Q 8.5 10.296875 8.5 21.578125 
z
M 31.109375 56 
z
" id="DejaVuSans-117"/>
       <path d="M 54.890625 33.015625 
L 54.890625 0 
L 45.90625 0 
L 45.90625 32.71875 
Q 45.90625 40.484375 42.875 44.328125 
Q 39.84375 48.1875 33.796875 48.1875 
Q 26.515625 48.1875 22.3125 43.546875 
Q 18.109375 38.921875 18.109375 30.90625 
L 18.109375 0 
L 9.078125 0 
L 9.078125 54.6875 
L 18.109375 54.6875 
L 18.109375 46.1875 
Q 21.34375 51.125 25.703125 53.5625 
Q 30.078125 56 35.796875 56 
Q 45.21875 56 50.046875 50.171875 
Q 54.890625 44.34375 54.890625 33.015625 
z
" id="DejaVuSans-110"/>
      </defs>
      <g style="fill:#871f78;" transform="translate(197.45802 203.338437)scale(0.1 -0.1)">
       <use xlink:href="#DejaVuSans-74"/>
       <use x="29.492188" xlink:href="#DejaVuSans-117"/>
       <use x="92.871094" xlink:href="#DejaVuSans-110"/>
      </g>
     </g>
    </g>
    <g id="xtick_5">
     <g id="line2d_5"/>
     <g id="text_5">
      <!-- Jul -->
      <defs>
       <path d="M 9.421875 75.984375 
L 18.40625 75.984375 
L 18.40625 0 
L 9.421875 0 
z
" id="DejaVuSans-108"/>
      </defs>
      <g style="fill:#871f78;" transform="translate(240.55938 203.338437)scale(0.1 -0.1)">
       <use xlink:href="#DejaVuSans-74"/>
       <use x="29.492188" xlink:href="#DejaVuSans-117"/>
       <use x="92.871094" xlink:href="#DejaVuSans-108"/>
      </g>
     </g>
    </g>
    <g id="xtick_6">
     <g id="line2d_6"/>
     <g id="text_6">
      <!-- Aug -->
      <defs>
       <path d="M 45.40625 27.984375 
Q 45.40625 37.75 41.375 43.109375 
Q 37.359375 48.484375 30.078125 48.484375 
Q 22.859375 48.484375 18.828125 43.109375 
Q 14.796875 37.75 14.796875 27.984375 
Q 14.796875 18.265625 18.828125 12.890625 
Q 22.859375 7.515625 30.078125 7.515625 
Q 37.359375 7.515625 41.375 12.890625 
Q 45.40625 18.265625 45.40625 27.984375 
z
M 54.390625 6.78125 
Q 54.390625 -7.171875 48.1875 -13.984375 
Q 42 -20.796875 29.203125 -20.796875 
Q 24.46875 -20.796875 20.265625 -20.09375 
Q 16.0625 -19.390625 12.109375 -17.921875 
L 12.109375 -9.1875 
Q 16.0625 -11.328125 19.921875 -12.34375 
Q 23.78125 -13.375 27.78125 -13.375 
Q 36.625 -13.375 41.015625 -8.765625 
Q 45.40625 -4.15625 45.40625 5.171875 
L 45.40625 9.625 
Q 42.625 4.78125 38.28125 2.390625 
Q 33.9375 0 27.875 0 
Q 17.828125 0 11.671875 7.65625 
Q 5.515625 15.328125 5.515625 27.984375 
Q 5.515625 40.671875 11.671875 48.328125 
Q 17.828125 56 27.875 56 
Q 33.9375 56 38.28125 53.609375 
Q 42.625 51.21875 45.40625 46.390625 
L 45.40625 54.6875 
L 54.390625 54.6875 
z
" id="DejaVuSans-103"/>
      </defs>
      <g style="fill:#871f78;" transform="translate(279.527973 203.338437)scale(0.1 -0.1)">
       <use xlink:href="#DejaVuSans-65"/>
       <use x="68.408203" xlink:href="#DejaVuSans-117"/>
       <use x="131.787109" xlink:href="#DejaVuSans-103"/>
      </g>
     </g>
    </g>
    <g id="xtick_7">
     <g id="line2d_7"/>
     <g id="text_7">
      <!-- Sep -->
      <defs>
       <path d="M 53.515625 70.515625 
L 53.515625 60.890625 
Q 47.90625 63.578125 42.921875 64.890625 
Q 37.9375 66.21875 33.296875 66.21875 
Q 25.25 66.21875 20.875 63.09375 
Q 16.5 59.96875 16.5 54.203125 
Q 16.5 49.359375 19.40625 46.890625 
Q 22.3125 44.4375 30.421875 42.921875 
L 36.375 41.703125 
Q 47.40625 39.59375 52.65625 34.296875 
Q 57.90625 29 57.90625 20.125 
Q 57.90625 9.515625 50.796875 4.046875 
Q 43.703125 -1.421875 29.984375 -1.421875 
Q 24.8125 -1.421875 18.96875 -0.25 
Q 13.140625 0.921875 6.890625 3.21875 
L 6.890625 13.375 
Q 12.890625 10.015625 18.65625 8.296875 
Q 24.421875 6.59375 29.984375 6.59375 
Q 38.421875 6.59375 43.015625 9.90625 
Q 47.609375 13.234375 47.609375 19.390625 
Q 47.609375 24.75 44.3125 27.78125 
Q 41.015625 30.8125 33.5 32.328125 
L 27.484375 33.5 
Q 16.453125 35.6875 11.515625 40.375 
Q 6.59375 45.0625 6.59375 53.421875 
Q 6.59375 63.09375 13.40625 68.65625 
Q 20.21875 74.21875 32.171875 74.21875 
Q 37.3125 74.21875 42.625 73.28125 
Q 47.953125 72.359375 53.515625 70.515625 
z
" id="DejaVuSans-83"/>
       <path d="M 56.203125 29.59375 
L 56.203125 25.203125 
L 14.890625 25.203125 
Q 15.484375 15.921875 20.484375 11.0625 
Q 25.484375 6.203125 34.421875 6.203125 
Q 39.59375 6.203125 44.453125 7.46875 
Q 49.3125 8.734375 54.109375 11.28125 
L 54.109375 2.78125 
Q 49.265625 0.734375 44.1875 -0.34375 
Q 39.109375 -1.421875 33.890625 -1.421875 
Q 20.796875 -1.421875 13.15625 6.1875 
Q 5.515625 13.8125 5.515625 26.8125 
Q 5.515625 40.234375 12.765625 48.109375 
Q 20.015625 56 32.328125 56 
Q 43.359375 56 49.78125 48.890625 
Q 56.203125 41.796875 56.203125 29.59375 
z
M 47.21875 32.234375 
Q 47.125 39.59375 43.09375 43.984375 
Q 39.0625 48.390625 32.421875 48.390625 
Q 24.90625 48.390625 20.390625 44.140625 
Q 15.875 39.890625 15.1875 32.171875 
z
" id="DejaVuSans-101"/>
      </defs>
      <g style="fill:#871f78;" transform="translate(322.565317 203.338437)scale(0.1 -0.1)">
       <use xlink:href="#DejaVuSans-83"/>
       <use x="63.476562" xlink:href="#DejaVuSans-101"/>
       <use x="125" xlink:href="#DejaVuSans-112"/>
      </g>
     </g>
    </g>
    <g id="xtick_8">
     <g id="line2d_8"/>
     <g id="text_8">
      <!-- Oct -->
      <defs>
       <path d="M 39.40625 66.21875 
Q 28.65625 66.21875 22.328125 58.203125 
Q 16.015625 50.203125 16.015625 36.375 
Q 16.015625 22.609375 22.328125 14.59375 
Q 28.65625 6.59375 39.40625 6.59375 
Q 50.140625 6.59375 56.421875 14.59375 
Q 62.703125 22.609375 62.703125 36.375 
Q 62.703125 50.203125 56.421875 58.203125 
Q 50.140625 66.21875 39.40625 66.21875 
z
M 39.40625 74.21875 
Q 54.734375 74.21875 63.90625 63.9375 
Q 73.09375 53.65625 73.09375 36.375 
Q 73.09375 19.140625 63.90625 8.859375 
Q 54.734375 -1.421875 39.40625 -1.421875 
Q 24.03125 -1.421875 14.8125 8.828125 
Q 5.609375 19.09375 5.609375 36.375 
Q 5.609375 53.65625 14.8125 63.9375 
Q 24.03125 74.21875 39.40625 74.21875 
z
" id="DejaVuSans-79"/>
       <path d="M 48.78125 52.59375 
L 48.78125 44.1875 
Q 44.96875 46.296875 41.140625 47.34375 
Q 37.3125 48.390625 33.40625 48.390625 
Q 24.65625 48.390625 19.8125 42.84375 
Q 14.984375 37.3125 14.984375 27.296875 
Q 14.984375 17.28125 19.8125 11.734375 
Q 24.65625 6.203125 33.40625 6.203125 
Q 37.3125 6.203125 41.140625 7.25 
Q 44.96875 8.296875 48.78125 10.40625 
L 48.78125 2.09375 
Q 45.015625 0.34375 40.984375 -0.53125 
Q 36.96875 -1.421875 32.421875 -1.421875 
Q 20.0625 -1.421875 12.78125 6.34375 
Q 5.515625 14.109375 5.515625 27.296875 
Q 5.515625 40.671875 12.859375 48.328125 
Q 20.21875 56 33.015625 56 
Q 37.15625 56 41.109375 55.140625 
Q 45.0625 54.296875 48.78125 52.59375 
z
" id="DejaVuSans-99"/>
       <path d="M 18.3125 70.21875 
L 18.3125 54.6875 
L 36.8125 54.6875 
L 36.8125 47.703125 
L 18.3125 47.703125 
L 18.3125 18.015625 
Q 18.3125 11.328125 20.140625 9.421875 
Q 21.96875 7.515625 27.59375 7.515625 
L 36.8125 7.515625 
L 36.8125 0 
L 27.59375 0 
Q 17.1875 0 13.234375 3.875 
Q 9.28125 7.765625 9.28125 18.015625 
L 9.28125 47.703125 
L 2.6875 47.703125 
L 2.6875 54.6875 
L 9.28125 54.6875 
L 9.28125 70.21875 
z
" id="DejaVuSans-116"/>
      </defs>
      <g style="fill:#871f78;" transform="translate(364.666677 203.338437)scale(0.1 -0.1)">
       <use xlink:href="#DejaVuSans-79"/>
       <use x="78.710938" xlink:href="#DejaVuSans-99"/>
       <use x="133.691406" xlink:href="#DejaVuSans-116"/>
      </g>
     </g>
    </g>
    <g id="xtick_9">
     <g id="line2d_9"/>
     <g id="text_9">
      <!-- Nov -->
      <defs>
       <path d="M 9.8125 72.90625 
L 23.09375 72.90625 
L 55.421875 11.921875 
L 55.421875 72.90625 
L 64.984375 72.90625 
L 64.984375 0 
L 51.703125 0 
L 19.390625 60.984375 
L 19.390625 0 
L 9.8125 0 
z
" id="DejaVuSans-78"/>
       <path d="M 30.609375 48.390625 
Q 23.390625 48.390625 19.1875 42.75 
Q 14.984375 37.109375 14.984375 27.296875 
Q 14.984375 17.484375 19.15625 11.84375 
Q 23.34375 6.203125 30.609375 6.203125 
Q 37.796875 6.203125 41.984375 11.859375 
Q 46.1875 17.53125 46.1875 27.296875 
Q 46.1875 37.015625 41.984375 42.703125 
Q 37.796875 48.390625 30.609375 48.390625 
z
M 30.609375 56 
Q 42.328125 56 49.015625 48.375 
Q 55.71875 40.765625 55.71875 27.296875 
Q 55.71875 13.875 49.015625 6.21875 
Q 42.328125 -1.421875 30.609375 -1.421875 
Q 18.84375 -1.421875 12.171875 6.21875 
Q 5.515625 13.875 5.515625 27.296875 
Q 5.515625 40.765625 12.171875 48.375 
Q 18.84375 56 30.609375 56 
z
" id="DejaVuSans-111"/>
       <path d="M 2.984375 54.6875 
L 12.5 54.6875 
L 29.59375 8.796875 
L 46.6875 54.6875 
L 56.203125 54.6875 
L 35.6875 0 
L 23.484375 0 
z
" id="DejaVuSans-118"/>
      </defs>
      <g style="fill:#871f78;" transform="translate(406.251677 203.338437)scale(0.1 -0.1)">
       <use xlink:href="#DejaVuSans-78"/>
       <use x="74.804688" xlink:href="#DejaVuSans-111"/>
       <use x="135.986328" xlink:href="#DejaVuSans-118"/>
      </g>
     </g>
    </g>
   </g>
   <g id="matplotlib.axis_2">
    <g id="ytick_1">
     <g id="line2d_10">
      <path clip-path="url(#pd90b398496)" d="M 63 192.24 
L 453.6 192.24 
" style="fill:none;stroke:#cccccc;stroke-linecap:round;stroke-width:0.8;"/>
     </g>
     <g id="line2d_11"/>
     <g id="text_10">
      <!-- 0 -->
      <defs>
       <path d="M 31.78125 66.40625 
Q 24.171875 66.40625 20.328125 58.90625 
Q 16.5 51.421875 16.5 36.375 
Q 16.5 21.390625 20.328125 13.890625 
Q 24.171875 6.390625 31.78125 6.390625 
Q 39.453125 6.390625 43.28125 13.890625 
Q 47.125 21.390625 47.125 36.375 
Q 47.125 51.421875 43.28125 58.90625 
Q 39.453125 66.40625 31.78125 66.40625 
z
M 31.78125 74.21875 
Q 44.046875 74.21875 50.515625 64.515625 
Q 56.984375 54.828125 56.984375 36.375 
Q 56.984375 17.96875 50.515625 8.265625 
Q 44.046875 -1.421875 31.78125 -1.421875 
Q 19.53125 -1.421875 13.0625 8.265625 
Q 6.59375 17.96875 6.59375 36.375 
Q 6.59375 54.828125 13.0625 64.515625 
Q 19.53125 74.21875 31.78125 74.21875 
z
" id="DejaVuSans-48"/>
      </defs>
      <g style="fill:#871f78;" transform="translate(53.1375 196.039219)scale(0.1 -0.1)">
       <use xlink:href="#DejaVuSans-48"/>
      </g>
     </g>
    </g>
    <g id="ytick_2">
     <g id="line2d_12">
      <path clip-path="url(#pd90b398496)" d="M 63 164.52 
L 453.6 164.52 
" style="fill:none;stroke:#cccccc;stroke-linecap:round;stroke-width:0.8;"/>
     </g>
     <g id="line2d_13"/>
     <g id="text_11">
      <!-- 5 -->
      <defs>
       <path d="M 10.796875 72.90625 
L 49.515625 72.90625 
L 49.515625 64.59375 
L 19.828125 64.59375 
L 19.828125 46.734375 
Q 21.96875 47.46875 24.109375 47.828125 
Q 26.265625 48.1875 28.421875 48.1875 
Q 40.625 48.1875 47.75 41.5 
Q 54.890625 34.8125 54.890625 23.390625 
Q 54.890625 11.625 47.5625 5.09375 
Q 40.234375 -1.421875 26.90625 -1.421875 
Q 22.3125 -1.421875 17.546875 -0.640625 
Q 12.796875 0.140625 7.71875 1.703125 
L 7.71875 11.625 
Q 12.109375 9.234375 16.796875 8.0625 
Q 21.484375 6.890625 26.703125 6.890625 
Q 35.15625 6.890625 40.078125 11.328125 
Q 45.015625 15.765625 45.015625 23.390625 
Q 45.015625 31 40.078125 35.4375 
Q 35.15625 39.890625 26.703125 39.890625 
Q 22.75 39.890625 18.8125 39.015625 
Q 14.890625 38.140625 10.796875 36.28125 
z
" id="DejaVuSans-53"/>
      </defs>
      <g style="fill:#871f78;" transform="translate(53.1375 168.319219)scale(0.1 -0.1)">
       <use xlink:href="#DejaVuSans-53"/>
      </g>
     </g>
    </g>
    <g id="ytick_3">
     <g id="line2d_14">
      <path clip-path="url(#pd90b398496)" d="M 63 136.8 
L 453.6 136.8 
" style="fill:none;stroke:#cccccc;stroke-linecap:round;stroke-width:0.8;"/>
     </g>
     <g id="line2d_15"/>
     <g id="text_12">
      <!-- 10 -->
      <defs>
       <path d="M 12.40625 8.296875 
L 28.515625 8.296875 
L 28.515625 63.921875 
L 10.984375 60.40625 
L 10.984375 69.390625 
L 28.421875 72.90625 
L 38.28125 72.90625 
L 38.28125 8.296875 
L 54.390625 8.296875 
L 54.390625 0 
L 12.40625 0 
z
" id="DejaVuSans-49"/>
      </defs>
      <g style="fill:#871f78;" transform="translate(46.775 140.599219)scale(0.1 -0.1)">
       <use xlink:href="#DejaVuSans-49"/>
       <use x="63.623047" xlink:href="#DejaVuSans-48"/>
      </g>
     </g>
    </g>
    <g id="ytick_4">
     <g id="line2d_16">
      <path clip-path="url(#pd90b398496)" d="M 63 109.08 
L 453.6 109.08 
" style="fill:none;stroke:#cccccc;stroke-linecap:round;stroke-width:0.8;"/>
     </g>
     <g id="line2d_17"/>
     <g id="text_13">
      <!-- 15 -->
      <g style="fill:#871f78;" transform="translate(46.775 112.879219)scale(0.1 -0.1)">
       <use xlink:href="#DejaVuSans-49"/>
       <use x="63.623047" xlink:href="#DejaVuSans-53"/>
      </g>
     </g>
    </g>
    <g id="ytick_5">
     <g id="line2d_18">
      <path clip-path="url(#pd90b398496)" d="M 63 81.36 
L 453.6 81.36 
" style="fill:none;stroke:#cccccc;stroke-linecap:round;stroke-width:0.8;"/>
     </g>
     <g id="line2d_19"/>
     <g id="text_14">
      <!-- 20 -->
      <defs>
       <path d="M 19.1875 8.296875 
L 53.609375 8.296875 
L 53.609375 0 
L 7.328125 0 
L 7.328125 8.296875 
Q 12.9375 14.109375 22.625 23.890625 
Q 32.328125 33.6875 34.8125 36.53125 
Q 39.546875 41.84375 41.421875 45.53125 
Q 43.3125 49.21875 43.3125 52.78125 
Q 43.3125 58.59375 39.234375 62.25 
Q 35.15625 65.921875 28.609375 65.921875 
Q 23.96875 65.921875 18.8125 64.3125 
Q 13.671875 62.703125 7.8125 59.421875 
L 7.8125 69.390625 
Q 13.765625 71.78125 18.9375 73 
Q 24.125 74.21875 28.421875 74.21875 
Q 39.75 74.21875 46.484375 68.546875 
Q 53.21875 62.890625 53.21875 53.421875 
Q 53.21875 48.921875 51.53125 44.890625 
Q 49.859375 40.875 45.40625 35.40625 
Q 44.1875 33.984375 37.640625 27.21875 
Q 31.109375 20.453125 19.1875 8.296875 
z
" id="DejaVuSans-50"/>
      </defs>
      <g style="fill:#871f78;" transform="translate(46.775 85.159219)scale(0.1 -0.1)">
       <use xlink:href="#DejaVuSans-50"/>
       <use x="63.623047" xlink:href="#DejaVuSans-48"/>
      </g>
     </g>
    </g>
    <g id="ytick_6">
     <g id="line2d_20">
      <path clip-path="url(#pd90b398496)" d="M 63 53.64 
L 453.6 53.64 
" style="fill:none;stroke:#cccccc;stroke-linecap:round;stroke-width:0.8;"/>
     </g>
     <g id="line2d_21"/>
     <g id="text_15">
      <!-- 25 -->
      <g style="fill:#871f78;" transform="translate(46.775 57.439219)scale(0.1 -0.1)">
       <use xlink:href="#DejaVuSans-50"/>
       <use x="63.623047" xlink:href="#DejaVuSans-53"/>
      </g>
     </g>
    </g>
    <g id="ytick_7">
     <g id="line2d_22">
      <path clip-path="url(#pd90b398496)" d="M 63 25.92 
L 453.6 25.92 
" style="fill:none;stroke:#cccccc;stroke-linecap:round;stroke-width:0.8;"/>
     </g>
     <g id="line2d_23"/>
     <g id="text_16">
      <!-- 30 -->
      <defs>
       <path d="M 40.578125 39.3125 
Q 47.65625 37.796875 51.625 33 
Q 55.609375 28.21875 55.609375 21.1875 
Q 55.609375 10.40625 48.1875 4.484375 
Q 40.765625 -1.421875 27.09375 -1.421875 
Q 22.515625 -1.421875 17.65625 -0.515625 
Q 12.796875 0.390625 7.625 2.203125 
L 7.625 11.71875 
Q 11.71875 9.328125 16.59375 8.109375 
Q 21.484375 6.890625 26.8125 6.890625 
Q 36.078125 6.890625 40.9375 10.546875 
Q 45.796875 14.203125 45.796875 21.1875 
Q 45.796875 27.640625 41.28125 31.265625 
Q 36.765625 34.90625 28.71875 34.90625 
L 20.21875 34.90625 
L 20.21875 43.015625 
L 29.109375 43.015625 
Q 36.375 43.015625 40.234375 45.921875 
Q 44.09375 48.828125 44.09375 54.296875 
Q 44.09375 59.90625 40.109375 62.90625 
Q 36.140625 65.921875 28.71875 65.921875 
Q 24.65625 65.921875 20.015625 65.03125 
Q 15.375 64.15625 9.8125 62.3125 
L 9.8125 71.09375 
Q 15.4375 72.65625 20.34375 73.4375 
Q 25.25 74.21875 29.59375 74.21875 
Q 40.828125 74.21875 47.359375 69.109375 
Q 53.90625 64.015625 53.90625 55.328125 
Q 53.90625 49.265625 50.4375 45.09375 
Q 46.96875 40.921875 40.578125 39.3125 
z
" id="DejaVuSans-51"/>
      </defs>
      <g style="fill:#871f78;" transform="translate(46.775 29.719219)scale(0.1 -0.1)">
       <use xlink:href="#DejaVuSans-51"/>
       <use x="63.623047" xlink:href="#DejaVuSans-48"/>
      </g>
     </g>
    </g>
   </g>
   <g id="patch_3">
    <path clip-path="url(#pd90b398496)" d="M 80.754545 192.24 
L 81.856457 192.24 
L 81.856457 186.072187 
L 80.754545 186.072187 
z
" style="fill:#871f78;opacity:0.35;"/>
   </g>
   <g id="patch_4">
    <path clip-path="url(#pd90b398496)" d="M 82.131935 192.24 
L 83.233846 192.24 
L 83.233846 192.24 
L 82.131935 192.24 
z
" style="fill:#871f78;opacity:0.35;"/>
   </g>
   <g id="patch_5">
    <path clip-path="url(#pd90b398496)" d="M 83.509324 192.24 
L 84.611235 192.24 
L 84.611235 192.24 
L 83.509324 192.24 
z
" style="fill:#871f78;opacity:0.35;"/>
   </g>
   <g id="patch_6">
    <path clip-path="url(#pd90b398496)" d="M 84.886713 192.24 
L 85.988624 192.24 
L 85.988624 192.24 
L 84.886713 192.24 
z
" style="fill:#871f78;opacity:0.35;"/>
   </g>
   <g id="patch_7">
    <path clip-path="url(#pd90b398496)" d="M 86.264102 192.24 
L 87.366013 192.24 
L 87.366013 186.072187 
L 86.264102 186.072187 
z
" style="fill:#871f78;opacity:0.35;"/>
   </g>
   <g id="patch_8">
    <path clip-path="url(#pd90b398496)" d="M 87.641491 192.24 
L 88.743402 192.24 
L 88.743402 192.24 
L 87.641491 192.24 
z
" style="fill:#871f78;opacity:0.35;"/>
   </g>
   <g id="patch_9">
    <path clip-path="url(#pd90b398496)" d="M 89.01888 192.24 
L 90.120791 192.24 
L 90.120791 192.24 
L 89.01888 192.24 
z
" style="fill:#871f78;opacity:0.35;"/>
   </g>
   <g id="patch_10">
    <path clip-path="url(#pd90b398496)" d="M 90.396269 192.24 
L 91.49818 192.24 
L 91.49818 192.24 
L 90.396269 192.24 
z
" style="fill:#871f78;opacity:0.35;"/>
   </g>
   <g id="patch_11">
    <path clip-path="url(#pd90b398496)" d="M 91.773658 192.24 
L 92.87557 192.24 
L 92.87557 192.24 
L 91.773658 192.24 
z
" style="fill:#871f78;opacity:0.35;"/>
   </g>
   <g id="patch_12">
    <path clip-path="url(#pd90b398496)" d="M 93.151047 192.24 
L 94.252959 192.24 
L 94.252959 192.24 
L 93.151047 192.24 
z
" style="fill:#871f78;opacity:0.35;"/>
   </g>
   <g id="patch_13">
    <path clip-path="url(#pd90b398496)" d="M 94.528436 192.24 
L 95.630348 192.24 
L 95.630348 192.24 
L 94.528436 192.24 
z
" style="fill:#871f78;opacity:0.35;"/>
   </g>
   <g id="patch_14">
    <path clip-path="url(#pd90b398496)" d="M 95.905826 192.24 
L 97.007737 192.24 
L 97.007737 192.24 
L 95.905826 192.24 
z
" style="fill:#871f78;opacity:0.35;"/>
   </g>
   <g id="patch_15">
    <path clip-path="url(#pd90b398496)" d="M 97.283215 192.24 
L 98.385126 192.24 
L 98.385126 192.24 
L 97.283215 192.24 
z
" style="fill:#871f78;opacity:0.35;"/>
   </g>
   <g id="patch_16">
    <path clip-path="url(#pd90b398496)" d="M 98.660604 192.24 
L 99.762515 192.24 
L 99.762515 179.904375 
L 98.660604 179.904375 
z
" style="fill:#871f78;opacity:0.35;"/>
   </g>
   <g id="patch_17">
    <path clip-path="url(#pd90b398496)" d="M 100.037993 192.24 
L 101.139904 192.24 
L 101.139904 179.904375 
L 100.037993 179.904375 
z
" style="fill:#871f78;opacity:0.35;"/>
   </g>
   <g id="patch_18">
    <path clip-path="url(#pd90b398496)" d="M 101.415382 192.24 
L 102.517293 192.24 
L 102.517293 192.24 
L 101.415382 192.24 
z
" style="fill:#871f78;opacity:0.35;"/>
   </g>
   <g id="patch_19">
    <path clip-path="url(#pd90b398496)" d="M 102.792771 192.24 
L 103.894682 192.24 
L 103.894682 179.904375 
L 102.792771 179.904375 
z
" style="fill:#871f78;opacity:0.35;"/>
   </g>
   <g id="patch_20">
    <path clip-path="url(#pd90b398496)" d="M 104.17016 192.24 
L 105.272071 192.24 
L 105.272071 167.56875 
L 104.17016 167.56875 
z
" style="fill:#871f78;opacity:0.35;"/>
   </g>
   <g id="patch_21">
    <path clip-path="url(#pd90b398496)" d="M 105.547549 192.24 
L 106.64946 192.24 
L 106.64946 186.072187 
L 105.547549 186.072187 
z
" style="fill:#871f78;opacity:0.35;"/>
   </g>
   <g id="patch_22">
    <path clip-path="url(#pd90b398496)" d="M 106.924938 192.24 
L 108.02685 192.24 
L 108.02685 186.072187 
L 106.924938 186.072187 
z
" style="fill:#871f78;opacity:0.35;"/>
   </g>
   <g id="patch_23">
    <path clip-path="url(#pd90b398496)" d="M 108.302327 192.24 
L 109.404239 192.24 
L 109.404239 161.400937 
L 108.302327 161.400937 
z
" style="fill:#871f78;opacity:0.35;"/>
   </g>
   <g id="patch_24">
    <path clip-path="url(#pd90b398496)" d="M 109.679716 192.24 
L 110.781628 192.24 
L 110.781628 186.072187 
L 109.679716 186.072187 
z
" style="fill:#871f78;opacity:0.35;"/>
   </g>
   <g id="patch_25">
    <path clip-path="url(#pd90b398496)" d="M 111.057106 192.24 
L 112.159017 192.24 
L 112.159017 186.072187 
L 111.057106 186.072187 
z
" style="fill:#871f78;opacity:0.35;"/>
   </g>
   <g id="patch_26">
    <path clip-path="url(#pd90b398496)" d="M 112.434495 192.24 
L 113.536406 192.24 
L 113.536406 186.072187 
L 112.434495 186.072187 
z
" style="fill:#871f78;opacity:0.35;"/>
   </g>
   <g id="patch_27">
    <path clip-path="url(#pd90b398496)" d="M 113.811884 192.24 
L 114.913795 192.24 
L 114.913795 173.736562 
L 113.811884 173.736562 
z
" style="fill:#871f78;opacity:0.35;"/>
   </g>
   <g id="patch_28">
    <path clip-path="url(#pd90b398496)" d="M 115.189273 192.24 
L 116.291184 192.24 
L 116.291184 179.904375 
L 115.189273 179.904375 
z
" style="fill:#871f78;opacity:0.35;"/>
   </g>
   <g id="patch_29">
    <path clip-path="url(#pd90b398496)" d="M 116.566662 192.24 
L 117.668573 192.24 
L 117.668573 179.904375 
L 116.566662 179.904375 
z
" style="fill:#871f78;opacity:0.35;"/>
   </g>
   <g id="patch_30">
    <path clip-path="url(#pd90b398496)" d="M 117.944051 192.24 
L 119.045962 192.24 
L 119.045962 161.400937 
L 117.944051 161.400937 
z
" style="fill:#871f78;opacity:0.35;"/>
   </g>
   <g id="patch_31">
    <path clip-path="url(#pd90b398496)" d="M 119.32144 192.24 
L 120.423351 192.24 
L 120.423351 192.24 
L 119.32144 192.24 
z
" style="fill:#871f78;opacity:0.35;"/>
   </g>
   <g id="patch_32">
    <path clip-path="url(#pd90b398496)" d="M 120.698829 192.24 
L 121.800741 192.24 
L 121.800741 186.072187 
L 120.698829 186.072187 
z
" style="fill:#871f78;opacity:0.35;"/>
   </g>
   <g id="patch_33">
    <path clip-path="url(#pd90b398496)" d="M 122.076218 192.24 
L 123.17813 192.24 
L 123.17813 179.904375 
L 122.076218 179.904375 
z
" style="fill:#871f78;opacity:0.35;"/>
   </g>
   <g id="patch_34">
    <path clip-path="url(#pd90b398496)" d="M 123.453607 192.24 
L 124.555519 192.24 
L 124.555519 192.24 
L 123.453607 192.24 
z
" style="fill:#871f78;opacity:0.35;"/>
   </g>
   <g id="patch_35">
    <path clip-path="url(#pd90b398496)" d="M 124.830997 192.24 
L 125.932908 192.24 
L 125.932908 173.736562 
L 124.830997 173.736562 
z
" style="fill:#871f78;opacity:0.35;"/>
   </g>
   <g id="patch_36">
    <path clip-path="url(#pd90b398496)" d="M 126.208386 192.24 
L 127.310297 192.24 
L 127.310297 192.24 
L 126.208386 192.24 
z
" style="fill:#871f78;opacity:0.35;"/>
   </g>
   <g id="patch_37">
    <path clip-path="url(#pd90b398496)" d="M 127.585775 192.24 
L 128.687686 192.24 
L 128.687686 192.24 
L 127.585775 192.24 
z
" style="fill:#871f78;opacity:0.35;"/>
   </g>
   <g id="patch_38">
    <path clip-path="url(#pd90b398496)" d="M 128.963164 192.24 
L 130.065075 192.24 
L 130.065075 192.24 
L 128.963164 192.24 
z
" style="fill:#871f78;opacity:0.35;"/>
   </g>
   <g id="patch_39">
    <path clip-path="url(#pd90b398496)" d="M 130.340553 192.24 
L 131.442464 192.24 
L 131.442464 179.904375 
L 130.340553 179.904375 
z
" style="fill:#871f78;opacity:0.35;"/>
   </g>
   <g id="patch_40">
    <path clip-path="url(#pd90b398496)" d="M 131.717942 192.24 
L 132.819853 192.24 
L 132.819853 192.24 
L 131.717942 192.24 
z
" style="fill:#871f78;opacity:0.35;"/>
   </g>
   <g id="patch_41">
    <path clip-path="url(#pd90b398496)" d="M 133.095331 192.24 
L 134.197242 192.24 
L 134.197242 192.24 
L 133.095331 192.24 
z
" style="fill:#871f78;opacity:0.35;"/>
   </g>
   <g id="patch_42">
    <path clip-path="url(#pd90b398496)" d="M 134.47272 192.24 
L 135.574631 192.24 
L 135.574631 192.24 
L 134.47272 192.24 
z
" style="fill:#871f78;opacity:0.35;"/>
   </g>
   <g id="patch_43">
    <path clip-path="url(#pd90b398496)" d="M 135.850109 192.24 
L 136.952021 192.24 
L 136.952021 179.904375 
L 135.850109 179.904375 
z
" style="fill:#871f78;opacity:0.35;"/>
   </g>
   <g id="patch_44">
    <path clip-path="url(#pd90b398496)" d="M 137.227498 192.24 
L 138.32941 192.24 
L 138.32941 192.24 
L 137.227498 192.24 
z
" style="fill:#871f78;opacity:0.35;"/>
   </g>
   <g id="patch_45">
    <path clip-path="url(#pd90b398496)" d="M 138.604888 192.24 
L 139.706799 192.24 
L 139.706799 192.24 
L 138.604888 192.24 
z
" style="fill:#871f78;opacity:0.35;"/>
   </g>
   <g id="patch_46">
    <path clip-path="url(#pd90b398496)" d="M 139.982277 192.24 
L 141.084188 192.24 
L 141.084188 198.407813 
L 139.982277 198.407813 
z
" style="fill:#871f78;opacity:0.35;"/>
   </g>
   <g id="patch_47">
    <path clip-path="url(#pd90b398496)" d="M 141.359666 192.24 
L 142.461577 192.24 
L 142.461577 192.24 
L 141.359666 192.24 
z
" style="fill:#871f78;opacity:0.35;"/>
   </g>
   <g id="patch_48">
    <path clip-path="url(#pd90b398496)" d="M 142.737055 192.24 
L 143.838966 192.24 
L 143.838966 192.24 
L 142.737055 192.24 
z
" style="fill:#871f78;opacity:0.35;"/>
   </g>
   <g id="patch_49">
    <path clip-path="url(#pd90b398496)" d="M 144.114444 192.24 
L 145.216355 192.24 
L 145.216355 186.072187 
L 144.114444 186.072187 
z
" style="fill:#871f78;opacity:0.35;"/>
   </g>
   <g id="patch_50">
    <path clip-path="url(#pd90b398496)" d="M 145.491833 192.24 
L 146.593744 192.24 
L 146.593744 192.24 
L 145.491833 192.24 
z
" style="fill:#871f78;opacity:0.35;"/>
   </g>
   <g id="patch_51">
    <path clip-path="url(#pd90b398496)" d="M 146.869222 192.24 
L 147.971133 192.24 
L 147.971133 192.24 
L 146.869222 192.24 
z
" style="fill:#871f78;opacity:0.35;"/>
   </g>
   <g id="patch_52">
    <path clip-path="url(#pd90b398496)" d="M 148.246611 192.24 
L 149.348522 192.24 
L 149.348522 192.24 
L 148.246611 192.24 
z
" style="fill:#871f78;opacity:0.35;"/>
   </g>
   <g id="patch_53">
    <path clip-path="url(#pd90b398496)" d="M 149.624 192.24 
L 150.725912 192.24 
L 150.725912 192.24 
L 149.624 192.24 
z
" style="fill:#871f78;opacity:0.35;"/>
   </g>
   <g id="patch_54">
    <path clip-path="url(#pd90b398496)" d="M 151.001389 192.24 
L 152.103301 192.24 
L 152.103301 186.072187 
L 151.001389 186.072187 
z
" style="fill:#871f78;opacity:0.35;"/>
   </g>
   <g id="patch_55">
    <path clip-path="url(#pd90b398496)" d="M 152.378778 192.24 
L 153.48069 192.24 
L 153.48069 186.072187 
L 152.378778 186.072187 
z
" style="fill:#871f78;opacity:0.35;"/>
   </g>
   <g id="patch_56">
    <path clip-path="url(#pd90b398496)" d="M 153.756168 192.24 
L 154.858079 192.24 
L 154.858079 192.24 
L 153.756168 192.24 
z
" style="fill:#871f78;opacity:0.35;"/>
   </g>
   <g id="patch_57">
    <path clip-path="url(#pd90b398496)" d="M 155.133557 192.24 
L 156.235468 192.24 
L 156.235468 186.072187 
L 155.133557 186.072187 
z
" style="fill:#871f78;opacity:0.35;"/>
   </g>
   <g id="patch_58">
    <path clip-path="url(#pd90b398496)" d="M 156.510946 192.24 
L 157.612857 192.24 
L 157.612857 192.24 
L 156.510946 192.24 
z
" style="fill:#871f78;opacity:0.35;"/>
   </g>
   <g id="patch_59">
    <path clip-path="url(#pd90b398496)" d="M 157.888335 192.24 
L 158.990246 192.24 
L 158.990246 192.24 
L 157.888335 192.24 
z
" style="fill:#871f78;opacity:0.35;"/>
   </g>
   <g id="patch_60">
    <path clip-path="url(#pd90b398496)" d="M 159.265724 192.24 
L 160.367635 192.24 
L 160.367635 192.24 
L 159.265724 192.24 
z
" style="fill:#871f78;opacity:0.35;"/>
   </g>
   <g id="patch_61">
    <path clip-path="url(#pd90b398496)" d="M 160.643113 192.24 
L 161.745024 192.24 
L 161.745024 179.904375 
L 160.643113 179.904375 
z
" style="fill:#871f78;opacity:0.35;"/>
   </g>
   <g id="patch_62">
    <path clip-path="url(#pd90b398496)" d="M 162.020502 192.24 
L 163.122413 192.24 
L 163.122413 186.072187 
L 162.020502 186.072187 
z
" style="fill:#871f78;opacity:0.35;"/>
   </g>
   <g id="patch_63">
    <path clip-path="url(#pd90b398496)" d="M 163.397891 192.24 
L 164.499803 192.24 
L 164.499803 179.904375 
L 163.397891 179.904375 
z
" style="fill:#871f78;opacity:0.35;"/>
   </g>
   <g id="patch_64">
    <path clip-path="url(#pd90b398496)" d="M 164.77528 192.24 
L 165.877192 192.24 
L 165.877192 192.24 
L 164.77528 192.24 
z
" style="fill:#871f78;opacity:0.35;"/>
   </g>
   <g id="patch_65">
    <path clip-path="url(#pd90b398496)" d="M 166.152669 192.24 
L 167.254581 192.24 
L 167.254581 192.24 
L 166.152669 192.24 
z
" style="fill:#871f78;opacity:0.35;"/>
   </g>
   <g id="patch_66">
    <path clip-path="url(#pd90b398496)" d="M 167.530059 192.24 
L 168.63197 192.24 
L 168.63197 186.072187 
L 167.530059 186.072187 
z
" style="fill:#871f78;opacity:0.35;"/>
   </g>
   <g id="patch_67">
    <path clip-path="url(#pd90b398496)" d="M 168.907448 192.24 
L 170.009359 192.24 
L 170.009359 192.24 
L 168.907448 192.24 
z
" style="fill:#871f78;opacity:0.35;"/>
   </g>
   <g id="patch_68">
    <path clip-path="url(#pd90b398496)" d="M 170.284837 192.24 
L 171.386748 192.24 
L 171.386748 186.072187 
L 170.284837 186.072187 
z
" style="fill:#871f78;opacity:0.35;"/>
   </g>
   <g id="patch_69">
    <path clip-path="url(#pd90b398496)" d="M 171.662226 192.24 
L 172.764137 192.24 
L 172.764137 186.072187 
L 171.662226 186.072187 
z
" style="fill:#871f78;opacity:0.35;"/>
   </g>
   <g id="patch_70">
    <path clip-path="url(#pd90b398496)" d="M 173.039615 192.24 
L 174.141526 192.24 
L 174.141526 198.407813 
L 173.039615 198.407813 
z
" style="fill:#871f78;opacity:0.35;"/>
   </g>
   <g id="patch_71">
    <path clip-path="url(#pd90b398496)" d="M 174.417004 192.24 
L 175.518915 192.24 
L 175.518915 186.072187 
L 174.417004 186.072187 
z
" style="fill:#871f78;opacity:0.35;"/>
   </g>
   <g id="patch_72">
    <path clip-path="url(#pd90b398496)" d="M 175.794393 192.24 
L 176.896304 192.24 
L 176.896304 179.904375 
L 175.794393 179.904375 
z
" style="fill:#871f78;opacity:0.35;"/>
   </g>
   <g id="patch_73">
    <path clip-path="url(#pd90b398496)" d="M 177.171782 192.24 
L 178.273693 192.24 
L 178.273693 198.407813 
L 177.171782 198.407813 
z
" style="fill:#871f78;opacity:0.35;"/>
   </g>
   <g id="patch_74">
    <path clip-path="url(#pd90b398496)" d="M 178.549171 192.24 
L 179.651083 192.24 
L 179.651083 186.072187 
L 178.549171 186.072187 
z
" style="fill:#871f78;opacity:0.35;"/>
   </g>
   <g id="patch_75">
    <path clip-path="url(#pd90b398496)" d="M 179.92656 192.24 
L 181.028472 192.24 
L 181.028472 186.072187 
L 179.92656 186.072187 
z
" style="fill:#871f78;opacity:0.35;"/>
   </g>
   <g id="patch_76">
    <path clip-path="url(#pd90b398496)" d="M 181.30395 192.24 
L 182.405861 192.24 
L 182.405861 179.904375 
L 181.30395 179.904375 
z
" style="fill:#871f78;opacity:0.35;"/>
   </g>
   <g id="patch_77">
    <path clip-path="url(#pd90b398496)" d="M 182.681339 192.24 
L 183.78325 192.24 
L 183.78325 192.24 
L 182.681339 192.24 
z
" style="fill:#871f78;opacity:0.35;"/>
   </g>
   <g id="patch_78">
    <path clip-path="url(#pd90b398496)" d="M 184.058728 192.24 
L 185.160639 192.24 
L 185.160639 192.24 
L 184.058728 192.24 
z
" style="fill:#871f78;opacity:0.35;"/>
   </g>
   <g id="patch_79">
    <path clip-path="url(#pd90b398496)" d="M 185.436117 192.24 
L 186.538028 192.24 
L 186.538028 186.072187 
L 185.436117 186.072187 
z
" style="fill:#871f78;opacity:0.35;"/>
   </g>
   <g id="patch_80">
    <path clip-path="url(#pd90b398496)" d="M 186.813506 192.24 
L 187.915417 192.24 
L 187.915417 186.072187 
L 186.813506 186.072187 
z
" style="fill:#871f78;opacity:0.35;"/>
   </g>
   <g id="patch_81">
    <path clip-path="url(#pd90b398496)" d="M 188.190895 192.24 
L 189.292806 192.24 
L 189.292806 186.072187 
L 188.190895 186.072187 
z
" style="fill:#871f78;opacity:0.35;"/>
   </g>
   <g id="patch_82">
    <path clip-path="url(#pd90b398496)" d="M 189.568284 192.24 
L 190.670195 192.24 
L 190.670195 179.904375 
L 189.568284 179.904375 
z
" style="fill:#871f78;opacity:0.35;"/>
   </g>
   <g id="patch_83">
    <path clip-path="url(#pd90b398496)" d="M 190.945673 192.24 
L 192.047584 192.24 
L 192.047584 179.904375 
L 190.945673 179.904375 
z
" style="fill:#871f78;opacity:0.35;"/>
   </g>
   <g id="patch_84">
    <path clip-path="url(#pd90b398496)" d="M 192.323062 192.24 
L 193.424974 192.24 
L 193.424974 186.072187 
L 192.323062 186.072187 
z
" style="fill:#871f78;opacity:0.35;"/>
   </g>
   <g id="patch_85">
    <path clip-path="url(#pd90b398496)" d="M 193.700451 192.24 
L 194.802363 192.24 
L 194.802363 192.24 
L 193.700451 192.24 
z
" style="fill:#871f78;opacity:0.35;"/>
   </g>
   <g id="patch_86">
    <path clip-path="url(#pd90b398496)" d="M 195.07784 192.24 
L 196.179752 192.24 
L 196.179752 192.24 
L 195.07784 192.24 
z
" style="fill:#871f78;opacity:0.35;"/>
   </g>
   <g id="patch_87">
    <path clip-path="url(#pd90b398496)" d="M 196.45523 192.24 
L 197.557141 192.24 
L 197.557141 192.24 
L 196.45523 192.24 
z
" style="fill:#871f78;opacity:0.35;"/>
   </g>
   <g id="patch_88">
    <path clip-path="url(#pd90b398496)" d="M 197.832619 192.24 
L 198.93453 192.24 
L 198.93453 173.736562 
L 197.832619 173.736562 
z
" style="fill:#871f78;opacity:0.35;"/>
   </g>
   <g id="patch_89">
    <path clip-path="url(#pd90b398496)" d="M 199.210008 192.24 
L 200.311919 192.24 
L 200.311919 179.904375 
L 199.210008 179.904375 
z
" style="fill:#871f78;opacity:0.35;"/>
   </g>
   <g id="patch_90">
    <path clip-path="url(#pd90b398496)" d="M 200.587397 192.24 
L 201.689308 192.24 
L 201.689308 192.24 
L 200.587397 192.24 
z
" style="fill:#871f78;opacity:0.35;"/>
   </g>
   <g id="patch_91">
    <path clip-path="url(#pd90b398496)" d="M 201.964786 192.24 
L 203.066697 192.24 
L 203.066697 186.072187 
L 201.964786 186.072187 
z
" style="fill:#871f78;opacity:0.35;"/>
   </g>
   <g id="patch_92">
    <path clip-path="url(#pd90b398496)" d="M 203.342175 192.24 
L 204.444086 192.24 
L 204.444086 186.072187 
L 203.342175 186.072187 
z
" style="fill:#871f78;opacity:0.35;"/>
   </g>
   <g id="patch_93">
    <path clip-path="url(#pd90b398496)" d="M 204.719564 192.24 
L 205.821475 192.24 
L 205.821475 192.24 
L 204.719564 192.24 
z
" style="fill:#871f78;opacity:0.35;"/>
   </g>
   <g id="patch_94">
    <path clip-path="url(#pd90b398496)" d="M 206.096953 192.24 
L 207.198865 192.24 
L 207.198865 192.24 
L 206.096953 192.24 
z
" style="fill:#871f78;opacity:0.35;"/>
   </g>
   <g id="patch_95">
    <path clip-path="url(#pd90b398496)" d="M 207.474342 192.24 
L 208.576254 192.24 
L 208.576254 192.24 
L 207.474342 192.24 
z
" style="fill:#871f78;opacity:0.35;"/>
   </g>
   <g id="patch_96">
    <path clip-path="url(#pd90b398496)" d="M 208.851731 192.24 
L 209.953643 192.24 
L 209.953643 192.24 
L 208.851731 192.24 
z
" style="fill:#871f78;opacity:0.35;"/>
   </g>
   <g id="patch_97">
    <path clip-path="url(#pd90b398496)" d="M 210.229121 192.24 
L 211.331032 192.24 
L 211.331032 192.24 
L 210.229121 192.24 
z
" style="fill:#871f78;opacity:0.35;"/>
   </g>
   <g id="patch_98">
    <path clip-path="url(#pd90b398496)" d="M 211.60651 192.24 
L 212.708421 192.24 
L 212.708421 186.072187 
L 211.60651 186.072187 
z
" style="fill:#871f78;opacity:0.35;"/>
   </g>
   <g id="patch_99">
    <path clip-path="url(#pd90b398496)" d="M 212.983899 192.24 
L 214.08581 192.24 
L 214.08581 198.407813 
L 212.983899 198.407813 
z
" style="fill:#871f78;opacity:0.35;"/>
   </g>
   <g id="patch_100">
    <path clip-path="url(#pd90b398496)" d="M 214.361288 192.24 
L 215.463199 192.24 
L 215.463199 192.24 
L 214.361288 192.24 
z
" style="fill:#871f78;opacity:0.35;"/>
   </g>
   <g id="patch_101">
    <path clip-path="url(#pd90b398496)" d="M 215.738677 192.24 
L 216.840588 192.24 
L 216.840588 192.24 
L 215.738677 192.24 
z
" style="fill:#871f78;opacity:0.35;"/>
   </g>
   <g id="patch_102">
    <path clip-path="url(#pd90b398496)" d="M 217.116066 192.24 
L 218.217977 192.24 
L 218.217977 192.24 
L 217.116066 192.24 
z
" style="fill:#871f78;opacity:0.35;"/>
   </g>
   <g id="patch_103">
    <path clip-path="url(#pd90b398496)" d="M 218.493455 192.24 
L 219.595366 192.24 
L 219.595366 192.24 
L 218.493455 192.24 
z
" style="fill:#871f78;opacity:0.35;"/>
   </g>
   <g id="patch_104">
    <path clip-path="url(#pd90b398496)" d="M 219.870844 192.24 
L 220.972755 192.24 
L 220.972755 192.24 
L 219.870844 192.24 
z
" style="fill:#871f78;opacity:0.35;"/>
   </g>
   <g id="patch_105">
    <path clip-path="url(#pd90b398496)" d="M 221.248233 192.24 
L 222.350145 192.24 
L 222.350145 192.24 
L 221.248233 192.24 
z
" style="fill:#871f78;opacity:0.35;"/>
   </g>
   <g id="patch_106">
    <path clip-path="url(#pd90b398496)" d="M 222.625622 192.24 
L 223.727534 192.24 
L 223.727534 192.24 
L 222.625622 192.24 
z
" style="fill:#871f78;opacity:0.35;"/>
   </g>
   <g id="patch_107">
    <path clip-path="url(#pd90b398496)" d="M 224.003011 192.24 
L 225.104923 192.24 
L 225.104923 192.24 
L 224.003011 192.24 
z
" style="fill:#871f78;opacity:0.35;"/>
   </g>
   <g id="patch_108">
    <path clip-path="url(#pd90b398496)" d="M 225.380401 192.24 
L 226.482312 192.24 
L 226.482312 198.407813 
L 225.380401 198.407813 
z
" style="fill:#871f78;opacity:0.35;"/>
   </g>
   <g id="patch_109">
    <path clip-path="url(#pd90b398496)" d="M 226.75779 192.24 
L 227.859701 192.24 
L 227.859701 192.24 
L 226.75779 192.24 
z
" style="fill:#871f78;opacity:0.35;"/>
   </g>
   <g id="patch_110">
    <path clip-path="url(#pd90b398496)" d="M 228.135179 192.24 
L 229.23709 192.24 
L 229.23709 186.072187 
L 228.135179 186.072187 
z
" style="fill:#871f78;opacity:0.35;"/>
   </g>
   <g id="patch_111">
    <path clip-path="url(#pd90b398496)" d="M 229.512568 192.24 
L 230.614479 192.24 
L 230.614479 192.24 
L 229.512568 192.24 
z
" style="fill:#871f78;opacity:0.35;"/>
   </g>
   <g id="patch_112">
    <path clip-path="url(#pd90b398496)" d="M 230.889957 192.24 
L 231.991868 192.24 
L 231.991868 192.24 
L 230.889957 192.24 
z
" style="fill:#871f78;opacity:0.35;"/>
   </g>
   <g id="patch_113">
    <path clip-path="url(#pd90b398496)" d="M 232.267346 192.24 
L 233.369257 192.24 
L 233.369257 192.24 
L 232.267346 192.24 
z
" style="fill:#871f78;opacity:0.35;"/>
   </g>
   <g id="patch_114">
    <path clip-path="url(#pd90b398496)" d="M 233.644735 192.24 
L 234.746646 192.24 
L 234.746646 192.24 
L 233.644735 192.24 
z
" style="fill:#871f78;opacity:0.35;"/>
   </g>
   <g id="patch_115">
    <path clip-path="url(#pd90b398496)" d="M 235.022124 192.24 
L 236.124036 192.24 
L 236.124036 192.24 
L 235.022124 192.24 
z
" style="fill:#871f78;opacity:0.35;"/>
   </g>
   <g id="patch_116">
    <path clip-path="url(#pd90b398496)" d="M 236.399513 192.24 
L 237.501425 192.24 
L 237.501425 186.072187 
L 236.399513 186.072187 
z
" style="fill:#871f78;opacity:0.35;"/>
   </g>
   <g id="patch_117">
    <path clip-path="url(#pd90b398496)" d="M 237.776902 192.24 
L 238.878814 192.24 
L 238.878814 173.736562 
L 237.776902 173.736562 
z
" style="fill:#871f78;opacity:0.35;"/>
   </g>
   <g id="patch_118">
    <path clip-path="url(#pd90b398496)" d="M 239.154292 192.24 
L 240.256203 192.24 
L 240.256203 173.736562 
L 239.154292 173.736562 
z
" style="fill:#871f78;opacity:0.35;"/>
   </g>
   <g id="patch_119">
    <path clip-path="url(#pd90b398496)" d="M 240.531681 192.24 
L 241.633592 192.24 
L 241.633592 192.24 
L 240.531681 192.24 
z
" style="fill:#871f78;opacity:0.35;"/>
   </g>
   <g id="patch_120">
    <path clip-path="url(#pd90b398496)" d="M 241.90907 192.24 
L 243.010981 192.24 
L 243.010981 186.072187 
L 241.90907 186.072187 
z
" style="fill:#871f78;opacity:0.35;"/>
   </g>
   <g id="patch_121">
    <path clip-path="url(#pd90b398496)" d="M 243.286459 192.24 
L 244.38837 192.24 
L 244.38837 192.24 
L 243.286459 192.24 
z
" style="fill:#871f78;opacity:0.35;"/>
   </g>
   <g id="patch_122">
    <path clip-path="url(#pd90b398496)" d="M 244.663848 192.24 
L 245.765759 192.24 
L 245.765759 186.072187 
L 244.663848 186.072187 
z
" style="fill:#871f78;opacity:0.35;"/>
   </g>
   <g id="patch_123">
    <path clip-path="url(#pd90b398496)" d="M 246.041237 192.24 
L 247.143148 192.24 
L 247.143148 186.072187 
L 246.041237 186.072187 
z
" style="fill:#871f78;opacity:0.35;"/>
   </g>
   <g id="patch_124">
    <path clip-path="url(#pd90b398496)" d="M 247.418626 192.24 
L 248.520537 192.24 
L 248.520537 192.24 
L 247.418626 192.24 
z
" style="fill:#871f78;opacity:0.35;"/>
   </g>
   <g id="patch_125">
    <path clip-path="url(#pd90b398496)" d="M 248.796015 192.24 
L 249.897927 192.24 
L 249.897927 186.072187 
L 248.796015 186.072187 
z
" style="fill:#871f78;opacity:0.35;"/>
   </g>
   <g id="patch_126">
    <path clip-path="url(#pd90b398496)" d="M 250.173404 192.24 
L 251.275316 192.24 
L 251.275316 192.24 
L 250.173404 192.24 
z
" style="fill:#871f78;opacity:0.35;"/>
   </g>
   <g id="patch_127">
    <path clip-path="url(#pd90b398496)" d="M 251.550793 192.24 
L 252.652705 192.24 
L 252.652705 186.072187 
L 251.550793 186.072187 
z
" style="fill:#871f78;opacity:0.35;"/>
   </g>
   <g id="patch_128">
    <path clip-path="url(#pd90b398496)" d="M 252.928183 192.24 
L 254.030094 192.24 
L 254.030094 192.24 
L 252.928183 192.24 
z
" style="fill:#871f78;opacity:0.35;"/>
   </g>
   <g id="patch_129">
    <path clip-path="url(#pd90b398496)" d="M 254.305572 192.24 
L 255.407483 192.24 
L 255.407483 192.24 
L 254.305572 192.24 
z
" style="fill:#871f78;opacity:0.35;"/>
   </g>
   <g id="patch_130">
    <path clip-path="url(#pd90b398496)" d="M 255.682961 192.24 
L 256.784872 192.24 
L 256.784872 179.904375 
L 255.682961 179.904375 
z
" style="fill:#871f78;opacity:0.35;"/>
   </g>
   <g id="patch_131">
    <path clip-path="url(#pd90b398496)" d="M 257.06035 192.24 
L 258.162261 192.24 
L 258.162261 192.24 
L 257.06035 192.24 
z
" style="fill:#871f78;opacity:0.35;"/>
   </g>
   <g id="patch_132">
    <path clip-path="url(#pd90b398496)" d="M 258.437739 192.24 
L 259.53965 192.24 
L 259.53965 192.24 
L 258.437739 192.24 
z
" style="fill:#871f78;opacity:0.35;"/>
   </g>
   <g id="patch_133">
    <path clip-path="url(#pd90b398496)" d="M 259.815128 192.24 
L 260.917039 192.24 
L 260.917039 186.072187 
L 259.815128 186.072187 
z
" style="fill:#871f78;opacity:0.35;"/>
   </g>
   <g id="patch_134">
    <path clip-path="url(#pd90b398496)" d="M 261.192517 192.24 
L 262.294428 192.24 
L 262.294428 192.24 
L 261.192517 192.24 
z
" style="fill:#871f78;opacity:0.35;"/>
   </g>
   <g id="patch_135">
    <path clip-path="url(#pd90b398496)" d="M 262.569906 192.24 
L 263.671817 192.24 
L 263.671817 186.072187 
L 262.569906 186.072187 
z
" style="fill:#871f78;opacity:0.35;"/>
   </g>
   <g id="patch_136">
    <path clip-path="url(#pd90b398496)" d="M 263.947295 192.24 
L 265.049207 192.24 
L 265.049207 179.904375 
L 263.947295 179.904375 
z
" style="fill:#871f78;opacity:0.35;"/>
   </g>
   <g id="patch_137">
    <path clip-path="url(#pd90b398496)" d="M 265.324684 192.24 
L 266.426596 192.24 
L 266.426596 179.904375 
L 265.324684 179.904375 
z
" style="fill:#871f78;opacity:0.35;"/>
   </g>
   <g id="patch_138">
    <path clip-path="url(#pd90b398496)" d="M 266.702073 192.24 
L 267.803985 192.24 
L 267.803985 186.072187 
L 266.702073 186.072187 
z
" style="fill:#871f78;opacity:0.35;"/>
   </g>
   <g id="patch_139">
    <path clip-path="url(#pd90b398496)" d="M 268.079463 192.24 
L 269.181374 192.24 
L 269.181374 186.072187 
L 268.079463 186.072187 
z
" style="fill:#871f78;opacity:0.35;"/>
   </g>
   <g id="patch_140">
    <path clip-path="url(#pd90b398496)" d="M 269.456852 192.24 
L 270.558763 192.24 
L 270.558763 192.24 
L 269.456852 192.24 
z
" style="fill:#871f78;opacity:0.35;"/>
   </g>
   <g id="patch_141">
    <path clip-path="url(#pd90b398496)" d="M 270.834241 192.24 
L 271.936152 192.24 
L 271.936152 186.072187 
L 270.834241 186.072187 
z
" style="fill:#871f78;opacity:0.35;"/>
   </g>
   <g id="patch_142">
    <path clip-path="url(#pd90b398496)" d="M 272.21163 192.24 
L 273.313541 192.24 
L 273.313541 192.24 
L 272.21163 192.24 
z
" style="fill:#871f78;opacity:0.35;"/>
   </g>
   <g id="patch_143">
    <path clip-path="url(#pd90b398496)" d="M 273.589019 192.24 
L 274.69093 192.24 
L 274.69093 192.24 
L 273.589019 192.24 
z
" style="fill:#871f78;opacity:0.35;"/>
   </g>
   <g id="patch_144">
    <path clip-path="url(#pd90b398496)" d="M 274.966408 192.24 
L 276.068319 192.24 
L 276.068319 192.24 
L 274.966408 192.24 
z
" style="fill:#871f78;opacity:0.35;"/>
   </g>
   <g id="patch_145">
    <path clip-path="url(#pd90b398496)" d="M 276.343797 192.24 
L 277.445708 192.24 
L 277.445708 198.407813 
L 276.343797 198.407813 
z
" style="fill:#871f78;opacity:0.35;"/>
   </g>
   <g id="patch_146">
    <path clip-path="url(#pd90b398496)" d="M 277.721186 192.24 
L 278.823098 192.24 
L 278.823098 192.24 
L 277.721186 192.24 
z
" style="fill:#871f78;opacity:0.35;"/>
   </g>
   <g id="patch_147">
    <path clip-path="url(#pd90b398496)" d="M 279.098575 192.24 
L 280.200487 192.24 
L 280.200487 186.072187 
L 279.098575 186.072187 
z
" style="fill:#871f78;opacity:0.35;"/>
   </g>
   <g id="patch_148">
    <path clip-path="url(#pd90b398496)" d="M 280.475964 192.24 
L 281.577876 192.24 
L 281.577876 179.904375 
L 280.475964 179.904375 
z
" style="fill:#871f78;opacity:0.35;"/>
   </g>
   <g id="patch_149">
    <path clip-path="url(#pd90b398496)" d="M 281.853354 192.24 
L 282.955265 192.24 
L 282.955265 192.24 
L 281.853354 192.24 
z
" style="fill:#871f78;opacity:0.35;"/>
   </g>
   <g id="patch_150">
    <path clip-path="url(#pd90b398496)" d="M 283.230743 192.24 
L 284.332654 192.24 
L 284.332654 179.904375 
L 283.230743 179.904375 
z
" style="fill:#871f78;opacity:0.35;"/>
   </g>
   <g id="patch_151">
    <path clip-path="url(#pd90b398496)" d="M 284.608132 192.24 
L 285.710043 192.24 
L 285.710043 192.24 
L 284.608132 192.24 
z
" style="fill:#871f78;opacity:0.35;"/>
   </g>
   <g id="patch_152">
    <path clip-path="url(#pd90b398496)" d="M 285.985521 192.24 
L 287.087432 192.24 
L 287.087432 192.24 
L 285.985521 192.24 
z
" style="fill:#871f78;opacity:0.35;"/>
   </g>
   <g id="patch_153">
    <path clip-path="url(#pd90b398496)" d="M 287.36291 192.24 
L 288.464821 192.24 
L 288.464821 192.24 
L 287.36291 192.24 
z
" style="fill:#871f78;opacity:0.35;"/>
   </g>
   <g id="patch_154">
    <path clip-path="url(#pd90b398496)" d="M 288.740299 192.24 
L 289.84221 192.24 
L 289.84221 192.24 
L 288.740299 192.24 
z
" style="fill:#871f78;opacity:0.35;"/>
   </g>
   <g id="patch_155">
    <path clip-path="url(#pd90b398496)" d="M 290.117688 192.24 
L 291.219599 192.24 
L 291.219599 192.24 
L 290.117688 192.24 
z
" style="fill:#871f78;opacity:0.35;"/>
   </g>
   <g id="patch_156">
    <path clip-path="url(#pd90b398496)" d="M 291.495077 192.24 
L 292.596989 192.24 
L 292.596989 192.24 
L 291.495077 192.24 
z
" style="fill:#871f78;opacity:0.35;"/>
   </g>
   <g id="patch_157">
    <path clip-path="url(#pd90b398496)" d="M 292.872466 192.24 
L 293.974378 192.24 
L 293.974378 192.24 
L 292.872466 192.24 
z
" style="fill:#871f78;opacity:0.35;"/>
   </g>
   <g id="patch_158">
    <path clip-path="url(#pd90b398496)" d="M 294.249855 192.24 
L 295.351767 192.24 
L 295.351767 192.24 
L 294.249855 192.24 
z
" style="fill:#871f78;opacity:0.35;"/>
   </g>
   <g id="patch_159">
    <path clip-path="url(#pd90b398496)" d="M 295.627245 192.24 
L 296.729156 192.24 
L 296.729156 192.24 
L 295.627245 192.24 
z
" style="fill:#871f78;opacity:0.35;"/>
   </g>
   <g id="patch_160">
    <path clip-path="url(#pd90b398496)" d="M 297.004634 192.24 
L 298.106545 192.24 
L 298.106545 192.24 
L 297.004634 192.24 
z
" style="fill:#871f78;opacity:0.35;"/>
   </g>
   <g id="patch_161">
    <path clip-path="url(#pd90b398496)" d="M 298.382023 192.24 
L 299.483934 192.24 
L 299.483934 192.24 
L 298.382023 192.24 
z
" style="fill:#871f78;opacity:0.35;"/>
   </g>
   <g id="patch_162">
    <path clip-path="url(#pd90b398496)" d="M 299.759412 192.24 
L 300.861323 192.24 
L 300.861323 192.24 
L 299.759412 192.24 
z
" style="fill:#871f78;opacity:0.35;"/>
   </g>
   <g id="patch_163">
    <path clip-path="url(#pd90b398496)" d="M 301.136801 192.24 
L 302.238712 192.24 
L 302.238712 192.24 
L 301.136801 192.24 
z
" style="fill:#871f78;opacity:0.35;"/>
   </g>
   <g id="patch_164">
    <path clip-path="url(#pd90b398496)" d="M 302.51419 192.24 
L 303.616101 192.24 
L 303.616101 186.072187 
L 302.51419 186.072187 
z
" style="fill:#871f78;opacity:0.35;"/>
   </g>
   <g id="patch_165">
    <path clip-path="url(#pd90b398496)" d="M 303.891579 192.24 
L 304.99349 192.24 
L 304.99349 186.072187 
L 303.891579 186.072187 
z
" style="fill:#871f78;opacity:0.35;"/>
   </g>
   <g id="patch_166">
    <path clip-path="url(#pd90b398496)" d="M 305.268968 192.24 
L 306.370879 192.24 
L 306.370879 192.24 
L 305.268968 192.24 
z
" style="fill:#871f78;opacity:0.35;"/>
   </g>
   <g id="patch_167">
    <path clip-path="url(#pd90b398496)" d="M 306.646357 192.24 
L 307.748269 192.24 
L 307.748269 186.072187 
L 306.646357 186.072187 
z
" style="fill:#871f78;opacity:0.35;"/>
   </g>
   <g id="patch_168">
    <path clip-path="url(#pd90b398496)" d="M 308.023746 192.24 
L 309.125658 192.24 
L 309.125658 186.072187 
L 308.023746 186.072187 
z
" style="fill:#871f78;opacity:0.35;"/>
   </g>
   <g id="patch_169">
    <path clip-path="url(#pd90b398496)" d="M 309.401135 192.24 
L 310.503047 192.24 
L 310.503047 192.24 
L 309.401135 192.24 
z
" style="fill:#871f78;opacity:0.35;"/>
   </g>
   <g id="patch_170">
    <path clip-path="url(#pd90b398496)" d="M 310.778525 192.24 
L 311.880436 192.24 
L 311.880436 192.24 
L 310.778525 192.24 
z
" style="fill:#871f78;opacity:0.35;"/>
   </g>
   <g id="patch_171">
    <path clip-path="url(#pd90b398496)" d="M 312.155914 192.24 
L 313.257825 192.24 
L 313.257825 192.24 
L 312.155914 192.24 
z
" style="fill:#871f78;opacity:0.35;"/>
   </g>
   <g id="patch_172">
    <path clip-path="url(#pd90b398496)" d="M 313.533303 192.24 
L 314.635214 192.24 
L 314.635214 192.24 
L 313.533303 192.24 
z
" style="fill:#871f78;opacity:0.35;"/>
   </g>
   <g id="patch_173">
    <path clip-path="url(#pd90b398496)" d="M 314.910692 192.24 
L 316.012603 192.24 
L 316.012603 192.24 
L 314.910692 192.24 
z
" style="fill:#871f78;opacity:0.35;"/>
   </g>
   <g id="patch_174">
    <path clip-path="url(#pd90b398496)" d="M 316.288081 192.24 
L 317.389992 192.24 
L 317.389992 192.24 
L 316.288081 192.24 
z
" style="fill:#871f78;opacity:0.35;"/>
   </g>
   <g id="patch_175">
    <path clip-path="url(#pd90b398496)" d="M 317.66547 192.24 
L 318.767381 192.24 
L 318.767381 179.904375 
L 317.66547 179.904375 
z
" style="fill:#871f78;opacity:0.35;"/>
   </g>
   <g id="patch_176">
    <path clip-path="url(#pd90b398496)" d="M 319.042859 192.24 
L 320.14477 192.24 
L 320.14477 192.24 
L 319.042859 192.24 
z
" style="fill:#871f78;opacity:0.35;"/>
   </g>
   <g id="patch_177">
    <path clip-path="url(#pd90b398496)" d="M 320.420248 192.24 
L 321.52216 192.24 
L 321.52216 192.24 
L 320.420248 192.24 
z
" style="fill:#871f78;opacity:0.35;"/>
   </g>
   <g id="patch_178">
    <path clip-path="url(#pd90b398496)" d="M 321.797637 192.24 
L 322.899549 192.24 
L 322.899549 192.24 
L 321.797637 192.24 
z
" style="fill:#871f78;opacity:0.35;"/>
   </g>
   <g id="patch_179">
    <path clip-path="url(#pd90b398496)" d="M 323.175026 192.24 
L 324.276938 192.24 
L 324.276938 186.072187 
L 323.175026 186.072187 
z
" style="fill:#871f78;opacity:0.35;"/>
   </g>
   <g id="patch_180">
    <path clip-path="url(#pd90b398496)" d="M 324.552416 192.24 
L 325.654327 192.24 
L 325.654327 179.904375 
L 324.552416 179.904375 
z
" style="fill:#871f78;opacity:0.35;"/>
   </g>
   <g id="patch_181">
    <path clip-path="url(#pd90b398496)" d="M 325.929805 192.24 
L 327.031716 192.24 
L 327.031716 186.072187 
L 325.929805 186.072187 
z
" style="fill:#871f78;opacity:0.35;"/>
   </g>
   <g id="patch_182">
    <path clip-path="url(#pd90b398496)" d="M 327.307194 192.24 
L 328.409105 192.24 
L 328.409105 192.24 
L 327.307194 192.24 
z
" style="fill:#871f78;opacity:0.35;"/>
   </g>
   <g id="patch_183">
    <path clip-path="url(#pd90b398496)" d="M 328.684583 192.24 
L 329.786494 192.24 
L 329.786494 192.24 
L 328.684583 192.24 
z
" style="fill:#871f78;opacity:0.35;"/>
   </g>
   <g id="patch_184">
    <path clip-path="url(#pd90b398496)" d="M 330.061972 192.24 
L 331.163883 192.24 
L 331.163883 186.072187 
L 330.061972 186.072187 
z
" style="fill:#871f78;opacity:0.35;"/>
   </g>
   <g id="patch_185">
    <path clip-path="url(#pd90b398496)" d="M 331.439361 192.24 
L 332.541272 192.24 
L 332.541272 192.24 
L 331.439361 192.24 
z
" style="fill:#871f78;opacity:0.35;"/>
   </g>
   <g id="patch_186">
    <path clip-path="url(#pd90b398496)" d="M 332.81675 192.24 
L 333.918661 192.24 
L 333.918661 192.24 
L 332.81675 192.24 
z
" style="fill:#871f78;opacity:0.35;"/>
   </g>
   <g id="patch_187">
    <path clip-path="url(#pd90b398496)" d="M 334.194139 192.24 
L 335.29605 192.24 
L 335.29605 192.24 
L 334.194139 192.24 
z
" style="fill:#871f78;opacity:0.35;"/>
   </g>
   <g id="patch_188">
    <path clip-path="url(#pd90b398496)" d="M 335.571528 192.24 
L 336.67344 192.24 
L 336.67344 186.072187 
L 335.571528 186.072187 
z
" style="fill:#871f78;opacity:0.35;"/>
   </g>
   <g id="patch_189">
    <path clip-path="url(#pd90b398496)" d="M 336.948917 192.24 
L 338.050829 192.24 
L 338.050829 173.736562 
L 336.948917 173.736562 
z
" style="fill:#871f78;opacity:0.35;"/>
   </g>
   <g id="patch_190">
    <path clip-path="url(#pd90b398496)" d="M 338.326307 192.24 
L 339.428218 192.24 
L 339.428218 192.24 
L 338.326307 192.24 
z
" style="fill:#871f78;opacity:0.35;"/>
   </g>
   <g id="patch_191">
    <path clip-path="url(#pd90b398496)" d="M 339.703696 192.24 
L 340.805607 192.24 
L 340.805607 179.904375 
L 339.703696 179.904375 
z
" style="fill:#871f78;opacity:0.35;"/>
   </g>
   <g id="patch_192">
    <path clip-path="url(#pd90b398496)" d="M 341.081085 192.24 
L 342.182996 192.24 
L 342.182996 179.904375 
L 341.081085 179.904375 
z
" style="fill:#871f78;opacity:0.35;"/>
   </g>
   <g id="patch_193">
    <path clip-path="url(#pd90b398496)" d="M 342.458474 192.24 
L 343.560385 192.24 
L 343.560385 186.072187 
L 342.458474 186.072187 
z
" style="fill:#871f78;opacity:0.35;"/>
   </g>
   <g id="patch_194">
    <path clip-path="url(#pd90b398496)" d="M 343.835863 192.24 
L 344.937774 192.24 
L 344.937774 179.904375 
L 343.835863 179.904375 
z
" style="fill:#871f78;opacity:0.35;"/>
   </g>
   <g id="patch_195">
    <path clip-path="url(#pd90b398496)" d="M 345.213252 192.24 
L 346.315163 192.24 
L 346.315163 186.072187 
L 345.213252 186.072187 
z
" style="fill:#871f78;opacity:0.35;"/>
   </g>
   <g id="patch_196">
    <path clip-path="url(#pd90b398496)" d="M 346.590641 192.24 
L 347.692552 192.24 
L 347.692552 192.24 
L 346.590641 192.24 
z
" style="fill:#871f78;opacity:0.35;"/>
   </g>
   <g id="patch_197">
    <path clip-path="url(#pd90b398496)" d="M 347.96803 192.24 
L 349.069941 192.24 
L 349.069941 186.072187 
L 347.96803 186.072187 
z
" style="fill:#871f78;opacity:0.35;"/>
   </g>
   <g id="patch_198">
    <path clip-path="url(#pd90b398496)" d="M 349.345419 192.24 
L 350.447331 192.24 
L 350.447331 186.072187 
L 349.345419 186.072187 
z
" style="fill:#871f78;opacity:0.35;"/>
   </g>
   <g id="patch_199">
    <path clip-path="url(#pd90b398496)" d="M 350.722808 192.24 
L 351.82472 192.24 
L 351.82472 186.072187 
L 350.722808 186.072187 
z
" style="fill:#871f78;opacity:0.35;"/>
   </g>
   <g id="patch_200">
    <path clip-path="url(#pd90b398496)" d="M 352.100197 192.24 
L 353.202109 192.24 
L 353.202109 186.072187 
L 352.100197 186.072187 
z
" style="fill:#871f78;opacity:0.35;"/>
   </g>
   <g id="patch_201">
    <path clip-path="url(#pd90b398496)" d="M 353.477587 192.24 
L 354.579498 192.24 
L 354.579498 192.24 
L 353.477587 192.24 
z
" style="fill:#871f78;opacity:0.35;"/>
   </g>
   <g id="patch_202">
    <path clip-path="url(#pd90b398496)" d="M 354.854976 192.24 
L 355.956887 192.24 
L 355.956887 186.072187 
L 354.854976 186.072187 
z
" style="fill:#871f78;opacity:0.35;"/>
   </g>
   <g id="patch_203">
    <path clip-path="url(#pd90b398496)" d="M 356.232365 192.24 
L 357.334276 192.24 
L 357.334276 186.072187 
L 356.232365 186.072187 
z
" style="fill:#871f78;opacity:0.35;"/>
   </g>
   <g id="patch_204">
    <path clip-path="url(#pd90b398496)" d="M 357.609754 192.24 
L 358.711665 192.24 
L 358.711665 179.904375 
L 357.609754 179.904375 
z
" style="fill:#871f78;opacity:0.35;"/>
   </g>
   <g id="patch_205">
    <path clip-path="url(#pd90b398496)" d="M 358.987143 192.24 
L 360.089054 192.24 
L 360.089054 192.24 
L 358.987143 192.24 
z
" style="fill:#871f78;opacity:0.35;"/>
   </g>
   <g id="patch_206">
    <path clip-path="url(#pd90b398496)" d="M 360.364532 192.24 
L 361.466443 192.24 
L 361.466443 173.736562 
L 360.364532 173.736562 
z
" style="fill:#871f78;opacity:0.35;"/>
   </g>
   <g id="patch_207">
    <path clip-path="url(#pd90b398496)" d="M 361.741921 192.24 
L 362.843832 192.24 
L 362.843832 192.24 
L 361.741921 192.24 
z
" style="fill:#871f78;opacity:0.35;"/>
   </g>
   <g id="patch_208">
    <path clip-path="url(#pd90b398496)" d="M 363.11931 192.24 
L 364.221222 192.24 
L 364.221222 186.072187 
L 363.11931 186.072187 
z
" style="fill:#871f78;opacity:0.35;"/>
   </g>
   <g id="patch_209">
    <path clip-path="url(#pd90b398496)" d="M 364.496699 192.24 
L 365.598611 192.24 
L 365.598611 192.24 
L 364.496699 192.24 
z
" style="fill:#871f78;opacity:0.35;"/>
   </g>
   <g id="patch_210">
    <path clip-path="url(#pd90b398496)" d="M 365.874088 192.24 
L 366.976 192.24 
L 366.976 192.24 
L 365.874088 192.24 
z
" style="fill:#871f78;opacity:0.35;"/>
   </g>
   <g id="patch_211">
    <path clip-path="url(#pd90b398496)" d="M 367.251478 192.24 
L 368.353389 192.24 
L 368.353389 173.736562 
L 367.251478 173.736562 
z
" style="fill:#871f78;opacity:0.35;"/>
   </g>
   <g id="patch_212">
    <path clip-path="url(#pd90b398496)" d="M 368.628867 192.24 
L 369.730778 192.24 
L 369.730778 186.072187 
L 368.628867 186.072187 
z
" style="fill:#871f78;opacity:0.35;"/>
   </g>
   <g id="patch_213">
    <path clip-path="url(#pd90b398496)" d="M 370.006256 192.24 
L 371.108167 192.24 
L 371.108167 192.24 
L 370.006256 192.24 
z
" style="fill:#871f78;opacity:0.35;"/>
   </g>
   <g id="patch_214">
    <path clip-path="url(#pd90b398496)" d="M 371.383645 192.24 
L 372.485556 192.24 
L 372.485556 179.904375 
L 371.383645 179.904375 
z
" style="fill:#871f78;opacity:0.35;"/>
   </g>
   <g id="patch_215">
    <path clip-path="url(#pd90b398496)" d="M 372.761034 192.24 
L 373.862945 192.24 
L 373.862945 186.072187 
L 372.761034 186.072187 
z
" style="fill:#871f78;opacity:0.35;"/>
   </g>
   <g id="patch_216">
    <path clip-path="url(#pd90b398496)" d="M 374.138423 192.24 
L 375.240334 192.24 
L 375.240334 149.065312 
L 374.138423 149.065312 
z
" style="fill:#871f78;opacity:0.35;"/>
   </g>
   <g id="patch_217">
    <path clip-path="url(#pd90b398496)" d="M 375.515812 192.24 
L 376.617723 192.24 
L 376.617723 179.904375 
L 375.515812 179.904375 
z
" style="fill:#871f78;opacity:0.35;"/>
   </g>
   <g id="patch_218">
    <path clip-path="url(#pd90b398496)" d="M 376.893201 192.24 
L 377.995112 192.24 
L 377.995112 186.072187 
L 376.893201 186.072187 
z
" style="fill:#871f78;opacity:0.35;"/>
   </g>
   <g id="patch_219">
    <path clip-path="url(#pd90b398496)" d="M 378.27059 192.24 
L 379.372502 192.24 
L 379.372502 192.24 
L 378.27059 192.24 
z
" style="fill:#871f78;opacity:0.35;"/>
   </g>
   <g id="patch_220">
    <path clip-path="url(#pd90b398496)" d="M 379.647979 192.24 
L 380.749891 192.24 
L 380.749891 186.072187 
L 379.647979 186.072187 
z
" style="fill:#871f78;opacity:0.35;"/>
   </g>
   <g id="patch_221">
    <path clip-path="url(#pd90b398496)" d="M 381.025369 192.24 
L 382.12728 192.24 
L 382.12728 192.24 
L 381.025369 192.24 
z
" style="fill:#871f78;opacity:0.35;"/>
   </g>
   <g id="patch_222">
    <path clip-path="url(#pd90b398496)" d="M 382.402758 192.24 
L 383.504669 192.24 
L 383.504669 186.072187 
L 382.402758 186.072187 
z
" style="fill:#871f78;opacity:0.35;"/>
   </g>
   <g id="patch_223">
    <path clip-path="url(#pd90b398496)" d="M 383.780147 192.24 
L 384.882058 192.24 
L 384.882058 179.904375 
L 383.780147 179.904375 
z
" style="fill:#871f78;opacity:0.35;"/>
   </g>
   <g id="patch_224">
    <path clip-path="url(#pd90b398496)" d="M 385.157536 192.24 
L 386.259447 192.24 
L 386.259447 161.400937 
L 385.157536 161.400937 
z
" style="fill:#871f78;opacity:0.35;"/>
   </g>
   <g id="patch_225">
    <path clip-path="url(#pd90b398496)" d="M 386.534925 192.24 
L 387.636836 192.24 
L 387.636836 186.072187 
L 386.534925 186.072187 
z
" style="fill:#871f78;opacity:0.35;"/>
   </g>
   <g id="patch_226">
    <path clip-path="url(#pd90b398496)" d="M 387.912314 192.24 
L 389.014225 192.24 
L 389.014225 167.56875 
L 387.912314 167.56875 
z
" style="fill:#871f78;opacity:0.35;"/>
   </g>
   <g id="patch_227">
    <path clip-path="url(#pd90b398496)" d="M 389.289703 192.24 
L 390.391614 192.24 
L 390.391614 186.072187 
L 389.289703 186.072187 
z
" style="fill:#871f78;opacity:0.35;"/>
   </g>
   <g id="patch_228">
    <path clip-path="url(#pd90b398496)" d="M 390.667092 192.24 
L 391.769003 192.24 
L 391.769003 179.904375 
L 390.667092 179.904375 
z
" style="fill:#871f78;opacity:0.35;"/>
   </g>
   <g id="patch_229">
    <path clip-path="url(#pd90b398496)" d="M 392.044481 192.24 
L 393.146393 192.24 
L 393.146393 179.904375 
L 392.044481 179.904375 
z
" style="fill:#871f78;opacity:0.35;"/>
   </g>
   <g id="patch_230">
    <path clip-path="url(#pd90b398496)" d="M 393.42187 192.24 
L 394.523782 192.24 
L 394.523782 179.904375 
L 393.42187 179.904375 
z
" style="fill:#871f78;opacity:0.35;"/>
   </g>
   <g id="patch_231">
    <path clip-path="url(#pd90b398496)" d="M 394.799259 192.24 
L 395.901171 192.24 
L 395.901171 167.56875 
L 394.799259 167.56875 
z
" style="fill:#871f78;opacity:0.35;"/>
   </g>
   <g id="patch_232">
    <path clip-path="url(#pd90b398496)" d="M 396.176649 192.24 
L 397.27856 192.24 
L 397.27856 186.072187 
L 396.176649 186.072187 
z
" style="fill:#871f78;opacity:0.35;"/>
   </g>
   <g id="patch_233">
    <path clip-path="url(#pd90b398496)" d="M 397.554038 192.24 
L 398.655949 192.24 
L 398.655949 179.904375 
L 397.554038 179.904375 
z
" style="fill:#871f78;opacity:0.35;"/>
   </g>
   <g id="patch_234">
    <path clip-path="url(#pd90b398496)" d="M 398.931427 192.24 
L 400.033338 192.24 
L 400.033338 179.904375 
L 398.931427 179.904375 
z
" style="fill:#871f78;opacity:0.35;"/>
   </g>
   <g id="patch_235">
    <path clip-path="url(#pd90b398496)" d="M 400.308816 192.24 
L 401.410727 192.24 
L 401.410727 179.904375 
L 400.308816 179.904375 
z
" style="fill:#871f78;opacity:0.35;"/>
   </g>
   <g id="patch_236">
    <path clip-path="url(#pd90b398496)" d="M 401.686205 192.24 
L 402.788116 192.24 
L 402.788116 179.904375 
L 401.686205 179.904375 
z
" style="fill:#871f78;opacity:0.35;"/>
   </g>
   <g id="patch_237">
    <path clip-path="url(#pd90b398496)" d="M 403.063594 192.24 
L 404.165505 192.24 
L 404.165505 179.904375 
L 403.063594 179.904375 
z
" style="fill:#871f78;opacity:0.35;"/>
   </g>
   <g id="patch_238">
    <path clip-path="url(#pd90b398496)" d="M 404.440983 192.24 
L 405.542894 192.24 
L 405.542894 173.736562 
L 404.440983 173.736562 
z
" style="fill:#871f78;opacity:0.35;"/>
   </g>
   <g id="patch_239">
    <path clip-path="url(#pd90b398496)" d="M 405.818372 192.24 
L 406.920284 192.24 
L 406.920284 179.904375 
L 405.818372 179.904375 
z
" style="fill:#871f78;opacity:0.35;"/>
   </g>
   <g id="patch_240">
    <path clip-path="url(#pd90b398496)" d="M 407.195761 192.24 
L 408.297673 192.24 
L 408.297673 173.736562 
L 407.195761 173.736562 
z
" style="fill:#871f78;opacity:0.35;"/>
   </g>
   <g id="patch_241">
    <path clip-path="url(#pd90b398496)" d="M 408.57315 192.24 
L 409.675062 192.24 
L 409.675062 142.897499 
L 408.57315 142.897499 
z
" style="fill:#871f78;opacity:0.35;"/>
   </g>
   <g id="patch_242">
    <path clip-path="url(#pd90b398496)" d="M 409.95054 192.24 
L 411.052451 192.24 
L 411.052451 161.400937 
L 409.95054 161.400937 
z
" style="fill:#871f78;opacity:0.35;"/>
   </g>
   <g id="patch_243">
    <path clip-path="url(#pd90b398496)" d="M 411.327929 192.24 
L 412.42984 192.24 
L 412.42984 81.219374 
L 411.327929 81.219374 
z
" style="fill:#871f78;opacity:0.35;"/>
   </g>
   <g id="patch_244">
    <path clip-path="url(#pd90b398496)" d="M 412.705318 192.24 
L 413.807229 192.24 
L 413.807229 155.233125 
L 412.705318 155.233125 
z
" style="fill:#871f78;opacity:0.35;"/>
   </g>
   <g id="patch_245">
    <path clip-path="url(#pd90b398496)" d="M 414.082707 192.24 
L 415.184618 192.24 
L 415.184618 136.729687 
L 414.082707 136.729687 
z
" style="fill:#871f78;opacity:0.35;"/>
   </g>
   <g id="patch_246">
    <path clip-path="url(#pd90b398496)" d="M 415.460096 192.24 
L 416.562007 192.24 
L 416.562007 130.561874 
L 415.460096 130.561874 
z
" style="fill:#871f78;opacity:0.35;"/>
   </g>
   <g id="patch_247">
    <path clip-path="url(#pd90b398496)" d="M 416.837485 192.24 
L 417.939396 192.24 
L 417.939396 136.729687 
L 416.837485 136.729687 
z
" style="fill:#871f78;opacity:0.35;"/>
   </g>
   <g id="patch_248">
    <path clip-path="url(#pd90b398496)" d="M 418.214874 192.24 
L 419.316785 192.24 
L 419.316785 161.400937 
L 418.214874 161.400937 
z
" style="fill:#871f78;opacity:0.35;"/>
   </g>
   <g id="patch_249">
    <path clip-path="url(#pd90b398496)" d="M 419.592263 192.24 
L 420.694174 192.24 
L 420.694174 142.897499 
L 419.592263 142.897499 
z
" style="fill:#871f78;opacity:0.35;"/>
   </g>
   <g id="patch_250">
    <path clip-path="url(#pd90b398496)" d="M 420.969652 192.24 
L 422.071564 192.24 
L 422.071564 161.400937 
L 420.969652 161.400937 
z
" style="fill:#871f78;opacity:0.35;"/>
   </g>
   <g id="patch_251">
    <path clip-path="url(#pd90b398496)" d="M 422.347041 192.24 
L 423.448953 192.24 
L 423.448953 118.226249 
L 422.347041 118.226249 
z
" style="fill:#871f78;opacity:0.35;"/>
   </g>
   <g id="patch_252">
    <path clip-path="url(#pd90b398496)" d="M 423.72443 192.24 
L 424.826342 192.24 
L 424.826342 142.897499 
L 423.72443 142.897499 
z
" style="fill:#871f78;opacity:0.35;"/>
   </g>
   <g id="patch_253">
    <path clip-path="url(#pd90b398496)" d="M 425.10182 192.24 
L 426.203731 192.24 
L 426.203731 105.890624 
L 425.10182 105.890624 
z
" style="fill:#871f78;opacity:0.35;"/>
   </g>
   <g id="patch_254">
    <path clip-path="url(#pd90b398496)" d="M 426.479209 192.24 
L 427.58112 192.24 
L 427.58112 142.897499 
L 426.479209 142.897499 
z
" style="fill:#871f78;opacity:0.35;"/>
   </g>
   <g id="patch_255">
    <path clip-path="url(#pd90b398496)" d="M 427.856598 192.24 
L 428.958509 192.24 
L 428.958509 136.729687 
L 427.856598 136.729687 
z
" style="fill:#871f78;opacity:0.35;"/>
   </g>
   <g id="patch_256">
    <path clip-path="url(#pd90b398496)" d="M 429.233987 192.24 
L 430.335898 192.24 
L 430.335898 136.729687 
L 429.233987 136.729687 
z
" style="fill:#871f78;opacity:0.35;"/>
   </g>
   <g id="patch_257">
    <path clip-path="url(#pd90b398496)" d="M 430.611376 192.24 
L 431.713287 192.24 
L 431.713287 136.729687 
L 430.611376 136.729687 
z
" style="fill:#871f78;opacity:0.35;"/>
   </g>
   <g id="patch_258">
    <path clip-path="url(#pd90b398496)" d="M 431.988765 192.24 
L 433.090676 192.24 
L 433.090676 75.051561 
L 431.988765 75.051561 
z
" style="fill:#871f78;opacity:0.35;"/>
   </g>
   <g id="patch_259">
    <path clip-path="url(#pd90b398496)" d="M 433.366154 192.24 
L 434.468065 192.24 
L 434.468065 99.722812 
L 433.366154 99.722812 
z
" style="fill:#871f78;opacity:0.35;"/>
   </g>
   <g id="patch_260">
    <path clip-path="url(#pd90b398496)" d="M 434.743543 192.24 
L 435.845455 192.24 
L 435.845455 105.890624 
L 434.743543 105.890624 
z
" style="fill:#871f78;opacity:0.35;"/>
   </g>
   <g id="line2d_24">
    <path clip-path="url(#pd90b398496)" d="M 89.569836 190.477768 
L 90.947225 191.358884 
L 95.079392 191.358884 
L 96.456781 192.24 
L 97.83417 192.24 
L 100.588948 188.715536 
L 101.966338 188.715536 
L 103.343727 186.953304 
L 104.721116 183.428839 
L 107.475894 181.666607 
L 108.853283 179.023259 
L 110.230672 179.904375 
L 111.608061 179.023259 
L 114.362839 180.785491 
L 117.117618 179.023259 
L 118.495007 179.023259 
L 119.872396 179.904375 
L 121.249785 179.904375 
L 122.627174 179.023259 
L 124.004563 181.666607 
L 125.381952 180.785491 
L 126.759341 182.547723 
L 128.13673 186.953304 
L 129.514119 186.953304 
L 130.891509 186.072187 
L 132.268898 187.83442 
L 133.646287 187.83442 
L 135.023676 190.477768 
L 136.401065 188.715536 
L 139.155843 188.715536 
L 140.533232 191.358884 
L 143.28801 191.358884 
L 144.6654 190.477768 
L 146.042789 192.24 
L 148.797567 192.24 
L 152.929734 189.596652 
L 154.307123 190.477768 
L 155.684512 189.596652 
L 159.81668 189.596652 
L 161.194069 188.715536 
L 162.571458 188.715536 
L 163.948847 186.953304 
L 165.326236 187.83442 
L 166.703625 187.83442 
L 168.081014 186.953304 
L 169.458403 186.953304 
L 170.835792 187.83442 
L 172.213181 187.83442 
L 173.590571 190.477768 
L 174.96796 189.596652 
L 176.345349 187.83442 
L 177.722738 189.596652 
L 179.100127 188.715536 
L 180.477516 188.715536 
L 183.232294 186.953304 
L 185.987072 188.715536 
L 187.364462 186.953304 
L 188.741851 186.953304 
L 190.11924 186.072187 
L 191.496629 186.072187 
L 192.874018 185.191071 
L 194.251407 185.191071 
L 197.006185 186.953304 
L 198.383574 185.191071 
L 199.760963 185.191071 
L 201.138352 186.953304 
L 202.515742 186.953304 
L 203.893131 186.072187 
L 206.647909 186.072187 
L 208.025298 188.715536 
L 209.402687 190.477768 
L 212.157465 190.477768 
L 213.534854 192.24 
L 220.4218 192.24 
L 221.799189 193.121116 
L 223.176578 192.24 
L 224.553967 192.24 
L 225.931356 193.121116 
L 227.308745 193.121116 
L 228.686134 192.24 
L 234.195691 192.24 
L 236.950469 190.477768 
L 238.327858 188.715536 
L 239.705247 186.072187 
L 241.082636 186.072187 
L 242.460025 185.191071 
L 243.837414 185.191071 
L 245.214804 184.309955 
L 246.592193 184.309955 
L 247.969582 186.953304 
L 249.346971 188.715536 
L 253.479138 188.715536 
L 254.856527 189.596652 
L 256.233916 188.715536 
L 257.611305 188.715536 
L 258.988695 189.596652 
L 260.366084 188.715536 
L 261.743473 189.596652 
L 263.120862 188.715536 
L 264.498251 186.953304 
L 265.87564 186.953304 
L 268.630418 185.191071 
L 270.007807 186.072187 
L 271.385196 185.191071 
L 272.762586 186.072187 
L 276.894753 191.358884 
L 278.272142 192.24 
L 281.02692 190.477768 
L 282.404309 190.477768 
L 283.781698 188.715536 
L 285.159087 188.715536 
L 286.536476 187.83442 
L 287.913866 187.83442 
L 289.291255 188.715536 
L 290.668644 190.477768 
L 292.046033 190.477768 
L 293.423422 192.24 
L 301.687757 192.24 
L 304.442535 190.477768 
L 305.819924 190.477768 
L 308.574702 188.715536 
L 311.32948 188.715536 
L 314.084258 190.477768 
L 315.461648 190.477768 
L 316.839037 191.358884 
L 318.216426 190.477768 
L 322.348593 190.477768 
L 323.725982 189.596652 
L 325.103371 187.83442 
L 326.48076 186.953304 
L 327.858149 188.715536 
L 329.235538 188.715536 
L 330.612928 187.83442 
L 331.990317 187.83442 
L 333.367706 188.715536 
L 334.745095 190.477768 
L 336.122484 190.477768 
L 337.499873 187.83442 
L 338.877262 187.83442 
L 340.254651 186.953304 
L 341.63204 185.191071 
L 343.009429 184.309955 
L 344.386819 182.547723 
L 345.764208 182.547723 
L 347.141597 185.191071 
L 348.518986 184.309955 
L 351.273764 186.072187 
L 352.651153 186.072187 
L 354.028542 187.83442 
L 355.405931 187.83442 
L 358.16071 186.072187 
L 359.538099 186.953304 
L 360.915488 185.191071 
L 362.292877 186.072187 
L 363.670266 185.191071 
L 366.425044 186.953304 
L 369.179822 185.191071 
L 370.557211 187.83442 
L 371.9346 186.072187 
L 373.31199 186.072187 
L 374.689379 179.904375 
L 376.066768 178.142143 
L 377.444157 179.904375 
L 378.821546 180.785491 
L 380.198935 179.904375 
L 381.576324 181.666607 
L 382.953713 181.666607 
L 384.331102 186.072187 
L 385.708491 183.428839 
L 387.085881 183.428839 
L 388.46327 179.904375 
L 389.840659 179.904375 
L 391.218048 178.142143 
L 392.595437 177.261027 
L 393.972826 177.261027 
L 395.350215 178.142143 
L 396.727604 178.142143 
L 398.104993 179.904375 
L 399.482382 179.023259 
L 403.61455 179.023259 
L 404.991939 179.904375 
L 407.746717 178.142143 
L 409.124106 172.855446 
L 410.501495 170.212098 
L 411.878884 156.114241 
L 413.256273 152.589776 
L 414.633662 147.30308 
L 416.011052 140.254151 
L 417.388441 134.967455 
L 418.76583 137.610803 
L 420.143219 134.967455 
L 421.520608 146.421964 
L 422.897997 141.135267 
L 424.275386 142.016383 
L 425.652775 138.491919 
L 427.030164 139.373035 
L 428.407553 135.848571 
L 429.784943 134.967455 
L 431.162332 131.44299 
L 433.91711 119.107365 
L 435.294499 119.107365 
L 435.294499 119.107365 
" style="fill:none;stroke:#871f78;stroke-linecap:round;stroke-width:1.5;"/>
   </g>
   <g id="patch_261">
    <path d="M 63 192.24 
L 453.6 192.24 
" style="fill:none;stroke:#cccccc;stroke-linecap:square;stroke-linejoin:miter;"/>
   </g>
   <g id="text_17">
    <!-- 7-day -->
    <defs>
     <path d="M 12.796875 72.90625 
L 62.703125 72.90625 
L 61.8125 68.703125 
L 20.125 0 
L 9.28125 0 
L 48.6875 64.59375 
L 11.1875 64.59375 
z
" id="DejaVuSans-Oblique-55"/>
     <path d="M 6.109375 31.390625 
L 32.421875 31.390625 
L 30.90625 23.390625 
L 4.5 23.390625 
z
" id="DejaVuSans-Oblique-45"/>
     <path d="M 41.796875 8.203125 
Q 38.1875 3.46875 33.25 1.015625 
Q 28.328125 -1.421875 22.3125 -1.421875 
Q 14.109375 -1.421875 9.34375 4.171875 
Q 4.59375 9.765625 4.59375 19.484375 
Q 4.59375 27.59375 7.46875 34.9375 
Q 10.359375 42.28125 15.828125 48.09375 
Q 19.4375 51.953125 23.96875 53.96875 
Q 28.515625 56 33.5 56 
Q 38.765625 56 42.796875 53.453125 
Q 46.828125 50.921875 49.03125 46.1875 
L 54.890625 75.984375 
L 63.921875 75.984375 
L 49.125 0 
L 40.09375 0 
z
M 13.921875 21.09375 
Q 13.921875 14.015625 17.109375 10.0625 
Q 20.3125 6.109375 25.984375 6.109375 
Q 30.171875 6.109375 33.765625 8.125 
Q 37.359375 10.15625 40.09375 14.109375 
Q 42.96875 18.21875 44.625 23.578125 
Q 46.296875 28.953125 46.296875 34.1875 
Q 46.296875 40.96875 43.09375 44.765625 
Q 39.890625 48.578125 34.28125 48.578125 
Q 30.03125 48.578125 26.359375 46.578125 
Q 22.703125 44.578125 20.125 40.828125 
Q 17.28125 36.765625 15.59375 31.390625 
Q 13.921875 26.03125 13.921875 21.09375 
z
" id="DejaVuSans-Oblique-100"/>
     <path d="M 53.71875 31.203125 
L 47.609375 0 
L 38.625 0 
L 40.28125 8.296875 
Q 36.328125 3.421875 31.265625 1 
Q 26.21875 -1.421875 20.015625 -1.421875 
Q 13.03125 -1.421875 8.5625 2.84375 
Q 4.109375 7.125 4.109375 13.8125 
Q 4.109375 23.390625 11.75 28.953125 
Q 19.390625 34.515625 32.8125 34.515625 
L 45.3125 34.515625 
L 45.796875 36.921875 
Q 45.90625 37.3125 45.953125 37.765625 
Q 46 38.234375 46 39.203125 
Q 46 43.5625 42.453125 45.96875 
Q 38.921875 48.390625 32.515625 48.390625 
Q 28.125 48.390625 23.5 47.265625 
Q 18.890625 46.140625 14.015625 43.890625 
L 15.578125 52.203125 
Q 20.65625 54.109375 25.515625 55.046875 
Q 30.375 56 34.90625 56 
Q 44.578125 56 49.625 51.796875 
Q 54.6875 47.609375 54.6875 39.59375 
Q 54.6875 37.984375 54.4375 35.8125 
Q 54.203125 33.640625 53.71875 31.203125 
z
M 44 27.484375 
L 35.015625 27.484375 
Q 23.96875 27.484375 18.671875 24.53125 
Q 13.375 21.578125 13.375 15.375 
Q 13.375 11.078125 16.078125 8.640625 
Q 18.796875 6.203125 23.578125 6.203125 
Q 30.90625 6.203125 36.375 11.453125 
Q 41.84375 16.703125 43.609375 25.484375 
z
" id="DejaVuSans-Oblique-97"/>
     <path d="M 24.8125 -5.078125 
Q 18.5625 -15.578125 14.625 -18.1875 
Q 10.6875 -20.796875 4.59375 -20.796875 
L -2.484375 -20.796875 
L -0.984375 -13.28125 
L 4.203125 -13.28125 
Q 7.953125 -13.28125 10.59375 -11.234375 
Q 13.234375 -9.1875 16.5 -3.21875 
L 19.28125 2 
L 7.171875 54.6875 
L 16.703125 54.6875 
L 25.78125 12.796875 
L 50.875 54.6875 
L 60.296875 54.6875 
z
" id="DejaVuSans-Oblique-121"/>
    </defs>
    <g style="fill:#871f78;" transform="translate(439.426666 107.909553)scale(0.1 -0.1)">
     <use xlink:href="#DejaVuSans-Oblique-55"/>
     <use x="63.623047" xlink:href="#DejaVuSans-Oblique-45"/>
     <use x="99.707031" xlink:href="#DejaVuSans-Oblique-100"/>
     <use x="163.183594" xlink:href="#DejaVuSans-Oblique-97"/>
     <use x="224.462891" xlink:href="#DejaVuSans-Oblique-121"/>
    </g>
    <!-- avg. -->
    <defs>
     <path d="M 7.171875 54.6875 
L 16.703125 54.6875 
L 24.703125 8.203125 
L 50.875 54.6875 
L 60.40625 54.6875 
L 29.296875 0 
L 17.1875 0 
z
" id="DejaVuSans-Oblique-118"/>
     <path d="M 59.625 54.6875 
L 50.296875 6.78125 
Q 47.609375 -7.125 40.015625 -13.953125 
Q 32.421875 -20.796875 19.578125 -20.796875 
Q 14.84375 -20.796875 10.78125 -20.09375 
Q 6.734375 -19.390625 3.21875 -17.921875 
L 4.890625 -9.1875 
Q 8.203125 -11.328125 11.90625 -12.34375 
Q 15.625 -13.375 19.828125 -13.375 
Q 28.375 -13.375 33.859375 -8.703125 
Q 39.359375 -4.046875 41.109375 4.6875 
L 41.890625 8.796875 
Q 38.140625 4.5 33.15625 2.25 
Q 28.171875 0 22.40625 0 
Q 14.109375 0 9.34375 5.484375 
Q 4.59375 10.984375 4.59375 20.609375 
Q 4.59375 28.171875 7.46875 35.421875 
Q 10.359375 42.671875 15.578125 48.296875 
Q 19.046875 52 23.65625 54 
Q 28.265625 56 33.296875 56 
Q 38.8125 56 42.90625 53.4375 
Q 47.015625 50.875 49.03125 46.1875 
L 50.59375 54.6875 
z
M 46.09375 34.625 
Q 46.09375 41.265625 42.96875 44.875 
Q 39.84375 48.484375 34.078125 48.484375 
Q 30.515625 48.484375 27.296875 47.0625 
Q 24.078125 45.65625 21.78125 43.109375 
Q 18.0625 38.921875 15.984375 33.234375 
Q 13.921875 27.546875 13.921875 21.484375 
Q 13.921875 14.75 17.0625 11.125 
Q 20.21875 7.515625 26.125 7.515625 
Q 34.671875 7.515625 40.375 15.25 
Q 46.09375 23 46.09375 34.625 
z
" id="DejaVuSans-Oblique-103"/>
     <path d="M 8.203125 12.40625 
L 18.5 12.40625 
L 16.109375 0 
L 5.8125 0 
z
" id="DejaVuSans-Oblique-46"/>
    </defs>
    <g style="fill:#871f78;" transform="translate(439.426666 119.107365)scale(0.1 -0.1)">
     <use xlink:href="#DejaVuSans-Oblique-97"/>
     <use x="61.279297" xlink:href="#DejaVuSans-Oblique-118"/>
     <use x="120.458984" xlink:href="#DejaVuSans-Oblique-103"/>
     <use x="183.935547" xlink:href="#DejaVuSans-Oblique-46"/>
    </g>
   </g>
  </g>
 </g>
 <defs>
  <clipPath id="pd90b398496">
   <rect height="166.32" width="390.6" x="63" y="25.92"/>
  </clipPath>
 </defs>
</svg>
