<?xml version="1.0" encoding="utf-8" standalone="no"?>
<!DOCTYPE svg PUBLIC "-//W3C//DTD SVG 1.1//EN"
  "http://www.w3.org/Graphics/SVG/1.1/DTD/svg11.dtd">
<!-- Created with matplotlib (https://matplotlib.org/) -->
<svg height="216pt" version="1.1" viewBox="0 0 504 216" width="504pt" xmlns="http://www.w3.org/2000/svg" xmlns:xlink="http://www.w3.org/1999/xlink">
 <defs>
  <style type="text/css">
*{stroke-linecap:butt;stroke-linejoin:round;}
  </style>
 </defs>
 <g id="figure_1">
  <g id="patch_1">
   <path d="M 0 216 
L 504 216 
L 504 0 
L 0 0 
z
" style="fill:#ffffff;"/>
  </g>
  <g id="axes_1">
   <g id="patch_2">
    <path d="M 63 192.24 
L 453.6 192.24 
L 453.6 25.92 
L 63 25.92 
z
" style="fill:#ffffff;"/>
   </g>
   <g id="matplotlib.axis_1">
    <g id="xtick_1">
     <g id="line2d_1"/>
     <g id="text_1">
      <!-- Mar -->
      <defs>
       <path d="M 7.421875 0 
L 7.421875 71.578125 
L 21.6875 71.578125 
L 38.625 20.90625 
Q 40.96875 13.8125 42.046875 10.296875 
Q 43.265625 14.203125 45.84375 21.78125 
L 62.984375 71.578125 
L 75.734375 71.578125 
L 75.734375 0 
L 66.609375 0 
L 66.609375 59.90625 
L 45.796875 0 
L 37.25 0 
L 16.546875 60.9375 
L 16.546875 0 
z
" id="ArialMT-77"/>
       <path d="M 40.4375 6.390625 
Q 35.546875 2.25 31.03125 0.53125 
Q 26.515625 -1.171875 21.34375 -1.171875 
Q 12.796875 -1.171875 8.203125 3 
Q 3.609375 7.171875 3.609375 13.671875 
Q 3.609375 17.484375 5.34375 20.625 
Q 7.078125 23.78125 9.890625 25.6875 
Q 12.703125 27.59375 16.21875 28.5625 
Q 18.796875 29.25 24.03125 29.890625 
Q 34.671875 31.15625 39.703125 32.90625 
Q 39.75 34.71875 39.75 35.203125 
Q 39.75 40.578125 37.25 42.78125 
Q 33.890625 45.75 27.25 45.75 
Q 21.046875 45.75 18.09375 43.578125 
Q 15.140625 41.40625 13.71875 35.890625 
L 5.125 37.0625 
Q 6.296875 42.578125 8.984375 45.96875 
Q 11.671875 49.359375 16.75 51.1875 
Q 21.828125 53.03125 28.515625 53.03125 
Q 35.15625 53.03125 39.296875 51.46875 
Q 43.453125 49.90625 45.40625 47.53125 
Q 47.359375 45.171875 48.140625 41.546875 
Q 48.578125 39.3125 48.578125 33.453125 
L 48.578125 21.734375 
Q 48.578125 9.46875 49.140625 6.21875 
Q 49.703125 2.984375 51.375 0 
L 42.1875 0 
Q 40.828125 2.734375 40.4375 6.390625 
z
M 39.703125 26.03125 
Q 34.90625 24.078125 25.34375 22.703125 
Q 19.921875 21.921875 17.671875 20.9375 
Q 15.4375 19.96875 14.203125 18.09375 
Q 12.984375 16.21875 12.984375 13.921875 
Q 12.984375 10.40625 15.640625 8.0625 
Q 18.3125 5.71875 23.4375 5.71875 
Q 28.515625 5.71875 32.46875 7.9375 
Q 36.421875 10.15625 38.28125 14.015625 
Q 39.703125 17 39.703125 22.796875 
z
" id="ArialMT-97"/>
       <path d="M 6.5 0 
L 6.5 51.859375 
L 14.40625 51.859375 
L 14.40625 44 
Q 17.4375 49.515625 20 51.265625 
Q 22.5625 53.03125 25.640625 53.03125 
Q 30.078125 53.03125 34.671875 50.203125 
L 31.640625 42.046875 
Q 28.421875 43.953125 25.203125 43.953125 
Q 22.3125 43.953125 20.015625 42.21875 
Q 17.71875 40.484375 16.75 37.40625 
Q 15.28125 32.71875 15.28125 27.15625 
L 15.28125 0 
z
" id="ArialMT-114"/>
      </defs>
      <g style="fill:#871f78;" transform="translate(69.949082 202.897813)scale(0.1 -0.1)">
       <use xlink:href="#ArialMT-77"/>
       <use x="83.300781" xlink:href="#ArialMT-97"/>
       <use x="138.916016" xlink:href="#ArialMT-114"/>
      </g>
     </g>
    </g>
    <g id="xtick_2">
     <g id="line2d_2"/>
     <g id="text_2">
      <!-- Apr -->
      <defs>
       <path d="M -0.140625 0 
L 27.34375 71.578125 
L 37.546875 71.578125 
L 66.84375 0 
L 56.0625 0 
L 47.703125 21.6875 
L 17.78125 21.6875 
L 9.90625 0 
z
M 20.515625 29.390625 
L 44.78125 29.390625 
L 37.3125 49.21875 
Q 33.890625 58.25 32.234375 64.0625 
Q 30.859375 57.171875 28.375 50.390625 
z
" id="ArialMT-65"/>
       <path d="M 6.59375 -19.875 
L 6.59375 51.859375 
L 14.59375 51.859375 
L 14.59375 45.125 
Q 17.4375 49.078125 21 51.046875 
Q 24.5625 53.03125 29.640625 53.03125 
Q 36.28125 53.03125 41.359375 49.609375 
Q 46.4375 46.1875 49.015625 39.953125 
Q 51.609375 33.734375 51.609375 26.3125 
Q 51.609375 18.359375 48.75 11.984375 
Q 45.90625 5.609375 40.453125 2.21875 
Q 35.015625 -1.171875 29 -1.171875 
Q 24.609375 -1.171875 21.109375 0.6875 
Q 17.625 2.546875 15.375 5.375 
L 15.375 -19.875 
z
M 14.546875 25.640625 
Q 14.546875 15.625 18.59375 10.84375 
Q 22.65625 6.0625 28.421875 6.0625 
Q 34.28125 6.0625 38.453125 11.015625 
Q 42.625 15.96875 42.625 26.375 
Q 42.625 36.28125 38.546875 41.203125 
Q 34.46875 46.140625 28.8125 46.140625 
Q 23.1875 46.140625 18.859375 40.890625 
Q 14.546875 35.640625 14.546875 25.640625 
z
" id="ArialMT-112"/>
      </defs>
      <g style="fill:#871f78;" transform="translate(113.312843 202.897813)scale(0.1 -0.1)">
       <use xlink:href="#ArialMT-65"/>
       <use x="66.699219" xlink:href="#ArialMT-112"/>
       <use x="122.314453" xlink:href="#ArialMT-114"/>
      </g>
     </g>
    </g>
    <g id="xtick_3">
     <g id="line2d_3"/>
     <g id="text_3">
      <!-- May -->
      <defs>
       <path d="M 6.203125 -19.96875 
L 5.21875 -11.71875 
Q 8.109375 -12.5 10.25 -12.5 
Q 13.1875 -12.5 14.9375 -11.515625 
Q 16.703125 -10.546875 17.828125 -8.796875 
Q 18.65625 -7.46875 20.515625 -2.25 
Q 20.75 -1.515625 21.296875 -0.09375 
L 1.609375 51.859375 
L 11.078125 51.859375 
L 21.875 21.828125 
Q 23.96875 16.109375 25.640625 9.8125 
Q 27.15625 15.875 29.25 21.625 
L 40.328125 51.859375 
L 49.125 51.859375 
L 29.390625 -0.875 
Q 26.21875 -9.421875 24.46875 -12.640625 
Q 22.125 -17 19.09375 -19.015625 
Q 16.0625 -21.046875 11.859375 -21.046875 
Q 9.328125 -21.046875 6.203125 -19.96875 
z
" id="ArialMT-121"/>
      </defs>
      <g style="fill:#871f78;" transform="translate(152.810006 202.897813)scale(0.1 -0.1)">
       <use xlink:href="#ArialMT-77"/>
       <use x="83.300781" xlink:href="#ArialMT-97"/>
       <use x="138.916016" xlink:href="#ArialMT-121"/>
      </g>
     </g>
    </g>
    <g id="xtick_4">
     <g id="line2d_4"/>
     <g id="text_4">
      <!-- Jun -->
      <defs>
       <path d="M 2.875 20.3125 
L 11.421875 21.484375 
Q 11.765625 13.28125 14.5 10.25 
Q 17.234375 7.234375 22.078125 7.234375 
Q 25.640625 7.234375 28.21875 8.859375 
Q 30.8125 10.5 31.78125 13.296875 
Q 32.765625 16.109375 32.765625 22.265625 
L 32.765625 71.578125 
L 42.234375 71.578125 
L 42.234375 22.796875 
Q 42.234375 13.8125 40.0625 8.875 
Q 37.890625 3.953125 33.171875 1.359375 
Q 28.46875 -1.21875 22.125 -1.21875 
Q 12.703125 -1.21875 7.6875 4.203125 
Q 2.6875 9.625 2.875 20.3125 
z
" id="ArialMT-74"/>
       <path d="M 40.578125 0 
L 40.578125 7.625 
Q 34.515625 -1.171875 24.125 -1.171875 
Q 19.53125 -1.171875 15.546875 0.578125 
Q 11.578125 2.34375 9.640625 5 
Q 7.71875 7.671875 6.9375 11.53125 
Q 6.390625 14.109375 6.390625 19.734375 
L 6.390625 51.859375 
L 15.1875 51.859375 
L 15.1875 23.09375 
Q 15.1875 16.21875 15.71875 13.8125 
Q 16.546875 10.359375 19.234375 8.375 
Q 21.921875 6.390625 25.875 6.390625 
Q 29.828125 6.390625 33.296875 8.421875 
Q 36.765625 10.453125 38.203125 13.9375 
Q 39.65625 17.4375 39.65625 24.078125 
L 39.65625 51.859375 
L 48.4375 51.859375 
L 48.4375 0 
z
" id="ArialMT-117"/>
       <path d="M 6.59375 0 
L 6.59375 51.859375 
L 14.5 51.859375 
L 14.5 44.484375 
Q 20.21875 53.03125 31 53.03125 
Q 35.6875 53.03125 39.625 51.34375 
Q 43.5625 49.65625 45.515625 46.921875 
Q 47.46875 44.1875 48.25 40.4375 
Q 48.734375 37.984375 48.734375 31.890625 
L 48.734375 0 
L 39.9375 0 
L 39.9375 31.546875 
Q 39.9375 36.921875 38.90625 39.578125 
Q 37.890625 42.234375 35.28125 43.8125 
Q 32.671875 45.40625 29.15625 45.40625 
Q 23.53125 45.40625 19.453125 41.84375 
Q 15.375 38.28125 15.375 28.328125 
L 15.375 0 
z
" id="ArialMT-110"/>
      </defs>
      <g style="fill:#871f78;" transform="translate(196.728454 202.897813)scale(0.1 -0.1)">
       <use xlink:href="#ArialMT-74"/>
       <use x="50" xlink:href="#ArialMT-117"/>
       <use x="105.615234" xlink:href="#ArialMT-110"/>
      </g>
     </g>
    </g>
    <g id="xtick_5">
     <g id="line2d_5"/>
     <g id="text_5">
      <!-- Jul -->
      <defs>
       <path d="M 6.390625 0 
L 6.390625 71.578125 
L 15.1875 71.578125 
L 15.1875 0 
z
" id="ArialMT-108"/>
      </defs>
      <g style="fill:#871f78;" transform="translate(239.559992 202.897813)scale(0.1 -0.1)">
       <use xlink:href="#ArialMT-74"/>
       <use x="50" xlink:href="#ArialMT-117"/>
       <use x="105.615234" xlink:href="#ArialMT-108"/>
      </g>
     </g>
    </g>
    <g id="xtick_6">
     <g id="line2d_6"/>
     <g id="text_6">
      <!-- Aug -->
      <defs>
       <path d="M 4.984375 -4.296875 
L 13.53125 -5.5625 
Q 14.0625 -9.515625 16.5 -11.328125 
Q 19.78125 -13.765625 25.4375 -13.765625 
Q 31.546875 -13.765625 34.859375 -11.328125 
Q 38.1875 -8.890625 39.359375 -4.5 
Q 40.046875 -1.8125 39.984375 6.78125 
Q 34.234375 0 25.640625 0 
Q 14.9375 0 9.078125 7.71875 
Q 3.21875 15.4375 3.21875 26.21875 
Q 3.21875 33.640625 5.90625 39.90625 
Q 8.59375 46.1875 13.6875 49.609375 
Q 18.796875 53.03125 25.6875 53.03125 
Q 34.859375 53.03125 40.828125 45.609375 
L 40.828125 51.859375 
L 48.921875 51.859375 
L 48.921875 7.03125 
Q 48.921875 -5.078125 46.453125 -10.125 
Q 44 -15.1875 38.640625 -18.109375 
Q 33.296875 -21.046875 25.484375 -21.046875 
Q 16.21875 -21.046875 10.5 -16.875 
Q 4.78125 -12.703125 4.984375 -4.296875 
z
M 12.25 26.859375 
Q 12.25 16.65625 16.296875 11.96875 
Q 20.359375 7.28125 26.46875 7.28125 
Q 32.515625 7.28125 36.609375 11.9375 
Q 40.71875 16.609375 40.71875 26.5625 
Q 40.71875 36.078125 36.5 40.90625 
Q 32.28125 45.75 26.3125 45.75 
Q 20.453125 45.75 16.34375 40.984375 
Q 12.25 36.234375 12.25 26.859375 
z
" id="ArialMT-103"/>
      </defs>
      <g style="fill:#871f78;" transform="translate(279.589378 202.897813)scale(0.1 -0.1)">
       <use xlink:href="#ArialMT-65"/>
       <use x="66.699219" xlink:href="#ArialMT-117"/>
       <use x="122.314453" xlink:href="#ArialMT-103"/>
      </g>
     </g>
    </g>
    <g id="xtick_7">
     <g id="line2d_7"/>
     <g id="text_7">
      <!-- Sep -->
      <defs>
       <path d="M 4.5 23 
L 13.421875 23.78125 
Q 14.0625 18.40625 16.375 14.96875 
Q 18.703125 11.53125 23.578125 9.40625 
Q 28.46875 7.28125 34.578125 7.28125 
Q 39.984375 7.28125 44.140625 8.890625 
Q 48.296875 10.5 50.3125 13.296875 
Q 52.34375 16.109375 52.34375 19.4375 
Q 52.34375 22.796875 50.390625 25.3125 
Q 48.4375 27.828125 43.953125 29.546875 
Q 41.0625 30.671875 31.203125 33.03125 
Q 21.34375 35.40625 17.390625 37.5 
Q 12.25 40.1875 9.734375 44.15625 
Q 7.234375 48.140625 7.234375 53.078125 
Q 7.234375 58.5 10.296875 63.203125 
Q 13.375 67.921875 19.28125 70.359375 
Q 25.203125 72.796875 32.421875 72.796875 
Q 40.375 72.796875 46.453125 70.234375 
Q 52.546875 67.671875 55.8125 62.6875 
Q 59.078125 57.71875 59.328125 51.421875 
L 50.25 50.734375 
Q 49.515625 57.515625 45.28125 60.984375 
Q 41.0625 64.453125 32.8125 64.453125 
Q 24.21875 64.453125 20.28125 61.296875 
Q 16.359375 58.15625 16.359375 53.71875 
Q 16.359375 49.859375 19.140625 47.359375 
Q 21.875 44.875 33.421875 42.265625 
Q 44.96875 39.65625 49.265625 37.703125 
Q 55.515625 34.8125 58.484375 30.390625 
Q 61.46875 25.984375 61.46875 20.21875 
Q 61.46875 14.5 58.203125 9.4375 
Q 54.9375 4.390625 48.796875 1.578125 
Q 42.671875 -1.21875 35.015625 -1.21875 
Q 25.296875 -1.21875 18.71875 1.609375 
Q 12.15625 4.4375 8.421875 10.125 
Q 4.6875 15.828125 4.5 23 
z
" id="ArialMT-83"/>
       <path d="M 42.09375 16.703125 
L 51.171875 15.578125 
Q 49.03125 7.625 43.21875 3.21875 
Q 37.40625 -1.171875 28.375 -1.171875 
Q 17 -1.171875 10.328125 5.828125 
Q 3.65625 12.84375 3.65625 25.484375 
Q 3.65625 38.578125 10.390625 45.796875 
Q 17.140625 53.03125 27.875 53.03125 
Q 38.28125 53.03125 44.875 45.953125 
Q 51.46875 38.875 51.46875 26.03125 
Q 51.46875 25.25 51.421875 23.6875 
L 12.75 23.6875 
Q 13.234375 15.140625 17.578125 10.59375 
Q 21.921875 6.0625 28.421875 6.0625 
Q 33.25 6.0625 36.671875 8.59375 
Q 40.09375 11.140625 42.09375 16.703125 
z
M 13.234375 30.90625 
L 42.1875 30.90625 
Q 41.609375 37.453125 38.875 40.71875 
Q 34.671875 45.796875 27.984375 45.796875 
Q 21.921875 45.796875 17.796875 41.75 
Q 13.671875 37.703125 13.234375 30.90625 
z
" id="ArialMT-101"/>
      </defs>
      <g style="fill:#871f78;" transform="translate(322.123451 203.019688)scale(0.1 -0.1)">
       <use xlink:href="#ArialMT-83"/>
       <use x="66.699219" xlink:href="#ArialMT-101"/>
       <use x="122.314453" xlink:href="#ArialMT-112"/>
      </g>
     </g>
    </g>
    <g id="xtick_8">
     <g id="line2d_8"/>
     <g id="text_8">
      <!-- Oct -->
      <defs>
       <path d="M 4.828125 34.859375 
Q 4.828125 52.6875 14.390625 62.765625 
Q 23.96875 72.859375 39.109375 72.859375 
Q 49.03125 72.859375 56.984375 68.109375 
Q 64.9375 63.375 69.109375 54.90625 
Q 73.296875 46.4375 73.296875 35.6875 
Q 73.296875 24.8125 68.890625 16.21875 
Q 64.5 7.625 56.4375 3.203125 
Q 48.390625 -1.21875 39.0625 -1.21875 
Q 28.953125 -1.21875 20.984375 3.65625 
Q 13.03125 8.546875 8.921875 16.984375 
Q 4.828125 25.4375 4.828125 34.859375 
z
M 14.59375 34.71875 
Q 14.59375 21.78125 21.546875 14.328125 
Q 28.515625 6.890625 39.015625 6.890625 
Q 49.703125 6.890625 56.609375 14.40625 
Q 63.53125 21.921875 63.53125 35.75 
Q 63.53125 44.484375 60.578125 51 
Q 57.625 57.515625 51.921875 61.109375 
Q 46.234375 64.703125 39.15625 64.703125 
Q 29.109375 64.703125 21.84375 57.78125 
Q 14.59375 50.875 14.59375 34.71875 
z
" id="ArialMT-79"/>
       <path d="M 40.4375 19 
L 49.078125 17.875 
Q 47.65625 8.9375 41.8125 3.875 
Q 35.984375 -1.171875 27.484375 -1.171875 
Q 16.84375 -1.171875 10.375 5.78125 
Q 3.90625 12.75 3.90625 25.734375 
Q 3.90625 34.125 6.6875 40.421875 
Q 9.46875 46.734375 15.15625 49.875 
Q 20.84375 53.03125 27.546875 53.03125 
Q 35.984375 53.03125 41.359375 48.75 
Q 46.734375 44.484375 48.25 36.625 
L 39.703125 35.296875 
Q 38.484375 40.53125 35.375 43.15625 
Q 32.28125 45.796875 27.875 45.796875 
Q 21.234375 45.796875 17.078125 41.03125 
Q 12.9375 36.28125 12.9375 25.984375 
Q 12.9375 15.53125 16.9375 10.796875 
Q 20.953125 6.0625 27.390625 6.0625 
Q 32.5625 6.0625 36.03125 9.234375 
Q 39.5 12.40625 40.4375 19 
z
" id="ArialMT-99"/>
       <path d="M 25.78125 7.859375 
L 27.046875 0.09375 
Q 23.34375 -0.6875 20.40625 -0.6875 
Q 15.625 -0.6875 12.984375 0.828125 
Q 10.359375 2.34375 9.28125 4.8125 
Q 8.203125 7.28125 8.203125 15.1875 
L 8.203125 45.015625 
L 1.765625 45.015625 
L 1.765625 51.859375 
L 8.203125 51.859375 
L 8.203125 64.703125 
L 16.9375 69.96875 
L 16.9375 51.859375 
L 25.78125 51.859375 
L 25.78125 45.015625 
L 16.9375 45.015625 
L 16.9375 14.703125 
Q 16.9375 10.9375 17.40625 9.859375 
Q 17.875 8.796875 18.921875 8.15625 
Q 19.96875 7.515625 21.921875 7.515625 
Q 23.390625 7.515625 25.78125 7.859375 
z
" id="ArialMT-116"/>
      </defs>
      <g style="fill:#871f78;" transform="translate(364.403426 202.897813)scale(0.1 -0.1)">
       <use xlink:href="#ArialMT-79"/>
       <use x="77.783203" xlink:href="#ArialMT-99"/>
       <use x="127.783203" xlink:href="#ArialMT-116"/>
      </g>
     </g>
    </g>
    <g id="xtick_9">
     <g id="line2d_9"/>
     <g id="text_9">
      <!-- Nov -->
      <defs>
       <path d="M 7.625 0 
L 7.625 71.578125 
L 17.328125 71.578125 
L 54.9375 15.375 
L 54.9375 71.578125 
L 64.015625 71.578125 
L 64.015625 0 
L 54.296875 0 
L 16.703125 56.25 
L 16.703125 0 
z
" id="ArialMT-78"/>
       <path d="M 3.328125 25.921875 
Q 3.328125 40.328125 11.328125 47.265625 
Q 18.015625 53.03125 27.640625 53.03125 
Q 38.328125 53.03125 45.109375 46.015625 
Q 51.90625 39.015625 51.90625 26.65625 
Q 51.90625 16.65625 48.90625 10.90625 
Q 45.90625 5.171875 40.15625 2 
Q 34.421875 -1.171875 27.640625 -1.171875 
Q 16.75 -1.171875 10.03125 5.8125 
Q 3.328125 12.796875 3.328125 25.921875 
z
M 12.359375 25.921875 
Q 12.359375 15.96875 16.703125 11.015625 
Q 21.046875 6.0625 27.640625 6.0625 
Q 34.1875 6.0625 38.53125 11.03125 
Q 42.875 16.015625 42.875 26.21875 
Q 42.875 35.84375 38.5 40.796875 
Q 34.125 45.75 27.640625 45.75 
Q 21.046875 45.75 16.703125 40.8125 
Q 12.359375 35.890625 12.359375 25.921875 
z
" id="ArialMT-111"/>
       <path d="M 21 0 
L 1.265625 51.859375 
L 10.546875 51.859375 
L 21.6875 20.796875 
Q 23.484375 15.765625 25 10.359375 
Q 26.171875 14.453125 28.265625 20.21875 
L 39.796875 51.859375 
L 48.828125 51.859375 
L 29.203125 0 
z
" id="ArialMT-118"/>
      </defs>
      <g style="fill:#871f78;" transform="translate(405.824218 202.897813)scale(0.1 -0.1)">
       <use xlink:href="#ArialMT-78"/>
       <use x="72.216797" xlink:href="#ArialMT-111"/>
       <use x="127.832031" xlink:href="#ArialMT-118"/>
      </g>
     </g>
    </g>
   </g>
   <g id="matplotlib.axis_2">
    <g id="ytick_1">
     <g id="line2d_10">
      <path clip-path="url(#p564e263f7d)" d="M 63 192.24 
L 453.6 192.24 
" style="fill:none;stroke:#cccccc;stroke-linecap:round;stroke-width:0.8;"/>
     </g>
     <g id="line2d_11"/>
     <g id="text_10">
      <!-- 0 -->
      <defs>
       <path d="M 4.15625 35.296875 
Q 4.15625 48 6.765625 55.734375 
Q 9.375 63.484375 14.515625 67.671875 
Q 19.671875 71.875 27.484375 71.875 
Q 33.25 71.875 37.59375 69.546875 
Q 41.9375 67.234375 44.765625 62.859375 
Q 47.609375 58.5 49.21875 52.21875 
Q 50.828125 45.953125 50.828125 35.296875 
Q 50.828125 22.703125 48.234375 14.96875 
Q 45.65625 7.234375 40.5 3 
Q 35.359375 -1.21875 27.484375 -1.21875 
Q 17.140625 -1.21875 11.234375 6.203125 
Q 4.15625 15.140625 4.15625 35.296875 
z
M 13.1875 35.296875 
Q 13.1875 17.671875 17.3125 11.828125 
Q 21.4375 6 27.484375 6 
Q 33.546875 6 37.671875 11.859375 
Q 41.796875 17.71875 41.796875 35.296875 
Q 41.796875 52.984375 37.671875 58.78125 
Q 33.546875 64.59375 27.390625 64.59375 
Q 21.34375 64.59375 17.71875 59.46875 
Q 13.1875 52.9375 13.1875 35.296875 
z
" id="ArialMT-48"/>
      </defs>
      <g style="fill:#871f78;" transform="translate(53.939062 195.818906)scale(0.1 -0.1)">
       <use xlink:href="#ArialMT-48"/>
      </g>
     </g>
    </g>
    <g id="ytick_2">
     <g id="line2d_12">
      <path clip-path="url(#p564e263f7d)" d="M 63 154.865401 
L 453.6 154.865401 
" style="fill:none;stroke:#cccccc;stroke-linecap:round;stroke-width:0.8;"/>
     </g>
     <g id="line2d_13"/>
     <g id="text_11">
      <!-- 5 -->
      <defs>
       <path d="M 4.15625 18.75 
L 13.375 19.53125 
Q 14.40625 12.796875 18.140625 9.390625 
Q 21.875 6 27.15625 6 
Q 33.5 6 37.890625 10.78125 
Q 42.28125 15.578125 42.28125 23.484375 
Q 42.28125 31 38.0625 35.34375 
Q 33.84375 39.703125 27 39.703125 
Q 22.75 39.703125 19.328125 37.765625 
Q 15.921875 35.84375 13.96875 32.765625 
L 5.71875 33.84375 
L 12.640625 70.609375 
L 48.25 70.609375 
L 48.25 62.203125 
L 19.671875 62.203125 
L 15.828125 42.96875 
Q 22.265625 47.46875 29.34375 47.46875 
Q 38.71875 47.46875 45.15625 40.96875 
Q 51.609375 34.46875 51.609375 24.265625 
Q 51.609375 14.546875 45.953125 7.46875 
Q 39.0625 -1.21875 27.15625 -1.21875 
Q 17.390625 -1.21875 11.203125 4.25 
Q 5.03125 9.71875 4.15625 18.75 
z
" id="ArialMT-53"/>
      </defs>
      <g style="fill:#871f78;" transform="translate(53.939062 158.444307)scale(0.1 -0.1)">
       <use xlink:href="#ArialMT-53"/>
      </g>
     </g>
    </g>
    <g id="ytick_3">
     <g id="line2d_14">
      <path clip-path="url(#p564e263f7d)" d="M 63 117.490802 
L 453.6 117.490802 
" style="fill:none;stroke:#cccccc;stroke-linecap:round;stroke-width:0.8;"/>
     </g>
     <g id="line2d_15"/>
     <g id="text_12">
      <!-- 10 -->
      <defs>
       <path d="M 37.25 0 
L 28.46875 0 
L 28.46875 56 
Q 25.296875 52.984375 20.140625 49.953125 
Q 14.984375 46.921875 10.890625 45.40625 
L 10.890625 53.90625 
Q 18.265625 57.375 23.78125 62.296875 
Q 29.296875 67.234375 31.59375 71.875 
L 37.25 71.875 
z
" id="ArialMT-49"/>
      </defs>
      <g style="fill:#871f78;" transform="translate(48.378125 121.069709)scale(0.1 -0.1)">
       <use xlink:href="#ArialMT-49"/>
       <use x="55.615234" xlink:href="#ArialMT-48"/>
      </g>
     </g>
    </g>
    <g id="ytick_4">
     <g id="line2d_16">
      <path clip-path="url(#p564e263f7d)" d="M 63 80.116204 
L 453.6 80.116204 
" style="fill:none;stroke:#cccccc;stroke-linecap:round;stroke-width:0.8;"/>
     </g>
     <g id="line2d_17"/>
     <g id="text_13">
      <!-- 15 -->
      <g style="fill:#871f78;" transform="translate(48.378125 83.69511)scale(0.1 -0.1)">
       <use xlink:href="#ArialMT-49"/>
       <use x="55.615234" xlink:href="#ArialMT-53"/>
      </g>
     </g>
    </g>
    <g id="ytick_5">
     <g id="line2d_18">
      <path clip-path="url(#p564e263f7d)" d="M 63 42.741605 
L 453.6 42.741605 
" style="fill:none;stroke:#cccccc;stroke-linecap:round;stroke-width:0.8;"/>
     </g>
     <g id="line2d_19"/>
     <g id="text_14">
      <!-- 20 -->
      <defs>
       <path d="M 50.34375 8.453125 
L 50.34375 0 
L 3.03125 0 
Q 2.9375 3.171875 4.046875 6.109375 
Q 5.859375 10.9375 9.828125 15.625 
Q 13.8125 20.3125 21.34375 26.46875 
Q 33.015625 36.03125 37.109375 41.625 
Q 41.21875 47.21875 41.21875 52.203125 
Q 41.21875 57.421875 37.46875 61 
Q 33.734375 64.59375 27.734375 64.59375 
Q 21.390625 64.59375 17.578125 60.78125 
Q 13.765625 56.984375 13.71875 50.25 
L 4.6875 51.171875 
Q 5.609375 61.28125 11.65625 66.578125 
Q 17.71875 71.875 27.9375 71.875 
Q 38.234375 71.875 44.234375 66.15625 
Q 50.25 60.453125 50.25 52 
Q 50.25 47.703125 48.484375 43.546875 
Q 46.734375 39.40625 42.65625 34.8125 
Q 38.578125 30.21875 29.109375 22.21875 
Q 21.1875 15.578125 18.9375 13.203125 
Q 16.703125 10.84375 15.234375 8.453125 
z
" id="ArialMT-50"/>
      </defs>
      <g style="fill:#871f78;" transform="translate(48.378125 46.320511)scale(0.1 -0.1)">
       <use xlink:href="#ArialMT-50"/>
       <use x="55.615234" xlink:href="#ArialMT-48"/>
      </g>
     </g>
    </g>
   </g>
   <g id="patch_3">
    <path clip-path="url(#p564e263f7d)" d="M 80.754545 192.24 
L 81.852199 192.24 
L 81.852199 183.924 
L 80.754545 183.924 
z
" style="fill:#871f78;opacity:0.35;"/>
   </g>
   <g id="patch_4">
    <path clip-path="url(#p564e263f7d)" d="M 82.126612 192.24 
L 83.224266 192.24 
L 83.224266 192.24 
L 82.126612 192.24 
z
" style="fill:#871f78;opacity:0.35;"/>
   </g>
   <g id="patch_5">
    <path clip-path="url(#p564e263f7d)" d="M 83.498679 192.24 
L 84.596333 192.24 
L 84.596333 192.24 
L 83.498679 192.24 
z
" style="fill:#871f78;opacity:0.35;"/>
   </g>
   <g id="patch_6">
    <path clip-path="url(#p564e263f7d)" d="M 84.870746 192.24 
L 85.9684 192.24 
L 85.9684 192.24 
L 84.870746 192.24 
z
" style="fill:#871f78;opacity:0.35;"/>
   </g>
   <g id="patch_7">
    <path clip-path="url(#p564e263f7d)" d="M 86.242813 192.24 
L 87.340466 192.24 
L 87.340466 183.924 
L 86.242813 183.924 
z
" style="fill:#871f78;opacity:0.35;"/>
   </g>
   <g id="patch_8">
    <path clip-path="url(#p564e263f7d)" d="M 87.61488 192.24 
L 88.712533 192.24 
L 88.712533 192.24 
L 87.61488 192.24 
z
" style="fill:#871f78;opacity:0.35;"/>
   </g>
   <g id="patch_9">
    <path clip-path="url(#p564e263f7d)" d="M 88.986947 192.24 
L 90.0846 192.24 
L 90.0846 192.24 
L 88.986947 192.24 
z
" style="fill:#871f78;opacity:0.35;"/>
   </g>
   <g id="patch_10">
    <path clip-path="url(#p564e263f7d)" d="M 90.359014 192.24 
L 91.456667 192.24 
L 91.456667 192.24 
L 90.359014 192.24 
z
" style="fill:#871f78;opacity:0.35;"/>
   </g>
   <g id="patch_11">
    <path clip-path="url(#p564e263f7d)" d="M 91.731081 192.24 
L 92.828734 192.24 
L 92.828734 192.24 
L 91.731081 192.24 
z
" style="fill:#871f78;opacity:0.35;"/>
   </g>
   <g id="patch_12">
    <path clip-path="url(#p564e263f7d)" d="M 93.103147 192.24 
L 94.200801 192.24 
L 94.200801 192.24 
L 93.103147 192.24 
z
" style="fill:#871f78;opacity:0.35;"/>
   </g>
   <g id="patch_13">
    <path clip-path="url(#p564e263f7d)" d="M 94.475214 192.24 
L 95.572868 192.24 
L 95.572868 192.24 
L 94.475214 192.24 
z
" style="fill:#871f78;opacity:0.35;"/>
   </g>
   <g id="patch_14">
    <path clip-path="url(#p564e263f7d)" d="M 95.847281 192.24 
L 96.944935 192.24 
L 96.944935 192.24 
L 95.847281 192.24 
z
" style="fill:#871f78;opacity:0.35;"/>
   </g>
   <g id="patch_15">
    <path clip-path="url(#p564e263f7d)" d="M 97.219348 192.24 
L 98.317002 192.24 
L 98.317002 192.24 
L 97.219348 192.24 
z
" style="fill:#871f78;opacity:0.35;"/>
   </g>
   <g id="patch_16">
    <path clip-path="url(#p564e263f7d)" d="M 98.591415 192.24 
L 99.689068 192.24 
L 99.689068 175.608 
L 98.591415 175.608 
z
" style="fill:#871f78;opacity:0.35;"/>
   </g>
   <g id="patch_17">
    <path clip-path="url(#p564e263f7d)" d="M 99.963482 192.24 
L 101.061135 192.24 
L 101.061135 175.608 
L 99.963482 175.608 
z
" style="fill:#871f78;opacity:0.35;"/>
   </g>
   <g id="patch_18">
    <path clip-path="url(#p564e263f7d)" d="M 101.335549 192.24 
L 102.433202 192.24 
L 102.433202 192.24 
L 101.335549 192.24 
z
" style="fill:#871f78;opacity:0.35;"/>
   </g>
   <g id="patch_19">
    <path clip-path="url(#p564e263f7d)" d="M 102.707616 192.24 
L 103.805269 192.24 
L 103.805269 175.608 
L 102.707616 175.608 
z
" style="fill:#871f78;opacity:0.35;"/>
   </g>
   <g id="patch_20">
    <path clip-path="url(#p564e263f7d)" d="M 104.079682 192.24 
L 105.177336 192.24 
L 105.177336 158.976 
L 104.079682 158.976 
z
" style="fill:#871f78;opacity:0.35;"/>
   </g>
   <g id="patch_21">
    <path clip-path="url(#p564e263f7d)" d="M 105.451749 192.24 
L 106.549403 192.24 
L 106.549403 183.924 
L 105.451749 183.924 
z
" style="fill:#871f78;opacity:0.35;"/>
   </g>
   <g id="patch_22">
    <path clip-path="url(#p564e263f7d)" d="M 106.823816 192.24 
L 107.92147 192.24 
L 107.92147 183.924 
L 106.823816 183.924 
z
" style="fill:#871f78;opacity:0.35;"/>
   </g>
   <g id="patch_23">
    <path clip-path="url(#p564e263f7d)" d="M 108.195883 192.24 
L 109.293537 192.24 
L 109.293537 150.66 
L 108.195883 150.66 
z
" style="fill:#871f78;opacity:0.35;"/>
   </g>
   <g id="patch_24">
    <path clip-path="url(#p564e263f7d)" d="M 109.56795 192.24 
L 110.665603 192.24 
L 110.665603 183.924 
L 109.56795 183.924 
z
" style="fill:#871f78;opacity:0.35;"/>
   </g>
   <g id="patch_25">
    <path clip-path="url(#p564e263f7d)" d="M 110.940017 192.24 
L 112.03767 192.24 
L 112.03767 183.924 
L 110.940017 183.924 
z
" style="fill:#871f78;opacity:0.35;"/>
   </g>
   <g id="patch_26">
    <path clip-path="url(#p564e263f7d)" d="M 112.312084 192.24 
L 113.409737 192.24 
L 113.409737 183.924 
L 112.312084 183.924 
z
" style="fill:#871f78;opacity:0.35;"/>
   </g>
   <g id="patch_27">
    <path clip-path="url(#p564e263f7d)" d="M 113.684151 192.24 
L 114.781804 192.24 
L 114.781804 167.292 
L 113.684151 167.292 
z
" style="fill:#871f78;opacity:0.35;"/>
   </g>
   <g id="patch_28">
    <path clip-path="url(#p564e263f7d)" d="M 115.056218 192.24 
L 116.153871 192.24 
L 116.153871 175.608 
L 115.056218 175.608 
z
" style="fill:#871f78;opacity:0.35;"/>
   </g>
   <g id="patch_29">
    <path clip-path="url(#p564e263f7d)" d="M 116.428284 192.24 
L 117.525938 192.24 
L 117.525938 175.608 
L 116.428284 175.608 
z
" style="fill:#871f78;opacity:0.35;"/>
   </g>
   <g id="patch_30">
    <path clip-path="url(#p564e263f7d)" d="M 117.800351 192.24 
L 118.898005 192.24 
L 118.898005 150.66 
L 117.800351 150.66 
z
" style="fill:#871f78;opacity:0.35;"/>
   </g>
   <g id="patch_31">
    <path clip-path="url(#p564e263f7d)" d="M 119.172418 192.24 
L 120.270072 192.24 
L 120.270072 192.24 
L 119.172418 192.24 
z
" style="fill:#871f78;opacity:0.35;"/>
   </g>
   <g id="patch_32">
    <path clip-path="url(#p564e263f7d)" d="M 120.544485 192.24 
L 121.642139 192.24 
L 121.642139 183.924 
L 120.544485 183.924 
z
" style="fill:#871f78;opacity:0.35;"/>
   </g>
   <g id="patch_33">
    <path clip-path="url(#p564e263f7d)" d="M 121.916552 192.24 
L 123.014205 192.24 
L 123.014205 175.608 
L 121.916552 175.608 
z
" style="fill:#871f78;opacity:0.35;"/>
   </g>
   <g id="patch_34">
    <path clip-path="url(#p564e263f7d)" d="M 123.288619 192.24 
L 124.386272 192.24 
L 124.386272 192.24 
L 123.288619 192.24 
z
" style="fill:#871f78;opacity:0.35;"/>
   </g>
   <g id="patch_35">
    <path clip-path="url(#p564e263f7d)" d="M 124.660686 192.24 
L 125.758339 192.24 
L 125.758339 167.292 
L 124.660686 167.292 
z
" style="fill:#871f78;opacity:0.35;"/>
   </g>
   <g id="patch_36">
    <path clip-path="url(#p564e263f7d)" d="M 126.032753 192.24 
L 127.130406 192.24 
L 127.130406 192.24 
L 126.032753 192.24 
z
" style="fill:#871f78;opacity:0.35;"/>
   </g>
   <g id="patch_37">
    <path clip-path="url(#p564e263f7d)" d="M 127.404819 192.24 
L 128.502473 192.24 
L 128.502473 192.24 
L 127.404819 192.24 
z
" style="fill:#871f78;opacity:0.35;"/>
   </g>
   <g id="patch_38">
    <path clip-path="url(#p564e263f7d)" d="M 128.776886 192.24 
L 129.87454 192.24 
L 129.87454 192.24 
L 128.776886 192.24 
z
" style="fill:#871f78;opacity:0.35;"/>
   </g>
   <g id="patch_39">
    <path clip-path="url(#p564e263f7d)" d="M 130.148953 192.24 
L 131.246607 192.24 
L 131.246607 175.608 
L 130.148953 175.608 
z
" style="fill:#871f78;opacity:0.35;"/>
   </g>
   <g id="patch_40">
    <path clip-path="url(#p564e263f7d)" d="M 131.52102 192.24 
L 132.618674 192.24 
L 132.618674 192.24 
L 131.52102 192.24 
z
" style="fill:#871f78;opacity:0.35;"/>
   </g>
   <g id="patch_41">
    <path clip-path="url(#p564e263f7d)" d="M 132.893087 192.24 
L 133.99074 192.24 
L 133.99074 192.24 
L 132.893087 192.24 
z
" style="fill:#871f78;opacity:0.35;"/>
   </g>
   <g id="patch_42">
    <path clip-path="url(#p564e263f7d)" d="M 134.265154 192.24 
L 135.362807 192.24 
L 135.362807 192.24 
L 134.265154 192.24 
z
" style="fill:#871f78;opacity:0.35;"/>
   </g>
   <g id="patch_43">
    <path clip-path="url(#p564e263f7d)" d="M 135.637221 192.24 
L 136.734874 192.24 
L 136.734874 175.608 
L 135.637221 175.608 
z
" style="fill:#871f78;opacity:0.35;"/>
   </g>
   <g id="patch_44">
    <path clip-path="url(#p564e263f7d)" d="M 137.009288 192.24 
L 138.106941 192.24 
L 138.106941 192.24 
L 137.009288 192.24 
z
" style="fill:#871f78;opacity:0.35;"/>
   </g>
   <g id="patch_45">
    <path clip-path="url(#p564e263f7d)" d="M 138.381355 192.24 
L 139.479008 192.24 
L 139.479008 192.24 
L 138.381355 192.24 
z
" style="fill:#871f78;opacity:0.35;"/>
   </g>
   <g id="patch_46">
    <path clip-path="url(#p564e263f7d)" d="M 139.753421 192.24 
L 140.851075 192.24 
L 140.851075 200.556 
L 139.753421 200.556 
z
" style="fill:#871f78;opacity:0.35;"/>
   </g>
   <g id="patch_47">
    <path clip-path="url(#p564e263f7d)" d="M 141.125488 192.24 
L 142.223142 192.24 
L 142.223142 192.24 
L 141.125488 192.24 
z
" style="fill:#871f78;opacity:0.35;"/>
   </g>
   <g id="patch_48">
    <path clip-path="url(#p564e263f7d)" d="M 142.497555 192.24 
L 143.595209 192.24 
L 143.595209 192.24 
L 142.497555 192.24 
z
" style="fill:#871f78;opacity:0.35;"/>
   </g>
   <g id="patch_49">
    <path clip-path="url(#p564e263f7d)" d="M 143.869622 192.24 
L 144.967276 192.24 
L 144.967276 183.924 
L 143.869622 183.924 
z
" style="fill:#871f78;opacity:0.35;"/>
   </g>
   <g id="patch_50">
    <path clip-path="url(#p564e263f7d)" d="M 145.241689 192.24 
L 146.339342 192.24 
L 146.339342 192.24 
L 145.241689 192.24 
z
" style="fill:#871f78;opacity:0.35;"/>
   </g>
   <g id="patch_51">
    <path clip-path="url(#p564e263f7d)" d="M 146.613756 192.24 
L 147.711409 192.24 
L 147.711409 192.24 
L 146.613756 192.24 
z
" style="fill:#871f78;opacity:0.35;"/>
   </g>
   <g id="patch_52">
    <path clip-path="url(#p564e263f7d)" d="M 147.985823 192.24 
L 149.083476 192.24 
L 149.083476 192.24 
L 147.985823 192.24 
z
" style="fill:#871f78;opacity:0.35;"/>
   </g>
   <g id="patch_53">
    <path clip-path="url(#p564e263f7d)" d="M 149.35789 192.24 
L 150.455543 192.24 
L 150.455543 192.24 
L 149.35789 192.24 
z
" style="fill:#871f78;opacity:0.35;"/>
   </g>
   <g id="patch_54">
    <path clip-path="url(#p564e263f7d)" d="M 150.729956 192.24 
L 151.82761 192.24 
L 151.82761 183.924 
L 150.729956 183.924 
z
" style="fill:#871f78;opacity:0.35;"/>
   </g>
   <g id="patch_55">
    <path clip-path="url(#p564e263f7d)" d="M 152.102023 192.24 
L 153.199677 192.24 
L 153.199677 183.924 
L 152.102023 183.924 
z
" style="fill:#871f78;opacity:0.35;"/>
   </g>
   <g id="patch_56">
    <path clip-path="url(#p564e263f7d)" d="M 153.47409 192.24 
L 154.571744 192.24 
L 154.571744 192.24 
L 153.47409 192.24 
z
" style="fill:#871f78;opacity:0.35;"/>
   </g>
   <g id="patch_57">
    <path clip-path="url(#p564e263f7d)" d="M 154.846157 192.24 
L 155.943811 192.24 
L 155.943811 183.924 
L 154.846157 183.924 
z
" style="fill:#871f78;opacity:0.35;"/>
   </g>
   <g id="patch_58">
    <path clip-path="url(#p564e263f7d)" d="M 156.218224 192.24 
L 157.315877 192.24 
L 157.315877 192.24 
L 156.218224 192.24 
z
" style="fill:#871f78;opacity:0.35;"/>
   </g>
   <g id="patch_59">
    <path clip-path="url(#p564e263f7d)" d="M 157.590291 192.24 
L 158.687944 192.24 
L 158.687944 192.24 
L 157.590291 192.24 
z
" style="fill:#871f78;opacity:0.35;"/>
   </g>
   <g id="patch_60">
    <path clip-path="url(#p564e263f7d)" d="M 158.962358 192.24 
L 160.060011 192.24 
L 160.060011 192.24 
L 158.962358 192.24 
z
" style="fill:#871f78;opacity:0.35;"/>
   </g>
   <g id="patch_61">
    <path clip-path="url(#p564e263f7d)" d="M 160.334425 192.24 
L 161.432078 192.24 
L 161.432078 175.608 
L 160.334425 175.608 
z
" style="fill:#871f78;opacity:0.35;"/>
   </g>
   <g id="patch_62">
    <path clip-path="url(#p564e263f7d)" d="M 161.706491 192.24 
L 162.804145 192.24 
L 162.804145 183.924 
L 161.706491 183.924 
z
" style="fill:#871f78;opacity:0.35;"/>
   </g>
   <g id="patch_63">
    <path clip-path="url(#p564e263f7d)" d="M 163.078558 192.24 
L 164.176212 192.24 
L 164.176212 175.608 
L 163.078558 175.608 
z
" style="fill:#871f78;opacity:0.35;"/>
   </g>
   <g id="patch_64">
    <path clip-path="url(#p564e263f7d)" d="M 164.450625 192.24 
L 165.548279 192.24 
L 165.548279 192.24 
L 164.450625 192.24 
z
" style="fill:#871f78;opacity:0.35;"/>
   </g>
   <g id="patch_65">
    <path clip-path="url(#p564e263f7d)" d="M 165.822692 192.24 
L 166.920346 192.24 
L 166.920346 192.24 
L 165.822692 192.24 
z
" style="fill:#871f78;opacity:0.35;"/>
   </g>
   <g id="patch_66">
    <path clip-path="url(#p564e263f7d)" d="M 167.194759 192.24 
L 168.292413 192.24 
L 168.292413 183.924 
L 167.194759 183.924 
z
" style="fill:#871f78;opacity:0.35;"/>
   </g>
   <g id="patch_67">
    <path clip-path="url(#p564e263f7d)" d="M 168.566826 192.24 
L 169.664479 192.24 
L 169.664479 192.24 
L 168.566826 192.24 
z
" style="fill:#871f78;opacity:0.35;"/>
   </g>
   <g id="patch_68">
    <path clip-path="url(#p564e263f7d)" d="M 169.938893 192.24 
L 171.036546 192.24 
L 171.036546 183.924 
L 169.938893 183.924 
z
" style="fill:#871f78;opacity:0.35;"/>
   </g>
   <g id="patch_69">
    <path clip-path="url(#p564e263f7d)" d="M 171.31096 192.24 
L 172.408613 192.24 
L 172.408613 183.924 
L 171.31096 183.924 
z
" style="fill:#871f78;opacity:0.35;"/>
   </g>
   <g id="patch_70">
    <path clip-path="url(#p564e263f7d)" d="M 172.683027 192.24 
L 173.78068 192.24 
L 173.78068 200.556 
L 172.683027 200.556 
z
" style="fill:#871f78;opacity:0.35;"/>
   </g>
   <g id="patch_71">
    <path clip-path="url(#p564e263f7d)" d="M 174.055093 192.24 
L 175.152747 192.24 
L 175.152747 183.924 
L 174.055093 183.924 
z
" style="fill:#871f78;opacity:0.35;"/>
   </g>
   <g id="patch_72">
    <path clip-path="url(#p564e263f7d)" d="M 175.42716 192.24 
L 176.524814 192.24 
L 176.524814 175.608 
L 175.42716 175.608 
z
" style="fill:#871f78;opacity:0.35;"/>
   </g>
   <g id="patch_73">
    <path clip-path="url(#p564e263f7d)" d="M 176.799227 192.24 
L 177.896881 192.24 
L 177.896881 200.556 
L 176.799227 200.556 
z
" style="fill:#871f78;opacity:0.35;"/>
   </g>
   <g id="patch_74">
    <path clip-path="url(#p564e263f7d)" d="M 178.171294 192.24 
L 179.268948 192.24 
L 179.268948 183.924 
L 178.171294 183.924 
z
" style="fill:#871f78;opacity:0.35;"/>
   </g>
   <g id="patch_75">
    <path clip-path="url(#p564e263f7d)" d="M 179.543361 192.24 
L 180.641014 192.24 
L 180.641014 183.924 
L 179.543361 183.924 
z
" style="fill:#871f78;opacity:0.35;"/>
   </g>
   <g id="patch_76">
    <path clip-path="url(#p564e263f7d)" d="M 180.915428 192.24 
L 182.013081 192.24 
L 182.013081 175.608 
L 180.915428 175.608 
z
" style="fill:#871f78;opacity:0.35;"/>
   </g>
   <g id="patch_77">
    <path clip-path="url(#p564e263f7d)" d="M 182.287495 192.24 
L 183.385148 192.24 
L 183.385148 192.24 
L 182.287495 192.24 
z
" style="fill:#871f78;opacity:0.35;"/>
   </g>
   <g id="patch_78">
    <path clip-path="url(#p564e263f7d)" d="M 183.659562 192.24 
L 184.757215 192.24 
L 184.757215 192.24 
L 183.659562 192.24 
z
" style="fill:#871f78;opacity:0.35;"/>
   </g>
   <g id="patch_79">
    <path clip-path="url(#p564e263f7d)" d="M 185.031628 192.24 
L 186.129282 192.24 
L 186.129282 183.924 
L 185.031628 183.924 
z
" style="fill:#871f78;opacity:0.35;"/>
   </g>
   <g id="patch_80">
    <path clip-path="url(#p564e263f7d)" d="M 186.403695 192.24 
L 187.501349 192.24 
L 187.501349 183.924 
L 186.403695 183.924 
z
" style="fill:#871f78;opacity:0.35;"/>
   </g>
   <g id="patch_81">
    <path clip-path="url(#p564e263f7d)" d="M 187.775762 192.24 
L 188.873416 192.24 
L 188.873416 183.924 
L 187.775762 183.924 
z
" style="fill:#871f78;opacity:0.35;"/>
   </g>
   <g id="patch_82">
    <path clip-path="url(#p564e263f7d)" d="M 189.147829 192.24 
L 190.245483 192.24 
L 190.245483 175.608 
L 189.147829 175.608 
z
" style="fill:#871f78;opacity:0.35;"/>
   </g>
   <g id="patch_83">
    <path clip-path="url(#p564e263f7d)" d="M 190.519896 192.24 
L 191.61755 192.24 
L 191.61755 175.608 
L 190.519896 175.608 
z
" style="fill:#871f78;opacity:0.35;"/>
   </g>
   <g id="patch_84">
    <path clip-path="url(#p564e263f7d)" d="M 191.891963 192.24 
L 192.989616 192.24 
L 192.989616 183.924 
L 191.891963 183.924 
z
" style="fill:#871f78;opacity:0.35;"/>
   </g>
   <g id="patch_85">
    <path clip-path="url(#p564e263f7d)" d="M 193.26403 192.24 
L 194.361683 192.24 
L 194.361683 192.24 
L 193.26403 192.24 
z
" style="fill:#871f78;opacity:0.35;"/>
   </g>
   <g id="patch_86">
    <path clip-path="url(#p564e263f7d)" d="M 194.636097 192.24 
L 195.73375 192.24 
L 195.73375 192.24 
L 194.636097 192.24 
z
" style="fill:#871f78;opacity:0.35;"/>
   </g>
   <g id="patch_87">
    <path clip-path="url(#p564e263f7d)" d="M 196.008164 192.24 
L 197.105817 192.24 
L 197.105817 192.24 
L 196.008164 192.24 
z
" style="fill:#871f78;opacity:0.35;"/>
   </g>
   <g id="patch_88">
    <path clip-path="url(#p564e263f7d)" d="M 197.38023 192.24 
L 198.477884 192.24 
L 198.477884 167.292 
L 197.38023 167.292 
z
" style="fill:#871f78;opacity:0.35;"/>
   </g>
   <g id="patch_89">
    <path clip-path="url(#p564e263f7d)" d="M 198.752297 192.24 
L 199.849951 192.24 
L 199.849951 175.608 
L 198.752297 175.608 
z
" style="fill:#871f78;opacity:0.35;"/>
   </g>
   <g id="patch_90">
    <path clip-path="url(#p564e263f7d)" d="M 200.124364 192.24 
L 201.222018 192.24 
L 201.222018 192.24 
L 200.124364 192.24 
z
" style="fill:#871f78;opacity:0.35;"/>
   </g>
   <g id="patch_91">
    <path clip-path="url(#p564e263f7d)" d="M 201.496431 192.24 
L 202.594085 192.24 
L 202.594085 183.924 
L 201.496431 183.924 
z
" style="fill:#871f78;opacity:0.35;"/>
   </g>
   <g id="patch_92">
    <path clip-path="url(#p564e263f7d)" d="M 202.868498 192.24 
L 203.966151 192.24 
L 203.966151 183.924 
L 202.868498 183.924 
z
" style="fill:#871f78;opacity:0.35;"/>
   </g>
   <g id="patch_93">
    <path clip-path="url(#p564e263f7d)" d="M 204.240565 192.24 
L 205.338218 192.24 
L 205.338218 192.24 
L 204.240565 192.24 
z
" style="fill:#871f78;opacity:0.35;"/>
   </g>
   <g id="patch_94">
    <path clip-path="url(#p564e263f7d)" d="M 205.612632 192.24 
L 206.710285 192.24 
L 206.710285 192.24 
L 205.612632 192.24 
z
" style="fill:#871f78;opacity:0.35;"/>
   </g>
   <g id="patch_95">
    <path clip-path="url(#p564e263f7d)" d="M 206.984699 192.24 
L 208.082352 192.24 
L 208.082352 192.24 
L 206.984699 192.24 
z
" style="fill:#871f78;opacity:0.35;"/>
   </g>
   <g id="patch_96">
    <path clip-path="url(#p564e263f7d)" d="M 208.356765 192.24 
L 209.454419 192.24 
L 209.454419 192.24 
L 208.356765 192.24 
z
" style="fill:#871f78;opacity:0.35;"/>
   </g>
   <g id="patch_97">
    <path clip-path="url(#p564e263f7d)" d="M 209.728832 192.24 
L 210.826486 192.24 
L 210.826486 192.24 
L 209.728832 192.24 
z
" style="fill:#871f78;opacity:0.35;"/>
   </g>
   <g id="patch_98">
    <path clip-path="url(#p564e263f7d)" d="M 211.100899 192.24 
L 212.198553 192.24 
L 212.198553 183.924 
L 211.100899 183.924 
z
" style="fill:#871f78;opacity:0.35;"/>
   </g>
   <g id="patch_99">
    <path clip-path="url(#p564e263f7d)" d="M 212.472966 192.24 
L 213.57062 192.24 
L 213.57062 200.556 
L 212.472966 200.556 
z
" style="fill:#871f78;opacity:0.35;"/>
   </g>
   <g id="patch_100">
    <path clip-path="url(#p564e263f7d)" d="M 213.845033 192.24 
L 214.942687 192.24 
L 214.942687 192.24 
L 213.845033 192.24 
z
" style="fill:#871f78;opacity:0.35;"/>
   </g>
   <g id="patch_101">
    <path clip-path="url(#p564e263f7d)" d="M 215.2171 192.24 
L 216.314753 192.24 
L 216.314753 192.24 
L 215.2171 192.24 
z
" style="fill:#871f78;opacity:0.35;"/>
   </g>
   <g id="patch_102">
    <path clip-path="url(#p564e263f7d)" d="M 216.589167 192.24 
L 217.68682 192.24 
L 217.68682 192.24 
L 216.589167 192.24 
z
" style="fill:#871f78;opacity:0.35;"/>
   </g>
   <g id="patch_103">
    <path clip-path="url(#p564e263f7d)" d="M 217.961234 192.24 
L 219.058887 192.24 
L 219.058887 192.24 
L 217.961234 192.24 
z
" style="fill:#871f78;opacity:0.35;"/>
   </g>
   <g id="patch_104">
    <path clip-path="url(#p564e263f7d)" d="M 219.333301 192.24 
L 220.430954 192.24 
L 220.430954 192.24 
L 219.333301 192.24 
z
" style="fill:#871f78;opacity:0.35;"/>
   </g>
   <g id="patch_105">
    <path clip-path="url(#p564e263f7d)" d="M 220.705367 192.24 
L 221.803021 192.24 
L 221.803021 192.24 
L 220.705367 192.24 
z
" style="fill:#871f78;opacity:0.35;"/>
   </g>
   <g id="patch_106">
    <path clip-path="url(#p564e263f7d)" d="M 222.077434 192.24 
L 223.175088 192.24 
L 223.175088 192.24 
L 222.077434 192.24 
z
" style="fill:#871f78;opacity:0.35;"/>
   </g>
   <g id="patch_107">
    <path clip-path="url(#p564e263f7d)" d="M 223.449501 192.24 
L 224.547155 192.24 
L 224.547155 192.24 
L 223.449501 192.24 
z
" style="fill:#871f78;opacity:0.35;"/>
   </g>
   <g id="patch_108">
    <path clip-path="url(#p564e263f7d)" d="M 224.821568 192.24 
L 225.919222 192.24 
L 225.919222 200.556 
L 224.821568 200.556 
z
" style="fill:#871f78;opacity:0.35;"/>
   </g>
   <g id="patch_109">
    <path clip-path="url(#p564e263f7d)" d="M 226.193635 192.24 
L 227.291288 192.24 
L 227.291288 192.24 
L 226.193635 192.24 
z
" style="fill:#871f78;opacity:0.35;"/>
   </g>
   <g id="patch_110">
    <path clip-path="url(#p564e263f7d)" d="M 227.565702 192.24 
L 228.663355 192.24 
L 228.663355 183.924 
L 227.565702 183.924 
z
" style="fill:#871f78;opacity:0.35;"/>
   </g>
   <g id="patch_111">
    <path clip-path="url(#p564e263f7d)" d="M 228.937769 192.24 
L 230.035422 192.24 
L 230.035422 192.24 
L 228.937769 192.24 
z
" style="fill:#871f78;opacity:0.35;"/>
   </g>
   <g id="patch_112">
    <path clip-path="url(#p564e263f7d)" d="M 230.309836 192.24 
L 231.407489 192.24 
L 231.407489 192.24 
L 230.309836 192.24 
z
" style="fill:#871f78;opacity:0.35;"/>
   </g>
   <g id="patch_113">
    <path clip-path="url(#p564e263f7d)" d="M 231.681902 192.24 
L 232.779556 192.24 
L 232.779556 192.24 
L 231.681902 192.24 
z
" style="fill:#871f78;opacity:0.35;"/>
   </g>
   <g id="patch_114">
    <path clip-path="url(#p564e263f7d)" d="M 233.053969 192.24 
L 234.151623 192.24 
L 234.151623 192.24 
L 233.053969 192.24 
z
" style="fill:#871f78;opacity:0.35;"/>
   </g>
   <g id="patch_115">
    <path clip-path="url(#p564e263f7d)" d="M 234.426036 192.24 
L 235.52369 192.24 
L 235.52369 192.24 
L 234.426036 192.24 
z
" style="fill:#871f78;opacity:0.35;"/>
   </g>
   <g id="patch_116">
    <path clip-path="url(#p564e263f7d)" d="M 235.798103 192.24 
L 236.895757 192.24 
L 236.895757 183.924 
L 235.798103 183.924 
z
" style="fill:#871f78;opacity:0.35;"/>
   </g>
   <g id="patch_117">
    <path clip-path="url(#p564e263f7d)" d="M 237.17017 192.24 
L 238.267824 192.24 
L 238.267824 167.292 
L 237.17017 167.292 
z
" style="fill:#871f78;opacity:0.35;"/>
   </g>
   <g id="patch_118">
    <path clip-path="url(#p564e263f7d)" d="M 238.542237 192.24 
L 239.63989 192.24 
L 239.63989 167.292 
L 238.542237 167.292 
z
" style="fill:#871f78;opacity:0.35;"/>
   </g>
   <g id="patch_119">
    <path clip-path="url(#p564e263f7d)" d="M 239.914304 192.24 
L 241.011957 192.24 
L 241.011957 192.24 
L 239.914304 192.24 
z
" style="fill:#871f78;opacity:0.35;"/>
   </g>
   <g id="patch_120">
    <path clip-path="url(#p564e263f7d)" d="M 241.286371 192.24 
L 242.384024 192.24 
L 242.384024 183.924 
L 241.286371 183.924 
z
" style="fill:#871f78;opacity:0.35;"/>
   </g>
   <g id="patch_121">
    <path clip-path="url(#p564e263f7d)" d="M 242.658438 192.24 
L 243.756091 192.24 
L 243.756091 192.24 
L 242.658438 192.24 
z
" style="fill:#871f78;opacity:0.35;"/>
   </g>
   <g id="patch_122">
    <path clip-path="url(#p564e263f7d)" d="M 244.030504 192.24 
L 245.128158 192.24 
L 245.128158 183.924 
L 244.030504 183.924 
z
" style="fill:#871f78;opacity:0.35;"/>
   </g>
   <g id="patch_123">
    <path clip-path="url(#p564e263f7d)" d="M 245.402571 192.24 
L 246.500225 192.24 
L 246.500225 183.924 
L 245.402571 183.924 
z
" style="fill:#871f78;opacity:0.35;"/>
   </g>
   <g id="patch_124">
    <path clip-path="url(#p564e263f7d)" d="M 246.774638 192.24 
L 247.872292 192.24 
L 247.872292 192.24 
L 246.774638 192.24 
z
" style="fill:#871f78;opacity:0.35;"/>
   </g>
   <g id="patch_125">
    <path clip-path="url(#p564e263f7d)" d="M 248.146705 192.24 
L 249.244359 192.24 
L 249.244359 183.924 
L 248.146705 183.924 
z
" style="fill:#871f78;opacity:0.35;"/>
   </g>
   <g id="patch_126">
    <path clip-path="url(#p564e263f7d)" d="M 249.518772 192.24 
L 250.616425 192.24 
L 250.616425 192.24 
L 249.518772 192.24 
z
" style="fill:#871f78;opacity:0.35;"/>
   </g>
   <g id="patch_127">
    <path clip-path="url(#p564e263f7d)" d="M 250.890839 192.24 
L 251.988492 192.24 
L 251.988492 183.924 
L 250.890839 183.924 
z
" style="fill:#871f78;opacity:0.35;"/>
   </g>
   <g id="patch_128">
    <path clip-path="url(#p564e263f7d)" d="M 252.262906 192.24 
L 253.360559 192.24 
L 253.360559 192.24 
L 252.262906 192.24 
z
" style="fill:#871f78;opacity:0.35;"/>
   </g>
   <g id="patch_129">
    <path clip-path="url(#p564e263f7d)" d="M 253.634973 192.24 
L 254.732626 192.24 
L 254.732626 192.24 
L 253.634973 192.24 
z
" style="fill:#871f78;opacity:0.35;"/>
   </g>
   <g id="patch_130">
    <path clip-path="url(#p564e263f7d)" d="M 255.007039 192.24 
L 256.104693 192.24 
L 256.104693 175.608 
L 255.007039 175.608 
z
" style="fill:#871f78;opacity:0.35;"/>
   </g>
   <g id="patch_131">
    <path clip-path="url(#p564e263f7d)" d="M 256.379106 192.24 
L 257.47676 192.24 
L 257.47676 192.24 
L 256.379106 192.24 
z
" style="fill:#871f78;opacity:0.35;"/>
   </g>
   <g id="patch_132">
    <path clip-path="url(#p564e263f7d)" d="M 257.751173 192.24 
L 258.848827 192.24 
L 258.848827 192.24 
L 257.751173 192.24 
z
" style="fill:#871f78;opacity:0.35;"/>
   </g>
   <g id="patch_133">
    <path clip-path="url(#p564e263f7d)" d="M 259.12324 192.24 
L 260.220894 192.24 
L 260.220894 183.924 
L 259.12324 183.924 
z
" style="fill:#871f78;opacity:0.35;"/>
   </g>
   <g id="patch_134">
    <path clip-path="url(#p564e263f7d)" d="M 260.495307 192.24 
L 261.592961 192.24 
L 261.592961 192.24 
L 260.495307 192.24 
z
" style="fill:#871f78;opacity:0.35;"/>
   </g>
   <g id="patch_135">
    <path clip-path="url(#p564e263f7d)" d="M 261.867374 192.24 
L 262.965027 192.24 
L 262.965027 183.924 
L 261.867374 183.924 
z
" style="fill:#871f78;opacity:0.35;"/>
   </g>
   <g id="patch_136">
    <path clip-path="url(#p564e263f7d)" d="M 263.239441 192.24 
L 264.337094 192.24 
L 264.337094 175.608 
L 263.239441 175.608 
z
" style="fill:#871f78;opacity:0.35;"/>
   </g>
   <g id="patch_137">
    <path clip-path="url(#p564e263f7d)" d="M 264.611508 192.24 
L 265.709161 192.24 
L 265.709161 175.608 
L 264.611508 175.608 
z
" style="fill:#871f78;opacity:0.35;"/>
   </g>
   <g id="patch_138">
    <path clip-path="url(#p564e263f7d)" d="M 265.983575 192.24 
L 267.081228 192.24 
L 267.081228 183.924 
L 265.983575 183.924 
z
" style="fill:#871f78;opacity:0.35;"/>
   </g>
   <g id="patch_139">
    <path clip-path="url(#p564e263f7d)" d="M 267.355641 192.24 
L 268.453295 192.24 
L 268.453295 183.924 
L 267.355641 183.924 
z
" style="fill:#871f78;opacity:0.35;"/>
   </g>
   <g id="patch_140">
    <path clip-path="url(#p564e263f7d)" d="M 268.727708 192.24 
L 269.825362 192.24 
L 269.825362 192.24 
L 268.727708 192.24 
z
" style="fill:#871f78;opacity:0.35;"/>
   </g>
   <g id="patch_141">
    <path clip-path="url(#p564e263f7d)" d="M 270.099775 192.24 
L 271.197429 192.24 
L 271.197429 183.924 
L 270.099775 183.924 
z
" style="fill:#871f78;opacity:0.35;"/>
   </g>
   <g id="patch_142">
    <path clip-path="url(#p564e263f7d)" d="M 271.471842 192.24 
L 272.569496 192.24 
L 272.569496 192.24 
L 271.471842 192.24 
z
" style="fill:#871f78;opacity:0.35;"/>
   </g>
   <g id="patch_143">
    <path clip-path="url(#p564e263f7d)" d="M 272.843909 192.24 
L 273.941562 192.24 
L 273.941562 192.24 
L 272.843909 192.24 
z
" style="fill:#871f78;opacity:0.35;"/>
   </g>
   <g id="patch_144">
    <path clip-path="url(#p564e263f7d)" d="M 274.215976 192.24 
L 275.313629 192.24 
L 275.313629 192.24 
L 274.215976 192.24 
z
" style="fill:#871f78;opacity:0.35;"/>
   </g>
   <g id="patch_145">
    <path clip-path="url(#p564e263f7d)" d="M 275.588043 192.24 
L 276.685696 192.24 
L 276.685696 200.556 
L 275.588043 200.556 
z
" style="fill:#871f78;opacity:0.35;"/>
   </g>
   <g id="patch_146">
    <path clip-path="url(#p564e263f7d)" d="M 276.96011 192.24 
L 278.057763 192.24 
L 278.057763 192.24 
L 276.96011 192.24 
z
" style="fill:#871f78;opacity:0.35;"/>
   </g>
   <g id="patch_147">
    <path clip-path="url(#p564e263f7d)" d="M 278.332176 192.24 
L 279.42983 192.24 
L 279.42983 183.924 
L 278.332176 183.924 
z
" style="fill:#871f78;opacity:0.35;"/>
   </g>
   <g id="patch_148">
    <path clip-path="url(#p564e263f7d)" d="M 279.704243 192.24 
L 280.801897 192.24 
L 280.801897 175.608 
L 279.704243 175.608 
z
" style="fill:#871f78;opacity:0.35;"/>
   </g>
   <g id="patch_149">
    <path clip-path="url(#p564e263f7d)" d="M 281.07631 192.24 
L 282.173964 192.24 
L 282.173964 192.24 
L 281.07631 192.24 
z
" style="fill:#871f78;opacity:0.35;"/>
   </g>
   <g id="patch_150">
    <path clip-path="url(#p564e263f7d)" d="M 282.448377 192.24 
L 283.546031 192.24 
L 283.546031 175.608 
L 282.448377 175.608 
z
" style="fill:#871f78;opacity:0.35;"/>
   </g>
   <g id="patch_151">
    <path clip-path="url(#p564e263f7d)" d="M 283.820444 192.24 
L 284.918098 192.24 
L 284.918098 192.24 
L 283.820444 192.24 
z
" style="fill:#871f78;opacity:0.35;"/>
   </g>
   <g id="patch_152">
    <path clip-path="url(#p564e263f7d)" d="M 285.192511 192.24 
L 286.290164 192.24 
L 286.290164 192.24 
L 285.192511 192.24 
z
" style="fill:#871f78;opacity:0.35;"/>
   </g>
   <g id="patch_153">
    <path clip-path="url(#p564e263f7d)" d="M 286.564578 192.24 
L 287.662231 192.24 
L 287.662231 192.24 
L 286.564578 192.24 
z
" style="fill:#871f78;opacity:0.35;"/>
   </g>
   <g id="patch_154">
    <path clip-path="url(#p564e263f7d)" d="M 287.936645 192.24 
L 289.034298 192.24 
L 289.034298 192.24 
L 287.936645 192.24 
z
" style="fill:#871f78;opacity:0.35;"/>
   </g>
   <g id="patch_155">
    <path clip-path="url(#p564e263f7d)" d="M 289.308712 192.24 
L 290.406365 192.24 
L 290.406365 192.24 
L 289.308712 192.24 
z
" style="fill:#871f78;opacity:0.35;"/>
   </g>
   <g id="patch_156">
    <path clip-path="url(#p564e263f7d)" d="M 290.680778 192.24 
L 291.778432 192.24 
L 291.778432 192.24 
L 290.680778 192.24 
z
" style="fill:#871f78;opacity:0.35;"/>
   </g>
   <g id="patch_157">
    <path clip-path="url(#p564e263f7d)" d="M 292.052845 192.24 
L 293.150499 192.24 
L 293.150499 192.24 
L 292.052845 192.24 
z
" style="fill:#871f78;opacity:0.35;"/>
   </g>
   <g id="patch_158">
    <path clip-path="url(#p564e263f7d)" d="M 293.424912 192.24 
L 294.522566 192.24 
L 294.522566 192.24 
L 293.424912 192.24 
z
" style="fill:#871f78;opacity:0.35;"/>
   </g>
   <g id="patch_159">
    <path clip-path="url(#p564e263f7d)" d="M 294.796979 192.24 
L 295.894633 192.24 
L 295.894633 192.24 
L 294.796979 192.24 
z
" style="fill:#871f78;opacity:0.35;"/>
   </g>
   <g id="patch_160">
    <path clip-path="url(#p564e263f7d)" d="M 296.169046 192.24 
L 297.266699 192.24 
L 297.266699 192.24 
L 296.169046 192.24 
z
" style="fill:#871f78;opacity:0.35;"/>
   </g>
   <g id="patch_161">
    <path clip-path="url(#p564e263f7d)" d="M 297.541113 192.24 
L 298.638766 192.24 
L 298.638766 192.24 
L 297.541113 192.24 
z
" style="fill:#871f78;opacity:0.35;"/>
   </g>
   <g id="patch_162">
    <path clip-path="url(#p564e263f7d)" d="M 298.91318 192.24 
L 300.010833 192.24 
L 300.010833 192.24 
L 298.91318 192.24 
z
" style="fill:#871f78;opacity:0.35;"/>
   </g>
   <g id="patch_163">
    <path clip-path="url(#p564e263f7d)" d="M 300.285247 192.24 
L 301.3829 192.24 
L 301.3829 192.24 
L 300.285247 192.24 
z
" style="fill:#871f78;opacity:0.35;"/>
   </g>
   <g id="patch_164">
    <path clip-path="url(#p564e263f7d)" d="M 301.657313 192.24 
L 302.754967 192.24 
L 302.754967 183.924 
L 301.657313 183.924 
z
" style="fill:#871f78;opacity:0.35;"/>
   </g>
   <g id="patch_165">
    <path clip-path="url(#p564e263f7d)" d="M 303.02938 192.24 
L 304.127034 192.24 
L 304.127034 183.924 
L 303.02938 183.924 
z
" style="fill:#871f78;opacity:0.35;"/>
   </g>
   <g id="patch_166">
    <path clip-path="url(#p564e263f7d)" d="M 304.401447 192.24 
L 305.499101 192.24 
L 305.499101 192.24 
L 304.401447 192.24 
z
" style="fill:#871f78;opacity:0.35;"/>
   </g>
   <g id="patch_167">
    <path clip-path="url(#p564e263f7d)" d="M 305.773514 192.24 
L 306.871168 192.24 
L 306.871168 183.924 
L 305.773514 183.924 
z
" style="fill:#871f78;opacity:0.35;"/>
   </g>
   <g id="patch_168">
    <path clip-path="url(#p564e263f7d)" d="M 307.145581 192.24 
L 308.243235 192.24 
L 308.243235 183.924 
L 307.145581 183.924 
z
" style="fill:#871f78;opacity:0.35;"/>
   </g>
   <g id="patch_169">
    <path clip-path="url(#p564e263f7d)" d="M 308.517648 192.24 
L 309.615301 192.24 
L 309.615301 192.24 
L 308.517648 192.24 
z
" style="fill:#871f78;opacity:0.35;"/>
   </g>
   <g id="patch_170">
    <path clip-path="url(#p564e263f7d)" d="M 309.889715 192.24 
L 310.987368 192.24 
L 310.987368 192.24 
L 309.889715 192.24 
z
" style="fill:#871f78;opacity:0.35;"/>
   </g>
   <g id="patch_171">
    <path clip-path="url(#p564e263f7d)" d="M 311.261782 192.24 
L 312.359435 192.24 
L 312.359435 192.24 
L 311.261782 192.24 
z
" style="fill:#871f78;opacity:0.35;"/>
   </g>
   <g id="patch_172">
    <path clip-path="url(#p564e263f7d)" d="M 312.633849 192.24 
L 313.731502 192.24 
L 313.731502 192.24 
L 312.633849 192.24 
z
" style="fill:#871f78;opacity:0.35;"/>
   </g>
   <g id="patch_173">
    <path clip-path="url(#p564e263f7d)" d="M 314.005915 192.24 
L 315.103569 192.24 
L 315.103569 192.24 
L 314.005915 192.24 
z
" style="fill:#871f78;opacity:0.35;"/>
   </g>
   <g id="patch_174">
    <path clip-path="url(#p564e263f7d)" d="M 315.377982 192.24 
L 316.475636 192.24 
L 316.475636 192.24 
L 315.377982 192.24 
z
" style="fill:#871f78;opacity:0.35;"/>
   </g>
   <g id="patch_175">
    <path clip-path="url(#p564e263f7d)" d="M 316.750049 192.24 
L 317.847703 192.24 
L 317.847703 175.608 
L 316.750049 175.608 
z
" style="fill:#871f78;opacity:0.35;"/>
   </g>
   <g id="patch_176">
    <path clip-path="url(#p564e263f7d)" d="M 318.122116 192.24 
L 319.21977 192.24 
L 319.21977 192.24 
L 318.122116 192.24 
z
" style="fill:#871f78;opacity:0.35;"/>
   </g>
   <g id="patch_177">
    <path clip-path="url(#p564e263f7d)" d="M 319.494183 192.24 
L 320.591836 192.24 
L 320.591836 192.24 
L 319.494183 192.24 
z
" style="fill:#871f78;opacity:0.35;"/>
   </g>
   <g id="patch_178">
    <path clip-path="url(#p564e263f7d)" d="M 320.86625 192.24 
L 321.963903 192.24 
L 321.963903 192.24 
L 320.86625 192.24 
z
" style="fill:#871f78;opacity:0.35;"/>
   </g>
   <g id="patch_179">
    <path clip-path="url(#p564e263f7d)" d="M 322.238317 192.24 
L 323.33597 192.24 
L 323.33597 183.924 
L 322.238317 183.924 
z
" style="fill:#871f78;opacity:0.35;"/>
   </g>
   <g id="patch_180">
    <path clip-path="url(#p564e263f7d)" d="M 323.610384 192.24 
L 324.708037 192.24 
L 324.708037 175.608 
L 323.610384 175.608 
z
" style="fill:#871f78;opacity:0.35;"/>
   </g>
   <g id="patch_181">
    <path clip-path="url(#p564e263f7d)" d="M 324.98245 192.24 
L 326.080104 192.24 
L 326.080104 183.924 
L 324.98245 183.924 
z
" style="fill:#871f78;opacity:0.35;"/>
   </g>
   <g id="patch_182">
    <path clip-path="url(#p564e263f7d)" d="M 326.354517 192.24 
L 327.452171 192.24 
L 327.452171 192.24 
L 326.354517 192.24 
z
" style="fill:#871f78;opacity:0.35;"/>
   </g>
   <g id="patch_183">
    <path clip-path="url(#p564e263f7d)" d="M 327.726584 192.24 
L 328.824238 192.24 
L 328.824238 192.24 
L 327.726584 192.24 
z
" style="fill:#871f78;opacity:0.35;"/>
   </g>
   <g id="patch_184">
    <path clip-path="url(#p564e263f7d)" d="M 329.098651 192.24 
L 330.196305 192.24 
L 330.196305 183.924 
L 329.098651 183.924 
z
" style="fill:#871f78;opacity:0.35;"/>
   </g>
   <g id="patch_185">
    <path clip-path="url(#p564e263f7d)" d="M 330.470718 192.24 
L 331.568372 192.24 
L 331.568372 192.24 
L 330.470718 192.24 
z
" style="fill:#871f78;opacity:0.35;"/>
   </g>
   <g id="patch_186">
    <path clip-path="url(#p564e263f7d)" d="M 331.842785 192.24 
L 332.940438 192.24 
L 332.940438 192.24 
L 331.842785 192.24 
z
" style="fill:#871f78;opacity:0.35;"/>
   </g>
   <g id="patch_187">
    <path clip-path="url(#p564e263f7d)" d="M 333.214852 192.24 
L 334.312505 192.24 
L 334.312505 192.24 
L 333.214852 192.24 
z
" style="fill:#871f78;opacity:0.35;"/>
   </g>
   <g id="patch_188">
    <path clip-path="url(#p564e263f7d)" d="M 334.586919 192.24 
L 335.684572 192.24 
L 335.684572 183.924 
L 334.586919 183.924 
z
" style="fill:#871f78;opacity:0.35;"/>
   </g>
   <g id="patch_189">
    <path clip-path="url(#p564e263f7d)" d="M 335.958986 192.24 
L 337.056639 192.24 
L 337.056639 167.292 
L 335.958986 167.292 
z
" style="fill:#871f78;opacity:0.35;"/>
   </g>
   <g id="patch_190">
    <path clip-path="url(#p564e263f7d)" d="M 337.331052 192.24 
L 338.428706 192.24 
L 338.428706 192.24 
L 337.331052 192.24 
z
" style="fill:#871f78;opacity:0.35;"/>
   </g>
   <g id="patch_191">
    <path clip-path="url(#p564e263f7d)" d="M 338.703119 192.24 
L 339.800773 192.24 
L 339.800773 175.608 
L 338.703119 175.608 
z
" style="fill:#871f78;opacity:0.35;"/>
   </g>
   <g id="patch_192">
    <path clip-path="url(#p564e263f7d)" d="M 340.075186 192.24 
L 341.17284 192.24 
L 341.17284 175.608 
L 340.075186 175.608 
z
" style="fill:#871f78;opacity:0.35;"/>
   </g>
   <g id="patch_193">
    <path clip-path="url(#p564e263f7d)" d="M 341.447253 192.24 
L 342.544907 192.24 
L 342.544907 183.924 
L 341.447253 183.924 
z
" style="fill:#871f78;opacity:0.35;"/>
   </g>
   <g id="patch_194">
    <path clip-path="url(#p564e263f7d)" d="M 342.81932 192.24 
L 343.916973 192.24 
L 343.916973 175.608 
L 342.81932 175.608 
z
" style="fill:#871f78;opacity:0.35;"/>
   </g>
   <g id="patch_195">
    <path clip-path="url(#p564e263f7d)" d="M 344.191387 192.24 
L 345.28904 192.24 
L 345.28904 183.924 
L 344.191387 183.924 
z
" style="fill:#871f78;opacity:0.35;"/>
   </g>
   <g id="patch_196">
    <path clip-path="url(#p564e263f7d)" d="M 345.563454 192.24 
L 346.661107 192.24 
L 346.661107 192.24 
L 345.563454 192.24 
z
" style="fill:#871f78;opacity:0.35;"/>
   </g>
   <g id="patch_197">
    <path clip-path="url(#p564e263f7d)" d="M 346.935521 192.24 
L 348.033174 192.24 
L 348.033174 183.924 
L 346.935521 183.924 
z
" style="fill:#871f78;opacity:0.35;"/>
   </g>
   <g id="patch_198">
    <path clip-path="url(#p564e263f7d)" d="M 348.307587 192.24 
L 349.405241 192.24 
L 349.405241 183.924 
L 348.307587 183.924 
z
" style="fill:#871f78;opacity:0.35;"/>
   </g>
   <g id="patch_199">
    <path clip-path="url(#p564e263f7d)" d="M 349.679654 192.24 
L 350.777308 192.24 
L 350.777308 183.924 
L 349.679654 183.924 
z
" style="fill:#871f78;opacity:0.35;"/>
   </g>
   <g id="patch_200">
    <path clip-path="url(#p564e263f7d)" d="M 351.051721 192.24 
L 352.149375 192.24 
L 352.149375 183.924 
L 351.051721 183.924 
z
" style="fill:#871f78;opacity:0.35;"/>
   </g>
   <g id="patch_201">
    <path clip-path="url(#p564e263f7d)" d="M 352.423788 192.24 
L 353.521442 192.24 
L 353.521442 192.24 
L 352.423788 192.24 
z
" style="fill:#871f78;opacity:0.35;"/>
   </g>
   <g id="patch_202">
    <path clip-path="url(#p564e263f7d)" d="M 353.795855 192.24 
L 354.893509 192.24 
L 354.893509 183.924 
L 353.795855 183.924 
z
" style="fill:#871f78;opacity:0.35;"/>
   </g>
   <g id="patch_203">
    <path clip-path="url(#p564e263f7d)" d="M 355.167922 192.24 
L 356.265575 192.24 
L 356.265575 183.924 
L 355.167922 183.924 
z
" style="fill:#871f78;opacity:0.35;"/>
   </g>
   <g id="patch_204">
    <path clip-path="url(#p564e263f7d)" d="M 356.539989 192.24 
L 357.637642 192.24 
L 357.637642 175.608 
L 356.539989 175.608 
z
" style="fill:#871f78;opacity:0.35;"/>
   </g>
   <g id="patch_205">
    <path clip-path="url(#p564e263f7d)" d="M 357.912056 192.24 
L 359.009709 192.24 
L 359.009709 192.24 
L 357.912056 192.24 
z
" style="fill:#871f78;opacity:0.35;"/>
   </g>
   <g id="patch_206">
    <path clip-path="url(#p564e263f7d)" d="M 359.284123 192.24 
L 360.381776 192.24 
L 360.381776 167.292 
L 359.284123 167.292 
z
" style="fill:#871f78;opacity:0.35;"/>
   </g>
   <g id="patch_207">
    <path clip-path="url(#p564e263f7d)" d="M 360.656189 192.24 
L 361.753843 192.24 
L 361.753843 192.24 
L 360.656189 192.24 
z
" style="fill:#871f78;opacity:0.35;"/>
   </g>
   <g id="patch_208">
    <path clip-path="url(#p564e263f7d)" d="M 362.028256 192.24 
L 363.12591 192.24 
L 363.12591 183.924 
L 362.028256 183.924 
z
" style="fill:#871f78;opacity:0.35;"/>
   </g>
   <g id="patch_209">
    <path clip-path="url(#p564e263f7d)" d="M 363.400323 192.24 
L 364.497977 192.24 
L 364.497977 192.24 
L 363.400323 192.24 
z
" style="fill:#871f78;opacity:0.35;"/>
   </g>
   <g id="patch_210">
    <path clip-path="url(#p564e263f7d)" d="M 364.77239 192.24 
L 365.870044 192.24 
L 365.870044 192.24 
L 364.77239 192.24 
z
" style="fill:#871f78;opacity:0.35;"/>
   </g>
   <g id="patch_211">
    <path clip-path="url(#p564e263f7d)" d="M 366.144457 192.24 
L 367.24211 192.24 
L 367.24211 167.292 
L 366.144457 167.292 
z
" style="fill:#871f78;opacity:0.35;"/>
   </g>
   <g id="patch_212">
    <path clip-path="url(#p564e263f7d)" d="M 367.516524 192.24 
L 368.614177 192.24 
L 368.614177 183.924 
L 367.516524 183.924 
z
" style="fill:#871f78;opacity:0.35;"/>
   </g>
   <g id="patch_213">
    <path clip-path="url(#p564e263f7d)" d="M 368.888591 192.24 
L 369.986244 192.24 
L 369.986244 192.24 
L 368.888591 192.24 
z
" style="fill:#871f78;opacity:0.35;"/>
   </g>
   <g id="patch_214">
    <path clip-path="url(#p564e263f7d)" d="M 370.260658 192.24 
L 371.358311 192.24 
L 371.358311 175.608 
L 370.260658 175.608 
z
" style="fill:#871f78;opacity:0.35;"/>
   </g>
   <g id="patch_215">
    <path clip-path="url(#p564e263f7d)" d="M 371.632724 192.24 
L 372.730378 192.24 
L 372.730378 183.924 
L 371.632724 183.924 
z
" style="fill:#871f78;opacity:0.35;"/>
   </g>
   <g id="patch_216">
    <path clip-path="url(#p564e263f7d)" d="M 373.004791 192.24 
L 374.102445 192.24 
L 374.102445 134.028 
L 373.004791 134.028 
z
" style="fill:#871f78;opacity:0.35;"/>
   </g>
   <g id="patch_217">
    <path clip-path="url(#p564e263f7d)" d="M 374.376858 192.24 
L 375.474512 192.24 
L 375.474512 175.608 
L 374.376858 175.608 
z
" style="fill:#871f78;opacity:0.35;"/>
   </g>
   <g id="patch_218">
    <path clip-path="url(#p564e263f7d)" d="M 375.748925 192.24 
L 376.846579 192.24 
L 376.846579 183.924 
L 375.748925 183.924 
z
" style="fill:#871f78;opacity:0.35;"/>
   </g>
   <g id="patch_219">
    <path clip-path="url(#p564e263f7d)" d="M 377.120992 192.24 
L 378.218645 192.24 
L 378.218645 192.24 
L 377.120992 192.24 
z
" style="fill:#871f78;opacity:0.35;"/>
   </g>
   <g id="patch_220">
    <path clip-path="url(#p564e263f7d)" d="M 378.493059 192.24 
L 379.590712 192.24 
L 379.590712 183.924 
L 378.493059 183.924 
z
" style="fill:#871f78;opacity:0.35;"/>
   </g>
   <g id="patch_221">
    <path clip-path="url(#p564e263f7d)" d="M 379.865126 192.24 
L 380.962779 192.24 
L 380.962779 192.24 
L 379.865126 192.24 
z
" style="fill:#871f78;opacity:0.35;"/>
   </g>
   <g id="patch_222">
    <path clip-path="url(#p564e263f7d)" d="M 381.237193 192.24 
L 382.334846 192.24 
L 382.334846 183.924 
L 381.237193 183.924 
z
" style="fill:#871f78;opacity:0.35;"/>
   </g>
   <g id="patch_223">
    <path clip-path="url(#p564e263f7d)" d="M 382.60926 192.24 
L 383.706913 192.24 
L 383.706913 175.608 
L 382.60926 175.608 
z
" style="fill:#871f78;opacity:0.35;"/>
   </g>
   <g id="patch_224">
    <path clip-path="url(#p564e263f7d)" d="M 383.981326 192.24 
L 385.07898 192.24 
L 385.07898 150.66 
L 383.981326 150.66 
z
" style="fill:#871f78;opacity:0.35;"/>
   </g>
   <g id="patch_225">
    <path clip-path="url(#p564e263f7d)" d="M 385.353393 192.24 
L 386.451047 192.24 
L 386.451047 183.924 
L 385.353393 183.924 
z
" style="fill:#871f78;opacity:0.35;"/>
   </g>
   <g id="patch_226">
    <path clip-path="url(#p564e263f7d)" d="M 386.72546 192.24 
L 387.823114 192.24 
L 387.823114 158.976 
L 386.72546 158.976 
z
" style="fill:#871f78;opacity:0.35;"/>
   </g>
   <g id="patch_227">
    <path clip-path="url(#p564e263f7d)" d="M 388.097527 192.24 
L 389.195181 192.24 
L 389.195181 183.924 
L 388.097527 183.924 
z
" style="fill:#871f78;opacity:0.35;"/>
   </g>
   <g id="patch_228">
    <path clip-path="url(#p564e263f7d)" d="M 389.469594 192.24 
L 390.567247 192.24 
L 390.567247 175.608 
L 389.469594 175.608 
z
" style="fill:#871f78;opacity:0.35;"/>
   </g>
   <g id="patch_229">
    <path clip-path="url(#p564e263f7d)" d="M 390.841661 192.24 
L 391.939314 192.24 
L 391.939314 175.608 
L 390.841661 175.608 
z
" style="fill:#871f78;opacity:0.35;"/>
   </g>
   <g id="patch_230">
    <path clip-path="url(#p564e263f7d)" d="M 392.213728 192.24 
L 393.311381 192.24 
L 393.311381 175.608 
L 392.213728 175.608 
z
" style="fill:#871f78;opacity:0.35;"/>
   </g>
   <g id="patch_231">
    <path clip-path="url(#p564e263f7d)" d="M 393.585795 192.24 
L 394.683448 192.24 
L 394.683448 158.976 
L 393.585795 158.976 
z
" style="fill:#871f78;opacity:0.35;"/>
   </g>
   <g id="patch_232">
    <path clip-path="url(#p564e263f7d)" d="M 394.957861 192.24 
L 396.055515 192.24 
L 396.055515 183.924 
L 394.957861 183.924 
z
" style="fill:#871f78;opacity:0.35;"/>
   </g>
   <g id="patch_233">
    <path clip-path="url(#p564e263f7d)" d="M 396.329928 192.24 
L 397.427582 192.24 
L 397.427582 175.608 
L 396.329928 175.608 
z
" style="fill:#871f78;opacity:0.35;"/>
   </g>
   <g id="patch_234">
    <path clip-path="url(#p564e263f7d)" d="M 397.701995 192.24 
L 398.799649 192.24 
L 398.799649 175.608 
L 397.701995 175.608 
z
" style="fill:#871f78;opacity:0.35;"/>
   </g>
   <g id="patch_235">
    <path clip-path="url(#p564e263f7d)" d="M 399.074062 192.24 
L 400.171716 192.24 
L 400.171716 175.608 
L 399.074062 175.608 
z
" style="fill:#871f78;opacity:0.35;"/>
   </g>
   <g id="patch_236">
    <path clip-path="url(#p564e263f7d)" d="M 400.446129 192.24 
L 401.543782 192.24 
L 401.543782 175.608 
L 400.446129 175.608 
z
" style="fill:#871f78;opacity:0.35;"/>
   </g>
   <g id="patch_237">
    <path clip-path="url(#p564e263f7d)" d="M 401.818196 192.24 
L 402.915849 192.24 
L 402.915849 175.608 
L 401.818196 175.608 
z
" style="fill:#871f78;opacity:0.35;"/>
   </g>
   <g id="patch_238">
    <path clip-path="url(#p564e263f7d)" d="M 403.190263 192.24 
L 404.287916 192.24 
L 404.287916 167.292 
L 403.190263 167.292 
z
" style="fill:#871f78;opacity:0.35;"/>
   </g>
   <g id="patch_239">
    <path clip-path="url(#p564e263f7d)" d="M 404.56233 192.24 
L 405.659983 192.24 
L 405.659983 175.608 
L 404.56233 175.608 
z
" style="fill:#871f78;opacity:0.35;"/>
   </g>
   <g id="patch_240">
    <path clip-path="url(#p564e263f7d)" d="M 405.934397 192.24 
L 407.03205 192.24 
L 407.03205 167.292 
L 405.934397 167.292 
z
" style="fill:#871f78;opacity:0.35;"/>
   </g>
   <g id="patch_241">
    <path clip-path="url(#p564e263f7d)" d="M 407.306463 192.24 
L 408.404117 192.24 
L 408.404117 125.712 
L 407.306463 125.712 
z
" style="fill:#871f78;opacity:0.35;"/>
   </g>
   <g id="patch_242">
    <path clip-path="url(#p564e263f7d)" d="M 408.67853 192.24 
L 409.776184 192.24 
L 409.776184 150.66 
L 408.67853 150.66 
z
" style="fill:#871f78;opacity:0.35;"/>
   </g>
   <g id="patch_243">
    <path clip-path="url(#p564e263f7d)" d="M 410.050597 192.24 
L 411.148251 192.24 
L 411.148251 42.552 
L 410.050597 42.552 
z
" style="fill:#871f78;opacity:0.35;"/>
   </g>
   <g id="patch_244">
    <path clip-path="url(#p564e263f7d)" d="M 411.422664 192.24 
L 412.520318 192.24 
L 412.520318 142.344 
L 411.422664 142.344 
z
" style="fill:#871f78;opacity:0.35;"/>
   </g>
   <g id="patch_245">
    <path clip-path="url(#p564e263f7d)" d="M 412.794731 192.24 
L 413.892384 192.24 
L 413.892384 117.396 
L 412.794731 117.396 
z
" style="fill:#871f78;opacity:0.35;"/>
   </g>
   <g id="patch_246">
    <path clip-path="url(#p564e263f7d)" d="M 414.166798 192.24 
L 415.264451 192.24 
L 415.264451 109.08 
L 414.166798 109.08 
z
" style="fill:#871f78;opacity:0.35;"/>
   </g>
   <g id="patch_247">
    <path clip-path="url(#p564e263f7d)" d="M 415.538865 192.24 
L 416.636518 192.24 
L 416.636518 117.396 
L 415.538865 117.396 
z
" style="fill:#871f78;opacity:0.35;"/>
   </g>
   <g id="patch_248">
    <path clip-path="url(#p564e263f7d)" d="M 416.910932 192.24 
L 418.008585 192.24 
L 418.008585 150.66 
L 416.910932 150.66 
z
" style="fill:#871f78;opacity:0.35;"/>
   </g>
   <g id="patch_249">
    <path clip-path="url(#p564e263f7d)" d="M 418.282998 192.24 
L 419.380652 192.24 
L 419.380652 125.712 
L 418.282998 125.712 
z
" style="fill:#871f78;opacity:0.35;"/>
   </g>
   <g id="patch_250">
    <path clip-path="url(#p564e263f7d)" d="M 419.655065 192.24 
L 420.752719 192.24 
L 420.752719 150.66 
L 419.655065 150.66 
z
" style="fill:#871f78;opacity:0.35;"/>
   </g>
   <g id="patch_251">
    <path clip-path="url(#p564e263f7d)" d="M 421.027132 192.24 
L 422.124786 192.24 
L 422.124786 92.448 
L 421.027132 92.448 
z
" style="fill:#871f78;opacity:0.35;"/>
   </g>
   <g id="patch_252">
    <path clip-path="url(#p564e263f7d)" d="M 422.399199 192.24 
L 423.496853 192.24 
L 423.496853 125.712 
L 422.399199 125.712 
z
" style="fill:#871f78;opacity:0.35;"/>
   </g>
   <g id="patch_253">
    <path clip-path="url(#p564e263f7d)" d="M 423.771266 192.24 
L 424.868919 192.24 
L 424.868919 75.816 
L 423.771266 75.816 
z
" style="fill:#871f78;opacity:0.35;"/>
   </g>
   <g id="patch_254">
    <path clip-path="url(#p564e263f7d)" d="M 425.143333 192.24 
L 426.240986 192.24 
L 426.240986 125.712 
L 425.143333 125.712 
z
" style="fill:#871f78;opacity:0.35;"/>
   </g>
   <g id="patch_255">
    <path clip-path="url(#p564e263f7d)" d="M 426.5154 192.24 
L 427.613053 192.24 
L 427.613053 117.396 
L 426.5154 117.396 
z
" style="fill:#871f78;opacity:0.35;"/>
   </g>
   <g id="patch_256">
    <path clip-path="url(#p564e263f7d)" d="M 427.887467 192.24 
L 428.98512 192.24 
L 428.98512 117.396 
L 427.887467 117.396 
z
" style="fill:#871f78;opacity:0.35;"/>
   </g>
   <g id="patch_257">
    <path clip-path="url(#p564e263f7d)" d="M 429.259534 192.24 
L 430.357187 192.24 
L 430.357187 117.396 
L 429.259534 117.396 
z
" style="fill:#871f78;opacity:0.35;"/>
   </g>
   <g id="patch_258">
    <path clip-path="url(#p564e263f7d)" d="M 430.6316 192.24 
L 431.729254 192.24 
L 431.729254 34.236 
L 430.6316 34.236 
z
" style="fill:#871f78;opacity:0.35;"/>
   </g>
   <g id="patch_259">
    <path clip-path="url(#p564e263f7d)" d="M 432.003667 192.24 
L 433.101321 192.24 
L 433.101321 67.5 
L 432.003667 67.5 
z
" style="fill:#871f78;opacity:0.35;"/>
   </g>
   <g id="patch_260">
    <path clip-path="url(#p564e263f7d)" d="M 433.375734 192.24 
L 434.473388 192.24 
L 434.473388 75.816 
L 433.375734 75.816 
z
" style="fill:#871f78;opacity:0.35;"/>
   </g>
   <g id="patch_261">
    <path clip-path="url(#p564e263f7d)" d="M 434.747801 192.24 
L 435.845455 192.24 
L 435.845455 125.712 
L 434.747801 125.712 
z
" style="fill:#871f78;opacity:0.35;"/>
   </g>
   <g id="line2d_20">
    <path clip-path="url(#p564e263f7d)" d="M 89.535774 189.864 
L 90.90784 191.052 
L 95.024041 191.052 
L 96.396108 192.24 
L 97.768175 192.24 
L 100.512309 187.488 
L 101.884375 187.488 
L 103.256442 185.112 
L 104.628509 180.36 
L 107.372643 177.984 
L 108.74471 174.42 
L 110.116777 175.608 
L 111.488844 174.42 
L 114.232977 176.796 
L 116.977111 174.42 
L 118.349178 174.42 
L 119.721245 175.608 
L 121.093312 175.608 
L 122.465379 174.42 
L 123.837446 177.984 
L 125.209512 176.796 
L 126.581579 179.172 
L 127.953646 185.112 
L 129.325713 185.112 
L 130.69778 183.924 
L 132.069847 186.3 
L 133.441914 186.3 
L 134.813981 189.864 
L 136.186047 187.488 
L 138.930181 187.488 
L 140.302248 191.052 
L 143.046382 191.052 
L 144.418449 189.864 
L 145.790516 192.24 
L 148.534649 192.24 
L 152.65085 188.676 
L 154.022917 189.864 
L 155.394984 188.676 
L 159.511184 188.676 
L 160.883251 187.488 
L 162.255318 187.488 
L 163.627385 185.112 
L 164.999452 186.3 
L 166.371519 186.3 
L 167.743586 185.112 
L 169.115653 185.112 
L 170.48772 186.3 
L 171.859786 186.3 
L 173.231853 189.864 
L 174.60392 188.676 
L 175.975987 186.3 
L 177.348054 188.676 
L 178.720121 187.488 
L 180.092188 187.488 
L 182.836321 185.112 
L 185.580455 187.488 
L 186.952522 185.112 
L 188.324589 185.112 
L 189.696656 183.924 
L 191.068723 183.924 
L 192.44079 182.736 
L 193.812857 182.736 
L 196.55699 185.112 
L 197.929057 182.736 
L 199.301124 182.736 
L 200.673191 185.112 
L 202.045258 185.112 
L 203.417325 183.924 
L 206.161458 183.924 
L 207.533525 187.488 
L 208.905592 189.864 
L 211.649726 189.864 
L 213.021793 192.24 
L 219.882127 192.24 
L 221.254194 193.428 
L 222.626261 192.24 
L 223.998328 192.24 
L 225.370395 193.428 
L 226.742462 193.428 
L 228.114529 192.24 
L 233.602796 192.24 
L 236.34693 189.864 
L 237.718997 187.488 
L 239.091064 183.924 
L 240.463131 183.924 
L 241.835197 182.736 
L 243.207264 182.736 
L 244.579331 181.548 
L 245.951398 181.548 
L 247.323465 185.112 
L 248.695532 187.488 
L 252.811732 187.488 
L 254.183799 188.676 
L 255.555866 187.488 
L 256.927933 187.488 
L 258.3 188.676 
L 259.672067 187.488 
L 261.044134 188.676 
L 262.416201 187.488 
L 263.788268 185.112 
L 265.160334 185.112 
L 267.904468 182.736 
L 269.276535 183.924 
L 270.648602 182.736 
L 272.020669 183.924 
L 276.136869 191.052 
L 277.508936 192.24 
L 280.25307 189.864 
L 281.625137 189.864 
L 282.997204 187.488 
L 284.369271 187.488 
L 285.741338 186.3 
L 287.113405 186.3 
L 288.485471 187.488 
L 289.857538 189.864 
L 291.229605 189.864 
L 292.601672 192.24 
L 300.834073 192.24 
L 303.578207 189.864 
L 304.950274 189.864 
L 307.694408 187.488 
L 310.438542 187.488 
L 313.182675 189.864 
L 314.554742 189.864 
L 315.926809 191.052 
L 317.298876 189.864 
L 321.415077 189.864 
L 322.787143 188.676 
L 324.15921 186.3 
L 325.531277 185.112 
L 326.903344 187.488 
L 328.275411 187.488 
L 329.647478 186.3 
L 331.019545 186.3 
L 332.391612 187.488 
L 333.763679 189.864 
L 335.135745 189.864 
L 336.507812 186.3 
L 337.879879 186.3 
L 339.251946 185.112 
L 340.624013 182.736 
L 341.99608 181.548 
L 343.368147 179.172 
L 344.740214 179.172 
L 346.11228 182.736 
L 347.484347 181.548 
L 350.228481 183.924 
L 351.600548 183.924 
L 352.972615 186.3 
L 354.344682 186.3 
L 357.088816 183.924 
L 358.460882 185.112 
L 359.832949 182.736 
L 361.205016 183.924 
L 362.577083 182.736 
L 365.321217 185.112 
L 368.065351 182.736 
L 369.437417 186.3 
L 370.809484 183.924 
L 372.181551 183.924 
L 373.553618 175.608 
L 374.925685 173.232 
L 376.297752 175.608 
L 377.669819 176.796 
L 379.041886 175.608 
L 380.413953 177.984 
L 381.786019 177.984 
L 383.158086 183.924 
L 384.530153 180.36 
L 385.90222 180.36 
L 387.274287 175.608 
L 388.646354 175.608 
L 390.018421 173.232 
L 391.390488 172.044 
L 392.762554 172.044 
L 394.134621 173.232 
L 395.506688 173.232 
L 396.878755 175.608 
L 398.250822 174.42 
L 402.367023 174.42 
L 403.73909 175.608 
L 406.483223 173.232 
L 407.85529 166.104 
L 409.227357 162.54 
L 410.599424 143.532 
L 411.971491 138.78 
L 413.343558 131.652 
L 414.715625 122.148 
L 416.087691 115.02 
L 417.459758 118.584 
L 418.831825 115.02 
L 420.203892 130.464 
L 421.575959 123.336 
L 422.948026 124.524 
L 424.320093 119.772 
L 425.69216 120.96 
L 427.064226 116.208 
L 428.436293 115.02 
L 429.80836 110.268 
L 432.552494 93.636 
L 435.296628 93.636 
L 435.296628 93.636 
" style="fill:none;stroke:#871f78;stroke-linecap:round;stroke-width:1.5;"/>
   </g>
   <g id="patch_262">
    <path d="M 63 192.24 
L 453.6 192.24 
" style="fill:none;stroke:#cccccc;stroke-linecap:square;stroke-linejoin:miter;"/>
   </g>
   <g id="text_15">
    <!-- 7-day -->
    <defs>
     <path d="M 14.5 0 
Q 15.671875 7.234375 19.484375 17.390625 
Q 24.03125 29.640625 31.390625 41.71875 
Q 38.765625 53.8125 47.796875 62.5 
L 12.109375 62.5 
L 13.8125 70.609375 
L 59.515625 70.609375 
L 57.859375 62.5 
Q 46.234375 52.296875 37.546875 36.1875 
Q 27.4375 17.578125 23.734375 0 
z
" id="Arial-ItalicMT-55"/>
     <path d="M 4.640625 21.484375 
L 6.5 30.328125 
L 33.453125 30.328125 
L 31.640625 21.484375 
z
" id="Arial-ItalicMT-45"/>
     <path d="M 38.28125 7.515625 
Q 30.71875 -1.171875 22.46875 -1.171875 
Q 15.09375 -1.171875 10.1875 4.265625 
Q 5.28125 9.71875 5.28125 20.0625 
Q 5.28125 29.546875 9.15625 37.375 
Q 13.03125 45.21875 18.859375 49.125 
Q 24.703125 53.03125 30.5625 53.03125 
Q 40.234375 53.03125 45.171875 43.703125 
L 51.03125 71.578125 
L 59.8125 71.578125 
L 44.875 0 
L 36.71875 0 
z
M 14.0625 21.734375 
Q 14.0625 16.3125 15.140625 13.1875 
Q 16.21875 10.0625 18.796875 7.984375 
Q 21.390625 5.90625 25 5.90625 
Q 31 5.90625 35.890625 12.15625 
Q 42.4375 20.453125 42.4375 32.671875 
Q 42.4375 38.8125 39.203125 42.28125 
Q 35.984375 45.75 31.109375 45.75 
Q 27.9375 45.75 25.3125 44.328125 
Q 22.703125 42.921875 20.140625 39.53125 
Q 17.578125 36.140625 15.8125 30.90625 
Q 14.0625 25.6875 14.0625 21.734375 
z
" id="Arial-ItalicMT-100"/>
     <path d="M 38.28125 6.453125 
Q 33.6875 2.484375 29.4375 0.65625 
Q 25.203125 -1.171875 20.359375 -1.171875 
Q 13.1875 -1.171875 8.78125 3.046875 
Q 4.390625 7.28125 4.390625 13.875 
Q 4.390625 18.21875 6.359375 21.5625 
Q 8.34375 24.90625 11.609375 26.921875 
Q 14.890625 28.953125 19.625 29.828125 
Q 22.609375 30.421875 30.9375 30.765625 
Q 39.265625 31.109375 42.875 32.515625 
Q 43.890625 36.140625 43.890625 38.53125 
Q 43.890625 41.609375 41.65625 43.359375 
Q 38.578125 45.796875 32.671875 45.796875 
Q 27.09375 45.796875 23.546875 43.328125 
Q 20.015625 40.875 18.40625 36.328125 
L 9.46875 37.109375 
Q 12.203125 44.828125 18.140625 48.921875 
Q 24.078125 53.03125 33.109375 53.03125 
Q 42.71875 53.03125 48.34375 48.4375 
Q 52.640625 45.015625 52.640625 39.546875 
Q 52.640625 35.40625 51.421875 29.9375 
L 48.53125 17.046875 
Q 47.171875 10.890625 47.171875 7.03125 
Q 47.171875 4.59375 48.25 0 
L 39.3125 0 
Q 38.578125 2.546875 38.28125 6.453125 
z
M 41.546875 26.265625 
Q 39.703125 25.53125 37.578125 25.140625 
Q 35.453125 24.75 30.46875 24.3125 
Q 22.75 23.640625 19.578125 22.578125 
Q 16.40625 21.53125 14.796875 19.234375 
Q 13.1875 16.9375 13.1875 14.15625 
Q 13.1875 10.453125 15.75 8.0625 
Q 18.3125 5.671875 23.046875 5.671875 
Q 27.4375 5.671875 31.484375 7.984375 
Q 35.546875 10.296875 37.890625 14.453125 
Q 40.234375 18.609375 41.546875 26.265625 
z
" id="Arial-ItalicMT-97"/>
     <path d="M 0 -20.015625 
L 0.53125 -11.71875 
Q 3.265625 -12.5 5.859375 -12.5 
Q 8.546875 -12.5 10.203125 -11.28125 
Q 12.359375 -9.671875 14.890625 -5.21875 
L 17.71875 -0.140625 
L 9.078125 51.859375 
L 17.78125 51.859375 
L 21.6875 25.640625 
Q 22.859375 17.875 23.6875 10.109375 
L 46.875 51.859375 
L 56.109375 51.859375 
L 23.046875 -6.890625 
Q 18.265625 -15.484375 14.546875 -18.265625 
Q 10.84375 -21.046875 6 -21.046875 
Q 2.9375 -21.046875 0 -20.015625 
z
" id="Arial-ItalicMT-121"/>
    </defs>
    <g style="fill:#871f78;" transform="translate(439.412828 82.941938)scale(0.1 -0.1)">
     <use xlink:href="#Arial-ItalicMT-55"/>
     <use x="55.615234" xlink:href="#Arial-ItalicMT-45"/>
     <use x="88.916016" xlink:href="#Arial-ItalicMT-100"/>
     <use x="144.53125" xlink:href="#Arial-ItalicMT-97"/>
     <use x="200.146484" xlink:href="#Arial-ItalicMT-121"/>
    </g>
    <!-- avg. -->
    <defs>
     <path d="M 16.40625 0 
L 7.90625 51.859375 
L 16.5 51.859375 
L 20.953125 23.296875 
Q 21.6875 18.609375 22.75 8.015625 
Q 25.296875 13.53125 29.25 20.65625 
L 46.578125 51.859375 
L 55.90625 51.859375 
L 26.21875 0 
z
" id="Arial-ItalicMT-118"/>
     <path d="M 2.828125 -4.6875 
L 11.765625 -5.515625 
Q 11.671875 -8.546875 12.5 -10.0625 
Q 13.328125 -11.578125 15.140625 -12.40625 
Q 17.53125 -13.484375 21.34375 -13.484375 
Q 29.34375 -13.484375 32.859375 -9.328125 
Q 35.15625 -6.546875 37.109375 2.78125 
L 37.984375 6.984375 
Q 31.109375 0 23.34375 0 
Q 15.484375 0 10.1875 5.78125 
Q 4.890625 11.578125 4.890625 22.171875 
Q 4.890625 30.90625 9.0625 38.234375 
Q 13.234375 45.5625 18.984375 49.296875 
Q 24.75 53.03125 30.859375 53.03125 
Q 41.0625 53.03125 46.578125 43.359375 
L 48.34375 51.859375 
L 56.453125 51.859375 
L 46 1.8125 
Q 44.28125 -6.453125 41.5 -11.0625 
Q 38.71875 -15.671875 33.765625 -18.203125 
Q 28.8125 -20.75 22.3125 -20.75 
Q 16.0625 -20.75 11.546875 -19.140625 
Q 7.03125 -17.53125 4.8125 -14.421875 
Q 2.59375 -11.328125 2.59375 -7.328125 
Q 2.59375 -6.109375 2.828125 -4.6875 
z
M 13.875 22.953125 
Q 13.875 17.625 14.890625 14.9375 
Q 16.359375 11.1875 19.0625 9.203125 
Q 21.78125 7.234375 25.09375 7.234375 
Q 29.4375 7.234375 33.734375 10.28125 
Q 38.03125 13.328125 40.6875 19.71875 
Q 43.359375 26.125 43.359375 31.9375 
Q 43.359375 38.328125 39.8125 42.109375 
Q 36.28125 45.90625 31.0625 45.90625 
Q 27.828125 45.90625 24.796875 44.171875 
Q 21.78125 42.4375 19.15625 38.890625 
Q 16.546875 35.359375 15.203125 30.421875 
Q 13.875 25.484375 13.875 22.953125 
z
" id="Arial-ItalicMT-103"/>
     <path d="M 5.765625 0 
L 7.859375 10.015625 
L 17.875 10.015625 
L 15.71875 0 
z
" id="Arial-ItalicMT-46"/>
    </defs>
    <g style="fill:#871f78;" transform="translate(439.412828 93.636)scale(0.1 -0.1)">
     <use xlink:href="#Arial-ItalicMT-97"/>
     <use x="55.615234" xlink:href="#Arial-ItalicMT-118"/>
     <use x="105.615234" xlink:href="#Arial-ItalicMT-103"/>
     <use x="161.230469" xlink:href="#Arial-ItalicMT-46"/>
    </g>
   </g>
  </g>
 </g>
 <defs>
  <clipPath id="p564e263f7d">
   <rect height="166.32" width="390.6" x="63" y="25.92"/>
  </clipPath>
 </defs>
</svg>
