<?xml version="1.0" encoding="utf-8" standalone="no"?>
<!DOCTYPE svg PUBLIC "-//W3C//DTD SVG 1.1//EN"
  "http://www.w3.org/Graphics/SVG/1.1/DTD/svg11.dtd">
<!-- Created with matplotlib (https://matplotlib.org/) -->
<svg height="216pt" version="1.1" viewBox="0 0 504 216" width="504pt" xmlns="http://www.w3.org/2000/svg" xmlns:xlink="http://www.w3.org/1999/xlink">
 <defs>
  <style type="text/css">
*{stroke-linecap:butt;stroke-linejoin:round;}
  </style>
 </defs>
 <g id="figure_1">
  <g id="patch_1">
   <path d="M 0 216 
L 504 216 
L 504 0 
L 0 0 
z
" style="fill:#ffffff;"/>
  </g>
  <g id="axes_1">
   <g id="patch_2">
    <path d="M 63 192.24 
L 453.6 192.24 
L 453.6 25.92 
L 63 25.92 
z
" style="fill:#ffffff;"/>
   </g>
   <g id="matplotlib.axis_1">
    <g id="xtick_1">
     <g id="line2d_1"/>
     <g id="text_1">
      <!-- Apr -->
      <defs>
       <path d="M 34.1875 63.1875 
L 20.796875 26.90625 
L 47.609375 26.90625 
z
M 28.609375 72.90625 
L 39.796875 72.90625 
L 67.578125 0 
L 57.328125 0 
L 50.6875 18.703125 
L 17.828125 18.703125 
L 11.1875 0 
L 0.78125 0 
z
" id="DejaVuSans-65"/>
       <path d="M 18.109375 8.203125 
L 18.109375 -20.796875 
L 9.078125 -20.796875 
L 9.078125 54.6875 
L 18.109375 54.6875 
L 18.109375 46.390625 
Q 20.953125 51.265625 25.265625 53.625 
Q 29.59375 56 35.59375 56 
Q 45.5625 56 51.78125 48.09375 
Q 58.015625 40.1875 58.015625 27.296875 
Q 58.015625 14.40625 51.78125 6.484375 
Q 45.5625 -1.421875 35.59375 -1.421875 
Q 29.59375 -1.421875 25.265625 0.953125 
Q 20.953125 3.328125 18.109375 8.203125 
z
M 48.6875 27.296875 
Q 48.6875 37.203125 44.609375 42.84375 
Q 40.53125 48.484375 33.40625 48.484375 
Q 26.265625 48.484375 22.1875 42.84375 
Q 18.109375 37.203125 18.109375 27.296875 
Q 18.109375 17.390625 22.1875 11.75 
Q 26.265625 6.109375 33.40625 6.109375 
Q 40.53125 6.109375 44.609375 11.75 
Q 48.6875 17.390625 48.6875 27.296875 
z
" id="DejaVuSans-112"/>
       <path d="M 41.109375 46.296875 
Q 39.59375 47.171875 37.8125 47.578125 
Q 36.03125 48 33.890625 48 
Q 26.265625 48 22.1875 43.046875 
Q 18.109375 38.09375 18.109375 28.8125 
L 18.109375 0 
L 9.078125 0 
L 9.078125 54.6875 
L 18.109375 54.6875 
L 18.109375 46.1875 
Q 20.953125 51.171875 25.484375 53.578125 
Q 30.03125 56 36.53125 56 
Q 37.453125 56 38.578125 55.875 
Q 39.703125 55.765625 41.0625 55.515625 
z
" id="DejaVuSans-114"/>
      </defs>
      <g style="fill:#871f78;" transform="translate(94.534406 203.338437)scale(0.1 -0.1)">
       <use xlink:href="#DejaVuSans-65"/>
       <use x="68.408203" xlink:href="#DejaVuSans-112"/>
       <use x="131.884766" xlink:href="#DejaVuSans-114"/>
      </g>
     </g>
    </g>
    <g id="xtick_2">
     <g id="line2d_2"/>
     <g id="text_2">
      <!-- May -->
      <defs>
       <path d="M 9.8125 72.90625 
L 24.515625 72.90625 
L 43.109375 23.296875 
L 61.8125 72.90625 
L 76.515625 72.90625 
L 76.515625 0 
L 66.890625 0 
L 66.890625 64.015625 
L 48.09375 14.015625 
L 38.1875 14.015625 
L 19.390625 64.015625 
L 19.390625 0 
L 9.8125 0 
z
" id="DejaVuSans-77"/>
       <path d="M 34.28125 27.484375 
Q 23.390625 27.484375 19.1875 25 
Q 14.984375 22.515625 14.984375 16.5 
Q 14.984375 11.71875 18.140625 8.90625 
Q 21.296875 6.109375 26.703125 6.109375 
Q 34.1875 6.109375 38.703125 11.40625 
Q 43.21875 16.703125 43.21875 25.484375 
L 43.21875 27.484375 
z
M 52.203125 31.203125 
L 52.203125 0 
L 43.21875 0 
L 43.21875 8.296875 
Q 40.140625 3.328125 35.546875 0.953125 
Q 30.953125 -1.421875 24.3125 -1.421875 
Q 15.921875 -1.421875 10.953125 3.296875 
Q 6 8.015625 6 15.921875 
Q 6 25.140625 12.171875 29.828125 
Q 18.359375 34.515625 30.609375 34.515625 
L 43.21875 34.515625 
L 43.21875 35.40625 
Q 43.21875 41.609375 39.140625 45 
Q 35.0625 48.390625 27.6875 48.390625 
Q 23 48.390625 18.546875 47.265625 
Q 14.109375 46.140625 10.015625 43.890625 
L 10.015625 52.203125 
Q 14.9375 54.109375 19.578125 55.046875 
Q 24.21875 56 28.609375 56 
Q 40.484375 56 46.34375 49.84375 
Q 52.203125 43.703125 52.203125 31.203125 
z
" id="DejaVuSans-97"/>
       <path d="M 32.171875 -5.078125 
Q 28.375 -14.84375 24.75 -17.8125 
Q 21.140625 -20.796875 15.09375 -20.796875 
L 7.90625 -20.796875 
L 7.90625 -13.28125 
L 13.1875 -13.28125 
Q 16.890625 -13.28125 18.9375 -11.515625 
Q 21 -9.765625 23.484375 -3.21875 
L 25.09375 0.875 
L 2.984375 54.6875 
L 12.5 54.6875 
L 29.59375 11.921875 
L 46.6875 54.6875 
L 56.203125 54.6875 
z
" id="DejaVuSans-121"/>
      </defs>
      <g style="fill:#871f78;" transform="translate(136.54144 203.338437)scale(0.1 -0.1)">
       <use xlink:href="#DejaVuSans-77"/>
       <use x="86.279297" xlink:href="#DejaVuSans-97"/>
       <use x="147.558594" xlink:href="#DejaVuSans-121"/>
      </g>
     </g>
    </g>
    <g id="xtick_3">
     <g id="line2d_3"/>
     <g id="text_3">
      <!-- Jun -->
      <defs>
       <path d="M 9.8125 72.90625 
L 19.671875 72.90625 
L 19.671875 5.078125 
Q 19.671875 -8.109375 14.671875 -14.0625 
Q 9.671875 -20.015625 -1.421875 -20.015625 
L -5.171875 -20.015625 
L -5.171875 -11.71875 
L -2.09375 -11.71875 
Q 4.4375 -11.71875 7.125 -8.046875 
Q 9.8125 -4.390625 9.8125 5.078125 
z
" id="DejaVuSans-74"/>
       <path d="M 8.5 21.578125 
L 8.5 54.6875 
L 17.484375 54.6875 
L 17.484375 21.921875 
Q 17.484375 14.15625 20.5 10.265625 
Q 23.53125 6.390625 29.59375 6.390625 
Q 36.859375 6.390625 41.078125 11.03125 
Q 45.3125 15.671875 45.3125 23.6875 
L 45.3125 54.6875 
L 54.296875 54.6875 
L 54.296875 0 
L 45.3125 0 
L 45.3125 8.40625 
Q 42.046875 3.421875 37.71875 1 
Q 33.40625 -1.421875 27.6875 -1.421875 
Q 18.265625 -1.421875 13.375 4.4375 
Q 8.5 10.296875 8.5 21.578125 
z
M 31.109375 56 
z
" id="DejaVuSans-117"/>
       <path d="M 54.890625 33.015625 
L 54.890625 0 
L 45.90625 0 
L 45.90625 32.71875 
Q 45.90625 40.484375 42.875 44.328125 
Q 39.84375 48.1875 33.796875 48.1875 
Q 26.515625 48.1875 22.3125 43.546875 
Q 18.109375 38.921875 18.109375 30.90625 
L 18.109375 0 
L 9.078125 0 
L 9.078125 54.6875 
L 18.109375 54.6875 
L 18.109375 46.1875 
Q 21.34375 51.125 25.703125 53.5625 
Q 30.078125 56 35.796875 56 
Q 45.21875 56 50.046875 50.171875 
Q 54.890625 44.34375 54.890625 33.015625 
z
" id="DejaVuSans-110"/>
      </defs>
      <g style="fill:#871f78;" transform="translate(184.217457 203.338437)scale(0.1 -0.1)">
       <use xlink:href="#DejaVuSans-74"/>
       <use x="29.492188" xlink:href="#DejaVuSans-117"/>
       <use x="92.871094" xlink:href="#DejaVuSans-110"/>
      </g>
     </g>
    </g>
    <g id="xtick_4">
     <g id="line2d_4"/>
     <g id="text_4">
      <!-- Jul -->
      <defs>
       <path d="M 9.421875 75.984375 
L 18.40625 75.984375 
L 18.40625 0 
L 9.421875 0 
z
" id="DejaVuSans-108"/>
      </defs>
      <g style="fill:#871f78;" transform="translate(229.691679 203.338437)scale(0.1 -0.1)">
       <use xlink:href="#DejaVuSans-74"/>
       <use x="29.492188" xlink:href="#DejaVuSans-117"/>
       <use x="92.871094" xlink:href="#DejaVuSans-108"/>
      </g>
     </g>
    </g>
    <g id="xtick_5">
     <g id="line2d_5"/>
     <g id="text_5">
      <!-- Aug -->
      <defs>
       <path d="M 45.40625 27.984375 
Q 45.40625 37.75 41.375 43.109375 
Q 37.359375 48.484375 30.078125 48.484375 
Q 22.859375 48.484375 18.828125 43.109375 
Q 14.796875 37.75 14.796875 27.984375 
Q 14.796875 18.265625 18.828125 12.890625 
Q 22.859375 7.515625 30.078125 7.515625 
Q 37.359375 7.515625 41.375 12.890625 
Q 45.40625 18.265625 45.40625 27.984375 
z
M 54.390625 6.78125 
Q 54.390625 -7.171875 48.1875 -13.984375 
Q 42 -20.796875 29.203125 -20.796875 
Q 24.46875 -20.796875 20.265625 -20.09375 
Q 16.0625 -19.390625 12.109375 -17.921875 
L 12.109375 -9.1875 
Q 16.0625 -11.328125 19.921875 -12.34375 
Q 23.78125 -13.375 27.78125 -13.375 
Q 36.625 -13.375 41.015625 -8.765625 
Q 45.40625 -4.15625 45.40625 5.171875 
L 45.40625 9.625 
Q 42.625 4.78125 38.28125 2.390625 
Q 33.9375 0 27.875 0 
Q 17.828125 0 11.671875 7.65625 
Q 5.515625 15.328125 5.515625 27.984375 
Q 5.515625 40.671875 11.671875 48.328125 
Q 17.828125 56 27.875 56 
Q 33.9375 56 38.28125 53.609375 
Q 42.625 51.21875 45.40625 46.390625 
L 45.40625 54.6875 
L 54.390625 54.6875 
z
" id="DejaVuSans-103"/>
      </defs>
      <g style="fill:#871f78;" transform="translate(271.112228 203.338437)scale(0.1 -0.1)">
       <use xlink:href="#DejaVuSans-65"/>
       <use x="68.408203" xlink:href="#DejaVuSans-117"/>
       <use x="131.787109" xlink:href="#DejaVuSans-103"/>
      </g>
     </g>
    </g>
    <g id="xtick_6">
     <g id="line2d_6"/>
     <g id="text_6">
      <!-- Sep -->
      <defs>
       <path d="M 53.515625 70.515625 
L 53.515625 60.890625 
Q 47.90625 63.578125 42.921875 64.890625 
Q 37.9375 66.21875 33.296875 66.21875 
Q 25.25 66.21875 20.875 63.09375 
Q 16.5 59.96875 16.5 54.203125 
Q 16.5 49.359375 19.40625 46.890625 
Q 22.3125 44.4375 30.421875 42.921875 
L 36.375 41.703125 
Q 47.40625 39.59375 52.65625 34.296875 
Q 57.90625 29 57.90625 20.125 
Q 57.90625 9.515625 50.796875 4.046875 
Q 43.703125 -1.421875 29.984375 -1.421875 
Q 24.8125 -1.421875 18.96875 -0.25 
Q 13.140625 0.921875 6.890625 3.21875 
L 6.890625 13.375 
Q 12.890625 10.015625 18.65625 8.296875 
Q 24.421875 6.59375 29.984375 6.59375 
Q 38.421875 6.59375 43.015625 9.90625 
Q 47.609375 13.234375 47.609375 19.390625 
Q 47.609375 24.75 44.3125 27.78125 
Q 41.015625 30.8125 33.5 32.328125 
L 27.484375 33.5 
Q 16.453125 35.6875 11.515625 40.375 
Q 6.59375 45.0625 6.59375 53.421875 
Q 6.59375 63.09375 13.40625 68.65625 
Q 20.21875 74.21875 32.171875 74.21875 
Q 37.3125 74.21875 42.625 73.28125 
Q 47.953125 72.359375 53.515625 70.515625 
z
" id="DejaVuSans-83"/>
       <path d="M 56.203125 29.59375 
L 56.203125 25.203125 
L 14.890625 25.203125 
Q 15.484375 15.921875 20.484375 11.0625 
Q 25.484375 6.203125 34.421875 6.203125 
Q 39.59375 6.203125 44.453125 7.46875 
Q 49.3125 8.734375 54.109375 11.28125 
L 54.109375 2.78125 
Q 49.265625 0.734375 44.1875 -0.34375 
Q 39.109375 -1.421875 33.890625 -1.421875 
Q 20.796875 -1.421875 13.15625 6.1875 
Q 5.515625 13.8125 5.515625 26.8125 
Q 5.515625 40.234375 12.765625 48.109375 
Q 20.015625 56 32.328125 56 
Q 43.359375 56 49.78125 48.890625 
Q 56.203125 41.796875 56.203125 29.59375 
z
M 47.21875 32.234375 
Q 47.125 39.59375 43.09375 43.984375 
Q 39.0625 48.390625 32.421875 48.390625 
Q 24.90625 48.390625 20.390625 44.140625 
Q 15.875 39.890625 15.1875 32.171875 
z
" id="DejaVuSans-101"/>
      </defs>
      <g style="fill:#871f78;" transform="translate(316.601527 203.338437)scale(0.1 -0.1)">
       <use xlink:href="#DejaVuSans-83"/>
       <use x="63.476562" xlink:href="#DejaVuSans-101"/>
       <use x="125" xlink:href="#DejaVuSans-112"/>
      </g>
     </g>
    </g>
    <g id="xtick_7">
     <g id="line2d_7"/>
     <g id="text_7">
      <!-- Oct -->
      <defs>
       <path d="M 39.40625 66.21875 
Q 28.65625 66.21875 22.328125 58.203125 
Q 16.015625 50.203125 16.015625 36.375 
Q 16.015625 22.609375 22.328125 14.59375 
Q 28.65625 6.59375 39.40625 6.59375 
Q 50.140625 6.59375 56.421875 14.59375 
Q 62.703125 22.609375 62.703125 36.375 
Q 62.703125 50.203125 56.421875 58.203125 
Q 50.140625 66.21875 39.40625 66.21875 
z
M 39.40625 74.21875 
Q 54.734375 74.21875 63.90625 63.9375 
Q 73.09375 53.65625 73.09375 36.375 
Q 73.09375 19.140625 63.90625 8.859375 
Q 54.734375 -1.421875 39.40625 -1.421875 
Q 24.03125 -1.421875 14.8125 8.828125 
Q 5.609375 19.09375 5.609375 36.375 
Q 5.609375 53.65625 14.8125 63.9375 
Q 24.03125 74.21875 39.40625 74.21875 
z
" id="DejaVuSans-79"/>
       <path d="M 48.78125 52.59375 
L 48.78125 44.1875 
Q 44.96875 46.296875 41.140625 47.34375 
Q 37.3125 48.390625 33.40625 48.390625 
Q 24.65625 48.390625 19.8125 42.84375 
Q 14.984375 37.3125 14.984375 27.296875 
Q 14.984375 17.28125 19.8125 11.734375 
Q 24.65625 6.203125 33.40625 6.203125 
Q 37.3125 6.203125 41.140625 7.25 
Q 44.96875 8.296875 48.78125 10.40625 
L 48.78125 2.09375 
Q 45.015625 0.34375 40.984375 -0.53125 
Q 36.96875 -1.421875 32.421875 -1.421875 
Q 20.0625 -1.421875 12.78125 6.34375 
Q 5.515625 14.109375 5.515625 27.296875 
Q 5.515625 40.671875 12.859375 48.328125 
Q 20.21875 56 33.015625 56 
Q 37.15625 56 41.109375 55.140625 
Q 45.0625 54.296875 48.78125 52.59375 
z
" id="DejaVuSans-99"/>
       <path d="M 18.3125 70.21875 
L 18.3125 54.6875 
L 36.8125 54.6875 
L 36.8125 47.703125 
L 18.3125 47.703125 
L 18.3125 18.015625 
Q 18.3125 11.328125 20.140625 9.421875 
Q 21.96875 7.515625 27.59375 7.515625 
L 36.8125 7.515625 
L 36.8125 0 
L 27.59375 0 
Q 17.1875 0 13.234375 3.875 
Q 9.28125 7.765625 9.28125 18.015625 
L 9.28125 47.703125 
L 2.6875 47.703125 
L 2.6875 54.6875 
L 9.28125 54.6875 
L 9.28125 70.21875 
z
" id="DejaVuSans-116"/>
      </defs>
      <g style="fill:#871f78;" transform="translate(361.075748 203.338437)scale(0.1 -0.1)">
       <use xlink:href="#DejaVuSans-79"/>
       <use x="78.710938" xlink:href="#DejaVuSans-99"/>
       <use x="133.691406" xlink:href="#DejaVuSans-116"/>
      </g>
     </g>
    </g>
    <g id="xtick_8">
     <g id="line2d_8"/>
     <g id="text_8">
      <!-- Nov -->
      <defs>
       <path d="M 9.8125 72.90625 
L 23.09375 72.90625 
L 55.421875 11.921875 
L 55.421875 72.90625 
L 64.984375 72.90625 
L 64.984375 0 
L 51.703125 0 
L 19.390625 60.984375 
L 19.390625 0 
L 9.8125 0 
z
" id="DejaVuSans-78"/>
       <path d="M 30.609375 48.390625 
Q 23.390625 48.390625 19.1875 42.75 
Q 14.984375 37.109375 14.984375 27.296875 
Q 14.984375 17.484375 19.15625 11.84375 
Q 23.34375 6.203125 30.609375 6.203125 
Q 37.796875 6.203125 41.984375 11.859375 
Q 46.1875 17.53125 46.1875 27.296875 
Q 46.1875 37.015625 41.984375 42.703125 
Q 37.796875 48.390625 30.609375 48.390625 
z
M 30.609375 56 
Q 42.328125 56 49.015625 48.375 
Q 55.71875 40.765625 55.71875 27.296875 
Q 55.71875 13.875 49.015625 6.21875 
Q 42.328125 -1.421875 30.609375 -1.421875 
Q 18.84375 -1.421875 12.171875 6.21875 
Q 5.515625 13.875 5.515625 27.296875 
Q 5.515625 40.765625 12.171875 48.375 
Q 18.84375 56 30.609375 56 
z
" id="DejaVuSans-111"/>
       <path d="M 2.984375 54.6875 
L 12.5 54.6875 
L 29.59375 8.796875 
L 46.6875 54.6875 
L 56.203125 54.6875 
L 35.6875 0 
L 23.484375 0 
z
" id="DejaVuSans-118"/>
      </defs>
      <g style="fill:#871f78;" transform="translate(405.112703 203.338437)scale(0.1 -0.1)">
       <use xlink:href="#DejaVuSans-78"/>
       <use x="74.804688" xlink:href="#DejaVuSans-111"/>
       <use x="135.986328" xlink:href="#DejaVuSans-118"/>
      </g>
     </g>
    </g>
   </g>
   <g id="matplotlib.axis_2">
    <g id="ytick_1">
     <g id="line2d_9">
      <path clip-path="url(#p44646441c4)" d="M 63 192.24 
L 453.6 192.24 
" style="fill:none;stroke:#cccccc;stroke-linecap:round;stroke-width:0.8;"/>
     </g>
     <g id="line2d_10"/>
     <g id="text_9">
      <!-- 0 -->
      <defs>
       <path d="M 31.78125 66.40625 
Q 24.171875 66.40625 20.328125 58.90625 
Q 16.5 51.421875 16.5 36.375 
Q 16.5 21.390625 20.328125 13.890625 
Q 24.171875 6.390625 31.78125 6.390625 
Q 39.453125 6.390625 43.28125 13.890625 
Q 47.125 21.390625 47.125 36.375 
Q 47.125 51.421875 43.28125 58.90625 
Q 39.453125 66.40625 31.78125 66.40625 
z
M 31.78125 74.21875 
Q 44.046875 74.21875 50.515625 64.515625 
Q 56.984375 54.828125 56.984375 36.375 
Q 56.984375 17.96875 50.515625 8.265625 
Q 44.046875 -1.421875 31.78125 -1.421875 
Q 19.53125 -1.421875 13.0625 8.265625 
Q 6.59375 17.96875 6.59375 36.375 
Q 6.59375 54.828125 13.0625 64.515625 
Q 19.53125 74.21875 31.78125 74.21875 
z
" id="DejaVuSans-48"/>
      </defs>
      <g style="fill:#871f78;" transform="translate(53.1375 196.039219)scale(0.1 -0.1)">
       <use xlink:href="#DejaVuSans-48"/>
      </g>
     </g>
    </g>
    <g id="ytick_2">
     <g id="line2d_11">
      <path clip-path="url(#p44646441c4)" d="M 63 164.52 
L 453.6 164.52 
" style="fill:none;stroke:#cccccc;stroke-linecap:round;stroke-width:0.8;"/>
     </g>
     <g id="line2d_12"/>
     <g id="text_10">
      <!-- 5 -->
      <defs>
       <path d="M 10.796875 72.90625 
L 49.515625 72.90625 
L 49.515625 64.59375 
L 19.828125 64.59375 
L 19.828125 46.734375 
Q 21.96875 47.46875 24.109375 47.828125 
Q 26.265625 48.1875 28.421875 48.1875 
Q 40.625 48.1875 47.75 41.5 
Q 54.890625 34.8125 54.890625 23.390625 
Q 54.890625 11.625 47.5625 5.09375 
Q 40.234375 -1.421875 26.90625 -1.421875 
Q 22.3125 -1.421875 17.546875 -0.640625 
Q 12.796875 0.140625 7.71875 1.703125 
L 7.71875 11.625 
Q 12.109375 9.234375 16.796875 8.0625 
Q 21.484375 6.890625 26.703125 6.890625 
Q 35.15625 6.890625 40.078125 11.328125 
Q 45.015625 15.765625 45.015625 23.390625 
Q 45.015625 31 40.078125 35.4375 
Q 35.15625 39.890625 26.703125 39.890625 
Q 22.75 39.890625 18.8125 39.015625 
Q 14.890625 38.140625 10.796875 36.28125 
z
" id="DejaVuSans-53"/>
      </defs>
      <g style="fill:#871f78;" transform="translate(53.1375 168.319219)scale(0.1 -0.1)">
       <use xlink:href="#DejaVuSans-53"/>
      </g>
     </g>
    </g>
    <g id="ytick_3">
     <g id="line2d_13">
      <path clip-path="url(#p44646441c4)" d="M 63 136.8 
L 453.6 136.8 
" style="fill:none;stroke:#cccccc;stroke-linecap:round;stroke-width:0.8;"/>
     </g>
     <g id="line2d_14"/>
     <g id="text_11">
      <!-- 10 -->
      <defs>
       <path d="M 12.40625 8.296875 
L 28.515625 8.296875 
L 28.515625 63.921875 
L 10.984375 60.40625 
L 10.984375 69.390625 
L 28.421875 72.90625 
L 38.28125 72.90625 
L 38.28125 8.296875 
L 54.390625 8.296875 
L 54.390625 0 
L 12.40625 0 
z
" id="DejaVuSans-49"/>
      </defs>
      <g style="fill:#871f78;" transform="translate(46.775 140.599219)scale(0.1 -0.1)">
       <use xlink:href="#DejaVuSans-49"/>
       <use x="63.623047" xlink:href="#DejaVuSans-48"/>
      </g>
     </g>
    </g>
    <g id="ytick_4">
     <g id="line2d_15">
      <path clip-path="url(#p44646441c4)" d="M 63 109.08 
L 453.6 109.08 
" style="fill:none;stroke:#cccccc;stroke-linecap:round;stroke-width:0.8;"/>
     </g>
     <g id="line2d_16"/>
     <g id="text_12">
      <!-- 15 -->
      <g style="fill:#871f78;" transform="translate(46.775 112.879219)scale(0.1 -0.1)">
       <use xlink:href="#DejaVuSans-49"/>
       <use x="63.623047" xlink:href="#DejaVuSans-53"/>
      </g>
     </g>
    </g>
    <g id="ytick_5">
     <g id="line2d_17">
      <path clip-path="url(#p44646441c4)" d="M 63 81.36 
L 453.6 81.36 
" style="fill:none;stroke:#cccccc;stroke-linecap:round;stroke-width:0.8;"/>
     </g>
     <g id="line2d_18"/>
     <g id="text_13">
      <!-- 20 -->
      <defs>
       <path d="M 19.1875 8.296875 
L 53.609375 8.296875 
L 53.609375 0 
L 7.328125 0 
L 7.328125 8.296875 
Q 12.9375 14.109375 22.625 23.890625 
Q 32.328125 33.6875 34.8125 36.53125 
Q 39.546875 41.84375 41.421875 45.53125 
Q 43.3125 49.21875 43.3125 52.78125 
Q 43.3125 58.59375 39.234375 62.25 
Q 35.15625 65.921875 28.609375 65.921875 
Q 23.96875 65.921875 18.8125 64.3125 
Q 13.671875 62.703125 7.8125 59.421875 
L 7.8125 69.390625 
Q 13.765625 71.78125 18.9375 73 
Q 24.125 74.21875 28.421875 74.21875 
Q 39.75 74.21875 46.484375 68.546875 
Q 53.21875 62.890625 53.21875 53.421875 
Q 53.21875 48.921875 51.53125 44.890625 
Q 49.859375 40.875 45.40625 35.40625 
Q 44.1875 33.984375 37.640625 27.21875 
Q 31.109375 20.453125 19.1875 8.296875 
z
" id="DejaVuSans-50"/>
      </defs>
      <g style="fill:#871f78;" transform="translate(46.775 85.159219)scale(0.1 -0.1)">
       <use xlink:href="#DejaVuSans-50"/>
       <use x="63.623047" xlink:href="#DejaVuSans-48"/>
      </g>
     </g>
    </g>
    <g id="ytick_6">
     <g id="line2d_19">
      <path clip-path="url(#p44646441c4)" d="M 63 53.64 
L 453.6 53.64 
" style="fill:none;stroke:#cccccc;stroke-linecap:round;stroke-width:0.8;"/>
     </g>
     <g id="line2d_20"/>
     <g id="text_14">
      <!-- 25 -->
      <g style="fill:#871f78;" transform="translate(46.775 57.439219)scale(0.1 -0.1)">
       <use xlink:href="#DejaVuSans-50"/>
       <use x="63.623047" xlink:href="#DejaVuSans-53"/>
      </g>
     </g>
    </g>
    <g id="ytick_7">
     <g id="line2d_21">
      <path clip-path="url(#p44646441c4)" d="M 63 25.92 
L 453.6 25.92 
" style="fill:none;stroke:#cccccc;stroke-linecap:round;stroke-width:0.8;"/>
     </g>
     <g id="line2d_22"/>
     <g id="text_15">
      <!-- 30 -->
      <defs>
       <path d="M 40.578125 39.3125 
Q 47.65625 37.796875 51.625 33 
Q 55.609375 28.21875 55.609375 21.1875 
Q 55.609375 10.40625 48.1875 4.484375 
Q 40.765625 -1.421875 27.09375 -1.421875 
Q 22.515625 -1.421875 17.65625 -0.515625 
Q 12.796875 0.390625 7.625 2.203125 
L 7.625 11.71875 
Q 11.71875 9.328125 16.59375 8.109375 
Q 21.484375 6.890625 26.8125 6.890625 
Q 36.078125 6.890625 40.9375 10.546875 
Q 45.796875 14.203125 45.796875 21.1875 
Q 45.796875 27.640625 41.28125 31.265625 
Q 36.765625 34.90625 28.71875 34.90625 
L 20.21875 34.90625 
L 20.21875 43.015625 
L 29.109375 43.015625 
Q 36.375 43.015625 40.234375 45.921875 
Q 44.09375 48.828125 44.09375 54.296875 
Q 44.09375 59.90625 40.109375 62.90625 
Q 36.140625 65.921875 28.71875 65.921875 
Q 24.65625 65.921875 20.015625 65.03125 
Q 15.375 64.15625 9.8125 62.3125 
L 9.8125 71.09375 
Q 15.4375 72.65625 20.34375 73.4375 
Q 25.25 74.21875 29.59375 74.21875 
Q 40.828125 74.21875 47.359375 69.109375 
Q 53.90625 64.015625 53.90625 55.328125 
Q 53.90625 49.265625 50.4375 45.09375 
Q 46.96875 40.921875 40.578125 39.3125 
z
" id="DejaVuSans-51"/>
      </defs>
      <g style="fill:#871f78;" transform="translate(46.775 29.719219)scale(0.1 -0.1)">
       <use xlink:href="#DejaVuSans-51"/>
       <use x="63.623047" xlink:href="#DejaVuSans-48"/>
      </g>
     </g>
    </g>
   </g>
   <g id="patch_3">
    <path clip-path="url(#p44646441c4)" d="M 80.754545 192.24 
L 81.919733 192.24 
L 81.919733 192.24 
L 80.754545 192.24 
z
" style="fill:#871f78;opacity:0.35;"/>
   </g>
   <g id="patch_4">
    <path clip-path="url(#p44646441c4)" d="M 82.21103 192.24 
L 83.376217 192.24 
L 83.376217 192.24 
L 82.21103 192.24 
z
" style="fill:#871f78;opacity:0.35;"/>
   </g>
   <g id="patch_5">
    <path clip-path="url(#p44646441c4)" d="M 83.667514 192.24 
L 84.832702 192.24 
L 84.832702 173.051297 
L 83.667514 173.051297 
z
" style="fill:#871f78;opacity:0.35;"/>
   </g>
   <g id="patch_6">
    <path clip-path="url(#p44646441c4)" d="M 85.123999 192.24 
L 86.289186 192.24 
L 86.289186 173.051297 
L 85.123999 173.051297 
z
" style="fill:#871f78;opacity:0.35;"/>
   </g>
   <g id="patch_7">
    <path clip-path="url(#p44646441c4)" d="M 86.580483 192.24 
L 87.745671 192.24 
L 87.745671 192.24 
L 86.580483 192.24 
z
" style="fill:#871f78;opacity:0.35;"/>
   </g>
   <g id="patch_8">
    <path clip-path="url(#p44646441c4)" d="M 88.036968 192.24 
L 89.202155 192.24 
L 89.202155 192.24 
L 88.036968 192.24 
z
" style="fill:#871f78;opacity:0.35;"/>
   </g>
   <g id="patch_9">
    <path clip-path="url(#p44646441c4)" d="M 89.493452 192.24 
L 90.65864 192.24 
L 90.65864 192.24 
L 89.493452 192.24 
z
" style="fill:#871f78;opacity:0.35;"/>
   </g>
   <g id="patch_10">
    <path clip-path="url(#p44646441c4)" d="M 90.949937 192.24 
L 92.115124 192.24 
L 92.115124 192.24 
L 90.949937 192.24 
z
" style="fill:#871f78;opacity:0.35;"/>
   </g>
   <g id="patch_11">
    <path clip-path="url(#p44646441c4)" d="M 92.406421 192.24 
L 93.571609 192.24 
L 93.571609 192.24 
L 92.406421 192.24 
z
" style="fill:#871f78;opacity:0.35;"/>
   </g>
   <g id="patch_12">
    <path clip-path="url(#p44646441c4)" d="M 93.862906 192.24 
L 95.028093 192.24 
L 95.028093 192.24 
L 93.862906 192.24 
z
" style="fill:#871f78;opacity:0.35;"/>
   </g>
   <g id="patch_13">
    <path clip-path="url(#p44646441c4)" d="M 95.31939 192.24 
L 96.484578 192.24 
L 96.484578 192.24 
L 95.31939 192.24 
z
" style="fill:#871f78;opacity:0.35;"/>
   </g>
   <g id="patch_14">
    <path clip-path="url(#p44646441c4)" d="M 96.775874 192.24 
L 97.941062 192.24 
L 97.941062 192.24 
L 96.775874 192.24 
z
" style="fill:#871f78;opacity:0.35;"/>
   </g>
   <g id="patch_15">
    <path clip-path="url(#p44646441c4)" d="M 98.232359 192.24 
L 99.397546 192.24 
L 99.397546 192.24 
L 98.232359 192.24 
z
" style="fill:#871f78;opacity:0.35;"/>
   </g>
   <g id="patch_16">
    <path clip-path="url(#p44646441c4)" d="M 99.688843 192.24 
L 100.854031 192.24 
L 100.854031 173.051297 
L 99.688843 173.051297 
z
" style="fill:#871f78;opacity:0.35;"/>
   </g>
   <g id="patch_17">
    <path clip-path="url(#p44646441c4)" d="M 101.145328 192.24 
L 102.310515 192.24 
L 102.310515 192.24 
L 101.145328 192.24 
z
" style="fill:#871f78;opacity:0.35;"/>
   </g>
   <g id="patch_18">
    <path clip-path="url(#p44646441c4)" d="M 102.601812 192.24 
L 103.767 192.24 
L 103.767 192.24 
L 102.601812 192.24 
z
" style="fill:#871f78;opacity:0.35;"/>
   </g>
   <g id="patch_19">
    <path clip-path="url(#p44646441c4)" d="M 104.058297 192.24 
L 105.223484 192.24 
L 105.223484 192.24 
L 104.058297 192.24 
z
" style="fill:#871f78;opacity:0.35;"/>
   </g>
   <g id="patch_20">
    <path clip-path="url(#p44646441c4)" d="M 105.514781 192.24 
L 106.679969 192.24 
L 106.679969 192.24 
L 105.514781 192.24 
z
" style="fill:#871f78;opacity:0.35;"/>
   </g>
   <g id="patch_21">
    <path clip-path="url(#p44646441c4)" d="M 106.971266 192.24 
L 108.136453 192.24 
L 108.136453 192.24 
L 106.971266 192.24 
z
" style="fill:#871f78;opacity:0.35;"/>
   </g>
   <g id="patch_22">
    <path clip-path="url(#p44646441c4)" d="M 108.42775 192.24 
L 109.592938 192.24 
L 109.592938 192.24 
L 108.42775 192.24 
z
" style="fill:#871f78;opacity:0.35;"/>
   </g>
   <g id="patch_23">
    <path clip-path="url(#p44646441c4)" d="M 109.884234 192.24 
L 111.049422 192.24 
L 111.049422 192.24 
L 109.884234 192.24 
z
" style="fill:#871f78;opacity:0.35;"/>
   </g>
   <g id="patch_24">
    <path clip-path="url(#p44646441c4)" d="M 111.340719 192.24 
L 112.505906 192.24 
L 112.505906 192.24 
L 111.340719 192.24 
z
" style="fill:#871f78;opacity:0.35;"/>
   </g>
   <g id="patch_25">
    <path clip-path="url(#p44646441c4)" d="M 112.797203 192.24 
L 113.962391 192.24 
L 113.962391 173.051297 
L 112.797203 173.051297 
z
" style="fill:#871f78;opacity:0.35;"/>
   </g>
   <g id="patch_26">
    <path clip-path="url(#p44646441c4)" d="M 114.253688 192.24 
L 115.418875 192.24 
L 115.418875 192.24 
L 114.253688 192.24 
z
" style="fill:#871f78;opacity:0.35;"/>
   </g>
   <g id="patch_27">
    <path clip-path="url(#p44646441c4)" d="M 115.710172 192.24 
L 116.87536 192.24 
L 116.87536 192.24 
L 115.710172 192.24 
z
" style="fill:#871f78;opacity:0.35;"/>
   </g>
   <g id="patch_28">
    <path clip-path="url(#p44646441c4)" d="M 117.166657 192.24 
L 118.331844 192.24 
L 118.331844 192.24 
L 117.166657 192.24 
z
" style="fill:#871f78;opacity:0.35;"/>
   </g>
   <g id="patch_29">
    <path clip-path="url(#p44646441c4)" d="M 118.623141 192.24 
L 119.788329 192.24 
L 119.788329 192.24 
L 118.623141 192.24 
z
" style="fill:#871f78;opacity:0.35;"/>
   </g>
   <g id="patch_30">
    <path clip-path="url(#p44646441c4)" d="M 120.079626 192.24 
L 121.244813 192.24 
L 121.244813 192.24 
L 120.079626 192.24 
z
" style="fill:#871f78;opacity:0.35;"/>
   </g>
   <g id="patch_31">
    <path clip-path="url(#p44646441c4)" d="M 121.53611 192.24 
L 122.701298 192.24 
L 122.701298 192.24 
L 121.53611 192.24 
z
" style="fill:#871f78;opacity:0.35;"/>
   </g>
   <g id="patch_32">
    <path clip-path="url(#p44646441c4)" d="M 122.992595 192.24 
L 124.157782 192.24 
L 124.157782 192.24 
L 122.992595 192.24 
z
" style="fill:#871f78;opacity:0.35;"/>
   </g>
   <g id="patch_33">
    <path clip-path="url(#p44646441c4)" d="M 124.449079 192.24 
L 125.614267 192.24 
L 125.614267 192.24 
L 124.449079 192.24 
z
" style="fill:#871f78;opacity:0.35;"/>
   </g>
   <g id="patch_34">
    <path clip-path="url(#p44646441c4)" d="M 125.905563 192.24 
L 127.070751 192.24 
L 127.070751 192.24 
L 125.905563 192.24 
z
" style="fill:#871f78;opacity:0.35;"/>
   </g>
   <g id="patch_35">
    <path clip-path="url(#p44646441c4)" d="M 127.362048 192.24 
L 128.527235 192.24 
L 128.527235 192.24 
L 127.362048 192.24 
z
" style="fill:#871f78;opacity:0.35;"/>
   </g>
   <g id="patch_36">
    <path clip-path="url(#p44646441c4)" d="M 128.818532 192.24 
L 129.98372 192.24 
L 129.98372 192.24 
L 128.818532 192.24 
z
" style="fill:#871f78;opacity:0.35;"/>
   </g>
   <g id="patch_37">
    <path clip-path="url(#p44646441c4)" d="M 130.275017 192.24 
L 131.440204 192.24 
L 131.440204 192.24 
L 130.275017 192.24 
z
" style="fill:#871f78;opacity:0.35;"/>
   </g>
   <g id="patch_38">
    <path clip-path="url(#p44646441c4)" d="M 131.731501 192.24 
L 132.896689 192.24 
L 132.896689 173.051297 
L 131.731501 173.051297 
z
" style="fill:#871f78;opacity:0.35;"/>
   </g>
   <g id="patch_39">
    <path clip-path="url(#p44646441c4)" d="M 133.187986 192.24 
L 134.353173 192.24 
L 134.353173 192.24 
L 133.187986 192.24 
z
" style="fill:#871f78;opacity:0.35;"/>
   </g>
   <g id="patch_40">
    <path clip-path="url(#p44646441c4)" d="M 134.64447 192.24 
L 135.809658 192.24 
L 135.809658 192.24 
L 134.64447 192.24 
z
" style="fill:#871f78;opacity:0.35;"/>
   </g>
   <g id="patch_41">
    <path clip-path="url(#p44646441c4)" d="M 136.100955 192.24 
L 137.266142 192.24 
L 137.266142 192.24 
L 136.100955 192.24 
z
" style="fill:#871f78;opacity:0.35;"/>
   </g>
   <g id="patch_42">
    <path clip-path="url(#p44646441c4)" d="M 137.557439 192.24 
L 138.722627 192.24 
L 138.722627 192.24 
L 137.557439 192.24 
z
" style="fill:#871f78;opacity:0.35;"/>
   </g>
   <g id="patch_43">
    <path clip-path="url(#p44646441c4)" d="M 139.013923 192.24 
L 140.179111 192.24 
L 140.179111 192.24 
L 139.013923 192.24 
z
" style="fill:#871f78;opacity:0.35;"/>
   </g>
   <g id="patch_44">
    <path clip-path="url(#p44646441c4)" d="M 140.470408 192.24 
L 141.635595 192.24 
L 141.635595 173.051297 
L 140.470408 173.051297 
z
" style="fill:#871f78;opacity:0.35;"/>
   </g>
   <g id="patch_45">
    <path clip-path="url(#p44646441c4)" d="M 141.926892 192.24 
L 143.09208 192.24 
L 143.09208 192.24 
L 141.926892 192.24 
z
" style="fill:#871f78;opacity:0.35;"/>
   </g>
   <g id="patch_46">
    <path clip-path="url(#p44646441c4)" d="M 143.383377 192.24 
L 144.548564 192.24 
L 144.548564 192.24 
L 143.383377 192.24 
z
" style="fill:#871f78;opacity:0.35;"/>
   </g>
   <g id="patch_47">
    <path clip-path="url(#p44646441c4)" d="M 144.839861 192.24 
L 146.005049 192.24 
L 146.005049 192.24 
L 144.839861 192.24 
z
" style="fill:#871f78;opacity:0.35;"/>
   </g>
   <g id="patch_48">
    <path clip-path="url(#p44646441c4)" d="M 146.296346 192.24 
L 147.461533 192.24 
L 147.461533 192.24 
L 146.296346 192.24 
z
" style="fill:#871f78;opacity:0.35;"/>
   </g>
   <g id="patch_49">
    <path clip-path="url(#p44646441c4)" d="M 147.75283 192.24 
L 148.918018 192.24 
L 148.918018 192.24 
L 147.75283 192.24 
z
" style="fill:#871f78;opacity:0.35;"/>
   </g>
   <g id="patch_50">
    <path clip-path="url(#p44646441c4)" d="M 149.209315 192.24 
L 150.374502 192.24 
L 150.374502 192.24 
L 149.209315 192.24 
z
" style="fill:#871f78;opacity:0.35;"/>
   </g>
   <g id="patch_51">
    <path clip-path="url(#p44646441c4)" d="M 150.665799 192.24 
L 151.830987 192.24 
L 151.830987 173.051297 
L 150.665799 173.051297 
z
" style="fill:#871f78;opacity:0.35;"/>
   </g>
   <g id="patch_52">
    <path clip-path="url(#p44646441c4)" d="M 152.122284 192.24 
L 153.287471 192.24 
L 153.287471 192.24 
L 152.122284 192.24 
z
" style="fill:#871f78;opacity:0.35;"/>
   </g>
   <g id="patch_53">
    <path clip-path="url(#p44646441c4)" d="M 153.578768 192.24 
L 154.743956 192.24 
L 154.743956 192.24 
L 153.578768 192.24 
z
" style="fill:#871f78;opacity:0.35;"/>
   </g>
   <g id="patch_54">
    <path clip-path="url(#p44646441c4)" d="M 155.035252 192.24 
L 156.20044 192.24 
L 156.20044 192.24 
L 155.035252 192.24 
z
" style="fill:#871f78;opacity:0.35;"/>
   </g>
   <g id="patch_55">
    <path clip-path="url(#p44646441c4)" d="M 156.491737 192.24 
L 157.656924 192.24 
L 157.656924 192.24 
L 156.491737 192.24 
z
" style="fill:#871f78;opacity:0.35;"/>
   </g>
   <g id="patch_56">
    <path clip-path="url(#p44646441c4)" d="M 157.948221 192.24 
L 159.113409 192.24 
L 159.113409 192.24 
L 157.948221 192.24 
z
" style="fill:#871f78;opacity:0.35;"/>
   </g>
   <g id="patch_57">
    <path clip-path="url(#p44646441c4)" d="M 159.404706 192.24 
L 160.569893 192.24 
L 160.569893 192.24 
L 159.404706 192.24 
z
" style="fill:#871f78;opacity:0.35;"/>
   </g>
   <g id="patch_58">
    <path clip-path="url(#p44646441c4)" d="M 160.86119 192.24 
L 162.026378 192.24 
L 162.026378 192.24 
L 160.86119 192.24 
z
" style="fill:#871f78;opacity:0.35;"/>
   </g>
   <g id="patch_59">
    <path clip-path="url(#p44646441c4)" d="M 162.317675 192.24 
L 163.482862 192.24 
L 163.482862 192.24 
L 162.317675 192.24 
z
" style="fill:#871f78;opacity:0.35;"/>
   </g>
   <g id="patch_60">
    <path clip-path="url(#p44646441c4)" d="M 163.774159 192.24 
L 164.939347 192.24 
L 164.939347 192.24 
L 163.774159 192.24 
z
" style="fill:#871f78;opacity:0.35;"/>
   </g>
   <g id="patch_61">
    <path clip-path="url(#p44646441c4)" d="M 165.230644 192.24 
L 166.395831 192.24 
L 166.395831 192.24 
L 165.230644 192.24 
z
" style="fill:#871f78;opacity:0.35;"/>
   </g>
   <g id="patch_62">
    <path clip-path="url(#p44646441c4)" d="M 166.687128 192.24 
L 167.852316 192.24 
L 167.852316 192.24 
L 166.687128 192.24 
z
" style="fill:#871f78;opacity:0.35;"/>
   </g>
   <g id="patch_63">
    <path clip-path="url(#p44646441c4)" d="M 168.143612 192.24 
L 169.3088 192.24 
L 169.3088 192.24 
L 168.143612 192.24 
z
" style="fill:#871f78;opacity:0.35;"/>
   </g>
   <g id="patch_64">
    <path clip-path="url(#p44646441c4)" d="M 169.600097 192.24 
L 170.765285 192.24 
L 170.765285 192.24 
L 169.600097 192.24 
z
" style="fill:#871f78;opacity:0.35;"/>
   </g>
   <g id="patch_65">
    <path clip-path="url(#p44646441c4)" d="M 171.056581 192.24 
L 172.221769 192.24 
L 172.221769 192.24 
L 171.056581 192.24 
z
" style="fill:#871f78;opacity:0.35;"/>
   </g>
   <g id="patch_66">
    <path clip-path="url(#p44646441c4)" d="M 172.513066 192.24 
L 173.678253 192.24 
L 173.678253 192.24 
L 172.513066 192.24 
z
" style="fill:#871f78;opacity:0.35;"/>
   </g>
   <g id="patch_67">
    <path clip-path="url(#p44646441c4)" d="M 173.96955 192.24 
L 175.134738 192.24 
L 175.134738 192.24 
L 173.96955 192.24 
z
" style="fill:#871f78;opacity:0.35;"/>
   </g>
   <g id="patch_68">
    <path clip-path="url(#p44646441c4)" d="M 175.426035 192.24 
L 176.591222 192.24 
L 176.591222 192.24 
L 175.426035 192.24 
z
" style="fill:#871f78;opacity:0.35;"/>
   </g>
   <g id="patch_69">
    <path clip-path="url(#p44646441c4)" d="M 176.882519 192.24 
L 178.047707 192.24 
L 178.047707 192.24 
L 176.882519 192.24 
z
" style="fill:#871f78;opacity:0.35;"/>
   </g>
   <g id="patch_70">
    <path clip-path="url(#p44646441c4)" d="M 178.339004 192.24 
L 179.504191 192.24 
L 179.504191 192.24 
L 178.339004 192.24 
z
" style="fill:#871f78;opacity:0.35;"/>
   </g>
   <g id="patch_71">
    <path clip-path="url(#p44646441c4)" d="M 179.795488 192.24 
L 180.960676 192.24 
L 180.960676 192.24 
L 179.795488 192.24 
z
" style="fill:#871f78;opacity:0.35;"/>
   </g>
   <g id="patch_72">
    <path clip-path="url(#p44646441c4)" d="M 181.251973 192.24 
L 182.41716 192.24 
L 182.41716 192.24 
L 181.251973 192.24 
z
" style="fill:#871f78;opacity:0.35;"/>
   </g>
   <g id="patch_73">
    <path clip-path="url(#p44646441c4)" d="M 182.708457 192.24 
L 183.873645 192.24 
L 183.873645 192.24 
L 182.708457 192.24 
z
" style="fill:#871f78;opacity:0.35;"/>
   </g>
   <g id="patch_74">
    <path clip-path="url(#p44646441c4)" d="M 184.164941 192.24 
L 185.330129 192.24 
L 185.330129 192.24 
L 184.164941 192.24 
z
" style="fill:#871f78;opacity:0.35;"/>
   </g>
   <g id="patch_75">
    <path clip-path="url(#p44646441c4)" d="M 185.621426 192.24 
L 186.786613 192.24 
L 186.786613 192.24 
L 185.621426 192.24 
z
" style="fill:#871f78;opacity:0.35;"/>
   </g>
   <g id="patch_76">
    <path clip-path="url(#p44646441c4)" d="M 187.07791 192.24 
L 188.243098 192.24 
L 188.243098 192.24 
L 187.07791 192.24 
z
" style="fill:#871f78;opacity:0.35;"/>
   </g>
   <g id="patch_77">
    <path clip-path="url(#p44646441c4)" d="M 188.534395 192.24 
L 189.699582 192.24 
L 189.699582 192.24 
L 188.534395 192.24 
z
" style="fill:#871f78;opacity:0.35;"/>
   </g>
   <g id="patch_78">
    <path clip-path="url(#p44646441c4)" d="M 189.990879 192.24 
L 191.156067 192.24 
L 191.156067 173.051297 
L 189.990879 173.051297 
z
" style="fill:#871f78;opacity:0.35;"/>
   </g>
   <g id="patch_79">
    <path clip-path="url(#p44646441c4)" d="M 191.447364 192.24 
L 192.612551 192.24 
L 192.612551 192.24 
L 191.447364 192.24 
z
" style="fill:#871f78;opacity:0.35;"/>
   </g>
   <g id="patch_80">
    <path clip-path="url(#p44646441c4)" d="M 192.903848 192.24 
L 194.069036 192.24 
L 194.069036 192.24 
L 192.903848 192.24 
z
" style="fill:#871f78;opacity:0.35;"/>
   </g>
   <g id="patch_81">
    <path clip-path="url(#p44646441c4)" d="M 194.360333 192.24 
L 195.52552 192.24 
L 195.52552 192.24 
L 194.360333 192.24 
z
" style="fill:#871f78;opacity:0.35;"/>
   </g>
   <g id="patch_82">
    <path clip-path="url(#p44646441c4)" d="M 195.816817 192.24 
L 196.982005 192.24 
L 196.982005 192.24 
L 195.816817 192.24 
z
" style="fill:#871f78;opacity:0.35;"/>
   </g>
   <g id="patch_83">
    <path clip-path="url(#p44646441c4)" d="M 197.273302 192.24 
L 198.438489 192.24 
L 198.438489 192.24 
L 197.273302 192.24 
z
" style="fill:#871f78;opacity:0.35;"/>
   </g>
   <g id="patch_84">
    <path clip-path="url(#p44646441c4)" d="M 198.729786 192.24 
L 199.894974 192.24 
L 199.894974 192.24 
L 198.729786 192.24 
z
" style="fill:#871f78;opacity:0.35;"/>
   </g>
   <g id="patch_85">
    <path clip-path="url(#p44646441c4)" d="M 200.18627 192.24 
L 201.351458 192.24 
L 201.351458 192.24 
L 200.18627 192.24 
z
" style="fill:#871f78;opacity:0.35;"/>
   </g>
   <g id="patch_86">
    <path clip-path="url(#p44646441c4)" d="M 201.642755 192.24 
L 202.807942 192.24 
L 202.807942 192.24 
L 201.642755 192.24 
z
" style="fill:#871f78;opacity:0.35;"/>
   </g>
   <g id="patch_87">
    <path clip-path="url(#p44646441c4)" d="M 203.099239 192.24 
L 204.264427 192.24 
L 204.264427 192.24 
L 203.099239 192.24 
z
" style="fill:#871f78;opacity:0.35;"/>
   </g>
   <g id="patch_88">
    <path clip-path="url(#p44646441c4)" d="M 204.555724 192.24 
L 205.720911 192.24 
L 205.720911 192.24 
L 204.555724 192.24 
z
" style="fill:#871f78;opacity:0.35;"/>
   </g>
   <g id="patch_89">
    <path clip-path="url(#p44646441c4)" d="M 206.012208 192.24 
L 207.177396 192.24 
L 207.177396 192.24 
L 206.012208 192.24 
z
" style="fill:#871f78;opacity:0.35;"/>
   </g>
   <g id="patch_90">
    <path clip-path="url(#p44646441c4)" d="M 207.468693 192.24 
L 208.63388 192.24 
L 208.63388 192.24 
L 207.468693 192.24 
z
" style="fill:#871f78;opacity:0.35;"/>
   </g>
   <g id="patch_91">
    <path clip-path="url(#p44646441c4)" d="M 208.925177 192.24 
L 210.090365 192.24 
L 210.090365 192.24 
L 208.925177 192.24 
z
" style="fill:#871f78;opacity:0.35;"/>
   </g>
   <g id="patch_92">
    <path clip-path="url(#p44646441c4)" d="M 210.381662 192.24 
L 211.546849 192.24 
L 211.546849 192.24 
L 210.381662 192.24 
z
" style="fill:#871f78;opacity:0.35;"/>
   </g>
   <g id="patch_93">
    <path clip-path="url(#p44646441c4)" d="M 211.838146 192.24 
L 213.003334 192.24 
L 213.003334 192.24 
L 211.838146 192.24 
z
" style="fill:#871f78;opacity:0.35;"/>
   </g>
   <g id="patch_94">
    <path clip-path="url(#p44646441c4)" d="M 213.29463 192.24 
L 214.459818 192.24 
L 214.459818 192.24 
L 213.29463 192.24 
z
" style="fill:#871f78;opacity:0.35;"/>
   </g>
   <g id="patch_95">
    <path clip-path="url(#p44646441c4)" d="M 214.751115 192.24 
L 215.916302 192.24 
L 215.916302 192.24 
L 214.751115 192.24 
z
" style="fill:#871f78;opacity:0.35;"/>
   </g>
   <g id="patch_96">
    <path clip-path="url(#p44646441c4)" d="M 216.207599 192.24 
L 217.372787 192.24 
L 217.372787 192.24 
L 216.207599 192.24 
z
" style="fill:#871f78;opacity:0.35;"/>
   </g>
   <g id="patch_97">
    <path clip-path="url(#p44646441c4)" d="M 217.664084 192.24 
L 218.829271 192.24 
L 218.829271 192.24 
L 217.664084 192.24 
z
" style="fill:#871f78;opacity:0.35;"/>
   </g>
   <g id="patch_98">
    <path clip-path="url(#p44646441c4)" d="M 219.120568 192.24 
L 220.285756 192.24 
L 220.285756 192.24 
L 219.120568 192.24 
z
" style="fill:#871f78;opacity:0.35;"/>
   </g>
   <g id="patch_99">
    <path clip-path="url(#p44646441c4)" d="M 220.577053 192.24 
L 221.74224 192.24 
L 221.74224 192.24 
L 220.577053 192.24 
z
" style="fill:#871f78;opacity:0.35;"/>
   </g>
   <g id="patch_100">
    <path clip-path="url(#p44646441c4)" d="M 222.033537 192.24 
L 223.198725 192.24 
L 223.198725 192.24 
L 222.033537 192.24 
z
" style="fill:#871f78;opacity:0.35;"/>
   </g>
   <g id="patch_101">
    <path clip-path="url(#p44646441c4)" d="M 223.490022 192.24 
L 224.655209 192.24 
L 224.655209 192.24 
L 223.490022 192.24 
z
" style="fill:#871f78;opacity:0.35;"/>
   </g>
   <g id="patch_102">
    <path clip-path="url(#p44646441c4)" d="M 224.946506 192.24 
L 226.111694 192.24 
L 226.111694 192.24 
L 224.946506 192.24 
z
" style="fill:#871f78;opacity:0.35;"/>
   </g>
   <g id="patch_103">
    <path clip-path="url(#p44646441c4)" d="M 226.402991 192.24 
L 227.568178 192.24 
L 227.568178 192.24 
L 226.402991 192.24 
z
" style="fill:#871f78;opacity:0.35;"/>
   </g>
   <g id="patch_104">
    <path clip-path="url(#p44646441c4)" d="M 227.859475 192.24 
L 229.024663 192.24 
L 229.024663 192.24 
L 227.859475 192.24 
z
" style="fill:#871f78;opacity:0.35;"/>
   </g>
   <g id="patch_105">
    <path clip-path="url(#p44646441c4)" d="M 229.315959 192.24 
L 230.481147 192.24 
L 230.481147 192.24 
L 229.315959 192.24 
z
" style="fill:#871f78;opacity:0.35;"/>
   </g>
   <g id="patch_106">
    <path clip-path="url(#p44646441c4)" d="M 230.772444 192.24 
L 231.937631 192.24 
L 231.937631 192.24 
L 230.772444 192.24 
z
" style="fill:#871f78;opacity:0.35;"/>
   </g>
   <g id="patch_107">
    <path clip-path="url(#p44646441c4)" d="M 232.228928 192.24 
L 233.394116 192.24 
L 233.394116 192.24 
L 232.228928 192.24 
z
" style="fill:#871f78;opacity:0.35;"/>
   </g>
   <g id="patch_108">
    <path clip-path="url(#p44646441c4)" d="M 233.685413 192.24 
L 234.8506 192.24 
L 234.8506 192.24 
L 233.685413 192.24 
z
" style="fill:#871f78;opacity:0.35;"/>
   </g>
   <g id="patch_109">
    <path clip-path="url(#p44646441c4)" d="M 235.141897 192.24 
L 236.307085 192.24 
L 236.307085 192.24 
L 235.141897 192.24 
z
" style="fill:#871f78;opacity:0.35;"/>
   </g>
   <g id="patch_110">
    <path clip-path="url(#p44646441c4)" d="M 236.598382 192.24 
L 237.763569 192.24 
L 237.763569 192.24 
L 236.598382 192.24 
z
" style="fill:#871f78;opacity:0.35;"/>
   </g>
   <g id="patch_111">
    <path clip-path="url(#p44646441c4)" d="M 238.054866 192.24 
L 239.220054 192.24 
L 239.220054 192.24 
L 238.054866 192.24 
z
" style="fill:#871f78;opacity:0.35;"/>
   </g>
   <g id="patch_112">
    <path clip-path="url(#p44646441c4)" d="M 239.511351 192.24 
L 240.676538 192.24 
L 240.676538 192.24 
L 239.511351 192.24 
z
" style="fill:#871f78;opacity:0.35;"/>
   </g>
   <g id="patch_113">
    <path clip-path="url(#p44646441c4)" d="M 240.967835 192.24 
L 242.133023 192.24 
L 242.133023 173.051297 
L 240.967835 173.051297 
z
" style="fill:#871f78;opacity:0.35;"/>
   </g>
   <g id="patch_114">
    <path clip-path="url(#p44646441c4)" d="M 242.424319 192.24 
L 243.589507 192.24 
L 243.589507 192.24 
L 242.424319 192.24 
z
" style="fill:#871f78;opacity:0.35;"/>
   </g>
   <g id="patch_115">
    <path clip-path="url(#p44646441c4)" d="M 243.880804 192.24 
L 245.045991 192.24 
L 245.045991 192.24 
L 243.880804 192.24 
z
" style="fill:#871f78;opacity:0.35;"/>
   </g>
   <g id="patch_116">
    <path clip-path="url(#p44646441c4)" d="M 245.337288 192.24 
L 246.502476 192.24 
L 246.502476 192.24 
L 245.337288 192.24 
z
" style="fill:#871f78;opacity:0.35;"/>
   </g>
   <g id="patch_117">
    <path clip-path="url(#p44646441c4)" d="M 246.793773 192.24 
L 247.95896 192.24 
L 247.95896 192.24 
L 246.793773 192.24 
z
" style="fill:#871f78;opacity:0.35;"/>
   </g>
   <g id="patch_118">
    <path clip-path="url(#p44646441c4)" d="M 248.250257 192.24 
L 249.415445 192.24 
L 249.415445 192.24 
L 248.250257 192.24 
z
" style="fill:#871f78;opacity:0.35;"/>
   </g>
   <g id="patch_119">
    <path clip-path="url(#p44646441c4)" d="M 249.706742 192.24 
L 250.871929 192.24 
L 250.871929 192.24 
L 249.706742 192.24 
z
" style="fill:#871f78;opacity:0.35;"/>
   </g>
   <g id="patch_120">
    <path clip-path="url(#p44646441c4)" d="M 251.163226 192.24 
L 252.328414 192.24 
L 252.328414 192.24 
L 251.163226 192.24 
z
" style="fill:#871f78;opacity:0.35;"/>
   </g>
   <g id="patch_121">
    <path clip-path="url(#p44646441c4)" d="M 252.619711 192.24 
L 253.784898 192.24 
L 253.784898 192.24 
L 252.619711 192.24 
z
" style="fill:#871f78;opacity:0.35;"/>
   </g>
   <g id="patch_122">
    <path clip-path="url(#p44646441c4)" d="M 254.076195 192.24 
L 255.241383 192.24 
L 255.241383 192.24 
L 254.076195 192.24 
z
" style="fill:#871f78;opacity:0.35;"/>
   </g>
   <g id="patch_123">
    <path clip-path="url(#p44646441c4)" d="M 255.53268 192.24 
L 256.697867 192.24 
L 256.697867 192.24 
L 255.53268 192.24 
z
" style="fill:#871f78;opacity:0.35;"/>
   </g>
   <g id="patch_124">
    <path clip-path="url(#p44646441c4)" d="M 256.989164 192.24 
L 258.154352 192.24 
L 258.154352 192.24 
L 256.989164 192.24 
z
" style="fill:#871f78;opacity:0.35;"/>
   </g>
   <g id="patch_125">
    <path clip-path="url(#p44646441c4)" d="M 258.445648 192.24 
L 259.610836 192.24 
L 259.610836 192.24 
L 258.445648 192.24 
z
" style="fill:#871f78;opacity:0.35;"/>
   </g>
   <g id="patch_126">
    <path clip-path="url(#p44646441c4)" d="M 259.902133 192.24 
L 261.06732 192.24 
L 261.06732 192.24 
L 259.902133 192.24 
z
" style="fill:#871f78;opacity:0.35;"/>
   </g>
   <g id="patch_127">
    <path clip-path="url(#p44646441c4)" d="M 261.358617 192.24 
L 262.523805 192.24 
L 262.523805 173.051297 
L 261.358617 173.051297 
z
" style="fill:#871f78;opacity:0.35;"/>
   </g>
   <g id="patch_128">
    <path clip-path="url(#p44646441c4)" d="M 262.815102 192.24 
L 263.980289 192.24 
L 263.980289 192.24 
L 262.815102 192.24 
z
" style="fill:#871f78;opacity:0.35;"/>
   </g>
   <g id="patch_129">
    <path clip-path="url(#p44646441c4)" d="M 264.271586 192.24 
L 265.436774 192.24 
L 265.436774 192.24 
L 264.271586 192.24 
z
" style="fill:#871f78;opacity:0.35;"/>
   </g>
   <g id="patch_130">
    <path clip-path="url(#p44646441c4)" d="M 265.728071 192.24 
L 266.893258 192.24 
L 266.893258 192.24 
L 265.728071 192.24 
z
" style="fill:#871f78;opacity:0.35;"/>
   </g>
   <g id="patch_131">
    <path clip-path="url(#p44646441c4)" d="M 267.184555 192.24 
L 268.349743 192.24 
L 268.349743 192.24 
L 267.184555 192.24 
z
" style="fill:#871f78;opacity:0.35;"/>
   </g>
   <g id="patch_132">
    <path clip-path="url(#p44646441c4)" d="M 268.64104 192.24 
L 269.806227 192.24 
L 269.806227 192.24 
L 268.64104 192.24 
z
" style="fill:#871f78;opacity:0.35;"/>
   </g>
   <g id="patch_133">
    <path clip-path="url(#p44646441c4)" d="M 270.097524 192.24 
L 271.262712 192.24 
L 271.262712 134.673892 
L 270.097524 134.673892 
z
" style="fill:#871f78;opacity:0.35;"/>
   </g>
   <g id="patch_134">
    <path clip-path="url(#p44646441c4)" d="M 271.554009 192.24 
L 272.719196 192.24 
L 272.719196 192.24 
L 271.554009 192.24 
z
" style="fill:#871f78;opacity:0.35;"/>
   </g>
   <g id="patch_135">
    <path clip-path="url(#p44646441c4)" d="M 273.010493 192.24 
L 274.175681 192.24 
L 274.175681 173.051297 
L 273.010493 173.051297 
z
" style="fill:#871f78;opacity:0.35;"/>
   </g>
   <g id="patch_136">
    <path clip-path="url(#p44646441c4)" d="M 274.466977 192.24 
L 275.632165 192.24 
L 275.632165 192.24 
L 274.466977 192.24 
z
" style="fill:#871f78;opacity:0.35;"/>
   </g>
   <g id="patch_137">
    <path clip-path="url(#p44646441c4)" d="M 275.923462 192.24 
L 277.088649 192.24 
L 277.088649 192.24 
L 275.923462 192.24 
z
" style="fill:#871f78;opacity:0.35;"/>
   </g>
   <g id="patch_138">
    <path clip-path="url(#p44646441c4)" d="M 277.379946 192.24 
L 278.545134 192.24 
L 278.545134 192.24 
L 277.379946 192.24 
z
" style="fill:#871f78;opacity:0.35;"/>
   </g>
   <g id="patch_139">
    <path clip-path="url(#p44646441c4)" d="M 278.836431 192.24 
L 280.001618 192.24 
L 280.001618 192.24 
L 278.836431 192.24 
z
" style="fill:#871f78;opacity:0.35;"/>
   </g>
   <g id="patch_140">
    <path clip-path="url(#p44646441c4)" d="M 280.292915 192.24 
L 281.458103 192.24 
L 281.458103 173.051297 
L 280.292915 173.051297 
z
" style="fill:#871f78;opacity:0.35;"/>
   </g>
   <g id="patch_141">
    <path clip-path="url(#p44646441c4)" d="M 281.7494 192.24 
L 282.914587 192.24 
L 282.914587 192.24 
L 281.7494 192.24 
z
" style="fill:#871f78;opacity:0.35;"/>
   </g>
   <g id="patch_142">
    <path clip-path="url(#p44646441c4)" d="M 283.205884 192.24 
L 284.371072 192.24 
L 284.371072 192.24 
L 283.205884 192.24 
z
" style="fill:#871f78;opacity:0.35;"/>
   </g>
   <g id="patch_143">
    <path clip-path="url(#p44646441c4)" d="M 284.662369 192.24 
L 285.827556 192.24 
L 285.827556 192.24 
L 284.662369 192.24 
z
" style="fill:#871f78;opacity:0.35;"/>
   </g>
   <g id="patch_144">
    <path clip-path="url(#p44646441c4)" d="M 286.118853 192.24 
L 287.284041 192.24 
L 287.284041 230.617406 
L 286.118853 230.617406 
z
" style="fill:#871f78;opacity:0.35;"/>
   </g>
   <g id="patch_145">
    <path clip-path="url(#p44646441c4)" d="M 287.575337 192.24 
L 288.740525 192.24 
L 288.740525 192.24 
L 287.575337 192.24 
z
" style="fill:#871f78;opacity:0.35;"/>
   </g>
   <g id="patch_146">
    <path clip-path="url(#p44646441c4)" d="M 289.031822 192.24 
L 290.197009 192.24 
L 290.197009 192.24 
L 289.031822 192.24 
z
" style="fill:#871f78;opacity:0.35;"/>
   </g>
   <g id="patch_147">
    <path clip-path="url(#p44646441c4)" d="M 290.488306 192.24 
L 291.653494 192.24 
L 291.653494 192.24 
L 290.488306 192.24 
z
" style="fill:#871f78;opacity:0.35;"/>
   </g>
   <g id="patch_148">
    <path clip-path="url(#p44646441c4)" d="M 291.944791 192.24 
L 293.109978 192.24 
L 293.109978 192.24 
L 291.944791 192.24 
z
" style="fill:#871f78;opacity:0.35;"/>
   </g>
   <g id="patch_149">
    <path clip-path="url(#p44646441c4)" d="M 293.401275 192.24 
L 294.566463 192.24 
L 294.566463 192.24 
L 293.401275 192.24 
z
" style="fill:#871f78;opacity:0.35;"/>
   </g>
   <g id="patch_150">
    <path clip-path="url(#p44646441c4)" d="M 294.85776 192.24 
L 296.022947 192.24 
L 296.022947 173.051297 
L 294.85776 173.051297 
z
" style="fill:#871f78;opacity:0.35;"/>
   </g>
   <g id="patch_151">
    <path clip-path="url(#p44646441c4)" d="M 296.314244 192.24 
L 297.479432 192.24 
L 297.479432 192.24 
L 296.314244 192.24 
z
" style="fill:#871f78;opacity:0.35;"/>
   </g>
   <g id="patch_152">
    <path clip-path="url(#p44646441c4)" d="M 297.770729 192.24 
L 298.935916 192.24 
L 298.935916 173.051297 
L 297.770729 173.051297 
z
" style="fill:#871f78;opacity:0.35;"/>
   </g>
   <g id="patch_153">
    <path clip-path="url(#p44646441c4)" d="M 299.227213 192.24 
L 300.392401 192.24 
L 300.392401 192.24 
L 299.227213 192.24 
z
" style="fill:#871f78;opacity:0.35;"/>
   </g>
   <g id="patch_154">
    <path clip-path="url(#p44646441c4)" d="M 300.683698 192.24 
L 301.848885 192.24 
L 301.848885 173.051297 
L 300.683698 173.051297 
z
" style="fill:#871f78;opacity:0.35;"/>
   </g>
   <g id="patch_155">
    <path clip-path="url(#p44646441c4)" d="M 302.140182 192.24 
L 303.30537 192.24 
L 303.30537 192.24 
L 302.140182 192.24 
z
" style="fill:#871f78;opacity:0.35;"/>
   </g>
   <g id="patch_156">
    <path clip-path="url(#p44646441c4)" d="M 303.596666 192.24 
L 304.761854 192.24 
L 304.761854 173.051297 
L 303.596666 173.051297 
z
" style="fill:#871f78;opacity:0.35;"/>
   </g>
   <g id="patch_157">
    <path clip-path="url(#p44646441c4)" d="M 305.053151 192.24 
L 306.218338 192.24 
L 306.218338 192.24 
L 305.053151 192.24 
z
" style="fill:#871f78;opacity:0.35;"/>
   </g>
   <g id="patch_158">
    <path clip-path="url(#p44646441c4)" d="M 306.509635 192.24 
L 307.674823 192.24 
L 307.674823 192.24 
L 306.509635 192.24 
z
" style="fill:#871f78;opacity:0.35;"/>
   </g>
   <g id="patch_159">
    <path clip-path="url(#p44646441c4)" d="M 307.96612 192.24 
L 309.131307 192.24 
L 309.131307 173.051297 
L 307.96612 173.051297 
z
" style="fill:#871f78;opacity:0.35;"/>
   </g>
   <g id="patch_160">
    <path clip-path="url(#p44646441c4)" d="M 309.422604 192.24 
L 310.587792 192.24 
L 310.587792 173.051297 
L 309.422604 173.051297 
z
" style="fill:#871f78;opacity:0.35;"/>
   </g>
   <g id="patch_161">
    <path clip-path="url(#p44646441c4)" d="M 310.879089 192.24 
L 312.044276 192.24 
L 312.044276 192.24 
L 310.879089 192.24 
z
" style="fill:#871f78;opacity:0.35;"/>
   </g>
   <g id="patch_162">
    <path clip-path="url(#p44646441c4)" d="M 312.335573 192.24 
L 313.500761 192.24 
L 313.500761 192.24 
L 312.335573 192.24 
z
" style="fill:#871f78;opacity:0.35;"/>
   </g>
   <g id="patch_163">
    <path clip-path="url(#p44646441c4)" d="M 313.792058 192.24 
L 314.957245 192.24 
L 314.957245 192.24 
L 313.792058 192.24 
z
" style="fill:#871f78;opacity:0.35;"/>
   </g>
   <g id="patch_164">
    <path clip-path="url(#p44646441c4)" d="M 315.248542 192.24 
L 316.41373 192.24 
L 316.41373 192.24 
L 315.248542 192.24 
z
" style="fill:#871f78;opacity:0.35;"/>
   </g>
   <g id="patch_165">
    <path clip-path="url(#p44646441c4)" d="M 316.705026 192.24 
L 317.870214 192.24 
L 317.870214 192.24 
L 316.705026 192.24 
z
" style="fill:#871f78;opacity:0.35;"/>
   </g>
   <g id="patch_166">
    <path clip-path="url(#p44646441c4)" d="M 318.161511 192.24 
L 319.326698 192.24 
L 319.326698 192.24 
L 318.161511 192.24 
z
" style="fill:#871f78;opacity:0.35;"/>
   </g>
   <g id="patch_167">
    <path clip-path="url(#p44646441c4)" d="M 319.617995 192.24 
L 320.783183 192.24 
L 320.783183 192.24 
L 319.617995 192.24 
z
" style="fill:#871f78;opacity:0.35;"/>
   </g>
   <g id="patch_168">
    <path clip-path="url(#p44646441c4)" d="M 321.07448 192.24 
L 322.239667 192.24 
L 322.239667 192.24 
L 321.07448 192.24 
z
" style="fill:#871f78;opacity:0.35;"/>
   </g>
   <g id="patch_169">
    <path clip-path="url(#p44646441c4)" d="M 322.530964 192.24 
L 323.696152 192.24 
L 323.696152 192.24 
L 322.530964 192.24 
z
" style="fill:#871f78;opacity:0.35;"/>
   </g>
   <g id="patch_170">
    <path clip-path="url(#p44646441c4)" d="M 323.987449 192.24 
L 325.152636 192.24 
L 325.152636 192.24 
L 323.987449 192.24 
z
" style="fill:#871f78;opacity:0.35;"/>
   </g>
   <g id="patch_171">
    <path clip-path="url(#p44646441c4)" d="M 325.443933 192.24 
L 326.609121 192.24 
L 326.609121 192.24 
L 325.443933 192.24 
z
" style="fill:#871f78;opacity:0.35;"/>
   </g>
   <g id="patch_172">
    <path clip-path="url(#p44646441c4)" d="M 326.900418 192.24 
L 328.065605 192.24 
L 328.065605 192.24 
L 326.900418 192.24 
z
" style="fill:#871f78;opacity:0.35;"/>
   </g>
   <g id="patch_173">
    <path clip-path="url(#p44646441c4)" d="M 328.356902 192.24 
L 329.52209 192.24 
L 329.52209 192.24 
L 328.356902 192.24 
z
" style="fill:#871f78;opacity:0.35;"/>
   </g>
   <g id="patch_174">
    <path clip-path="url(#p44646441c4)" d="M 329.813387 192.24 
L 330.978574 192.24 
L 330.978574 192.24 
L 329.813387 192.24 
z
" style="fill:#871f78;opacity:0.35;"/>
   </g>
   <g id="patch_175">
    <path clip-path="url(#p44646441c4)" d="M 331.269871 192.24 
L 332.435059 192.24 
L 332.435059 192.24 
L 331.269871 192.24 
z
" style="fill:#871f78;opacity:0.35;"/>
   </g>
   <g id="patch_176">
    <path clip-path="url(#p44646441c4)" d="M 332.726355 192.24 
L 333.891543 192.24 
L 333.891543 192.24 
L 332.726355 192.24 
z
" style="fill:#871f78;opacity:0.35;"/>
   </g>
   <g id="patch_177">
    <path clip-path="url(#p44646441c4)" d="M 334.18284 192.24 
L 335.348027 192.24 
L 335.348027 173.051297 
L 334.18284 173.051297 
z
" style="fill:#871f78;opacity:0.35;"/>
   </g>
   <g id="patch_178">
    <path clip-path="url(#p44646441c4)" d="M 335.639324 192.24 
L 336.804512 192.24 
L 336.804512 192.24 
L 335.639324 192.24 
z
" style="fill:#871f78;opacity:0.35;"/>
   </g>
   <g id="patch_179">
    <path clip-path="url(#p44646441c4)" d="M 337.095809 192.24 
L 338.260996 192.24 
L 338.260996 192.24 
L 337.095809 192.24 
z
" style="fill:#871f78;opacity:0.35;"/>
   </g>
   <g id="patch_180">
    <path clip-path="url(#p44646441c4)" d="M 338.552293 192.24 
L 339.717481 192.24 
L 339.717481 192.24 
L 338.552293 192.24 
z
" style="fill:#871f78;opacity:0.35;"/>
   </g>
   <g id="patch_181">
    <path clip-path="url(#p44646441c4)" d="M 340.008778 192.24 
L 341.173965 192.24 
L 341.173965 173.051297 
L 340.008778 173.051297 
z
" style="fill:#871f78;opacity:0.35;"/>
   </g>
   <g id="patch_182">
    <path clip-path="url(#p44646441c4)" d="M 341.465262 192.24 
L 342.63045 192.24 
L 342.63045 192.24 
L 341.465262 192.24 
z
" style="fill:#871f78;opacity:0.35;"/>
   </g>
   <g id="patch_183">
    <path clip-path="url(#p44646441c4)" d="M 342.921747 192.24 
L 344.086934 192.24 
L 344.086934 192.24 
L 342.921747 192.24 
z
" style="fill:#871f78;opacity:0.35;"/>
   </g>
   <g id="patch_184">
    <path clip-path="url(#p44646441c4)" d="M 344.378231 192.24 
L 345.543419 192.24 
L 345.543419 192.24 
L 344.378231 192.24 
z
" style="fill:#871f78;opacity:0.35;"/>
   </g>
   <g id="patch_185">
    <path clip-path="url(#p44646441c4)" d="M 345.834715 192.24 
L 346.999903 192.24 
L 346.999903 192.24 
L 345.834715 192.24 
z
" style="fill:#871f78;opacity:0.35;"/>
   </g>
   <g id="patch_186">
    <path clip-path="url(#p44646441c4)" d="M 347.2912 192.24 
L 348.456388 192.24 
L 348.456388 192.24 
L 347.2912 192.24 
z
" style="fill:#871f78;opacity:0.35;"/>
   </g>
   <g id="patch_187">
    <path clip-path="url(#p44646441c4)" d="M 348.747684 192.24 
L 349.912872 192.24 
L 349.912872 192.24 
L 348.747684 192.24 
z
" style="fill:#871f78;opacity:0.35;"/>
   </g>
   <g id="patch_188">
    <path clip-path="url(#p44646441c4)" d="M 350.204169 192.24 
L 351.369356 192.24 
L 351.369356 192.24 
L 350.204169 192.24 
z
" style="fill:#871f78;opacity:0.35;"/>
   </g>
   <g id="patch_189">
    <path clip-path="url(#p44646441c4)" d="M 351.660653 192.24 
L 352.825841 192.24 
L 352.825841 192.24 
L 351.660653 192.24 
z
" style="fill:#871f78;opacity:0.35;"/>
   </g>
   <g id="patch_190">
    <path clip-path="url(#p44646441c4)" d="M 353.117138 192.24 
L 354.282325 192.24 
L 354.282325 173.051297 
L 353.117138 173.051297 
z
" style="fill:#871f78;opacity:0.35;"/>
   </g>
   <g id="patch_191">
    <path clip-path="url(#p44646441c4)" d="M 354.573622 192.24 
L 355.73881 192.24 
L 355.73881 173.051297 
L 354.573622 173.051297 
z
" style="fill:#871f78;opacity:0.35;"/>
   </g>
   <g id="patch_192">
    <path clip-path="url(#p44646441c4)" d="M 356.030107 192.24 
L 357.195294 192.24 
L 357.195294 192.24 
L 356.030107 192.24 
z
" style="fill:#871f78;opacity:0.35;"/>
   </g>
   <g id="patch_193">
    <path clip-path="url(#p44646441c4)" d="M 357.486591 192.24 
L 358.651779 192.24 
L 358.651779 192.24 
L 357.486591 192.24 
z
" style="fill:#871f78;opacity:0.35;"/>
   </g>
   <g id="patch_194">
    <path clip-path="url(#p44646441c4)" d="M 358.943076 192.24 
L 360.108263 192.24 
L 360.108263 192.24 
L 358.943076 192.24 
z
" style="fill:#871f78;opacity:0.35;"/>
   </g>
   <g id="patch_195">
    <path clip-path="url(#p44646441c4)" d="M 360.39956 192.24 
L 361.564748 192.24 
L 361.564748 192.24 
L 360.39956 192.24 
z
" style="fill:#871f78;opacity:0.35;"/>
   </g>
   <g id="patch_196">
    <path clip-path="url(#p44646441c4)" d="M 361.856044 192.24 
L 363.021232 192.24 
L 363.021232 192.24 
L 361.856044 192.24 
z
" style="fill:#871f78;opacity:0.35;"/>
   </g>
   <g id="patch_197">
    <path clip-path="url(#p44646441c4)" d="M 363.312529 192.24 
L 364.477716 192.24 
L 364.477716 173.051297 
L 363.312529 173.051297 
z
" style="fill:#871f78;opacity:0.35;"/>
   </g>
   <g id="patch_198">
    <path clip-path="url(#p44646441c4)" d="M 364.769013 192.24 
L 365.934201 192.24 
L 365.934201 192.24 
L 364.769013 192.24 
z
" style="fill:#871f78;opacity:0.35;"/>
   </g>
   <g id="patch_199">
    <path clip-path="url(#p44646441c4)" d="M 366.225498 192.24 
L 367.390685 192.24 
L 367.390685 192.24 
L 366.225498 192.24 
z
" style="fill:#871f78;opacity:0.35;"/>
   </g>
   <g id="patch_200">
    <path clip-path="url(#p44646441c4)" d="M 367.681982 192.24 
L 368.84717 192.24 
L 368.84717 192.24 
L 367.681982 192.24 
z
" style="fill:#871f78;opacity:0.35;"/>
   </g>
   <g id="patch_201">
    <path clip-path="url(#p44646441c4)" d="M 369.138467 192.24 
L 370.303654 192.24 
L 370.303654 192.24 
L 369.138467 192.24 
z
" style="fill:#871f78;opacity:0.35;"/>
   </g>
   <g id="patch_202">
    <path clip-path="url(#p44646441c4)" d="M 370.594951 192.24 
L 371.760139 192.24 
L 371.760139 192.24 
L 370.594951 192.24 
z
" style="fill:#871f78;opacity:0.35;"/>
   </g>
   <g id="patch_203">
    <path clip-path="url(#p44646441c4)" d="M 372.051436 192.24 
L 373.216623 192.24 
L 373.216623 192.24 
L 372.051436 192.24 
z
" style="fill:#871f78;opacity:0.35;"/>
   </g>
   <g id="patch_204">
    <path clip-path="url(#p44646441c4)" d="M 373.50792 192.24 
L 374.673108 192.24 
L 374.673108 192.24 
L 373.50792 192.24 
z
" style="fill:#871f78;opacity:0.35;"/>
   </g>
   <g id="patch_205">
    <path clip-path="url(#p44646441c4)" d="M 374.964405 192.24 
L 376.129592 192.24 
L 376.129592 192.24 
L 374.964405 192.24 
z
" style="fill:#871f78;opacity:0.35;"/>
   </g>
   <g id="patch_206">
    <path clip-path="url(#p44646441c4)" d="M 376.420889 192.24 
L 377.586077 192.24 
L 377.586077 192.24 
L 376.420889 192.24 
z
" style="fill:#871f78;opacity:0.35;"/>
   </g>
   <g id="patch_207">
    <path clip-path="url(#p44646441c4)" d="M 377.877373 192.24 
L 379.042561 192.24 
L 379.042561 192.24 
L 377.877373 192.24 
z
" style="fill:#871f78;opacity:0.35;"/>
   </g>
   <g id="patch_208">
    <path clip-path="url(#p44646441c4)" d="M 379.333858 192.24 
L 380.499045 192.24 
L 380.499045 192.24 
L 379.333858 192.24 
z
" style="fill:#871f78;opacity:0.35;"/>
   </g>
   <g id="patch_209">
    <path clip-path="url(#p44646441c4)" d="M 380.790342 192.24 
L 381.95553 192.24 
L 381.95553 192.24 
L 380.790342 192.24 
z
" style="fill:#871f78;opacity:0.35;"/>
   </g>
   <g id="patch_210">
    <path clip-path="url(#p44646441c4)" d="M 382.246827 192.24 
L 383.412014 192.24 
L 383.412014 192.24 
L 382.246827 192.24 
z
" style="fill:#871f78;opacity:0.35;"/>
   </g>
   <g id="patch_211">
    <path clip-path="url(#p44646441c4)" d="M 383.703311 192.24 
L 384.868499 192.24 
L 384.868499 192.24 
L 383.703311 192.24 
z
" style="fill:#871f78;opacity:0.35;"/>
   </g>
   <g id="patch_212">
    <path clip-path="url(#p44646441c4)" d="M 385.159796 192.24 
L 386.324983 192.24 
L 386.324983 173.051297 
L 385.159796 173.051297 
z
" style="fill:#871f78;opacity:0.35;"/>
   </g>
   <g id="patch_213">
    <path clip-path="url(#p44646441c4)" d="M 386.61628 192.24 
L 387.781468 192.24 
L 387.781468 173.051297 
L 386.61628 173.051297 
z
" style="fill:#871f78;opacity:0.35;"/>
   </g>
   <g id="patch_214">
    <path clip-path="url(#p44646441c4)" d="M 388.072765 192.24 
L 389.237952 192.24 
L 389.237952 192.24 
L 388.072765 192.24 
z
" style="fill:#871f78;opacity:0.35;"/>
   </g>
   <g id="patch_215">
    <path clip-path="url(#p44646441c4)" d="M 389.529249 192.24 
L 390.694437 192.24 
L 390.694437 192.24 
L 389.529249 192.24 
z
" style="fill:#871f78;opacity:0.35;"/>
   </g>
   <g id="patch_216">
    <path clip-path="url(#p44646441c4)" d="M 390.985733 192.24 
L 392.150921 192.24 
L 392.150921 173.051297 
L 390.985733 173.051297 
z
" style="fill:#871f78;opacity:0.35;"/>
   </g>
   <g id="patch_217">
    <path clip-path="url(#p44646441c4)" d="M 392.442218 192.24 
L 393.607405 192.24 
L 393.607405 192.24 
L 392.442218 192.24 
z
" style="fill:#871f78;opacity:0.35;"/>
   </g>
   <g id="patch_218">
    <path clip-path="url(#p44646441c4)" d="M 393.898702 192.24 
L 395.06389 192.24 
L 395.06389 192.24 
L 393.898702 192.24 
z
" style="fill:#871f78;opacity:0.35;"/>
   </g>
   <g id="patch_219">
    <path clip-path="url(#p44646441c4)" d="M 395.355187 192.24 
L 396.520374 192.24 
L 396.520374 153.862594 
L 395.355187 153.862594 
z
" style="fill:#871f78;opacity:0.35;"/>
   </g>
   <g id="patch_220">
    <path clip-path="url(#p44646441c4)" d="M 396.811671 192.24 
L 397.976859 192.24 
L 397.976859 173.051297 
L 396.811671 173.051297 
z
" style="fill:#871f78;opacity:0.35;"/>
   </g>
   <g id="patch_221">
    <path clip-path="url(#p44646441c4)" d="M 398.268156 192.24 
L 399.433343 192.24 
L 399.433343 192.24 
L 398.268156 192.24 
z
" style="fill:#871f78;opacity:0.35;"/>
   </g>
   <g id="patch_222">
    <path clip-path="url(#p44646441c4)" d="M 399.72464 192.24 
L 400.889828 192.24 
L 400.889828 192.24 
L 399.72464 192.24 
z
" style="fill:#871f78;opacity:0.35;"/>
   </g>
   <g id="patch_223">
    <path clip-path="url(#p44646441c4)" d="M 401.181125 192.24 
L 402.346312 192.24 
L 402.346312 192.24 
L 401.181125 192.24 
z
" style="fill:#871f78;opacity:0.35;"/>
   </g>
   <g id="patch_224">
    <path clip-path="url(#p44646441c4)" d="M 402.637609 192.24 
L 403.802797 192.24 
L 403.802797 173.051297 
L 402.637609 173.051297 
z
" style="fill:#871f78;opacity:0.35;"/>
   </g>
   <g id="patch_225">
    <path clip-path="url(#p44646441c4)" d="M 404.094094 192.24 
L 405.259281 192.24 
L 405.259281 192.24 
L 404.094094 192.24 
z
" style="fill:#871f78;opacity:0.35;"/>
   </g>
   <g id="patch_226">
    <path clip-path="url(#p44646441c4)" d="M 405.550578 192.24 
L 406.715766 192.24 
L 406.715766 173.051297 
L 405.550578 173.051297 
z
" style="fill:#871f78;opacity:0.35;"/>
   </g>
   <g id="patch_227">
    <path clip-path="url(#p44646441c4)" d="M 407.007062 192.24 
L 408.17225 192.24 
L 408.17225 192.24 
L 407.007062 192.24 
z
" style="fill:#871f78;opacity:0.35;"/>
   </g>
   <g id="patch_228">
    <path clip-path="url(#p44646441c4)" d="M 408.463547 192.24 
L 409.628734 192.24 
L 409.628734 192.24 
L 408.463547 192.24 
z
" style="fill:#871f78;opacity:0.35;"/>
   </g>
   <g id="patch_229">
    <path clip-path="url(#p44646441c4)" d="M 409.920031 192.24 
L 411.085219 192.24 
L 411.085219 173.051297 
L 409.920031 173.051297 
z
" style="fill:#871f78;opacity:0.35;"/>
   </g>
   <g id="patch_230">
    <path clip-path="url(#p44646441c4)" d="M 411.376516 192.24 
L 412.541703 192.24 
L 412.541703 192.24 
L 411.376516 192.24 
z
" style="fill:#871f78;opacity:0.35;"/>
   </g>
   <g id="patch_231">
    <path clip-path="url(#p44646441c4)" d="M 412.833 192.24 
L 413.998188 192.24 
L 413.998188 115.485189 
L 412.833 115.485189 
z
" style="fill:#871f78;opacity:0.35;"/>
   </g>
   <g id="patch_232">
    <path clip-path="url(#p44646441c4)" d="M 414.289485 192.24 
L 415.454672 192.24 
L 415.454672 192.24 
L 414.289485 192.24 
z
" style="fill:#871f78;opacity:0.35;"/>
   </g>
   <g id="patch_233">
    <path clip-path="url(#p44646441c4)" d="M 415.745969 192.24 
L 416.911157 192.24 
L 416.911157 192.24 
L 415.745969 192.24 
z
" style="fill:#871f78;opacity:0.35;"/>
   </g>
   <g id="patch_234">
    <path clip-path="url(#p44646441c4)" d="M 417.202454 192.24 
L 418.367641 192.24 
L 418.367641 153.862594 
L 417.202454 153.862594 
z
" style="fill:#871f78;opacity:0.35;"/>
   </g>
   <g id="patch_235">
    <path clip-path="url(#p44646441c4)" d="M 418.658938 192.24 
L 419.824126 192.24 
L 419.824126 192.24 
L 418.658938 192.24 
z
" style="fill:#871f78;opacity:0.35;"/>
   </g>
   <g id="patch_236">
    <path clip-path="url(#p44646441c4)" d="M 420.115422 192.24 
L 421.28061 192.24 
L 421.28061 192.24 
L 420.115422 192.24 
z
" style="fill:#871f78;opacity:0.35;"/>
   </g>
   <g id="patch_237">
    <path clip-path="url(#p44646441c4)" d="M 421.571907 192.24 
L 422.737094 192.24 
L 422.737094 134.673892 
L 421.571907 134.673892 
z
" style="fill:#871f78;opacity:0.35;"/>
   </g>
   <g id="patch_238">
    <path clip-path="url(#p44646441c4)" d="M 423.028391 192.24 
L 424.193579 192.24 
L 424.193579 173.051297 
L 423.028391 173.051297 
z
" style="fill:#871f78;opacity:0.35;"/>
   </g>
   <g id="patch_239">
    <path clip-path="url(#p44646441c4)" d="M 424.484876 192.24 
L 425.650063 192.24 
L 425.650063 96.296486 
L 424.484876 96.296486 
z
" style="fill:#871f78;opacity:0.35;"/>
   </g>
   <g id="patch_240">
    <path clip-path="url(#p44646441c4)" d="M 425.94136 192.24 
L 427.106548 192.24 
L 427.106548 134.673892 
L 425.94136 134.673892 
z
" style="fill:#871f78;opacity:0.35;"/>
   </g>
   <g id="patch_241">
    <path clip-path="url(#p44646441c4)" d="M 427.397845 192.24 
L 428.563032 192.24 
L 428.563032 115.485189 
L 427.397845 115.485189 
z
" style="fill:#871f78;opacity:0.35;"/>
   </g>
   <g id="patch_242">
    <path clip-path="url(#p44646441c4)" d="M 428.854329 192.24 
L 430.019517 192.24 
L 430.019517 77.107783 
L 428.854329 77.107783 
z
" style="fill:#871f78;opacity:0.35;"/>
   </g>
   <g id="patch_243">
    <path clip-path="url(#p44646441c4)" d="M 430.310814 192.24 
L 431.476001 192.24 
L 431.476001 -18.83573 
L 430.310814 -18.83573 
z
" style="fill:#871f78;opacity:0.35;"/>
   </g>
   <g id="patch_244">
    <path clip-path="url(#p44646441c4)" d="M 431.767298 192.24 
L 432.932486 192.24 
L 432.932486 0.352972 
L 431.767298 0.352972 
z
" style="fill:#871f78;opacity:0.35;"/>
   </g>
   <g id="patch_245">
    <path clip-path="url(#p44646441c4)" d="M 433.223783 192.24 
L 434.38897 192.24 
L 434.38897 77.107783 
L 433.223783 77.107783 
z
" style="fill:#871f78;opacity:0.35;"/>
   </g>
   <g id="patch_246">
    <path clip-path="url(#p44646441c4)" d="M 434.680267 192.24 
L 435.845455 192.24 
L 435.845455 153.862594 
L 434.680267 153.862594 
z
" style="fill:#871f78;opacity:0.35;"/>
   </g>
   <g id="line2d_23">
    <path clip-path="url(#p44646441c4)" d="M 90.076046 186.757513 
L 92.989015 186.757513 
L 95.901984 192.24 
L 98.814953 192.24 
L 100.271437 189.498757 
L 109.010344 189.498757 
L 110.466828 192.24 
L 111.923313 192.24 
L 113.379797 189.498757 
L 122.118704 189.498757 
L 123.575188 192.24 
L 130.857611 192.24 
L 132.314095 189.498757 
L 139.596517 189.498757 
L 141.053002 186.757513 
L 142.509486 189.498757 
L 159.9873 189.498757 
L 161.443784 192.24 
L 189.116989 192.24 
L 190.573473 189.498757 
L 199.31238 189.498757 
L 200.768864 192.24 
L 240.093944 192.24 
L 241.550429 189.498757 
L 250.289336 189.498757 
L 251.74582 192.24 
L 260.484727 192.24 
L 261.941211 189.498757 
L 269.223633 189.498757 
L 270.680118 181.275027 
L 272.136602 184.01627 
L 273.593087 181.275027 
L 279.419025 181.275027 
L 280.875509 186.757513 
L 282.331993 186.757513 
L 283.788478 189.498757 
L 285.244962 189.498757 
L 286.701447 194.981243 
L 289.614416 194.981243 
L 291.0709 197.722487 
L 293.983869 197.722487 
L 295.440353 194.981243 
L 296.896838 189.498757 
L 298.353322 186.757513 
L 299.809807 186.757513 
L 301.266291 184.01627 
L 302.722776 184.01627 
L 304.17926 181.275027 
L 305.635745 184.01627 
L 308.548714 184.01627 
L 310.005198 181.275027 
L 311.461682 184.01627 
L 312.918167 184.01627 
L 314.374651 186.757513 
L 317.28762 186.757513 
L 320.200589 192.24 
L 333.308949 192.24 
L 334.765434 189.498757 
L 339.134887 189.498757 
L 340.591371 186.757513 
L 343.50434 186.757513 
L 344.960825 189.498757 
L 349.330278 189.498757 
L 350.786763 192.24 
L 352.243247 192.24 
L 355.156216 186.757513 
L 363.895123 186.757513 
L 365.351607 189.498757 
L 372.634029 189.498757 
L 374.090514 192.24 
L 384.285905 192.24 
L 387.198874 186.757513 
L 390.111843 186.757513 
L 391.568327 184.01627 
L 394.481296 184.01627 
L 395.937781 181.275027 
L 400.307234 181.275027 
L 401.763718 184.01627 
L 403.220203 181.275027 
L 404.676687 181.275027 
L 407.589656 186.757513 
L 409.046141 186.757513 
L 410.502625 184.01627 
L 411.95911 184.01627 
L 413.415594 175.79254 
L 414.872078 175.79254 
L 416.328563 178.533784 
L 417.785047 173.051297 
L 419.241532 173.051297 
L 420.698016 175.79254 
L 422.154501 167.568811 
L 423.610985 175.79254 
L 425.06747 162.086324 
L 426.523954 153.862594 
L 427.980439 148.380108 
L 429.436923 131.932648 
L 430.893407 101.778973 
L 432.349892 82.59027 
L 433.806376 68.884054 
L 435.262861 77.107783 
L 435.262861 77.107783 
" style="fill:none;stroke:#871f78;stroke-linecap:round;stroke-width:1.5;"/>
   </g>
   <g id="patch_247">
    <path d="M 63 192.24 
L 453.6 192.24 
" style="fill:none;stroke:#cccccc;stroke-linecap:square;stroke-linejoin:miter;"/>
   </g>
   <g id="text_16">
    <!-- 7-day -->
    <defs>
     <path d="M 12.796875 72.90625 
L 62.703125 72.90625 
L 61.8125 68.703125 
L 20.125 0 
L 9.28125 0 
L 48.6875 64.59375 
L 11.1875 64.59375 
z
" id="DejaVuSans-Oblique-55"/>
     <path d="M 6.109375 31.390625 
L 32.421875 31.390625 
L 30.90625 23.390625 
L 4.5 23.390625 
z
" id="DejaVuSans-Oblique-45"/>
     <path d="M 41.796875 8.203125 
Q 38.1875 3.46875 33.25 1.015625 
Q 28.328125 -1.421875 22.3125 -1.421875 
Q 14.109375 -1.421875 9.34375 4.171875 
Q 4.59375 9.765625 4.59375 19.484375 
Q 4.59375 27.59375 7.46875 34.9375 
Q 10.359375 42.28125 15.828125 48.09375 
Q 19.4375 51.953125 23.96875 53.96875 
Q 28.515625 56 33.5 56 
Q 38.765625 56 42.796875 53.453125 
Q 46.828125 50.921875 49.03125 46.1875 
L 54.890625 75.984375 
L 63.921875 75.984375 
L 49.125 0 
L 40.09375 0 
z
M 13.921875 21.09375 
Q 13.921875 14.015625 17.109375 10.0625 
Q 20.3125 6.109375 25.984375 6.109375 
Q 30.171875 6.109375 33.765625 8.125 
Q 37.359375 10.15625 40.09375 14.109375 
Q 42.96875 18.21875 44.625 23.578125 
Q 46.296875 28.953125 46.296875 34.1875 
Q 46.296875 40.96875 43.09375 44.765625 
Q 39.890625 48.578125 34.28125 48.578125 
Q 30.03125 48.578125 26.359375 46.578125 
Q 22.703125 44.578125 20.125 40.828125 
Q 17.28125 36.765625 15.59375 31.390625 
Q 13.921875 26.03125 13.921875 21.09375 
z
" id="DejaVuSans-Oblique-100"/>
     <path d="M 53.71875 31.203125 
L 47.609375 0 
L 38.625 0 
L 40.28125 8.296875 
Q 36.328125 3.421875 31.265625 1 
Q 26.21875 -1.421875 20.015625 -1.421875 
Q 13.03125 -1.421875 8.5625 2.84375 
Q 4.109375 7.125 4.109375 13.8125 
Q 4.109375 23.390625 11.75 28.953125 
Q 19.390625 34.515625 32.8125 34.515625 
L 45.3125 34.515625 
L 45.796875 36.921875 
Q 45.90625 37.3125 45.953125 37.765625 
Q 46 38.234375 46 39.203125 
Q 46 43.5625 42.453125 45.96875 
Q 38.921875 48.390625 32.515625 48.390625 
Q 28.125 48.390625 23.5 47.265625 
Q 18.890625 46.140625 14.015625 43.890625 
L 15.578125 52.203125 
Q 20.65625 54.109375 25.515625 55.046875 
Q 30.375 56 34.90625 56 
Q 44.578125 56 49.625 51.796875 
Q 54.6875 47.609375 54.6875 39.59375 
Q 54.6875 37.984375 54.4375 35.8125 
Q 54.203125 33.640625 53.71875 31.203125 
z
M 44 27.484375 
L 35.015625 27.484375 
Q 23.96875 27.484375 18.671875 24.53125 
Q 13.375 21.578125 13.375 15.375 
Q 13.375 11.078125 16.078125 8.640625 
Q 18.796875 6.203125 23.578125 6.203125 
Q 30.90625 6.203125 36.375 11.453125 
Q 41.84375 16.703125 43.609375 25.484375 
z
" id="DejaVuSans-Oblique-97"/>
     <path d="M 24.8125 -5.078125 
Q 18.5625 -15.578125 14.625 -18.1875 
Q 10.6875 -20.796875 4.59375 -20.796875 
L -2.484375 -20.796875 
L -0.984375 -13.28125 
L 4.203125 -13.28125 
Q 7.953125 -13.28125 10.59375 -11.234375 
Q 13.234375 -9.1875 16.5 -3.21875 
L 19.28125 2 
L 7.171875 54.6875 
L 16.703125 54.6875 
L 25.78125 12.796875 
L 50.875 54.6875 
L 60.296875 54.6875 
z
" id="DejaVuSans-Oblique-121"/>
    </defs>
    <g style="fill:#871f78;" transform="translate(439.632314 65.909971)scale(0.1 -0.1)">
     <use xlink:href="#DejaVuSans-Oblique-55"/>
     <use x="63.623047" xlink:href="#DejaVuSans-Oblique-45"/>
     <use x="99.707031" xlink:href="#DejaVuSans-Oblique-100"/>
     <use x="163.183594" xlink:href="#DejaVuSans-Oblique-97"/>
     <use x="224.462891" xlink:href="#DejaVuSans-Oblique-121"/>
    </g>
    <!-- avg. -->
    <defs>
     <path d="M 7.171875 54.6875 
L 16.703125 54.6875 
L 24.703125 8.203125 
L 50.875 54.6875 
L 60.40625 54.6875 
L 29.296875 0 
L 17.1875 0 
z
" id="DejaVuSans-Oblique-118"/>
     <path d="M 59.625 54.6875 
L 50.296875 6.78125 
Q 47.609375 -7.125 40.015625 -13.953125 
Q 32.421875 -20.796875 19.578125 -20.796875 
Q 14.84375 -20.796875 10.78125 -20.09375 
Q 6.734375 -19.390625 3.21875 -17.921875 
L 4.890625 -9.1875 
Q 8.203125 -11.328125 11.90625 -12.34375 
Q 15.625 -13.375 19.828125 -13.375 
Q 28.375 -13.375 33.859375 -8.703125 
Q 39.359375 -4.046875 41.109375 4.6875 
L 41.890625 8.796875 
Q 38.140625 4.5 33.15625 2.25 
Q 28.171875 0 22.40625 0 
Q 14.109375 0 9.34375 5.484375 
Q 4.59375 10.984375 4.59375 20.609375 
Q 4.59375 28.171875 7.46875 35.421875 
Q 10.359375 42.671875 15.578125 48.296875 
Q 19.046875 52 23.65625 54 
Q 28.265625 56 33.296875 56 
Q 38.8125 56 42.90625 53.4375 
Q 47.015625 50.875 49.03125 46.1875 
L 50.59375 54.6875 
z
M 46.09375 34.625 
Q 46.09375 41.265625 42.96875 44.875 
Q 39.84375 48.484375 34.078125 48.484375 
Q 30.515625 48.484375 27.296875 47.0625 
Q 24.078125 45.65625 21.78125 43.109375 
Q 18.0625 38.921875 15.984375 33.234375 
Q 13.921875 27.546875 13.921875 21.484375 
Q 13.921875 14.75 17.0625 11.125 
Q 20.21875 7.515625 26.125 7.515625 
Q 34.671875 7.515625 40.375 15.25 
Q 46.09375 23 46.09375 34.625 
z
" id="DejaVuSans-Oblique-103"/>
     <path d="M 8.203125 12.40625 
L 18.5 12.40625 
L 16.109375 0 
L 5.8125 0 
z
" id="DejaVuSans-Oblique-46"/>
    </defs>
    <g style="fill:#871f78;" transform="translate(439.632314 77.107783)scale(0.1 -0.1)">
     <use xlink:href="#DejaVuSans-Oblique-97"/>
     <use x="61.279297" xlink:href="#DejaVuSans-Oblique-118"/>
     <use x="120.458984" xlink:href="#DejaVuSans-Oblique-103"/>
     <use x="183.935547" xlink:href="#DejaVuSans-Oblique-46"/>
    </g>
   </g>
  </g>
 </g>
 <defs>
  <clipPath id="p44646441c4">
   <rect height="166.32" width="390.6" x="63" y="25.92"/>
  </clipPath>
 </defs>
</svg>
