<?xml version="1.0" encoding="utf-8" standalone="no"?>
<!DOCTYPE svg PUBLIC "-//W3C//DTD SVG 1.1//EN"
  "http://www.w3.org/Graphics/SVG/1.1/DTD/svg11.dtd">
<!-- Created with matplotlib (https://matplotlib.org/) -->
<svg height="216pt" version="1.1" viewBox="0 0 504 216" width="504pt" xmlns="http://www.w3.org/2000/svg" xmlns:xlink="http://www.w3.org/1999/xlink">
 <defs>
  <style type="text/css">
*{stroke-linecap:butt;stroke-linejoin:round;}
  </style>
 </defs>
 <g id="figure_1">
  <g id="patch_1">
   <path d="M 0 216 
L 504 216 
L 504 0 
L 0 0 
z
" style="fill:#ffffff;"/>
  </g>
  <g id="axes_1">
   <g id="patch_2">
    <path d="M 63 192.24 
L 453.6 192.24 
L 453.6 25.92 
L 63 25.92 
z
" style="fill:#ffffff;"/>
   </g>
   <g id="matplotlib.axis_1">
    <g id="xtick_1">
     <g id="line2d_1"/>
     <g id="text_1">
      <!-- Apr -->
      <defs>
       <path d="M -0.140625 0 
L 27.34375 71.578125 
L 37.546875 71.578125 
L 66.84375 0 
L 56.0625 0 
L 47.703125 21.6875 
L 17.78125 21.6875 
L 9.90625 0 
z
M 20.515625 29.390625 
L 44.78125 29.390625 
L 37.3125 49.21875 
Q 33.890625 58.25 32.234375 64.0625 
Q 30.859375 57.171875 28.375 50.390625 
z
" id="ArialMT-65"/>
       <path d="M 6.59375 -19.875 
L 6.59375 51.859375 
L 14.59375 51.859375 
L 14.59375 45.125 
Q 17.4375 49.078125 21 51.046875 
Q 24.5625 53.03125 29.640625 53.03125 
Q 36.28125 53.03125 41.359375 49.609375 
Q 46.4375 46.1875 49.015625 39.953125 
Q 51.609375 33.734375 51.609375 26.3125 
Q 51.609375 18.359375 48.75 11.984375 
Q 45.90625 5.609375 40.453125 2.21875 
Q 35.015625 -1.171875 29 -1.171875 
Q 24.609375 -1.171875 21.109375 0.6875 
Q 17.625 2.546875 15.375 5.375 
L 15.375 -19.875 
z
M 14.546875 25.640625 
Q 14.546875 15.625 18.59375 10.84375 
Q 22.65625 6.0625 28.421875 6.0625 
Q 34.28125 6.0625 38.453125 11.015625 
Q 42.625 15.96875 42.625 26.375 
Q 42.625 36.28125 38.546875 41.203125 
Q 34.46875 46.140625 28.8125 46.140625 
Q 23.1875 46.140625 18.859375 40.890625 
Q 14.546875 35.640625 14.546875 25.640625 
z
" id="ArialMT-112"/>
       <path d="M 6.5 0 
L 6.5 51.859375 
L 14.40625 51.859375 
L 14.40625 44 
Q 17.4375 49.515625 20 51.265625 
Q 22.5625 53.03125 25.640625 53.03125 
Q 30.078125 53.03125 34.671875 50.203125 
L 31.640625 42.046875 
Q 28.421875 43.953125 25.203125 43.953125 
Q 22.3125 43.953125 20.015625 42.21875 
Q 17.71875 40.484375 16.75 37.40625 
Q 15.28125 32.71875 15.28125 27.15625 
L 15.28125 0 
z
" id="ArialMT-114"/>
      </defs>
      <g style="fill:#871f78;" transform="translate(86.951692 202.897813)scale(0.1 -0.1)">
       <use xlink:href="#ArialMT-65"/>
       <use x="66.699219" xlink:href="#ArialMT-112"/>
       <use x="122.314453" xlink:href="#ArialMT-114"/>
      </g>
     </g>
    </g>
    <g id="xtick_2">
     <g id="line2d_2"/>
     <g id="text_2">
      <!-- May -->
      <defs>
       <path d="M 7.421875 0 
L 7.421875 71.578125 
L 21.6875 71.578125 
L 38.625 20.90625 
Q 40.96875 13.8125 42.046875 10.296875 
Q 43.265625 14.203125 45.84375 21.78125 
L 62.984375 71.578125 
L 75.734375 71.578125 
L 75.734375 0 
L 66.609375 0 
L 66.609375 59.90625 
L 45.796875 0 
L 37.25 0 
L 16.546875 60.9375 
L 16.546875 0 
z
" id="ArialMT-77"/>
       <path d="M 40.4375 6.390625 
Q 35.546875 2.25 31.03125 0.53125 
Q 26.515625 -1.171875 21.34375 -1.171875 
Q 12.796875 -1.171875 8.203125 3 
Q 3.609375 7.171875 3.609375 13.671875 
Q 3.609375 17.484375 5.34375 20.625 
Q 7.078125 23.78125 9.890625 25.6875 
Q 12.703125 27.59375 16.21875 28.5625 
Q 18.796875 29.25 24.03125 29.890625 
Q 34.671875 31.15625 39.703125 32.90625 
Q 39.75 34.71875 39.75 35.203125 
Q 39.75 40.578125 37.25 42.78125 
Q 33.890625 45.75 27.25 45.75 
Q 21.046875 45.75 18.09375 43.578125 
Q 15.140625 41.40625 13.71875 35.890625 
L 5.125 37.0625 
Q 6.296875 42.578125 8.984375 45.96875 
Q 11.671875 49.359375 16.75 51.1875 
Q 21.828125 53.03125 28.515625 53.03125 
Q 35.15625 53.03125 39.296875 51.46875 
Q 43.453125 49.90625 45.40625 47.53125 
Q 47.359375 45.171875 48.140625 41.546875 
Q 48.578125 39.3125 48.578125 33.453125 
L 48.578125 21.734375 
Q 48.578125 9.46875 49.140625 6.21875 
Q 49.703125 2.984375 51.375 0 
L 42.1875 0 
Q 40.828125 2.734375 40.4375 6.390625 
z
M 39.703125 26.03125 
Q 34.90625 24.078125 25.34375 22.703125 
Q 19.921875 21.921875 17.671875 20.9375 
Q 15.4375 19.96875 14.203125 18.09375 
Q 12.984375 16.21875 12.984375 13.921875 
Q 12.984375 10.40625 15.640625 8.0625 
Q 18.3125 5.71875 23.4375 5.71875 
Q 28.515625 5.71875 32.46875 7.9375 
Q 36.421875 10.15625 38.28125 14.015625 
Q 39.703125 17 39.703125 22.796875 
z
" id="ArialMT-97"/>
       <path d="M 6.203125 -19.96875 
L 5.21875 -11.71875 
Q 8.109375 -12.5 10.25 -12.5 
Q 13.1875 -12.5 14.9375 -11.515625 
Q 16.703125 -10.546875 17.828125 -8.796875 
Q 18.65625 -7.46875 20.515625 -2.25 
Q 20.75 -1.515625 21.296875 -0.09375 
L 1.609375 51.859375 
L 11.078125 51.859375 
L 21.875 21.828125 
Q 23.96875 16.109375 25.640625 9.8125 
Q 27.15625 15.875 29.25 21.625 
L 40.328125 51.859375 
L 49.125 51.859375 
L 29.390625 -0.875 
Q 26.21875 -9.421875 24.46875 -12.640625 
Q 22.125 -17 19.09375 -19.015625 
Q 16.0625 -21.046875 11.859375 -21.046875 
Q 9.328125 -21.046875 6.203125 -19.96875 
z
" id="ArialMT-121"/>
      </defs>
      <g style="fill:#871f78;" transform="translate(129.896259 202.897813)scale(0.1 -0.1)">
       <use xlink:href="#ArialMT-77"/>
       <use x="83.300781" xlink:href="#ArialMT-97"/>
       <use x="138.916016" xlink:href="#ArialMT-121"/>
      </g>
     </g>
    </g>
    <g id="xtick_3">
     <g id="line2d_3"/>
     <g id="text_3">
      <!-- Jun -->
      <defs>
       <path d="M 2.875 20.3125 
L 11.421875 21.484375 
Q 11.765625 13.28125 14.5 10.25 
Q 17.234375 7.234375 22.078125 7.234375 
Q 25.640625 7.234375 28.21875 8.859375 
Q 30.8125 10.5 31.78125 13.296875 
Q 32.765625 16.109375 32.765625 22.265625 
L 32.765625 71.578125 
L 42.234375 71.578125 
L 42.234375 22.796875 
Q 42.234375 13.8125 40.0625 8.875 
Q 37.890625 3.953125 33.171875 1.359375 
Q 28.46875 -1.21875 22.125 -1.21875 
Q 12.703125 -1.21875 7.6875 4.203125 
Q 2.6875 9.625 2.875 20.3125 
z
" id="ArialMT-74"/>
       <path d="M 40.578125 0 
L 40.578125 7.625 
Q 34.515625 -1.171875 24.125 -1.171875 
Q 19.53125 -1.171875 15.546875 0.578125 
Q 11.578125 2.34375 9.640625 5 
Q 7.71875 7.671875 6.9375 11.53125 
Q 6.390625 14.109375 6.390625 19.734375 
L 6.390625 51.859375 
L 15.1875 51.859375 
L 15.1875 23.09375 
Q 15.1875 16.21875 15.71875 13.8125 
Q 16.546875 10.359375 19.234375 8.375 
Q 21.921875 6.390625 25.875 6.390625 
Q 29.828125 6.390625 33.296875 8.421875 
Q 36.765625 10.453125 38.203125 13.9375 
Q 39.65625 17.4375 39.65625 24.078125 
L 39.65625 51.859375 
L 48.4375 51.859375 
L 48.4375 0 
z
" id="ArialMT-117"/>
       <path d="M 6.59375 0 
L 6.59375 51.859375 
L 14.5 51.859375 
L 14.5 44.484375 
Q 20.21875 53.03125 31 53.03125 
Q 35.6875 53.03125 39.625 51.34375 
Q 43.5625 49.65625 45.515625 46.921875 
Q 47.46875 44.1875 48.25 40.4375 
Q 48.734375 37.984375 48.734375 31.890625 
L 48.734375 0 
L 39.9375 0 
L 39.9375 31.546875 
Q 39.9375 36.921875 38.90625 39.578125 
Q 37.890625 42.234375 35.28125 43.8125 
Q 32.671875 45.40625 29.15625 45.40625 
Q 23.53125 45.40625 19.453125 41.84375 
Q 15.375 38.28125 15.375 28.328125 
L 15.375 0 
z
" id="ArialMT-110"/>
      </defs>
      <g style="fill:#871f78;" transform="translate(177.377025 202.897813)scale(0.1 -0.1)">
       <use xlink:href="#ArialMT-74"/>
       <use x="50" xlink:href="#ArialMT-117"/>
       <use x="105.615234" xlink:href="#ArialMT-110"/>
      </g>
     </g>
    </g>
    <g id="xtick_4">
     <g id="line2d_4"/>
     <g id="text_4">
      <!-- Jul -->
      <defs>
       <path d="M 6.390625 0 
L 6.390625 71.578125 
L 15.1875 71.578125 
L 15.1875 0 
z
" id="ArialMT-108"/>
      </defs>
      <g style="fill:#871f78;" transform="translate(223.655967 202.897813)scale(0.1 -0.1)">
       <use xlink:href="#ArialMT-74"/>
       <use x="50" xlink:href="#ArialMT-117"/>
       <use x="105.615234" xlink:href="#ArialMT-108"/>
      </g>
     </g>
    </g>
    <g id="xtick_5">
     <g id="line2d_5"/>
     <g id="text_5">
      <!-- Aug -->
      <defs>
       <path d="M 4.984375 -4.296875 
L 13.53125 -5.5625 
Q 14.0625 -9.515625 16.5 -11.328125 
Q 19.78125 -13.765625 25.4375 -13.765625 
Q 31.546875 -13.765625 34.859375 -11.328125 
Q 38.1875 -8.890625 39.359375 -4.5 
Q 40.046875 -1.8125 39.984375 6.78125 
Q 34.234375 0 25.640625 0 
Q 14.9375 0 9.078125 7.71875 
Q 3.21875 15.4375 3.21875 26.21875 
Q 3.21875 33.640625 5.90625 39.90625 
Q 8.59375 46.1875 13.6875 49.609375 
Q 18.796875 53.03125 25.6875 53.03125 
Q 34.859375 53.03125 40.828125 45.609375 
L 40.828125 51.859375 
L 48.921875 51.859375 
L 48.921875 7.03125 
Q 48.921875 -5.078125 46.453125 -10.125 
Q 44 -15.1875 38.640625 -18.109375 
Q 33.296875 -21.046875 25.484375 -21.046875 
Q 16.21875 -21.046875 10.5 -16.875 
Q 4.78125 -12.703125 4.984375 -4.296875 
z
M 12.25 26.859375 
Q 12.25 16.65625 16.296875 11.96875 
Q 20.359375 7.28125 26.46875 7.28125 
Q 32.515625 7.28125 36.609375 11.9375 
Q 40.71875 16.609375 40.71875 26.5625 
Q 40.71875 36.078125 36.5 40.90625 
Q 32.28125 45.75 26.3125 45.75 
Q 20.453125 45.75 16.34375 40.984375 
Q 12.25 36.234375 12.25 26.859375 
z
" id="ArialMT-103"/>
      </defs>
      <g style="fill:#871f78;" transform="translate(267.247671 202.897813)scale(0.1 -0.1)">
       <use xlink:href="#ArialMT-65"/>
       <use x="66.699219" xlink:href="#ArialMT-117"/>
       <use x="122.314453" xlink:href="#ArialMT-103"/>
      </g>
     </g>
    </g>
    <g id="xtick_6">
     <g id="line2d_6"/>
     <g id="text_6">
      <!-- Sep -->
      <defs>
       <path d="M 4.5 23 
L 13.421875 23.78125 
Q 14.0625 18.40625 16.375 14.96875 
Q 18.703125 11.53125 23.578125 9.40625 
Q 28.46875 7.28125 34.578125 7.28125 
Q 39.984375 7.28125 44.140625 8.890625 
Q 48.296875 10.5 50.3125 13.296875 
Q 52.34375 16.109375 52.34375 19.4375 
Q 52.34375 22.796875 50.390625 25.3125 
Q 48.4375 27.828125 43.953125 29.546875 
Q 41.0625 30.671875 31.203125 33.03125 
Q 21.34375 35.40625 17.390625 37.5 
Q 12.25 40.1875 9.734375 44.15625 
Q 7.234375 48.140625 7.234375 53.078125 
Q 7.234375 58.5 10.296875 63.203125 
Q 13.375 67.921875 19.28125 70.359375 
Q 25.203125 72.796875 32.421875 72.796875 
Q 40.375 72.796875 46.453125 70.234375 
Q 52.546875 67.671875 55.8125 62.6875 
Q 59.078125 57.71875 59.328125 51.421875 
L 50.25 50.734375 
Q 49.515625 57.515625 45.28125 60.984375 
Q 41.0625 64.453125 32.8125 64.453125 
Q 24.21875 64.453125 20.28125 61.296875 
Q 16.359375 58.15625 16.359375 53.71875 
Q 16.359375 49.859375 19.140625 47.359375 
Q 21.875 44.875 33.421875 42.265625 
Q 44.96875 39.65625 49.265625 37.703125 
Q 55.515625 34.8125 58.484375 30.390625 
Q 61.46875 25.984375 61.46875 20.21875 
Q 61.46875 14.5 58.203125 9.4375 
Q 54.9375 4.390625 48.796875 1.578125 
Q 42.671875 -1.21875 35.015625 -1.21875 
Q 25.296875 -1.21875 18.71875 1.609375 
Q 12.15625 4.4375 8.421875 10.125 
Q 4.6875 15.828125 4.5 23 
z
" id="ArialMT-83"/>
       <path d="M 42.09375 16.703125 
L 51.171875 15.578125 
Q 49.03125 7.625 43.21875 3.21875 
Q 37.40625 -1.171875 28.375 -1.171875 
Q 17 -1.171875 10.328125 5.828125 
Q 3.65625 12.84375 3.65625 25.484375 
Q 3.65625 38.578125 10.390625 45.796875 
Q 17.140625 53.03125 27.875 53.03125 
Q 38.28125 53.03125 44.875 45.953125 
Q 51.46875 38.875 51.46875 26.03125 
Q 51.46875 25.25 51.421875 23.6875 
L 12.75 23.6875 
Q 13.234375 15.140625 17.578125 10.59375 
Q 21.921875 6.0625 28.421875 6.0625 
Q 33.25 6.0625 36.671875 8.59375 
Q 40.09375 11.140625 42.09375 16.703125 
z
M 13.234375 30.90625 
L 42.1875 30.90625 
Q 41.609375 37.453125 38.875 40.71875 
Q 34.671875 45.796875 27.984375 45.796875 
Q 21.921875 45.796875 17.796875 41.75 
Q 13.671875 37.703125 13.234375 30.90625 
z
" id="ArialMT-101"/>
      </defs>
      <g style="fill:#871f78;" transform="translate(313.344062 203.019688)scale(0.1 -0.1)">
       <use xlink:href="#ArialMT-83"/>
       <use x="66.699219" xlink:href="#ArialMT-101"/>
       <use x="122.314453" xlink:href="#ArialMT-112"/>
      </g>
     </g>
    </g>
    <g id="xtick_7">
     <g id="line2d_7"/>
     <g id="text_7">
      <!-- Oct -->
      <defs>
       <path d="M 4.828125 34.859375 
Q 4.828125 52.6875 14.390625 62.765625 
Q 23.96875 72.859375 39.109375 72.859375 
Q 49.03125 72.859375 56.984375 68.109375 
Q 64.9375 63.375 69.109375 54.90625 
Q 73.296875 46.4375 73.296875 35.6875 
Q 73.296875 24.8125 68.890625 16.21875 
Q 64.5 7.625 56.4375 3.203125 
Q 48.390625 -1.21875 39.0625 -1.21875 
Q 28.953125 -1.21875 20.984375 3.65625 
Q 13.03125 8.546875 8.921875 16.984375 
Q 4.828125 25.4375 4.828125 34.859375 
z
M 14.59375 34.71875 
Q 14.59375 21.78125 21.546875 14.328125 
Q 28.515625 6.890625 39.015625 6.890625 
Q 49.703125 6.890625 56.609375 14.40625 
Q 63.53125 21.921875 63.53125 35.75 
Q 63.53125 44.484375 60.578125 51 
Q 57.625 57.515625 51.921875 61.109375 
Q 46.234375 64.703125 39.15625 64.703125 
Q 29.109375 64.703125 21.84375 57.78125 
Q 14.59375 50.875 14.59375 34.71875 
z
" id="ArialMT-79"/>
       <path d="M 40.4375 19 
L 49.078125 17.875 
Q 47.65625 8.9375 41.8125 3.875 
Q 35.984375 -1.171875 27.484375 -1.171875 
Q 16.84375 -1.171875 10.375 5.78125 
Q 3.90625 12.75 3.90625 25.734375 
Q 3.90625 34.125 6.6875 40.421875 
Q 9.46875 46.734375 15.15625 49.875 
Q 20.84375 53.03125 27.546875 53.03125 
Q 35.984375 53.03125 41.359375 48.75 
Q 46.734375 44.484375 48.25 36.625 
L 39.703125 35.296875 
Q 38.484375 40.53125 35.375 43.15625 
Q 32.28125 45.796875 27.875 45.796875 
Q 21.234375 45.796875 17.078125 41.03125 
Q 12.9375 36.28125 12.9375 25.984375 
Q 12.9375 15.53125 16.9375 10.796875 
Q 20.953125 6.0625 27.390625 6.0625 
Q 32.5625 6.0625 36.03125 9.234375 
Q 39.5 12.40625 40.4375 19 
z
" id="ArialMT-99"/>
       <path d="M 25.78125 7.859375 
L 27.046875 0.09375 
Q 23.34375 -0.6875 20.40625 -0.6875 
Q 15.625 -0.6875 12.984375 0.828125 
Q 10.359375 2.34375 9.28125 4.8125 
Q 8.203125 7.28125 8.203125 15.1875 
L 8.203125 45.015625 
L 1.765625 45.015625 
L 1.765625 51.859375 
L 8.203125 51.859375 
L 8.203125 64.703125 
L 16.9375 69.96875 
L 16.9375 51.859375 
L 25.78125 51.859375 
L 25.78125 45.015625 
L 16.9375 45.015625 
L 16.9375 14.703125 
Q 16.9375 10.9375 17.40625 9.859375 
Q 17.875 8.796875 18.921875 8.15625 
Q 19.96875 7.515625 21.921875 7.515625 
Q 23.390625 7.515625 25.78125 7.859375 
z
" id="ArialMT-116"/>
      </defs>
      <g style="fill:#871f78;" transform="translate(359.071441 202.897813)scale(0.1 -0.1)">
       <use xlink:href="#ArialMT-79"/>
       <use x="77.783203" xlink:href="#ArialMT-99"/>
       <use x="127.783203" xlink:href="#ArialMT-116"/>
      </g>
     </g>
    </g>
    <g id="xtick_8">
     <g id="line2d_8"/>
     <g id="text_8">
      <!-- Nov -->
      <defs>
       <path d="M 7.625 0 
L 7.625 71.578125 
L 17.328125 71.578125 
L 54.9375 15.375 
L 54.9375 71.578125 
L 64.015625 71.578125 
L 64.015625 0 
L 54.296875 0 
L 16.703125 56.25 
L 16.703125 0 
z
" id="ArialMT-78"/>
       <path d="M 3.328125 25.921875 
Q 3.328125 40.328125 11.328125 47.265625 
Q 18.015625 53.03125 27.640625 53.03125 
Q 38.328125 53.03125 45.109375 46.015625 
Q 51.90625 39.015625 51.90625 26.65625 
Q 51.90625 16.65625 48.90625 10.90625 
Q 45.90625 5.171875 40.15625 2 
Q 34.421875 -1.171875 27.640625 -1.171875 
Q 16.75 -1.171875 10.03125 5.8125 
Q 3.328125 12.796875 3.328125 25.921875 
z
M 12.359375 25.921875 
Q 12.359375 15.96875 16.703125 11.015625 
Q 21.046875 6.0625 27.640625 6.0625 
Q 34.1875 6.0625 38.53125 11.03125 
Q 42.875 16.015625 42.875 26.21875 
Q 42.875 35.84375 38.5 40.796875 
Q 34.125 45.75 27.640625 45.75 
Q 21.046875 45.75 16.703125 40.8125 
Q 12.359375 35.890625 12.359375 25.921875 
z
" id="ArialMT-111"/>
       <path d="M 21 0 
L 1.265625 51.859375 
L 10.546875 51.859375 
L 21.6875 20.796875 
Q 23.484375 15.765625 25 10.359375 
Q 26.171875 14.453125 28.265625 20.21875 
L 39.796875 51.859375 
L 48.828125 51.859375 
L 29.203125 0 
z
" id="ArialMT-118"/>
      </defs>
      <g style="fill:#871f78;" transform="translate(404.054551 202.897813)scale(0.1 -0.1)">
       <use xlink:href="#ArialMT-78"/>
       <use x="72.216797" xlink:href="#ArialMT-111"/>
       <use x="127.832031" xlink:href="#ArialMT-118"/>
      </g>
     </g>
    </g>
   </g>
   <g id="matplotlib.axis_2">
    <g id="ytick_1">
     <g id="line2d_9">
      <path clip-path="url(#pda7f00c68b)" d="M 63 192.24 
L 453.6 192.24 
" style="fill:none;stroke:#cccccc;stroke-linecap:round;stroke-width:0.8;"/>
     </g>
     <g id="line2d_10"/>
     <g id="text_9">
      <!-- 0 -->
      <defs>
       <path d="M 4.15625 35.296875 
Q 4.15625 48 6.765625 55.734375 
Q 9.375 63.484375 14.515625 67.671875 
Q 19.671875 71.875 27.484375 71.875 
Q 33.25 71.875 37.59375 69.546875 
Q 41.9375 67.234375 44.765625 62.859375 
Q 47.609375 58.5 49.21875 52.21875 
Q 50.828125 45.953125 50.828125 35.296875 
Q 50.828125 22.703125 48.234375 14.96875 
Q 45.65625 7.234375 40.5 3 
Q 35.359375 -1.21875 27.484375 -1.21875 
Q 17.140625 -1.21875 11.234375 6.203125 
Q 4.15625 15.140625 4.15625 35.296875 
z
M 13.1875 35.296875 
Q 13.1875 17.671875 17.3125 11.828125 
Q 21.4375 6 27.484375 6 
Q 33.546875 6 37.671875 11.859375 
Q 41.796875 17.71875 41.796875 35.296875 
Q 41.796875 52.984375 37.671875 58.78125 
Q 33.546875 64.59375 27.390625 64.59375 
Q 21.34375 64.59375 17.71875 59.46875 
Q 13.1875 52.9375 13.1875 35.296875 
z
" id="ArialMT-48"/>
      </defs>
      <g style="fill:#871f78;" transform="translate(53.939062 195.818906)scale(0.1 -0.1)">
       <use xlink:href="#ArialMT-48"/>
      </g>
     </g>
    </g>
    <g id="ytick_2">
     <g id="line2d_11">
      <path clip-path="url(#pda7f00c68b)" d="M 63 169.531004 
L 453.6 169.531004 
" style="fill:none;stroke:#cccccc;stroke-linecap:round;stroke-width:0.8;"/>
     </g>
     <g id="line2d_12"/>
     <g id="text_10">
      <!-- 5 -->
      <defs>
       <path d="M 4.15625 18.75 
L 13.375 19.53125 
Q 14.40625 12.796875 18.140625 9.390625 
Q 21.875 6 27.15625 6 
Q 33.5 6 37.890625 10.78125 
Q 42.28125 15.578125 42.28125 23.484375 
Q 42.28125 31 38.0625 35.34375 
Q 33.84375 39.703125 27 39.703125 
Q 22.75 39.703125 19.328125 37.765625 
Q 15.921875 35.84375 13.96875 32.765625 
L 5.71875 33.84375 
L 12.640625 70.609375 
L 48.25 70.609375 
L 48.25 62.203125 
L 19.671875 62.203125 
L 15.828125 42.96875 
Q 22.265625 47.46875 29.34375 47.46875 
Q 38.71875 47.46875 45.15625 40.96875 
Q 51.609375 34.46875 51.609375 24.265625 
Q 51.609375 14.546875 45.953125 7.46875 
Q 39.0625 -1.21875 27.15625 -1.21875 
Q 17.390625 -1.21875 11.203125 4.25 
Q 5.03125 9.71875 4.15625 18.75 
z
" id="ArialMT-53"/>
      </defs>
      <g style="fill:#871f78;" transform="translate(53.939062 173.10991)scale(0.1 -0.1)">
       <use xlink:href="#ArialMT-53"/>
      </g>
     </g>
    </g>
    <g id="ytick_3">
     <g id="line2d_13">
      <path clip-path="url(#pda7f00c68b)" d="M 63 146.822008 
L 453.6 146.822008 
" style="fill:none;stroke:#cccccc;stroke-linecap:round;stroke-width:0.8;"/>
     </g>
     <g id="line2d_14"/>
     <g id="text_11">
      <!-- 10 -->
      <defs>
       <path d="M 37.25 0 
L 28.46875 0 
L 28.46875 56 
Q 25.296875 52.984375 20.140625 49.953125 
Q 14.984375 46.921875 10.890625 45.40625 
L 10.890625 53.90625 
Q 18.265625 57.375 23.78125 62.296875 
Q 29.296875 67.234375 31.59375 71.875 
L 37.25 71.875 
z
" id="ArialMT-49"/>
      </defs>
      <g style="fill:#871f78;" transform="translate(48.378125 150.400914)scale(0.1 -0.1)">
       <use xlink:href="#ArialMT-49"/>
       <use x="55.615234" xlink:href="#ArialMT-48"/>
      </g>
     </g>
    </g>
    <g id="ytick_4">
     <g id="line2d_15">
      <path clip-path="url(#pda7f00c68b)" d="M 63 124.113012 
L 453.6 124.113012 
" style="fill:none;stroke:#cccccc;stroke-linecap:round;stroke-width:0.8;"/>
     </g>
     <g id="line2d_16"/>
     <g id="text_12">
      <!-- 15 -->
      <g style="fill:#871f78;" transform="translate(48.378125 127.691918)scale(0.1 -0.1)">
       <use xlink:href="#ArialMT-49"/>
       <use x="55.615234" xlink:href="#ArialMT-53"/>
      </g>
     </g>
    </g>
    <g id="ytick_5">
     <g id="line2d_17">
      <path clip-path="url(#pda7f00c68b)" d="M 63 101.404016 
L 453.6 101.404016 
" style="fill:none;stroke:#cccccc;stroke-linecap:round;stroke-width:0.8;"/>
     </g>
     <g id="line2d_18"/>
     <g id="text_13">
      <!-- 20 -->
      <defs>
       <path d="M 50.34375 8.453125 
L 50.34375 0 
L 3.03125 0 
Q 2.9375 3.171875 4.046875 6.109375 
Q 5.859375 10.9375 9.828125 15.625 
Q 13.8125 20.3125 21.34375 26.46875 
Q 33.015625 36.03125 37.109375 41.625 
Q 41.21875 47.21875 41.21875 52.203125 
Q 41.21875 57.421875 37.46875 61 
Q 33.734375 64.59375 27.734375 64.59375 
Q 21.390625 64.59375 17.578125 60.78125 
Q 13.765625 56.984375 13.71875 50.25 
L 4.6875 51.171875 
Q 5.609375 61.28125 11.65625 66.578125 
Q 17.71875 71.875 27.9375 71.875 
Q 38.234375 71.875 44.234375 66.15625 
Q 50.25 60.453125 50.25 52 
Q 50.25 47.703125 48.484375 43.546875 
Q 46.734375 39.40625 42.65625 34.8125 
Q 38.578125 30.21875 29.109375 22.21875 
Q 21.1875 15.578125 18.9375 13.203125 
Q 16.703125 10.84375 15.234375 8.453125 
z
" id="ArialMT-50"/>
      </defs>
      <g style="fill:#871f78;" transform="translate(48.378125 104.982922)scale(0.1 -0.1)">
       <use xlink:href="#ArialMT-50"/>
       <use x="55.615234" xlink:href="#ArialMT-48"/>
      </g>
     </g>
    </g>
    <g id="ytick_6">
     <g id="line2d_19">
      <path clip-path="url(#pda7f00c68b)" d="M 63 78.69502 
L 453.6 78.69502 
" style="fill:none;stroke:#cccccc;stroke-linecap:round;stroke-width:0.8;"/>
     </g>
     <g id="line2d_20"/>
     <g id="text_14">
      <!-- 25 -->
      <g style="fill:#871f78;" transform="translate(48.378125 82.273927)scale(0.1 -0.1)">
       <use xlink:href="#ArialMT-50"/>
       <use x="55.615234" xlink:href="#ArialMT-53"/>
      </g>
     </g>
    </g>
    <g id="ytick_7">
     <g id="line2d_21">
      <path clip-path="url(#pda7f00c68b)" d="M 63 55.986024 
L 453.6 55.986024 
" style="fill:none;stroke:#cccccc;stroke-linecap:round;stroke-width:0.8;"/>
     </g>
     <g id="line2d_22"/>
     <g id="text_15">
      <!-- 30 -->
      <defs>
       <path d="M 4.203125 18.890625 
L 12.984375 20.0625 
Q 14.5 12.59375 18.140625 9.296875 
Q 21.78125 6 27 6 
Q 33.203125 6 37.46875 10.296875 
Q 41.75 14.59375 41.75 20.953125 
Q 41.75 27 37.796875 30.921875 
Q 33.84375 34.859375 27.734375 34.859375 
Q 25.25 34.859375 21.53125 33.890625 
L 22.515625 41.609375 
Q 23.390625 41.5 23.921875 41.5 
Q 29.546875 41.5 34.03125 44.421875 
Q 38.53125 47.359375 38.53125 53.46875 
Q 38.53125 58.296875 35.25 61.46875 
Q 31.984375 64.65625 26.8125 64.65625 
Q 21.6875 64.65625 18.265625 61.421875 
Q 14.84375 58.203125 13.875 51.765625 
L 5.078125 53.328125 
Q 6.6875 62.15625 12.390625 67.015625 
Q 18.109375 71.875 26.609375 71.875 
Q 32.46875 71.875 37.390625 69.359375 
Q 42.328125 66.84375 44.9375 62.5 
Q 47.5625 58.15625 47.5625 53.265625 
Q 47.5625 48.640625 45.0625 44.828125 
Q 42.578125 41.015625 37.703125 38.765625 
Q 44.046875 37.3125 47.5625 32.6875 
Q 51.078125 28.078125 51.078125 21.140625 
Q 51.078125 11.765625 44.234375 5.25 
Q 37.40625 -1.265625 26.953125 -1.265625 
Q 17.53125 -1.265625 11.296875 4.34375 
Q 5.078125 9.96875 4.203125 18.890625 
z
" id="ArialMT-51"/>
      </defs>
      <g style="fill:#871f78;" transform="translate(48.378125 59.564931)scale(0.1 -0.1)">
       <use xlink:href="#ArialMT-51"/>
       <use x="55.615234" xlink:href="#ArialMT-48"/>
      </g>
     </g>
    </g>
    <g id="ytick_8">
     <g id="line2d_23">
      <path clip-path="url(#pda7f00c68b)" d="M 63 33.277028 
L 453.6 33.277028 
" style="fill:none;stroke:#cccccc;stroke-linecap:round;stroke-width:0.8;"/>
     </g>
     <g id="line2d_24"/>
     <g id="text_16">
      <!-- 35 -->
      <g style="fill:#871f78;" transform="translate(48.378125 36.855935)scale(0.1 -0.1)">
       <use xlink:href="#ArialMT-51"/>
       <use x="55.615234" xlink:href="#ArialMT-53"/>
      </g>
     </g>
    </g>
   </g>
   <g id="patch_3">
    <path clip-path="url(#pda7f00c68b)" d="M 80.754545 192.24 
L 81.94413 192.24 
L 81.94413 192.24 
L 80.754545 192.24 
z
" style="fill:#871f78;opacity:0.35;"/>
   </g>
   <g id="patch_4">
    <path clip-path="url(#pda7f00c68b)" d="M 82.241526 192.24 
L 83.43111 192.24 
L 83.43111 192.24 
L 82.241526 192.24 
z
" style="fill:#871f78;opacity:0.35;"/>
   </g>
   <g id="patch_5">
    <path clip-path="url(#pda7f00c68b)" d="M 83.728506 192.24 
L 84.91809 192.24 
L 84.91809 192.24 
L 83.728506 192.24 
z
" style="fill:#871f78;opacity:0.35;"/>
   </g>
   <g id="patch_6">
    <path clip-path="url(#pda7f00c68b)" d="M 85.215487 192.24 
L 86.405071 192.24 
L 86.405071 181.713418 
L 85.215487 181.713418 
z
" style="fill:#871f78;opacity:0.35;"/>
   </g>
   <g id="patch_7">
    <path clip-path="url(#pda7f00c68b)" d="M 86.702467 192.24 
L 87.892051 192.24 
L 87.892051 192.24 
L 86.702467 192.24 
z
" style="fill:#871f78;opacity:0.35;"/>
   </g>
   <g id="patch_8">
    <path clip-path="url(#pda7f00c68b)" d="M 88.189447 192.24 
L 89.379032 192.24 
L 89.379032 192.24 
L 88.189447 192.24 
z
" style="fill:#871f78;opacity:0.35;"/>
   </g>
   <g id="patch_9">
    <path clip-path="url(#pda7f00c68b)" d="M 89.676428 192.24 
L 90.866012 192.24 
L 90.866012 181.713418 
L 89.676428 181.713418 
z
" style="fill:#871f78;opacity:0.35;"/>
   </g>
   <g id="patch_10">
    <path clip-path="url(#pda7f00c68b)" d="M 91.163408 192.24 
L 92.352992 192.24 
L 92.352992 192.24 
L 91.163408 192.24 
z
" style="fill:#871f78;opacity:0.35;"/>
   </g>
   <g id="patch_11">
    <path clip-path="url(#pda7f00c68b)" d="M 92.650388 192.24 
L 93.839973 192.24 
L 93.839973 181.713418 
L 92.650388 181.713418 
z
" style="fill:#871f78;opacity:0.35;"/>
   </g>
   <g id="patch_12">
    <path clip-path="url(#pda7f00c68b)" d="M 94.137369 192.24 
L 95.326953 192.24 
L 95.326953 192.24 
L 94.137369 192.24 
z
" style="fill:#871f78;opacity:0.35;"/>
   </g>
   <g id="patch_13">
    <path clip-path="url(#pda7f00c68b)" d="M 95.624349 192.24 
L 96.813933 192.24 
L 96.813933 181.713418 
L 95.624349 181.713418 
z
" style="fill:#871f78;opacity:0.35;"/>
   </g>
   <g id="patch_14">
    <path clip-path="url(#pda7f00c68b)" d="M 97.111329 192.24 
L 98.300914 192.24 
L 98.300914 192.24 
L 97.111329 192.24 
z
" style="fill:#871f78;opacity:0.35;"/>
   </g>
   <g id="patch_15">
    <path clip-path="url(#pda7f00c68b)" d="M 98.59831 192.24 
L 99.787894 192.24 
L 99.787894 192.24 
L 98.59831 192.24 
z
" style="fill:#871f78;opacity:0.35;"/>
   </g>
   <g id="patch_16">
    <path clip-path="url(#pda7f00c68b)" d="M 100.08529 192.24 
L 101.274874 192.24 
L 101.274874 181.713418 
L 100.08529 181.713418 
z
" style="fill:#871f78;opacity:0.35;"/>
   </g>
   <g id="patch_17">
    <path clip-path="url(#pda7f00c68b)" d="M 101.57227 192.24 
L 102.761855 192.24 
L 102.761855 192.24 
L 101.57227 192.24 
z
" style="fill:#871f78;opacity:0.35;"/>
   </g>
   <g id="patch_18">
    <path clip-path="url(#pda7f00c68b)" d="M 103.059251 192.24 
L 104.248835 192.24 
L 104.248835 192.24 
L 103.059251 192.24 
z
" style="fill:#871f78;opacity:0.35;"/>
   </g>
   <g id="patch_19">
    <path clip-path="url(#pda7f00c68b)" d="M 104.546231 192.24 
L 105.735815 192.24 
L 105.735815 192.24 
L 104.546231 192.24 
z
" style="fill:#871f78;opacity:0.35;"/>
   </g>
   <g id="patch_20">
    <path clip-path="url(#pda7f00c68b)" d="M 106.033212 192.24 
L 107.222796 192.24 
L 107.222796 192.24 
L 106.033212 192.24 
z
" style="fill:#871f78;opacity:0.35;"/>
   </g>
   <g id="patch_21">
    <path clip-path="url(#pda7f00c68b)" d="M 107.520192 192.24 
L 108.709776 192.24 
L 108.709776 192.24 
L 107.520192 192.24 
z
" style="fill:#871f78;opacity:0.35;"/>
   </g>
   <g id="patch_22">
    <path clip-path="url(#pda7f00c68b)" d="M 109.007172 192.24 
L 110.196757 192.24 
L 110.196757 192.24 
L 109.007172 192.24 
z
" style="fill:#871f78;opacity:0.35;"/>
   </g>
   <g id="patch_23">
    <path clip-path="url(#pda7f00c68b)" d="M 110.494153 192.24 
L 111.683737 192.24 
L 111.683737 192.24 
L 110.494153 192.24 
z
" style="fill:#871f78;opacity:0.35;"/>
   </g>
   <g id="patch_24">
    <path clip-path="url(#pda7f00c68b)" d="M 111.981133 192.24 
L 113.170717 192.24 
L 113.170717 192.24 
L 111.981133 192.24 
z
" style="fill:#871f78;opacity:0.35;"/>
   </g>
   <g id="patch_25">
    <path clip-path="url(#pda7f00c68b)" d="M 113.468113 192.24 
L 114.657698 192.24 
L 114.657698 181.713418 
L 113.468113 181.713418 
z
" style="fill:#871f78;opacity:0.35;"/>
   </g>
   <g id="patch_26">
    <path clip-path="url(#pda7f00c68b)" d="M 114.955094 192.24 
L 116.144678 192.24 
L 116.144678 192.24 
L 114.955094 192.24 
z
" style="fill:#871f78;opacity:0.35;"/>
   </g>
   <g id="patch_27">
    <path clip-path="url(#pda7f00c68b)" d="M 116.442074 192.24 
L 117.631658 192.24 
L 117.631658 181.713418 
L 116.442074 181.713418 
z
" style="fill:#871f78;opacity:0.35;"/>
   </g>
   <g id="patch_28">
    <path clip-path="url(#pda7f00c68b)" d="M 117.929054 192.24 
L 119.118639 192.24 
L 119.118639 181.713418 
L 117.929054 181.713418 
z
" style="fill:#871f78;opacity:0.35;"/>
   </g>
   <g id="patch_29">
    <path clip-path="url(#pda7f00c68b)" d="M 119.416035 192.24 
L 120.605619 192.24 
L 120.605619 181.713418 
L 119.416035 181.713418 
z
" style="fill:#871f78;opacity:0.35;"/>
   </g>
   <g id="patch_30">
    <path clip-path="url(#pda7f00c68b)" d="M 120.903015 192.24 
L 122.092599 192.24 
L 122.092599 192.24 
L 120.903015 192.24 
z
" style="fill:#871f78;opacity:0.35;"/>
   </g>
   <g id="patch_31">
    <path clip-path="url(#pda7f00c68b)" d="M 122.389995 192.24 
L 123.57958 192.24 
L 123.57958 192.24 
L 122.389995 192.24 
z
" style="fill:#871f78;opacity:0.35;"/>
   </g>
   <g id="patch_32">
    <path clip-path="url(#pda7f00c68b)" d="M 123.876976 192.24 
L 125.06656 192.24 
L 125.06656 192.24 
L 123.876976 192.24 
z
" style="fill:#871f78;opacity:0.35;"/>
   </g>
   <g id="patch_33">
    <path clip-path="url(#pda7f00c68b)" d="M 125.363956 192.24 
L 126.55354 192.24 
L 126.55354 192.24 
L 125.363956 192.24 
z
" style="fill:#871f78;opacity:0.35;"/>
   </g>
   <g id="patch_34">
    <path clip-path="url(#pda7f00c68b)" d="M 126.850937 192.24 
L 128.040521 192.24 
L 128.040521 192.24 
L 126.850937 192.24 
z
" style="fill:#871f78;opacity:0.35;"/>
   </g>
   <g id="patch_35">
    <path clip-path="url(#pda7f00c68b)" d="M 128.337917 192.24 
L 129.527501 192.24 
L 129.527501 181.713418 
L 128.337917 181.713418 
z
" style="fill:#871f78;opacity:0.35;"/>
   </g>
   <g id="patch_36">
    <path clip-path="url(#pda7f00c68b)" d="M 129.824897 192.24 
L 131.014481 192.24 
L 131.014481 202.766582 
L 129.824897 202.766582 
z
" style="fill:#871f78;opacity:0.35;"/>
   </g>
   <g id="patch_37">
    <path clip-path="url(#pda7f00c68b)" d="M 131.311878 192.24 
L 132.501462 192.24 
L 132.501462 181.713418 
L 131.311878 181.713418 
z
" style="fill:#871f78;opacity:0.35;"/>
   </g>
   <g id="patch_38">
    <path clip-path="url(#pda7f00c68b)" d="M 132.798858 192.24 
L 133.988442 192.24 
L 133.988442 192.24 
L 132.798858 192.24 
z
" style="fill:#871f78;opacity:0.35;"/>
   </g>
   <g id="patch_39">
    <path clip-path="url(#pda7f00c68b)" d="M 134.285838 192.24 
L 135.475423 192.24 
L 135.475423 192.24 
L 134.285838 192.24 
z
" style="fill:#871f78;opacity:0.35;"/>
   </g>
   <g id="patch_40">
    <path clip-path="url(#pda7f00c68b)" d="M 135.772819 192.24 
L 136.962403 192.24 
L 136.962403 192.24 
L 135.772819 192.24 
z
" style="fill:#871f78;opacity:0.35;"/>
   </g>
   <g id="patch_41">
    <path clip-path="url(#pda7f00c68b)" d="M 137.259799 192.24 
L 138.449383 192.24 
L 138.449383 181.713418 
L 137.259799 181.713418 
z
" style="fill:#871f78;opacity:0.35;"/>
   </g>
   <g id="patch_42">
    <path clip-path="url(#pda7f00c68b)" d="M 138.746779 192.24 
L 139.936364 192.24 
L 139.936364 192.24 
L 138.746779 192.24 
z
" style="fill:#871f78;opacity:0.35;"/>
   </g>
   <g id="patch_43">
    <path clip-path="url(#pda7f00c68b)" d="M 140.23376 192.24 
L 141.423344 192.24 
L 141.423344 192.24 
L 140.23376 192.24 
z
" style="fill:#871f78;opacity:0.35;"/>
   </g>
   <g id="patch_44">
    <path clip-path="url(#pda7f00c68b)" d="M 141.72074 192.24 
L 142.910324 192.24 
L 142.910324 192.24 
L 141.72074 192.24 
z
" style="fill:#871f78;opacity:0.35;"/>
   </g>
   <g id="patch_45">
    <path clip-path="url(#pda7f00c68b)" d="M 143.20772 192.24 
L 144.397305 192.24 
L 144.397305 192.24 
L 143.20772 192.24 
z
" style="fill:#871f78;opacity:0.35;"/>
   </g>
   <g id="patch_46">
    <path clip-path="url(#pda7f00c68b)" d="M 144.694701 192.24 
L 145.884285 192.24 
L 145.884285 192.24 
L 144.694701 192.24 
z
" style="fill:#871f78;opacity:0.35;"/>
   </g>
   <g id="patch_47">
    <path clip-path="url(#pda7f00c68b)" d="M 146.181681 192.24 
L 147.371265 192.24 
L 147.371265 181.713418 
L 146.181681 181.713418 
z
" style="fill:#871f78;opacity:0.35;"/>
   </g>
   <g id="patch_48">
    <path clip-path="url(#pda7f00c68b)" d="M 147.668661 192.24 
L 148.858246 192.24 
L 148.858246 181.713418 
L 147.668661 181.713418 
z
" style="fill:#871f78;opacity:0.35;"/>
   </g>
   <g id="patch_49">
    <path clip-path="url(#pda7f00c68b)" d="M 149.155642 192.24 
L 150.345226 192.24 
L 150.345226 192.24 
L 149.155642 192.24 
z
" style="fill:#871f78;opacity:0.35;"/>
   </g>
   <g id="patch_50">
    <path clip-path="url(#pda7f00c68b)" d="M 150.642622 192.24 
L 151.832206 192.24 
L 151.832206 192.24 
L 150.642622 192.24 
z
" style="fill:#871f78;opacity:0.35;"/>
   </g>
   <g id="patch_51">
    <path clip-path="url(#pda7f00c68b)" d="M 152.129603 192.24 
L 153.319187 192.24 
L 153.319187 192.24 
L 152.129603 192.24 
z
" style="fill:#871f78;opacity:0.35;"/>
   </g>
   <g id="patch_52">
    <path clip-path="url(#pda7f00c68b)" d="M 153.616583 192.24 
L 154.806167 192.24 
L 154.806167 192.24 
L 153.616583 192.24 
z
" style="fill:#871f78;opacity:0.35;"/>
   </g>
   <g id="patch_53">
    <path clip-path="url(#pda7f00c68b)" d="M 155.103563 192.24 
L 156.293148 192.24 
L 156.293148 192.24 
L 155.103563 192.24 
z
" style="fill:#871f78;opacity:0.35;"/>
   </g>
   <g id="patch_54">
    <path clip-path="url(#pda7f00c68b)" d="M 156.590544 192.24 
L 157.780128 192.24 
L 157.780128 192.24 
L 156.590544 192.24 
z
" style="fill:#871f78;opacity:0.35;"/>
   </g>
   <g id="patch_55">
    <path clip-path="url(#pda7f00c68b)" d="M 158.077524 192.24 
L 159.267108 192.24 
L 159.267108 192.24 
L 158.077524 192.24 
z
" style="fill:#871f78;opacity:0.35;"/>
   </g>
   <g id="patch_56">
    <path clip-path="url(#pda7f00c68b)" d="M 159.564504 192.24 
L 160.754089 192.24 
L 160.754089 171.186835 
L 159.564504 171.186835 
z
" style="fill:#871f78;opacity:0.35;"/>
   </g>
   <g id="patch_57">
    <path clip-path="url(#pda7f00c68b)" d="M 161.051485 192.24 
L 162.241069 192.24 
L 162.241069 192.24 
L 161.051485 192.24 
z
" style="fill:#871f78;opacity:0.35;"/>
   </g>
   <g id="patch_58">
    <path clip-path="url(#pda7f00c68b)" d="M 162.538465 192.24 
L 163.728049 192.24 
L 163.728049 192.24 
L 162.538465 192.24 
z
" style="fill:#871f78;opacity:0.35;"/>
   </g>
   <g id="patch_59">
    <path clip-path="url(#pda7f00c68b)" d="M 164.025445 192.24 
L 165.21503 192.24 
L 165.21503 192.24 
L 164.025445 192.24 
z
" style="fill:#871f78;opacity:0.35;"/>
   </g>
   <g id="patch_60">
    <path clip-path="url(#pda7f00c68b)" d="M 165.512426 192.24 
L 166.70201 192.24 
L 166.70201 192.24 
L 165.512426 192.24 
z
" style="fill:#871f78;opacity:0.35;"/>
   </g>
   <g id="patch_61">
    <path clip-path="url(#pda7f00c68b)" d="M 166.999406 192.24 
L 168.18899 192.24 
L 168.18899 192.24 
L 166.999406 192.24 
z
" style="fill:#871f78;opacity:0.35;"/>
   </g>
   <g id="patch_62">
    <path clip-path="url(#pda7f00c68b)" d="M 168.486386 192.24 
L 169.675971 192.24 
L 169.675971 192.24 
L 168.486386 192.24 
z
" style="fill:#871f78;opacity:0.35;"/>
   </g>
   <g id="patch_63">
    <path clip-path="url(#pda7f00c68b)" d="M 169.973367 192.24 
L 171.162951 192.24 
L 171.162951 192.24 
L 169.973367 192.24 
z
" style="fill:#871f78;opacity:0.35;"/>
   </g>
   <g id="patch_64">
    <path clip-path="url(#pda7f00c68b)" d="M 171.460347 192.24 
L 172.649931 192.24 
L 172.649931 181.713418 
L 171.460347 181.713418 
z
" style="fill:#871f78;opacity:0.35;"/>
   </g>
   <g id="patch_65">
    <path clip-path="url(#pda7f00c68b)" d="M 172.947328 192.24 
L 174.136912 192.24 
L 174.136912 192.24 
L 172.947328 192.24 
z
" style="fill:#871f78;opacity:0.35;"/>
   </g>
   <g id="patch_66">
    <path clip-path="url(#pda7f00c68b)" d="M 174.434308 192.24 
L 175.623892 192.24 
L 175.623892 192.24 
L 174.434308 192.24 
z
" style="fill:#871f78;opacity:0.35;"/>
   </g>
   <g id="patch_67">
    <path clip-path="url(#pda7f00c68b)" d="M 175.921288 192.24 
L 177.110873 192.24 
L 177.110873 192.24 
L 175.921288 192.24 
z
" style="fill:#871f78;opacity:0.35;"/>
   </g>
   <g id="patch_68">
    <path clip-path="url(#pda7f00c68b)" d="M 177.408269 192.24 
L 178.597853 192.24 
L 178.597853 192.24 
L 177.408269 192.24 
z
" style="fill:#871f78;opacity:0.35;"/>
   </g>
   <g id="patch_69">
    <path clip-path="url(#pda7f00c68b)" d="M 178.895249 192.24 
L 180.084833 192.24 
L 180.084833 192.24 
L 178.895249 192.24 
z
" style="fill:#871f78;opacity:0.35;"/>
   </g>
   <g id="patch_70">
    <path clip-path="url(#pda7f00c68b)" d="M 180.382229 192.24 
L 181.571814 192.24 
L 181.571814 171.186835 
L 180.382229 171.186835 
z
" style="fill:#871f78;opacity:0.35;"/>
   </g>
   <g id="patch_71">
    <path clip-path="url(#pda7f00c68b)" d="M 181.86921 192.24 
L 183.058794 192.24 
L 183.058794 192.24 
L 181.86921 192.24 
z
" style="fill:#871f78;opacity:0.35;"/>
   </g>
   <g id="patch_72">
    <path clip-path="url(#pda7f00c68b)" d="M 183.35619 192.24 
L 184.545774 192.24 
L 184.545774 192.24 
L 183.35619 192.24 
z
" style="fill:#871f78;opacity:0.35;"/>
   </g>
   <g id="patch_73">
    <path clip-path="url(#pda7f00c68b)" d="M 184.84317 192.24 
L 186.032755 192.24 
L 186.032755 192.24 
L 184.84317 192.24 
z
" style="fill:#871f78;opacity:0.35;"/>
   </g>
   <g id="patch_74">
    <path clip-path="url(#pda7f00c68b)" d="M 186.330151 192.24 
L 187.519735 192.24 
L 187.519735 192.24 
L 186.330151 192.24 
z
" style="fill:#871f78;opacity:0.35;"/>
   </g>
   <g id="patch_75">
    <path clip-path="url(#pda7f00c68b)" d="M 187.817131 192.24 
L 189.006715 192.24 
L 189.006715 181.713418 
L 187.817131 181.713418 
z
" style="fill:#871f78;opacity:0.35;"/>
   </g>
   <g id="patch_76">
    <path clip-path="url(#pda7f00c68b)" d="M 189.304111 192.24 
L 190.493696 192.24 
L 190.493696 192.24 
L 189.304111 192.24 
z
" style="fill:#871f78;opacity:0.35;"/>
   </g>
   <g id="patch_77">
    <path clip-path="url(#pda7f00c68b)" d="M 190.791092 192.24 
L 191.980676 192.24 
L 191.980676 192.24 
L 190.791092 192.24 
z
" style="fill:#871f78;opacity:0.35;"/>
   </g>
   <g id="patch_78">
    <path clip-path="url(#pda7f00c68b)" d="M 192.278072 192.24 
L 193.467656 192.24 
L 193.467656 192.24 
L 192.278072 192.24 
z
" style="fill:#871f78;opacity:0.35;"/>
   </g>
   <g id="patch_79">
    <path clip-path="url(#pda7f00c68b)" d="M 193.765053 192.24 
L 194.954637 192.24 
L 194.954637 192.24 
L 193.765053 192.24 
z
" style="fill:#871f78;opacity:0.35;"/>
   </g>
   <g id="patch_80">
    <path clip-path="url(#pda7f00c68b)" d="M 195.252033 192.24 
L 196.441617 192.24 
L 196.441617 192.24 
L 195.252033 192.24 
z
" style="fill:#871f78;opacity:0.35;"/>
   </g>
   <g id="patch_81">
    <path clip-path="url(#pda7f00c68b)" d="M 196.739013 192.24 
L 197.928598 192.24 
L 197.928598 181.713418 
L 196.739013 181.713418 
z
" style="fill:#871f78;opacity:0.35;"/>
   </g>
   <g id="patch_82">
    <path clip-path="url(#pda7f00c68b)" d="M 198.225994 192.24 
L 199.415578 192.24 
L 199.415578 160.660253 
L 198.225994 160.660253 
z
" style="fill:#871f78;opacity:0.35;"/>
   </g>
   <g id="patch_83">
    <path clip-path="url(#pda7f00c68b)" d="M 199.712974 192.24 
L 200.902558 192.24 
L 200.902558 181.713418 
L 199.712974 181.713418 
z
" style="fill:#871f78;opacity:0.35;"/>
   </g>
   <g id="patch_84">
    <path clip-path="url(#pda7f00c68b)" d="M 201.199954 192.24 
L 202.389539 192.24 
L 202.389539 192.24 
L 201.199954 192.24 
z
" style="fill:#871f78;opacity:0.35;"/>
   </g>
   <g id="patch_85">
    <path clip-path="url(#pda7f00c68b)" d="M 202.686935 192.24 
L 203.876519 192.24 
L 203.876519 192.24 
L 202.686935 192.24 
z
" style="fill:#871f78;opacity:0.35;"/>
   </g>
   <g id="patch_86">
    <path clip-path="url(#pda7f00c68b)" d="M 204.173915 192.24 
L 205.363499 192.24 
L 205.363499 192.24 
L 204.173915 192.24 
z
" style="fill:#871f78;opacity:0.35;"/>
   </g>
   <g id="patch_87">
    <path clip-path="url(#pda7f00c68b)" d="M 205.660895 192.24 
L 206.85048 192.24 
L 206.85048 192.24 
L 205.660895 192.24 
z
" style="fill:#871f78;opacity:0.35;"/>
   </g>
   <g id="patch_88">
    <path clip-path="url(#pda7f00c68b)" d="M 207.147876 192.24 
L 208.33746 192.24 
L 208.33746 202.766582 
L 207.147876 202.766582 
z
" style="fill:#871f78;opacity:0.35;"/>
   </g>
   <g id="patch_89">
    <path clip-path="url(#pda7f00c68b)" d="M 208.634856 192.24 
L 209.82444 192.24 
L 209.82444 192.24 
L 208.634856 192.24 
z
" style="fill:#871f78;opacity:0.35;"/>
   </g>
   <g id="patch_90">
    <path clip-path="url(#pda7f00c68b)" d="M 210.121836 192.24 
L 211.311421 192.24 
L 211.311421 192.24 
L 210.121836 192.24 
z
" style="fill:#871f78;opacity:0.35;"/>
   </g>
   <g id="patch_91">
    <path clip-path="url(#pda7f00c68b)" d="M 211.608817 192.24 
L 212.798401 192.24 
L 212.798401 192.24 
L 211.608817 192.24 
z
" style="fill:#871f78;opacity:0.35;"/>
   </g>
   <g id="patch_92">
    <path clip-path="url(#pda7f00c68b)" d="M 213.095797 192.24 
L 214.285381 192.24 
L 214.285381 192.24 
L 213.095797 192.24 
z
" style="fill:#871f78;opacity:0.35;"/>
   </g>
   <g id="patch_93">
    <path clip-path="url(#pda7f00c68b)" d="M 214.582778 192.24 
L 215.772362 192.24 
L 215.772362 192.24 
L 214.582778 192.24 
z
" style="fill:#871f78;opacity:0.35;"/>
   </g>
   <g id="patch_94">
    <path clip-path="url(#pda7f00c68b)" d="M 216.069758 192.24 
L 217.259342 192.24 
L 217.259342 192.24 
L 216.069758 192.24 
z
" style="fill:#871f78;opacity:0.35;"/>
   </g>
   <g id="patch_95">
    <path clip-path="url(#pda7f00c68b)" d="M 217.556738 192.24 
L 218.746323 192.24 
L 218.746323 192.24 
L 217.556738 192.24 
z
" style="fill:#871f78;opacity:0.35;"/>
   </g>
   <g id="patch_96">
    <path clip-path="url(#pda7f00c68b)" d="M 219.043719 192.24 
L 220.233303 192.24 
L 220.233303 181.713418 
L 219.043719 181.713418 
z
" style="fill:#871f78;opacity:0.35;"/>
   </g>
   <g id="patch_97">
    <path clip-path="url(#pda7f00c68b)" d="M 220.530699 192.24 
L 221.720283 192.24 
L 221.720283 171.186835 
L 220.530699 171.186835 
z
" style="fill:#871f78;opacity:0.35;"/>
   </g>
   <g id="patch_98">
    <path clip-path="url(#pda7f00c68b)" d="M 222.017679 192.24 
L 223.207264 192.24 
L 223.207264 160.660253 
L 222.017679 160.660253 
z
" style="fill:#871f78;opacity:0.35;"/>
   </g>
   <g id="patch_99">
    <path clip-path="url(#pda7f00c68b)" d="M 223.50466 192.24 
L 224.694244 192.24 
L 224.694244 181.713418 
L 223.50466 181.713418 
z
" style="fill:#871f78;opacity:0.35;"/>
   </g>
   <g id="patch_100">
    <path clip-path="url(#pda7f00c68b)" d="M 224.99164 192.24 
L 226.181224 192.24 
L 226.181224 192.24 
L 224.99164 192.24 
z
" style="fill:#871f78;opacity:0.35;"/>
   </g>
   <g id="patch_101">
    <path clip-path="url(#pda7f00c68b)" d="M 226.47862 192.24 
L 227.668205 192.24 
L 227.668205 192.24 
L 226.47862 192.24 
z
" style="fill:#871f78;opacity:0.35;"/>
   </g>
   <g id="patch_102">
    <path clip-path="url(#pda7f00c68b)" d="M 227.965601 192.24 
L 229.155185 192.24 
L 229.155185 181.713418 
L 227.965601 181.713418 
z
" style="fill:#871f78;opacity:0.35;"/>
   </g>
   <g id="patch_103">
    <path clip-path="url(#pda7f00c68b)" d="M 229.452581 192.24 
L 230.642165 192.24 
L 230.642165 181.713418 
L 229.452581 181.713418 
z
" style="fill:#871f78;opacity:0.35;"/>
   </g>
   <g id="patch_104">
    <path clip-path="url(#pda7f00c68b)" d="M 230.939561 192.24 
L 232.129146 192.24 
L 232.129146 181.713418 
L 230.939561 181.713418 
z
" style="fill:#871f78;opacity:0.35;"/>
   </g>
   <g id="patch_105">
    <path clip-path="url(#pda7f00c68b)" d="M 232.426542 192.24 
L 233.616126 192.24 
L 233.616126 192.24 
L 232.426542 192.24 
z
" style="fill:#871f78;opacity:0.35;"/>
   </g>
   <g id="patch_106">
    <path clip-path="url(#pda7f00c68b)" d="M 233.913522 192.24 
L 235.103106 192.24 
L 235.103106 181.713418 
L 233.913522 181.713418 
z
" style="fill:#871f78;opacity:0.35;"/>
   </g>
   <g id="patch_107">
    <path clip-path="url(#pda7f00c68b)" d="M 235.400503 192.24 
L 236.590087 192.24 
L 236.590087 192.24 
L 235.400503 192.24 
z
" style="fill:#871f78;opacity:0.35;"/>
   </g>
   <g id="patch_108">
    <path clip-path="url(#pda7f00c68b)" d="M 236.887483 192.24 
L 238.077067 192.24 
L 238.077067 192.24 
L 236.887483 192.24 
z
" style="fill:#871f78;opacity:0.35;"/>
   </g>
   <g id="patch_109">
    <path clip-path="url(#pda7f00c68b)" d="M 238.374463 192.24 
L 239.564048 192.24 
L 239.564048 192.24 
L 238.374463 192.24 
z
" style="fill:#871f78;opacity:0.35;"/>
   </g>
   <g id="patch_110">
    <path clip-path="url(#pda7f00c68b)" d="M 239.861444 192.24 
L 241.051028 192.24 
L 241.051028 192.24 
L 239.861444 192.24 
z
" style="fill:#871f78;opacity:0.35;"/>
   </g>
   <g id="patch_111">
    <path clip-path="url(#pda7f00c68b)" d="M 241.348424 192.24 
L 242.538008 192.24 
L 242.538008 192.24 
L 241.348424 192.24 
z
" style="fill:#871f78;opacity:0.35;"/>
   </g>
   <g id="patch_112">
    <path clip-path="url(#pda7f00c68b)" d="M 242.835404 192.24 
L 244.024989 192.24 
L 244.024989 192.24 
L 242.835404 192.24 
z
" style="fill:#871f78;opacity:0.35;"/>
   </g>
   <g id="patch_113">
    <path clip-path="url(#pda7f00c68b)" d="M 244.322385 192.24 
L 245.511969 192.24 
L 245.511969 192.24 
L 244.322385 192.24 
z
" style="fill:#871f78;opacity:0.35;"/>
   </g>
   <g id="patch_114">
    <path clip-path="url(#pda7f00c68b)" d="M 245.809365 192.24 
L 246.998949 192.24 
L 246.998949 192.24 
L 245.809365 192.24 
z
" style="fill:#871f78;opacity:0.35;"/>
   </g>
   <g id="patch_115">
    <path clip-path="url(#pda7f00c68b)" d="M 247.296345 192.24 
L 248.48593 192.24 
L 248.48593 181.713418 
L 247.296345 181.713418 
z
" style="fill:#871f78;opacity:0.35;"/>
   </g>
   <g id="patch_116">
    <path clip-path="url(#pda7f00c68b)" d="M 248.783326 192.24 
L 249.97291 192.24 
L 249.97291 181.713418 
L 248.783326 181.713418 
z
" style="fill:#871f78;opacity:0.35;"/>
   </g>
   <g id="patch_117">
    <path clip-path="url(#pda7f00c68b)" d="M 250.270306 192.24 
L 251.45989 192.24 
L 251.45989 192.24 
L 250.270306 192.24 
z
" style="fill:#871f78;opacity:0.35;"/>
   </g>
   <g id="patch_118">
    <path clip-path="url(#pda7f00c68b)" d="M 251.757286 192.24 
L 252.946871 192.24 
L 252.946871 192.24 
L 251.757286 192.24 
z
" style="fill:#871f78;opacity:0.35;"/>
   </g>
   <g id="patch_119">
    <path clip-path="url(#pda7f00c68b)" d="M 253.244267 192.24 
L 254.433851 192.24 
L 254.433851 192.24 
L 253.244267 192.24 
z
" style="fill:#871f78;opacity:0.35;"/>
   </g>
   <g id="patch_120">
    <path clip-path="url(#pda7f00c68b)" d="M 254.731247 192.24 
L 255.920831 192.24 
L 255.920831 192.24 
L 254.731247 192.24 
z
" style="fill:#871f78;opacity:0.35;"/>
   </g>
   <g id="patch_121">
    <path clip-path="url(#pda7f00c68b)" d="M 256.218228 192.24 
L 257.407812 192.24 
L 257.407812 181.713418 
L 256.218228 181.713418 
z
" style="fill:#871f78;opacity:0.35;"/>
   </g>
   <g id="patch_122">
    <path clip-path="url(#pda7f00c68b)" d="M 257.705208 192.24 
L 258.894792 192.24 
L 258.894792 192.24 
L 257.705208 192.24 
z
" style="fill:#871f78;opacity:0.35;"/>
   </g>
   <g id="patch_123">
    <path clip-path="url(#pda7f00c68b)" d="M 259.192188 192.24 
L 260.381772 192.24 
L 260.381772 192.24 
L 259.192188 192.24 
z
" style="fill:#871f78;opacity:0.35;"/>
   </g>
   <g id="patch_124">
    <path clip-path="url(#pda7f00c68b)" d="M 260.679169 192.24 
L 261.868753 192.24 
L 261.868753 192.24 
L 260.679169 192.24 
z
" style="fill:#871f78;opacity:0.35;"/>
   </g>
   <g id="patch_125">
    <path clip-path="url(#pda7f00c68b)" d="M 262.166149 192.24 
L 263.355733 192.24 
L 263.355733 192.24 
L 262.166149 192.24 
z
" style="fill:#871f78;opacity:0.35;"/>
   </g>
   <g id="patch_126">
    <path clip-path="url(#pda7f00c68b)" d="M 263.653129 192.24 
L 264.842714 192.24 
L 264.842714 192.24 
L 263.653129 192.24 
z
" style="fill:#871f78;opacity:0.35;"/>
   </g>
   <g id="patch_127">
    <path clip-path="url(#pda7f00c68b)" d="M 265.14011 192.24 
L 266.329694 192.24 
L 266.329694 192.24 
L 265.14011 192.24 
z
" style="fill:#871f78;opacity:0.35;"/>
   </g>
   <g id="patch_128">
    <path clip-path="url(#pda7f00c68b)" d="M 266.62709 192.24 
L 267.816674 192.24 
L 267.816674 192.24 
L 266.62709 192.24 
z
" style="fill:#871f78;opacity:0.35;"/>
   </g>
   <g id="patch_129">
    <path clip-path="url(#pda7f00c68b)" d="M 268.11407 192.24 
L 269.303655 192.24 
L 269.303655 192.24 
L 268.11407 192.24 
z
" style="fill:#871f78;opacity:0.35;"/>
   </g>
   <g id="patch_130">
    <path clip-path="url(#pda7f00c68b)" d="M 269.601051 192.24 
L 270.790635 192.24 
L 270.790635 192.24 
L 269.601051 192.24 
z
" style="fill:#871f78;opacity:0.35;"/>
   </g>
   <g id="patch_131">
    <path clip-path="url(#pda7f00c68b)" d="M 271.088031 192.24 
L 272.277615 192.24 
L 272.277615 192.24 
L 271.088031 192.24 
z
" style="fill:#871f78;opacity:0.35;"/>
   </g>
   <g id="patch_132">
    <path clip-path="url(#pda7f00c68b)" d="M 272.575011 192.24 
L 273.764596 192.24 
L 273.764596 192.24 
L 272.575011 192.24 
z
" style="fill:#871f78;opacity:0.35;"/>
   </g>
   <g id="patch_133">
    <path clip-path="url(#pda7f00c68b)" d="M 274.061992 192.24 
L 275.251576 192.24 
L 275.251576 181.713418 
L 274.061992 181.713418 
z
" style="fill:#871f78;opacity:0.35;"/>
   </g>
   <g id="patch_134">
    <path clip-path="url(#pda7f00c68b)" d="M 275.548972 192.24 
L 276.738556 192.24 
L 276.738556 181.713418 
L 275.548972 181.713418 
z
" style="fill:#871f78;opacity:0.35;"/>
   </g>
   <g id="patch_135">
    <path clip-path="url(#pda7f00c68b)" d="M 277.035952 192.24 
L 278.225537 192.24 
L 278.225537 192.24 
L 277.035952 192.24 
z
" style="fill:#871f78;opacity:0.35;"/>
   </g>
   <g id="patch_136">
    <path clip-path="url(#pda7f00c68b)" d="M 278.522933 192.24 
L 279.712517 192.24 
L 279.712517 192.24 
L 278.522933 192.24 
z
" style="fill:#871f78;opacity:0.35;"/>
   </g>
   <g id="patch_137">
    <path clip-path="url(#pda7f00c68b)" d="M 280.009913 192.24 
L 281.199497 192.24 
L 281.199497 192.24 
L 280.009913 192.24 
z
" style="fill:#871f78;opacity:0.35;"/>
   </g>
   <g id="patch_138">
    <path clip-path="url(#pda7f00c68b)" d="M 281.496894 192.24 
L 282.686478 192.24 
L 282.686478 192.24 
L 281.496894 192.24 
z
" style="fill:#871f78;opacity:0.35;"/>
   </g>
   <g id="patch_139">
    <path clip-path="url(#pda7f00c68b)" d="M 282.983874 192.24 
L 284.173458 192.24 
L 284.173458 192.24 
L 282.983874 192.24 
z
" style="fill:#871f78;opacity:0.35;"/>
   </g>
   <g id="patch_140">
    <path clip-path="url(#pda7f00c68b)" d="M 284.470854 192.24 
L 285.660439 192.24 
L 285.660439 192.24 
L 284.470854 192.24 
z
" style="fill:#871f78;opacity:0.35;"/>
   </g>
   <g id="patch_141">
    <path clip-path="url(#pda7f00c68b)" d="M 285.957835 192.24 
L 287.147419 192.24 
L 287.147419 192.24 
L 285.957835 192.24 
z
" style="fill:#871f78;opacity:0.35;"/>
   </g>
   <g id="patch_142">
    <path clip-path="url(#pda7f00c68b)" d="M 287.444815 192.24 
L 288.634399 192.24 
L 288.634399 192.24 
L 287.444815 192.24 
z
" style="fill:#871f78;opacity:0.35;"/>
   </g>
   <g id="patch_143">
    <path clip-path="url(#pda7f00c68b)" d="M 288.931795 192.24 
L 290.12138 192.24 
L 290.12138 192.24 
L 288.931795 192.24 
z
" style="fill:#871f78;opacity:0.35;"/>
   </g>
   <g id="patch_144">
    <path clip-path="url(#pda7f00c68b)" d="M 290.418776 192.24 
L 291.60836 192.24 
L 291.60836 181.713418 
L 290.418776 181.713418 
z
" style="fill:#871f78;opacity:0.35;"/>
   </g>
   <g id="patch_145">
    <path clip-path="url(#pda7f00c68b)" d="M 291.905756 192.24 
L 293.09534 192.24 
L 293.09534 160.660253 
L 291.905756 160.660253 
z
" style="fill:#871f78;opacity:0.35;"/>
   </g>
   <g id="patch_146">
    <path clip-path="url(#pda7f00c68b)" d="M 293.392736 192.24 
L 294.582321 192.24 
L 294.582321 192.24 
L 293.392736 192.24 
z
" style="fill:#871f78;opacity:0.35;"/>
   </g>
   <g id="patch_147">
    <path clip-path="url(#pda7f00c68b)" d="M 294.879717 192.24 
L 296.069301 192.24 
L 296.069301 192.24 
L 294.879717 192.24 
z
" style="fill:#871f78;opacity:0.35;"/>
   </g>
   <g id="patch_148">
    <path clip-path="url(#pda7f00c68b)" d="M 296.366697 192.24 
L 297.556281 192.24 
L 297.556281 202.766582 
L 296.366697 202.766582 
z
" style="fill:#871f78;opacity:0.35;"/>
   </g>
   <g id="patch_149">
    <path clip-path="url(#pda7f00c68b)" d="M 297.853677 192.24 
L 299.043262 192.24 
L 299.043262 181.713418 
L 297.853677 181.713418 
z
" style="fill:#871f78;opacity:0.35;"/>
   </g>
   <g id="patch_150">
    <path clip-path="url(#pda7f00c68b)" d="M 299.340658 192.24 
L 300.530242 192.24 
L 300.530242 192.24 
L 299.340658 192.24 
z
" style="fill:#871f78;opacity:0.35;"/>
   </g>
   <g id="patch_151">
    <path clip-path="url(#pda7f00c68b)" d="M 300.827638 192.24 
L 302.017222 192.24 
L 302.017222 192.24 
L 300.827638 192.24 
z
" style="fill:#871f78;opacity:0.35;"/>
   </g>
   <g id="patch_152">
    <path clip-path="url(#pda7f00c68b)" d="M 302.314619 192.24 
L 303.504203 192.24 
L 303.504203 192.24 
L 302.314619 192.24 
z
" style="fill:#871f78;opacity:0.35;"/>
   </g>
   <g id="patch_153">
    <path clip-path="url(#pda7f00c68b)" d="M 303.801599 192.24 
L 304.991183 192.24 
L 304.991183 192.24 
L 303.801599 192.24 
z
" style="fill:#871f78;opacity:0.35;"/>
   </g>
   <g id="patch_154">
    <path clip-path="url(#pda7f00c68b)" d="M 305.288579 192.24 
L 306.478164 192.24 
L 306.478164 192.24 
L 305.288579 192.24 
z
" style="fill:#871f78;opacity:0.35;"/>
   </g>
   <g id="patch_155">
    <path clip-path="url(#pda7f00c68b)" d="M 306.77556 192.24 
L 307.965144 192.24 
L 307.965144 192.24 
L 306.77556 192.24 
z
" style="fill:#871f78;opacity:0.35;"/>
   </g>
   <g id="patch_156">
    <path clip-path="url(#pda7f00c68b)" d="M 308.26254 192.24 
L 309.452124 192.24 
L 309.452124 192.24 
L 308.26254 192.24 
z
" style="fill:#871f78;opacity:0.35;"/>
   </g>
   <g id="patch_157">
    <path clip-path="url(#pda7f00c68b)" d="M 309.74952 192.24 
L 310.939105 192.24 
L 310.939105 192.24 
L 309.74952 192.24 
z
" style="fill:#871f78;opacity:0.35;"/>
   </g>
   <g id="patch_158">
    <path clip-path="url(#pda7f00c68b)" d="M 311.236501 192.24 
L 312.426085 192.24 
L 312.426085 171.186835 
L 311.236501 171.186835 
z
" style="fill:#871f78;opacity:0.35;"/>
   </g>
   <g id="patch_159">
    <path clip-path="url(#pda7f00c68b)" d="M 312.723481 192.24 
L 313.913065 192.24 
L 313.913065 192.24 
L 312.723481 192.24 
z
" style="fill:#871f78;opacity:0.35;"/>
   </g>
   <g id="patch_160">
    <path clip-path="url(#pda7f00c68b)" d="M 314.210461 192.24 
L 315.400046 192.24 
L 315.400046 181.713418 
L 314.210461 181.713418 
z
" style="fill:#871f78;opacity:0.35;"/>
   </g>
   <g id="patch_161">
    <path clip-path="url(#pda7f00c68b)" d="M 315.697442 192.24 
L 316.887026 192.24 
L 316.887026 192.24 
L 315.697442 192.24 
z
" style="fill:#871f78;opacity:0.35;"/>
   </g>
   <g id="patch_162">
    <path clip-path="url(#pda7f00c68b)" d="M 317.184422 192.24 
L 318.374006 192.24 
L 318.374006 192.24 
L 317.184422 192.24 
z
" style="fill:#871f78;opacity:0.35;"/>
   </g>
   <g id="patch_163">
    <path clip-path="url(#pda7f00c68b)" d="M 318.671402 192.24 
L 319.860987 192.24 
L 319.860987 192.24 
L 318.671402 192.24 
z
" style="fill:#871f78;opacity:0.35;"/>
   </g>
   <g id="patch_164">
    <path clip-path="url(#pda7f00c68b)" d="M 320.158383 192.24 
L 321.347967 192.24 
L 321.347967 181.713418 
L 320.158383 181.713418 
z
" style="fill:#871f78;opacity:0.35;"/>
   </g>
   <g id="patch_165">
    <path clip-path="url(#pda7f00c68b)" d="M 321.645363 192.24 
L 322.834947 192.24 
L 322.834947 192.24 
L 321.645363 192.24 
z
" style="fill:#871f78;opacity:0.35;"/>
   </g>
   <g id="patch_166">
    <path clip-path="url(#pda7f00c68b)" d="M 323.132344 192.24 
L 324.321928 192.24 
L 324.321928 192.24 
L 323.132344 192.24 
z
" style="fill:#871f78;opacity:0.35;"/>
   </g>
   <g id="patch_167">
    <path clip-path="url(#pda7f00c68b)" d="M 324.619324 192.24 
L 325.808908 192.24 
L 325.808908 192.24 
L 324.619324 192.24 
z
" style="fill:#871f78;opacity:0.35;"/>
   </g>
   <g id="patch_168">
    <path clip-path="url(#pda7f00c68b)" d="M 326.106304 192.24 
L 327.295889 192.24 
L 327.295889 192.24 
L 326.106304 192.24 
z
" style="fill:#871f78;opacity:0.35;"/>
   </g>
   <g id="patch_169">
    <path clip-path="url(#pda7f00c68b)" d="M 327.593285 192.24 
L 328.782869 192.24 
L 328.782869 192.24 
L 327.593285 192.24 
z
" style="fill:#871f78;opacity:0.35;"/>
   </g>
   <g id="patch_170">
    <path clip-path="url(#pda7f00c68b)" d="M 329.080265 192.24 
L 330.269849 192.24 
L 330.269849 192.24 
L 329.080265 192.24 
z
" style="fill:#871f78;opacity:0.35;"/>
   </g>
   <g id="patch_171">
    <path clip-path="url(#pda7f00c68b)" d="M 330.567245 192.24 
L 331.75683 192.24 
L 331.75683 192.24 
L 330.567245 192.24 
z
" style="fill:#871f78;opacity:0.35;"/>
   </g>
   <g id="patch_172">
    <path clip-path="url(#pda7f00c68b)" d="M 332.054226 192.24 
L 333.24381 192.24 
L 333.24381 192.24 
L 332.054226 192.24 
z
" style="fill:#871f78;opacity:0.35;"/>
   </g>
   <g id="patch_173">
    <path clip-path="url(#pda7f00c68b)" d="M 333.541206 192.24 
L 334.73079 192.24 
L 334.73079 181.713418 
L 333.541206 181.713418 
z
" style="fill:#871f78;opacity:0.35;"/>
   </g>
   <g id="patch_174">
    <path clip-path="url(#pda7f00c68b)" d="M 335.028186 192.24 
L 336.217771 192.24 
L 336.217771 192.24 
L 335.028186 192.24 
z
" style="fill:#871f78;opacity:0.35;"/>
   </g>
   <g id="patch_175">
    <path clip-path="url(#pda7f00c68b)" d="M 336.515167 192.24 
L 337.704751 192.24 
L 337.704751 192.24 
L 336.515167 192.24 
z
" style="fill:#871f78;opacity:0.35;"/>
   </g>
   <g id="patch_176">
    <path clip-path="url(#pda7f00c68b)" d="M 338.002147 192.24 
L 339.191731 192.24 
L 339.191731 192.24 
L 338.002147 192.24 
z
" style="fill:#871f78;opacity:0.35;"/>
   </g>
   <g id="patch_177">
    <path clip-path="url(#pda7f00c68b)" d="M 339.489127 192.24 
L 340.678712 192.24 
L 340.678712 192.24 
L 339.489127 192.24 
z
" style="fill:#871f78;opacity:0.35;"/>
   </g>
   <g id="patch_178">
    <path clip-path="url(#pda7f00c68b)" d="M 340.976108 192.24 
L 342.165692 192.24 
L 342.165692 192.24 
L 340.976108 192.24 
z
" style="fill:#871f78;opacity:0.35;"/>
   </g>
   <g id="patch_179">
    <path clip-path="url(#pda7f00c68b)" d="M 342.463088 192.24 
L 343.652672 192.24 
L 343.652672 192.24 
L 342.463088 192.24 
z
" style="fill:#871f78;opacity:0.35;"/>
   </g>
   <g id="patch_180">
    <path clip-path="url(#pda7f00c68b)" d="M 343.950069 192.24 
L 345.139653 192.24 
L 345.139653 192.24 
L 343.950069 192.24 
z
" style="fill:#871f78;opacity:0.35;"/>
   </g>
   <g id="patch_181">
    <path clip-path="url(#pda7f00c68b)" d="M 345.437049 192.24 
L 346.626633 192.24 
L 346.626633 192.24 
L 345.437049 192.24 
z
" style="fill:#871f78;opacity:0.35;"/>
   </g>
   <g id="patch_182">
    <path clip-path="url(#pda7f00c68b)" d="M 346.924029 192.24 
L 348.113614 192.24 
L 348.113614 181.713418 
L 346.924029 181.713418 
z
" style="fill:#871f78;opacity:0.35;"/>
   </g>
   <g id="patch_183">
    <path clip-path="url(#pda7f00c68b)" d="M 348.41101 192.24 
L 349.600594 192.24 
L 349.600594 192.24 
L 348.41101 192.24 
z
" style="fill:#871f78;opacity:0.35;"/>
   </g>
   <g id="patch_184">
    <path clip-path="url(#pda7f00c68b)" d="M 349.89799 192.24 
L 351.087574 192.24 
L 351.087574 181.713418 
L 349.89799 181.713418 
z
" style="fill:#871f78;opacity:0.35;"/>
   </g>
   <g id="patch_185">
    <path clip-path="url(#pda7f00c68b)" d="M 351.38497 192.24 
L 352.574555 192.24 
L 352.574555 192.24 
L 351.38497 192.24 
z
" style="fill:#871f78;opacity:0.35;"/>
   </g>
   <g id="patch_186">
    <path clip-path="url(#pda7f00c68b)" d="M 352.871951 192.24 
L 354.061535 192.24 
L 354.061535 181.713418 
L 352.871951 181.713418 
z
" style="fill:#871f78;opacity:0.35;"/>
   </g>
   <g id="patch_187">
    <path clip-path="url(#pda7f00c68b)" d="M 354.358931 192.24 
L 355.548515 192.24 
L 355.548515 192.24 
L 354.358931 192.24 
z
" style="fill:#871f78;opacity:0.35;"/>
   </g>
   <g id="patch_188">
    <path clip-path="url(#pda7f00c68b)" d="M 355.845911 192.24 
L 357.035496 192.24 
L 357.035496 181.713418 
L 355.845911 181.713418 
z
" style="fill:#871f78;opacity:0.35;"/>
   </g>
   <g id="patch_189">
    <path clip-path="url(#pda7f00c68b)" d="M 357.332892 192.24 
L 358.522476 192.24 
L 358.522476 192.24 
L 357.332892 192.24 
z
" style="fill:#871f78;opacity:0.35;"/>
   </g>
   <g id="patch_190">
    <path clip-path="url(#pda7f00c68b)" d="M 358.819872 192.24 
L 360.009456 192.24 
L 360.009456 181.713418 
L 358.819872 181.713418 
z
" style="fill:#871f78;opacity:0.35;"/>
   </g>
   <g id="patch_191">
    <path clip-path="url(#pda7f00c68b)" d="M 360.306852 192.24 
L 361.496437 192.24 
L 361.496437 181.713418 
L 360.306852 181.713418 
z
" style="fill:#871f78;opacity:0.35;"/>
   </g>
   <g id="patch_192">
    <path clip-path="url(#pda7f00c68b)" d="M 361.793833 192.24 
L 362.983417 192.24 
L 362.983417 171.186835 
L 361.793833 171.186835 
z
" style="fill:#871f78;opacity:0.35;"/>
   </g>
   <g id="patch_193">
    <path clip-path="url(#pda7f00c68b)" d="M 363.280813 192.24 
L 364.470397 192.24 
L 364.470397 181.713418 
L 363.280813 181.713418 
z
" style="fill:#871f78;opacity:0.35;"/>
   </g>
   <g id="patch_194">
    <path clip-path="url(#pda7f00c68b)" d="M 364.767794 192.24 
L 365.957378 192.24 
L 365.957378 192.24 
L 364.767794 192.24 
z
" style="fill:#871f78;opacity:0.35;"/>
   </g>
   <g id="patch_195">
    <path clip-path="url(#pda7f00c68b)" d="M 366.254774 192.24 
L 367.444358 192.24 
L 367.444358 192.24 
L 366.254774 192.24 
z
" style="fill:#871f78;opacity:0.35;"/>
   </g>
   <g id="patch_196">
    <path clip-path="url(#pda7f00c68b)" d="M 367.741754 192.24 
L 368.931339 192.24 
L 368.931339 181.713418 
L 367.741754 181.713418 
z
" style="fill:#871f78;opacity:0.35;"/>
   </g>
   <g id="patch_197">
    <path clip-path="url(#pda7f00c68b)" d="M 369.228735 192.24 
L 370.418319 192.24 
L 370.418319 192.24 
L 369.228735 192.24 
z
" style="fill:#871f78;opacity:0.35;"/>
   </g>
   <g id="patch_198">
    <path clip-path="url(#pda7f00c68b)" d="M 370.715715 192.24 
L 371.905299 192.24 
L 371.905299 192.24 
L 370.715715 192.24 
z
" style="fill:#871f78;opacity:0.35;"/>
   </g>
   <g id="patch_199">
    <path clip-path="url(#pda7f00c68b)" d="M 372.202695 192.24 
L 373.39228 192.24 
L 373.39228 171.186835 
L 372.202695 171.186835 
z
" style="fill:#871f78;opacity:0.35;"/>
   </g>
   <g id="patch_200">
    <path clip-path="url(#pda7f00c68b)" d="M 373.689676 192.24 
L 374.87926 192.24 
L 374.87926 181.713418 
L 373.689676 181.713418 
z
" style="fill:#871f78;opacity:0.35;"/>
   </g>
   <g id="patch_201">
    <path clip-path="url(#pda7f00c68b)" d="M 375.176656 192.24 
L 376.36624 192.24 
L 376.36624 192.24 
L 375.176656 192.24 
z
" style="fill:#871f78;opacity:0.35;"/>
   </g>
   <g id="patch_202">
    <path clip-path="url(#pda7f00c68b)" d="M 376.663636 192.24 
L 377.853221 192.24 
L 377.853221 181.713418 
L 376.663636 181.713418 
z
" style="fill:#871f78;opacity:0.35;"/>
   </g>
   <g id="patch_203">
    <path clip-path="url(#pda7f00c68b)" d="M 378.150617 192.24 
L 379.340201 192.24 
L 379.340201 181.713418 
L 378.150617 181.713418 
z
" style="fill:#871f78;opacity:0.35;"/>
   </g>
   <g id="patch_204">
    <path clip-path="url(#pda7f00c68b)" d="M 379.637597 192.24 
L 380.827181 192.24 
L 380.827181 181.713418 
L 379.637597 181.713418 
z
" style="fill:#871f78;opacity:0.35;"/>
   </g>
   <g id="patch_205">
    <path clip-path="url(#pda7f00c68b)" d="M 381.124577 192.24 
L 382.314162 192.24 
L 382.314162 192.24 
L 381.124577 192.24 
z
" style="fill:#871f78;opacity:0.35;"/>
   </g>
   <g id="patch_206">
    <path clip-path="url(#pda7f00c68b)" d="M 382.611558 192.24 
L 383.801142 192.24 
L 383.801142 192.24 
L 382.611558 192.24 
z
" style="fill:#871f78;opacity:0.35;"/>
   </g>
   <g id="patch_207">
    <path clip-path="url(#pda7f00c68b)" d="M 384.098538 192.24 
L 385.288122 192.24 
L 385.288122 192.24 
L 384.098538 192.24 
z
" style="fill:#871f78;opacity:0.35;"/>
   </g>
   <g id="patch_208">
    <path clip-path="url(#pda7f00c68b)" d="M 385.585519 192.24 
L 386.775103 192.24 
L 386.775103 192.24 
L 385.585519 192.24 
z
" style="fill:#871f78;opacity:0.35;"/>
   </g>
   <g id="patch_209">
    <path clip-path="url(#pda7f00c68b)" d="M 387.072499 192.24 
L 388.262083 192.24 
L 388.262083 181.713418 
L 387.072499 181.713418 
z
" style="fill:#871f78;opacity:0.35;"/>
   </g>
   <g id="patch_210">
    <path clip-path="url(#pda7f00c68b)" d="M 388.559479 192.24 
L 389.749063 192.24 
L 389.749063 181.713418 
L 388.559479 181.713418 
z
" style="fill:#871f78;opacity:0.35;"/>
   </g>
   <g id="patch_211">
    <path clip-path="url(#pda7f00c68b)" d="M 390.04646 192.24 
L 391.236044 192.24 
L 391.236044 181.713418 
L 390.04646 181.713418 
z
" style="fill:#871f78;opacity:0.35;"/>
   </g>
   <g id="patch_212">
    <path clip-path="url(#pda7f00c68b)" d="M 391.53344 192.24 
L 392.723024 192.24 
L 392.723024 181.713418 
L 391.53344 181.713418 
z
" style="fill:#871f78;opacity:0.35;"/>
   </g>
   <g id="patch_213">
    <path clip-path="url(#pda7f00c68b)" d="M 393.02042 192.24 
L 394.210005 192.24 
L 394.210005 202.766582 
L 393.02042 202.766582 
z
" style="fill:#871f78;opacity:0.35;"/>
   </g>
   <g id="patch_214">
    <path clip-path="url(#pda7f00c68b)" d="M 394.507401 192.24 
L 395.696985 192.24 
L 395.696985 192.24 
L 394.507401 192.24 
z
" style="fill:#871f78;opacity:0.35;"/>
   </g>
   <g id="patch_215">
    <path clip-path="url(#pda7f00c68b)" d="M 395.994381 192.24 
L 397.183965 192.24 
L 397.183965 171.186835 
L 395.994381 171.186835 
z
" style="fill:#871f78;opacity:0.35;"/>
   </g>
   <g id="patch_216">
    <path clip-path="url(#pda7f00c68b)" d="M 397.481361 192.24 
L 398.670946 192.24 
L 398.670946 171.186835 
L 397.481361 171.186835 
z
" style="fill:#871f78;opacity:0.35;"/>
   </g>
   <g id="patch_217">
    <path clip-path="url(#pda7f00c68b)" d="M 398.968342 192.24 
L 400.157926 192.24 
L 400.157926 171.186835 
L 398.968342 171.186835 
z
" style="fill:#871f78;opacity:0.35;"/>
   </g>
   <g id="patch_218">
    <path clip-path="url(#pda7f00c68b)" d="M 400.455322 192.24 
L 401.644906 192.24 
L 401.644906 181.713418 
L 400.455322 181.713418 
z
" style="fill:#871f78;opacity:0.35;"/>
   </g>
   <g id="patch_219">
    <path clip-path="url(#pda7f00c68b)" d="M 401.942302 192.24 
L 403.131887 192.24 
L 403.131887 181.713418 
L 401.942302 181.713418 
z
" style="fill:#871f78;opacity:0.35;"/>
   </g>
   <g id="patch_220">
    <path clip-path="url(#pda7f00c68b)" d="M 403.429283 192.24 
L 404.618867 192.24 
L 404.618867 181.713418 
L 403.429283 181.713418 
z
" style="fill:#871f78;opacity:0.35;"/>
   </g>
   <g id="patch_221">
    <path clip-path="url(#pda7f00c68b)" d="M 404.916263 192.24 
L 406.105847 192.24 
L 406.105847 171.186835 
L 404.916263 171.186835 
z
" style="fill:#871f78;opacity:0.35;"/>
   </g>
   <g id="patch_222">
    <path clip-path="url(#pda7f00c68b)" d="M 406.403243 192.24 
L 407.592828 192.24 
L 407.592828 171.186835 
L 406.403243 171.186835 
z
" style="fill:#871f78;opacity:0.35;"/>
   </g>
   <g id="patch_223">
    <path clip-path="url(#pda7f00c68b)" d="M 407.890224 192.24 
L 409.079808 192.24 
L 409.079808 160.660253 
L 407.890224 160.660253 
z
" style="fill:#871f78;opacity:0.35;"/>
   </g>
   <g id="patch_224">
    <path clip-path="url(#pda7f00c68b)" d="M 409.377204 192.24 
L 410.566788 192.24 
L 410.566788 171.186835 
L 409.377204 171.186835 
z
" style="fill:#871f78;opacity:0.35;"/>
   </g>
   <g id="patch_225">
    <path clip-path="url(#pda7f00c68b)" d="M 410.864185 192.24 
L 412.053769 192.24 
L 412.053769 139.607089 
L 410.864185 139.607089 
z
" style="fill:#871f78;opacity:0.35;"/>
   </g>
   <g id="patch_226">
    <path clip-path="url(#pda7f00c68b)" d="M 412.351165 192.24 
L 413.540749 192.24 
L 413.540749 171.186835 
L 412.351165 171.186835 
z
" style="fill:#871f78;opacity:0.35;"/>
   </g>
   <g id="patch_227">
    <path clip-path="url(#pda7f00c68b)" d="M 413.838145 192.24 
L 415.02773 192.24 
L 415.02773 171.186835 
L 413.838145 171.186835 
z
" style="fill:#871f78;opacity:0.35;"/>
   </g>
   <g id="patch_228">
    <path clip-path="url(#pda7f00c68b)" d="M 415.325126 192.24 
L 416.51471 192.24 
L 416.51471 150.133671 
L 415.325126 150.133671 
z
" style="fill:#871f78;opacity:0.35;"/>
   </g>
   <g id="patch_229">
    <path clip-path="url(#pda7f00c68b)" d="M 416.812106 192.24 
L 418.00169 192.24 
L 418.00169 192.24 
L 416.812106 192.24 
z
" style="fill:#871f78;opacity:0.35;"/>
   </g>
   <g id="patch_230">
    <path clip-path="url(#pda7f00c68b)" d="M 418.299086 192.24 
L 419.488671 192.24 
L 419.488671 150.133671 
L 418.299086 150.133671 
z
" style="fill:#871f78;opacity:0.35;"/>
   </g>
   <g id="patch_231">
    <path clip-path="url(#pda7f00c68b)" d="M 419.786067 192.24 
L 420.975651 192.24 
L 420.975651 129.080506 
L 419.786067 129.080506 
z
" style="fill:#871f78;opacity:0.35;"/>
   </g>
   <g id="patch_232">
    <path clip-path="url(#pda7f00c68b)" d="M 421.273047 192.24 
L 422.462631 192.24 
L 422.462631 97.500759 
L 421.273047 97.500759 
z
" style="fill:#871f78;opacity:0.35;"/>
   </g>
   <g id="patch_233">
    <path clip-path="url(#pda7f00c68b)" d="M 422.760027 192.24 
L 423.949612 192.24 
L 423.949612 34.341266 
L 422.760027 34.341266 
z
" style="fill:#871f78;opacity:0.35;"/>
   </g>
   <g id="patch_234">
    <path clip-path="url(#pda7f00c68b)" d="M 424.247008 192.24 
L 425.436592 192.24 
L 425.436592 160.660253 
L 424.247008 160.660253 
z
" style="fill:#871f78;opacity:0.35;"/>
   </g>
   <g id="patch_235">
    <path clip-path="url(#pda7f00c68b)" d="M 425.733988 192.24 
L 426.923572 192.24 
L 426.923572 139.607089 
L 425.733988 139.607089 
z
" style="fill:#871f78;opacity:0.35;"/>
   </g>
   <g id="patch_236">
    <path clip-path="url(#pda7f00c68b)" d="M 427.220968 192.24 
L 428.410553 192.24 
L 428.410553 139.607089 
L 427.220968 139.607089 
z
" style="fill:#871f78;opacity:0.35;"/>
   </g>
   <g id="patch_237">
    <path clip-path="url(#pda7f00c68b)" d="M 428.707949 192.24 
L 429.897533 192.24 
L 429.897533 160.660253 
L 428.707949 160.660253 
z
" style="fill:#871f78;opacity:0.35;"/>
   </g>
   <g id="patch_238">
    <path clip-path="url(#pda7f00c68b)" d="M 430.194929 192.24 
L 431.384513 192.24 
L 431.384513 129.080506 
L 430.194929 129.080506 
z
" style="fill:#871f78;opacity:0.35;"/>
   </g>
   <g id="patch_239">
    <path clip-path="url(#pda7f00c68b)" d="M 431.68191 192.24 
L 432.871494 192.24 
L 432.871494 108.027342 
L 431.68191 108.027342 
z
" style="fill:#871f78;opacity:0.35;"/>
   </g>
   <g id="patch_240">
    <path clip-path="url(#pda7f00c68b)" d="M 433.16889 192.24 
L 434.358474 192.24 
L 434.358474 160.660253 
L 433.16889 160.660253 
z
" style="fill:#871f78;opacity:0.35;"/>
   </g>
   <g id="patch_241">
    <path clip-path="url(#pda7f00c68b)" d="M 434.65587 192.24 
L 435.845455 192.24 
L 435.845455 118.553924 
L 434.65587 118.553924 
z
" style="fill:#871f78;opacity:0.35;"/>
   </g>
   <g id="line2d_25">
    <path clip-path="url(#pda7f00c68b)" d="M 90.27122 189.232405 
L 91.7582 189.232405 
L 93.24518 187.728608 
L 102.167063 187.728608 
L 103.654043 189.232405 
L 105.141023 189.232405 
L 106.628004 190.736203 
L 109.601964 190.736203 
L 111.088945 192.24 
L 112.575925 192.24 
L 114.062905 190.736203 
L 115.549886 190.736203 
L 120.010827 186.22481 
L 122.984788 186.22481 
L 124.471768 187.728608 
L 125.958748 187.728608 
L 127.445729 189.232405 
L 128.932709 189.232405 
L 130.419689 192.24 
L 131.90667 190.736203 
L 136.367611 190.736203 
L 137.854591 189.232405 
L 139.341571 190.736203 
L 140.828552 189.232405 
L 142.315532 190.736203 
L 145.289493 190.736203 
L 146.776473 189.232405 
L 155.698355 189.232405 
L 158.672316 192.24 
L 160.159296 189.232405 
L 169.081179 189.232405 
L 170.568159 192.24 
L 172.055139 190.736203 
L 179.490041 190.736203 
L 180.977021 187.728608 
L 182.464002 189.232405 
L 186.924943 189.232405 
L 188.411923 187.728608 
L 189.898904 187.728608 
L 191.385884 190.736203 
L 195.846825 190.736203 
L 197.333805 189.232405 
L 198.820786 186.22481 
L 200.307766 184.721013 
L 206.255688 184.721013 
L 207.742668 187.728608 
L 209.229648 192.24 
L 210.716629 193.743797 
L 216.66455 193.743797 
L 219.638511 190.736203 
L 221.125491 187.728608 
L 222.612471 183.217215 
L 224.099452 181.713418 
L 227.073413 181.713418 
L 228.560393 180.20962 
L 230.047373 180.20962 
L 231.534354 181.713418 
L 233.021334 186.22481 
L 237.482275 186.22481 
L 241.943216 190.736203 
L 243.430196 190.736203 
L 244.917177 192.24 
L 246.404157 192.24 
L 249.378118 189.232405 
L 255.326039 189.232405 
L 256.81302 187.728608 
L 259.78698 190.736203 
L 265.734902 190.736203 
L 267.221882 192.24 
L 273.169804 192.24 
L 276.143764 189.232405 
L 283.578666 189.232405 
L 286.552627 192.24 
L 289.526587 192.24 
L 291.013568 190.736203 
L 292.500548 186.22481 
L 295.474509 186.22481 
L 296.961489 187.728608 
L 298.44847 186.22481 
L 299.93545 186.22481 
L 301.42243 187.728608 
L 302.909411 192.24 
L 305.883371 192.24 
L 307.370352 190.736203 
L 308.857332 192.24 
L 310.344312 192.24 
L 311.831293 189.232405 
L 313.318273 189.232405 
L 314.805254 187.728608 
L 319.266195 187.728608 
L 320.753175 186.22481 
L 322.240155 189.232405 
L 323.727136 189.232405 
L 325.214116 190.736203 
L 329.675057 190.736203 
L 331.162037 192.24 
L 332.649018 192.24 
L 334.135998 190.736203 
L 343.05788 190.736203 
L 344.544861 192.24 
L 346.031841 192.24 
L 347.518821 190.736203 
L 349.005802 190.736203 
L 350.492782 189.232405 
L 351.979762 189.232405 
L 353.466743 187.728608 
L 354.953723 187.728608 
L 356.440704 186.22481 
L 357.927684 187.728608 
L 359.414664 186.22481 
L 360.901645 186.22481 
L 362.388625 183.217215 
L 365.362586 183.217215 
L 366.849566 184.721013 
L 368.336546 183.217215 
L 371.310507 186.22481 
L 375.771448 186.22481 
L 377.258429 184.721013 
L 378.745409 184.721013 
L 380.232389 183.217215 
L 381.71937 183.217215 
L 383.20635 186.22481 
L 384.69333 187.728608 
L 390.641252 187.728608 
L 392.128232 186.22481 
L 393.615212 187.728608 
L 395.102193 187.728608 
L 396.589173 184.721013 
L 399.563134 181.713418 
L 402.537095 181.713418 
L 405.511055 175.698228 
L 406.998036 175.698228 
L 408.485016 174.19443 
L 409.971996 174.19443 
L 411.458977 168.179241 
L 414.432937 165.171646 
L 415.919918 162.164051 
L 417.406898 165.171646 
L 418.893878 163.667848 
L 421.867839 151.637468 
L 423.35482 132.088101 
L 426.32878 129.080506 
L 427.815761 121.561519 
L 429.302741 123.065316 
L 430.789721 123.065316 
L 432.276702 124.569114 
L 433.763682 142.614684 
L 435.250662 136.599494 
L 435.250662 136.599494 
" style="fill:none;stroke:#871f78;stroke-linecap:round;stroke-width:1.5;"/>
   </g>
   <g id="patch_242">
    <path d="M 63 192.24 
L 453.6 192.24 
" style="fill:none;stroke:#cccccc;stroke-linecap:square;stroke-linejoin:miter;"/>
   </g>
   <g id="text_17">
    <!-- 7-day -->
    <defs>
     <path d="M 14.5 0 
Q 15.671875 7.234375 19.484375 17.390625 
Q 24.03125 29.640625 31.390625 41.71875 
Q 38.765625 53.8125 47.796875 62.5 
L 12.109375 62.5 
L 13.8125 70.609375 
L 59.515625 70.609375 
L 57.859375 62.5 
Q 46.234375 52.296875 37.546875 36.1875 
Q 27.4375 17.578125 23.734375 0 
z
" id="Arial-ItalicMT-55"/>
     <path d="M 4.640625 21.484375 
L 6.5 30.328125 
L 33.453125 30.328125 
L 31.640625 21.484375 
z
" id="Arial-ItalicMT-45"/>
     <path d="M 38.28125 7.515625 
Q 30.71875 -1.171875 22.46875 -1.171875 
Q 15.09375 -1.171875 10.1875 4.265625 
Q 5.28125 9.71875 5.28125 20.0625 
Q 5.28125 29.546875 9.15625 37.375 
Q 13.03125 45.21875 18.859375 49.125 
Q 24.703125 53.03125 30.5625 53.03125 
Q 40.234375 53.03125 45.171875 43.703125 
L 51.03125 71.578125 
L 59.8125 71.578125 
L 44.875 0 
L 36.71875 0 
z
M 14.0625 21.734375 
Q 14.0625 16.3125 15.140625 13.1875 
Q 16.21875 10.0625 18.796875 7.984375 
Q 21.390625 5.90625 25 5.90625 
Q 31 5.90625 35.890625 12.15625 
Q 42.4375 20.453125 42.4375 32.671875 
Q 42.4375 38.8125 39.203125 42.28125 
Q 35.984375 45.75 31.109375 45.75 
Q 27.9375 45.75 25.3125 44.328125 
Q 22.703125 42.921875 20.140625 39.53125 
Q 17.578125 36.140625 15.8125 30.90625 
Q 14.0625 25.6875 14.0625 21.734375 
z
" id="Arial-ItalicMT-100"/>
     <path d="M 38.28125 6.453125 
Q 33.6875 2.484375 29.4375 0.65625 
Q 25.203125 -1.171875 20.359375 -1.171875 
Q 13.1875 -1.171875 8.78125 3.046875 
Q 4.390625 7.28125 4.390625 13.875 
Q 4.390625 18.21875 6.359375 21.5625 
Q 8.34375 24.90625 11.609375 26.921875 
Q 14.890625 28.953125 19.625 29.828125 
Q 22.609375 30.421875 30.9375 30.765625 
Q 39.265625 31.109375 42.875 32.515625 
Q 43.890625 36.140625 43.890625 38.53125 
Q 43.890625 41.609375 41.65625 43.359375 
Q 38.578125 45.796875 32.671875 45.796875 
Q 27.09375 45.796875 23.546875 43.328125 
Q 20.015625 40.875 18.40625 36.328125 
L 9.46875 37.109375 
Q 12.203125 44.828125 18.140625 48.921875 
Q 24.078125 53.03125 33.109375 53.03125 
Q 42.71875 53.03125 48.34375 48.4375 
Q 52.640625 45.015625 52.640625 39.546875 
Q 52.640625 35.40625 51.421875 29.9375 
L 48.53125 17.046875 
Q 47.171875 10.890625 47.171875 7.03125 
Q 47.171875 4.59375 48.25 0 
L 39.3125 0 
Q 38.578125 2.546875 38.28125 6.453125 
z
M 41.546875 26.265625 
Q 39.703125 25.53125 37.578125 25.140625 
Q 35.453125 24.75 30.46875 24.3125 
Q 22.75 23.640625 19.578125 22.578125 
Q 16.40625 21.53125 14.796875 19.234375 
Q 13.1875 16.9375 13.1875 14.15625 
Q 13.1875 10.453125 15.75 8.0625 
Q 18.3125 5.671875 23.046875 5.671875 
Q 27.4375 5.671875 31.484375 7.984375 
Q 35.546875 10.296875 37.890625 14.453125 
Q 40.234375 18.609375 41.546875 26.265625 
z
" id="Arial-ItalicMT-97"/>
     <path d="M 0 -20.015625 
L 0.53125 -11.71875 
Q 3.265625 -12.5 5.859375 -12.5 
Q 8.546875 -12.5 10.203125 -11.28125 
Q 12.359375 -9.671875 14.890625 -5.21875 
L 17.71875 -0.140625 
L 9.078125 51.859375 
L 17.78125 51.859375 
L 21.6875 25.640625 
Q 22.859375 17.875 23.6875 10.109375 
L 46.875 51.859375 
L 56.109375 51.859375 
L 23.046875 -6.890625 
Q 18.265625 -15.484375 14.546875 -18.265625 
Q 10.84375 -21.046875 6 -21.046875 
Q 2.9375 -21.046875 0 -20.015625 
z
" id="Arial-ItalicMT-121"/>
    </defs>
    <g style="fill:#871f78;" transform="translate(439.711603 125.905431)scale(0.1 -0.1)">
     <use xlink:href="#Arial-ItalicMT-55"/>
     <use x="55.615234" xlink:href="#Arial-ItalicMT-45"/>
     <use x="88.916016" xlink:href="#Arial-ItalicMT-100"/>
     <use x="144.53125" xlink:href="#Arial-ItalicMT-97"/>
     <use x="200.146484" xlink:href="#Arial-ItalicMT-121"/>
    </g>
    <!-- avg. -->
    <defs>
     <path d="M 16.40625 0 
L 7.90625 51.859375 
L 16.5 51.859375 
L 20.953125 23.296875 
Q 21.6875 18.609375 22.75 8.015625 
Q 25.296875 13.53125 29.25 20.65625 
L 46.578125 51.859375 
L 55.90625 51.859375 
L 26.21875 0 
z
" id="Arial-ItalicMT-118"/>
     <path d="M 2.828125 -4.6875 
L 11.765625 -5.515625 
Q 11.671875 -8.546875 12.5 -10.0625 
Q 13.328125 -11.578125 15.140625 -12.40625 
Q 17.53125 -13.484375 21.34375 -13.484375 
Q 29.34375 -13.484375 32.859375 -9.328125 
Q 35.15625 -6.546875 37.109375 2.78125 
L 37.984375 6.984375 
Q 31.109375 0 23.34375 0 
Q 15.484375 0 10.1875 5.78125 
Q 4.890625 11.578125 4.890625 22.171875 
Q 4.890625 30.90625 9.0625 38.234375 
Q 13.234375 45.5625 18.984375 49.296875 
Q 24.75 53.03125 30.859375 53.03125 
Q 41.0625 53.03125 46.578125 43.359375 
L 48.34375 51.859375 
L 56.453125 51.859375 
L 46 1.8125 
Q 44.28125 -6.453125 41.5 -11.0625 
Q 38.71875 -15.671875 33.765625 -18.203125 
Q 28.8125 -20.75 22.3125 -20.75 
Q 16.0625 -20.75 11.546875 -19.140625 
Q 7.03125 -17.53125 4.8125 -14.421875 
Q 2.59375 -11.328125 2.59375 -7.328125 
Q 2.59375 -6.109375 2.828125 -4.6875 
z
M 13.875 22.953125 
Q 13.875 17.625 14.890625 14.9375 
Q 16.359375 11.1875 19.0625 9.203125 
Q 21.78125 7.234375 25.09375 7.234375 
Q 29.4375 7.234375 33.734375 10.28125 
Q 38.03125 13.328125 40.6875 19.71875 
Q 43.359375 26.125 43.359375 31.9375 
Q 43.359375 38.328125 39.8125 42.109375 
Q 36.28125 45.90625 31.0625 45.90625 
Q 27.828125 45.90625 24.796875 44.171875 
Q 21.78125 42.4375 19.15625 38.890625 
Q 16.546875 35.359375 15.203125 30.421875 
Q 13.875 25.484375 13.875 22.953125 
z
" id="Arial-ItalicMT-103"/>
     <path d="M 5.765625 0 
L 7.859375 10.015625 
L 17.875 10.015625 
L 15.71875 0 
z
" id="Arial-ItalicMT-46"/>
    </defs>
    <g style="fill:#871f78;" transform="translate(439.711603 136.599494)scale(0.1 -0.1)">
     <use xlink:href="#Arial-ItalicMT-97"/>
     <use x="55.615234" xlink:href="#Arial-ItalicMT-118"/>
     <use x="105.615234" xlink:href="#Arial-ItalicMT-103"/>
     <use x="161.230469" xlink:href="#Arial-ItalicMT-46"/>
    </g>
   </g>
  </g>
 </g>
 <defs>
  <clipPath id="pda7f00c68b">
   <rect height="166.32" width="390.6" x="63" y="25.92"/>
  </clipPath>
 </defs>
</svg>
