<?xml version="1.0" encoding="utf-8" standalone="no"?>
<!DOCTYPE svg PUBLIC "-//W3C//DTD SVG 1.1//EN"
  "http://www.w3.org/Graphics/SVG/1.1/DTD/svg11.dtd">
<!-- Created with matplotlib (https://matplotlib.org/) -->
<svg height="216pt" version="1.1" viewBox="0 0 504 216" width="504pt" xmlns="http://www.w3.org/2000/svg" xmlns:xlink="http://www.w3.org/1999/xlink">
 <defs>
  <style type="text/css">
*{stroke-linecap:butt;stroke-linejoin:round;}
  </style>
 </defs>
 <g id="figure_1">
  <g id="patch_1">
   <path d="M 0 216 
L 504 216 
L 504 0 
L 0 0 
z
" style="fill:#ffffff;"/>
  </g>
  <g id="axes_1">
   <g id="patch_2">
    <path d="M 63 192.24 
L 453.6 192.24 
L 453.6 25.92 
L 63 25.92 
z
" style="fill:#ffffff;"/>
   </g>
   <g id="matplotlib.axis_1">
    <g id="xtick_1">
     <g id="line2d_1"/>
     <g id="text_1">
      <!-- Apr -->
      <defs>
       <path d="M 34.1875 63.1875 
L 20.796875 26.90625 
L 47.609375 26.90625 
z
M 28.609375 72.90625 
L 39.796875 72.90625 
L 67.578125 0 
L 57.328125 0 
L 50.6875 18.703125 
L 17.828125 18.703125 
L 11.1875 0 
L 0.78125 0 
z
" id="DejaVuSans-65"/>
       <path d="M 18.109375 8.203125 
L 18.109375 -20.796875 
L 9.078125 -20.796875 
L 9.078125 54.6875 
L 18.109375 54.6875 
L 18.109375 46.390625 
Q 20.953125 51.265625 25.265625 53.625 
Q 29.59375 56 35.59375 56 
Q 45.5625 56 51.78125 48.09375 
Q 58.015625 40.1875 58.015625 27.296875 
Q 58.015625 14.40625 51.78125 6.484375 
Q 45.5625 -1.421875 35.59375 -1.421875 
Q 29.59375 -1.421875 25.265625 0.953125 
Q 20.953125 3.328125 18.109375 8.203125 
z
M 48.6875 27.296875 
Q 48.6875 37.203125 44.609375 42.84375 
Q 40.53125 48.484375 33.40625 48.484375 
Q 26.265625 48.484375 22.1875 42.84375 
Q 18.109375 37.203125 18.109375 27.296875 
Q 18.109375 17.390625 22.1875 11.75 
Q 26.265625 6.109375 33.40625 6.109375 
Q 40.53125 6.109375 44.609375 11.75 
Q 48.6875 17.390625 48.6875 27.296875 
z
" id="DejaVuSans-112"/>
       <path d="M 41.109375 46.296875 
Q 39.59375 47.171875 37.8125 47.578125 
Q 36.03125 48 33.890625 48 
Q 26.265625 48 22.1875 43.046875 
Q 18.109375 38.09375 18.109375 28.8125 
L 18.109375 0 
L 9.078125 0 
L 9.078125 54.6875 
L 18.109375 54.6875 
L 18.109375 46.1875 
Q 20.953125 51.171875 25.484375 53.578125 
Q 30.03125 56 36.53125 56 
Q 37.453125 56 38.578125 55.875 
Q 39.703125 55.765625 41.0625 55.515625 
z
" id="DejaVuSans-114"/>
      </defs>
      <g style="fill:#871f78;" transform="translate(86.14094 203.338437)scale(0.1 -0.1)">
       <use xlink:href="#DejaVuSans-65"/>
       <use x="68.408203" xlink:href="#DejaVuSans-112"/>
       <use x="131.884766" xlink:href="#DejaVuSans-114"/>
      </g>
     </g>
    </g>
    <g id="xtick_2">
     <g id="line2d_2"/>
     <g id="text_2">
      <!-- May -->
      <defs>
       <path d="M 9.8125 72.90625 
L 24.515625 72.90625 
L 43.109375 23.296875 
L 61.8125 72.90625 
L 76.515625 72.90625 
L 76.515625 0 
L 66.890625 0 
L 66.890625 64.015625 
L 48.09375 14.015625 
L 38.1875 14.015625 
L 19.390625 64.015625 
L 19.390625 0 
L 9.8125 0 
z
" id="DejaVuSans-77"/>
       <path d="M 34.28125 27.484375 
Q 23.390625 27.484375 19.1875 25 
Q 14.984375 22.515625 14.984375 16.5 
Q 14.984375 11.71875 18.140625 8.90625 
Q 21.296875 6.109375 26.703125 6.109375 
Q 34.1875 6.109375 38.703125 11.40625 
Q 43.21875 16.703125 43.21875 25.484375 
L 43.21875 27.484375 
z
M 52.203125 31.203125 
L 52.203125 0 
L 43.21875 0 
L 43.21875 8.296875 
Q 40.140625 3.328125 35.546875 0.953125 
Q 30.953125 -1.421875 24.3125 -1.421875 
Q 15.921875 -1.421875 10.953125 3.296875 
Q 6 8.015625 6 15.921875 
Q 6 25.140625 12.171875 29.828125 
Q 18.359375 34.515625 30.609375 34.515625 
L 43.21875 34.515625 
L 43.21875 35.40625 
Q 43.21875 41.609375 39.140625 45 
Q 35.0625 48.390625 27.6875 48.390625 
Q 23 48.390625 18.546875 47.265625 
Q 14.109375 46.140625 10.015625 43.890625 
L 10.015625 52.203125 
Q 14.9375 54.109375 19.578125 55.046875 
Q 24.21875 56 28.609375 56 
Q 40.484375 56 46.34375 49.84375 
Q 52.203125 43.703125 52.203125 31.203125 
z
" id="DejaVuSans-97"/>
       <path d="M 32.171875 -5.078125 
Q 28.375 -14.84375 24.75 -17.8125 
Q 21.140625 -20.796875 15.09375 -20.796875 
L 7.90625 -20.796875 
L 7.90625 -13.28125 
L 13.1875 -13.28125 
Q 16.890625 -13.28125 18.9375 -11.515625 
Q 21 -9.765625 23.484375 -3.21875 
L 25.09375 0.875 
L 2.984375 54.6875 
L 12.5 54.6875 
L 29.59375 11.921875 
L 46.6875 54.6875 
L 56.203125 54.6875 
z
" id="DejaVuSans-121"/>
      </defs>
      <g style="fill:#871f78;" transform="translate(129.250443 203.338437)scale(0.1 -0.1)">
       <use xlink:href="#DejaVuSans-77"/>
       <use x="86.279297" xlink:href="#DejaVuSans-97"/>
       <use x="147.558594" xlink:href="#DejaVuSans-121"/>
      </g>
     </g>
    </g>
    <g id="xtick_3">
     <g id="line2d_3"/>
     <g id="text_3">
      <!-- Jun -->
      <defs>
       <path d="M 9.8125 72.90625 
L 19.671875 72.90625 
L 19.671875 5.078125 
Q 19.671875 -8.109375 14.671875 -14.0625 
Q 9.671875 -20.015625 -1.421875 -20.015625 
L -5.171875 -20.015625 
L -5.171875 -11.71875 
L -2.09375 -11.71875 
Q 4.4375 -11.71875 7.125 -8.046875 
Q 9.8125 -4.390625 9.8125 5.078125 
z
" id="DejaVuSans-74"/>
       <path d="M 8.5 21.578125 
L 8.5 54.6875 
L 17.484375 54.6875 
L 17.484375 21.921875 
Q 17.484375 14.15625 20.5 10.265625 
Q 23.53125 6.390625 29.59375 6.390625 
Q 36.859375 6.390625 41.078125 11.03125 
Q 45.3125 15.671875 45.3125 23.6875 
L 45.3125 54.6875 
L 54.296875 54.6875 
L 54.296875 0 
L 45.3125 0 
L 45.3125 8.40625 
Q 42.046875 3.421875 37.71875 1 
Q 33.40625 -1.421875 27.6875 -1.421875 
Q 18.265625 -1.421875 13.375 4.4375 
Q 8.5 10.296875 8.5 21.578125 
z
M 31.109375 56 
z
" id="DejaVuSans-117"/>
       <path d="M 54.890625 33.015625 
L 54.890625 0 
L 45.90625 0 
L 45.90625 32.71875 
Q 45.90625 40.484375 42.875 44.328125 
Q 39.84375 48.1875 33.796875 48.1875 
Q 26.515625 48.1875 22.3125 43.546875 
Q 18.109375 38.921875 18.109375 30.90625 
L 18.109375 0 
L 9.078125 0 
L 9.078125 54.6875 
L 18.109375 54.6875 
L 18.109375 46.1875 
Q 21.34375 51.125 25.703125 53.5625 
Q 30.078125 56 35.796875 56 
Q 45.21875 56 50.046875 50.171875 
Q 54.890625 44.34375 54.890625 33.015625 
z
" id="DejaVuSans-110"/>
      </defs>
      <g style="fill:#871f78;" transform="translate(178.065679 203.338437)scale(0.1 -0.1)">
       <use xlink:href="#DejaVuSans-74"/>
       <use x="29.492188" xlink:href="#DejaVuSans-117"/>
       <use x="92.871094" xlink:href="#DejaVuSans-110"/>
      </g>
     </g>
    </g>
    <g id="xtick_4">
     <g id="line2d_4"/>
     <g id="text_4">
      <!-- Jul -->
      <defs>
       <path d="M 9.421875 75.984375 
L 18.40625 75.984375 
L 18.40625 0 
L 9.421875 0 
z
" id="DejaVuSans-108"/>
      </defs>
      <g style="fill:#871f78;" transform="translate(224.642369 203.338437)scale(0.1 -0.1)">
       <use xlink:href="#DejaVuSans-74"/>
       <use x="29.492188" xlink:href="#DejaVuSans-117"/>
       <use x="92.871094" xlink:href="#DejaVuSans-108"/>
      </g>
     </g>
    </g>
    <g id="xtick_5">
     <g id="line2d_5"/>
     <g id="text_5">
      <!-- Aug -->
      <defs>
       <path d="M 45.40625 27.984375 
Q 45.40625 37.75 41.375 43.109375 
Q 37.359375 48.484375 30.078125 48.484375 
Q 22.859375 48.484375 18.828125 43.109375 
Q 14.796875 37.75 14.796875 27.984375 
Q 14.796875 18.265625 18.828125 12.890625 
Q 22.859375 7.515625 30.078125 7.515625 
Q 37.359375 7.515625 41.375 12.890625 
Q 45.40625 18.265625 45.40625 27.984375 
z
M 54.390625 6.78125 
Q 54.390625 -7.171875 48.1875 -13.984375 
Q 42 -20.796875 29.203125 -20.796875 
Q 24.46875 -20.796875 20.265625 -20.09375 
Q 16.0625 -19.390625 12.109375 -17.921875 
L 12.109375 -9.1875 
Q 16.0625 -11.328125 19.921875 -12.34375 
Q 23.78125 -13.375 27.78125 -13.375 
Q 36.625 -13.375 41.015625 -8.765625 
Q 45.40625 -4.15625 45.40625 5.171875 
L 45.40625 9.625 
Q 42.625 4.78125 38.28125 2.390625 
Q 33.9375 0 27.875 0 
Q 17.828125 0 11.671875 7.65625 
Q 5.515625 15.328125 5.515625 27.984375 
Q 5.515625 40.671875 11.671875 48.328125 
Q 17.828125 56 27.875 56 
Q 33.9375 56 38.28125 53.609375 
Q 42.625 51.21875 45.40625 46.390625 
L 45.40625 54.6875 
L 54.390625 54.6875 
z
" id="DejaVuSans-103"/>
      </defs>
      <g style="fill:#871f78;" transform="translate(267.202137 203.338437)scale(0.1 -0.1)">
       <use xlink:href="#DejaVuSans-65"/>
       <use x="68.408203" xlink:href="#DejaVuSans-117"/>
       <use x="131.787109" xlink:href="#DejaVuSans-103"/>
      </g>
     </g>
    </g>
    <g id="xtick_6">
     <g id="line2d_6"/>
     <g id="text_6">
      <!-- Sep -->
      <defs>
       <path d="M 53.515625 70.515625 
L 53.515625 60.890625 
Q 47.90625 63.578125 42.921875 64.890625 
Q 37.9375 66.21875 33.296875 66.21875 
Q 25.25 66.21875 20.875 63.09375 
Q 16.5 59.96875 16.5 54.203125 
Q 16.5 49.359375 19.40625 46.890625 
Q 22.3125 44.4375 30.421875 42.921875 
L 36.375 41.703125 
Q 47.40625 39.59375 52.65625 34.296875 
Q 57.90625 29 57.90625 20.125 
Q 57.90625 9.515625 50.796875 4.046875 
Q 43.703125 -1.421875 29.984375 -1.421875 
Q 24.8125 -1.421875 18.96875 -0.25 
Q 13.140625 0.921875 6.890625 3.21875 
L 6.890625 13.375 
Q 12.890625 10.015625 18.65625 8.296875 
Q 24.421875 6.59375 29.984375 6.59375 
Q 38.421875 6.59375 43.015625 9.90625 
Q 47.609375 13.234375 47.609375 19.390625 
Q 47.609375 24.75 44.3125 27.78125 
Q 41.015625 30.8125 33.5 32.328125 
L 27.484375 33.5 
Q 16.453125 35.6875 11.515625 40.375 
Q 6.59375 45.0625 6.59375 53.421875 
Q 6.59375 63.09375 13.40625 68.65625 
Q 20.21875 74.21875 32.171875 74.21875 
Q 37.3125 74.21875 42.625 73.28125 
Q 47.953125 72.359375 53.515625 70.515625 
z
" id="DejaVuSans-83"/>
       <path d="M 56.203125 29.59375 
L 56.203125 25.203125 
L 14.890625 25.203125 
Q 15.484375 15.921875 20.484375 11.0625 
Q 25.484375 6.203125 34.421875 6.203125 
Q 39.59375 6.203125 44.453125 7.46875 
Q 49.3125 8.734375 54.109375 11.28125 
L 54.109375 2.78125 
Q 49.265625 0.734375 44.1875 -0.34375 
Q 39.109375 -1.421875 33.890625 -1.421875 
Q 20.796875 -1.421875 13.15625 6.1875 
Q 5.515625 13.8125 5.515625 26.8125 
Q 5.515625 40.234375 12.765625 48.109375 
Q 20.015625 56 32.328125 56 
Q 43.359375 56 49.78125 48.890625 
Q 56.203125 41.796875 56.203125 29.59375 
z
M 47.21875 32.234375 
Q 47.125 39.59375 43.09375 43.984375 
Q 39.0625 48.390625 32.421875 48.390625 
Q 24.90625 48.390625 20.390625 44.140625 
Q 15.875 39.890625 15.1875 32.171875 
z
" id="DejaVuSans-101"/>
      </defs>
      <g style="fill:#871f78;" transform="translate(313.830654 203.338437)scale(0.1 -0.1)">
       <use xlink:href="#DejaVuSans-83"/>
       <use x="63.476562" xlink:href="#DejaVuSans-101"/>
       <use x="125" xlink:href="#DejaVuSans-112"/>
      </g>
     </g>
    </g>
    <g id="xtick_7">
     <g id="line2d_7"/>
     <g id="text_7">
      <!-- Oct -->
      <defs>
       <path d="M 39.40625 66.21875 
Q 28.65625 66.21875 22.328125 58.203125 
Q 16.015625 50.203125 16.015625 36.375 
Q 16.015625 22.609375 22.328125 14.59375 
Q 28.65625 6.59375 39.40625 6.59375 
Q 50.140625 6.59375 56.421875 14.59375 
Q 62.703125 22.609375 62.703125 36.375 
Q 62.703125 50.203125 56.421875 58.203125 
Q 50.140625 66.21875 39.40625 66.21875 
z
M 39.40625 74.21875 
Q 54.734375 74.21875 63.90625 63.9375 
Q 73.09375 53.65625 73.09375 36.375 
Q 73.09375 19.140625 63.90625 8.859375 
Q 54.734375 -1.421875 39.40625 -1.421875 
Q 24.03125 -1.421875 14.8125 8.828125 
Q 5.609375 19.09375 5.609375 36.375 
Q 5.609375 53.65625 14.8125 63.9375 
Q 24.03125 74.21875 39.40625 74.21875 
z
" id="DejaVuSans-79"/>
       <path d="M 48.78125 52.59375 
L 48.78125 44.1875 
Q 44.96875 46.296875 41.140625 47.34375 
Q 37.3125 48.390625 33.40625 48.390625 
Q 24.65625 48.390625 19.8125 42.84375 
Q 14.984375 37.3125 14.984375 27.296875 
Q 14.984375 17.28125 19.8125 11.734375 
Q 24.65625 6.203125 33.40625 6.203125 
Q 37.3125 6.203125 41.140625 7.25 
Q 44.96875 8.296875 48.78125 10.40625 
L 48.78125 2.09375 
Q 45.015625 0.34375 40.984375 -0.53125 
Q 36.96875 -1.421875 32.421875 -1.421875 
Q 20.0625 -1.421875 12.78125 6.34375 
Q 5.515625 14.109375 5.515625 27.296875 
Q 5.515625 40.671875 12.859375 48.328125 
Q 20.21875 56 33.015625 56 
Q 37.15625 56 41.109375 55.140625 
Q 45.0625 54.296875 48.78125 52.59375 
z
" id="DejaVuSans-99"/>
       <path d="M 18.3125 70.21875 
L 18.3125 54.6875 
L 36.8125 54.6875 
L 36.8125 47.703125 
L 18.3125 47.703125 
L 18.3125 18.015625 
Q 18.3125 11.328125 20.140625 9.421875 
Q 21.96875 7.515625 27.59375 7.515625 
L 36.8125 7.515625 
L 36.8125 0 
L 27.59375 0 
Q 17.1875 0 13.234375 3.875 
Q 9.28125 7.765625 9.28125 18.015625 
L 9.28125 47.703125 
L 2.6875 47.703125 
L 2.6875 54.6875 
L 9.28125 54.6875 
L 9.28125 70.21875 
z
" id="DejaVuSans-116"/>
      </defs>
      <g style="fill:#871f78;" transform="translate(359.407344 203.338437)scale(0.1 -0.1)">
       <use xlink:href="#DejaVuSans-79"/>
       <use x="78.710938" xlink:href="#DejaVuSans-99"/>
       <use x="133.691406" xlink:href="#DejaVuSans-116"/>
      </g>
     </g>
    </g>
    <g id="xtick_8">
     <g id="line2d_8"/>
     <g id="text_8">
      <!-- Nov -->
      <defs>
       <path d="M 9.8125 72.90625 
L 23.09375 72.90625 
L 55.421875 11.921875 
L 55.421875 72.90625 
L 64.984375 72.90625 
L 64.984375 0 
L 51.703125 0 
L 19.390625 60.984375 
L 19.390625 0 
L 9.8125 0 
z
" id="DejaVuSans-78"/>
       <path d="M 30.609375 48.390625 
Q 23.390625 48.390625 19.1875 42.75 
Q 14.984375 37.109375 14.984375 27.296875 
Q 14.984375 17.484375 19.15625 11.84375 
Q 23.34375 6.203125 30.609375 6.203125 
Q 37.796875 6.203125 41.984375 11.859375 
Q 46.1875 17.53125 46.1875 27.296875 
Q 46.1875 37.015625 41.984375 42.703125 
Q 37.796875 48.390625 30.609375 48.390625 
z
M 30.609375 56 
Q 42.328125 56 49.015625 48.375 
Q 55.71875 40.765625 55.71875 27.296875 
Q 55.71875 13.875 49.015625 6.21875 
Q 42.328125 -1.421875 30.609375 -1.421875 
Q 18.84375 -1.421875 12.171875 6.21875 
Q 5.515625 13.875 5.515625 27.296875 
Q 5.515625 40.765625 12.171875 48.375 
Q 18.84375 56 30.609375 56 
z
" id="DejaVuSans-111"/>
       <path d="M 2.984375 54.6875 
L 12.5 54.6875 
L 29.59375 8.796875 
L 46.6875 54.6875 
L 56.203125 54.6875 
L 35.6875 0 
L 23.484375 0 
z
" id="DejaVuSans-118"/>
      </defs>
      <g style="fill:#871f78;" transform="translate(404.583518 203.338437)scale(0.1 -0.1)">
       <use xlink:href="#DejaVuSans-78"/>
       <use x="74.804688" xlink:href="#DejaVuSans-111"/>
       <use x="135.986328" xlink:href="#DejaVuSans-118"/>
      </g>
     </g>
    </g>
   </g>
   <g id="matplotlib.axis_2">
    <g id="ytick_1">
     <g id="line2d_9">
      <path clip-path="url(#p85561b23dc)" d="M 63 192.24 
L 453.6 192.24 
" style="fill:none;stroke:#cccccc;stroke-linecap:round;stroke-width:0.8;"/>
     </g>
     <g id="line2d_10"/>
     <g id="text_9">
      <!-- 0 -->
      <defs>
       <path d="M 31.78125 66.40625 
Q 24.171875 66.40625 20.328125 58.90625 
Q 16.5 51.421875 16.5 36.375 
Q 16.5 21.390625 20.328125 13.890625 
Q 24.171875 6.390625 31.78125 6.390625 
Q 39.453125 6.390625 43.28125 13.890625 
Q 47.125 21.390625 47.125 36.375 
Q 47.125 51.421875 43.28125 58.90625 
Q 39.453125 66.40625 31.78125 66.40625 
z
M 31.78125 74.21875 
Q 44.046875 74.21875 50.515625 64.515625 
Q 56.984375 54.828125 56.984375 36.375 
Q 56.984375 17.96875 50.515625 8.265625 
Q 44.046875 -1.421875 31.78125 -1.421875 
Q 19.53125 -1.421875 13.0625 8.265625 
Q 6.59375 17.96875 6.59375 36.375 
Q 6.59375 54.828125 13.0625 64.515625 
Q 19.53125 74.21875 31.78125 74.21875 
z
" id="DejaVuSans-48"/>
      </defs>
      <g style="fill:#871f78;" transform="translate(53.1375 196.039219)scale(0.1 -0.1)">
       <use xlink:href="#DejaVuSans-48"/>
      </g>
     </g>
    </g>
    <g id="ytick_2">
     <g id="line2d_11">
      <path clip-path="url(#p85561b23dc)" d="M 63 164.52 
L 453.6 164.52 
" style="fill:none;stroke:#cccccc;stroke-linecap:round;stroke-width:0.8;"/>
     </g>
     <g id="line2d_12"/>
     <g id="text_10">
      <!-- 5 -->
      <defs>
       <path d="M 10.796875 72.90625 
L 49.515625 72.90625 
L 49.515625 64.59375 
L 19.828125 64.59375 
L 19.828125 46.734375 
Q 21.96875 47.46875 24.109375 47.828125 
Q 26.265625 48.1875 28.421875 48.1875 
Q 40.625 48.1875 47.75 41.5 
Q 54.890625 34.8125 54.890625 23.390625 
Q 54.890625 11.625 47.5625 5.09375 
Q 40.234375 -1.421875 26.90625 -1.421875 
Q 22.3125 -1.421875 17.546875 -0.640625 
Q 12.796875 0.140625 7.71875 1.703125 
L 7.71875 11.625 
Q 12.109375 9.234375 16.796875 8.0625 
Q 21.484375 6.890625 26.703125 6.890625 
Q 35.15625 6.890625 40.078125 11.328125 
Q 45.015625 15.765625 45.015625 23.390625 
Q 45.015625 31 40.078125 35.4375 
Q 35.15625 39.890625 26.703125 39.890625 
Q 22.75 39.890625 18.8125 39.015625 
Q 14.890625 38.140625 10.796875 36.28125 
z
" id="DejaVuSans-53"/>
      </defs>
      <g style="fill:#871f78;" transform="translate(53.1375 168.319219)scale(0.1 -0.1)">
       <use xlink:href="#DejaVuSans-53"/>
      </g>
     </g>
    </g>
    <g id="ytick_3">
     <g id="line2d_13">
      <path clip-path="url(#p85561b23dc)" d="M 63 136.8 
L 453.6 136.8 
" style="fill:none;stroke:#cccccc;stroke-linecap:round;stroke-width:0.8;"/>
     </g>
     <g id="line2d_14"/>
     <g id="text_11">
      <!-- 10 -->
      <defs>
       <path d="M 12.40625 8.296875 
L 28.515625 8.296875 
L 28.515625 63.921875 
L 10.984375 60.40625 
L 10.984375 69.390625 
L 28.421875 72.90625 
L 38.28125 72.90625 
L 38.28125 8.296875 
L 54.390625 8.296875 
L 54.390625 0 
L 12.40625 0 
z
" id="DejaVuSans-49"/>
      </defs>
      <g style="fill:#871f78;" transform="translate(46.775 140.599219)scale(0.1 -0.1)">
       <use xlink:href="#DejaVuSans-49"/>
       <use x="63.623047" xlink:href="#DejaVuSans-48"/>
      </g>
     </g>
    </g>
    <g id="ytick_4">
     <g id="line2d_15">
      <path clip-path="url(#p85561b23dc)" d="M 63 109.08 
L 453.6 109.08 
" style="fill:none;stroke:#cccccc;stroke-linecap:round;stroke-width:0.8;"/>
     </g>
     <g id="line2d_16"/>
     <g id="text_12">
      <!-- 15 -->
      <g style="fill:#871f78;" transform="translate(46.775 112.879219)scale(0.1 -0.1)">
       <use xlink:href="#DejaVuSans-49"/>
       <use x="63.623047" xlink:href="#DejaVuSans-53"/>
      </g>
     </g>
    </g>
    <g id="ytick_5">
     <g id="line2d_17">
      <path clip-path="url(#p85561b23dc)" d="M 63 81.36 
L 453.6 81.36 
" style="fill:none;stroke:#cccccc;stroke-linecap:round;stroke-width:0.8;"/>
     </g>
     <g id="line2d_18"/>
     <g id="text_13">
      <!-- 20 -->
      <defs>
       <path d="M 19.1875 8.296875 
L 53.609375 8.296875 
L 53.609375 0 
L 7.328125 0 
L 7.328125 8.296875 
Q 12.9375 14.109375 22.625 23.890625 
Q 32.328125 33.6875 34.8125 36.53125 
Q 39.546875 41.84375 41.421875 45.53125 
Q 43.3125 49.21875 43.3125 52.78125 
Q 43.3125 58.59375 39.234375 62.25 
Q 35.15625 65.921875 28.609375 65.921875 
Q 23.96875 65.921875 18.8125 64.3125 
Q 13.671875 62.703125 7.8125 59.421875 
L 7.8125 69.390625 
Q 13.765625 71.78125 18.9375 73 
Q 24.125 74.21875 28.421875 74.21875 
Q 39.75 74.21875 46.484375 68.546875 
Q 53.21875 62.890625 53.21875 53.421875 
Q 53.21875 48.921875 51.53125 44.890625 
Q 49.859375 40.875 45.40625 35.40625 
Q 44.1875 33.984375 37.640625 27.21875 
Q 31.109375 20.453125 19.1875 8.296875 
z
" id="DejaVuSans-50"/>
      </defs>
      <g style="fill:#871f78;" transform="translate(46.775 85.159219)scale(0.1 -0.1)">
       <use xlink:href="#DejaVuSans-50"/>
       <use x="63.623047" xlink:href="#DejaVuSans-48"/>
      </g>
     </g>
    </g>
    <g id="ytick_6">
     <g id="line2d_19">
      <path clip-path="url(#p85561b23dc)" d="M 63 53.64 
L 453.6 53.64 
" style="fill:none;stroke:#cccccc;stroke-linecap:round;stroke-width:0.8;"/>
     </g>
     <g id="line2d_20"/>
     <g id="text_14">
      <!-- 25 -->
      <g style="fill:#871f78;" transform="translate(46.775 57.439219)scale(0.1 -0.1)">
       <use xlink:href="#DejaVuSans-50"/>
       <use x="63.623047" xlink:href="#DejaVuSans-53"/>
      </g>
     </g>
    </g>
    <g id="ytick_7">
     <g id="line2d_21">
      <path clip-path="url(#p85561b23dc)" d="M 63 25.92 
L 453.6 25.92 
" style="fill:none;stroke:#cccccc;stroke-linecap:round;stroke-width:0.8;"/>
     </g>
     <g id="line2d_22"/>
     <g id="text_15">
      <!-- 30 -->
      <defs>
       <path d="M 40.578125 39.3125 
Q 47.65625 37.796875 51.625 33 
Q 55.609375 28.21875 55.609375 21.1875 
Q 55.609375 10.40625 48.1875 4.484375 
Q 40.765625 -1.421875 27.09375 -1.421875 
Q 22.515625 -1.421875 17.65625 -0.515625 
Q 12.796875 0.390625 7.625 2.203125 
L 7.625 11.71875 
Q 11.71875 9.328125 16.59375 8.109375 
Q 21.484375 6.890625 26.8125 6.890625 
Q 36.078125 6.890625 40.9375 10.546875 
Q 45.796875 14.203125 45.796875 21.1875 
Q 45.796875 27.640625 41.28125 31.265625 
Q 36.765625 34.90625 28.71875 34.90625 
L 20.21875 34.90625 
L 20.21875 43.015625 
L 29.109375 43.015625 
Q 36.375 43.015625 40.234375 45.921875 
Q 44.09375 48.828125 44.09375 54.296875 
Q 44.09375 59.90625 40.109375 62.90625 
Q 36.140625 65.921875 28.71875 65.921875 
Q 24.65625 65.921875 20.015625 65.03125 
Q 15.375 64.15625 9.8125 62.3125 
L 9.8125 71.09375 
Q 15.4375 72.65625 20.34375 73.4375 
Q 25.25 74.21875 29.59375 74.21875 
Q 40.828125 74.21875 47.359375 69.109375 
Q 53.90625 64.015625 53.90625 55.328125 
Q 53.90625 49.265625 50.4375 45.09375 
Q 46.96875 40.921875 40.578125 39.3125 
z
" id="DejaVuSans-51"/>
      </defs>
      <g style="fill:#871f78;" transform="translate(46.775 29.719219)scale(0.1 -0.1)">
       <use xlink:href="#DejaVuSans-51"/>
       <use x="63.623047" xlink:href="#DejaVuSans-48"/>
      </g>
     </g>
    </g>
   </g>
   <g id="patch_3">
    <path clip-path="url(#p85561b23dc)" d="M 80.754545 192.24 
L 81.949132 192.24 
L 81.949132 192.24 
L 80.754545 192.24 
z
" style="fill:#871f78;opacity:0.35;"/>
   </g>
   <g id="patch_4">
    <path clip-path="url(#p85561b23dc)" d="M 82.247779 192.24 
L 83.442366 192.24 
L 83.442366 192.24 
L 82.247779 192.24 
z
" style="fill:#871f78;opacity:0.35;"/>
   </g>
   <g id="patch_5">
    <path clip-path="url(#p85561b23dc)" d="M 83.741012 192.24 
L 84.935599 192.24 
L 84.935599 192.24 
L 83.741012 192.24 
z
" style="fill:#871f78;opacity:0.35;"/>
   </g>
   <g id="patch_6">
    <path clip-path="url(#p85561b23dc)" d="M 85.234246 192.24 
L 86.428832 192.24 
L 86.428832 179.390605 
L 85.234246 179.390605 
z
" style="fill:#871f78;opacity:0.35;"/>
   </g>
   <g id="patch_7">
    <path clip-path="url(#p85561b23dc)" d="M 86.727479 192.24 
L 87.922066 192.24 
L 87.922066 192.24 
L 86.727479 192.24 
z
" style="fill:#871f78;opacity:0.35;"/>
   </g>
   <g id="patch_8">
    <path clip-path="url(#p85561b23dc)" d="M 88.220713 192.24 
L 89.415299 192.24 
L 89.415299 192.24 
L 88.220713 192.24 
z
" style="fill:#871f78;opacity:0.35;"/>
   </g>
   <g id="patch_9">
    <path clip-path="url(#p85561b23dc)" d="M 89.713946 192.24 
L 90.908533 192.24 
L 90.908533 179.390605 
L 89.713946 179.390605 
z
" style="fill:#871f78;opacity:0.35;"/>
   </g>
   <g id="patch_10">
    <path clip-path="url(#p85561b23dc)" d="M 91.207179 192.24 
L 92.401766 192.24 
L 92.401766 192.24 
L 91.207179 192.24 
z
" style="fill:#871f78;opacity:0.35;"/>
   </g>
   <g id="patch_11">
    <path clip-path="url(#p85561b23dc)" d="M 92.700413 192.24 
L 93.895 192.24 
L 93.895 179.390605 
L 92.700413 179.390605 
z
" style="fill:#871f78;opacity:0.35;"/>
   </g>
   <g id="patch_12">
    <path clip-path="url(#p85561b23dc)" d="M 94.193646 192.24 
L 95.388233 192.24 
L 95.388233 192.24 
L 94.193646 192.24 
z
" style="fill:#871f78;opacity:0.35;"/>
   </g>
   <g id="patch_13">
    <path clip-path="url(#p85561b23dc)" d="M 95.68688 192.24 
L 96.881466 192.24 
L 96.881466 179.390605 
L 95.68688 179.390605 
z
" style="fill:#871f78;opacity:0.35;"/>
   </g>
   <g id="patch_14">
    <path clip-path="url(#p85561b23dc)" d="M 97.180113 192.24 
L 98.3747 192.24 
L 98.3747 192.24 
L 97.180113 192.24 
z
" style="fill:#871f78;opacity:0.35;"/>
   </g>
   <g id="patch_15">
    <path clip-path="url(#p85561b23dc)" d="M 98.673347 192.24 
L 99.867933 192.24 
L 99.867933 192.24 
L 98.673347 192.24 
z
" style="fill:#871f78;opacity:0.35;"/>
   </g>
   <g id="patch_16">
    <path clip-path="url(#p85561b23dc)" d="M 100.16658 192.24 
L 101.361167 192.24 
L 101.361167 179.390605 
L 100.16658 179.390605 
z
" style="fill:#871f78;opacity:0.35;"/>
   </g>
   <g id="patch_17">
    <path clip-path="url(#p85561b23dc)" d="M 101.659813 192.24 
L 102.8544 192.24 
L 102.8544 192.24 
L 101.659813 192.24 
z
" style="fill:#871f78;opacity:0.35;"/>
   </g>
   <g id="patch_18">
    <path clip-path="url(#p85561b23dc)" d="M 103.153047 192.24 
L 104.347634 192.24 
L 104.347634 192.24 
L 103.153047 192.24 
z
" style="fill:#871f78;opacity:0.35;"/>
   </g>
   <g id="patch_19">
    <path clip-path="url(#p85561b23dc)" d="M 104.64628 192.24 
L 105.840867 192.24 
L 105.840867 192.24 
L 104.64628 192.24 
z
" style="fill:#871f78;opacity:0.35;"/>
   </g>
   <g id="patch_20">
    <path clip-path="url(#p85561b23dc)" d="M 106.139514 192.24 
L 107.3341 192.24 
L 107.3341 192.24 
L 106.139514 192.24 
z
" style="fill:#871f78;opacity:0.35;"/>
   </g>
   <g id="patch_21">
    <path clip-path="url(#p85561b23dc)" d="M 107.632747 192.24 
L 108.827334 192.24 
L 108.827334 192.24 
L 107.632747 192.24 
z
" style="fill:#871f78;opacity:0.35;"/>
   </g>
   <g id="patch_22">
    <path clip-path="url(#p85561b23dc)" d="M 109.125981 192.24 
L 110.320567 192.24 
L 110.320567 192.24 
L 109.125981 192.24 
z
" style="fill:#871f78;opacity:0.35;"/>
   </g>
   <g id="patch_23">
    <path clip-path="url(#p85561b23dc)" d="M 110.619214 192.24 
L 111.813801 192.24 
L 111.813801 192.24 
L 110.619214 192.24 
z
" style="fill:#871f78;opacity:0.35;"/>
   </g>
   <g id="patch_24">
    <path clip-path="url(#p85561b23dc)" d="M 112.112447 192.24 
L 113.307034 192.24 
L 113.307034 192.24 
L 112.112447 192.24 
z
" style="fill:#871f78;opacity:0.35;"/>
   </g>
   <g id="patch_25">
    <path clip-path="url(#p85561b23dc)" d="M 113.605681 192.24 
L 114.800268 192.24 
L 114.800268 179.390605 
L 113.605681 179.390605 
z
" style="fill:#871f78;opacity:0.35;"/>
   </g>
   <g id="patch_26">
    <path clip-path="url(#p85561b23dc)" d="M 115.098914 192.24 
L 116.293501 192.24 
L 116.293501 192.24 
L 115.098914 192.24 
z
" style="fill:#871f78;opacity:0.35;"/>
   </g>
   <g id="patch_27">
    <path clip-path="url(#p85561b23dc)" d="M 116.592148 192.24 
L 117.786734 192.24 
L 117.786734 179.390605 
L 116.592148 179.390605 
z
" style="fill:#871f78;opacity:0.35;"/>
   </g>
   <g id="patch_28">
    <path clip-path="url(#p85561b23dc)" d="M 118.085381 192.24 
L 119.279968 192.24 
L 119.279968 179.390605 
L 118.085381 179.390605 
z
" style="fill:#871f78;opacity:0.35;"/>
   </g>
   <g id="patch_29">
    <path clip-path="url(#p85561b23dc)" d="M 119.578615 192.24 
L 120.773201 192.24 
L 120.773201 179.390605 
L 119.578615 179.390605 
z
" style="fill:#871f78;opacity:0.35;"/>
   </g>
   <g id="patch_30">
    <path clip-path="url(#p85561b23dc)" d="M 121.071848 192.24 
L 122.266435 192.24 
L 122.266435 192.24 
L 121.071848 192.24 
z
" style="fill:#871f78;opacity:0.35;"/>
   </g>
   <g id="patch_31">
    <path clip-path="url(#p85561b23dc)" d="M 122.565081 192.24 
L 123.759668 192.24 
L 123.759668 192.24 
L 122.565081 192.24 
z
" style="fill:#871f78;opacity:0.35;"/>
   </g>
   <g id="patch_32">
    <path clip-path="url(#p85561b23dc)" d="M 124.058315 192.24 
L 125.252902 192.24 
L 125.252902 192.24 
L 124.058315 192.24 
z
" style="fill:#871f78;opacity:0.35;"/>
   </g>
   <g id="patch_33">
    <path clip-path="url(#p85561b23dc)" d="M 125.551548 192.24 
L 126.746135 192.24 
L 126.746135 192.24 
L 125.551548 192.24 
z
" style="fill:#871f78;opacity:0.35;"/>
   </g>
   <g id="patch_34">
    <path clip-path="url(#p85561b23dc)" d="M 127.044782 192.24 
L 128.239368 192.24 
L 128.239368 192.24 
L 127.044782 192.24 
z
" style="fill:#871f78;opacity:0.35;"/>
   </g>
   <g id="patch_35">
    <path clip-path="url(#p85561b23dc)" d="M 128.538015 192.24 
L 129.732602 192.24 
L 129.732602 179.390605 
L 128.538015 179.390605 
z
" style="fill:#871f78;opacity:0.35;"/>
   </g>
   <g id="patch_36">
    <path clip-path="url(#p85561b23dc)" d="M 130.031249 192.24 
L 131.225835 192.24 
L 131.225835 205.089395 
L 130.031249 205.089395 
z
" style="fill:#871f78;opacity:0.35;"/>
   </g>
   <g id="patch_37">
    <path clip-path="url(#p85561b23dc)" d="M 131.524482 192.24 
L 132.719069 192.24 
L 132.719069 179.390605 
L 131.524482 179.390605 
z
" style="fill:#871f78;opacity:0.35;"/>
   </g>
   <g id="patch_38">
    <path clip-path="url(#p85561b23dc)" d="M 133.017715 192.24 
L 134.212302 192.24 
L 134.212302 192.24 
L 133.017715 192.24 
z
" style="fill:#871f78;opacity:0.35;"/>
   </g>
   <g id="patch_39">
    <path clip-path="url(#p85561b23dc)" d="M 134.510949 192.24 
L 135.705536 192.24 
L 135.705536 192.24 
L 134.510949 192.24 
z
" style="fill:#871f78;opacity:0.35;"/>
   </g>
   <g id="patch_40">
    <path clip-path="url(#p85561b23dc)" d="M 136.004182 192.24 
L 137.198769 192.24 
L 137.198769 192.24 
L 136.004182 192.24 
z
" style="fill:#871f78;opacity:0.35;"/>
   </g>
   <g id="patch_41">
    <path clip-path="url(#p85561b23dc)" d="M 137.497416 192.24 
L 138.692002 192.24 
L 138.692002 179.390605 
L 137.497416 179.390605 
z
" style="fill:#871f78;opacity:0.35;"/>
   </g>
   <g id="patch_42">
    <path clip-path="url(#p85561b23dc)" d="M 138.990649 192.24 
L 140.185236 192.24 
L 140.185236 192.24 
L 138.990649 192.24 
z
" style="fill:#871f78;opacity:0.35;"/>
   </g>
   <g id="patch_43">
    <path clip-path="url(#p85561b23dc)" d="M 140.483883 192.24 
L 141.678469 192.24 
L 141.678469 192.24 
L 140.483883 192.24 
z
" style="fill:#871f78;opacity:0.35;"/>
   </g>
   <g id="patch_44">
    <path clip-path="url(#p85561b23dc)" d="M 141.977116 192.24 
L 143.171703 192.24 
L 143.171703 192.24 
L 141.977116 192.24 
z
" style="fill:#871f78;opacity:0.35;"/>
   </g>
   <g id="patch_45">
    <path clip-path="url(#p85561b23dc)" d="M 143.470349 192.24 
L 144.664936 192.24 
L 144.664936 192.24 
L 143.470349 192.24 
z
" style="fill:#871f78;opacity:0.35;"/>
   </g>
   <g id="patch_46">
    <path clip-path="url(#p85561b23dc)" d="M 144.963583 192.24 
L 146.15817 192.24 
L 146.15817 192.24 
L 144.963583 192.24 
z
" style="fill:#871f78;opacity:0.35;"/>
   </g>
   <g id="patch_47">
    <path clip-path="url(#p85561b23dc)" d="M 146.456816 192.24 
L 147.651403 192.24 
L 147.651403 179.390605 
L 146.456816 179.390605 
z
" style="fill:#871f78;opacity:0.35;"/>
   </g>
   <g id="patch_48">
    <path clip-path="url(#p85561b23dc)" d="M 147.95005 192.24 
L 149.144636 192.24 
L 149.144636 179.390605 
L 147.95005 179.390605 
z
" style="fill:#871f78;opacity:0.35;"/>
   </g>
   <g id="patch_49">
    <path clip-path="url(#p85561b23dc)" d="M 149.443283 192.24 
L 150.63787 192.24 
L 150.63787 192.24 
L 149.443283 192.24 
z
" style="fill:#871f78;opacity:0.35;"/>
   </g>
   <g id="patch_50">
    <path clip-path="url(#p85561b23dc)" d="M 150.936517 192.24 
L 152.131103 192.24 
L 152.131103 192.24 
L 150.936517 192.24 
z
" style="fill:#871f78;opacity:0.35;"/>
   </g>
   <g id="patch_51">
    <path clip-path="url(#p85561b23dc)" d="M 152.42975 192.24 
L 153.624337 192.24 
L 153.624337 192.24 
L 152.42975 192.24 
z
" style="fill:#871f78;opacity:0.35;"/>
   </g>
   <g id="patch_52">
    <path clip-path="url(#p85561b23dc)" d="M 153.922983 192.24 
L 155.11757 192.24 
L 155.11757 192.24 
L 153.922983 192.24 
z
" style="fill:#871f78;opacity:0.35;"/>
   </g>
   <g id="patch_53">
    <path clip-path="url(#p85561b23dc)" d="M 155.416217 192.24 
L 156.610804 192.24 
L 156.610804 192.24 
L 155.416217 192.24 
z
" style="fill:#871f78;opacity:0.35;"/>
   </g>
   <g id="patch_54">
    <path clip-path="url(#p85561b23dc)" d="M 156.90945 192.24 
L 158.104037 192.24 
L 158.104037 192.24 
L 156.90945 192.24 
z
" style="fill:#871f78;opacity:0.35;"/>
   </g>
   <g id="patch_55">
    <path clip-path="url(#p85561b23dc)" d="M 158.402684 192.24 
L 159.59727 192.24 
L 159.59727 192.24 
L 158.402684 192.24 
z
" style="fill:#871f78;opacity:0.35;"/>
   </g>
   <g id="patch_56">
    <path clip-path="url(#p85561b23dc)" d="M 159.895917 192.24 
L 161.090504 192.24 
L 161.090504 166.54121 
L 159.895917 166.54121 
z
" style="fill:#871f78;opacity:0.35;"/>
   </g>
   <g id="patch_57">
    <path clip-path="url(#p85561b23dc)" d="M 161.389151 192.24 
L 162.583737 192.24 
L 162.583737 192.24 
L 161.389151 192.24 
z
" style="fill:#871f78;opacity:0.35;"/>
   </g>
   <g id="patch_58">
    <path clip-path="url(#p85561b23dc)" d="M 162.882384 192.24 
L 164.076971 192.24 
L 164.076971 192.24 
L 162.882384 192.24 
z
" style="fill:#871f78;opacity:0.35;"/>
   </g>
   <g id="patch_59">
    <path clip-path="url(#p85561b23dc)" d="M 164.375617 192.24 
L 165.570204 192.24 
L 165.570204 192.24 
L 164.375617 192.24 
z
" style="fill:#871f78;opacity:0.35;"/>
   </g>
   <g id="patch_60">
    <path clip-path="url(#p85561b23dc)" d="M 165.868851 192.24 
L 167.063438 192.24 
L 167.063438 192.24 
L 165.868851 192.24 
z
" style="fill:#871f78;opacity:0.35;"/>
   </g>
   <g id="patch_61">
    <path clip-path="url(#p85561b23dc)" d="M 167.362084 192.24 
L 168.556671 192.24 
L 168.556671 192.24 
L 167.362084 192.24 
z
" style="fill:#871f78;opacity:0.35;"/>
   </g>
   <g id="patch_62">
    <path clip-path="url(#p85561b23dc)" d="M 168.855318 192.24 
L 170.049904 192.24 
L 170.049904 192.24 
L 168.855318 192.24 
z
" style="fill:#871f78;opacity:0.35;"/>
   </g>
   <g id="patch_63">
    <path clip-path="url(#p85561b23dc)" d="M 170.348551 192.24 
L 171.543138 192.24 
L 171.543138 192.24 
L 170.348551 192.24 
z
" style="fill:#871f78;opacity:0.35;"/>
   </g>
   <g id="patch_64">
    <path clip-path="url(#p85561b23dc)" d="M 171.841785 192.24 
L 173.036371 192.24 
L 173.036371 179.390605 
L 171.841785 179.390605 
z
" style="fill:#871f78;opacity:0.35;"/>
   </g>
   <g id="patch_65">
    <path clip-path="url(#p85561b23dc)" d="M 173.335018 192.24 
L 174.529605 192.24 
L 174.529605 192.24 
L 173.335018 192.24 
z
" style="fill:#871f78;opacity:0.35;"/>
   </g>
   <g id="patch_66">
    <path clip-path="url(#p85561b23dc)" d="M 174.828251 192.24 
L 176.022838 192.24 
L 176.022838 192.24 
L 174.828251 192.24 
z
" style="fill:#871f78;opacity:0.35;"/>
   </g>
   <g id="patch_67">
    <path clip-path="url(#p85561b23dc)" d="M 176.321485 192.24 
L 177.516072 192.24 
L 177.516072 192.24 
L 176.321485 192.24 
z
" style="fill:#871f78;opacity:0.35;"/>
   </g>
   <g id="patch_68">
    <path clip-path="url(#p85561b23dc)" d="M 177.814718 192.24 
L 179.009305 192.24 
L 179.009305 192.24 
L 177.814718 192.24 
z
" style="fill:#871f78;opacity:0.35;"/>
   </g>
   <g id="patch_69">
    <path clip-path="url(#p85561b23dc)" d="M 179.307952 192.24 
L 180.502538 192.24 
L 180.502538 192.24 
L 179.307952 192.24 
z
" style="fill:#871f78;opacity:0.35;"/>
   </g>
   <g id="patch_70">
    <path clip-path="url(#p85561b23dc)" d="M 180.801185 192.24 
L 181.995772 192.24 
L 181.995772 166.54121 
L 180.801185 166.54121 
z
" style="fill:#871f78;opacity:0.35;"/>
   </g>
   <g id="patch_71">
    <path clip-path="url(#p85561b23dc)" d="M 182.294419 192.24 
L 183.489005 192.24 
L 183.489005 192.24 
L 182.294419 192.24 
z
" style="fill:#871f78;opacity:0.35;"/>
   </g>
   <g id="patch_72">
    <path clip-path="url(#p85561b23dc)" d="M 183.787652 192.24 
L 184.982239 192.24 
L 184.982239 192.24 
L 183.787652 192.24 
z
" style="fill:#871f78;opacity:0.35;"/>
   </g>
   <g id="patch_73">
    <path clip-path="url(#p85561b23dc)" d="M 185.280885 192.24 
L 186.475472 192.24 
L 186.475472 192.24 
L 185.280885 192.24 
z
" style="fill:#871f78;opacity:0.35;"/>
   </g>
   <g id="patch_74">
    <path clip-path="url(#p85561b23dc)" d="M 186.774119 192.24 
L 187.968706 192.24 
L 187.968706 192.24 
L 186.774119 192.24 
z
" style="fill:#871f78;opacity:0.35;"/>
   </g>
   <g id="patch_75">
    <path clip-path="url(#p85561b23dc)" d="M 188.267352 192.24 
L 189.461939 192.24 
L 189.461939 179.390605 
L 188.267352 179.390605 
z
" style="fill:#871f78;opacity:0.35;"/>
   </g>
   <g id="patch_76">
    <path clip-path="url(#p85561b23dc)" d="M 189.760586 192.24 
L 190.955172 192.24 
L 190.955172 192.24 
L 189.760586 192.24 
z
" style="fill:#871f78;opacity:0.35;"/>
   </g>
   <g id="patch_77">
    <path clip-path="url(#p85561b23dc)" d="M 191.253819 192.24 
L 192.448406 192.24 
L 192.448406 192.24 
L 191.253819 192.24 
z
" style="fill:#871f78;opacity:0.35;"/>
   </g>
   <g id="patch_78">
    <path clip-path="url(#p85561b23dc)" d="M 192.747053 192.24 
L 193.941639 192.24 
L 193.941639 192.24 
L 192.747053 192.24 
z
" style="fill:#871f78;opacity:0.35;"/>
   </g>
   <g id="patch_79">
    <path clip-path="url(#p85561b23dc)" d="M 194.240286 192.24 
L 195.434873 192.24 
L 195.434873 192.24 
L 194.240286 192.24 
z
" style="fill:#871f78;opacity:0.35;"/>
   </g>
   <g id="patch_80">
    <path clip-path="url(#p85561b23dc)" d="M 195.733519 192.24 
L 196.928106 192.24 
L 196.928106 192.24 
L 195.733519 192.24 
z
" style="fill:#871f78;opacity:0.35;"/>
   </g>
   <g id="patch_81">
    <path clip-path="url(#p85561b23dc)" d="M 197.226753 192.24 
L 198.42134 192.24 
L 198.42134 179.390605 
L 197.226753 179.390605 
z
" style="fill:#871f78;opacity:0.35;"/>
   </g>
   <g id="patch_82">
    <path clip-path="url(#p85561b23dc)" d="M 198.719986 192.24 
L 199.914573 192.24 
L 199.914573 153.691815 
L 198.719986 153.691815 
z
" style="fill:#871f78;opacity:0.35;"/>
   </g>
   <g id="patch_83">
    <path clip-path="url(#p85561b23dc)" d="M 200.21322 192.24 
L 201.407806 192.24 
L 201.407806 179.390605 
L 200.21322 179.390605 
z
" style="fill:#871f78;opacity:0.35;"/>
   </g>
   <g id="patch_84">
    <path clip-path="url(#p85561b23dc)" d="M 201.706453 192.24 
L 202.90104 192.24 
L 202.90104 192.24 
L 201.706453 192.24 
z
" style="fill:#871f78;opacity:0.35;"/>
   </g>
   <g id="patch_85">
    <path clip-path="url(#p85561b23dc)" d="M 203.199687 192.24 
L 204.394273 192.24 
L 204.394273 192.24 
L 203.199687 192.24 
z
" style="fill:#871f78;opacity:0.35;"/>
   </g>
   <g id="patch_86">
    <path clip-path="url(#p85561b23dc)" d="M 204.69292 192.24 
L 205.887507 192.24 
L 205.887507 192.24 
L 204.69292 192.24 
z
" style="fill:#871f78;opacity:0.35;"/>
   </g>
   <g id="patch_87">
    <path clip-path="url(#p85561b23dc)" d="M 206.186153 192.24 
L 207.38074 192.24 
L 207.38074 192.24 
L 206.186153 192.24 
z
" style="fill:#871f78;opacity:0.35;"/>
   </g>
   <g id="patch_88">
    <path clip-path="url(#p85561b23dc)" d="M 207.679387 192.24 
L 208.873974 192.24 
L 208.873974 205.089395 
L 207.679387 205.089395 
z
" style="fill:#871f78;opacity:0.35;"/>
   </g>
   <g id="patch_89">
    <path clip-path="url(#p85561b23dc)" d="M 209.17262 192.24 
L 210.367207 192.24 
L 210.367207 192.24 
L 209.17262 192.24 
z
" style="fill:#871f78;opacity:0.35;"/>
   </g>
   <g id="patch_90">
    <path clip-path="url(#p85561b23dc)" d="M 210.665854 192.24 
L 211.86044 192.24 
L 211.86044 192.24 
L 210.665854 192.24 
z
" style="fill:#871f78;opacity:0.35;"/>
   </g>
   <g id="patch_91">
    <path clip-path="url(#p85561b23dc)" d="M 212.159087 192.24 
L 213.353674 192.24 
L 213.353674 192.24 
L 212.159087 192.24 
z
" style="fill:#871f78;opacity:0.35;"/>
   </g>
   <g id="patch_92">
    <path clip-path="url(#p85561b23dc)" d="M 213.652321 192.24 
L 214.846907 192.24 
L 214.846907 192.24 
L 213.652321 192.24 
z
" style="fill:#871f78;opacity:0.35;"/>
   </g>
   <g id="patch_93">
    <path clip-path="url(#p85561b23dc)" d="M 215.145554 192.24 
L 216.340141 192.24 
L 216.340141 192.24 
L 215.145554 192.24 
z
" style="fill:#871f78;opacity:0.35;"/>
   </g>
   <g id="patch_94">
    <path clip-path="url(#p85561b23dc)" d="M 216.638787 192.24 
L 217.833374 192.24 
L 217.833374 192.24 
L 216.638787 192.24 
z
" style="fill:#871f78;opacity:0.35;"/>
   </g>
   <g id="patch_95">
    <path clip-path="url(#p85561b23dc)" d="M 218.132021 192.24 
L 219.326608 192.24 
L 219.326608 192.24 
L 218.132021 192.24 
z
" style="fill:#871f78;opacity:0.35;"/>
   </g>
   <g id="patch_96">
    <path clip-path="url(#p85561b23dc)" d="M 219.625254 192.24 
L 220.819841 192.24 
L 220.819841 179.390605 
L 219.625254 179.390605 
z
" style="fill:#871f78;opacity:0.35;"/>
   </g>
   <g id="patch_97">
    <path clip-path="url(#p85561b23dc)" d="M 221.118488 192.24 
L 222.313074 192.24 
L 222.313074 166.54121 
L 221.118488 166.54121 
z
" style="fill:#871f78;opacity:0.35;"/>
   </g>
   <g id="patch_98">
    <path clip-path="url(#p85561b23dc)" d="M 222.611721 192.24 
L 223.806308 192.24 
L 223.806308 153.691815 
L 222.611721 153.691815 
z
" style="fill:#871f78;opacity:0.35;"/>
   </g>
   <g id="patch_99">
    <path clip-path="url(#p85561b23dc)" d="M 224.104955 192.24 
L 225.299541 192.24 
L 225.299541 179.390605 
L 224.104955 179.390605 
z
" style="fill:#871f78;opacity:0.35;"/>
   </g>
   <g id="patch_100">
    <path clip-path="url(#p85561b23dc)" d="M 225.598188 192.24 
L 226.792775 192.24 
L 226.792775 192.24 
L 225.598188 192.24 
z
" style="fill:#871f78;opacity:0.35;"/>
   </g>
   <g id="patch_101">
    <path clip-path="url(#p85561b23dc)" d="M 227.091421 192.24 
L 228.286008 192.24 
L 228.286008 192.24 
L 227.091421 192.24 
z
" style="fill:#871f78;opacity:0.35;"/>
   </g>
   <g id="patch_102">
    <path clip-path="url(#p85561b23dc)" d="M 228.584655 192.24 
L 229.779242 192.24 
L 229.779242 179.390605 
L 228.584655 179.390605 
z
" style="fill:#871f78;opacity:0.35;"/>
   </g>
   <g id="patch_103">
    <path clip-path="url(#p85561b23dc)" d="M 230.077888 192.24 
L 231.272475 192.24 
L 231.272475 179.390605 
L 230.077888 179.390605 
z
" style="fill:#871f78;opacity:0.35;"/>
   </g>
   <g id="patch_104">
    <path clip-path="url(#p85561b23dc)" d="M 231.571122 192.24 
L 232.765708 192.24 
L 232.765708 179.390605 
L 231.571122 179.390605 
z
" style="fill:#871f78;opacity:0.35;"/>
   </g>
   <g id="patch_105">
    <path clip-path="url(#p85561b23dc)" d="M 233.064355 192.24 
L 234.258942 192.24 
L 234.258942 192.24 
L 233.064355 192.24 
z
" style="fill:#871f78;opacity:0.35;"/>
   </g>
   <g id="patch_106">
    <path clip-path="url(#p85561b23dc)" d="M 234.557589 192.24 
L 235.752175 192.24 
L 235.752175 179.390605 
L 234.557589 179.390605 
z
" style="fill:#871f78;opacity:0.35;"/>
   </g>
   <g id="patch_107">
    <path clip-path="url(#p85561b23dc)" d="M 236.050822 192.24 
L 237.245409 192.24 
L 237.245409 192.24 
L 236.050822 192.24 
z
" style="fill:#871f78;opacity:0.35;"/>
   </g>
   <g id="patch_108">
    <path clip-path="url(#p85561b23dc)" d="M 237.544055 192.24 
L 238.738642 192.24 
L 238.738642 192.24 
L 237.544055 192.24 
z
" style="fill:#871f78;opacity:0.35;"/>
   </g>
   <g id="patch_109">
    <path clip-path="url(#p85561b23dc)" d="M 239.037289 192.24 
L 240.231876 192.24 
L 240.231876 192.24 
L 239.037289 192.24 
z
" style="fill:#871f78;opacity:0.35;"/>
   </g>
   <g id="patch_110">
    <path clip-path="url(#p85561b23dc)" d="M 240.530522 192.24 
L 241.725109 192.24 
L 241.725109 192.24 
L 240.530522 192.24 
z
" style="fill:#871f78;opacity:0.35;"/>
   </g>
   <g id="patch_111">
    <path clip-path="url(#p85561b23dc)" d="M 242.023756 192.24 
L 243.218342 192.24 
L 243.218342 192.24 
L 242.023756 192.24 
z
" style="fill:#871f78;opacity:0.35;"/>
   </g>
   <g id="patch_112">
    <path clip-path="url(#p85561b23dc)" d="M 243.516989 192.24 
L 244.711576 192.24 
L 244.711576 192.24 
L 243.516989 192.24 
z
" style="fill:#871f78;opacity:0.35;"/>
   </g>
   <g id="patch_113">
    <path clip-path="url(#p85561b23dc)" d="M 245.010222 192.24 
L 246.204809 192.24 
L 246.204809 192.24 
L 245.010222 192.24 
z
" style="fill:#871f78;opacity:0.35;"/>
   </g>
   <g id="patch_114">
    <path clip-path="url(#p85561b23dc)" d="M 246.503456 192.24 
L 247.698043 192.24 
L 247.698043 192.24 
L 246.503456 192.24 
z
" style="fill:#871f78;opacity:0.35;"/>
   </g>
   <g id="patch_115">
    <path clip-path="url(#p85561b23dc)" d="M 247.996689 192.24 
L 249.191276 192.24 
L 249.191276 179.390605 
L 247.996689 179.390605 
z
" style="fill:#871f78;opacity:0.35;"/>
   </g>
   <g id="patch_116">
    <path clip-path="url(#p85561b23dc)" d="M 249.489923 192.24 
L 250.68451 192.24 
L 250.68451 179.390605 
L 249.489923 179.390605 
z
" style="fill:#871f78;opacity:0.35;"/>
   </g>
   <g id="patch_117">
    <path clip-path="url(#p85561b23dc)" d="M 250.983156 192.24 
L 252.177743 192.24 
L 252.177743 192.24 
L 250.983156 192.24 
z
" style="fill:#871f78;opacity:0.35;"/>
   </g>
   <g id="patch_118">
    <path clip-path="url(#p85561b23dc)" d="M 252.47639 192.24 
L 253.670976 192.24 
L 253.670976 192.24 
L 252.47639 192.24 
z
" style="fill:#871f78;opacity:0.35;"/>
   </g>
   <g id="patch_119">
    <path clip-path="url(#p85561b23dc)" d="M 253.969623 192.24 
L 255.16421 192.24 
L 255.16421 192.24 
L 253.969623 192.24 
z
" style="fill:#871f78;opacity:0.35;"/>
   </g>
   <g id="patch_120">
    <path clip-path="url(#p85561b23dc)" d="M 255.462856 192.24 
L 256.657443 192.24 
L 256.657443 192.24 
L 255.462856 192.24 
z
" style="fill:#871f78;opacity:0.35;"/>
   </g>
   <g id="patch_121">
    <path clip-path="url(#p85561b23dc)" d="M 256.95609 192.24 
L 258.150677 192.24 
L 258.150677 179.390605 
L 256.95609 179.390605 
z
" style="fill:#871f78;opacity:0.35;"/>
   </g>
   <g id="patch_122">
    <path clip-path="url(#p85561b23dc)" d="M 258.449323 192.24 
L 259.64391 192.24 
L 259.64391 192.24 
L 258.449323 192.24 
z
" style="fill:#871f78;opacity:0.35;"/>
   </g>
   <g id="patch_123">
    <path clip-path="url(#p85561b23dc)" d="M 259.942557 192.24 
L 261.137144 192.24 
L 261.137144 192.24 
L 259.942557 192.24 
z
" style="fill:#871f78;opacity:0.35;"/>
   </g>
   <g id="patch_124">
    <path clip-path="url(#p85561b23dc)" d="M 261.43579 192.24 
L 262.630377 192.24 
L 262.630377 192.24 
L 261.43579 192.24 
z
" style="fill:#871f78;opacity:0.35;"/>
   </g>
   <g id="patch_125">
    <path clip-path="url(#p85561b23dc)" d="M 262.929024 192.24 
L 264.12361 192.24 
L 264.12361 192.24 
L 262.929024 192.24 
z
" style="fill:#871f78;opacity:0.35;"/>
   </g>
   <g id="patch_126">
    <path clip-path="url(#p85561b23dc)" d="M 264.422257 192.24 
L 265.616844 192.24 
L 265.616844 192.24 
L 264.422257 192.24 
z
" style="fill:#871f78;opacity:0.35;"/>
   </g>
   <g id="patch_127">
    <path clip-path="url(#p85561b23dc)" d="M 265.91549 192.24 
L 267.110077 192.24 
L 267.110077 192.24 
L 265.91549 192.24 
z
" style="fill:#871f78;opacity:0.35;"/>
   </g>
   <g id="patch_128">
    <path clip-path="url(#p85561b23dc)" d="M 267.408724 192.24 
L 268.603311 192.24 
L 268.603311 192.24 
L 267.408724 192.24 
z
" style="fill:#871f78;opacity:0.35;"/>
   </g>
   <g id="patch_129">
    <path clip-path="url(#p85561b23dc)" d="M 268.901957 192.24 
L 270.096544 192.24 
L 270.096544 192.24 
L 268.901957 192.24 
z
" style="fill:#871f78;opacity:0.35;"/>
   </g>
   <g id="patch_130">
    <path clip-path="url(#p85561b23dc)" d="M 270.395191 192.24 
L 271.589778 192.24 
L 271.589778 192.24 
L 270.395191 192.24 
z
" style="fill:#871f78;opacity:0.35;"/>
   </g>
   <g id="patch_131">
    <path clip-path="url(#p85561b23dc)" d="M 271.888424 192.24 
L 273.083011 192.24 
L 273.083011 192.24 
L 271.888424 192.24 
z
" style="fill:#871f78;opacity:0.35;"/>
   </g>
   <g id="patch_132">
    <path clip-path="url(#p85561b23dc)" d="M 273.381658 192.24 
L 274.576244 192.24 
L 274.576244 192.24 
L 273.381658 192.24 
z
" style="fill:#871f78;opacity:0.35;"/>
   </g>
   <g id="patch_133">
    <path clip-path="url(#p85561b23dc)" d="M 274.874891 192.24 
L 276.069478 192.24 
L 276.069478 179.390605 
L 274.874891 179.390605 
z
" style="fill:#871f78;opacity:0.35;"/>
   </g>
   <g id="patch_134">
    <path clip-path="url(#p85561b23dc)" d="M 276.368124 192.24 
L 277.562711 192.24 
L 277.562711 179.390605 
L 276.368124 179.390605 
z
" style="fill:#871f78;opacity:0.35;"/>
   </g>
   <g id="patch_135">
    <path clip-path="url(#p85561b23dc)" d="M 277.861358 192.24 
L 279.055945 192.24 
L 279.055945 192.24 
L 277.861358 192.24 
z
" style="fill:#871f78;opacity:0.35;"/>
   </g>
   <g id="patch_136">
    <path clip-path="url(#p85561b23dc)" d="M 279.354591 192.24 
L 280.549178 192.24 
L 280.549178 192.24 
L 279.354591 192.24 
z
" style="fill:#871f78;opacity:0.35;"/>
   </g>
   <g id="patch_137">
    <path clip-path="url(#p85561b23dc)" d="M 280.847825 192.24 
L 282.042411 192.24 
L 282.042411 192.24 
L 280.847825 192.24 
z
" style="fill:#871f78;opacity:0.35;"/>
   </g>
   <g id="patch_138">
    <path clip-path="url(#p85561b23dc)" d="M 282.341058 192.24 
L 283.535645 192.24 
L 283.535645 192.24 
L 282.341058 192.24 
z
" style="fill:#871f78;opacity:0.35;"/>
   </g>
   <g id="patch_139">
    <path clip-path="url(#p85561b23dc)" d="M 283.834292 192.24 
L 285.028878 192.24 
L 285.028878 192.24 
L 283.834292 192.24 
z
" style="fill:#871f78;opacity:0.35;"/>
   </g>
   <g id="patch_140">
    <path clip-path="url(#p85561b23dc)" d="M 285.327525 192.24 
L 286.522112 192.24 
L 286.522112 192.24 
L 285.327525 192.24 
z
" style="fill:#871f78;opacity:0.35;"/>
   </g>
   <g id="patch_141">
    <path clip-path="url(#p85561b23dc)" d="M 286.820758 192.24 
L 288.015345 192.24 
L 288.015345 192.24 
L 286.820758 192.24 
z
" style="fill:#871f78;opacity:0.35;"/>
   </g>
   <g id="patch_142">
    <path clip-path="url(#p85561b23dc)" d="M 288.313992 192.24 
L 289.508579 192.24 
L 289.508579 192.24 
L 288.313992 192.24 
z
" style="fill:#871f78;opacity:0.35;"/>
   </g>
   <g id="patch_143">
    <path clip-path="url(#p85561b23dc)" d="M 289.807225 192.24 
L 291.001812 192.24 
L 291.001812 192.24 
L 289.807225 192.24 
z
" style="fill:#871f78;opacity:0.35;"/>
   </g>
   <g id="patch_144">
    <path clip-path="url(#p85561b23dc)" d="M 291.300459 192.24 
L 292.495045 192.24 
L 292.495045 179.390605 
L 291.300459 179.390605 
z
" style="fill:#871f78;opacity:0.35;"/>
   </g>
   <g id="patch_145">
    <path clip-path="url(#p85561b23dc)" d="M 292.793692 192.24 
L 293.988279 192.24 
L 293.988279 153.691815 
L 292.793692 153.691815 
z
" style="fill:#871f78;opacity:0.35;"/>
   </g>
   <g id="patch_146">
    <path clip-path="url(#p85561b23dc)" d="M 294.286926 192.24 
L 295.481512 192.24 
L 295.481512 192.24 
L 294.286926 192.24 
z
" style="fill:#871f78;opacity:0.35;"/>
   </g>
   <g id="patch_147">
    <path clip-path="url(#p85561b23dc)" d="M 295.780159 192.24 
L 296.974746 192.24 
L 296.974746 192.24 
L 295.780159 192.24 
z
" style="fill:#871f78;opacity:0.35;"/>
   </g>
   <g id="patch_148">
    <path clip-path="url(#p85561b23dc)" d="M 297.273392 192.24 
L 298.467979 192.24 
L 298.467979 205.089395 
L 297.273392 205.089395 
z
" style="fill:#871f78;opacity:0.35;"/>
   </g>
   <g id="patch_149">
    <path clip-path="url(#p85561b23dc)" d="M 298.766626 192.24 
L 299.961213 192.24 
L 299.961213 179.390605 
L 298.766626 179.390605 
z
" style="fill:#871f78;opacity:0.35;"/>
   </g>
   <g id="patch_150">
    <path clip-path="url(#p85561b23dc)" d="M 300.259859 192.24 
L 301.454446 192.24 
L 301.454446 192.24 
L 300.259859 192.24 
z
" style="fill:#871f78;opacity:0.35;"/>
   </g>
   <g id="patch_151">
    <path clip-path="url(#p85561b23dc)" d="M 301.753093 192.24 
L 302.947679 192.24 
L 302.947679 192.24 
L 301.753093 192.24 
z
" style="fill:#871f78;opacity:0.35;"/>
   </g>
   <g id="patch_152">
    <path clip-path="url(#p85561b23dc)" d="M 303.246326 192.24 
L 304.440913 192.24 
L 304.440913 192.24 
L 303.246326 192.24 
z
" style="fill:#871f78;opacity:0.35;"/>
   </g>
   <g id="patch_153">
    <path clip-path="url(#p85561b23dc)" d="M 304.73956 192.24 
L 305.934146 192.24 
L 305.934146 192.24 
L 304.73956 192.24 
z
" style="fill:#871f78;opacity:0.35;"/>
   </g>
   <g id="patch_154">
    <path clip-path="url(#p85561b23dc)" d="M 306.232793 192.24 
L 307.42738 192.24 
L 307.42738 192.24 
L 306.232793 192.24 
z
" style="fill:#871f78;opacity:0.35;"/>
   </g>
   <g id="patch_155">
    <path clip-path="url(#p85561b23dc)" d="M 307.726026 192.24 
L 308.920613 192.24 
L 308.920613 192.24 
L 307.726026 192.24 
z
" style="fill:#871f78;opacity:0.35;"/>
   </g>
   <g id="patch_156">
    <path clip-path="url(#p85561b23dc)" d="M 309.21926 192.24 
L 310.413847 192.24 
L 310.413847 192.24 
L 309.21926 192.24 
z
" style="fill:#871f78;opacity:0.35;"/>
   </g>
   <g id="patch_157">
    <path clip-path="url(#p85561b23dc)" d="M 310.712493 192.24 
L 311.90708 192.24 
L 311.90708 192.24 
L 310.712493 192.24 
z
" style="fill:#871f78;opacity:0.35;"/>
   </g>
   <g id="patch_158">
    <path clip-path="url(#p85561b23dc)" d="M 312.205727 192.24 
L 313.400313 192.24 
L 313.400313 166.54121 
L 312.205727 166.54121 
z
" style="fill:#871f78;opacity:0.35;"/>
   </g>
   <g id="patch_159">
    <path clip-path="url(#p85561b23dc)" d="M 313.69896 192.24 
L 314.893547 192.24 
L 314.893547 192.24 
L 313.69896 192.24 
z
" style="fill:#871f78;opacity:0.35;"/>
   </g>
   <g id="patch_160">
    <path clip-path="url(#p85561b23dc)" d="M 315.192194 192.24 
L 316.38678 192.24 
L 316.38678 179.390605 
L 315.192194 179.390605 
z
" style="fill:#871f78;opacity:0.35;"/>
   </g>
   <g id="patch_161">
    <path clip-path="url(#p85561b23dc)" d="M 316.685427 192.24 
L 317.880014 192.24 
L 317.880014 192.24 
L 316.685427 192.24 
z
" style="fill:#871f78;opacity:0.35;"/>
   </g>
   <g id="patch_162">
    <path clip-path="url(#p85561b23dc)" d="M 318.17866 192.24 
L 319.373247 192.24 
L 319.373247 192.24 
L 318.17866 192.24 
z
" style="fill:#871f78;opacity:0.35;"/>
   </g>
   <g id="patch_163">
    <path clip-path="url(#p85561b23dc)" d="M 319.671894 192.24 
L 320.866481 192.24 
L 320.866481 192.24 
L 319.671894 192.24 
z
" style="fill:#871f78;opacity:0.35;"/>
   </g>
   <g id="patch_164">
    <path clip-path="url(#p85561b23dc)" d="M 321.165127 192.24 
L 322.359714 192.24 
L 322.359714 179.390605 
L 321.165127 179.390605 
z
" style="fill:#871f78;opacity:0.35;"/>
   </g>
   <g id="patch_165">
    <path clip-path="url(#p85561b23dc)" d="M 322.658361 192.24 
L 323.852947 192.24 
L 323.852947 192.24 
L 322.658361 192.24 
z
" style="fill:#871f78;opacity:0.35;"/>
   </g>
   <g id="patch_166">
    <path clip-path="url(#p85561b23dc)" d="M 324.151594 192.24 
L 325.346181 192.24 
L 325.346181 192.24 
L 324.151594 192.24 
z
" style="fill:#871f78;opacity:0.35;"/>
   </g>
   <g id="patch_167">
    <path clip-path="url(#p85561b23dc)" d="M 325.644828 192.24 
L 326.839414 192.24 
L 326.839414 192.24 
L 325.644828 192.24 
z
" style="fill:#871f78;opacity:0.35;"/>
   </g>
   <g id="patch_168">
    <path clip-path="url(#p85561b23dc)" d="M 327.138061 192.24 
L 328.332648 192.24 
L 328.332648 192.24 
L 327.138061 192.24 
z
" style="fill:#871f78;opacity:0.35;"/>
   </g>
   <g id="patch_169">
    <path clip-path="url(#p85561b23dc)" d="M 328.631294 192.24 
L 329.825881 192.24 
L 329.825881 192.24 
L 328.631294 192.24 
z
" style="fill:#871f78;opacity:0.35;"/>
   </g>
   <g id="patch_170">
    <path clip-path="url(#p85561b23dc)" d="M 330.124528 192.24 
L 331.319115 192.24 
L 331.319115 192.24 
L 330.124528 192.24 
z
" style="fill:#871f78;opacity:0.35;"/>
   </g>
   <g id="patch_171">
    <path clip-path="url(#p85561b23dc)" d="M 331.617761 192.24 
L 332.812348 192.24 
L 332.812348 192.24 
L 331.617761 192.24 
z
" style="fill:#871f78;opacity:0.35;"/>
   </g>
   <g id="patch_172">
    <path clip-path="url(#p85561b23dc)" d="M 333.110995 192.24 
L 334.305581 192.24 
L 334.305581 192.24 
L 333.110995 192.24 
z
" style="fill:#871f78;opacity:0.35;"/>
   </g>
   <g id="patch_173">
    <path clip-path="url(#p85561b23dc)" d="M 334.604228 192.24 
L 335.798815 192.24 
L 335.798815 179.390605 
L 334.604228 179.390605 
z
" style="fill:#871f78;opacity:0.35;"/>
   </g>
   <g id="patch_174">
    <path clip-path="url(#p85561b23dc)" d="M 336.097462 192.24 
L 337.292048 192.24 
L 337.292048 192.24 
L 336.097462 192.24 
z
" style="fill:#871f78;opacity:0.35;"/>
   </g>
   <g id="patch_175">
    <path clip-path="url(#p85561b23dc)" d="M 337.590695 192.24 
L 338.785282 192.24 
L 338.785282 192.24 
L 337.590695 192.24 
z
" style="fill:#871f78;opacity:0.35;"/>
   </g>
   <g id="patch_176">
    <path clip-path="url(#p85561b23dc)" d="M 339.083928 192.24 
L 340.278515 192.24 
L 340.278515 192.24 
L 339.083928 192.24 
z
" style="fill:#871f78;opacity:0.35;"/>
   </g>
   <g id="patch_177">
    <path clip-path="url(#p85561b23dc)" d="M 340.577162 192.24 
L 341.771749 192.24 
L 341.771749 192.24 
L 340.577162 192.24 
z
" style="fill:#871f78;opacity:0.35;"/>
   </g>
   <g id="patch_178">
    <path clip-path="url(#p85561b23dc)" d="M 342.070395 192.24 
L 343.264982 192.24 
L 343.264982 192.24 
L 342.070395 192.24 
z
" style="fill:#871f78;opacity:0.35;"/>
   </g>
   <g id="patch_179">
    <path clip-path="url(#p85561b23dc)" d="M 343.563629 192.24 
L 344.758215 192.24 
L 344.758215 192.24 
L 343.563629 192.24 
z
" style="fill:#871f78;opacity:0.35;"/>
   </g>
   <g id="patch_180">
    <path clip-path="url(#p85561b23dc)" d="M 345.056862 192.24 
L 346.251449 192.24 
L 346.251449 192.24 
L 345.056862 192.24 
z
" style="fill:#871f78;opacity:0.35;"/>
   </g>
   <g id="patch_181">
    <path clip-path="url(#p85561b23dc)" d="M 346.550096 192.24 
L 347.744682 192.24 
L 347.744682 192.24 
L 346.550096 192.24 
z
" style="fill:#871f78;opacity:0.35;"/>
   </g>
   <g id="patch_182">
    <path clip-path="url(#p85561b23dc)" d="M 348.043329 192.24 
L 349.237916 192.24 
L 349.237916 179.390605 
L 348.043329 179.390605 
z
" style="fill:#871f78;opacity:0.35;"/>
   </g>
   <g id="patch_183">
    <path clip-path="url(#p85561b23dc)" d="M 349.536562 192.24 
L 350.731149 192.24 
L 350.731149 192.24 
L 349.536562 192.24 
z
" style="fill:#871f78;opacity:0.35;"/>
   </g>
   <g id="patch_184">
    <path clip-path="url(#p85561b23dc)" d="M 351.029796 192.24 
L 352.224383 192.24 
L 352.224383 179.390605 
L 351.029796 179.390605 
z
" style="fill:#871f78;opacity:0.35;"/>
   </g>
   <g id="patch_185">
    <path clip-path="url(#p85561b23dc)" d="M 352.523029 192.24 
L 353.717616 192.24 
L 353.717616 192.24 
L 352.523029 192.24 
z
" style="fill:#871f78;opacity:0.35;"/>
   </g>
   <g id="patch_186">
    <path clip-path="url(#p85561b23dc)" d="M 354.016263 192.24 
L 355.210849 192.24 
L 355.210849 179.390605 
L 354.016263 179.390605 
z
" style="fill:#871f78;opacity:0.35;"/>
   </g>
   <g id="patch_187">
    <path clip-path="url(#p85561b23dc)" d="M 355.509496 192.24 
L 356.704083 192.24 
L 356.704083 192.24 
L 355.509496 192.24 
z
" style="fill:#871f78;opacity:0.35;"/>
   </g>
   <g id="patch_188">
    <path clip-path="url(#p85561b23dc)" d="M 357.00273 192.24 
L 358.197316 192.24 
L 358.197316 179.390605 
L 357.00273 179.390605 
z
" style="fill:#871f78;opacity:0.35;"/>
   </g>
   <g id="patch_189">
    <path clip-path="url(#p85561b23dc)" d="M 358.495963 192.24 
L 359.69055 192.24 
L 359.69055 192.24 
L 358.495963 192.24 
z
" style="fill:#871f78;opacity:0.35;"/>
   </g>
   <g id="patch_190">
    <path clip-path="url(#p85561b23dc)" d="M 359.989196 192.24 
L 361.183783 192.24 
L 361.183783 179.390605 
L 359.989196 179.390605 
z
" style="fill:#871f78;opacity:0.35;"/>
   </g>
   <g id="patch_191">
    <path clip-path="url(#p85561b23dc)" d="M 361.48243 192.24 
L 362.677017 192.24 
L 362.677017 179.390605 
L 361.48243 179.390605 
z
" style="fill:#871f78;opacity:0.35;"/>
   </g>
   <g id="patch_192">
    <path clip-path="url(#p85561b23dc)" d="M 362.975663 192.24 
L 364.17025 192.24 
L 364.17025 166.54121 
L 362.975663 166.54121 
z
" style="fill:#871f78;opacity:0.35;"/>
   </g>
   <g id="patch_193">
    <path clip-path="url(#p85561b23dc)" d="M 364.468897 192.24 
L 365.663483 192.24 
L 365.663483 179.390605 
L 364.468897 179.390605 
z
" style="fill:#871f78;opacity:0.35;"/>
   </g>
   <g id="patch_194">
    <path clip-path="url(#p85561b23dc)" d="M 365.96213 192.24 
L 367.156717 192.24 
L 367.156717 192.24 
L 365.96213 192.24 
z
" style="fill:#871f78;opacity:0.35;"/>
   </g>
   <g id="patch_195">
    <path clip-path="url(#p85561b23dc)" d="M 367.455364 192.24 
L 368.64995 192.24 
L 368.64995 192.24 
L 367.455364 192.24 
z
" style="fill:#871f78;opacity:0.35;"/>
   </g>
   <g id="patch_196">
    <path clip-path="url(#p85561b23dc)" d="M 368.948597 192.24 
L 370.143184 192.24 
L 370.143184 179.390605 
L 368.948597 179.390605 
z
" style="fill:#871f78;opacity:0.35;"/>
   </g>
   <g id="patch_197">
    <path clip-path="url(#p85561b23dc)" d="M 370.44183 192.24 
L 371.636417 192.24 
L 371.636417 192.24 
L 370.44183 192.24 
z
" style="fill:#871f78;opacity:0.35;"/>
   </g>
   <g id="patch_198">
    <path clip-path="url(#p85561b23dc)" d="M 371.935064 192.24 
L 373.129651 192.24 
L 373.129651 192.24 
L 371.935064 192.24 
z
" style="fill:#871f78;opacity:0.35;"/>
   </g>
   <g id="patch_199">
    <path clip-path="url(#p85561b23dc)" d="M 373.428297 192.24 
L 374.622884 192.24 
L 374.622884 166.54121 
L 373.428297 166.54121 
z
" style="fill:#871f78;opacity:0.35;"/>
   </g>
   <g id="patch_200">
    <path clip-path="url(#p85561b23dc)" d="M 374.921531 192.24 
L 376.116117 192.24 
L 376.116117 179.390605 
L 374.921531 179.390605 
z
" style="fill:#871f78;opacity:0.35;"/>
   </g>
   <g id="patch_201">
    <path clip-path="url(#p85561b23dc)" d="M 376.414764 192.24 
L 377.609351 192.24 
L 377.609351 192.24 
L 376.414764 192.24 
z
" style="fill:#871f78;opacity:0.35;"/>
   </g>
   <g id="patch_202">
    <path clip-path="url(#p85561b23dc)" d="M 377.907998 192.24 
L 379.102584 192.24 
L 379.102584 179.390605 
L 377.907998 179.390605 
z
" style="fill:#871f78;opacity:0.35;"/>
   </g>
   <g id="patch_203">
    <path clip-path="url(#p85561b23dc)" d="M 379.401231 192.24 
L 380.595818 192.24 
L 380.595818 179.390605 
L 379.401231 179.390605 
z
" style="fill:#871f78;opacity:0.35;"/>
   </g>
   <g id="patch_204">
    <path clip-path="url(#p85561b23dc)" d="M 380.894464 192.24 
L 382.089051 192.24 
L 382.089051 179.390605 
L 380.894464 179.390605 
z
" style="fill:#871f78;opacity:0.35;"/>
   </g>
   <g id="patch_205">
    <path clip-path="url(#p85561b23dc)" d="M 382.387698 192.24 
L 383.582285 192.24 
L 383.582285 192.24 
L 382.387698 192.24 
z
" style="fill:#871f78;opacity:0.35;"/>
   </g>
   <g id="patch_206">
    <path clip-path="url(#p85561b23dc)" d="M 383.880931 192.24 
L 385.075518 192.24 
L 385.075518 192.24 
L 383.880931 192.24 
z
" style="fill:#871f78;opacity:0.35;"/>
   </g>
   <g id="patch_207">
    <path clip-path="url(#p85561b23dc)" d="M 385.374165 192.24 
L 386.568751 192.24 
L 386.568751 192.24 
L 385.374165 192.24 
z
" style="fill:#871f78;opacity:0.35;"/>
   </g>
   <g id="patch_208">
    <path clip-path="url(#p85561b23dc)" d="M 386.867398 192.24 
L 388.061985 192.24 
L 388.061985 192.24 
L 386.867398 192.24 
z
" style="fill:#871f78;opacity:0.35;"/>
   </g>
   <g id="patch_209">
    <path clip-path="url(#p85561b23dc)" d="M 388.360632 192.24 
L 389.555218 192.24 
L 389.555218 179.390605 
L 388.360632 179.390605 
z
" style="fill:#871f78;opacity:0.35;"/>
   </g>
   <g id="patch_210">
    <path clip-path="url(#p85561b23dc)" d="M 389.853865 192.24 
L 391.048452 192.24 
L 391.048452 179.390605 
L 389.853865 179.390605 
z
" style="fill:#871f78;opacity:0.35;"/>
   </g>
   <g id="patch_211">
    <path clip-path="url(#p85561b23dc)" d="M 391.347098 192.24 
L 392.541685 192.24 
L 392.541685 179.390605 
L 391.347098 179.390605 
z
" style="fill:#871f78;opacity:0.35;"/>
   </g>
   <g id="patch_212">
    <path clip-path="url(#p85561b23dc)" d="M 392.840332 192.24 
L 394.034919 192.24 
L 394.034919 179.390605 
L 392.840332 179.390605 
z
" style="fill:#871f78;opacity:0.35;"/>
   </g>
   <g id="patch_213">
    <path clip-path="url(#p85561b23dc)" d="M 394.333565 192.24 
L 395.528152 192.24 
L 395.528152 205.089395 
L 394.333565 205.089395 
z
" style="fill:#871f78;opacity:0.35;"/>
   </g>
   <g id="patch_214">
    <path clip-path="url(#p85561b23dc)" d="M 395.826799 192.24 
L 397.021385 192.24 
L 397.021385 192.24 
L 395.826799 192.24 
z
" style="fill:#871f78;opacity:0.35;"/>
   </g>
   <g id="patch_215">
    <path clip-path="url(#p85561b23dc)" d="M 397.320032 192.24 
L 398.514619 192.24 
L 398.514619 166.54121 
L 397.320032 166.54121 
z
" style="fill:#871f78;opacity:0.35;"/>
   </g>
   <g id="patch_216">
    <path clip-path="url(#p85561b23dc)" d="M 398.813266 192.24 
L 400.007852 192.24 
L 400.007852 166.54121 
L 398.813266 166.54121 
z
" style="fill:#871f78;opacity:0.35;"/>
   </g>
   <g id="patch_217">
    <path clip-path="url(#p85561b23dc)" d="M 400.306499 192.24 
L 401.501086 192.24 
L 401.501086 166.54121 
L 400.306499 166.54121 
z
" style="fill:#871f78;opacity:0.35;"/>
   </g>
   <g id="patch_218">
    <path clip-path="url(#p85561b23dc)" d="M 401.799732 192.24 
L 402.994319 192.24 
L 402.994319 179.390605 
L 401.799732 179.390605 
z
" style="fill:#871f78;opacity:0.35;"/>
   </g>
   <g id="patch_219">
    <path clip-path="url(#p85561b23dc)" d="M 403.292966 192.24 
L 404.487553 192.24 
L 404.487553 179.390605 
L 403.292966 179.390605 
z
" style="fill:#871f78;opacity:0.35;"/>
   </g>
   <g id="patch_220">
    <path clip-path="url(#p85561b23dc)" d="M 404.786199 192.24 
L 405.980786 192.24 
L 405.980786 179.390605 
L 404.786199 179.390605 
z
" style="fill:#871f78;opacity:0.35;"/>
   </g>
   <g id="patch_221">
    <path clip-path="url(#p85561b23dc)" d="M 406.279433 192.24 
L 407.474019 192.24 
L 407.474019 166.54121 
L 406.279433 166.54121 
z
" style="fill:#871f78;opacity:0.35;"/>
   </g>
   <g id="patch_222">
    <path clip-path="url(#p85561b23dc)" d="M 407.772666 192.24 
L 408.967253 192.24 
L 408.967253 166.54121 
L 407.772666 166.54121 
z
" style="fill:#871f78;opacity:0.35;"/>
   </g>
   <g id="patch_223">
    <path clip-path="url(#p85561b23dc)" d="M 409.2659 192.24 
L 410.460486 192.24 
L 410.460486 153.691815 
L 409.2659 153.691815 
z
" style="fill:#871f78;opacity:0.35;"/>
   </g>
   <g id="patch_224">
    <path clip-path="url(#p85561b23dc)" d="M 410.759133 192.24 
L 411.95372 192.24 
L 411.95372 166.54121 
L 410.759133 166.54121 
z
" style="fill:#871f78;opacity:0.35;"/>
   </g>
   <g id="patch_225">
    <path clip-path="url(#p85561b23dc)" d="M 412.252366 192.24 
L 413.446953 192.24 
L 413.446953 127.993025 
L 412.252366 127.993025 
z
" style="fill:#871f78;opacity:0.35;"/>
   </g>
   <g id="patch_226">
    <path clip-path="url(#p85561b23dc)" d="M 413.7456 192.24 
L 414.940187 192.24 
L 414.940187 166.54121 
L 413.7456 166.54121 
z
" style="fill:#871f78;opacity:0.35;"/>
   </g>
   <g id="patch_227">
    <path clip-path="url(#p85561b23dc)" d="M 415.238833 192.24 
L 416.43342 192.24 
L 416.43342 166.54121 
L 415.238833 166.54121 
z
" style="fill:#871f78;opacity:0.35;"/>
   </g>
   <g id="patch_228">
    <path clip-path="url(#p85561b23dc)" d="M 416.732067 192.24 
L 417.926653 192.24 
L 417.926653 140.84242 
L 416.732067 140.84242 
z
" style="fill:#871f78;opacity:0.35;"/>
   </g>
   <g id="patch_229">
    <path clip-path="url(#p85561b23dc)" d="M 418.2253 192.24 
L 419.419887 192.24 
L 419.419887 192.24 
L 418.2253 192.24 
z
" style="fill:#871f78;opacity:0.35;"/>
   </g>
   <g id="patch_230">
    <path clip-path="url(#p85561b23dc)" d="M 419.718534 192.24 
L 420.91312 192.24 
L 420.91312 140.84242 
L 419.718534 140.84242 
z
" style="fill:#871f78;opacity:0.35;"/>
   </g>
   <g id="patch_231">
    <path clip-path="url(#p85561b23dc)" d="M 421.211767 192.24 
L 422.406354 192.24 
L 422.406354 115.14363 
L 421.211767 115.14363 
z
" style="fill:#871f78;opacity:0.35;"/>
   </g>
   <g id="patch_232">
    <path clip-path="url(#p85561b23dc)" d="M 422.705 192.24 
L 423.899587 192.24 
L 423.899587 76.595444 
L 422.705 76.595444 
z
" style="fill:#871f78;opacity:0.35;"/>
   </g>
   <g id="patch_233">
    <path clip-path="url(#p85561b23dc)" d="M 424.198234 192.24 
L 425.392821 192.24 
L 425.392821 -0.500926 
L 424.198234 -0.500926 
z
" style="fill:#871f78;opacity:0.35;"/>
   </g>
   <g id="patch_234">
    <path clip-path="url(#p85561b23dc)" d="M 425.691467 192.24 
L 426.886054 192.24 
L 426.886054 153.691815 
L 425.691467 153.691815 
z
" style="fill:#871f78;opacity:0.35;"/>
   </g>
   <g id="patch_235">
    <path clip-path="url(#p85561b23dc)" d="M 427.184701 192.24 
L 428.379287 192.24 
L 428.379287 127.993025 
L 427.184701 127.993025 
z
" style="fill:#871f78;opacity:0.35;"/>
   </g>
   <g id="patch_236">
    <path clip-path="url(#p85561b23dc)" d="M 428.677934 192.24 
L 429.872521 192.24 
L 429.872521 127.993025 
L 428.677934 127.993025 
z
" style="fill:#871f78;opacity:0.35;"/>
   </g>
   <g id="patch_237">
    <path clip-path="url(#p85561b23dc)" d="M 430.171168 192.24 
L 431.365754 192.24 
L 431.365754 153.691815 
L 430.171168 153.691815 
z
" style="fill:#871f78;opacity:0.35;"/>
   </g>
   <g id="patch_238">
    <path clip-path="url(#p85561b23dc)" d="M 431.664401 192.24 
L 432.858988 192.24 
L 432.858988 115.14363 
L 431.664401 115.14363 
z
" style="fill:#871f78;opacity:0.35;"/>
   </g>
   <g id="patch_239">
    <path clip-path="url(#p85561b23dc)" d="M 433.157634 192.24 
L 434.352221 192.24 
L 434.352221 89.444839 
L 433.157634 89.444839 
z
" style="fill:#871f78;opacity:0.35;"/>
   </g>
   <g id="patch_240">
    <path clip-path="url(#p85561b23dc)" d="M 434.650868 192.24 
L 435.845455 192.24 
L 435.845455 153.691815 
L 434.650868 153.691815 
z
" style="fill:#871f78;opacity:0.35;"/>
   </g>
   <g id="line2d_23">
    <path clip-path="url(#p85561b23dc)" d="M 90.311239 188.568744 
L 91.804473 188.568744 
L 93.297706 186.733116 
L 102.257107 186.733116 
L 103.75034 188.568744 
L 105.243574 188.568744 
L 106.736807 190.404372 
L 109.723274 190.404372 
L 111.216507 192.24 
L 112.709741 192.24 
L 114.202974 190.404372 
L 115.696208 190.404372 
L 120.175908 184.897489 
L 123.162375 184.897489 
L 124.655608 186.733116 
L 126.148842 186.733116 
L 127.642075 188.568744 
L 129.135309 188.568744 
L 130.628542 192.24 
L 132.121775 190.404372 
L 136.601476 190.404372 
L 138.094709 188.568744 
L 139.587943 190.404372 
L 141.081176 188.568744 
L 142.574409 190.404372 
L 145.560876 190.404372 
L 147.05411 188.568744 
L 156.01351 188.568744 
L 158.999977 192.24 
L 160.49321 188.568744 
L 169.452611 188.568744 
L 170.945844 192.24 
L 172.439078 190.404372 
L 179.905245 190.404372 
L 181.398478 186.733116 
L 182.891712 188.568744 
L 187.371412 188.568744 
L 188.864646 186.733116 
L 190.357879 186.733116 
L 191.851112 190.404372 
L 196.330813 190.404372 
L 197.824046 188.568744 
L 199.31728 184.897489 
L 200.810513 183.061861 
L 206.783447 183.061861 
L 208.27668 186.733116 
L 209.769914 192.24 
L 211.263147 194.075628 
L 217.236081 194.075628 
L 220.222548 190.404372 
L 221.715781 186.733116 
L 223.209014 181.226233 
L 224.702248 179.390605 
L 227.688715 179.390605 
L 229.181948 177.554977 
L 230.675182 177.554977 
L 232.168415 179.390605 
L 233.661648 184.897489 
L 238.141349 184.897489 
L 242.621049 190.404372 
L 244.114282 190.404372 
L 245.607516 192.24 
L 247.100749 192.24 
L 250.087216 188.568744 
L 256.06015 188.568744 
L 257.553383 186.733116 
L 260.53985 190.404372 
L 266.512784 190.404372 
L 268.006017 192.24 
L 273.978951 192.24 
L 276.965418 188.568744 
L 284.431585 188.568744 
L 287.418052 192.24 
L 290.404519 192.24 
L 291.897752 190.404372 
L 293.390986 184.897489 
L 296.377452 184.897489 
L 297.870686 186.733116 
L 299.363919 184.897489 
L 300.857153 184.897489 
L 302.350386 186.733116 
L 303.84362 192.24 
L 306.830086 192.24 
L 308.32332 190.404372 
L 309.816553 192.24 
L 311.309787 192.24 
L 312.80302 188.568744 
L 314.296254 188.568744 
L 315.789487 186.733116 
L 320.269187 186.733116 
L 321.762421 184.897489 
L 323.255654 188.568744 
L 324.748888 188.568744 
L 326.242121 190.404372 
L 330.721821 190.404372 
L 332.215055 192.24 
L 333.708288 192.24 
L 335.201522 190.404372 
L 344.160922 190.404372 
L 345.654156 192.24 
L 347.147389 192.24 
L 348.640622 190.404372 
L 350.133856 190.404372 
L 351.627089 188.568744 
L 353.120323 188.568744 
L 354.613556 186.733116 
L 356.10679 186.733116 
L 357.600023 184.897489 
L 359.093256 186.733116 
L 360.58649 184.897489 
L 362.079723 184.897489 
L 363.572957 181.226233 
L 366.559424 181.226233 
L 368.052657 183.061861 
L 369.54589 181.226233 
L 372.532357 184.897489 
L 377.012057 184.897489 
L 378.505291 183.061861 
L 379.998524 183.061861 
L 381.491758 181.226233 
L 382.984991 181.226233 
L 384.478225 184.897489 
L 385.971458 186.733116 
L 391.944392 186.733116 
L 393.437625 184.897489 
L 394.930859 186.733116 
L 396.424092 186.733116 
L 397.917325 183.061861 
L 400.903792 179.390605 
L 403.890259 179.390605 
L 406.876726 172.048093 
L 408.369959 172.048093 
L 409.863193 170.212466 
L 411.356426 170.212466 
L 412.84966 162.869954 
L 415.836127 159.198698 
L 417.32936 155.527443 
L 418.822593 159.198698 
L 420.315827 157.363071 
L 423.302294 142.678048 
L 424.795527 118.814885 
L 427.781994 115.14363 
L 429.275227 105.96549 
L 430.768461 107.801118 
L 432.261694 107.801118 
L 433.754928 109.636746 
L 435.248161 131.66428 
L 435.248161 131.66428 
" style="fill:none;stroke:#871f78;stroke-linecap:round;stroke-width:1.5;"/>
   </g>
   <g id="patch_241">
    <path d="M 63 192.24 
L 453.6 192.24 
" style="fill:none;stroke:#cccccc;stroke-linecap:square;stroke-linejoin:miter;"/>
   </g>
   <g id="text_16">
    <!-- 7-day -->
    <defs>
     <path d="M 12.796875 72.90625 
L 62.703125 72.90625 
L 61.8125 68.703125 
L 20.125 0 
L 9.28125 0 
L 48.6875 64.59375 
L 11.1875 64.59375 
z
" id="DejaVuSans-Oblique-55"/>
     <path d="M 6.109375 31.390625 
L 32.421875 31.390625 
L 30.90625 23.390625 
L 4.5 23.390625 
z
" id="DejaVuSans-Oblique-45"/>
     <path d="M 41.796875 8.203125 
Q 38.1875 3.46875 33.25 1.015625 
Q 28.328125 -1.421875 22.3125 -1.421875 
Q 14.109375 -1.421875 9.34375 4.171875 
Q 4.59375 9.765625 4.59375 19.484375 
Q 4.59375 27.59375 7.46875 34.9375 
Q 10.359375 42.28125 15.828125 48.09375 
Q 19.4375 51.953125 23.96875 53.96875 
Q 28.515625 56 33.5 56 
Q 38.765625 56 42.796875 53.453125 
Q 46.828125 50.921875 49.03125 46.1875 
L 54.890625 75.984375 
L 63.921875 75.984375 
L 49.125 0 
L 40.09375 0 
z
M 13.921875 21.09375 
Q 13.921875 14.015625 17.109375 10.0625 
Q 20.3125 6.109375 25.984375 6.109375 
Q 30.171875 6.109375 33.765625 8.125 
Q 37.359375 10.15625 40.09375 14.109375 
Q 42.96875 18.21875 44.625 23.578125 
Q 46.296875 28.953125 46.296875 34.1875 
Q 46.296875 40.96875 43.09375 44.765625 
Q 39.890625 48.578125 34.28125 48.578125 
Q 30.03125 48.578125 26.359375 46.578125 
Q 22.703125 44.578125 20.125 40.828125 
Q 17.28125 36.765625 15.59375 31.390625 
Q 13.921875 26.03125 13.921875 21.09375 
z
" id="DejaVuSans-Oblique-100"/>
     <path d="M 53.71875 31.203125 
L 47.609375 0 
L 38.625 0 
L 40.28125 8.296875 
Q 36.328125 3.421875 31.265625 1 
Q 26.21875 -1.421875 20.015625 -1.421875 
Q 13.03125 -1.421875 8.5625 2.84375 
Q 4.109375 7.125 4.109375 13.8125 
Q 4.109375 23.390625 11.75 28.953125 
Q 19.390625 34.515625 32.8125 34.515625 
L 45.3125 34.515625 
L 45.796875 36.921875 
Q 45.90625 37.3125 45.953125 37.765625 
Q 46 38.234375 46 39.203125 
Q 46 43.5625 42.453125 45.96875 
Q 38.921875 48.390625 32.515625 48.390625 
Q 28.125 48.390625 23.5 47.265625 
Q 18.890625 46.140625 14.015625 43.890625 
L 15.578125 52.203125 
Q 20.65625 54.109375 25.515625 55.046875 
Q 30.375 56 34.90625 56 
Q 44.578125 56 49.625 51.796875 
Q 54.6875 47.609375 54.6875 39.59375 
Q 54.6875 37.984375 54.4375 35.8125 
Q 54.203125 33.640625 53.71875 31.203125 
z
M 44 27.484375 
L 35.015625 27.484375 
Q 23.96875 27.484375 18.671875 24.53125 
Q 13.375 21.578125 13.375 15.375 
Q 13.375 11.078125 16.078125 8.640625 
Q 18.796875 6.203125 23.578125 6.203125 
Q 30.90625 6.203125 36.375 11.453125 
Q 41.84375 16.703125 43.609375 25.484375 
z
" id="DejaVuSans-Oblique-97"/>
     <path d="M 24.8125 -5.078125 
Q 18.5625 -15.578125 14.625 -18.1875 
Q 10.6875 -20.796875 4.59375 -20.796875 
L -2.484375 -20.796875 
L -0.984375 -13.28125 
L 4.203125 -13.28125 
Q 7.953125 -13.28125 10.59375 -11.234375 
Q 13.234375 -9.1875 16.5 -3.21875 
L 19.28125 2 
L 7.171875 54.6875 
L 16.703125 54.6875 
L 25.78125 12.796875 
L 50.875 54.6875 
L 60.296875 54.6875 
z
" id="DejaVuSans-Oblique-121"/>
    </defs>
    <g style="fill:#871f78;" transform="translate(439.727861 120.466468)scale(0.1 -0.1)">
     <use xlink:href="#DejaVuSans-Oblique-55"/>
     <use x="63.623047" xlink:href="#DejaVuSans-Oblique-45"/>
     <use x="99.707031" xlink:href="#DejaVuSans-Oblique-100"/>
     <use x="163.183594" xlink:href="#DejaVuSans-Oblique-97"/>
     <use x="224.462891" xlink:href="#DejaVuSans-Oblique-121"/>
    </g>
    <!-- avg. -->
    <defs>
     <path d="M 7.171875 54.6875 
L 16.703125 54.6875 
L 24.703125 8.203125 
L 50.875 54.6875 
L 60.40625 54.6875 
L 29.296875 0 
L 17.1875 0 
z
" id="DejaVuSans-Oblique-118"/>
     <path d="M 59.625 54.6875 
L 50.296875 6.78125 
Q 47.609375 -7.125 40.015625 -13.953125 
Q 32.421875 -20.796875 19.578125 -20.796875 
Q 14.84375 -20.796875 10.78125 -20.09375 
Q 6.734375 -19.390625 3.21875 -17.921875 
L 4.890625 -9.1875 
Q 8.203125 -11.328125 11.90625 -12.34375 
Q 15.625 -13.375 19.828125 -13.375 
Q 28.375 -13.375 33.859375 -8.703125 
Q 39.359375 -4.046875 41.109375 4.6875 
L 41.890625 8.796875 
Q 38.140625 4.5 33.15625 2.25 
Q 28.171875 0 22.40625 0 
Q 14.109375 0 9.34375 5.484375 
Q 4.59375 10.984375 4.59375 20.609375 
Q 4.59375 28.171875 7.46875 35.421875 
Q 10.359375 42.671875 15.578125 48.296875 
Q 19.046875 52 23.65625 54 
Q 28.265625 56 33.296875 56 
Q 38.8125 56 42.90625 53.4375 
Q 47.015625 50.875 49.03125 46.1875 
L 50.59375 54.6875 
z
M 46.09375 34.625 
Q 46.09375 41.265625 42.96875 44.875 
Q 39.84375 48.484375 34.078125 48.484375 
Q 30.515625 48.484375 27.296875 47.0625 
Q 24.078125 45.65625 21.78125 43.109375 
Q 18.0625 38.921875 15.984375 33.234375 
Q 13.921875 27.546875 13.921875 21.484375 
Q 13.921875 14.75 17.0625 11.125 
Q 20.21875 7.515625 26.125 7.515625 
Q 34.671875 7.515625 40.375 15.25 
Q 46.09375 23 46.09375 34.625 
z
" id="DejaVuSans-Oblique-103"/>
     <path d="M 8.203125 12.40625 
L 18.5 12.40625 
L 16.109375 0 
L 5.8125 0 
z
" id="DejaVuSans-Oblique-46"/>
    </defs>
    <g style="fill:#871f78;" transform="translate(439.727861 131.66428)scale(0.1 -0.1)">
     <use xlink:href="#DejaVuSans-Oblique-97"/>
     <use x="61.279297" xlink:href="#DejaVuSans-Oblique-118"/>
     <use x="120.458984" xlink:href="#DejaVuSans-Oblique-103"/>
     <use x="183.935547" xlink:href="#DejaVuSans-Oblique-46"/>
    </g>
   </g>
  </g>
 </g>
 <defs>
  <clipPath id="p85561b23dc">
   <rect height="166.32" width="390.6" x="63" y="25.92"/>
  </clipPath>
 </defs>
</svg>
