<?xml version="1.0" encoding="utf-8" standalone="no"?>
<!DOCTYPE svg PUBLIC "-//W3C//DTD SVG 1.1//EN"
  "http://www.w3.org/Graphics/SVG/1.1/DTD/svg11.dtd">
<!-- Created with matplotlib (https://matplotlib.org/) -->
<svg height="216pt" version="1.1" viewBox="0 0 504 216" width="504pt" xmlns="http://www.w3.org/2000/svg" xmlns:xlink="http://www.w3.org/1999/xlink">
 <defs>
  <style type="text/css">
*{stroke-linecap:butt;stroke-linejoin:round;}
  </style>
 </defs>
 <g id="figure_1">
  <g id="patch_1">
   <path d="M 0 216 
L 504 216 
L 504 0 
L 0 0 
z
" style="fill:#ffffff;"/>
  </g>
  <g id="axes_1">
   <g id="patch_2">
    <path d="M 63 192.24 
L 453.6 192.24 
L 453.6 25.92 
L 63 25.92 
z
" style="fill:#ffffff;"/>
   </g>
   <g id="matplotlib.axis_1">
    <g id="xtick_1">
     <g id="line2d_1"/>
     <g id="text_1">
      <!-- Apr -->
      <defs>
       <path d="M -0.140625 0 
L 27.34375 71.578125 
L 37.546875 71.578125 
L 66.84375 0 
L 56.0625 0 
L 47.703125 21.6875 
L 17.78125 21.6875 
L 9.90625 0 
z
M 20.515625 29.390625 
L 44.78125 29.390625 
L 37.3125 49.21875 
Q 33.890625 58.25 32.234375 64.0625 
Q 30.859375 57.171875 28.375 50.390625 
z
" id="ArialMT-65"/>
       <path d="M 6.59375 -19.875 
L 6.59375 51.859375 
L 14.59375 51.859375 
L 14.59375 45.125 
Q 17.4375 49.078125 21 51.046875 
Q 24.5625 53.03125 29.640625 53.03125 
Q 36.28125 53.03125 41.359375 49.609375 
Q 46.4375 46.1875 49.015625 39.953125 
Q 51.609375 33.734375 51.609375 26.3125 
Q 51.609375 18.359375 48.75 11.984375 
Q 45.90625 5.609375 40.453125 2.21875 
Q 35.015625 -1.171875 29 -1.171875 
Q 24.609375 -1.171875 21.109375 0.6875 
Q 17.625 2.546875 15.375 5.375 
L 15.375 -19.875 
z
M 14.546875 25.640625 
Q 14.546875 15.625 18.59375 10.84375 
Q 22.65625 6.0625 28.421875 6.0625 
Q 34.28125 6.0625 38.453125 11.015625 
Q 42.625 15.96875 42.625 26.375 
Q 42.625 36.28125 38.546875 41.203125 
Q 34.46875 46.140625 28.8125 46.140625 
Q 23.1875 46.140625 18.859375 40.890625 
Q 14.546875 35.640625 14.546875 25.640625 
z
" id="ArialMT-112"/>
       <path d="M 6.5 0 
L 6.5 51.859375 
L 14.40625 51.859375 
L 14.40625 44 
Q 17.4375 49.515625 20 51.265625 
Q 22.5625 53.03125 25.640625 53.03125 
Q 30.078125 53.03125 34.671875 50.203125 
L 31.640625 42.046875 
Q 28.421875 43.953125 25.203125 43.953125 
Q 22.3125 43.953125 20.015625 42.21875 
Q 17.71875 40.484375 16.75 37.40625 
Q 15.28125 32.71875 15.28125 27.15625 
L 15.28125 0 
z
" id="ArialMT-114"/>
      </defs>
      <g style="fill:#1f77b4;" transform="translate(98.008849 202.897813)scale(0.1 -0.1)">
       <use xlink:href="#ArialMT-65"/>
       <use x="66.699219" xlink:href="#ArialMT-112"/>
       <use x="122.314453" xlink:href="#ArialMT-114"/>
      </g>
     </g>
    </g>
    <g id="xtick_2">
     <g id="line2d_2"/>
     <g id="text_2">
      <!-- May -->
      <defs>
       <path d="M 7.421875 0 
L 7.421875 71.578125 
L 21.6875 71.578125 
L 38.625 20.90625 
Q 40.96875 13.8125 42.046875 10.296875 
Q 43.265625 14.203125 45.84375 21.78125 
L 62.984375 71.578125 
L 75.734375 71.578125 
L 75.734375 0 
L 66.609375 0 
L 66.609375 59.90625 
L 45.796875 0 
L 37.25 0 
L 16.546875 60.9375 
L 16.546875 0 
z
" id="ArialMT-77"/>
       <path d="M 40.4375 6.390625 
Q 35.546875 2.25 31.03125 0.53125 
Q 26.515625 -1.171875 21.34375 -1.171875 
Q 12.796875 -1.171875 8.203125 3 
Q 3.609375 7.171875 3.609375 13.671875 
Q 3.609375 17.484375 5.34375 20.625 
Q 7.078125 23.78125 9.890625 25.6875 
Q 12.703125 27.59375 16.21875 28.5625 
Q 18.796875 29.25 24.03125 29.890625 
Q 34.671875 31.15625 39.703125 32.90625 
Q 39.75 34.71875 39.75 35.203125 
Q 39.75 40.578125 37.25 42.78125 
Q 33.890625 45.75 27.25 45.75 
Q 21.046875 45.75 18.09375 43.578125 
Q 15.140625 41.40625 13.71875 35.890625 
L 5.125 37.0625 
Q 6.296875 42.578125 8.984375 45.96875 
Q 11.671875 49.359375 16.75 51.1875 
Q 21.828125 53.03125 28.515625 53.03125 
Q 35.15625 53.03125 39.296875 51.46875 
Q 43.453125 49.90625 45.40625 47.53125 
Q 47.359375 45.171875 48.140625 41.546875 
Q 48.578125 39.3125 48.578125 33.453125 
L 48.578125 21.734375 
Q 48.578125 9.46875 49.140625 6.21875 
Q 49.703125 2.984375 51.375 0 
L 42.1875 0 
Q 40.828125 2.734375 40.4375 6.390625 
z
M 39.703125 26.03125 
Q 34.90625 24.078125 25.34375 22.703125 
Q 19.921875 21.921875 17.671875 20.9375 
Q 15.4375 19.96875 14.203125 18.09375 
Q 12.984375 16.21875 12.984375 13.921875 
Q 12.984375 10.40625 15.640625 8.0625 
Q 18.3125 5.71875 23.4375 5.71875 
Q 28.515625 5.71875 32.46875 7.9375 
Q 36.421875 10.15625 38.28125 14.015625 
Q 39.703125 17 39.703125 22.796875 
z
" id="ArialMT-97"/>
       <path d="M 6.203125 -19.96875 
L 5.21875 -11.71875 
Q 8.109375 -12.5 10.25 -12.5 
Q 13.1875 -12.5 14.9375 -11.515625 
Q 16.703125 -10.546875 17.828125 -8.796875 
Q 18.65625 -7.46875 20.515625 -2.25 
Q 20.75 -1.515625 21.296875 -0.09375 
L 1.609375 51.859375 
L 11.078125 51.859375 
L 21.875 21.828125 
Q 23.96875 16.109375 25.640625 9.8125 
Q 27.15625 15.875 29.25 21.625 
L 40.328125 51.859375 
L 49.125 51.859375 
L 29.390625 -0.875 
Q 26.21875 -9.421875 24.46875 -12.640625 
Q 22.125 -17 19.09375 -19.015625 
Q 16.0625 -21.046875 11.859375 -21.046875 
Q 9.328125 -21.046875 6.203125 -19.96875 
z
" id="ArialMT-121"/>
      </defs>
      <g style="fill:#1f77b4;" transform="translate(139.507406 202.897813)scale(0.1 -0.1)">
       <use xlink:href="#ArialMT-77"/>
       <use x="83.300781" xlink:href="#ArialMT-97"/>
       <use x="138.916016" xlink:href="#ArialMT-121"/>
      </g>
     </g>
    </g>
    <g id="xtick_3">
     <g id="line2d_3"/>
     <g id="text_3">
      <!-- Jun -->
      <defs>
       <path d="M 2.875 20.3125 
L 11.421875 21.484375 
Q 11.765625 13.28125 14.5 10.25 
Q 17.234375 7.234375 22.078125 7.234375 
Q 25.640625 7.234375 28.21875 8.859375 
Q 30.8125 10.5 31.78125 13.296875 
Q 32.765625 16.109375 32.765625 22.265625 
L 32.765625 71.578125 
L 42.234375 71.578125 
L 42.234375 22.796875 
Q 42.234375 13.8125 40.0625 8.875 
Q 37.890625 3.953125 33.171875 1.359375 
Q 28.46875 -1.21875 22.125 -1.21875 
Q 12.703125 -1.21875 7.6875 4.203125 
Q 2.6875 9.625 2.875 20.3125 
z
" id="ArialMT-74"/>
       <path d="M 40.578125 0 
L 40.578125 7.625 
Q 34.515625 -1.171875 24.125 -1.171875 
Q 19.53125 -1.171875 15.546875 0.578125 
Q 11.578125 2.34375 9.640625 5 
Q 7.71875 7.671875 6.9375 11.53125 
Q 6.390625 14.109375 6.390625 19.734375 
L 6.390625 51.859375 
L 15.1875 51.859375 
L 15.1875 23.09375 
Q 15.1875 16.21875 15.71875 13.8125 
Q 16.546875 10.359375 19.234375 8.375 
Q 21.921875 6.390625 25.875 6.390625 
Q 29.828125 6.390625 33.296875 8.421875 
Q 36.765625 10.453125 38.203125 13.9375 
Q 39.65625 17.4375 39.65625 24.078125 
L 39.65625 51.859375 
L 48.4375 51.859375 
L 48.4375 0 
z
" id="ArialMT-117"/>
       <path d="M 6.59375 0 
L 6.59375 51.859375 
L 14.5 51.859375 
L 14.5 44.484375 
Q 20.21875 53.03125 31 53.03125 
Q 35.6875 53.03125 39.625 51.34375 
Q 43.5625 49.65625 45.515625 46.921875 
Q 47.46875 44.1875 48.25 40.4375 
Q 48.734375 37.984375 48.734375 31.890625 
L 48.734375 0 
L 39.9375 0 
L 39.9375 31.546875 
Q 39.9375 36.921875 38.90625 39.578125 
Q 37.890625 42.234375 35.28125 43.8125 
Q 32.671875 45.40625 29.15625 45.40625 
Q 23.53125 45.40625 19.453125 41.84375 
Q 15.375 38.28125 15.375 28.328125 
L 15.375 0 
z
" id="ArialMT-110"/>
      </defs>
      <g style="fill:#1f77b4;" transform="translate(185.493962 202.897813)scale(0.1 -0.1)">
       <use xlink:href="#ArialMT-74"/>
       <use x="50" xlink:href="#ArialMT-117"/>
       <use x="105.615234" xlink:href="#ArialMT-110"/>
      </g>
     </g>
    </g>
    <g id="xtick_4">
     <g id="line2d_4"/>
     <g id="text_4">
      <!-- Jul -->
      <defs>
       <path d="M 6.390625 0 
L 6.390625 71.578125 
L 15.1875 71.578125 
L 15.1875 0 
z
" id="ArialMT-108"/>
      </defs>
      <g style="fill:#1f77b4;" transform="translate(230.326893 202.897813)scale(0.1 -0.1)">
       <use xlink:href="#ArialMT-74"/>
       <use x="50" xlink:href="#ArialMT-117"/>
       <use x="105.615234" xlink:href="#ArialMT-108"/>
      </g>
     </g>
    </g>
    <g id="xtick_5">
     <g id="line2d_5"/>
     <g id="text_5">
      <!-- Aug -->
      <defs>
       <path d="M 4.984375 -4.296875 
L 13.53125 -5.5625 
Q 14.0625 -9.515625 16.5 -11.328125 
Q 19.78125 -13.765625 25.4375 -13.765625 
Q 31.546875 -13.765625 34.859375 -11.328125 
Q 38.1875 -8.890625 39.359375 -4.5 
Q 40.046875 -1.8125 39.984375 6.78125 
Q 34.234375 0 25.640625 0 
Q 14.9375 0 9.078125 7.71875 
Q 3.21875 15.4375 3.21875 26.21875 
Q 3.21875 33.640625 5.90625 39.90625 
Q 8.59375 46.1875 13.6875 49.609375 
Q 18.796875 53.03125 25.6875 53.03125 
Q 34.859375 53.03125 40.828125 45.609375 
L 40.828125 51.859375 
L 48.921875 51.859375 
L 48.921875 7.03125 
Q 48.921875 -5.078125 46.453125 -10.125 
Q 44 -15.1875 38.640625 -18.109375 
Q 33.296875 -21.046875 25.484375 -21.046875 
Q 16.21875 -21.046875 10.5 -16.875 
Q 4.78125 -12.703125 4.984375 -4.296875 
z
M 12.25 26.859375 
Q 12.25 16.65625 16.296875 11.96875 
Q 20.359375 7.28125 26.46875 7.28125 
Q 32.515625 7.28125 36.609375 11.9375 
Q 40.71875 16.609375 40.71875 26.5625 
Q 40.71875 36.078125 36.5 40.90625 
Q 32.28125 45.75 26.3125 45.75 
Q 20.453125 45.75 16.34375 40.984375 
Q 12.25 36.234375 12.25 26.859375 
z
" id="ArialMT-103"/>
      </defs>
      <g style="fill:#1f77b4;" transform="translate(272.424387 202.897813)scale(0.1 -0.1)">
       <use xlink:href="#ArialMT-65"/>
       <use x="66.699219" xlink:href="#ArialMT-117"/>
       <use x="122.314453" xlink:href="#ArialMT-103"/>
      </g>
     </g>
    </g>
    <g id="xtick_6">
     <g id="line2d_6"/>
     <g id="text_6">
      <!-- Sep -->
      <defs>
       <path d="M 4.5 23 
L 13.421875 23.78125 
Q 14.0625 18.40625 16.375 14.96875 
Q 18.703125 11.53125 23.578125 9.40625 
Q 28.46875 7.28125 34.578125 7.28125 
Q 39.984375 7.28125 44.140625 8.890625 
Q 48.296875 10.5 50.3125 13.296875 
Q 52.34375 16.109375 52.34375 19.4375 
Q 52.34375 22.796875 50.390625 25.3125 
Q 48.4375 27.828125 43.953125 29.546875 
Q 41.0625 30.671875 31.203125 33.03125 
Q 21.34375 35.40625 17.390625 37.5 
Q 12.25 40.1875 9.734375 44.15625 
Q 7.234375 48.140625 7.234375 53.078125 
Q 7.234375 58.5 10.296875 63.203125 
Q 13.375 67.921875 19.28125 70.359375 
Q 25.203125 72.796875 32.421875 72.796875 
Q 40.375 72.796875 46.453125 70.234375 
Q 52.546875 67.671875 55.8125 62.6875 
Q 59.078125 57.71875 59.328125 51.421875 
L 50.25 50.734375 
Q 49.515625 57.515625 45.28125 60.984375 
Q 41.0625 64.453125 32.8125 64.453125 
Q 24.21875 64.453125 20.28125 61.296875 
Q 16.359375 58.15625 16.359375 53.71875 
Q 16.359375 49.859375 19.140625 47.359375 
Q 21.875 44.875 33.421875 42.265625 
Q 44.96875 39.65625 49.265625 37.703125 
Q 55.515625 34.8125 58.484375 30.390625 
Q 61.46875 25.984375 61.46875 20.21875 
Q 61.46875 14.5 58.203125 9.4375 
Q 54.9375 4.390625 48.796875 1.578125 
Q 42.671875 -1.21875 35.015625 -1.21875 
Q 25.296875 -1.21875 18.71875 1.609375 
Q 12.15625 4.4375 8.421875 10.125 
Q 4.6875 15.828125 4.5 23 
z
" id="ArialMT-83"/>
       <path d="M 42.09375 16.703125 
L 51.171875 15.578125 
Q 49.03125 7.625 43.21875 3.21875 
Q 37.40625 -1.171875 28.375 -1.171875 
Q 17 -1.171875 10.328125 5.828125 
Q 3.65625 12.84375 3.65625 25.484375 
Q 3.65625 38.578125 10.390625 45.796875 
Q 17.140625 53.03125 27.875 53.03125 
Q 38.28125 53.03125 44.875 45.953125 
Q 51.46875 38.875 51.46875 26.03125 
Q 51.46875 25.25 51.421875 23.6875 
L 12.75 23.6875 
Q 13.234375 15.140625 17.578125 10.59375 
Q 21.921875 6.0625 28.421875 6.0625 
Q 33.25 6.0625 36.671875 8.59375 
Q 40.09375 11.140625 42.09375 16.703125 
z
M 13.234375 30.90625 
L 42.1875 30.90625 
Q 41.609375 37.453125 38.875 40.71875 
Q 34.671875 45.796875 27.984375 45.796875 
Q 21.921875 45.796875 17.796875 41.75 
Q 13.671875 37.703125 13.234375 30.90625 
z
" id="ArialMT-101"/>
      </defs>
      <g style="fill:#1f77b4;" transform="translate(317.026567 203.019688)scale(0.1 -0.1)">
       <use xlink:href="#ArialMT-83"/>
       <use x="66.699219" xlink:href="#ArialMT-101"/>
       <use x="122.314453" xlink:href="#ArialMT-112"/>
      </g>
     </g>
    </g>
    <g id="xtick_7">
     <g id="line2d_7"/>
     <g id="text_7">
      <!-- Oct -->
      <defs>
       <path d="M 4.828125 34.859375 
Q 4.828125 52.6875 14.390625 62.765625 
Q 23.96875 72.859375 39.109375 72.859375 
Q 49.03125 72.859375 56.984375 68.109375 
Q 64.9375 63.375 69.109375 54.90625 
Q 73.296875 46.4375 73.296875 35.6875 
Q 73.296875 24.8125 68.890625 16.21875 
Q 64.5 7.625 56.4375 3.203125 
Q 48.390625 -1.21875 39.0625 -1.21875 
Q 28.953125 -1.21875 20.984375 3.65625 
Q 13.03125 8.546875 8.921875 16.984375 
Q 4.828125 25.4375 4.828125 34.859375 
z
M 14.59375 34.71875 
Q 14.59375 21.78125 21.546875 14.328125 
Q 28.515625 6.890625 39.015625 6.890625 
Q 49.703125 6.890625 56.609375 14.40625 
Q 63.53125 21.921875 63.53125 35.75 
Q 63.53125 44.484375 60.578125 51 
Q 57.625 57.515625 51.921875 61.109375 
Q 46.234375 64.703125 39.15625 64.703125 
Q 29.109375 64.703125 21.84375 57.78125 
Q 14.59375 50.875 14.59375 34.71875 
z
" id="ArialMT-79"/>
       <path d="M 40.4375 19 
L 49.078125 17.875 
Q 47.65625 8.9375 41.8125 3.875 
Q 35.984375 -1.171875 27.484375 -1.171875 
Q 16.84375 -1.171875 10.375 5.78125 
Q 3.90625 12.75 3.90625 25.734375 
Q 3.90625 34.125 6.6875 40.421875 
Q 9.46875 46.734375 15.15625 49.875 
Q 20.84375 53.03125 27.546875 53.03125 
Q 35.984375 53.03125 41.359375 48.75 
Q 46.734375 44.484375 48.25 36.625 
L 39.703125 35.296875 
Q 38.484375 40.53125 35.375 43.15625 
Q 32.28125 45.796875 27.875 45.796875 
Q 21.234375 45.796875 17.078125 41.03125 
Q 12.9375 36.28125 12.9375 25.984375 
Q 12.9375 15.53125 16.9375 10.796875 
Q 20.953125 6.0625 27.390625 6.0625 
Q 32.5625 6.0625 36.03125 9.234375 
Q 39.5 12.40625 40.4375 19 
z
" id="ArialMT-99"/>
       <path d="M 25.78125 7.859375 
L 27.046875 0.09375 
Q 23.34375 -0.6875 20.40625 -0.6875 
Q 15.625 -0.6875 12.984375 0.828125 
Q 10.359375 2.34375 9.28125 4.8125 
Q 8.203125 7.28125 8.203125 15.1875 
L 8.203125 45.015625 
L 1.765625 45.015625 
L 1.765625 51.859375 
L 8.203125 51.859375 
L 8.203125 64.703125 
L 16.9375 69.96875 
L 16.9375 51.859375 
L 25.78125 51.859375 
L 25.78125 45.015625 
L 16.9375 45.015625 
L 16.9375 14.703125 
Q 16.9375 10.9375 17.40625 9.859375 
Q 17.875 8.796875 18.921875 8.15625 
Q 19.96875 7.515625 21.921875 7.515625 
Q 23.390625 7.515625 25.78125 7.859375 
z
" id="ArialMT-116"/>
      </defs>
      <g style="fill:#1f77b4;" transform="translate(361.307937 202.897813)scale(0.1 -0.1)">
       <use xlink:href="#ArialMT-79"/>
       <use x="77.783203" xlink:href="#ArialMT-99"/>
       <use x="127.783203" xlink:href="#ArialMT-116"/>
      </g>
     </g>
    </g>
    <g id="xtick_8">
     <g id="line2d_8"/>
     <g id="text_8">
      <!-- Nov -->
      <defs>
       <path d="M 7.625 0 
L 7.625 71.578125 
L 17.328125 71.578125 
L 54.9375 15.375 
L 54.9375 71.578125 
L 64.015625 71.578125 
L 64.015625 0 
L 54.296875 0 
L 16.703125 56.25 
L 16.703125 0 
z
" id="ArialMT-78"/>
       <path d="M 3.328125 25.921875 
Q 3.328125 40.328125 11.328125 47.265625 
Q 18.015625 53.03125 27.640625 53.03125 
Q 38.328125 53.03125 45.109375 46.015625 
Q 51.90625 39.015625 51.90625 26.65625 
Q 51.90625 16.65625 48.90625 10.90625 
Q 45.90625 5.171875 40.15625 2 
Q 34.421875 -1.171875 27.640625 -1.171875 
Q 16.75 -1.171875 10.03125 5.8125 
Q 3.328125 12.796875 3.328125 25.921875 
z
M 12.359375 25.921875 
Q 12.359375 15.96875 16.703125 11.015625 
Q 21.046875 6.0625 27.640625 6.0625 
Q 34.1875 6.0625 38.53125 11.03125 
Q 42.875 16.015625 42.875 26.21875 
Q 42.875 35.84375 38.5 40.796875 
Q 34.125 45.75 27.640625 45.75 
Q 21.046875 45.75 16.703125 40.8125 
Q 12.359375 35.890625 12.359375 25.921875 
z
" id="ArialMT-111"/>
       <path d="M 21 0 
L 1.265625 51.859375 
L 10.546875 51.859375 
L 21.6875 20.796875 
Q 23.484375 15.765625 25 10.359375 
Q 26.171875 14.453125 28.265625 20.21875 
L 39.796875 51.859375 
L 48.828125 51.859375 
L 29.203125 0 
z
" id="ArialMT-118"/>
      </defs>
      <g style="fill:#1f77b4;" transform="translate(404.796836 202.897813)scale(0.1 -0.1)">
       <use xlink:href="#ArialMT-78"/>
       <use x="72.216797" xlink:href="#ArialMT-111"/>
       <use x="127.832031" xlink:href="#ArialMT-118"/>
      </g>
     </g>
    </g>
   </g>
   <g id="matplotlib.axis_2">
    <g id="ytick_1">
     <g id="line2d_9">
      <path clip-path="url(#pc893eae517)" d="M 63 192.24 
L 453.6 192.24 
" style="fill:none;stroke:#cccccc;stroke-linecap:round;stroke-width:0.8;"/>
     </g>
     <g id="line2d_10"/>
     <g id="text_9">
      <!-- 0 -->
      <defs>
       <path d="M 4.15625 35.296875 
Q 4.15625 48 6.765625 55.734375 
Q 9.375 63.484375 14.515625 67.671875 
Q 19.671875 71.875 27.484375 71.875 
Q 33.25 71.875 37.59375 69.546875 
Q 41.9375 67.234375 44.765625 62.859375 
Q 47.609375 58.5 49.21875 52.21875 
Q 50.828125 45.953125 50.828125 35.296875 
Q 50.828125 22.703125 48.234375 14.96875 
Q 45.65625 7.234375 40.5 3 
Q 35.359375 -1.21875 27.484375 -1.21875 
Q 17.140625 -1.21875 11.234375 6.203125 
Q 4.15625 15.140625 4.15625 35.296875 
z
M 13.1875 35.296875 
Q 13.1875 17.671875 17.3125 11.828125 
Q 21.4375 6 27.484375 6 
Q 33.546875 6 37.671875 11.859375 
Q 41.796875 17.71875 41.796875 35.296875 
Q 41.796875 52.984375 37.671875 58.78125 
Q 33.546875 64.59375 27.390625 64.59375 
Q 21.34375 64.59375 17.71875 59.46875 
Q 13.1875 52.9375 13.1875 35.296875 
z
" id="ArialMT-48"/>
      </defs>
      <g style="fill:#1f77b4;" transform="translate(53.939062 195.818906)scale(0.1 -0.1)">
       <use xlink:href="#ArialMT-48"/>
      </g>
     </g>
    </g>
    <g id="ytick_2">
     <g id="line2d_11">
      <path clip-path="url(#pc893eae517)" d="M 63 167.655002 
L 453.6 167.655002 
" style="fill:none;stroke:#cccccc;stroke-linecap:round;stroke-width:0.8;"/>
     </g>
     <g id="line2d_12"/>
     <g id="text_10">
      <!-- 2 -->
      <defs>
       <path d="M 50.34375 8.453125 
L 50.34375 0 
L 3.03125 0 
Q 2.9375 3.171875 4.046875 6.109375 
Q 5.859375 10.9375 9.828125 15.625 
Q 13.8125 20.3125 21.34375 26.46875 
Q 33.015625 36.03125 37.109375 41.625 
Q 41.21875 47.21875 41.21875 52.203125 
Q 41.21875 57.421875 37.46875 61 
Q 33.734375 64.59375 27.734375 64.59375 
Q 21.390625 64.59375 17.578125 60.78125 
Q 13.765625 56.984375 13.71875 50.25 
L 4.6875 51.171875 
Q 5.609375 61.28125 11.65625 66.578125 
Q 17.71875 71.875 27.9375 71.875 
Q 38.234375 71.875 44.234375 66.15625 
Q 50.25 60.453125 50.25 52 
Q 50.25 47.703125 48.484375 43.546875 
Q 46.734375 39.40625 42.65625 34.8125 
Q 38.578125 30.21875 29.109375 22.21875 
Q 21.1875 15.578125 18.9375 13.203125 
Q 16.703125 10.84375 15.234375 8.453125 
z
" id="ArialMT-50"/>
      </defs>
      <g style="fill:#1f77b4;" transform="translate(53.939062 171.233908)scale(0.1 -0.1)">
       <use xlink:href="#ArialMT-50"/>
      </g>
     </g>
    </g>
    <g id="ytick_3">
     <g id="line2d_13">
      <path clip-path="url(#pc893eae517)" d="M 63 143.070004 
L 453.6 143.070004 
" style="fill:none;stroke:#cccccc;stroke-linecap:round;stroke-width:0.8;"/>
     </g>
     <g id="line2d_14"/>
     <g id="text_11">
      <!-- 4 -->
      <defs>
       <path d="M 32.328125 0 
L 32.328125 17.140625 
L 1.265625 17.140625 
L 1.265625 25.203125 
L 33.9375 71.578125 
L 41.109375 71.578125 
L 41.109375 25.203125 
L 50.78125 25.203125 
L 50.78125 17.140625 
L 41.109375 17.140625 
L 41.109375 0 
z
M 32.328125 25.203125 
L 32.328125 57.46875 
L 9.90625 25.203125 
z
" id="ArialMT-52"/>
      </defs>
      <g style="fill:#1f77b4;" transform="translate(53.939062 146.64891)scale(0.1 -0.1)">
       <use xlink:href="#ArialMT-52"/>
      </g>
     </g>
    </g>
    <g id="ytick_4">
     <g id="line2d_15">
      <path clip-path="url(#pc893eae517)" d="M 63 118.485005 
L 453.6 118.485005 
" style="fill:none;stroke:#cccccc;stroke-linecap:round;stroke-width:0.8;"/>
     </g>
     <g id="line2d_16"/>
     <g id="text_12">
      <!-- 6 -->
      <defs>
       <path d="M 49.75 54.046875 
L 41.015625 53.375 
Q 39.84375 58.546875 37.703125 60.890625 
Q 34.125 64.65625 28.90625 64.65625 
Q 24.703125 64.65625 21.53125 62.3125 
Q 17.390625 59.28125 14.984375 53.46875 
Q 12.59375 47.65625 12.5 36.921875 
Q 15.671875 41.75 20.265625 44.09375 
Q 24.859375 46.4375 29.890625 46.4375 
Q 38.671875 46.4375 44.84375 39.96875 
Q 51.03125 33.5 51.03125 23.25 
Q 51.03125 16.5 48.125 10.71875 
Q 45.21875 4.9375 40.140625 1.859375 
Q 35.0625 -1.21875 28.609375 -1.21875 
Q 17.625 -1.21875 10.6875 6.859375 
Q 3.765625 14.9375 3.765625 33.5 
Q 3.765625 54.25 11.421875 63.671875 
Q 18.109375 71.875 29.4375 71.875 
Q 37.890625 71.875 43.28125 67.140625 
Q 48.6875 62.40625 49.75 54.046875 
z
M 13.875 23.1875 
Q 13.875 18.65625 15.796875 14.5 
Q 17.71875 10.359375 21.1875 8.171875 
Q 24.65625 6 28.46875 6 
Q 34.03125 6 38.03125 10.484375 
Q 42.046875 14.984375 42.046875 22.703125 
Q 42.046875 30.125 38.078125 34.390625 
Q 34.125 38.671875 28.125 38.671875 
Q 22.171875 38.671875 18.015625 34.390625 
Q 13.875 30.125 13.875 23.1875 
z
" id="ArialMT-54"/>
      </defs>
      <g style="fill:#1f77b4;" transform="translate(53.939062 122.063912)scale(0.1 -0.1)">
       <use xlink:href="#ArialMT-54"/>
      </g>
     </g>
    </g>
    <g id="ytick_5">
     <g id="line2d_17">
      <path clip-path="url(#pc893eae517)" d="M 63 93.900007 
L 453.6 93.900007 
" style="fill:none;stroke:#cccccc;stroke-linecap:round;stroke-width:0.8;"/>
     </g>
     <g id="line2d_18"/>
     <g id="text_13">
      <!-- 8 -->
      <defs>
       <path d="M 17.671875 38.8125 
Q 12.203125 40.828125 9.5625 44.53125 
Q 6.9375 48.25 6.9375 53.421875 
Q 6.9375 61.234375 12.546875 66.546875 
Q 18.171875 71.875 27.484375 71.875 
Q 36.859375 71.875 42.578125 66.421875 
Q 48.296875 60.984375 48.296875 53.171875 
Q 48.296875 48.1875 45.671875 44.5 
Q 43.0625 40.828125 37.75 38.8125 
Q 44.34375 36.671875 47.78125 31.875 
Q 51.21875 27.09375 51.21875 20.453125 
Q 51.21875 11.28125 44.71875 5.03125 
Q 38.234375 -1.21875 27.640625 -1.21875 
Q 17.046875 -1.21875 10.546875 5.046875 
Q 4.046875 11.328125 4.046875 20.703125 
Q 4.046875 27.6875 7.59375 32.390625 
Q 11.140625 37.109375 17.671875 38.8125 
z
M 15.921875 53.71875 
Q 15.921875 48.640625 19.1875 45.40625 
Q 22.46875 42.1875 27.6875 42.1875 
Q 32.765625 42.1875 36.015625 45.375 
Q 39.265625 48.578125 39.265625 53.21875 
Q 39.265625 58.0625 35.90625 61.359375 
Q 32.5625 64.65625 27.59375 64.65625 
Q 22.5625 64.65625 19.234375 61.421875 
Q 15.921875 58.203125 15.921875 53.71875 
z
M 13.09375 20.65625 
Q 13.09375 16.890625 14.875 13.375 
Q 16.65625 9.859375 20.171875 7.921875 
Q 23.6875 6 27.734375 6 
Q 34.03125 6 38.125 10.046875 
Q 42.234375 14.109375 42.234375 20.359375 
Q 42.234375 26.703125 38.015625 30.859375 
Q 33.796875 35.015625 27.4375 35.015625 
Q 21.234375 35.015625 17.15625 30.90625 
Q 13.09375 26.8125 13.09375 20.65625 
z
" id="ArialMT-56"/>
      </defs>
      <g style="fill:#1f77b4;" transform="translate(53.939062 97.478913)scale(0.1 -0.1)">
       <use xlink:href="#ArialMT-56"/>
      </g>
     </g>
    </g>
    <g id="ytick_6">
     <g id="line2d_19">
      <path clip-path="url(#pc893eae517)" d="M 63 69.315009 
L 453.6 69.315009 
" style="fill:none;stroke:#cccccc;stroke-linecap:round;stroke-width:0.8;"/>
     </g>
     <g id="line2d_20"/>
     <g id="text_14">
      <!-- 10 -->
      <defs>
       <path d="M 37.25 0 
L 28.46875 0 
L 28.46875 56 
Q 25.296875 52.984375 20.140625 49.953125 
Q 14.984375 46.921875 10.890625 45.40625 
L 10.890625 53.90625 
Q 18.265625 57.375 23.78125 62.296875 
Q 29.296875 67.234375 31.59375 71.875 
L 37.25 71.875 
z
" id="ArialMT-49"/>
      </defs>
      <g style="fill:#1f77b4;" transform="translate(48.378125 72.893915)scale(0.1 -0.1)">
       <use xlink:href="#ArialMT-49"/>
       <use x="55.615234" xlink:href="#ArialMT-48"/>
      </g>
     </g>
    </g>
    <g id="ytick_7">
     <g id="line2d_21">
      <path clip-path="url(#pc893eae517)" d="M 63 44.730011 
L 453.6 44.730011 
" style="fill:none;stroke:#cccccc;stroke-linecap:round;stroke-width:0.8;"/>
     </g>
     <g id="line2d_22"/>
     <g id="text_15">
      <!-- 12 -->
      <g style="fill:#1f77b4;" transform="translate(48.378125 48.308917)scale(0.1 -0.1)">
       <use xlink:href="#ArialMT-49"/>
       <use x="55.615234" xlink:href="#ArialMT-50"/>
      </g>
     </g>
    </g>
   </g>
   <g id="patch_3">
    <path clip-path="url(#pc893eae517)" d="M 80.754545 192.24 
L 81.905569 192.24 
L 81.905569 169.915168 
L 80.754545 169.915168 
z
" style="fill:#1f77b4;opacity:0.35;"/>
   </g>
   <g id="patch_4">
    <path clip-path="url(#pc893eae517)" d="M 82.193325 192.24 
L 83.344349 192.24 
L 83.344349 192.24 
L 82.193325 192.24 
z
" style="fill:#1f77b4;opacity:0.35;"/>
   </g>
   <g id="patch_5">
    <path clip-path="url(#pc893eae517)" d="M 83.632105 192.24 
L 84.78313 192.24 
L 84.78313 192.24 
L 83.632105 192.24 
z
" style="fill:#1f77b4;opacity:0.35;"/>
   </g>
   <g id="patch_6">
    <path clip-path="url(#pc893eae517)" d="M 85.070886 192.24 
L 86.22191 192.24 
L 86.22191 192.24 
L 85.070886 192.24 
z
" style="fill:#1f77b4;opacity:0.35;"/>
   </g>
   <g id="patch_7">
    <path clip-path="url(#pc893eae517)" d="M 86.509666 192.24 
L 87.66069 192.24 
L 87.66069 192.24 
L 86.509666 192.24 
z
" style="fill:#1f77b4;opacity:0.35;"/>
   </g>
   <g id="patch_8">
    <path clip-path="url(#pc893eae517)" d="M 87.948446 192.24 
L 89.09947 192.24 
L 89.09947 125.265503 
L 87.948446 125.265503 
z
" style="fill:#1f77b4;opacity:0.35;"/>
   </g>
   <g id="patch_9">
    <path clip-path="url(#pc893eae517)" d="M 89.387226 192.24 
L 90.53825 192.24 
L 90.53825 147.590336 
L 89.387226 147.590336 
z
" style="fill:#1f77b4;opacity:0.35;"/>
   </g>
   <g id="patch_10">
    <path clip-path="url(#pc893eae517)" d="M 90.826006 192.24 
L 91.97703 192.24 
L 91.97703 192.24 
L 90.826006 192.24 
z
" style="fill:#1f77b4;opacity:0.35;"/>
   </g>
   <g id="patch_11">
    <path clip-path="url(#pc893eae517)" d="M 92.264786 192.24 
L 93.41581 192.24 
L 93.41581 192.24 
L 92.264786 192.24 
z
" style="fill:#1f77b4;opacity:0.35;"/>
   </g>
   <g id="patch_12">
    <path clip-path="url(#pc893eae517)" d="M 93.703566 192.24 
L 94.85459 192.24 
L 94.85459 35.966174 
L 93.703566 35.966174 
z
" style="fill:#1f77b4;opacity:0.35;"/>
   </g>
   <g id="patch_13">
    <path clip-path="url(#pc893eae517)" d="M 95.142346 192.24 
L 96.29337 192.24 
L 96.29337 147.590336 
L 95.142346 147.590336 
z
" style="fill:#1f77b4;opacity:0.35;"/>
   </g>
   <g id="patch_14">
    <path clip-path="url(#pc893eae517)" d="M 96.581126 192.24 
L 97.73215 192.24 
L 97.73215 192.24 
L 96.581126 192.24 
z
" style="fill:#1f77b4;opacity:0.35;"/>
   </g>
   <g id="patch_15">
    <path clip-path="url(#pc893eae517)" d="M 98.019906 192.24 
L 99.17093 192.24 
L 99.17093 169.915168 
L 98.019906 169.915168 
z
" style="fill:#1f77b4;opacity:0.35;"/>
   </g>
   <g id="patch_16">
    <path clip-path="url(#pc893eae517)" d="M 99.458686 192.24 
L 100.60971 192.24 
L 100.60971 192.24 
L 99.458686 192.24 
z
" style="fill:#1f77b4;opacity:0.35;"/>
   </g>
   <g id="patch_17">
    <path clip-path="url(#pc893eae517)" d="M 100.897466 192.24 
L 102.04849 192.24 
L 102.04849 192.24 
L 100.897466 192.24 
z
" style="fill:#1f77b4;opacity:0.35;"/>
   </g>
   <g id="patch_18">
    <path clip-path="url(#pc893eae517)" d="M 102.336246 192.24 
L 103.48727 192.24 
L 103.48727 192.24 
L 102.336246 192.24 
z
" style="fill:#1f77b4;opacity:0.35;"/>
   </g>
   <g id="patch_19">
    <path clip-path="url(#pc893eae517)" d="M 103.775026 192.24 
L 104.92605 192.24 
L 104.92605 192.24 
L 103.775026 192.24 
z
" style="fill:#1f77b4;opacity:0.35;"/>
   </g>
   <g id="patch_20">
    <path clip-path="url(#pc893eae517)" d="M 105.213806 192.24 
L 106.36483 192.24 
L 106.36483 192.24 
L 105.213806 192.24 
z
" style="fill:#1f77b4;opacity:0.35;"/>
   </g>
   <g id="patch_21">
    <path clip-path="url(#pc893eae517)" d="M 106.652586 192.24 
L 107.80361 192.24 
L 107.80361 147.590336 
L 106.652586 147.590336 
z
" style="fill:#1f77b4;opacity:0.35;"/>
   </g>
   <g id="patch_22">
    <path clip-path="url(#pc893eae517)" d="M 108.091366 192.24 
L 109.24239 192.24 
L 109.24239 192.24 
L 108.091366 192.24 
z
" style="fill:#1f77b4;opacity:0.35;"/>
   </g>
   <g id="patch_23">
    <path clip-path="url(#pc893eae517)" d="M 109.530146 192.24 
L 110.68117 192.24 
L 110.68117 102.940671 
L 109.530146 102.940671 
z
" style="fill:#1f77b4;opacity:0.35;"/>
   </g>
   <g id="patch_24">
    <path clip-path="url(#pc893eae517)" d="M 110.968926 192.24 
L 112.11995 192.24 
L 112.11995 236.889664 
L 110.968926 236.889664 
z
" style="fill:#1f77b4;opacity:0.35;"/>
   </g>
   <g id="patch_25">
    <path clip-path="url(#pc893eae517)" d="M 112.407706 192.24 
L 113.55873 192.24 
L 113.55873 192.24 
L 112.407706 192.24 
z
" style="fill:#1f77b4;opacity:0.35;"/>
   </g>
   <g id="patch_26">
    <path clip-path="url(#pc893eae517)" d="M 113.846486 192.24 
L 114.99751 192.24 
L 114.99751 147.590336 
L 113.846486 147.590336 
z
" style="fill:#1f77b4;opacity:0.35;"/>
   </g>
   <g id="patch_27">
    <path clip-path="url(#pc893eae517)" d="M 115.285266 192.24 
L 116.43629 192.24 
L 116.43629 192.24 
L 115.285266 192.24 
z
" style="fill:#1f77b4;opacity:0.35;"/>
   </g>
   <g id="patch_28">
    <path clip-path="url(#pc893eae517)" d="M 116.724046 192.24 
L 117.87507 192.24 
L 117.87507 192.24 
L 116.724046 192.24 
z
" style="fill:#1f77b4;opacity:0.35;"/>
   </g>
   <g id="patch_29">
    <path clip-path="url(#pc893eae517)" d="M 118.162826 192.24 
L 119.31385 192.24 
L 119.31385 192.24 
L 118.162826 192.24 
z
" style="fill:#1f77b4;opacity:0.35;"/>
   </g>
   <g id="patch_30">
    <path clip-path="url(#pc893eae517)" d="M 119.601606 192.24 
L 120.75263 192.24 
L 120.75263 169.915168 
L 119.601606 169.915168 
z
" style="fill:#1f77b4;opacity:0.35;"/>
   </g>
   <g id="patch_31">
    <path clip-path="url(#pc893eae517)" d="M 121.040386 192.24 
L 122.19141 192.24 
L 122.19141 192.24 
L 121.040386 192.24 
z
" style="fill:#1f77b4;opacity:0.35;"/>
   </g>
   <g id="patch_32">
    <path clip-path="url(#pc893eae517)" d="M 122.479166 192.24 
L 123.63019 192.24 
L 123.63019 147.590336 
L 122.479166 147.590336 
z
" style="fill:#1f77b4;opacity:0.35;"/>
   </g>
   <g id="patch_33">
    <path clip-path="url(#pc893eae517)" d="M 123.917946 192.24 
L 125.06897 192.24 
L 125.06897 192.24 
L 123.917946 192.24 
z
" style="fill:#1f77b4;opacity:0.35;"/>
   </g>
   <g id="patch_34">
    <path clip-path="url(#pc893eae517)" d="M 125.356726 192.24 
L 126.50775 192.24 
L 126.50775 147.590336 
L 125.356726 147.590336 
z
" style="fill:#1f77b4;opacity:0.35;"/>
   </g>
   <g id="patch_35">
    <path clip-path="url(#pc893eae517)" d="M 126.795506 192.24 
L 127.94653 192.24 
L 127.94653 147.590336 
L 126.795506 147.590336 
z
" style="fill:#1f77b4;opacity:0.35;"/>
   </g>
   <g id="patch_36">
    <path clip-path="url(#pc893eae517)" d="M 128.234286 192.24 
L 129.38531 192.24 
L 129.38531 147.590336 
L 128.234286 147.590336 
z
" style="fill:#1f77b4;opacity:0.35;"/>
   </g>
   <g id="patch_37">
    <path clip-path="url(#pc893eae517)" d="M 129.673066 192.24 
L 130.82409 192.24 
L 130.82409 169.915168 
L 129.673066 169.915168 
z
" style="fill:#1f77b4;opacity:0.35;"/>
   </g>
   <g id="patch_38">
    <path clip-path="url(#pc893eae517)" d="M 131.111846 192.24 
L 132.26287 192.24 
L 132.26287 125.265503 
L 131.111846 125.265503 
z
" style="fill:#1f77b4;opacity:0.35;"/>
   </g>
   <g id="patch_39">
    <path clip-path="url(#pc893eae517)" d="M 132.550626 192.24 
L 133.70165 192.24 
L 133.70165 192.24 
L 132.550626 192.24 
z
" style="fill:#1f77b4;opacity:0.35;"/>
   </g>
   <g id="patch_40">
    <path clip-path="url(#pc893eae517)" d="M 133.989406 192.24 
L 135.14043 192.24 
L 135.14043 169.915168 
L 133.989406 169.915168 
z
" style="fill:#1f77b4;opacity:0.35;"/>
   </g>
   <g id="patch_41">
    <path clip-path="url(#pc893eae517)" d="M 135.428186 192.24 
L 136.57921 192.24 
L 136.57921 192.24 
L 135.428186 192.24 
z
" style="fill:#1f77b4;opacity:0.35;"/>
   </g>
   <g id="patch_42">
    <path clip-path="url(#pc893eae517)" d="M 136.866966 192.24 
L 138.01799 192.24 
L 138.01799 192.24 
L 136.866966 192.24 
z
" style="fill:#1f77b4;opacity:0.35;"/>
   </g>
   <g id="patch_43">
    <path clip-path="url(#pc893eae517)" d="M 138.305746 192.24 
L 139.45677 192.24 
L 139.45677 192.24 
L 138.305746 192.24 
z
" style="fill:#1f77b4;opacity:0.35;"/>
   </g>
   <g id="patch_44">
    <path clip-path="url(#pc893eae517)" d="M 139.744526 192.24 
L 140.89555 192.24 
L 140.89555 169.915168 
L 139.744526 169.915168 
z
" style="fill:#1f77b4;opacity:0.35;"/>
   </g>
   <g id="patch_45">
    <path clip-path="url(#pc893eae517)" d="M 141.183306 192.24 
L 142.33433 192.24 
L 142.33433 192.24 
L 141.183306 192.24 
z
" style="fill:#1f77b4;opacity:0.35;"/>
   </g>
   <g id="patch_46">
    <path clip-path="url(#pc893eae517)" d="M 142.622086 192.24 
L 143.77311 192.24 
L 143.77311 169.915168 
L 142.622086 169.915168 
z
" style="fill:#1f77b4;opacity:0.35;"/>
   </g>
   <g id="patch_47">
    <path clip-path="url(#pc893eae517)" d="M 144.060866 192.24 
L 145.21189 192.24 
L 145.21189 192.24 
L 144.060866 192.24 
z
" style="fill:#1f77b4;opacity:0.35;"/>
   </g>
   <g id="patch_48">
    <path clip-path="url(#pc893eae517)" d="M 145.499646 192.24 
L 146.65067 192.24 
L 146.65067 192.24 
L 145.499646 192.24 
z
" style="fill:#1f77b4;opacity:0.35;"/>
   </g>
   <g id="patch_49">
    <path clip-path="url(#pc893eae517)" d="M 146.938426 192.24 
L 148.08945 192.24 
L 148.08945 192.24 
L 146.938426 192.24 
z
" style="fill:#1f77b4;opacity:0.35;"/>
   </g>
   <g id="patch_50">
    <path clip-path="url(#pc893eae517)" d="M 148.377206 192.24 
L 149.52823 192.24 
L 149.52823 192.24 
L 148.377206 192.24 
z
" style="fill:#1f77b4;opacity:0.35;"/>
   </g>
   <g id="patch_51">
    <path clip-path="url(#pc893eae517)" d="M 149.815986 192.24 
L 150.96701 192.24 
L 150.96701 169.915168 
L 149.815986 169.915168 
z
" style="fill:#1f77b4;opacity:0.35;"/>
   </g>
   <g id="patch_52">
    <path clip-path="url(#pc893eae517)" d="M 151.254766 192.24 
L 152.40579 192.24 
L 152.40579 169.915168 
L 151.254766 169.915168 
z
" style="fill:#1f77b4;opacity:0.35;"/>
   </g>
   <g id="patch_53">
    <path clip-path="url(#pc893eae517)" d="M 152.693546 192.24 
L 153.844571 192.24 
L 153.844571 169.915168 
L 152.693546 169.915168 
z
" style="fill:#1f77b4;opacity:0.35;"/>
   </g>
   <g id="patch_54">
    <path clip-path="url(#pc893eae517)" d="M 154.132327 192.24 
L 155.283351 192.24 
L 155.283351 192.24 
L 154.132327 192.24 
z
" style="fill:#1f77b4;opacity:0.35;"/>
   </g>
   <g id="patch_55">
    <path clip-path="url(#pc893eae517)" d="M 155.571107 192.24 
L 156.722131 192.24 
L 156.722131 169.915168 
L 155.571107 169.915168 
z
" style="fill:#1f77b4;opacity:0.35;"/>
   </g>
   <g id="patch_56">
    <path clip-path="url(#pc893eae517)" d="M 157.009887 192.24 
L 158.160911 192.24 
L 158.160911 147.590336 
L 157.009887 147.590336 
z
" style="fill:#1f77b4;opacity:0.35;"/>
   </g>
   <g id="patch_57">
    <path clip-path="url(#pc893eae517)" d="M 158.448667 192.24 
L 159.599691 192.24 
L 159.599691 192.24 
L 158.448667 192.24 
z
" style="fill:#1f77b4;opacity:0.35;"/>
   </g>
   <g id="patch_58">
    <path clip-path="url(#pc893eae517)" d="M 159.887447 192.24 
L 161.038471 192.24 
L 161.038471 192.24 
L 159.887447 192.24 
z
" style="fill:#1f77b4;opacity:0.35;"/>
   </g>
   <g id="patch_59">
    <path clip-path="url(#pc893eae517)" d="M 161.326227 192.24 
L 162.477251 192.24 
L 162.477251 214.564832 
L 161.326227 214.564832 
z
" style="fill:#1f77b4;opacity:0.35;"/>
   </g>
   <g id="patch_60">
    <path clip-path="url(#pc893eae517)" d="M 162.765007 192.24 
L 163.916031 192.24 
L 163.916031 192.24 
L 162.765007 192.24 
z
" style="fill:#1f77b4;opacity:0.35;"/>
   </g>
   <g id="patch_61">
    <path clip-path="url(#pc893eae517)" d="M 164.203787 192.24 
L 165.354811 192.24 
L 165.354811 192.24 
L 164.203787 192.24 
z
" style="fill:#1f77b4;opacity:0.35;"/>
   </g>
   <g id="patch_62">
    <path clip-path="url(#pc893eae517)" d="M 165.642567 192.24 
L 166.793591 192.24 
L 166.793591 169.915168 
L 165.642567 169.915168 
z
" style="fill:#1f77b4;opacity:0.35;"/>
   </g>
   <g id="patch_63">
    <path clip-path="url(#pc893eae517)" d="M 167.081347 192.24 
L 168.232371 192.24 
L 168.232371 169.915168 
L 167.081347 169.915168 
z
" style="fill:#1f77b4;opacity:0.35;"/>
   </g>
   <g id="patch_64">
    <path clip-path="url(#pc893eae517)" d="M 168.520127 192.24 
L 169.671151 192.24 
L 169.671151 192.24 
L 168.520127 192.24 
z
" style="fill:#1f77b4;opacity:0.35;"/>
   </g>
   <g id="patch_65">
    <path clip-path="url(#pc893eae517)" d="M 169.958907 192.24 
L 171.109931 192.24 
L 171.109931 192.24 
L 169.958907 192.24 
z
" style="fill:#1f77b4;opacity:0.35;"/>
   </g>
   <g id="patch_66">
    <path clip-path="url(#pc893eae517)" d="M 171.397687 192.24 
L 172.548711 192.24 
L 172.548711 192.24 
L 171.397687 192.24 
z
" style="fill:#1f77b4;opacity:0.35;"/>
   </g>
   <g id="patch_67">
    <path clip-path="url(#pc893eae517)" d="M 172.836467 192.24 
L 173.987491 192.24 
L 173.987491 192.24 
L 172.836467 192.24 
z
" style="fill:#1f77b4;opacity:0.35;"/>
   </g>
   <g id="patch_68">
    <path clip-path="url(#pc893eae517)" d="M 174.275247 192.24 
L 175.426271 192.24 
L 175.426271 169.915168 
L 174.275247 169.915168 
z
" style="fill:#1f77b4;opacity:0.35;"/>
   </g>
   <g id="patch_69">
    <path clip-path="url(#pc893eae517)" d="M 175.714027 192.24 
L 176.865051 192.24 
L 176.865051 192.24 
L 175.714027 192.24 
z
" style="fill:#1f77b4;opacity:0.35;"/>
   </g>
   <g id="patch_70">
    <path clip-path="url(#pc893eae517)" d="M 177.152807 192.24 
L 178.303831 192.24 
L 178.303831 169.915168 
L 177.152807 169.915168 
z
" style="fill:#1f77b4;opacity:0.35;"/>
   </g>
   <g id="patch_71">
    <path clip-path="url(#pc893eae517)" d="M 178.591587 192.24 
L 179.742611 192.24 
L 179.742611 192.24 
L 178.591587 192.24 
z
" style="fill:#1f77b4;opacity:0.35;"/>
   </g>
   <g id="patch_72">
    <path clip-path="url(#pc893eae517)" d="M 180.030367 192.24 
L 181.181391 192.24 
L 181.181391 192.24 
L 180.030367 192.24 
z
" style="fill:#1f77b4;opacity:0.35;"/>
   </g>
   <g id="patch_73">
    <path clip-path="url(#pc893eae517)" d="M 181.469147 192.24 
L 182.620171 192.24 
L 182.620171 192.24 
L 181.469147 192.24 
z
" style="fill:#1f77b4;opacity:0.35;"/>
   </g>
   <g id="patch_74">
    <path clip-path="url(#pc893eae517)" d="M 182.907927 192.24 
L 184.058951 192.24 
L 184.058951 169.915168 
L 182.907927 169.915168 
z
" style="fill:#1f77b4;opacity:0.35;"/>
   </g>
   <g id="patch_75">
    <path clip-path="url(#pc893eae517)" d="M 184.346707 192.24 
L 185.497731 192.24 
L 185.497731 169.915168 
L 184.346707 169.915168 
z
" style="fill:#1f77b4;opacity:0.35;"/>
   </g>
   <g id="patch_76">
    <path clip-path="url(#pc893eae517)" d="M 185.785487 192.24 
L 186.936511 192.24 
L 186.936511 192.24 
L 185.785487 192.24 
z
" style="fill:#1f77b4;opacity:0.35;"/>
   </g>
   <g id="patch_77">
    <path clip-path="url(#pc893eae517)" d="M 187.224267 192.24 
L 188.375291 192.24 
L 188.375291 192.24 
L 187.224267 192.24 
z
" style="fill:#1f77b4;opacity:0.35;"/>
   </g>
   <g id="patch_78">
    <path clip-path="url(#pc893eae517)" d="M 188.663047 192.24 
L 189.814071 192.24 
L 189.814071 192.24 
L 188.663047 192.24 
z
" style="fill:#1f77b4;opacity:0.35;"/>
   </g>
   <g id="patch_79">
    <path clip-path="url(#pc893eae517)" d="M 190.101827 192.24 
L 191.252851 192.24 
L 191.252851 192.24 
L 190.101827 192.24 
z
" style="fill:#1f77b4;opacity:0.35;"/>
   </g>
   <g id="patch_80">
    <path clip-path="url(#pc893eae517)" d="M 191.540607 192.24 
L 192.691631 192.24 
L 192.691631 192.24 
L 191.540607 192.24 
z
" style="fill:#1f77b4;opacity:0.35;"/>
   </g>
   <g id="patch_81">
    <path clip-path="url(#pc893eae517)" d="M 192.979387 192.24 
L 194.130411 192.24 
L 194.130411 192.24 
L 192.979387 192.24 
z
" style="fill:#1f77b4;opacity:0.35;"/>
   </g>
   <g id="patch_82">
    <path clip-path="url(#pc893eae517)" d="M 194.418167 192.24 
L 195.569191 192.24 
L 195.569191 192.24 
L 194.418167 192.24 
z
" style="fill:#1f77b4;opacity:0.35;"/>
   </g>
   <g id="patch_83">
    <path clip-path="url(#pc893eae517)" d="M 195.856947 192.24 
L 197.007971 192.24 
L 197.007971 169.915168 
L 195.856947 169.915168 
z
" style="fill:#1f77b4;opacity:0.35;"/>
   </g>
   <g id="patch_84">
    <path clip-path="url(#pc893eae517)" d="M 197.295727 192.24 
L 198.446751 192.24 
L 198.446751 192.24 
L 197.295727 192.24 
z
" style="fill:#1f77b4;opacity:0.35;"/>
   </g>
   <g id="patch_85">
    <path clip-path="url(#pc893eae517)" d="M 198.734507 192.24 
L 199.885531 192.24 
L 199.885531 192.24 
L 198.734507 192.24 
z
" style="fill:#1f77b4;opacity:0.35;"/>
   </g>
   <g id="patch_86">
    <path clip-path="url(#pc893eae517)" d="M 200.173287 192.24 
L 201.324311 192.24 
L 201.324311 125.265503 
L 200.173287 125.265503 
z
" style="fill:#1f77b4;opacity:0.35;"/>
   </g>
   <g id="patch_87">
    <path clip-path="url(#pc893eae517)" d="M 201.612067 192.24 
L 202.763091 192.24 
L 202.763091 192.24 
L 201.612067 192.24 
z
" style="fill:#1f77b4;opacity:0.35;"/>
   </g>
   <g id="patch_88">
    <path clip-path="url(#pc893eae517)" d="M 203.050847 192.24 
L 204.201871 192.24 
L 204.201871 192.24 
L 203.050847 192.24 
z
" style="fill:#1f77b4;opacity:0.35;"/>
   </g>
   <g id="patch_89">
    <path clip-path="url(#pc893eae517)" d="M 204.489627 192.24 
L 205.640651 192.24 
L 205.640651 169.915168 
L 204.489627 169.915168 
z
" style="fill:#1f77b4;opacity:0.35;"/>
   </g>
   <g id="patch_90">
    <path clip-path="url(#pc893eae517)" d="M 205.928407 192.24 
L 207.079431 192.24 
L 207.079431 192.24 
L 205.928407 192.24 
z
" style="fill:#1f77b4;opacity:0.35;"/>
   </g>
   <g id="patch_91">
    <path clip-path="url(#pc893eae517)" d="M 207.367187 192.24 
L 208.518211 192.24 
L 208.518211 214.564832 
L 207.367187 214.564832 
z
" style="fill:#1f77b4;opacity:0.35;"/>
   </g>
   <g id="patch_92">
    <path clip-path="url(#pc893eae517)" d="M 208.805967 192.24 
L 209.956991 192.24 
L 209.956991 192.24 
L 208.805967 192.24 
z
" style="fill:#1f77b4;opacity:0.35;"/>
   </g>
   <g id="patch_93">
    <path clip-path="url(#pc893eae517)" d="M 210.244747 192.24 
L 211.395771 192.24 
L 211.395771 192.24 
L 210.244747 192.24 
z
" style="fill:#1f77b4;opacity:0.35;"/>
   </g>
   <g id="patch_94">
    <path clip-path="url(#pc893eae517)" d="M 211.683527 192.24 
L 212.834551 192.24 
L 212.834551 192.24 
L 211.683527 192.24 
z
" style="fill:#1f77b4;opacity:0.35;"/>
   </g>
   <g id="patch_95">
    <path clip-path="url(#pc893eae517)" d="M 213.122307 192.24 
L 214.273331 192.24 
L 214.273331 192.24 
L 213.122307 192.24 
z
" style="fill:#1f77b4;opacity:0.35;"/>
   </g>
   <g id="patch_96">
    <path clip-path="url(#pc893eae517)" d="M 214.561087 192.24 
L 215.712111 192.24 
L 215.712111 192.24 
L 214.561087 192.24 
z
" style="fill:#1f77b4;opacity:0.35;"/>
   </g>
   <g id="patch_97">
    <path clip-path="url(#pc893eae517)" d="M 215.999867 192.24 
L 217.150891 192.24 
L 217.150891 192.24 
L 215.999867 192.24 
z
" style="fill:#1f77b4;opacity:0.35;"/>
   </g>
   <g id="patch_98">
    <path clip-path="url(#pc893eae517)" d="M 217.438647 192.24 
L 218.589671 192.24 
L 218.589671 192.24 
L 217.438647 192.24 
z
" style="fill:#1f77b4;opacity:0.35;"/>
   </g>
   <g id="patch_99">
    <path clip-path="url(#pc893eae517)" d="M 218.877427 192.24 
L 220.028451 192.24 
L 220.028451 192.24 
L 218.877427 192.24 
z
" style="fill:#1f77b4;opacity:0.35;"/>
   </g>
   <g id="patch_100">
    <path clip-path="url(#pc893eae517)" d="M 220.316207 192.24 
L 221.467231 192.24 
L 221.467231 192.24 
L 220.316207 192.24 
z
" style="fill:#1f77b4;opacity:0.35;"/>
   </g>
   <g id="patch_101">
    <path clip-path="url(#pc893eae517)" d="M 221.754987 192.24 
L 222.906011 192.24 
L 222.906011 192.24 
L 221.754987 192.24 
z
" style="fill:#1f77b4;opacity:0.35;"/>
   </g>
   <g id="patch_102">
    <path clip-path="url(#pc893eae517)" d="M 223.193767 192.24 
L 224.344792 192.24 
L 224.344792 192.24 
L 223.193767 192.24 
z
" style="fill:#1f77b4;opacity:0.35;"/>
   </g>
   <g id="patch_103">
    <path clip-path="url(#pc893eae517)" d="M 224.632548 192.24 
L 225.783572 192.24 
L 225.783572 192.24 
L 224.632548 192.24 
z
" style="fill:#1f77b4;opacity:0.35;"/>
   </g>
   <g id="patch_104">
    <path clip-path="url(#pc893eae517)" d="M 226.071328 192.24 
L 227.222352 192.24 
L 227.222352 192.24 
L 226.071328 192.24 
z
" style="fill:#1f77b4;opacity:0.35;"/>
   </g>
   <g id="patch_105">
    <path clip-path="url(#pc893eae517)" d="M 227.510108 192.24 
L 228.661132 192.24 
L 228.661132 169.915168 
L 227.510108 169.915168 
z
" style="fill:#1f77b4;opacity:0.35;"/>
   </g>
   <g id="patch_106">
    <path clip-path="url(#pc893eae517)" d="M 228.948888 192.24 
L 230.099912 192.24 
L 230.099912 147.590336 
L 228.948888 147.590336 
z
" style="fill:#1f77b4;opacity:0.35;"/>
   </g>
   <g id="patch_107">
    <path clip-path="url(#pc893eae517)" d="M 230.387668 192.24 
L 231.538692 192.24 
L 231.538692 192.24 
L 230.387668 192.24 
z
" style="fill:#1f77b4;opacity:0.35;"/>
   </g>
   <g id="patch_108">
    <path clip-path="url(#pc893eae517)" d="M 231.826448 192.24 
L 232.977472 192.24 
L 232.977472 192.24 
L 231.826448 192.24 
z
" style="fill:#1f77b4;opacity:0.35;"/>
   </g>
   <g id="patch_109">
    <path clip-path="url(#pc893eae517)" d="M 233.265228 192.24 
L 234.416252 192.24 
L 234.416252 192.24 
L 233.265228 192.24 
z
" style="fill:#1f77b4;opacity:0.35;"/>
   </g>
   <g id="patch_110">
    <path clip-path="url(#pc893eae517)" d="M 234.704008 192.24 
L 235.855032 192.24 
L 235.855032 192.24 
L 234.704008 192.24 
z
" style="fill:#1f77b4;opacity:0.35;"/>
   </g>
   <g id="patch_111">
    <path clip-path="url(#pc893eae517)" d="M 236.142788 192.24 
L 237.293812 192.24 
L 237.293812 192.24 
L 236.142788 192.24 
z
" style="fill:#1f77b4;opacity:0.35;"/>
   </g>
   <g id="patch_112">
    <path clip-path="url(#pc893eae517)" d="M 237.581568 192.24 
L 238.732592 192.24 
L 238.732592 169.915168 
L 237.581568 169.915168 
z
" style="fill:#1f77b4;opacity:0.35;"/>
   </g>
   <g id="patch_113">
    <path clip-path="url(#pc893eae517)" d="M 239.020348 192.24 
L 240.171372 192.24 
L 240.171372 192.24 
L 239.020348 192.24 
z
" style="fill:#1f77b4;opacity:0.35;"/>
   </g>
   <g id="patch_114">
    <path clip-path="url(#pc893eae517)" d="M 240.459128 192.24 
L 241.610152 192.24 
L 241.610152 192.24 
L 240.459128 192.24 
z
" style="fill:#1f77b4;opacity:0.35;"/>
   </g>
   <g id="patch_115">
    <path clip-path="url(#pc893eae517)" d="M 241.897908 192.24 
L 243.048932 192.24 
L 243.048932 192.24 
L 241.897908 192.24 
z
" style="fill:#1f77b4;opacity:0.35;"/>
   </g>
   <g id="patch_116">
    <path clip-path="url(#pc893eae517)" d="M 243.336688 192.24 
L 244.487712 192.24 
L 244.487712 192.24 
L 243.336688 192.24 
z
" style="fill:#1f77b4;opacity:0.35;"/>
   </g>
   <g id="patch_117">
    <path clip-path="url(#pc893eae517)" d="M 244.775468 192.24 
L 245.926492 192.24 
L 245.926492 192.24 
L 244.775468 192.24 
z
" style="fill:#1f77b4;opacity:0.35;"/>
   </g>
   <g id="patch_118">
    <path clip-path="url(#pc893eae517)" d="M 246.214248 192.24 
L 247.365272 192.24 
L 247.365272 147.590336 
L 246.214248 147.590336 
z
" style="fill:#1f77b4;opacity:0.35;"/>
   </g>
   <g id="patch_119">
    <path clip-path="url(#pc893eae517)" d="M 247.653028 192.24 
L 248.804052 192.24 
L 248.804052 192.24 
L 247.653028 192.24 
z
" style="fill:#1f77b4;opacity:0.35;"/>
   </g>
   <g id="patch_120">
    <path clip-path="url(#pc893eae517)" d="M 249.091808 192.24 
L 250.242832 192.24 
L 250.242832 169.915168 
L 249.091808 169.915168 
z
" style="fill:#1f77b4;opacity:0.35;"/>
   </g>
   <g id="patch_121">
    <path clip-path="url(#pc893eae517)" d="M 250.530588 192.24 
L 251.681612 192.24 
L 251.681612 192.24 
L 250.530588 192.24 
z
" style="fill:#1f77b4;opacity:0.35;"/>
   </g>
   <g id="patch_122">
    <path clip-path="url(#pc893eae517)" d="M 251.969368 192.24 
L 253.120392 192.24 
L 253.120392 192.24 
L 251.969368 192.24 
z
" style="fill:#1f77b4;opacity:0.35;"/>
   </g>
   <g id="patch_123">
    <path clip-path="url(#pc893eae517)" d="M 253.408148 192.24 
L 254.559172 192.24 
L 254.559172 192.24 
L 253.408148 192.24 
z
" style="fill:#1f77b4;opacity:0.35;"/>
   </g>
   <g id="patch_124">
    <path clip-path="url(#pc893eae517)" d="M 254.846928 192.24 
L 255.997952 192.24 
L 255.997952 192.24 
L 254.846928 192.24 
z
" style="fill:#1f77b4;opacity:0.35;"/>
   </g>
   <g id="patch_125">
    <path clip-path="url(#pc893eae517)" d="M 256.285708 192.24 
L 257.436732 192.24 
L 257.436732 147.590336 
L 256.285708 147.590336 
z
" style="fill:#1f77b4;opacity:0.35;"/>
   </g>
   <g id="patch_126">
    <path clip-path="url(#pc893eae517)" d="M 257.724488 192.24 
L 258.875512 192.24 
L 258.875512 192.24 
L 257.724488 192.24 
z
" style="fill:#1f77b4;opacity:0.35;"/>
   </g>
   <g id="patch_127">
    <path clip-path="url(#pc893eae517)" d="M 259.163268 192.24 
L 260.314292 192.24 
L 260.314292 169.915168 
L 259.163268 169.915168 
z
" style="fill:#1f77b4;opacity:0.35;"/>
   </g>
   <g id="patch_128">
    <path clip-path="url(#pc893eae517)" d="M 260.602048 192.24 
L 261.753072 192.24 
L 261.753072 192.24 
L 260.602048 192.24 
z
" style="fill:#1f77b4;opacity:0.35;"/>
   </g>
   <g id="patch_129">
    <path clip-path="url(#pc893eae517)" d="M 262.040828 192.24 
L 263.191852 192.24 
L 263.191852 192.24 
L 262.040828 192.24 
z
" style="fill:#1f77b4;opacity:0.35;"/>
   </g>
   <g id="patch_130">
    <path clip-path="url(#pc893eae517)" d="M 263.479608 192.24 
L 264.630632 192.24 
L 264.630632 147.590336 
L 263.479608 147.590336 
z
" style="fill:#1f77b4;opacity:0.35;"/>
   </g>
   <g id="patch_131">
    <path clip-path="url(#pc893eae517)" d="M 264.918388 192.24 
L 266.069412 192.24 
L 266.069412 192.24 
L 264.918388 192.24 
z
" style="fill:#1f77b4;opacity:0.35;"/>
   </g>
   <g id="patch_132">
    <path clip-path="url(#pc893eae517)" d="M 266.357168 192.24 
L 267.508192 192.24 
L 267.508192 169.915168 
L 266.357168 169.915168 
z
" style="fill:#1f77b4;opacity:0.35;"/>
   </g>
   <g id="patch_133">
    <path clip-path="url(#pc893eae517)" d="M 267.795948 192.24 
L 268.946972 192.24 
L 268.946972 169.915168 
L 267.795948 169.915168 
z
" style="fill:#1f77b4;opacity:0.35;"/>
   </g>
   <g id="patch_134">
    <path clip-path="url(#pc893eae517)" d="M 269.234728 192.24 
L 270.385752 192.24 
L 270.385752 192.24 
L 269.234728 192.24 
z
" style="fill:#1f77b4;opacity:0.35;"/>
   </g>
   <g id="patch_135">
    <path clip-path="url(#pc893eae517)" d="M 270.673508 192.24 
L 271.824532 192.24 
L 271.824532 192.24 
L 270.673508 192.24 
z
" style="fill:#1f77b4;opacity:0.35;"/>
   </g>
   <g id="patch_136">
    <path clip-path="url(#pc893eae517)" d="M 272.112288 192.24 
L 273.263312 192.24 
L 273.263312 192.24 
L 272.112288 192.24 
z
" style="fill:#1f77b4;opacity:0.35;"/>
   </g>
   <g id="patch_137">
    <path clip-path="url(#pc893eae517)" d="M 273.551068 192.24 
L 274.702092 192.24 
L 274.702092 192.24 
L 273.551068 192.24 
z
" style="fill:#1f77b4;opacity:0.35;"/>
   </g>
   <g id="patch_138">
    <path clip-path="url(#pc893eae517)" d="M 274.989848 192.24 
L 276.140872 192.24 
L 276.140872 192.24 
L 274.989848 192.24 
z
" style="fill:#1f77b4;opacity:0.35;"/>
   </g>
   <g id="patch_139">
    <path clip-path="url(#pc893eae517)" d="M 276.428628 192.24 
L 277.579652 192.24 
L 277.579652 192.24 
L 276.428628 192.24 
z
" style="fill:#1f77b4;opacity:0.35;"/>
   </g>
   <g id="patch_140">
    <path clip-path="url(#pc893eae517)" d="M 277.867408 192.24 
L 279.018432 192.24 
L 279.018432 169.915168 
L 277.867408 169.915168 
z
" style="fill:#1f77b4;opacity:0.35;"/>
   </g>
   <g id="patch_141">
    <path clip-path="url(#pc893eae517)" d="M 279.306188 192.24 
L 280.457212 192.24 
L 280.457212 192.24 
L 279.306188 192.24 
z
" style="fill:#1f77b4;opacity:0.35;"/>
   </g>
   <g id="patch_142">
    <path clip-path="url(#pc893eae517)" d="M 280.744968 192.24 
L 281.895992 192.24 
L 281.895992 169.915168 
L 280.744968 169.915168 
z
" style="fill:#1f77b4;opacity:0.35;"/>
   </g>
   <g id="patch_143">
    <path clip-path="url(#pc893eae517)" d="M 282.183748 192.24 
L 283.334772 192.24 
L 283.334772 192.24 
L 282.183748 192.24 
z
" style="fill:#1f77b4;opacity:0.35;"/>
   </g>
   <g id="patch_144">
    <path clip-path="url(#pc893eae517)" d="M 283.622528 192.24 
L 284.773552 192.24 
L 284.773552 192.24 
L 283.622528 192.24 
z
" style="fill:#1f77b4;opacity:0.35;"/>
   </g>
   <g id="patch_145">
    <path clip-path="url(#pc893eae517)" d="M 285.061308 192.24 
L 286.212332 192.24 
L 286.212332 192.24 
L 285.061308 192.24 
z
" style="fill:#1f77b4;opacity:0.35;"/>
   </g>
   <g id="patch_146">
    <path clip-path="url(#pc893eae517)" d="M 286.500088 192.24 
L 287.651112 192.24 
L 287.651112 192.24 
L 286.500088 192.24 
z
" style="fill:#1f77b4;opacity:0.35;"/>
   </g>
   <g id="patch_147">
    <path clip-path="url(#pc893eae517)" d="M 287.938868 192.24 
L 289.089892 192.24 
L 289.089892 169.915168 
L 287.938868 169.915168 
z
" style="fill:#1f77b4;opacity:0.35;"/>
   </g>
   <g id="patch_148">
    <path clip-path="url(#pc893eae517)" d="M 289.377648 192.24 
L 290.528672 192.24 
L 290.528672 192.24 
L 289.377648 192.24 
z
" style="fill:#1f77b4;opacity:0.35;"/>
   </g>
   <g id="patch_149">
    <path clip-path="url(#pc893eae517)" d="M 290.816428 192.24 
L 291.967452 192.24 
L 291.967452 192.24 
L 290.816428 192.24 
z
" style="fill:#1f77b4;opacity:0.35;"/>
   </g>
   <g id="patch_150">
    <path clip-path="url(#pc893eae517)" d="M 292.255208 192.24 
L 293.406233 192.24 
L 293.406233 192.24 
L 292.255208 192.24 
z
" style="fill:#1f77b4;opacity:0.35;"/>
   </g>
   <g id="patch_151">
    <path clip-path="url(#pc893eae517)" d="M 293.693989 192.24 
L 294.845013 192.24 
L 294.845013 192.24 
L 293.693989 192.24 
z
" style="fill:#1f77b4;opacity:0.35;"/>
   </g>
   <g id="patch_152">
    <path clip-path="url(#pc893eae517)" d="M 295.132769 192.24 
L 296.283793 192.24 
L 296.283793 192.24 
L 295.132769 192.24 
z
" style="fill:#1f77b4;opacity:0.35;"/>
   </g>
   <g id="patch_153">
    <path clip-path="url(#pc893eae517)" d="M 296.571549 192.24 
L 297.722573 192.24 
L 297.722573 169.915168 
L 296.571549 169.915168 
z
" style="fill:#1f77b4;opacity:0.35;"/>
   </g>
   <g id="patch_154">
    <path clip-path="url(#pc893eae517)" d="M 298.010329 192.24 
L 299.161353 192.24 
L 299.161353 192.24 
L 298.010329 192.24 
z
" style="fill:#1f77b4;opacity:0.35;"/>
   </g>
   <g id="patch_155">
    <path clip-path="url(#pc893eae517)" d="M 299.449109 192.24 
L 300.600133 192.24 
L 300.600133 169.915168 
L 299.449109 169.915168 
z
" style="fill:#1f77b4;opacity:0.35;"/>
   </g>
   <g id="patch_156">
    <path clip-path="url(#pc893eae517)" d="M 300.887889 192.24 
L 302.038913 192.24 
L 302.038913 169.915168 
L 300.887889 169.915168 
z
" style="fill:#1f77b4;opacity:0.35;"/>
   </g>
   <g id="patch_157">
    <path clip-path="url(#pc893eae517)" d="M 302.326669 192.24 
L 303.477693 192.24 
L 303.477693 192.24 
L 302.326669 192.24 
z
" style="fill:#1f77b4;opacity:0.35;"/>
   </g>
   <g id="patch_158">
    <path clip-path="url(#pc893eae517)" d="M 303.765449 192.24 
L 304.916473 192.24 
L 304.916473 192.24 
L 303.765449 192.24 
z
" style="fill:#1f77b4;opacity:0.35;"/>
   </g>
   <g id="patch_159">
    <path clip-path="url(#pc893eae517)" d="M 305.204229 192.24 
L 306.355253 192.24 
L 306.355253 192.24 
L 305.204229 192.24 
z
" style="fill:#1f77b4;opacity:0.35;"/>
   </g>
   <g id="patch_160">
    <path clip-path="url(#pc893eae517)" d="M 306.643009 192.24 
L 307.794033 192.24 
L 307.794033 192.24 
L 306.643009 192.24 
z
" style="fill:#1f77b4;opacity:0.35;"/>
   </g>
   <g id="patch_161">
    <path clip-path="url(#pc893eae517)" d="M 308.081789 192.24 
L 309.232813 192.24 
L 309.232813 192.24 
L 308.081789 192.24 
z
" style="fill:#1f77b4;opacity:0.35;"/>
   </g>
   <g id="patch_162">
    <path clip-path="url(#pc893eae517)" d="M 309.520569 192.24 
L 310.671593 192.24 
L 310.671593 192.24 
L 309.520569 192.24 
z
" style="fill:#1f77b4;opacity:0.35;"/>
   </g>
   <g id="patch_163">
    <path clip-path="url(#pc893eae517)" d="M 310.959349 192.24 
L 312.110373 192.24 
L 312.110373 192.24 
L 310.959349 192.24 
z
" style="fill:#1f77b4;opacity:0.35;"/>
   </g>
   <g id="patch_164">
    <path clip-path="url(#pc893eae517)" d="M 312.398129 192.24 
L 313.549153 192.24 
L 313.549153 192.24 
L 312.398129 192.24 
z
" style="fill:#1f77b4;opacity:0.35;"/>
   </g>
   <g id="patch_165">
    <path clip-path="url(#pc893eae517)" d="M 313.836909 192.24 
L 314.987933 192.24 
L 314.987933 192.24 
L 313.836909 192.24 
z
" style="fill:#1f77b4;opacity:0.35;"/>
   </g>
   <g id="patch_166">
    <path clip-path="url(#pc893eae517)" d="M 315.275689 192.24 
L 316.426713 192.24 
L 316.426713 192.24 
L 315.275689 192.24 
z
" style="fill:#1f77b4;opacity:0.35;"/>
   </g>
   <g id="patch_167">
    <path clip-path="url(#pc893eae517)" d="M 316.714469 192.24 
L 317.865493 192.24 
L 317.865493 192.24 
L 316.714469 192.24 
z
" style="fill:#1f77b4;opacity:0.35;"/>
   </g>
   <g id="patch_168">
    <path clip-path="url(#pc893eae517)" d="M 318.153249 192.24 
L 319.304273 192.24 
L 319.304273 147.590336 
L 318.153249 147.590336 
z
" style="fill:#1f77b4;opacity:0.35;"/>
   </g>
   <g id="patch_169">
    <path clip-path="url(#pc893eae517)" d="M 319.592029 192.24 
L 320.743053 192.24 
L 320.743053 192.24 
L 319.592029 192.24 
z
" style="fill:#1f77b4;opacity:0.35;"/>
   </g>
   <g id="patch_170">
    <path clip-path="url(#pc893eae517)" d="M 321.030809 192.24 
L 322.181833 192.24 
L 322.181833 169.915168 
L 321.030809 169.915168 
z
" style="fill:#1f77b4;opacity:0.35;"/>
   </g>
   <g id="patch_171">
    <path clip-path="url(#pc893eae517)" d="M 322.469589 192.24 
L 323.620613 192.24 
L 323.620613 169.915168 
L 322.469589 169.915168 
z
" style="fill:#1f77b4;opacity:0.35;"/>
   </g>
   <g id="patch_172">
    <path clip-path="url(#pc893eae517)" d="M 323.908369 192.24 
L 325.059393 192.24 
L 325.059393 192.24 
L 323.908369 192.24 
z
" style="fill:#1f77b4;opacity:0.35;"/>
   </g>
   <g id="patch_173">
    <path clip-path="url(#pc893eae517)" d="M 325.347149 192.24 
L 326.498173 192.24 
L 326.498173 169.915168 
L 325.347149 169.915168 
z
" style="fill:#1f77b4;opacity:0.35;"/>
   </g>
   <g id="patch_174">
    <path clip-path="url(#pc893eae517)" d="M 326.785929 192.24 
L 327.936953 192.24 
L 327.936953 214.564832 
L 326.785929 214.564832 
z
" style="fill:#1f77b4;opacity:0.35;"/>
   </g>
   <g id="patch_175">
    <path clip-path="url(#pc893eae517)" d="M 328.224709 192.24 
L 329.375733 192.24 
L 329.375733 192.24 
L 328.224709 192.24 
z
" style="fill:#1f77b4;opacity:0.35;"/>
   </g>
   <g id="patch_176">
    <path clip-path="url(#pc893eae517)" d="M 329.663489 192.24 
L 330.814513 192.24 
L 330.814513 169.915168 
L 329.663489 169.915168 
z
" style="fill:#1f77b4;opacity:0.35;"/>
   </g>
   <g id="patch_177">
    <path clip-path="url(#pc893eae517)" d="M 331.102269 192.24 
L 332.253293 192.24 
L 332.253293 192.24 
L 331.102269 192.24 
z
" style="fill:#1f77b4;opacity:0.35;"/>
   </g>
   <g id="patch_178">
    <path clip-path="url(#pc893eae517)" d="M 332.541049 192.24 
L 333.692073 192.24 
L 333.692073 192.24 
L 332.541049 192.24 
z
" style="fill:#1f77b4;opacity:0.35;"/>
   </g>
   <g id="patch_179">
    <path clip-path="url(#pc893eae517)" d="M 333.979829 192.24 
L 335.130853 192.24 
L 335.130853 169.915168 
L 333.979829 169.915168 
z
" style="fill:#1f77b4;opacity:0.35;"/>
   </g>
   <g id="patch_180">
    <path clip-path="url(#pc893eae517)" d="M 335.418609 192.24 
L 336.569633 192.24 
L 336.569633 192.24 
L 335.418609 192.24 
z
" style="fill:#1f77b4;opacity:0.35;"/>
   </g>
   <g id="patch_181">
    <path clip-path="url(#pc893eae517)" d="M 336.857389 192.24 
L 338.008413 192.24 
L 338.008413 192.24 
L 336.857389 192.24 
z
" style="fill:#1f77b4;opacity:0.35;"/>
   </g>
   <g id="patch_182">
    <path clip-path="url(#pc893eae517)" d="M 338.296169 192.24 
L 339.447193 192.24 
L 339.447193 192.24 
L 338.296169 192.24 
z
" style="fill:#1f77b4;opacity:0.35;"/>
   </g>
   <g id="patch_183">
    <path clip-path="url(#pc893eae517)" d="M 339.734949 192.24 
L 340.885973 192.24 
L 340.885973 169.915168 
L 339.734949 169.915168 
z
" style="fill:#1f77b4;opacity:0.35;"/>
   </g>
   <g id="patch_184">
    <path clip-path="url(#pc893eae517)" d="M 341.173729 192.24 
L 342.324753 192.24 
L 342.324753 192.24 
L 341.173729 192.24 
z
" style="fill:#1f77b4;opacity:0.35;"/>
   </g>
   <g id="patch_185">
    <path clip-path="url(#pc893eae517)" d="M 342.612509 192.24 
L 343.763533 192.24 
L 343.763533 192.24 
L 342.612509 192.24 
z
" style="fill:#1f77b4;opacity:0.35;"/>
   </g>
   <g id="patch_186">
    <path clip-path="url(#pc893eae517)" d="M 344.051289 192.24 
L 345.202313 192.24 
L 345.202313 169.915168 
L 344.051289 169.915168 
z
" style="fill:#1f77b4;opacity:0.35;"/>
   </g>
   <g id="patch_187">
    <path clip-path="url(#pc893eae517)" d="M 345.490069 192.24 
L 346.641093 192.24 
L 346.641093 192.24 
L 345.490069 192.24 
z
" style="fill:#1f77b4;opacity:0.35;"/>
   </g>
   <g id="patch_188">
    <path clip-path="url(#pc893eae517)" d="M 346.928849 192.24 
L 348.079873 192.24 
L 348.079873 192.24 
L 346.928849 192.24 
z
" style="fill:#1f77b4;opacity:0.35;"/>
   </g>
   <g id="patch_189">
    <path clip-path="url(#pc893eae517)" d="M 348.367629 192.24 
L 349.518653 192.24 
L 349.518653 192.24 
L 348.367629 192.24 
z
" style="fill:#1f77b4;opacity:0.35;"/>
   </g>
   <g id="patch_190">
    <path clip-path="url(#pc893eae517)" d="M 349.806409 192.24 
L 350.957433 192.24 
L 350.957433 192.24 
L 349.806409 192.24 
z
" style="fill:#1f77b4;opacity:0.35;"/>
   </g>
   <g id="patch_191">
    <path clip-path="url(#pc893eae517)" d="M 351.245189 192.24 
L 352.396213 192.24 
L 352.396213 192.24 
L 351.245189 192.24 
z
" style="fill:#1f77b4;opacity:0.35;"/>
   </g>
   <g id="patch_192">
    <path clip-path="url(#pc893eae517)" d="M 352.683969 192.24 
L 353.834993 192.24 
L 353.834993 192.24 
L 352.683969 192.24 
z
" style="fill:#1f77b4;opacity:0.35;"/>
   </g>
   <g id="patch_193">
    <path clip-path="url(#pc893eae517)" d="M 354.122749 192.24 
L 355.273773 192.24 
L 355.273773 192.24 
L 354.122749 192.24 
z
" style="fill:#1f77b4;opacity:0.35;"/>
   </g>
   <g id="patch_194">
    <path clip-path="url(#pc893eae517)" d="M 355.561529 192.24 
L 356.712553 192.24 
L 356.712553 169.915168 
L 355.561529 169.915168 
z
" style="fill:#1f77b4;opacity:0.35;"/>
   </g>
   <g id="patch_195">
    <path clip-path="url(#pc893eae517)" d="M 357.000309 192.24 
L 358.151333 192.24 
L 358.151333 192.24 
L 357.000309 192.24 
z
" style="fill:#1f77b4;opacity:0.35;"/>
   </g>
   <g id="patch_196">
    <path clip-path="url(#pc893eae517)" d="M 358.439089 192.24 
L 359.590113 192.24 
L 359.590113 192.24 
L 358.439089 192.24 
z
" style="fill:#1f77b4;opacity:0.35;"/>
   </g>
   <g id="patch_197">
    <path clip-path="url(#pc893eae517)" d="M 359.877869 192.24 
L 361.028893 192.24 
L 361.028893 147.590336 
L 359.877869 147.590336 
z
" style="fill:#1f77b4;opacity:0.35;"/>
   </g>
   <g id="patch_198">
    <path clip-path="url(#pc893eae517)" d="M 361.316649 192.24 
L 362.467673 192.24 
L 362.467673 192.24 
L 361.316649 192.24 
z
" style="fill:#1f77b4;opacity:0.35;"/>
   </g>
   <g id="patch_199">
    <path clip-path="url(#pc893eae517)" d="M 362.755429 192.24 
L 363.906454 192.24 
L 363.906454 169.915168 
L 362.755429 169.915168 
z
" style="fill:#1f77b4;opacity:0.35;"/>
   </g>
   <g id="patch_200">
    <path clip-path="url(#pc893eae517)" d="M 364.19421 192.24 
L 365.345234 192.24 
L 365.345234 192.24 
L 364.19421 192.24 
z
" style="fill:#1f77b4;opacity:0.35;"/>
   </g>
   <g id="patch_201">
    <path clip-path="url(#pc893eae517)" d="M 365.63299 192.24 
L 366.784014 192.24 
L 366.784014 192.24 
L 365.63299 192.24 
z
" style="fill:#1f77b4;opacity:0.35;"/>
   </g>
   <g id="patch_202">
    <path clip-path="url(#pc893eae517)" d="M 367.07177 192.24 
L 368.222794 192.24 
L 368.222794 192.24 
L 367.07177 192.24 
z
" style="fill:#1f77b4;opacity:0.35;"/>
   </g>
   <g id="patch_203">
    <path clip-path="url(#pc893eae517)" d="M 368.51055 192.24 
L 369.661574 192.24 
L 369.661574 147.590336 
L 368.51055 147.590336 
z
" style="fill:#1f77b4;opacity:0.35;"/>
   </g>
   <g id="patch_204">
    <path clip-path="url(#pc893eae517)" d="M 369.94933 192.24 
L 371.100354 192.24 
L 371.100354 169.915168 
L 369.94933 169.915168 
z
" style="fill:#1f77b4;opacity:0.35;"/>
   </g>
   <g id="patch_205">
    <path clip-path="url(#pc893eae517)" d="M 371.38811 192.24 
L 372.539134 192.24 
L 372.539134 169.915168 
L 371.38811 169.915168 
z
" style="fill:#1f77b4;opacity:0.35;"/>
   </g>
   <g id="patch_206">
    <path clip-path="url(#pc893eae517)" d="M 372.82689 192.24 
L 373.977914 192.24 
L 373.977914 169.915168 
L 372.82689 169.915168 
z
" style="fill:#1f77b4;opacity:0.35;"/>
   </g>
   <g id="patch_207">
    <path clip-path="url(#pc893eae517)" d="M 374.26567 192.24 
L 375.416694 192.24 
L 375.416694 192.24 
L 374.26567 192.24 
z
" style="fill:#1f77b4;opacity:0.35;"/>
   </g>
   <g id="patch_208">
    <path clip-path="url(#pc893eae517)" d="M 375.70445 192.24 
L 376.855474 192.24 
L 376.855474 147.590336 
L 375.70445 147.590336 
z
" style="fill:#1f77b4;opacity:0.35;"/>
   </g>
   <g id="patch_209">
    <path clip-path="url(#pc893eae517)" d="M 377.14323 192.24 
L 378.294254 192.24 
L 378.294254 169.915168 
L 377.14323 169.915168 
z
" style="fill:#1f77b4;opacity:0.35;"/>
   </g>
   <g id="patch_210">
    <path clip-path="url(#pc893eae517)" d="M 378.58201 192.24 
L 379.733034 192.24 
L 379.733034 147.590336 
L 378.58201 147.590336 
z
" style="fill:#1f77b4;opacity:0.35;"/>
   </g>
   <g id="patch_211">
    <path clip-path="url(#pc893eae517)" d="M 380.02079 192.24 
L 381.171814 192.24 
L 381.171814 125.265503 
L 380.02079 125.265503 
z
" style="fill:#1f77b4;opacity:0.35;"/>
   </g>
   <g id="patch_212">
    <path clip-path="url(#pc893eae517)" d="M 381.45957 192.24 
L 382.610594 192.24 
L 382.610594 169.915168 
L 381.45957 169.915168 
z
" style="fill:#1f77b4;opacity:0.35;"/>
   </g>
   <g id="patch_213">
    <path clip-path="url(#pc893eae517)" d="M 382.89835 192.24 
L 384.049374 192.24 
L 384.049374 147.590336 
L 382.89835 147.590336 
z
" style="fill:#1f77b4;opacity:0.35;"/>
   </g>
   <g id="patch_214">
    <path clip-path="url(#pc893eae517)" d="M 384.33713 192.24 
L 385.488154 192.24 
L 385.488154 169.915168 
L 384.33713 169.915168 
z
" style="fill:#1f77b4;opacity:0.35;"/>
   </g>
   <g id="patch_215">
    <path clip-path="url(#pc893eae517)" d="M 385.77591 192.24 
L 386.926934 192.24 
L 386.926934 192.24 
L 385.77591 192.24 
z
" style="fill:#1f77b4;opacity:0.35;"/>
   </g>
   <g id="patch_216">
    <path clip-path="url(#pc893eae517)" d="M 387.21469 192.24 
L 388.365714 192.24 
L 388.365714 192.24 
L 387.21469 192.24 
z
" style="fill:#1f77b4;opacity:0.35;"/>
   </g>
   <g id="patch_217">
    <path clip-path="url(#pc893eae517)" d="M 388.65347 192.24 
L 389.804494 192.24 
L 389.804494 169.915168 
L 388.65347 169.915168 
z
" style="fill:#1f77b4;opacity:0.35;"/>
   </g>
   <g id="patch_218">
    <path clip-path="url(#pc893eae517)" d="M 390.09225 192.24 
L 391.243274 192.24 
L 391.243274 169.915168 
L 390.09225 169.915168 
z
" style="fill:#1f77b4;opacity:0.35;"/>
   </g>
   <g id="patch_219">
    <path clip-path="url(#pc893eae517)" d="M 391.53103 192.24 
L 392.682054 192.24 
L 392.682054 147.590336 
L 391.53103 147.590336 
z
" style="fill:#1f77b4;opacity:0.35;"/>
   </g>
   <g id="patch_220">
    <path clip-path="url(#pc893eae517)" d="M 392.96981 192.24 
L 394.120834 192.24 
L 394.120834 192.24 
L 392.96981 192.24 
z
" style="fill:#1f77b4;opacity:0.35;"/>
   </g>
   <g id="patch_221">
    <path clip-path="url(#pc893eae517)" d="M 394.40859 192.24 
L 395.559614 192.24 
L 395.559614 169.915168 
L 394.40859 169.915168 
z
" style="fill:#1f77b4;opacity:0.35;"/>
   </g>
   <g id="patch_222">
    <path clip-path="url(#pc893eae517)" d="M 395.84737 192.24 
L 396.998394 192.24 
L 396.998394 169.915168 
L 395.84737 169.915168 
z
" style="fill:#1f77b4;opacity:0.35;"/>
   </g>
   <g id="patch_223">
    <path clip-path="url(#pc893eae517)" d="M 397.28615 192.24 
L 398.437174 192.24 
L 398.437174 125.265503 
L 397.28615 125.265503 
z
" style="fill:#1f77b4;opacity:0.35;"/>
   </g>
   <g id="patch_224">
    <path clip-path="url(#pc893eae517)" d="M 398.72493 192.24 
L 399.875954 192.24 
L 399.875954 169.915168 
L 398.72493 169.915168 
z
" style="fill:#1f77b4;opacity:0.35;"/>
   </g>
   <g id="patch_225">
    <path clip-path="url(#pc893eae517)" d="M 400.16371 192.24 
L 401.314734 192.24 
L 401.314734 147.590336 
L 400.16371 147.590336 
z
" style="fill:#1f77b4;opacity:0.35;"/>
   </g>
   <g id="patch_226">
    <path clip-path="url(#pc893eae517)" d="M 401.60249 192.24 
L 402.753514 192.24 
L 402.753514 169.915168 
L 401.60249 169.915168 
z
" style="fill:#1f77b4;opacity:0.35;"/>
   </g>
   <g id="patch_227">
    <path clip-path="url(#pc893eae517)" d="M 403.04127 192.24 
L 404.192294 192.24 
L 404.192294 147.590336 
L 403.04127 147.590336 
z
" style="fill:#1f77b4;opacity:0.35;"/>
   </g>
   <g id="patch_228">
    <path clip-path="url(#pc893eae517)" d="M 404.48005 192.24 
L 405.631074 192.24 
L 405.631074 192.24 
L 404.48005 192.24 
z
" style="fill:#1f77b4;opacity:0.35;"/>
   </g>
   <g id="patch_229">
    <path clip-path="url(#pc893eae517)" d="M 405.91883 192.24 
L 407.069854 192.24 
L 407.069854 192.24 
L 405.91883 192.24 
z
" style="fill:#1f77b4;opacity:0.35;"/>
   </g>
   <g id="patch_230">
    <path clip-path="url(#pc893eae517)" d="M 407.35761 192.24 
L 408.508634 192.24 
L 408.508634 192.24 
L 407.35761 192.24 
z
" style="fill:#1f77b4;opacity:0.35;"/>
   </g>
   <g id="patch_231">
    <path clip-path="url(#pc893eae517)" d="M 408.79639 192.24 
L 409.947414 192.24 
L 409.947414 80.615839 
L 408.79639 80.615839 
z
" style="fill:#1f77b4;opacity:0.35;"/>
   </g>
   <g id="patch_232">
    <path clip-path="url(#pc893eae517)" d="M 410.23517 192.24 
L 411.386194 192.24 
L 411.386194 169.915168 
L 410.23517 169.915168 
z
" style="fill:#1f77b4;opacity:0.35;"/>
   </g>
   <g id="patch_233">
    <path clip-path="url(#pc893eae517)" d="M 411.67395 192.24 
L 412.824974 192.24 
L 412.824974 125.265503 
L 411.67395 125.265503 
z
" style="fill:#1f77b4;opacity:0.35;"/>
   </g>
   <g id="patch_234">
    <path clip-path="url(#pc893eae517)" d="M 413.11273 192.24 
L 414.263754 192.24 
L 414.263754 192.24 
L 413.11273 192.24 
z
" style="fill:#1f77b4;opacity:0.35;"/>
   </g>
   <g id="patch_235">
    <path clip-path="url(#pc893eae517)" d="M 414.55151 192.24 
L 415.702534 192.24 
L 415.702534 192.24 
L 414.55151 192.24 
z
" style="fill:#1f77b4;opacity:0.35;"/>
   </g>
   <g id="patch_236">
    <path clip-path="url(#pc893eae517)" d="M 415.99029 192.24 
L 417.141314 192.24 
L 417.141314 192.24 
L 415.99029 192.24 
z
" style="fill:#1f77b4;opacity:0.35;"/>
   </g>
   <g id="patch_237">
    <path clip-path="url(#pc893eae517)" d="M 417.42907 192.24 
L 418.580094 192.24 
L 418.580094 192.24 
L 417.42907 192.24 
z
" style="fill:#1f77b4;opacity:0.35;"/>
   </g>
   <g id="patch_238">
    <path clip-path="url(#pc893eae517)" d="M 418.86785 192.24 
L 420.018874 192.24 
L 420.018874 192.24 
L 418.86785 192.24 
z
" style="fill:#1f77b4;opacity:0.35;"/>
   </g>
   <g id="patch_239">
    <path clip-path="url(#pc893eae517)" d="M 420.30663 192.24 
L 421.457654 192.24 
L 421.457654 125.265503 
L 420.30663 125.265503 
z
" style="fill:#1f77b4;opacity:0.35;"/>
   </g>
   <g id="patch_240">
    <path clip-path="url(#pc893eae517)" d="M 421.74541 192.24 
L 422.896434 192.24 
L 422.896434 125.265503 
L 421.74541 125.265503 
z
" style="fill:#1f77b4;opacity:0.35;"/>
   </g>
   <g id="patch_241">
    <path clip-path="url(#pc893eae517)" d="M 423.18419 192.24 
L 424.335214 192.24 
L 424.335214 125.265503 
L 423.18419 125.265503 
z
" style="fill:#1f77b4;opacity:0.35;"/>
   </g>
   <g id="patch_242">
    <path clip-path="url(#pc893eae517)" d="M 424.62297 192.24 
L 425.773994 192.24 
L 425.773994 192.24 
L 424.62297 192.24 
z
" style="fill:#1f77b4;opacity:0.35;"/>
   </g>
   <g id="patch_243">
    <path clip-path="url(#pc893eae517)" d="M 426.06175 192.24 
L 427.212774 192.24 
L 427.212774 102.940671 
L 426.06175 102.940671 
z
" style="fill:#1f77b4;opacity:0.35;"/>
   </g>
   <g id="patch_244">
    <path clip-path="url(#pc893eae517)" d="M 427.50053 192.24 
L 428.651554 192.24 
L 428.651554 125.265503 
L 427.50053 125.265503 
z
" style="fill:#1f77b4;opacity:0.35;"/>
   </g>
   <g id="patch_245">
    <path clip-path="url(#pc893eae517)" d="M 428.93931 192.24 
L 430.090334 192.24 
L 430.090334 147.590336 
L 428.93931 147.590336 
z
" style="fill:#1f77b4;opacity:0.35;"/>
   </g>
   <g id="patch_246">
    <path clip-path="url(#pc893eae517)" d="M 430.37809 192.24 
L 431.529114 192.24 
L 431.529114 125.265503 
L 430.37809 125.265503 
z
" style="fill:#1f77b4;opacity:0.35;"/>
   </g>
   <g id="patch_247">
    <path clip-path="url(#pc893eae517)" d="M 431.81687 192.24 
L 432.967895 192.24 
L 432.967895 169.915168 
L 431.81687 169.915168 
z
" style="fill:#1f77b4;opacity:0.35;"/>
   </g>
   <g id="patch_248">
    <path clip-path="url(#pc893eae517)" d="M 433.255651 192.24 
L 434.406675 192.24 
L 434.406675 169.915168 
L 433.255651 169.915168 
z
" style="fill:#1f77b4;opacity:0.35;"/>
   </g>
   <g id="patch_249">
    <path clip-path="url(#pc893eae517)" d="M 434.694431 192.24 
L 435.845455 192.24 
L 435.845455 169.915168 
L 434.694431 169.915168 
z
" style="fill:#1f77b4;opacity:0.35;"/>
   </g>
   <g id="line2d_23">
    <path clip-path="url(#pc893eae517)" d="M 89.962738 173.10443 
L 91.401518 176.293691 
L 92.840298 176.293691 
L 94.279078 153.968859 
L 95.717858 147.590336 
L 97.156638 147.590336 
L 100.034198 160.347383 
L 102.911758 160.347383 
L 104.350538 182.672215 
L 105.789318 189.050738 
L 107.228098 182.672215 
L 108.666878 185.861477 
L 110.105658 173.10443 
L 111.544438 179.482953 
L 112.983218 179.482953 
L 114.421998 173.10443 
L 115.860778 173.10443 
L 117.299558 179.482953 
L 118.738338 179.482953 
L 120.177118 189.050738 
L 123.054678 176.293691 
L 124.493458 182.672215 
L 128.809798 163.536644 
L 130.248578 163.536644 
L 131.687358 153.968859 
L 133.126138 160.347383 
L 134.564918 157.158121 
L 138.881258 176.293691 
L 140.320038 176.293691 
L 141.758818 185.861477 
L 143.197598 182.672215 
L 144.636378 185.861477 
L 150.391498 185.861477 
L 151.830278 182.672215 
L 154.707839 182.672215 
L 156.146619 179.482953 
L 157.585399 173.10443 
L 159.024179 173.10443 
L 160.462959 176.293691 
L 161.901739 182.672215 
L 163.340519 185.861477 
L 166.218079 185.861477 
L 167.656859 189.050738 
L 170.534419 189.050738 
L 171.973199 185.861477 
L 173.411979 185.861477 
L 174.850759 182.672215 
L 176.289539 185.861477 
L 182.044659 185.861477 
L 183.483439 182.672215 
L 186.360999 182.672215 
L 187.799779 185.861477 
L 192.116119 185.861477 
L 194.993679 192.24 
L 196.432459 189.050738 
L 199.310019 189.050738 
L 200.748799 179.482953 
L 203.626359 179.482953 
L 205.065139 176.293691 
L 207.942699 182.672215 
L 209.381479 182.672215 
L 210.820259 192.24 
L 213.697819 192.24 
L 215.136599 195.429262 
L 216.575379 195.429262 
L 218.014159 192.24 
L 226.64684 192.24 
L 228.08562 189.050738 
L 229.5244 182.672215 
L 238.15708 182.672215 
L 239.59586 189.050738 
L 245.35098 189.050738 
L 246.78976 182.672215 
L 248.22854 185.861477 
L 249.66732 182.672215 
L 262.61634 182.672215 
L 264.05512 176.293691 
L 265.4939 176.293691 
L 266.93268 179.482953 
L 268.37146 176.293691 
L 269.81024 179.482953 
L 272.6878 179.482953 
L 274.12658 185.861477 
L 275.56536 185.861477 
L 277.00414 189.050738 
L 279.8817 189.050738 
L 281.32048 185.861477 
L 289.95316 185.861477 
L 291.39194 189.050738 
L 295.708281 189.050738 
L 297.147061 185.861477 
L 298.585841 189.050738 
L 301.463401 182.672215 
L 305.779741 182.672215 
L 307.218521 185.861477 
L 308.657301 185.861477 
L 311.534861 192.24 
L 317.289981 192.24 
L 318.728761 185.861477 
L 320.167541 185.861477 
L 323.045101 179.482953 
L 324.483881 179.482953 
L 325.922661 176.293691 
L 327.361441 179.482953 
L 328.800221 185.861477 
L 330.239001 182.672215 
L 333.116561 189.050738 
L 334.555341 185.861477 
L 335.994121 189.050738 
L 337.432901 185.861477 
L 348.943141 185.861477 
L 350.381921 189.050738 
L 353.259481 189.050738 
L 354.698261 192.24 
L 356.137041 189.050738 
L 359.014601 189.050738 
L 360.453381 182.672215 
L 361.892161 182.672215 
L 363.330942 179.482953 
L 364.769722 179.482953 
L 366.208502 182.672215 
L 367.647282 182.672215 
L 369.086062 176.293691 
L 370.524842 179.482953 
L 371.963622 176.293691 
L 374.841182 176.293691 
L 376.279962 169.915168 
L 377.718742 166.725906 
L 379.157522 166.725906 
L 380.596302 160.347383 
L 382.035082 160.347383 
L 384.912642 153.968859 
L 386.351422 160.347383 
L 389.228982 166.725906 
L 390.667762 173.10443 
L 392.106542 169.915168 
L 393.545322 176.293691 
L 394.984102 176.293691 
L 396.422882 173.10443 
L 397.861662 163.536644 
L 399.300442 163.536644 
L 400.739222 160.347383 
L 402.178002 163.536644 
L 403.616782 157.158121 
L 406.494342 163.536644 
L 407.933122 173.10443 
L 409.371902 160.347383 
L 410.810682 163.536644 
L 412.249462 157.158121 
L 413.688242 163.536644 
L 418.004582 163.536644 
L 419.443362 179.482953 
L 420.882142 173.10443 
L 422.320922 173.10443 
L 423.759702 163.536644 
L 425.198482 163.536644 
L 426.637262 150.779597 
L 428.076042 141.211812 
L 429.514822 134.833289 
L 430.953602 134.833289 
L 433.831163 147.590336 
L 435.269943 144.401074 
L 435.269943 144.401074 
" style="fill:none;stroke:#1f77b4;stroke-linecap:round;stroke-width:1.5;"/>
   </g>
   <g id="patch_250">
    <path d="M 63 192.24 
L 453.6 192.24 
" style="fill:none;stroke:#cccccc;stroke-linecap:square;stroke-linejoin:miter;"/>
   </g>
   <g id="text_16">
    <!-- 7-day -->
    <defs>
     <path d="M 14.5 0 
Q 15.671875 7.234375 19.484375 17.390625 
Q 24.03125 29.640625 31.390625 41.71875 
Q 38.765625 53.8125 47.796875 62.5 
L 12.109375 62.5 
L 13.8125 70.609375 
L 59.515625 70.609375 
L 57.859375 62.5 
Q 46.234375 52.296875 37.546875 36.1875 
Q 27.4375 17.578125 23.734375 0 
z
" id="Arial-ItalicMT-55"/>
     <path d="M 4.640625 21.484375 
L 6.5 30.328125 
L 33.453125 30.328125 
L 31.640625 21.484375 
z
" id="Arial-ItalicMT-45"/>
     <path d="M 38.28125 7.515625 
Q 30.71875 -1.171875 22.46875 -1.171875 
Q 15.09375 -1.171875 10.1875 4.265625 
Q 5.28125 9.71875 5.28125 20.0625 
Q 5.28125 29.546875 9.15625 37.375 
Q 13.03125 45.21875 18.859375 49.125 
Q 24.703125 53.03125 30.5625 53.03125 
Q 40.234375 53.03125 45.171875 43.703125 
L 51.03125 71.578125 
L 59.8125 71.578125 
L 44.875 0 
L 36.71875 0 
z
M 14.0625 21.734375 
Q 14.0625 16.3125 15.140625 13.1875 
Q 16.21875 10.0625 18.796875 7.984375 
Q 21.390625 5.90625 25 5.90625 
Q 31 5.90625 35.890625 12.15625 
Q 42.4375 20.453125 42.4375 32.671875 
Q 42.4375 38.8125 39.203125 42.28125 
Q 35.984375 45.75 31.109375 45.75 
Q 27.9375 45.75 25.3125 44.328125 
Q 22.703125 42.921875 20.140625 39.53125 
Q 17.578125 36.140625 15.8125 30.90625 
Q 14.0625 25.6875 14.0625 21.734375 
z
" id="Arial-ItalicMT-100"/>
     <path d="M 38.28125 6.453125 
Q 33.6875 2.484375 29.4375 0.65625 
Q 25.203125 -1.171875 20.359375 -1.171875 
Q 13.1875 -1.171875 8.78125 3.046875 
Q 4.390625 7.28125 4.390625 13.875 
Q 4.390625 18.21875 6.359375 21.5625 
Q 8.34375 24.90625 11.609375 26.921875 
Q 14.890625 28.953125 19.625 29.828125 
Q 22.609375 30.421875 30.9375 30.765625 
Q 39.265625 31.109375 42.875 32.515625 
Q 43.890625 36.140625 43.890625 38.53125 
Q 43.890625 41.609375 41.65625 43.359375 
Q 38.578125 45.796875 32.671875 45.796875 
Q 27.09375 45.796875 23.546875 43.328125 
Q 20.015625 40.875 18.40625 36.328125 
L 9.46875 37.109375 
Q 12.203125 44.828125 18.140625 48.921875 
Q 24.078125 53.03125 33.109375 53.03125 
Q 42.71875 53.03125 48.34375 48.4375 
Q 52.640625 45.015625 52.640625 39.546875 
Q 52.640625 35.40625 51.421875 29.9375 
L 48.53125 17.046875 
Q 47.171875 10.890625 47.171875 7.03125 
Q 47.171875 4.59375 48.25 0 
L 39.3125 0 
Q 38.578125 2.546875 38.28125 6.453125 
z
M 41.546875 26.265625 
Q 39.703125 25.53125 37.578125 25.140625 
Q 35.453125 24.75 30.46875 24.3125 
Q 22.75 23.640625 19.578125 22.578125 
Q 16.40625 21.53125 14.796875 19.234375 
Q 13.1875 16.9375 13.1875 14.15625 
Q 13.1875 10.453125 15.75 8.0625 
Q 18.3125 5.671875 23.046875 5.671875 
Q 27.4375 5.671875 31.484375 7.984375 
Q 35.546875 10.296875 37.890625 14.453125 
Q 40.234375 18.609375 41.546875 26.265625 
z
" id="Arial-ItalicMT-97"/>
     <path d="M 0 -20.015625 
L 0.53125 -11.71875 
Q 3.265625 -12.5 5.859375 -12.5 
Q 8.546875 -12.5 10.203125 -11.28125 
Q 12.359375 -9.671875 14.890625 -5.21875 
L 17.71875 -0.140625 
L 9.078125 51.859375 
L 17.78125 51.859375 
L 21.6875 25.640625 
Q 22.859375 17.875 23.6875 10.109375 
L 46.875 51.859375 
L 56.109375 51.859375 
L 23.046875 -6.890625 
Q 18.265625 -15.484375 14.546875 -18.265625 
Q 10.84375 -21.046875 6 -21.046875 
Q 2.9375 -21.046875 0 -20.015625 
z
" id="Arial-ItalicMT-121"/>
    </defs>
    <g style="fill:#1f77b4;" transform="translate(439.586283 133.707011)scale(0.1 -0.1)">
     <use xlink:href="#Arial-ItalicMT-55"/>
     <use x="55.615234" xlink:href="#Arial-ItalicMT-45"/>
     <use x="88.916016" xlink:href="#Arial-ItalicMT-100"/>
     <use x="144.53125" xlink:href="#Arial-ItalicMT-97"/>
     <use x="200.146484" xlink:href="#Arial-ItalicMT-121"/>
    </g>
    <!-- avg. -->
    <defs>
     <path d="M 16.40625 0 
L 7.90625 51.859375 
L 16.5 51.859375 
L 20.953125 23.296875 
Q 21.6875 18.609375 22.75 8.015625 
Q 25.296875 13.53125 29.25 20.65625 
L 46.578125 51.859375 
L 55.90625 51.859375 
L 26.21875 0 
z
" id="Arial-ItalicMT-118"/>
     <path d="M 2.828125 -4.6875 
L 11.765625 -5.515625 
Q 11.671875 -8.546875 12.5 -10.0625 
Q 13.328125 -11.578125 15.140625 -12.40625 
Q 17.53125 -13.484375 21.34375 -13.484375 
Q 29.34375 -13.484375 32.859375 -9.328125 
Q 35.15625 -6.546875 37.109375 2.78125 
L 37.984375 6.984375 
Q 31.109375 0 23.34375 0 
Q 15.484375 0 10.1875 5.78125 
Q 4.890625 11.578125 4.890625 22.171875 
Q 4.890625 30.90625 9.0625 38.234375 
Q 13.234375 45.5625 18.984375 49.296875 
Q 24.75 53.03125 30.859375 53.03125 
Q 41.0625 53.03125 46.578125 43.359375 
L 48.34375 51.859375 
L 56.453125 51.859375 
L 46 1.8125 
Q 44.28125 -6.453125 41.5 -11.0625 
Q 38.71875 -15.671875 33.765625 -18.203125 
Q 28.8125 -20.75 22.3125 -20.75 
Q 16.0625 -20.75 11.546875 -19.140625 
Q 7.03125 -17.53125 4.8125 -14.421875 
Q 2.59375 -11.328125 2.59375 -7.328125 
Q 2.59375 -6.109375 2.828125 -4.6875 
z
M 13.875 22.953125 
Q 13.875 17.625 14.890625 14.9375 
Q 16.359375 11.1875 19.0625 9.203125 
Q 21.78125 7.234375 25.09375 7.234375 
Q 29.4375 7.234375 33.734375 10.28125 
Q 38.03125 13.328125 40.6875 19.71875 
Q 43.359375 26.125 43.359375 31.9375 
Q 43.359375 38.328125 39.8125 42.109375 
Q 36.28125 45.90625 31.0625 45.90625 
Q 27.828125 45.90625 24.796875 44.171875 
Q 21.78125 42.4375 19.15625 38.890625 
Q 16.546875 35.359375 15.203125 30.421875 
Q 13.875 25.484375 13.875 22.953125 
z
" id="Arial-ItalicMT-103"/>
     <path d="M 5.765625 0 
L 7.859375 10.015625 
L 17.875 10.015625 
L 15.71875 0 
z
" id="Arial-ItalicMT-46"/>
    </defs>
    <g style="fill:#1f77b4;" transform="translate(439.586283 144.401074)scale(0.1 -0.1)">
     <use xlink:href="#Arial-ItalicMT-97"/>
     <use x="55.615234" xlink:href="#Arial-ItalicMT-118"/>
     <use x="105.615234" xlink:href="#Arial-ItalicMT-103"/>
     <use x="161.230469" xlink:href="#Arial-ItalicMT-46"/>
    </g>
   </g>
  </g>
 </g>
 <defs>
  <clipPath id="pc893eae517">
   <rect height="166.32" width="390.6" x="63" y="25.92"/>
  </clipPath>
 </defs>
</svg>
