<?xml version="1.0" encoding="utf-8" standalone="no"?>
<!DOCTYPE svg PUBLIC "-//W3C//DTD SVG 1.1//EN"
  "http://www.w3.org/Graphics/SVG/1.1/DTD/svg11.dtd">
<!-- Created with matplotlib (https://matplotlib.org/) -->
<svg height="216pt" version="1.1" viewBox="0 0 504 216" width="504pt" xmlns="http://www.w3.org/2000/svg" xmlns:xlink="http://www.w3.org/1999/xlink">
 <defs>
  <style type="text/css">
*{stroke-linecap:butt;stroke-linejoin:round;}
  </style>
 </defs>
 <g id="figure_1">
  <g id="patch_1">
   <path d="M 0 216 
L 504 216 
L 504 0 
L 0 0 
z
" style="fill:#ffffff;"/>
  </g>
  <g id="axes_1">
   <g id="patch_2">
    <path d="M 63 192.24 
L 453.6 192.24 
L 453.6 25.92 
L 63 25.92 
z
" style="fill:#ffffff;"/>
   </g>
   <g id="matplotlib.axis_1">
    <g id="xtick_1">
     <g id="line2d_1"/>
     <g id="text_1">
      <!-- Apr -->
      <defs>
       <path d="M 34.1875 63.1875 
L 20.796875 26.90625 
L 47.609375 26.90625 
z
M 28.609375 72.90625 
L 39.796875 72.90625 
L 67.578125 0 
L 57.328125 0 
L 50.6875 18.703125 
L 17.828125 18.703125 
L 11.1875 0 
L 0.78125 0 
z
" id="DejaVuSans-65"/>
       <path d="M 18.109375 8.203125 
L 18.109375 -20.796875 
L 9.078125 -20.796875 
L 9.078125 54.6875 
L 18.109375 54.6875 
L 18.109375 46.390625 
Q 20.953125 51.265625 25.265625 53.625 
Q 29.59375 56 35.59375 56 
Q 45.5625 56 51.78125 48.09375 
Q 58.015625 40.1875 58.015625 27.296875 
Q 58.015625 14.40625 51.78125 6.484375 
Q 45.5625 -1.421875 35.59375 -1.421875 
Q 29.59375 -1.421875 25.265625 0.953125 
Q 20.953125 3.328125 18.109375 8.203125 
z
M 48.6875 27.296875 
Q 48.6875 37.203125 44.609375 42.84375 
Q 40.53125 48.484375 33.40625 48.484375 
Q 26.265625 48.484375 22.1875 42.84375 
Q 18.109375 37.203125 18.109375 27.296875 
Q 18.109375 17.390625 22.1875 11.75 
Q 26.265625 6.109375 33.40625 6.109375 
Q 40.53125 6.109375 44.609375 11.75 
Q 48.6875 17.390625 48.6875 27.296875 
z
" id="DejaVuSans-112"/>
       <path d="M 41.109375 46.296875 
Q 39.59375 47.171875 37.8125 47.578125 
Q 36.03125 48 33.890625 48 
Q 26.265625 48 22.1875 43.046875 
Q 18.109375 38.09375 18.109375 28.8125 
L 18.109375 0 
L 9.078125 0 
L 9.078125 54.6875 
L 18.109375 54.6875 
L 18.109375 46.1875 
Q 20.953125 51.171875 25.484375 53.578125 
Q 30.03125 56 36.53125 56 
Q 37.453125 56 38.578125 55.875 
Q 39.703125 55.765625 41.0625 55.515625 
z
" id="DejaVuSans-114"/>
      </defs>
      <g style="fill:#871f78;" transform="translate(97.241168 203.338437)scale(0.1 -0.1)">
       <use xlink:href="#DejaVuSans-65"/>
       <use x="68.408203" xlink:href="#DejaVuSans-112"/>
       <use x="131.884766" xlink:href="#DejaVuSans-114"/>
      </g>
     </g>
    </g>
    <g id="xtick_2">
     <g id="line2d_2"/>
     <g id="text_2">
      <!-- May -->
      <defs>
       <path d="M 9.8125 72.90625 
L 24.515625 72.90625 
L 43.109375 23.296875 
L 61.8125 72.90625 
L 76.515625 72.90625 
L 76.515625 0 
L 66.890625 0 
L 66.890625 64.015625 
L 48.09375 14.015625 
L 38.1875 14.015625 
L 19.390625 64.015625 
L 19.390625 0 
L 9.8125 0 
z
" id="DejaVuSans-77"/>
       <path d="M 34.28125 27.484375 
Q 23.390625 27.484375 19.1875 25 
Q 14.984375 22.515625 14.984375 16.5 
Q 14.984375 11.71875 18.140625 8.90625 
Q 21.296875 6.109375 26.703125 6.109375 
Q 34.1875 6.109375 38.703125 11.40625 
Q 43.21875 16.703125 43.21875 25.484375 
L 43.21875 27.484375 
z
M 52.203125 31.203125 
L 52.203125 0 
L 43.21875 0 
L 43.21875 8.296875 
Q 40.140625 3.328125 35.546875 0.953125 
Q 30.953125 -1.421875 24.3125 -1.421875 
Q 15.921875 -1.421875 10.953125 3.296875 
Q 6 8.015625 6 15.921875 
Q 6 25.140625 12.171875 29.828125 
Q 18.359375 34.515625 30.609375 34.515625 
L 43.21875 34.515625 
L 43.21875 35.40625 
Q 43.21875 41.609375 39.140625 45 
Q 35.0625 48.390625 27.6875 48.390625 
Q 23 48.390625 18.546875 47.265625 
Q 14.109375 46.140625 10.015625 43.890625 
L 10.015625 52.203125 
Q 14.9375 54.109375 19.578125 55.046875 
Q 24.21875 56 28.609375 56 
Q 40.484375 56 46.34375 49.84375 
Q 52.203125 43.703125 52.203125 31.203125 
z
" id="DejaVuSans-97"/>
       <path d="M 32.171875 -5.078125 
Q 28.375 -14.84375 24.75 -17.8125 
Q 21.140625 -20.796875 15.09375 -20.796875 
L 7.90625 -20.796875 
L 7.90625 -13.28125 
L 13.1875 -13.28125 
Q 16.890625 -13.28125 18.9375 -11.515625 
Q 21 -9.765625 23.484375 -3.21875 
L 25.09375 0.875 
L 2.984375 54.6875 
L 12.5 54.6875 
L 29.59375 11.921875 
L 46.6875 54.6875 
L 56.203125 54.6875 
z
" id="DejaVuSans-121"/>
      </defs>
      <g style="fill:#871f78;" transform="translate(138.892672 203.338437)scale(0.1 -0.1)">
       <use xlink:href="#DejaVuSans-77"/>
       <use x="86.279297" xlink:href="#DejaVuSans-97"/>
       <use x="147.558594" xlink:href="#DejaVuSans-121"/>
      </g>
     </g>
    </g>
    <g id="xtick_3">
     <g id="line2d_3"/>
     <g id="text_3">
      <!-- Jun -->
      <defs>
       <path d="M 9.8125 72.90625 
L 19.671875 72.90625 
L 19.671875 5.078125 
Q 19.671875 -8.109375 14.671875 -14.0625 
Q 9.671875 -20.015625 -1.421875 -20.015625 
L -5.171875 -20.015625 
L -5.171875 -11.71875 
L -2.09375 -11.71875 
Q 4.4375 -11.71875 7.125 -8.046875 
Q 9.8125 -4.390625 9.8125 5.078125 
z
" id="DejaVuSans-74"/>
       <path d="M 8.5 21.578125 
L 8.5 54.6875 
L 17.484375 54.6875 
L 17.484375 21.921875 
Q 17.484375 14.15625 20.5 10.265625 
Q 23.53125 6.390625 29.59375 6.390625 
Q 36.859375 6.390625 41.078125 11.03125 
Q 45.3125 15.671875 45.3125 23.6875 
L 45.3125 54.6875 
L 54.296875 54.6875 
L 54.296875 0 
L 45.3125 0 
L 45.3125 8.40625 
Q 42.046875 3.421875 37.71875 1 
Q 33.40625 -1.421875 27.6875 -1.421875 
Q 18.265625 -1.421875 13.375 4.4375 
Q 8.5 10.296875 8.5 21.578125 
z
M 31.109375 56 
z
" id="DejaVuSans-117"/>
       <path d="M 54.890625 33.015625 
L 54.890625 0 
L 45.90625 0 
L 45.90625 32.71875 
Q 45.90625 40.484375 42.875 44.328125 
Q 39.84375 48.1875 33.796875 48.1875 
Q 26.515625 48.1875 22.3125 43.546875 
Q 18.109375 38.921875 18.109375 30.90625 
L 18.109375 0 
L 9.078125 0 
L 9.078125 54.6875 
L 18.109375 54.6875 
L 18.109375 46.1875 
Q 21.34375 51.125 25.703125 53.5625 
Q 30.078125 56 35.796875 56 
Q 45.21875 56 50.046875 50.171875 
Q 54.890625 44.34375 54.890625 33.015625 
z
" id="DejaVuSans-110"/>
      </defs>
      <g style="fill:#871f78;" transform="translate(186.20131 203.338437)scale(0.1 -0.1)">
       <use xlink:href="#DejaVuSans-74"/>
       <use x="29.492188" xlink:href="#DejaVuSans-117"/>
       <use x="92.871094" xlink:href="#DejaVuSans-110"/>
      </g>
     </g>
    </g>
    <g id="xtick_4">
     <g id="line2d_4"/>
     <g id="text_4">
      <!-- Jul -->
      <defs>
       <path d="M 9.421875 75.984375 
L 18.40625 75.984375 
L 18.40625 0 
L 9.421875 0 
z
" id="DejaVuSans-108"/>
      </defs>
      <g style="fill:#871f78;" transform="translate(231.320002 203.338437)scale(0.1 -0.1)">
       <use xlink:href="#DejaVuSans-74"/>
       <use x="29.492188" xlink:href="#DejaVuSans-117"/>
       <use x="92.871094" xlink:href="#DejaVuSans-108"/>
      </g>
     </g>
    </g>
    <g id="xtick_5">
     <g id="line2d_5"/>
     <g id="text_5">
      <!-- Aug -->
      <defs>
       <path d="M 45.40625 27.984375 
Q 45.40625 37.75 41.375 43.109375 
Q 37.359375 48.484375 30.078125 48.484375 
Q 22.859375 48.484375 18.828125 43.109375 
Q 14.796875 37.75 14.796875 27.984375 
Q 14.796875 18.265625 18.828125 12.890625 
Q 22.859375 7.515625 30.078125 7.515625 
Q 37.359375 7.515625 41.375 12.890625 
Q 45.40625 18.265625 45.40625 27.984375 
z
M 54.390625 6.78125 
Q 54.390625 -7.171875 48.1875 -13.984375 
Q 42 -20.796875 29.203125 -20.796875 
Q 24.46875 -20.796875 20.265625 -20.09375 
Q 16.0625 -19.390625 12.109375 -17.921875 
L 12.109375 -9.1875 
Q 16.0625 -11.328125 19.921875 -12.34375 
Q 23.78125 -13.375 27.78125 -13.375 
Q 36.625 -13.375 41.015625 -8.765625 
Q 45.40625 -4.15625 45.40625 5.171875 
L 45.40625 9.625 
Q 42.625 4.78125 38.28125 2.390625 
Q 33.9375 0 27.875 0 
Q 17.828125 0 11.671875 7.65625 
Q 5.515625 15.328125 5.515625 27.984375 
Q 5.515625 40.671875 11.671875 48.328125 
Q 17.828125 56 27.875 56 
Q 33.9375 56 38.28125 53.609375 
Q 42.625 51.21875 45.40625 46.390625 
L 45.40625 54.6875 
L 54.390625 54.6875 
z
" id="DejaVuSans-103"/>
      </defs>
      <g style="fill:#871f78;" transform="translate(272.373171 203.338437)scale(0.1 -0.1)">
       <use xlink:href="#DejaVuSans-65"/>
       <use x="68.408203" xlink:href="#DejaVuSans-117"/>
       <use x="131.787109" xlink:href="#DejaVuSans-103"/>
      </g>
     </g>
    </g>
    <g id="xtick_6">
     <g id="line2d_6"/>
     <g id="text_6">
      <!-- Sep -->
      <defs>
       <path d="M 53.515625 70.515625 
L 53.515625 60.890625 
Q 47.90625 63.578125 42.921875 64.890625 
Q 37.9375 66.21875 33.296875 66.21875 
Q 25.25 66.21875 20.875 63.09375 
Q 16.5 59.96875 16.5 54.203125 
Q 16.5 49.359375 19.40625 46.890625 
Q 22.3125 44.4375 30.421875 42.921875 
L 36.375 41.703125 
Q 47.40625 39.59375 52.65625 34.296875 
Q 57.90625 29 57.90625 20.125 
Q 57.90625 9.515625 50.796875 4.046875 
Q 43.703125 -1.421875 29.984375 -1.421875 
Q 24.8125 -1.421875 18.96875 -0.25 
Q 13.140625 0.921875 6.890625 3.21875 
L 6.890625 13.375 
Q 12.890625 10.015625 18.65625 8.296875 
Q 24.421875 6.59375 29.984375 6.59375 
Q 38.421875 6.59375 43.015625 9.90625 
Q 47.609375 13.234375 47.609375 19.390625 
Q 47.609375 24.75 44.3125 27.78125 
Q 41.015625 30.8125 33.5 32.328125 
L 27.484375 33.5 
Q 16.453125 35.6875 11.515625 40.375 
Q 6.59375 45.0625 6.59375 53.421875 
Q 6.59375 63.09375 13.40625 68.65625 
Q 20.21875 74.21875 32.171875 74.21875 
Q 37.3125 74.21875 42.625 73.28125 
Q 47.953125 72.359375 53.515625 70.515625 
z
" id="DejaVuSans-83"/>
       <path d="M 56.203125 29.59375 
L 56.203125 25.203125 
L 14.890625 25.203125 
Q 15.484375 15.921875 20.484375 11.0625 
Q 25.484375 6.203125 34.421875 6.203125 
Q 39.59375 6.203125 44.453125 7.46875 
Q 49.3125 8.734375 54.109375 11.28125 
L 54.109375 2.78125 
Q 49.265625 0.734375 44.1875 -0.34375 
Q 39.109375 -1.421875 33.890625 -1.421875 
Q 20.796875 -1.421875 13.15625 6.1875 
Q 5.515625 13.8125 5.515625 26.8125 
Q 5.515625 40.234375 12.765625 48.109375 
Q 20.015625 56 32.328125 56 
Q 43.359375 56 49.78125 48.890625 
Q 56.203125 41.796875 56.203125 29.59375 
z
M 47.21875 32.234375 
Q 47.125 39.59375 43.09375 43.984375 
Q 39.0625 48.390625 32.421875 48.390625 
Q 24.90625 48.390625 20.390625 44.140625 
Q 15.875 39.890625 15.1875 32.171875 
z
" id="DejaVuSans-101"/>
      </defs>
      <g style="fill:#871f78;" transform="translate(317.49509 203.338437)scale(0.1 -0.1)">
       <use xlink:href="#DejaVuSans-83"/>
       <use x="63.476562" xlink:href="#DejaVuSans-101"/>
       <use x="125" xlink:href="#DejaVuSans-112"/>
      </g>
     </g>
    </g>
    <g id="xtick_7">
     <g id="line2d_7"/>
     <g id="text_7">
      <!-- Oct -->
      <defs>
       <path d="M 39.40625 66.21875 
Q 28.65625 66.21875 22.328125 58.203125 
Q 16.015625 50.203125 16.015625 36.375 
Q 16.015625 22.609375 22.328125 14.59375 
Q 28.65625 6.59375 39.40625 6.59375 
Q 50.140625 6.59375 56.421875 14.59375 
Q 62.703125 22.609375 62.703125 36.375 
Q 62.703125 50.203125 56.421875 58.203125 
Q 50.140625 66.21875 39.40625 66.21875 
z
M 39.40625 74.21875 
Q 54.734375 74.21875 63.90625 63.9375 
Q 73.09375 53.65625 73.09375 36.375 
Q 73.09375 19.140625 63.90625 8.859375 
Q 54.734375 -1.421875 39.40625 -1.421875 
Q 24.03125 -1.421875 14.8125 8.828125 
Q 5.609375 19.09375 5.609375 36.375 
Q 5.609375 53.65625 14.8125 63.9375 
Q 24.03125 74.21875 39.40625 74.21875 
z
" id="DejaVuSans-79"/>
       <path d="M 48.78125 52.59375 
L 48.78125 44.1875 
Q 44.96875 46.296875 41.140625 47.34375 
Q 37.3125 48.390625 33.40625 48.390625 
Q 24.65625 48.390625 19.8125 42.84375 
Q 14.984375 37.3125 14.984375 27.296875 
Q 14.984375 17.28125 19.8125 11.734375 
Q 24.65625 6.203125 33.40625 6.203125 
Q 37.3125 6.203125 41.140625 7.25 
Q 44.96875 8.296875 48.78125 10.40625 
L 48.78125 2.09375 
Q 45.015625 0.34375 40.984375 -0.53125 
Q 36.96875 -1.421875 32.421875 -1.421875 
Q 20.0625 -1.421875 12.78125 6.34375 
Q 5.515625 14.109375 5.515625 27.296875 
Q 5.515625 40.671875 12.859375 48.328125 
Q 20.21875 56 33.015625 56 
Q 37.15625 56 41.109375 55.140625 
Q 45.0625 54.296875 48.78125 52.59375 
z
" id="DejaVuSans-99"/>
       <path d="M 18.3125 70.21875 
L 18.3125 54.6875 
L 36.8125 54.6875 
L 36.8125 47.703125 
L 18.3125 47.703125 
L 18.3125 18.015625 
Q 18.3125 11.328125 20.140625 9.421875 
Q 21.96875 7.515625 27.59375 7.515625 
L 36.8125 7.515625 
L 36.8125 0 
L 27.59375 0 
Q 17.1875 0 13.234375 3.875 
Q 9.28125 7.765625 9.28125 18.015625 
L 9.28125 47.703125 
L 2.6875 47.703125 
L 2.6875 54.6875 
L 9.28125 54.6875 
L 9.28125 70.21875 
z
" id="DejaVuSans-116"/>
      </defs>
      <g style="fill:#871f78;" transform="translate(361.613782 203.338437)scale(0.1 -0.1)">
       <use xlink:href="#DejaVuSans-79"/>
       <use x="78.710938" xlink:href="#DejaVuSans-99"/>
       <use x="133.691406" xlink:href="#DejaVuSans-116"/>
      </g>
     </g>
    </g>
    <g id="xtick_8">
     <g id="line2d_8"/>
     <g id="text_8">
      <!-- Nov -->
      <defs>
       <path d="M 9.8125 72.90625 
L 23.09375 72.90625 
L 55.421875 11.921875 
L 55.421875 72.90625 
L 64.984375 72.90625 
L 64.984375 0 
L 51.703125 0 
L 19.390625 60.984375 
L 19.390625 0 
L 9.8125 0 
z
" id="DejaVuSans-78"/>
       <path d="M 30.609375 48.390625 
Q 23.390625 48.390625 19.1875 42.75 
Q 14.984375 37.109375 14.984375 27.296875 
Q 14.984375 17.484375 19.15625 11.84375 
Q 23.34375 6.203125 30.609375 6.203125 
Q 37.796875 6.203125 41.984375 11.859375 
Q 46.1875 17.53125 46.1875 27.296875 
Q 46.1875 37.015625 41.984375 42.703125 
Q 37.796875 48.390625 30.609375 48.390625 
z
M 30.609375 56 
Q 42.328125 56 49.015625 48.375 
Q 55.71875 40.765625 55.71875 27.296875 
Q 55.71875 13.875 49.015625 6.21875 
Q 42.328125 -1.421875 30.609375 -1.421875 
Q 18.84375 -1.421875 12.171875 6.21875 
Q 5.515625 13.875 5.515625 27.296875 
Q 5.515625 40.765625 12.171875 48.375 
Q 18.84375 56 30.609375 56 
z
" id="DejaVuSans-111"/>
       <path d="M 2.984375 54.6875 
L 12.5 54.6875 
L 29.59375 8.796875 
L 46.6875 54.6875 
L 56.203125 54.6875 
L 35.6875 0 
L 23.484375 0 
z
" id="DejaVuSans-118"/>
      </defs>
      <g style="fill:#871f78;" transform="translate(405.283357 203.338437)scale(0.1 -0.1)">
       <use xlink:href="#DejaVuSans-78"/>
       <use x="74.804688" xlink:href="#DejaVuSans-111"/>
       <use x="135.986328" xlink:href="#DejaVuSans-118"/>
      </g>
     </g>
    </g>
   </g>
   <g id="matplotlib.axis_2">
    <g id="ytick_1">
     <g id="line2d_9">
      <path clip-path="url(#paabeb089f6)" d="M 63 192.24 
L 453.6 192.24 
" style="fill:none;stroke:#cccccc;stroke-linecap:round;stroke-width:0.8;"/>
     </g>
     <g id="line2d_10"/>
     <g id="text_9">
      <!-- 0 -->
      <defs>
       <path d="M 31.78125 66.40625 
Q 24.171875 66.40625 20.328125 58.90625 
Q 16.5 51.421875 16.5 36.375 
Q 16.5 21.390625 20.328125 13.890625 
Q 24.171875 6.390625 31.78125 6.390625 
Q 39.453125 6.390625 43.28125 13.890625 
Q 47.125 21.390625 47.125 36.375 
Q 47.125 51.421875 43.28125 58.90625 
Q 39.453125 66.40625 31.78125 66.40625 
z
M 31.78125 74.21875 
Q 44.046875 74.21875 50.515625 64.515625 
Q 56.984375 54.828125 56.984375 36.375 
Q 56.984375 17.96875 50.515625 8.265625 
Q 44.046875 -1.421875 31.78125 -1.421875 
Q 19.53125 -1.421875 13.0625 8.265625 
Q 6.59375 17.96875 6.59375 36.375 
Q 6.59375 54.828125 13.0625 64.515625 
Q 19.53125 74.21875 31.78125 74.21875 
z
" id="DejaVuSans-48"/>
      </defs>
      <g style="fill:#871f78;" transform="translate(53.1375 196.039219)scale(0.1 -0.1)">
       <use xlink:href="#DejaVuSans-48"/>
      </g>
     </g>
    </g>
    <g id="ytick_2">
     <g id="line2d_11">
      <path clip-path="url(#paabeb089f6)" d="M 63 164.52 
L 453.6 164.52 
" style="fill:none;stroke:#cccccc;stroke-linecap:round;stroke-width:0.8;"/>
     </g>
     <g id="line2d_12"/>
     <g id="text_10">
      <!-- 5 -->
      <defs>
       <path d="M 10.796875 72.90625 
L 49.515625 72.90625 
L 49.515625 64.59375 
L 19.828125 64.59375 
L 19.828125 46.734375 
Q 21.96875 47.46875 24.109375 47.828125 
Q 26.265625 48.1875 28.421875 48.1875 
Q 40.625 48.1875 47.75 41.5 
Q 54.890625 34.8125 54.890625 23.390625 
Q 54.890625 11.625 47.5625 5.09375 
Q 40.234375 -1.421875 26.90625 -1.421875 
Q 22.3125 -1.421875 17.546875 -0.640625 
Q 12.796875 0.140625 7.71875 1.703125 
L 7.71875 11.625 
Q 12.109375 9.234375 16.796875 8.0625 
Q 21.484375 6.890625 26.703125 6.890625 
Q 35.15625 6.890625 40.078125 11.328125 
Q 45.015625 15.765625 45.015625 23.390625 
Q 45.015625 31 40.078125 35.4375 
Q 35.15625 39.890625 26.703125 39.890625 
Q 22.75 39.890625 18.8125 39.015625 
Q 14.890625 38.140625 10.796875 36.28125 
z
" id="DejaVuSans-53"/>
      </defs>
      <g style="fill:#871f78;" transform="translate(53.1375 168.319219)scale(0.1 -0.1)">
       <use xlink:href="#DejaVuSans-53"/>
      </g>
     </g>
    </g>
    <g id="ytick_3">
     <g id="line2d_13">
      <path clip-path="url(#paabeb089f6)" d="M 63 136.8 
L 453.6 136.8 
" style="fill:none;stroke:#cccccc;stroke-linecap:round;stroke-width:0.8;"/>
     </g>
     <g id="line2d_14"/>
     <g id="text_11">
      <!-- 10 -->
      <defs>
       <path d="M 12.40625 8.296875 
L 28.515625 8.296875 
L 28.515625 63.921875 
L 10.984375 60.40625 
L 10.984375 69.390625 
L 28.421875 72.90625 
L 38.28125 72.90625 
L 38.28125 8.296875 
L 54.390625 8.296875 
L 54.390625 0 
L 12.40625 0 
z
" id="DejaVuSans-49"/>
      </defs>
      <g style="fill:#871f78;" transform="translate(46.775 140.599219)scale(0.1 -0.1)">
       <use xlink:href="#DejaVuSans-49"/>
       <use x="63.623047" xlink:href="#DejaVuSans-48"/>
      </g>
     </g>
    </g>
    <g id="ytick_4">
     <g id="line2d_15">
      <path clip-path="url(#paabeb089f6)" d="M 63 109.08 
L 453.6 109.08 
" style="fill:none;stroke:#cccccc;stroke-linecap:round;stroke-width:0.8;"/>
     </g>
     <g id="line2d_16"/>
     <g id="text_12">
      <!-- 15 -->
      <g style="fill:#871f78;" transform="translate(46.775 112.879219)scale(0.1 -0.1)">
       <use xlink:href="#DejaVuSans-49"/>
       <use x="63.623047" xlink:href="#DejaVuSans-53"/>
      </g>
     </g>
    </g>
    <g id="ytick_5">
     <g id="line2d_17">
      <path clip-path="url(#paabeb089f6)" d="M 63 81.36 
L 453.6 81.36 
" style="fill:none;stroke:#cccccc;stroke-linecap:round;stroke-width:0.8;"/>
     </g>
     <g id="line2d_18"/>
     <g id="text_13">
      <!-- 20 -->
      <defs>
       <path d="M 19.1875 8.296875 
L 53.609375 8.296875 
L 53.609375 0 
L 7.328125 0 
L 7.328125 8.296875 
Q 12.9375 14.109375 22.625 23.890625 
Q 32.328125 33.6875 34.8125 36.53125 
Q 39.546875 41.84375 41.421875 45.53125 
Q 43.3125 49.21875 43.3125 52.78125 
Q 43.3125 58.59375 39.234375 62.25 
Q 35.15625 65.921875 28.609375 65.921875 
Q 23.96875 65.921875 18.8125 64.3125 
Q 13.671875 62.703125 7.8125 59.421875 
L 7.8125 69.390625 
Q 13.765625 71.78125 18.9375 73 
Q 24.125 74.21875 28.421875 74.21875 
Q 39.75 74.21875 46.484375 68.546875 
Q 53.21875 62.890625 53.21875 53.421875 
Q 53.21875 48.921875 51.53125 44.890625 
Q 49.859375 40.875 45.40625 35.40625 
Q 44.1875 33.984375 37.640625 27.21875 
Q 31.109375 20.453125 19.1875 8.296875 
z
" id="DejaVuSans-50"/>
      </defs>
      <g style="fill:#871f78;" transform="translate(46.775 85.159219)scale(0.1 -0.1)">
       <use xlink:href="#DejaVuSans-50"/>
       <use x="63.623047" xlink:href="#DejaVuSans-48"/>
      </g>
     </g>
    </g>
    <g id="ytick_6">
     <g id="line2d_19">
      <path clip-path="url(#paabeb089f6)" d="M 63 53.64 
L 453.6 53.64 
" style="fill:none;stroke:#cccccc;stroke-linecap:round;stroke-width:0.8;"/>
     </g>
     <g id="line2d_20"/>
     <g id="text_14">
      <!-- 25 -->
      <g style="fill:#871f78;" transform="translate(46.775 57.439219)scale(0.1 -0.1)">
       <use xlink:href="#DejaVuSans-50"/>
       <use x="63.623047" xlink:href="#DejaVuSans-53"/>
      </g>
     </g>
    </g>
    <g id="ytick_7">
     <g id="line2d_21">
      <path clip-path="url(#paabeb089f6)" d="M 63 25.92 
L 453.6 25.92 
" style="fill:none;stroke:#cccccc;stroke-linecap:round;stroke-width:0.8;"/>
     </g>
     <g id="line2d_22"/>
     <g id="text_15">
      <!-- 30 -->
      <defs>
       <path d="M 40.578125 39.3125 
Q 47.65625 37.796875 51.625 33 
Q 55.609375 28.21875 55.609375 21.1875 
Q 55.609375 10.40625 48.1875 4.484375 
Q 40.765625 -1.421875 27.09375 -1.421875 
Q 22.515625 -1.421875 17.65625 -0.515625 
Q 12.796875 0.390625 7.625 2.203125 
L 7.625 11.71875 
Q 11.71875 9.328125 16.59375 8.109375 
Q 21.484375 6.890625 26.8125 6.890625 
Q 36.078125 6.890625 40.9375 10.546875 
Q 45.796875 14.203125 45.796875 21.1875 
Q 45.796875 27.640625 41.28125 31.265625 
Q 36.765625 34.90625 28.71875 34.90625 
L 20.21875 34.90625 
L 20.21875 43.015625 
L 29.109375 43.015625 
Q 36.375 43.015625 40.234375 45.921875 
Q 44.09375 48.828125 44.09375 54.296875 
Q 44.09375 59.90625 40.109375 62.90625 
Q 36.140625 65.921875 28.71875 65.921875 
Q 24.65625 65.921875 20.015625 65.03125 
Q 15.375 64.15625 9.8125 62.3125 
L 9.8125 71.09375 
Q 15.4375 72.65625 20.34375 73.4375 
Q 25.25 74.21875 29.59375 74.21875 
Q 40.828125 74.21875 47.359375 69.109375 
Q 53.90625 64.015625 53.90625 55.328125 
Q 53.90625 49.265625 50.4375 45.09375 
Q 46.96875 40.921875 40.578125 39.3125 
z
" id="DejaVuSans-51"/>
      </defs>
      <g style="fill:#871f78;" transform="translate(46.775 29.719219)scale(0.1 -0.1)">
       <use xlink:href="#DejaVuSans-51"/>
       <use x="63.623047" xlink:href="#DejaVuSans-48"/>
      </g>
     </g>
    </g>
   </g>
   <g id="patch_3">
    <path clip-path="url(#paabeb089f6)" d="M 80.754545 192.24 
L 81.910252 192.24 
L 81.910252 182.17135 
L 80.754545 182.17135 
z
" style="fill:#871f78;opacity:0.35;"/>
   </g>
   <g id="patch_4">
    <path clip-path="url(#paabeb089f6)" d="M 82.199179 192.24 
L 83.354886 192.24 
L 83.354886 192.24 
L 82.199179 192.24 
z
" style="fill:#871f78;opacity:0.35;"/>
   </g>
   <g id="patch_5">
    <path clip-path="url(#paabeb089f6)" d="M 83.643812 192.24 
L 84.799519 192.24 
L 84.799519 192.24 
L 83.643812 192.24 
z
" style="fill:#871f78;opacity:0.35;"/>
   </g>
   <g id="patch_6">
    <path clip-path="url(#paabeb089f6)" d="M 85.088446 192.24 
L 86.244153 192.24 
L 86.244153 192.24 
L 85.088446 192.24 
z
" style="fill:#871f78;opacity:0.35;"/>
   </g>
   <g id="patch_7">
    <path clip-path="url(#paabeb089f6)" d="M 86.533079 192.24 
L 87.688786 192.24 
L 87.688786 192.24 
L 86.533079 192.24 
z
" style="fill:#871f78;opacity:0.35;"/>
   </g>
   <g id="patch_8">
    <path clip-path="url(#paabeb089f6)" d="M 87.977713 192.24 
L 89.13342 192.24 
L 89.13342 162.03405 
L 87.977713 162.03405 
z
" style="fill:#871f78;opacity:0.35;"/>
   </g>
   <g id="patch_9">
    <path clip-path="url(#paabeb089f6)" d="M 89.422346 192.24 
L 90.578053 192.24 
L 90.578053 172.1027 
L 89.422346 172.1027 
z
" style="fill:#871f78;opacity:0.35;"/>
   </g>
   <g id="patch_10">
    <path clip-path="url(#paabeb089f6)" d="M 90.86698 192.24 
L 92.022687 192.24 
L 92.022687 192.24 
L 90.86698 192.24 
z
" style="fill:#871f78;opacity:0.35;"/>
   </g>
   <g id="patch_11">
    <path clip-path="url(#paabeb089f6)" d="M 92.311613 192.24 
L 93.46732 192.24 
L 93.46732 192.24 
L 92.311613 192.24 
z
" style="fill:#871f78;opacity:0.35;"/>
   </g>
   <g id="patch_12">
    <path clip-path="url(#paabeb089f6)" d="M 93.756247 192.24 
L 94.911954 192.24 
L 94.911954 121.759451 
L 93.756247 121.759451 
z
" style="fill:#871f78;opacity:0.35;"/>
   </g>
   <g id="patch_13">
    <path clip-path="url(#paabeb089f6)" d="M 95.20088 192.24 
L 96.356587 192.24 
L 96.356587 172.1027 
L 95.20088 172.1027 
z
" style="fill:#871f78;opacity:0.35;"/>
   </g>
   <g id="patch_14">
    <path clip-path="url(#paabeb089f6)" d="M 96.645514 192.24 
L 97.801221 192.24 
L 97.801221 192.24 
L 96.645514 192.24 
z
" style="fill:#871f78;opacity:0.35;"/>
   </g>
   <g id="patch_15">
    <path clip-path="url(#paabeb089f6)" d="M 98.090147 192.24 
L 99.245854 192.24 
L 99.245854 182.17135 
L 98.090147 182.17135 
z
" style="fill:#871f78;opacity:0.35;"/>
   </g>
   <g id="patch_16">
    <path clip-path="url(#paabeb089f6)" d="M 99.534781 192.24 
L 100.690487 192.24 
L 100.690487 192.24 
L 99.534781 192.24 
z
" style="fill:#871f78;opacity:0.35;"/>
   </g>
   <g id="patch_17">
    <path clip-path="url(#paabeb089f6)" d="M 100.979414 192.24 
L 102.135121 192.24 
L 102.135121 192.24 
L 100.979414 192.24 
z
" style="fill:#871f78;opacity:0.35;"/>
   </g>
   <g id="patch_18">
    <path clip-path="url(#paabeb089f6)" d="M 102.424048 192.24 
L 103.579754 192.24 
L 103.579754 192.24 
L 102.424048 192.24 
z
" style="fill:#871f78;opacity:0.35;"/>
   </g>
   <g id="patch_19">
    <path clip-path="url(#paabeb089f6)" d="M 103.868681 192.24 
L 105.024388 192.24 
L 105.024388 192.24 
L 103.868681 192.24 
z
" style="fill:#871f78;opacity:0.35;"/>
   </g>
   <g id="patch_20">
    <path clip-path="url(#paabeb089f6)" d="M 105.313315 192.24 
L 106.469021 192.24 
L 106.469021 192.24 
L 105.313315 192.24 
z
" style="fill:#871f78;opacity:0.35;"/>
   </g>
   <g id="patch_21">
    <path clip-path="url(#paabeb089f6)" d="M 106.757948 192.24 
L 107.913655 192.24 
L 107.913655 172.1027 
L 106.757948 172.1027 
z
" style="fill:#871f78;opacity:0.35;"/>
   </g>
   <g id="patch_22">
    <path clip-path="url(#paabeb089f6)" d="M 108.202582 192.24 
L 109.358288 192.24 
L 109.358288 192.24 
L 108.202582 192.24 
z
" style="fill:#871f78;opacity:0.35;"/>
   </g>
   <g id="patch_23">
    <path clip-path="url(#paabeb089f6)" d="M 109.647215 192.24 
L 110.802922 192.24 
L 110.802922 151.9654 
L 109.647215 151.9654 
z
" style="fill:#871f78;opacity:0.35;"/>
   </g>
   <g id="patch_24">
    <path clip-path="url(#paabeb089f6)" d="M 111.091849 192.24 
L 112.247555 192.24 
L 112.247555 212.3773 
L 111.091849 212.3773 
z
" style="fill:#871f78;opacity:0.35;"/>
   </g>
   <g id="patch_25">
    <path clip-path="url(#paabeb089f6)" d="M 112.536482 192.24 
L 113.692189 192.24 
L 113.692189 192.24 
L 112.536482 192.24 
z
" style="fill:#871f78;opacity:0.35;"/>
   </g>
   <g id="patch_26">
    <path clip-path="url(#paabeb089f6)" d="M 113.981115 192.24 
L 115.136822 192.24 
L 115.136822 172.1027 
L 113.981115 172.1027 
z
" style="fill:#871f78;opacity:0.35;"/>
   </g>
   <g id="patch_27">
    <path clip-path="url(#paabeb089f6)" d="M 115.425749 192.24 
L 116.581456 192.24 
L 116.581456 192.24 
L 115.425749 192.24 
z
" style="fill:#871f78;opacity:0.35;"/>
   </g>
   <g id="patch_28">
    <path clip-path="url(#paabeb089f6)" d="M 116.870382 192.24 
L 118.026089 192.24 
L 118.026089 192.24 
L 116.870382 192.24 
z
" style="fill:#871f78;opacity:0.35;"/>
   </g>
   <g id="patch_29">
    <path clip-path="url(#paabeb089f6)" d="M 118.315016 192.24 
L 119.470723 192.24 
L 119.470723 192.24 
L 118.315016 192.24 
z
" style="fill:#871f78;opacity:0.35;"/>
   </g>
   <g id="patch_30">
    <path clip-path="url(#paabeb089f6)" d="M 119.759649 192.24 
L 120.915356 192.24 
L 120.915356 182.17135 
L 119.759649 182.17135 
z
" style="fill:#871f78;opacity:0.35;"/>
   </g>
   <g id="patch_31">
    <path clip-path="url(#paabeb089f6)" d="M 121.204283 192.24 
L 122.35999 192.24 
L 122.35999 192.24 
L 121.204283 192.24 
z
" style="fill:#871f78;opacity:0.35;"/>
   </g>
   <g id="patch_32">
    <path clip-path="url(#paabeb089f6)" d="M 122.648916 192.24 
L 123.804623 192.24 
L 123.804623 172.1027 
L 122.648916 172.1027 
z
" style="fill:#871f78;opacity:0.35;"/>
   </g>
   <g id="patch_33">
    <path clip-path="url(#paabeb089f6)" d="M 124.09355 192.24 
L 125.249257 192.24 
L 125.249257 192.24 
L 124.09355 192.24 
z
" style="fill:#871f78;opacity:0.35;"/>
   </g>
   <g id="patch_34">
    <path clip-path="url(#paabeb089f6)" d="M 125.538183 192.24 
L 126.69389 192.24 
L 126.69389 172.1027 
L 125.538183 172.1027 
z
" style="fill:#871f78;opacity:0.35;"/>
   </g>
   <g id="patch_35">
    <path clip-path="url(#paabeb089f6)" d="M 126.982817 192.24 
L 128.138524 192.24 
L 128.138524 172.1027 
L 126.982817 172.1027 
z
" style="fill:#871f78;opacity:0.35;"/>
   </g>
   <g id="patch_36">
    <path clip-path="url(#paabeb089f6)" d="M 128.42745 192.24 
L 129.583157 192.24 
L 129.583157 172.1027 
L 128.42745 172.1027 
z
" style="fill:#871f78;opacity:0.35;"/>
   </g>
   <g id="patch_37">
    <path clip-path="url(#paabeb089f6)" d="M 129.872084 192.24 
L 131.027791 192.24 
L 131.027791 182.17135 
L 129.872084 182.17135 
z
" style="fill:#871f78;opacity:0.35;"/>
   </g>
   <g id="patch_38">
    <path clip-path="url(#paabeb089f6)" d="M 131.316717 192.24 
L 132.472424 192.24 
L 132.472424 162.03405 
L 131.316717 162.03405 
z
" style="fill:#871f78;opacity:0.35;"/>
   </g>
   <g id="patch_39">
    <path clip-path="url(#paabeb089f6)" d="M 132.761351 192.24 
L 133.917057 192.24 
L 133.917057 192.24 
L 132.761351 192.24 
z
" style="fill:#871f78;opacity:0.35;"/>
   </g>
   <g id="patch_40">
    <path clip-path="url(#paabeb089f6)" d="M 134.205984 192.24 
L 135.361691 192.24 
L 135.361691 182.17135 
L 134.205984 182.17135 
z
" style="fill:#871f78;opacity:0.35;"/>
   </g>
   <g id="patch_41">
    <path clip-path="url(#paabeb089f6)" d="M 135.650618 192.24 
L 136.806324 192.24 
L 136.806324 192.24 
L 135.650618 192.24 
z
" style="fill:#871f78;opacity:0.35;"/>
   </g>
   <g id="patch_42">
    <path clip-path="url(#paabeb089f6)" d="M 137.095251 192.24 
L 138.250958 192.24 
L 138.250958 192.24 
L 137.095251 192.24 
z
" style="fill:#871f78;opacity:0.35;"/>
   </g>
   <g id="patch_43">
    <path clip-path="url(#paabeb089f6)" d="M 138.539885 192.24 
L 139.695591 192.24 
L 139.695591 192.24 
L 138.539885 192.24 
z
" style="fill:#871f78;opacity:0.35;"/>
   </g>
   <g id="patch_44">
    <path clip-path="url(#paabeb089f6)" d="M 139.984518 192.24 
L 141.140225 192.24 
L 141.140225 182.17135 
L 139.984518 182.17135 
z
" style="fill:#871f78;opacity:0.35;"/>
   </g>
   <g id="patch_45">
    <path clip-path="url(#paabeb089f6)" d="M 141.429152 192.24 
L 142.584858 192.24 
L 142.584858 192.24 
L 141.429152 192.24 
z
" style="fill:#871f78;opacity:0.35;"/>
   </g>
   <g id="patch_46">
    <path clip-path="url(#paabeb089f6)" d="M 142.873785 192.24 
L 144.029492 192.24 
L 144.029492 182.17135 
L 142.873785 182.17135 
z
" style="fill:#871f78;opacity:0.35;"/>
   </g>
   <g id="patch_47">
    <path clip-path="url(#paabeb089f6)" d="M 144.318419 192.24 
L 145.474125 192.24 
L 145.474125 192.24 
L 144.318419 192.24 
z
" style="fill:#871f78;opacity:0.35;"/>
   </g>
   <g id="patch_48">
    <path clip-path="url(#paabeb089f6)" d="M 145.763052 192.24 
L 146.918759 192.24 
L 146.918759 192.24 
L 145.763052 192.24 
z
" style="fill:#871f78;opacity:0.35;"/>
   </g>
   <g id="patch_49">
    <path clip-path="url(#paabeb089f6)" d="M 147.207685 192.24 
L 148.363392 192.24 
L 148.363392 192.24 
L 147.207685 192.24 
z
" style="fill:#871f78;opacity:0.35;"/>
   </g>
   <g id="patch_50">
    <path clip-path="url(#paabeb089f6)" d="M 148.652319 192.24 
L 149.808026 192.24 
L 149.808026 192.24 
L 148.652319 192.24 
z
" style="fill:#871f78;opacity:0.35;"/>
   </g>
   <g id="patch_51">
    <path clip-path="url(#paabeb089f6)" d="M 150.096952 192.24 
L 151.252659 192.24 
L 151.252659 182.17135 
L 150.096952 182.17135 
z
" style="fill:#871f78;opacity:0.35;"/>
   </g>
   <g id="patch_52">
    <path clip-path="url(#paabeb089f6)" d="M 151.541586 192.24 
L 152.697293 192.24 
L 152.697293 182.17135 
L 151.541586 182.17135 
z
" style="fill:#871f78;opacity:0.35;"/>
   </g>
   <g id="patch_53">
    <path clip-path="url(#paabeb089f6)" d="M 152.986219 192.24 
L 154.141926 192.24 
L 154.141926 182.17135 
L 152.986219 182.17135 
z
" style="fill:#871f78;opacity:0.35;"/>
   </g>
   <g id="patch_54">
    <path clip-path="url(#paabeb089f6)" d="M 154.430853 192.24 
L 155.58656 192.24 
L 155.58656 192.24 
L 154.430853 192.24 
z
" style="fill:#871f78;opacity:0.35;"/>
   </g>
   <g id="patch_55">
    <path clip-path="url(#paabeb089f6)" d="M 155.875486 192.24 
L 157.031193 192.24 
L 157.031193 182.17135 
L 155.875486 182.17135 
z
" style="fill:#871f78;opacity:0.35;"/>
   </g>
   <g id="patch_56">
    <path clip-path="url(#paabeb089f6)" d="M 157.32012 192.24 
L 158.475827 192.24 
L 158.475827 172.1027 
L 157.32012 172.1027 
z
" style="fill:#871f78;opacity:0.35;"/>
   </g>
   <g id="patch_57">
    <path clip-path="url(#paabeb089f6)" d="M 158.764753 192.24 
L 159.92046 192.24 
L 159.92046 192.24 
L 158.764753 192.24 
z
" style="fill:#871f78;opacity:0.35;"/>
   </g>
   <g id="patch_58">
    <path clip-path="url(#paabeb089f6)" d="M 160.209387 192.24 
L 161.365094 192.24 
L 161.365094 192.24 
L 160.209387 192.24 
z
" style="fill:#871f78;opacity:0.35;"/>
   </g>
   <g id="patch_59">
    <path clip-path="url(#paabeb089f6)" d="M 161.65402 192.24 
L 162.809727 192.24 
L 162.809727 202.30865 
L 161.65402 202.30865 
z
" style="fill:#871f78;opacity:0.35;"/>
   </g>
   <g id="patch_60">
    <path clip-path="url(#paabeb089f6)" d="M 163.098654 192.24 
L 164.254361 192.24 
L 164.254361 192.24 
L 163.098654 192.24 
z
" style="fill:#871f78;opacity:0.35;"/>
   </g>
   <g id="patch_61">
    <path clip-path="url(#paabeb089f6)" d="M 164.543287 192.24 
L 165.698994 192.24 
L 165.698994 192.24 
L 164.543287 192.24 
z
" style="fill:#871f78;opacity:0.35;"/>
   </g>
   <g id="patch_62">
    <path clip-path="url(#paabeb089f6)" d="M 165.987921 192.24 
L 167.143627 192.24 
L 167.143627 182.17135 
L 165.987921 182.17135 
z
" style="fill:#871f78;opacity:0.35;"/>
   </g>
   <g id="patch_63">
    <path clip-path="url(#paabeb089f6)" d="M 167.432554 192.24 
L 168.588261 192.24 
L 168.588261 182.17135 
L 167.432554 182.17135 
z
" style="fill:#871f78;opacity:0.35;"/>
   </g>
   <g id="patch_64">
    <path clip-path="url(#paabeb089f6)" d="M 168.877188 192.24 
L 170.032894 192.24 
L 170.032894 192.24 
L 168.877188 192.24 
z
" style="fill:#871f78;opacity:0.35;"/>
   </g>
   <g id="patch_65">
    <path clip-path="url(#paabeb089f6)" d="M 170.321821 192.24 
L 171.477528 192.24 
L 171.477528 192.24 
L 170.321821 192.24 
z
" style="fill:#871f78;opacity:0.35;"/>
   </g>
   <g id="patch_66">
    <path clip-path="url(#paabeb089f6)" d="M 171.766455 192.24 
L 172.922161 192.24 
L 172.922161 192.24 
L 171.766455 192.24 
z
" style="fill:#871f78;opacity:0.35;"/>
   </g>
   <g id="patch_67">
    <path clip-path="url(#paabeb089f6)" d="M 173.211088 192.24 
L 174.366795 192.24 
L 174.366795 192.24 
L 173.211088 192.24 
z
" style="fill:#871f78;opacity:0.35;"/>
   </g>
   <g id="patch_68">
    <path clip-path="url(#paabeb089f6)" d="M 174.655722 192.24 
L 175.811428 192.24 
L 175.811428 182.17135 
L 174.655722 182.17135 
z
" style="fill:#871f78;opacity:0.35;"/>
   </g>
   <g id="patch_69">
    <path clip-path="url(#paabeb089f6)" d="M 176.100355 192.24 
L 177.256062 192.24 
L 177.256062 192.24 
L 176.100355 192.24 
z
" style="fill:#871f78;opacity:0.35;"/>
   </g>
   <g id="patch_70">
    <path clip-path="url(#paabeb089f6)" d="M 177.544989 192.24 
L 178.700695 192.24 
L 178.700695 182.17135 
L 177.544989 182.17135 
z
" style="fill:#871f78;opacity:0.35;"/>
   </g>
   <g id="patch_71">
    <path clip-path="url(#paabeb089f6)" d="M 178.989622 192.24 
L 180.145329 192.24 
L 180.145329 192.24 
L 178.989622 192.24 
z
" style="fill:#871f78;opacity:0.35;"/>
   </g>
   <g id="patch_72">
    <path clip-path="url(#paabeb089f6)" d="M 180.434255 192.24 
L 181.589962 192.24 
L 181.589962 192.24 
L 180.434255 192.24 
z
" style="fill:#871f78;opacity:0.35;"/>
   </g>
   <g id="patch_73">
    <path clip-path="url(#paabeb089f6)" d="M 181.878889 192.24 
L 183.034596 192.24 
L 183.034596 192.24 
L 181.878889 192.24 
z
" style="fill:#871f78;opacity:0.35;"/>
   </g>
   <g id="patch_74">
    <path clip-path="url(#paabeb089f6)" d="M 183.323522 192.24 
L 184.479229 192.24 
L 184.479229 182.17135 
L 183.323522 182.17135 
z
" style="fill:#871f78;opacity:0.35;"/>
   </g>
   <g id="patch_75">
    <path clip-path="url(#paabeb089f6)" d="M 184.768156 192.24 
L 185.923863 192.24 
L 185.923863 182.17135 
L 184.768156 182.17135 
z
" style="fill:#871f78;opacity:0.35;"/>
   </g>
   <g id="patch_76">
    <path clip-path="url(#paabeb089f6)" d="M 186.212789 192.24 
L 187.368496 192.24 
L 187.368496 192.24 
L 186.212789 192.24 
z
" style="fill:#871f78;opacity:0.35;"/>
   </g>
   <g id="patch_77">
    <path clip-path="url(#paabeb089f6)" d="M 187.657423 192.24 
L 188.81313 192.24 
L 188.81313 192.24 
L 187.657423 192.24 
z
" style="fill:#871f78;opacity:0.35;"/>
   </g>
   <g id="patch_78">
    <path clip-path="url(#paabeb089f6)" d="M 189.102056 192.24 
L 190.257763 192.24 
L 190.257763 192.24 
L 189.102056 192.24 
z
" style="fill:#871f78;opacity:0.35;"/>
   </g>
   <g id="patch_79">
    <path clip-path="url(#paabeb089f6)" d="M 190.54669 192.24 
L 191.702397 192.24 
L 191.702397 192.24 
L 190.54669 192.24 
z
" style="fill:#871f78;opacity:0.35;"/>
   </g>
   <g id="patch_80">
    <path clip-path="url(#paabeb089f6)" d="M 191.991323 192.24 
L 193.14703 192.24 
L 193.14703 192.24 
L 191.991323 192.24 
z
" style="fill:#871f78;opacity:0.35;"/>
   </g>
   <g id="patch_81">
    <path clip-path="url(#paabeb089f6)" d="M 193.435957 192.24 
L 194.591664 192.24 
L 194.591664 192.24 
L 193.435957 192.24 
z
" style="fill:#871f78;opacity:0.35;"/>
   </g>
   <g id="patch_82">
    <path clip-path="url(#paabeb089f6)" d="M 194.88059 192.24 
L 196.036297 192.24 
L 196.036297 192.24 
L 194.88059 192.24 
z
" style="fill:#871f78;opacity:0.35;"/>
   </g>
   <g id="patch_83">
    <path clip-path="url(#paabeb089f6)" d="M 196.325224 192.24 
L 197.480931 192.24 
L 197.480931 182.17135 
L 196.325224 182.17135 
z
" style="fill:#871f78;opacity:0.35;"/>
   </g>
   <g id="patch_84">
    <path clip-path="url(#paabeb089f6)" d="M 197.769857 192.24 
L 198.925564 192.24 
L 198.925564 192.24 
L 197.769857 192.24 
z
" style="fill:#871f78;opacity:0.35;"/>
   </g>
   <g id="patch_85">
    <path clip-path="url(#paabeb089f6)" d="M 199.214491 192.24 
L 200.370197 192.24 
L 200.370197 192.24 
L 199.214491 192.24 
z
" style="fill:#871f78;opacity:0.35;"/>
   </g>
   <g id="patch_86">
    <path clip-path="url(#paabeb089f6)" d="M 200.659124 192.24 
L 201.814831 192.24 
L 201.814831 162.03405 
L 200.659124 162.03405 
z
" style="fill:#871f78;opacity:0.35;"/>
   </g>
   <g id="patch_87">
    <path clip-path="url(#paabeb089f6)" d="M 202.103758 192.24 
L 203.259464 192.24 
L 203.259464 192.24 
L 202.103758 192.24 
z
" style="fill:#871f78;opacity:0.35;"/>
   </g>
   <g id="patch_88">
    <path clip-path="url(#paabeb089f6)" d="M 203.548391 192.24 
L 204.704098 192.24 
L 204.704098 192.24 
L 203.548391 192.24 
z
" style="fill:#871f78;opacity:0.35;"/>
   </g>
   <g id="patch_89">
    <path clip-path="url(#paabeb089f6)" d="M 204.993025 192.24 
L 206.148731 192.24 
L 206.148731 182.17135 
L 204.993025 182.17135 
z
" style="fill:#871f78;opacity:0.35;"/>
   </g>
   <g id="patch_90">
    <path clip-path="url(#paabeb089f6)" d="M 206.437658 192.24 
L 207.593365 192.24 
L 207.593365 192.24 
L 206.437658 192.24 
z
" style="fill:#871f78;opacity:0.35;"/>
   </g>
   <g id="patch_91">
    <path clip-path="url(#paabeb089f6)" d="M 207.882292 192.24 
L 209.037998 192.24 
L 209.037998 202.30865 
L 207.882292 202.30865 
z
" style="fill:#871f78;opacity:0.35;"/>
   </g>
   <g id="patch_92">
    <path clip-path="url(#paabeb089f6)" d="M 209.326925 192.24 
L 210.482632 192.24 
L 210.482632 192.24 
L 209.326925 192.24 
z
" style="fill:#871f78;opacity:0.35;"/>
   </g>
   <g id="patch_93">
    <path clip-path="url(#paabeb089f6)" d="M 210.771559 192.24 
L 211.927265 192.24 
L 211.927265 192.24 
L 210.771559 192.24 
z
" style="fill:#871f78;opacity:0.35;"/>
   </g>
   <g id="patch_94">
    <path clip-path="url(#paabeb089f6)" d="M 212.216192 192.24 
L 213.371899 192.24 
L 213.371899 192.24 
L 212.216192 192.24 
z
" style="fill:#871f78;opacity:0.35;"/>
   </g>
   <g id="patch_95">
    <path clip-path="url(#paabeb089f6)" d="M 213.660826 192.24 
L 214.816532 192.24 
L 214.816532 192.24 
L 213.660826 192.24 
z
" style="fill:#871f78;opacity:0.35;"/>
   </g>
   <g id="patch_96">
    <path clip-path="url(#paabeb089f6)" d="M 215.105459 192.24 
L 216.261166 192.24 
L 216.261166 192.24 
L 215.105459 192.24 
z
" style="fill:#871f78;opacity:0.35;"/>
   </g>
   <g id="patch_97">
    <path clip-path="url(#paabeb089f6)" d="M 216.550092 192.24 
L 217.705799 192.24 
L 217.705799 192.24 
L 216.550092 192.24 
z
" style="fill:#871f78;opacity:0.35;"/>
   </g>
   <g id="patch_98">
    <path clip-path="url(#paabeb089f6)" d="M 217.994726 192.24 
L 219.150433 192.24 
L 219.150433 192.24 
L 217.994726 192.24 
z
" style="fill:#871f78;opacity:0.35;"/>
   </g>
   <g id="patch_99">
    <path clip-path="url(#paabeb089f6)" d="M 219.439359 192.24 
L 220.595066 192.24 
L 220.595066 192.24 
L 219.439359 192.24 
z
" style="fill:#871f78;opacity:0.35;"/>
   </g>
   <g id="patch_100">
    <path clip-path="url(#paabeb089f6)" d="M 220.883993 192.24 
L 222.0397 192.24 
L 222.0397 192.24 
L 220.883993 192.24 
z
" style="fill:#871f78;opacity:0.35;"/>
   </g>
   <g id="patch_101">
    <path clip-path="url(#paabeb089f6)" d="M 222.328626 192.24 
L 223.484333 192.24 
L 223.484333 192.24 
L 222.328626 192.24 
z
" style="fill:#871f78;opacity:0.35;"/>
   </g>
   <g id="patch_102">
    <path clip-path="url(#paabeb089f6)" d="M 223.77326 192.24 
L 224.928967 192.24 
L 224.928967 192.24 
L 223.77326 192.24 
z
" style="fill:#871f78;opacity:0.35;"/>
   </g>
   <g id="patch_103">
    <path clip-path="url(#paabeb089f6)" d="M 225.217893 192.24 
L 226.3736 192.24 
L 226.3736 192.24 
L 225.217893 192.24 
z
" style="fill:#871f78;opacity:0.35;"/>
   </g>
   <g id="patch_104">
    <path clip-path="url(#paabeb089f6)" d="M 226.662527 192.24 
L 227.818234 192.24 
L 227.818234 192.24 
L 226.662527 192.24 
z
" style="fill:#871f78;opacity:0.35;"/>
   </g>
   <g id="patch_105">
    <path clip-path="url(#paabeb089f6)" d="M 228.10716 192.24 
L 229.262867 192.24 
L 229.262867 182.17135 
L 228.10716 182.17135 
z
" style="fill:#871f78;opacity:0.35;"/>
   </g>
   <g id="patch_106">
    <path clip-path="url(#paabeb089f6)" d="M 229.551794 192.24 
L 230.707501 192.24 
L 230.707501 172.1027 
L 229.551794 172.1027 
z
" style="fill:#871f78;opacity:0.35;"/>
   </g>
   <g id="patch_107">
    <path clip-path="url(#paabeb089f6)" d="M 230.996427 192.24 
L 232.152134 192.24 
L 232.152134 192.24 
L 230.996427 192.24 
z
" style="fill:#871f78;opacity:0.35;"/>
   </g>
   <g id="patch_108">
    <path clip-path="url(#paabeb089f6)" d="M 232.441061 192.24 
L 233.596768 192.24 
L 233.596768 192.24 
L 232.441061 192.24 
z
" style="fill:#871f78;opacity:0.35;"/>
   </g>
   <g id="patch_109">
    <path clip-path="url(#paabeb089f6)" d="M 233.885694 192.24 
L 235.041401 192.24 
L 235.041401 192.24 
L 233.885694 192.24 
z
" style="fill:#871f78;opacity:0.35;"/>
   </g>
   <g id="patch_110">
    <path clip-path="url(#paabeb089f6)" d="M 235.330328 192.24 
L 236.486034 192.24 
L 236.486034 192.24 
L 235.330328 192.24 
z
" style="fill:#871f78;opacity:0.35;"/>
   </g>
   <g id="patch_111">
    <path clip-path="url(#paabeb089f6)" d="M 236.774961 192.24 
L 237.930668 192.24 
L 237.930668 192.24 
L 236.774961 192.24 
z
" style="fill:#871f78;opacity:0.35;"/>
   </g>
   <g id="patch_112">
    <path clip-path="url(#paabeb089f6)" d="M 238.219595 192.24 
L 239.375301 192.24 
L 239.375301 182.17135 
L 238.219595 182.17135 
z
" style="fill:#871f78;opacity:0.35;"/>
   </g>
   <g id="patch_113">
    <path clip-path="url(#paabeb089f6)" d="M 239.664228 192.24 
L 240.819935 192.24 
L 240.819935 192.24 
L 239.664228 192.24 
z
" style="fill:#871f78;opacity:0.35;"/>
   </g>
   <g id="patch_114">
    <path clip-path="url(#paabeb089f6)" d="M 241.108862 192.24 
L 242.264568 192.24 
L 242.264568 192.24 
L 241.108862 192.24 
z
" style="fill:#871f78;opacity:0.35;"/>
   </g>
   <g id="patch_115">
    <path clip-path="url(#paabeb089f6)" d="M 242.553495 192.24 
L 243.709202 192.24 
L 243.709202 192.24 
L 242.553495 192.24 
z
" style="fill:#871f78;opacity:0.35;"/>
   </g>
   <g id="patch_116">
    <path clip-path="url(#paabeb089f6)" d="M 243.998129 192.24 
L 245.153835 192.24 
L 245.153835 192.24 
L 243.998129 192.24 
z
" style="fill:#871f78;opacity:0.35;"/>
   </g>
   <g id="patch_117">
    <path clip-path="url(#paabeb089f6)" d="M 245.442762 192.24 
L 246.598469 192.24 
L 246.598469 192.24 
L 245.442762 192.24 
z
" style="fill:#871f78;opacity:0.35;"/>
   </g>
   <g id="patch_118">
    <path clip-path="url(#paabeb089f6)" d="M 246.887396 192.24 
L 248.043102 192.24 
L 248.043102 172.1027 
L 246.887396 172.1027 
z
" style="fill:#871f78;opacity:0.35;"/>
   </g>
   <g id="patch_119">
    <path clip-path="url(#paabeb089f6)" d="M 248.332029 192.24 
L 249.487736 192.24 
L 249.487736 192.24 
L 248.332029 192.24 
z
" style="fill:#871f78;opacity:0.35;"/>
   </g>
   <g id="patch_120">
    <path clip-path="url(#paabeb089f6)" d="M 249.776662 192.24 
L 250.932369 192.24 
L 250.932369 182.17135 
L 249.776662 182.17135 
z
" style="fill:#871f78;opacity:0.35;"/>
   </g>
   <g id="patch_121">
    <path clip-path="url(#paabeb089f6)" d="M 251.221296 192.24 
L 252.377003 192.24 
L 252.377003 192.24 
L 251.221296 192.24 
z
" style="fill:#871f78;opacity:0.35;"/>
   </g>
   <g id="patch_122">
    <path clip-path="url(#paabeb089f6)" d="M 252.665929 192.24 
L 253.821636 192.24 
L 253.821636 192.24 
L 252.665929 192.24 
z
" style="fill:#871f78;opacity:0.35;"/>
   </g>
   <g id="patch_123">
    <path clip-path="url(#paabeb089f6)" d="M 254.110563 192.24 
L 255.26627 192.24 
L 255.26627 192.24 
L 254.110563 192.24 
z
" style="fill:#871f78;opacity:0.35;"/>
   </g>
   <g id="patch_124">
    <path clip-path="url(#paabeb089f6)" d="M 255.555196 192.24 
L 256.710903 192.24 
L 256.710903 192.24 
L 255.555196 192.24 
z
" style="fill:#871f78;opacity:0.35;"/>
   </g>
   <g id="patch_125">
    <path clip-path="url(#paabeb089f6)" d="M 256.99983 192.24 
L 258.155537 192.24 
L 258.155537 172.1027 
L 256.99983 172.1027 
z
" style="fill:#871f78;opacity:0.35;"/>
   </g>
   <g id="patch_126">
    <path clip-path="url(#paabeb089f6)" d="M 258.444463 192.24 
L 259.60017 192.24 
L 259.60017 192.24 
L 258.444463 192.24 
z
" style="fill:#871f78;opacity:0.35;"/>
   </g>
   <g id="patch_127">
    <path clip-path="url(#paabeb089f6)" d="M 259.889097 192.24 
L 261.044804 192.24 
L 261.044804 182.17135 
L 259.889097 182.17135 
z
" style="fill:#871f78;opacity:0.35;"/>
   </g>
   <g id="patch_128">
    <path clip-path="url(#paabeb089f6)" d="M 261.33373 192.24 
L 262.489437 192.24 
L 262.489437 192.24 
L 261.33373 192.24 
z
" style="fill:#871f78;opacity:0.35;"/>
   </g>
   <g id="patch_129">
    <path clip-path="url(#paabeb089f6)" d="M 262.778364 192.24 
L 263.934071 192.24 
L 263.934071 192.24 
L 262.778364 192.24 
z
" style="fill:#871f78;opacity:0.35;"/>
   </g>
   <g id="patch_130">
    <path clip-path="url(#paabeb089f6)" d="M 264.222997 192.24 
L 265.378704 192.24 
L 265.378704 172.1027 
L 264.222997 172.1027 
z
" style="fill:#871f78;opacity:0.35;"/>
   </g>
   <g id="patch_131">
    <path clip-path="url(#paabeb089f6)" d="M 265.667631 192.24 
L 266.823338 192.24 
L 266.823338 192.24 
L 265.667631 192.24 
z
" style="fill:#871f78;opacity:0.35;"/>
   </g>
   <g id="patch_132">
    <path clip-path="url(#paabeb089f6)" d="M 267.112264 192.24 
L 268.267971 192.24 
L 268.267971 182.17135 
L 267.112264 182.17135 
z
" style="fill:#871f78;opacity:0.35;"/>
   </g>
   <g id="patch_133">
    <path clip-path="url(#paabeb089f6)" d="M 268.556898 192.24 
L 269.712604 192.24 
L 269.712604 182.17135 
L 268.556898 182.17135 
z
" style="fill:#871f78;opacity:0.35;"/>
   </g>
   <g id="patch_134">
    <path clip-path="url(#paabeb089f6)" d="M 270.001531 192.24 
L 271.157238 192.24 
L 271.157238 192.24 
L 270.001531 192.24 
z
" style="fill:#871f78;opacity:0.35;"/>
   </g>
   <g id="patch_135">
    <path clip-path="url(#paabeb089f6)" d="M 271.446165 192.24 
L 272.601871 192.24 
L 272.601871 192.24 
L 271.446165 192.24 
z
" style="fill:#871f78;opacity:0.35;"/>
   </g>
   <g id="patch_136">
    <path clip-path="url(#paabeb089f6)" d="M 272.890798 192.24 
L 274.046505 192.24 
L 274.046505 192.24 
L 272.890798 192.24 
z
" style="fill:#871f78;opacity:0.35;"/>
   </g>
   <g id="patch_137">
    <path clip-path="url(#paabeb089f6)" d="M 274.335432 192.24 
L 275.491138 192.24 
L 275.491138 192.24 
L 274.335432 192.24 
z
" style="fill:#871f78;opacity:0.35;"/>
   </g>
   <g id="patch_138">
    <path clip-path="url(#paabeb089f6)" d="M 275.780065 192.24 
L 276.935772 192.24 
L 276.935772 192.24 
L 275.780065 192.24 
z
" style="fill:#871f78;opacity:0.35;"/>
   </g>
   <g id="patch_139">
    <path clip-path="url(#paabeb089f6)" d="M 277.224699 192.24 
L 278.380405 192.24 
L 278.380405 192.24 
L 277.224699 192.24 
z
" style="fill:#871f78;opacity:0.35;"/>
   </g>
   <g id="patch_140">
    <path clip-path="url(#paabeb089f6)" d="M 278.669332 192.24 
L 279.825039 192.24 
L 279.825039 182.17135 
L 278.669332 182.17135 
z
" style="fill:#871f78;opacity:0.35;"/>
   </g>
   <g id="patch_141">
    <path clip-path="url(#paabeb089f6)" d="M 280.113966 192.24 
L 281.269672 192.24 
L 281.269672 192.24 
L 280.113966 192.24 
z
" style="fill:#871f78;opacity:0.35;"/>
   </g>
   <g id="patch_142">
    <path clip-path="url(#paabeb089f6)" d="M 281.558599 192.24 
L 282.714306 192.24 
L 282.714306 182.17135 
L 281.558599 182.17135 
z
" style="fill:#871f78;opacity:0.35;"/>
   </g>
   <g id="patch_143">
    <path clip-path="url(#paabeb089f6)" d="M 283.003232 192.24 
L 284.158939 192.24 
L 284.158939 192.24 
L 283.003232 192.24 
z
" style="fill:#871f78;opacity:0.35;"/>
   </g>
   <g id="patch_144">
    <path clip-path="url(#paabeb089f6)" d="M 284.447866 192.24 
L 285.603573 192.24 
L 285.603573 192.24 
L 284.447866 192.24 
z
" style="fill:#871f78;opacity:0.35;"/>
   </g>
   <g id="patch_145">
    <path clip-path="url(#paabeb089f6)" d="M 285.892499 192.24 
L 287.048206 192.24 
L 287.048206 192.24 
L 285.892499 192.24 
z
" style="fill:#871f78;opacity:0.35;"/>
   </g>
   <g id="patch_146">
    <path clip-path="url(#paabeb089f6)" d="M 287.337133 192.24 
L 288.49284 192.24 
L 288.49284 192.24 
L 287.337133 192.24 
z
" style="fill:#871f78;opacity:0.35;"/>
   </g>
   <g id="patch_147">
    <path clip-path="url(#paabeb089f6)" d="M 288.781766 192.24 
L 289.937473 192.24 
L 289.937473 182.17135 
L 288.781766 182.17135 
z
" style="fill:#871f78;opacity:0.35;"/>
   </g>
   <g id="patch_148">
    <path clip-path="url(#paabeb089f6)" d="M 290.2264 192.24 
L 291.382107 192.24 
L 291.382107 192.24 
L 290.2264 192.24 
z
" style="fill:#871f78;opacity:0.35;"/>
   </g>
   <g id="patch_149">
    <path clip-path="url(#paabeb089f6)" d="M 291.671033 192.24 
L 292.82674 192.24 
L 292.82674 192.24 
L 291.671033 192.24 
z
" style="fill:#871f78;opacity:0.35;"/>
   </g>
   <g id="patch_150">
    <path clip-path="url(#paabeb089f6)" d="M 293.115667 192.24 
L 294.271374 192.24 
L 294.271374 192.24 
L 293.115667 192.24 
z
" style="fill:#871f78;opacity:0.35;"/>
   </g>
   <g id="patch_151">
    <path clip-path="url(#paabeb089f6)" d="M 294.5603 192.24 
L 295.716007 192.24 
L 295.716007 192.24 
L 294.5603 192.24 
z
" style="fill:#871f78;opacity:0.35;"/>
   </g>
   <g id="patch_152">
    <path clip-path="url(#paabeb089f6)" d="M 296.004934 192.24 
L 297.160641 192.24 
L 297.160641 192.24 
L 296.004934 192.24 
z
" style="fill:#871f78;opacity:0.35;"/>
   </g>
   <g id="patch_153">
    <path clip-path="url(#paabeb089f6)" d="M 297.449567 192.24 
L 298.605274 192.24 
L 298.605274 182.17135 
L 297.449567 182.17135 
z
" style="fill:#871f78;opacity:0.35;"/>
   </g>
   <g id="patch_154">
    <path clip-path="url(#paabeb089f6)" d="M 298.894201 192.24 
L 300.049908 192.24 
L 300.049908 192.24 
L 298.894201 192.24 
z
" style="fill:#871f78;opacity:0.35;"/>
   </g>
   <g id="patch_155">
    <path clip-path="url(#paabeb089f6)" d="M 300.338834 192.24 
L 301.494541 192.24 
L 301.494541 182.17135 
L 300.338834 182.17135 
z
" style="fill:#871f78;opacity:0.35;"/>
   </g>
   <g id="patch_156">
    <path clip-path="url(#paabeb089f6)" d="M 301.783468 192.24 
L 302.939174 192.24 
L 302.939174 182.17135 
L 301.783468 182.17135 
z
" style="fill:#871f78;opacity:0.35;"/>
   </g>
   <g id="patch_157">
    <path clip-path="url(#paabeb089f6)" d="M 303.228101 192.24 
L 304.383808 192.24 
L 304.383808 192.24 
L 303.228101 192.24 
z
" style="fill:#871f78;opacity:0.35;"/>
   </g>
   <g id="patch_158">
    <path clip-path="url(#paabeb089f6)" d="M 304.672735 192.24 
L 305.828441 192.24 
L 305.828441 192.24 
L 304.672735 192.24 
z
" style="fill:#871f78;opacity:0.35;"/>
   </g>
   <g id="patch_159">
    <path clip-path="url(#paabeb089f6)" d="M 306.117368 192.24 
L 307.273075 192.24 
L 307.273075 192.24 
L 306.117368 192.24 
z
" style="fill:#871f78;opacity:0.35;"/>
   </g>
   <g id="patch_160">
    <path clip-path="url(#paabeb089f6)" d="M 307.562002 192.24 
L 308.717708 192.24 
L 308.717708 192.24 
L 307.562002 192.24 
z
" style="fill:#871f78;opacity:0.35;"/>
   </g>
   <g id="patch_161">
    <path clip-path="url(#paabeb089f6)" d="M 309.006635 192.24 
L 310.162342 192.24 
L 310.162342 192.24 
L 309.006635 192.24 
z
" style="fill:#871f78;opacity:0.35;"/>
   </g>
   <g id="patch_162">
    <path clip-path="url(#paabeb089f6)" d="M 310.451269 192.24 
L 311.606975 192.24 
L 311.606975 192.24 
L 310.451269 192.24 
z
" style="fill:#871f78;opacity:0.35;"/>
   </g>
   <g id="patch_163">
    <path clip-path="url(#paabeb089f6)" d="M 311.895902 192.24 
L 313.051609 192.24 
L 313.051609 192.24 
L 311.895902 192.24 
z
" style="fill:#871f78;opacity:0.35;"/>
   </g>
   <g id="patch_164">
    <path clip-path="url(#paabeb089f6)" d="M 313.340536 192.24 
L 314.496242 192.24 
L 314.496242 192.24 
L 313.340536 192.24 
z
" style="fill:#871f78;opacity:0.35;"/>
   </g>
   <g id="patch_165">
    <path clip-path="url(#paabeb089f6)" d="M 314.785169 192.24 
L 315.940876 192.24 
L 315.940876 192.24 
L 314.785169 192.24 
z
" style="fill:#871f78;opacity:0.35;"/>
   </g>
   <g id="patch_166">
    <path clip-path="url(#paabeb089f6)" d="M 316.229802 192.24 
L 317.385509 192.24 
L 317.385509 192.24 
L 316.229802 192.24 
z
" style="fill:#871f78;opacity:0.35;"/>
   </g>
   <g id="patch_167">
    <path clip-path="url(#paabeb089f6)" d="M 317.674436 192.24 
L 318.830143 192.24 
L 318.830143 192.24 
L 317.674436 192.24 
z
" style="fill:#871f78;opacity:0.35;"/>
   </g>
   <g id="patch_168">
    <path clip-path="url(#paabeb089f6)" d="M 319.119069 192.24 
L 320.274776 192.24 
L 320.274776 172.1027 
L 319.119069 172.1027 
z
" style="fill:#871f78;opacity:0.35;"/>
   </g>
   <g id="patch_169">
    <path clip-path="url(#paabeb089f6)" d="M 320.563703 192.24 
L 321.71941 192.24 
L 321.71941 192.24 
L 320.563703 192.24 
z
" style="fill:#871f78;opacity:0.35;"/>
   </g>
   <g id="patch_170">
    <path clip-path="url(#paabeb089f6)" d="M 322.008336 192.24 
L 323.164043 192.24 
L 323.164043 182.17135 
L 322.008336 182.17135 
z
" style="fill:#871f78;opacity:0.35;"/>
   </g>
   <g id="patch_171">
    <path clip-path="url(#paabeb089f6)" d="M 323.45297 192.24 
L 324.608677 192.24 
L 324.608677 182.17135 
L 323.45297 182.17135 
z
" style="fill:#871f78;opacity:0.35;"/>
   </g>
   <g id="patch_172">
    <path clip-path="url(#paabeb089f6)" d="M 324.897603 192.24 
L 326.05331 192.24 
L 326.05331 192.24 
L 324.897603 192.24 
z
" style="fill:#871f78;opacity:0.35;"/>
   </g>
   <g id="patch_173">
    <path clip-path="url(#paabeb089f6)" d="M 326.342237 192.24 
L 327.497944 192.24 
L 327.497944 182.17135 
L 326.342237 182.17135 
z
" style="fill:#871f78;opacity:0.35;"/>
   </g>
   <g id="patch_174">
    <path clip-path="url(#paabeb089f6)" d="M 327.78687 192.24 
L 328.942577 192.24 
L 328.942577 202.30865 
L 327.78687 202.30865 
z
" style="fill:#871f78;opacity:0.35;"/>
   </g>
   <g id="patch_175">
    <path clip-path="url(#paabeb089f6)" d="M 329.231504 192.24 
L 330.387211 192.24 
L 330.387211 192.24 
L 329.231504 192.24 
z
" style="fill:#871f78;opacity:0.35;"/>
   </g>
   <g id="patch_176">
    <path clip-path="url(#paabeb089f6)" d="M 330.676137 192.24 
L 331.831844 192.24 
L 331.831844 182.17135 
L 330.676137 182.17135 
z
" style="fill:#871f78;opacity:0.35;"/>
   </g>
   <g id="patch_177">
    <path clip-path="url(#paabeb089f6)" d="M 332.120771 192.24 
L 333.276478 192.24 
L 333.276478 192.24 
L 332.120771 192.24 
z
" style="fill:#871f78;opacity:0.35;"/>
   </g>
   <g id="patch_178">
    <path clip-path="url(#paabeb089f6)" d="M 333.565404 192.24 
L 334.721111 192.24 
L 334.721111 192.24 
L 333.565404 192.24 
z
" style="fill:#871f78;opacity:0.35;"/>
   </g>
   <g id="patch_179">
    <path clip-path="url(#paabeb089f6)" d="M 335.010038 192.24 
L 336.165745 192.24 
L 336.165745 182.17135 
L 335.010038 182.17135 
z
" style="fill:#871f78;opacity:0.35;"/>
   </g>
   <g id="patch_180">
    <path clip-path="url(#paabeb089f6)" d="M 336.454671 192.24 
L 337.610378 192.24 
L 337.610378 192.24 
L 336.454671 192.24 
z
" style="fill:#871f78;opacity:0.35;"/>
   </g>
   <g id="patch_181">
    <path clip-path="url(#paabeb089f6)" d="M 337.899305 192.24 
L 339.055011 192.24 
L 339.055011 192.24 
L 337.899305 192.24 
z
" style="fill:#871f78;opacity:0.35;"/>
   </g>
   <g id="patch_182">
    <path clip-path="url(#paabeb089f6)" d="M 339.343938 192.24 
L 340.499645 192.24 
L 340.499645 192.24 
L 339.343938 192.24 
z
" style="fill:#871f78;opacity:0.35;"/>
   </g>
   <g id="patch_183">
    <path clip-path="url(#paabeb089f6)" d="M 340.788572 192.24 
L 341.944278 192.24 
L 341.944278 182.17135 
L 340.788572 182.17135 
z
" style="fill:#871f78;opacity:0.35;"/>
   </g>
   <g id="patch_184">
    <path clip-path="url(#paabeb089f6)" d="M 342.233205 192.24 
L 343.388912 192.24 
L 343.388912 192.24 
L 342.233205 192.24 
z
" style="fill:#871f78;opacity:0.35;"/>
   </g>
   <g id="patch_185">
    <path clip-path="url(#paabeb089f6)" d="M 343.677839 192.24 
L 344.833545 192.24 
L 344.833545 192.24 
L 343.677839 192.24 
z
" style="fill:#871f78;opacity:0.35;"/>
   </g>
   <g id="patch_186">
    <path clip-path="url(#paabeb089f6)" d="M 345.122472 192.24 
L 346.278179 192.24 
L 346.278179 182.17135 
L 345.122472 182.17135 
z
" style="fill:#871f78;opacity:0.35;"/>
   </g>
   <g id="patch_187">
    <path clip-path="url(#paabeb089f6)" d="M 346.567106 192.24 
L 347.722812 192.24 
L 347.722812 192.24 
L 346.567106 192.24 
z
" style="fill:#871f78;opacity:0.35;"/>
   </g>
   <g id="patch_188">
    <path clip-path="url(#paabeb089f6)" d="M 348.011739 192.24 
L 349.167446 192.24 
L 349.167446 192.24 
L 348.011739 192.24 
z
" style="fill:#871f78;opacity:0.35;"/>
   </g>
   <g id="patch_189">
    <path clip-path="url(#paabeb089f6)" d="M 349.456373 192.24 
L 350.612079 192.24 
L 350.612079 192.24 
L 349.456373 192.24 
z
" style="fill:#871f78;opacity:0.35;"/>
   </g>
   <g id="patch_190">
    <path clip-path="url(#paabeb089f6)" d="M 350.901006 192.24 
L 352.056713 192.24 
L 352.056713 192.24 
L 350.901006 192.24 
z
" style="fill:#871f78;opacity:0.35;"/>
   </g>
   <g id="patch_191">
    <path clip-path="url(#paabeb089f6)" d="M 352.345639 192.24 
L 353.501346 192.24 
L 353.501346 192.24 
L 352.345639 192.24 
z
" style="fill:#871f78;opacity:0.35;"/>
   </g>
   <g id="patch_192">
    <path clip-path="url(#paabeb089f6)" d="M 353.790273 192.24 
L 354.94598 192.24 
L 354.94598 192.24 
L 353.790273 192.24 
z
" style="fill:#871f78;opacity:0.35;"/>
   </g>
   <g id="patch_193">
    <path clip-path="url(#paabeb089f6)" d="M 355.234906 192.24 
L 356.390613 192.24 
L 356.390613 192.24 
L 355.234906 192.24 
z
" style="fill:#871f78;opacity:0.35;"/>
   </g>
   <g id="patch_194">
    <path clip-path="url(#paabeb089f6)" d="M 356.67954 192.24 
L 357.835247 192.24 
L 357.835247 182.17135 
L 356.67954 182.17135 
z
" style="fill:#871f78;opacity:0.35;"/>
   </g>
   <g id="patch_195">
    <path clip-path="url(#paabeb089f6)" d="M 358.124173 192.24 
L 359.27988 192.24 
L 359.27988 192.24 
L 358.124173 192.24 
z
" style="fill:#871f78;opacity:0.35;"/>
   </g>
   <g id="patch_196">
    <path clip-path="url(#paabeb089f6)" d="M 359.568807 192.24 
L 360.724514 192.24 
L 360.724514 192.24 
L 359.568807 192.24 
z
" style="fill:#871f78;opacity:0.35;"/>
   </g>
   <g id="patch_197">
    <path clip-path="url(#paabeb089f6)" d="M 361.01344 192.24 
L 362.169147 192.24 
L 362.169147 172.1027 
L 361.01344 172.1027 
z
" style="fill:#871f78;opacity:0.35;"/>
   </g>
   <g id="patch_198">
    <path clip-path="url(#paabeb089f6)" d="M 362.458074 192.24 
L 363.613781 192.24 
L 363.613781 192.24 
L 362.458074 192.24 
z
" style="fill:#871f78;opacity:0.35;"/>
   </g>
   <g id="patch_199">
    <path clip-path="url(#paabeb089f6)" d="M 363.902707 192.24 
L 365.058414 192.24 
L 365.058414 182.17135 
L 363.902707 182.17135 
z
" style="fill:#871f78;opacity:0.35;"/>
   </g>
   <g id="patch_200">
    <path clip-path="url(#paabeb089f6)" d="M 365.347341 192.24 
L 366.503048 192.24 
L 366.503048 192.24 
L 365.347341 192.24 
z
" style="fill:#871f78;opacity:0.35;"/>
   </g>
   <g id="patch_201">
    <path clip-path="url(#paabeb089f6)" d="M 366.791974 192.24 
L 367.947681 192.24 
L 367.947681 192.24 
L 366.791974 192.24 
z
" style="fill:#871f78;opacity:0.35;"/>
   </g>
   <g id="patch_202">
    <path clip-path="url(#paabeb089f6)" d="M 368.236608 192.24 
L 369.392315 192.24 
L 369.392315 192.24 
L 368.236608 192.24 
z
" style="fill:#871f78;opacity:0.35;"/>
   </g>
   <g id="patch_203">
    <path clip-path="url(#paabeb089f6)" d="M 369.681241 192.24 
L 370.836948 192.24 
L 370.836948 172.1027 
L 369.681241 172.1027 
z
" style="fill:#871f78;opacity:0.35;"/>
   </g>
   <g id="patch_204">
    <path clip-path="url(#paabeb089f6)" d="M 371.125875 192.24 
L 372.281581 192.24 
L 372.281581 182.17135 
L 371.125875 182.17135 
z
" style="fill:#871f78;opacity:0.35;"/>
   </g>
   <g id="patch_205">
    <path clip-path="url(#paabeb089f6)" d="M 372.570508 192.24 
L 373.726215 192.24 
L 373.726215 182.17135 
L 372.570508 182.17135 
z
" style="fill:#871f78;opacity:0.35;"/>
   </g>
   <g id="patch_206">
    <path clip-path="url(#paabeb089f6)" d="M 374.015142 192.24 
L 375.170848 192.24 
L 375.170848 182.17135 
L 374.015142 182.17135 
z
" style="fill:#871f78;opacity:0.35;"/>
   </g>
   <g id="patch_207">
    <path clip-path="url(#paabeb089f6)" d="M 375.459775 192.24 
L 376.615482 192.24 
L 376.615482 192.24 
L 375.459775 192.24 
z
" style="fill:#871f78;opacity:0.35;"/>
   </g>
   <g id="patch_208">
    <path clip-path="url(#paabeb089f6)" d="M 376.904409 192.24 
L 378.060115 192.24 
L 378.060115 172.1027 
L 376.904409 172.1027 
z
" style="fill:#871f78;opacity:0.35;"/>
   </g>
   <g id="patch_209">
    <path clip-path="url(#paabeb089f6)" d="M 378.349042 192.24 
L 379.504749 192.24 
L 379.504749 182.17135 
L 378.349042 182.17135 
z
" style="fill:#871f78;opacity:0.35;"/>
   </g>
   <g id="patch_210">
    <path clip-path="url(#paabeb089f6)" d="M 379.793676 192.24 
L 380.949382 192.24 
L 380.949382 172.1027 
L 379.793676 172.1027 
z
" style="fill:#871f78;opacity:0.35;"/>
   </g>
   <g id="patch_211">
    <path clip-path="url(#paabeb089f6)" d="M 381.238309 192.24 
L 382.394016 192.24 
L 382.394016 162.03405 
L 381.238309 162.03405 
z
" style="fill:#871f78;opacity:0.35;"/>
   </g>
   <g id="patch_212">
    <path clip-path="url(#paabeb089f6)" d="M 382.682943 192.24 
L 383.838649 192.24 
L 383.838649 182.17135 
L 382.682943 182.17135 
z
" style="fill:#871f78;opacity:0.35;"/>
   </g>
   <g id="patch_213">
    <path clip-path="url(#paabeb089f6)" d="M 384.127576 192.24 
L 385.283283 192.24 
L 385.283283 172.1027 
L 384.127576 172.1027 
z
" style="fill:#871f78;opacity:0.35;"/>
   </g>
   <g id="patch_214">
    <path clip-path="url(#paabeb089f6)" d="M 385.572209 192.24 
L 386.727916 192.24 
L 386.727916 182.17135 
L 385.572209 182.17135 
z
" style="fill:#871f78;opacity:0.35;"/>
   </g>
   <g id="patch_215">
    <path clip-path="url(#paabeb089f6)" d="M 387.016843 192.24 
L 388.17255 192.24 
L 388.17255 192.24 
L 387.016843 192.24 
z
" style="fill:#871f78;opacity:0.35;"/>
   </g>
   <g id="patch_216">
    <path clip-path="url(#paabeb089f6)" d="M 388.461476 192.24 
L 389.617183 192.24 
L 389.617183 192.24 
L 388.461476 192.24 
z
" style="fill:#871f78;opacity:0.35;"/>
   </g>
   <g id="patch_217">
    <path clip-path="url(#paabeb089f6)" d="M 389.90611 192.24 
L 391.061817 192.24 
L 391.061817 182.17135 
L 389.90611 182.17135 
z
" style="fill:#871f78;opacity:0.35;"/>
   </g>
   <g id="patch_218">
    <path clip-path="url(#paabeb089f6)" d="M 391.350743 192.24 
L 392.50645 192.24 
L 392.50645 182.17135 
L 391.350743 182.17135 
z
" style="fill:#871f78;opacity:0.35;"/>
   </g>
   <g id="patch_219">
    <path clip-path="url(#paabeb089f6)" d="M 392.795377 192.24 
L 393.951084 192.24 
L 393.951084 172.1027 
L 392.795377 172.1027 
z
" style="fill:#871f78;opacity:0.35;"/>
   </g>
   <g id="patch_220">
    <path clip-path="url(#paabeb089f6)" d="M 394.24001 192.24 
L 395.395717 192.24 
L 395.395717 192.24 
L 394.24001 192.24 
z
" style="fill:#871f78;opacity:0.35;"/>
   </g>
   <g id="patch_221">
    <path clip-path="url(#paabeb089f6)" d="M 395.684644 192.24 
L 396.840351 192.24 
L 396.840351 182.17135 
L 395.684644 182.17135 
z
" style="fill:#871f78;opacity:0.35;"/>
   </g>
   <g id="patch_222">
    <path clip-path="url(#paabeb089f6)" d="M 397.129277 192.24 
L 398.284984 192.24 
L 398.284984 182.17135 
L 397.129277 182.17135 
z
" style="fill:#871f78;opacity:0.35;"/>
   </g>
   <g id="patch_223">
    <path clip-path="url(#paabeb089f6)" d="M 398.573911 192.24 
L 399.729618 192.24 
L 399.729618 162.03405 
L 398.573911 162.03405 
z
" style="fill:#871f78;opacity:0.35;"/>
   </g>
   <g id="patch_224">
    <path clip-path="url(#paabeb089f6)" d="M 400.018544 192.24 
L 401.174251 192.24 
L 401.174251 182.17135 
L 400.018544 182.17135 
z
" style="fill:#871f78;opacity:0.35;"/>
   </g>
   <g id="patch_225">
    <path clip-path="url(#paabeb089f6)" d="M 401.463178 192.24 
L 402.618885 192.24 
L 402.618885 172.1027 
L 401.463178 172.1027 
z
" style="fill:#871f78;opacity:0.35;"/>
   </g>
   <g id="patch_226">
    <path clip-path="url(#paabeb089f6)" d="M 402.907811 192.24 
L 404.063518 192.24 
L 404.063518 182.17135 
L 402.907811 182.17135 
z
" style="fill:#871f78;opacity:0.35;"/>
   </g>
   <g id="patch_227">
    <path clip-path="url(#paabeb089f6)" d="M 404.352445 192.24 
L 405.508151 192.24 
L 405.508151 172.1027 
L 404.352445 172.1027 
z
" style="fill:#871f78;opacity:0.35;"/>
   </g>
   <g id="patch_228">
    <path clip-path="url(#paabeb089f6)" d="M 405.797078 192.24 
L 406.952785 192.24 
L 406.952785 192.24 
L 405.797078 192.24 
z
" style="fill:#871f78;opacity:0.35;"/>
   </g>
   <g id="patch_229">
    <path clip-path="url(#paabeb089f6)" d="M 407.241712 192.24 
L 408.397418 192.24 
L 408.397418 192.24 
L 407.241712 192.24 
z
" style="fill:#871f78;opacity:0.35;"/>
   </g>
   <g id="patch_230">
    <path clip-path="url(#paabeb089f6)" d="M 408.686345 192.24 
L 409.842052 192.24 
L 409.842052 192.24 
L 408.686345 192.24 
z
" style="fill:#871f78;opacity:0.35;"/>
   </g>
   <g id="patch_231">
    <path clip-path="url(#paabeb089f6)" d="M 410.130979 192.24 
L 411.286685 192.24 
L 411.286685 141.896751 
L 410.130979 141.896751 
z
" style="fill:#871f78;opacity:0.35;"/>
   </g>
   <g id="patch_232">
    <path clip-path="url(#paabeb089f6)" d="M 411.575612 192.24 
L 412.731319 192.24 
L 412.731319 182.17135 
L 411.575612 182.17135 
z
" style="fill:#871f78;opacity:0.35;"/>
   </g>
   <g id="patch_233">
    <path clip-path="url(#paabeb089f6)" d="M 413.020246 192.24 
L 414.175952 192.24 
L 414.175952 162.03405 
L 413.020246 162.03405 
z
" style="fill:#871f78;opacity:0.35;"/>
   </g>
   <g id="patch_234">
    <path clip-path="url(#paabeb089f6)" d="M 414.464879 192.24 
L 415.620586 192.24 
L 415.620586 192.24 
L 414.464879 192.24 
z
" style="fill:#871f78;opacity:0.35;"/>
   </g>
   <g id="patch_235">
    <path clip-path="url(#paabeb089f6)" d="M 415.909513 192.24 
L 417.065219 192.24 
L 417.065219 192.24 
L 415.909513 192.24 
z
" style="fill:#871f78;opacity:0.35;"/>
   </g>
   <g id="patch_236">
    <path clip-path="url(#paabeb089f6)" d="M 417.354146 192.24 
L 418.509853 192.24 
L 418.509853 192.24 
L 417.354146 192.24 
z
" style="fill:#871f78;opacity:0.35;"/>
   </g>
   <g id="patch_237">
    <path clip-path="url(#paabeb089f6)" d="M 418.798779 192.24 
L 419.954486 192.24 
L 419.954486 192.24 
L 418.798779 192.24 
z
" style="fill:#871f78;opacity:0.35;"/>
   </g>
   <g id="patch_238">
    <path clip-path="url(#paabeb089f6)" d="M 420.243413 192.24 
L 421.39912 192.24 
L 421.39912 192.24 
L 420.243413 192.24 
z
" style="fill:#871f78;opacity:0.35;"/>
   </g>
   <g id="patch_239">
    <path clip-path="url(#paabeb089f6)" d="M 421.688046 192.24 
L 422.843753 192.24 
L 422.843753 162.03405 
L 421.688046 162.03405 
z
" style="fill:#871f78;opacity:0.35;"/>
   </g>
   <g id="patch_240">
    <path clip-path="url(#paabeb089f6)" d="M 423.13268 192.24 
L 424.288387 192.24 
L 424.288387 162.03405 
L 423.13268 162.03405 
z
" style="fill:#871f78;opacity:0.35;"/>
   </g>
   <g id="patch_241">
    <path clip-path="url(#paabeb089f6)" d="M 424.577313 192.24 
L 425.73302 192.24 
L 425.73302 162.03405 
L 424.577313 162.03405 
z
" style="fill:#871f78;opacity:0.35;"/>
   </g>
   <g id="patch_242">
    <path clip-path="url(#paabeb089f6)" d="M 426.021947 192.24 
L 427.177654 192.24 
L 427.177654 192.24 
L 426.021947 192.24 
z
" style="fill:#871f78;opacity:0.35;"/>
   </g>
   <g id="patch_243">
    <path clip-path="url(#paabeb089f6)" d="M 427.46658 192.24 
L 428.622287 192.24 
L 428.622287 151.9654 
L 427.46658 151.9654 
z
" style="fill:#871f78;opacity:0.35;"/>
   </g>
   <g id="patch_244">
    <path clip-path="url(#paabeb089f6)" d="M 428.911214 192.24 
L 430.066921 192.24 
L 430.066921 162.03405 
L 428.911214 162.03405 
z
" style="fill:#871f78;opacity:0.35;"/>
   </g>
   <g id="patch_245">
    <path clip-path="url(#paabeb089f6)" d="M 430.355847 192.24 
L 431.511554 192.24 
L 431.511554 172.1027 
L 430.355847 172.1027 
z
" style="fill:#871f78;opacity:0.35;"/>
   </g>
   <g id="patch_246">
    <path clip-path="url(#paabeb089f6)" d="M 431.800481 192.24 
L 432.956188 192.24 
L 432.956188 162.03405 
L 431.800481 162.03405 
z
" style="fill:#871f78;opacity:0.35;"/>
   </g>
   <g id="patch_247">
    <path clip-path="url(#paabeb089f6)" d="M 433.245114 192.24 
L 434.400821 192.24 
L 434.400821 182.17135 
L 433.245114 182.17135 
z
" style="fill:#871f78;opacity:0.35;"/>
   </g>
   <g id="patch_248">
    <path clip-path="url(#paabeb089f6)" d="M 434.689748 192.24 
L 435.845455 192.24 
L 435.845455 182.17135 
L 434.689748 182.17135 
z
" style="fill:#871f78;opacity:0.35;"/>
   </g>
   <g id="line2d_23">
    <path clip-path="url(#paabeb089f6)" d="M 90.0002 183.609729 
L 91.444833 185.048107 
L 92.889467 185.048107 
L 94.3341 174.979457 
L 95.778734 172.1027 
L 97.223367 172.1027 
L 100.112634 177.856214 
L 103.001901 177.856214 
L 104.446535 187.924864 
L 105.891168 190.801621 
L 107.335801 187.924864 
L 108.780435 189.363243 
L 110.225068 183.609729 
L 111.669702 186.486486 
L 113.114335 186.486486 
L 114.558969 183.609729 
L 116.003602 183.609729 
L 117.448236 186.486486 
L 118.892869 186.486486 
L 120.337503 190.801621 
L 123.22677 185.048107 
L 124.671403 187.924864 
L 129.005304 179.294593 
L 130.449937 179.294593 
L 131.894571 174.979457 
L 133.339204 177.856214 
L 134.783838 176.417836 
L 139.117738 185.048107 
L 140.562371 185.048107 
L 142.007005 189.363243 
L 143.451638 187.924864 
L 144.896272 189.363243 
L 150.674806 189.363243 
L 152.119439 187.924864 
L 155.008706 187.924864 
L 156.45334 186.486486 
L 157.897973 183.609729 
L 159.342607 183.609729 
L 160.78724 185.048107 
L 162.231874 187.924864 
L 163.676507 189.363243 
L 166.565774 189.363243 
L 168.010408 190.801621 
L 170.899675 190.801621 
L 172.344308 189.363243 
L 173.788941 189.363243 
L 175.233575 187.924864 
L 176.678208 189.363243 
L 182.456742 189.363243 
L 183.901376 187.924864 
L 186.790643 187.924864 
L 188.235276 189.363243 
L 192.569177 189.363243 
L 195.458444 192.24 
L 196.903077 190.801621 
L 199.792344 190.801621 
L 201.236978 186.486486 
L 204.126245 186.486486 
L 205.570878 185.048107 
L 208.460145 187.924864 
L 209.904778 187.924864 
L 211.349412 192.24 
L 214.238679 192.24 
L 215.683312 193.678379 
L 217.127946 193.678379 
L 218.572579 192.24 
L 227.24038 192.24 
L 228.685014 190.801621 
L 230.129647 187.924864 
L 238.797448 187.924864 
L 240.242082 190.801621 
L 246.020615 190.801621 
L 247.465249 187.924864 
L 248.909882 189.363243 
L 250.354516 187.924864 
L 263.356217 187.924864 
L 264.800851 185.048107 
L 266.245484 185.048107 
L 267.690118 186.486486 
L 269.134751 185.048107 
L 270.579385 186.486486 
L 273.468652 186.486486 
L 274.913285 189.363243 
L 276.357918 189.363243 
L 277.802552 190.801621 
L 280.691819 190.801621 
L 282.136452 189.363243 
L 290.804253 189.363243 
L 292.248887 190.801621 
L 296.582787 190.801621 
L 298.027421 189.363243 
L 299.472054 190.801621 
L 302.361321 187.924864 
L 306.695222 187.924864 
L 308.139855 189.363243 
L 309.584488 189.363243 
L 312.473755 192.24 
L 318.252289 192.24 
L 319.696923 189.363243 
L 321.141556 189.363243 
L 324.030823 186.486486 
L 325.475457 186.486486 
L 326.92009 185.048107 
L 328.364724 186.486486 
L 329.809357 189.363243 
L 331.253991 187.924864 
L 334.143258 190.801621 
L 335.587891 189.363243 
L 337.032525 190.801621 
L 338.477158 189.363243 
L 350.034226 189.363243 
L 351.478859 190.801621 
L 354.368126 190.801621 
L 355.81276 192.24 
L 357.257393 190.801621 
L 360.14666 190.801621 
L 361.591294 187.924864 
L 363.035927 187.924864 
L 364.480561 186.486486 
L 365.925194 186.486486 
L 367.369828 187.924864 
L 368.814461 187.924864 
L 370.259095 185.048107 
L 371.703728 186.486486 
L 373.148362 185.048107 
L 376.037629 185.048107 
L 377.482262 182.17135 
L 378.926895 180.732972 
L 380.371529 180.732972 
L 381.816162 177.856214 
L 383.260796 177.856214 
L 386.150063 174.979457 
L 387.594696 177.856214 
L 390.483963 180.732972 
L 391.928597 183.609729 
L 393.37323 182.17135 
L 394.817864 185.048107 
L 396.262497 185.048107 
L 397.707131 183.609729 
L 399.151764 179.294593 
L 400.596398 179.294593 
L 402.041031 177.856214 
L 403.485665 179.294593 
L 404.930298 176.417836 
L 407.819565 179.294593 
L 409.264199 183.609729 
L 410.708832 177.856214 
L 412.153465 179.294593 
L 413.598099 176.417836 
L 415.042732 179.294593 
L 419.376633 179.294593 
L 420.821266 186.486486 
L 422.2659 183.609729 
L 423.710533 183.609729 
L 425.155167 179.294593 
L 426.5998 179.294593 
L 428.044434 173.541079 
L 429.489067 169.225943 
L 430.933701 166.349186 
L 432.378334 166.349186 
L 435.267601 172.1027 
L 435.267601 172.1027 
" style="fill:none;stroke:#871f78;stroke-linecap:round;stroke-width:1.5;"/>
   </g>
   <g id="patch_249">
    <path d="M 63 192.24 
L 453.6 192.24 
" style="fill:none;stroke:#cccccc;stroke-linecap:square;stroke-linejoin:miter;"/>
   </g>
   <g id="text_16">
    <!-- 7-day -->
    <defs>
     <path d="M 12.796875 72.90625 
L 62.703125 72.90625 
L 61.8125 68.703125 
L 20.125 0 
L 9.28125 0 
L 48.6875 64.59375 
L 11.1875 64.59375 
z
" id="DejaVuSans-Oblique-55"/>
     <path d="M 6.109375 31.390625 
L 32.421875 31.390625 
L 30.90625 23.390625 
L 4.5 23.390625 
z
" id="DejaVuSans-Oblique-45"/>
     <path d="M 41.796875 8.203125 
Q 38.1875 3.46875 33.25 1.015625 
Q 28.328125 -1.421875 22.3125 -1.421875 
Q 14.109375 -1.421875 9.34375 4.171875 
Q 4.59375 9.765625 4.59375 19.484375 
Q 4.59375 27.59375 7.46875 34.9375 
Q 10.359375 42.28125 15.828125 48.09375 
Q 19.4375 51.953125 23.96875 53.96875 
Q 28.515625 56 33.5 56 
Q 38.765625 56 42.796875 53.453125 
Q 46.828125 50.921875 49.03125 46.1875 
L 54.890625 75.984375 
L 63.921875 75.984375 
L 49.125 0 
L 40.09375 0 
z
M 13.921875 21.09375 
Q 13.921875 14.015625 17.109375 10.0625 
Q 20.3125 6.109375 25.984375 6.109375 
Q 30.171875 6.109375 33.765625 8.125 
Q 37.359375 10.15625 40.09375 14.109375 
Q 42.96875 18.21875 44.625 23.578125 
Q 46.296875 28.953125 46.296875 34.1875 
Q 46.296875 40.96875 43.09375 44.765625 
Q 39.890625 48.578125 34.28125 48.578125 
Q 30.03125 48.578125 26.359375 46.578125 
Q 22.703125 44.578125 20.125 40.828125 
Q 17.28125 36.765625 15.59375 31.390625 
Q 13.921875 26.03125 13.921875 21.09375 
z
" id="DejaVuSans-Oblique-100"/>
     <path d="M 53.71875 31.203125 
L 47.609375 0 
L 38.625 0 
L 40.28125 8.296875 
Q 36.328125 3.421875 31.265625 1 
Q 26.21875 -1.421875 20.015625 -1.421875 
Q 13.03125 -1.421875 8.5625 2.84375 
Q 4.109375 7.125 4.109375 13.8125 
Q 4.109375 23.390625 11.75 28.953125 
Q 19.390625 34.515625 32.8125 34.515625 
L 45.3125 34.515625 
L 45.796875 36.921875 
Q 45.90625 37.3125 45.953125 37.765625 
Q 46 38.234375 46 39.203125 
Q 46 43.5625 42.453125 45.96875 
Q 38.921875 48.390625 32.515625 48.390625 
Q 28.125 48.390625 23.5 47.265625 
Q 18.890625 46.140625 14.015625 43.890625 
L 15.578125 52.203125 
Q 20.65625 54.109375 25.515625 55.046875 
Q 30.375 56 34.90625 56 
Q 44.578125 56 49.625 51.796875 
Q 54.6875 47.609375 54.6875 39.59375 
Q 54.6875 37.984375 54.4375 35.8125 
Q 54.203125 33.640625 53.71875 31.203125 
z
M 44 27.484375 
L 35.015625 27.484375 
Q 23.96875 27.484375 18.671875 24.53125 
Q 13.375 21.578125 13.375 15.375 
Q 13.375 11.078125 16.078125 8.640625 
Q 18.796875 6.203125 23.578125 6.203125 
Q 30.90625 6.203125 36.375 11.453125 
Q 41.84375 16.703125 43.609375 25.484375 
z
" id="DejaVuSans-Oblique-97"/>
     <path d="M 24.8125 -5.078125 
Q 18.5625 -15.578125 14.625 -18.1875 
Q 10.6875 -20.796875 4.59375 -20.796875 
L -2.484375 -20.796875 
L -0.984375 -13.28125 
L 4.203125 -13.28125 
Q 7.953125 -13.28125 10.59375 -11.234375 
Q 13.234375 -9.1875 16.5 -3.21875 
L 19.28125 2 
L 7.171875 54.6875 
L 16.703125 54.6875 
L 25.78125 12.796875 
L 50.875 54.6875 
L 60.296875 54.6875 
z
" id="DejaVuSans-Oblique-121"/>
    </defs>
    <g style="fill:#871f78;" transform="translate(439.601502 160.904888)scale(0.1 -0.1)">
     <use xlink:href="#DejaVuSans-Oblique-55"/>
     <use x="63.623047" xlink:href="#DejaVuSans-Oblique-45"/>
     <use x="99.707031" xlink:href="#DejaVuSans-Oblique-100"/>
     <use x="163.183594" xlink:href="#DejaVuSans-Oblique-97"/>
     <use x="224.462891" xlink:href="#DejaVuSans-Oblique-121"/>
    </g>
    <!-- avg. -->
    <defs>
     <path d="M 7.171875 54.6875 
L 16.703125 54.6875 
L 24.703125 8.203125 
L 50.875 54.6875 
L 60.40625 54.6875 
L 29.296875 0 
L 17.1875 0 
z
" id="DejaVuSans-Oblique-118"/>
     <path d="M 59.625 54.6875 
L 50.296875 6.78125 
Q 47.609375 -7.125 40.015625 -13.953125 
Q 32.421875 -20.796875 19.578125 -20.796875 
Q 14.84375 -20.796875 10.78125 -20.09375 
Q 6.734375 -19.390625 3.21875 -17.921875 
L 4.890625 -9.1875 
Q 8.203125 -11.328125 11.90625 -12.34375 
Q 15.625 -13.375 19.828125 -13.375 
Q 28.375 -13.375 33.859375 -8.703125 
Q 39.359375 -4.046875 41.109375 4.6875 
L 41.890625 8.796875 
Q 38.140625 4.5 33.15625 2.25 
Q 28.171875 0 22.40625 0 
Q 14.109375 0 9.34375 5.484375 
Q 4.59375 10.984375 4.59375 20.609375 
Q 4.59375 28.171875 7.46875 35.421875 
Q 10.359375 42.671875 15.578125 48.296875 
Q 19.046875 52 23.65625 54 
Q 28.265625 56 33.296875 56 
Q 38.8125 56 42.90625 53.4375 
Q 47.015625 50.875 49.03125 46.1875 
L 50.59375 54.6875 
z
M 46.09375 34.625 
Q 46.09375 41.265625 42.96875 44.875 
Q 39.84375 48.484375 34.078125 48.484375 
Q 30.515625 48.484375 27.296875 47.0625 
Q 24.078125 45.65625 21.78125 43.109375 
Q 18.0625 38.921875 15.984375 33.234375 
Q 13.921875 27.546875 13.921875 21.484375 
Q 13.921875 14.75 17.0625 11.125 
Q 20.21875 7.515625 26.125 7.515625 
Q 34.671875 7.515625 40.375 15.25 
Q 46.09375 23 46.09375 34.625 
z
" id="DejaVuSans-Oblique-103"/>
     <path d="M 8.203125 12.40625 
L 18.5 12.40625 
L 16.109375 0 
L 5.8125 0 
z
" id="DejaVuSans-Oblique-46"/>
    </defs>
    <g style="fill:#871f78;" transform="translate(439.601502 172.1027)scale(0.1 -0.1)">
     <use xlink:href="#DejaVuSans-Oblique-97"/>
     <use x="61.279297" xlink:href="#DejaVuSans-Oblique-118"/>
     <use x="120.458984" xlink:href="#DejaVuSans-Oblique-103"/>
     <use x="183.935547" xlink:href="#DejaVuSans-Oblique-46"/>
    </g>
   </g>
  </g>
 </g>
 <defs>
  <clipPath id="paabeb089f6">
   <rect height="166.32" width="390.6" x="63" y="25.92"/>
  </clipPath>
 </defs>
</svg>
