<?xml version="1.0" encoding="utf-8" standalone="no"?>
<!DOCTYPE svg PUBLIC "-//W3C//DTD SVG 1.1//EN"
  "http://www.w3.org/Graphics/SVG/1.1/DTD/svg11.dtd">
<!-- Created with matplotlib (https://matplotlib.org/) -->
<svg height="216pt" version="1.1" viewBox="0 0 504 216" width="504pt" xmlns="http://www.w3.org/2000/svg" xmlns:xlink="http://www.w3.org/1999/xlink">
 <defs>
  <style type="text/css">
*{stroke-linecap:butt;stroke-linejoin:round;}
  </style>
 </defs>
 <g id="figure_1">
  <g id="patch_1">
   <path d="M 0 216 
L 504 216 
L 504 0 
L 0 0 
z
" style="fill:#ffffff;"/>
  </g>
  <g id="axes_1">
   <g id="patch_2">
    <path d="M 63 189 
L 453.6 189 
L 453.6 43.2 
L 63 43.2 
z
" style="fill:#ffffff;"/>
   </g>
   <g id="matplotlib.axis_1">
    <g id="xtick_1">
     <g id="line2d_1"/>
     <g id="text_1">
      <!-- Mar -->
      <defs>
       <path d="M 9.8125 72.90625 
L 24.515625 72.90625 
L 43.109375 23.296875 
L 61.8125 72.90625 
L 76.515625 72.90625 
L 76.515625 0 
L 66.890625 0 
L 66.890625 64.015625 
L 48.09375 14.015625 
L 38.1875 14.015625 
L 19.390625 64.015625 
L 19.390625 0 
L 9.8125 0 
z
" id="DejaVuSans-77"/>
       <path d="M 34.28125 27.484375 
Q 23.390625 27.484375 19.1875 25 
Q 14.984375 22.515625 14.984375 16.5 
Q 14.984375 11.71875 18.140625 8.90625 
Q 21.296875 6.109375 26.703125 6.109375 
Q 34.1875 6.109375 38.703125 11.40625 
Q 43.21875 16.703125 43.21875 25.484375 
L 43.21875 27.484375 
z
M 52.203125 31.203125 
L 52.203125 0 
L 43.21875 0 
L 43.21875 8.296875 
Q 40.140625 3.328125 35.546875 0.953125 
Q 30.953125 -1.421875 24.3125 -1.421875 
Q 15.921875 -1.421875 10.953125 3.296875 
Q 6 8.015625 6 15.921875 
Q 6 25.140625 12.171875 29.828125 
Q 18.359375 34.515625 30.609375 34.515625 
L 43.21875 34.515625 
L 43.21875 35.40625 
Q 43.21875 41.609375 39.140625 45 
Q 35.0625 48.390625 27.6875 48.390625 
Q 23 48.390625 18.546875 47.265625 
Q 14.109375 46.140625 10.015625 43.890625 
L 10.015625 52.203125 
Q 14.9375 54.109375 19.578125 55.046875 
Q 24.21875 56 28.609375 56 
Q 40.484375 56 46.34375 49.84375 
Q 52.203125 43.703125 52.203125 31.203125 
z
" id="DejaVuSans-97"/>
       <path d="M 41.109375 46.296875 
Q 39.59375 47.171875 37.8125 47.578125 
Q 36.03125 48 33.890625 48 
Q 26.265625 48 22.1875 43.046875 
Q 18.109375 38.09375 18.109375 28.8125 
L 18.109375 0 
L 9.078125 0 
L 9.078125 54.6875 
L 18.109375 54.6875 
L 18.109375 46.1875 
Q 20.953125 51.171875 25.484375 53.578125 
Q 30.03125 56 36.53125 56 
Q 37.453125 56 38.578125 55.875 
Q 39.703125 55.765625 41.0625 55.515625 
z
" id="DejaVuSans-114"/>
      </defs>
      <g style="fill:#262626;" transform="translate(69.108547 200.098437)scale(0.1 -0.1)">
       <use xlink:href="#DejaVuSans-77"/>
       <use x="86.279297" xlink:href="#DejaVuSans-97"/>
       <use x="147.558594" xlink:href="#DejaVuSans-114"/>
      </g>
     </g>
    </g>
    <g id="xtick_2">
     <g id="line2d_2"/>
     <g id="text_2">
      <!-- Apr -->
      <defs>
       <path d="M 34.1875 63.1875 
L 20.796875 26.90625 
L 47.609375 26.90625 
z
M 28.609375 72.90625 
L 39.796875 72.90625 
L 67.578125 0 
L 57.328125 0 
L 50.6875 18.703125 
L 17.828125 18.703125 
L 11.1875 0 
L 0.78125 0 
z
" id="DejaVuSans-65"/>
       <path d="M 18.109375 8.203125 
L 18.109375 -20.796875 
L 9.078125 -20.796875 
L 9.078125 54.6875 
L 18.109375 54.6875 
L 18.109375 46.390625 
Q 20.953125 51.265625 25.265625 53.625 
Q 29.59375 56 35.59375 56 
Q 45.5625 56 51.78125 48.09375 
Q 58.015625 40.1875 58.015625 27.296875 
Q 58.015625 14.40625 51.78125 6.484375 
Q 45.5625 -1.421875 35.59375 -1.421875 
Q 29.59375 -1.421875 25.265625 0.953125 
Q 20.953125 3.328125 18.109375 8.203125 
z
M 48.6875 27.296875 
Q 48.6875 37.203125 44.609375 42.84375 
Q 40.53125 48.484375 33.40625 48.484375 
Q 26.265625 48.484375 22.1875 42.84375 
Q 18.109375 37.203125 18.109375 27.296875 
Q 18.109375 17.390625 22.1875 11.75 
Q 26.265625 6.109375 33.40625 6.109375 
Q 40.53125 6.109375 44.609375 11.75 
Q 48.6875 17.390625 48.6875 27.296875 
z
" id="DejaVuSans-112"/>
      </defs>
      <g style="fill:#262626;" transform="translate(112.757477 200.098437)scale(0.1 -0.1)">
       <use xlink:href="#DejaVuSans-65"/>
       <use x="68.408203" xlink:href="#DejaVuSans-112"/>
       <use x="131.884766" xlink:href="#DejaVuSans-114"/>
      </g>
     </g>
    </g>
    <g id="xtick_3">
     <g id="line2d_3"/>
     <g id="text_3">
      <!-- May -->
      <defs>
       <path d="M 32.171875 -5.078125 
Q 28.375 -14.84375 24.75 -17.8125 
Q 21.140625 -20.796875 15.09375 -20.796875 
L 7.90625 -20.796875 
L 7.90625 -13.28125 
L 13.1875 -13.28125 
Q 16.890625 -13.28125 18.9375 -11.515625 
Q 21 -9.765625 23.484375 -3.21875 
L 25.09375 0.875 
L 2.984375 54.6875 
L 12.5 54.6875 
L 29.59375 11.921875 
L 46.6875 54.6875 
L 56.203125 54.6875 
z
" id="DejaVuSans-121"/>
      </defs>
      <g style="fill:#262626;" transform="translate(152.552559 200.098437)scale(0.1 -0.1)">
       <use xlink:href="#DejaVuSans-77"/>
       <use x="86.279297" xlink:href="#DejaVuSans-97"/>
       <use x="147.558594" xlink:href="#DejaVuSans-121"/>
      </g>
     </g>
    </g>
    <g id="xtick_4">
     <g id="line2d_4"/>
     <g id="text_4">
      <!-- Jun -->
      <defs>
       <path d="M 9.8125 72.90625 
L 19.671875 72.90625 
L 19.671875 5.078125 
Q 19.671875 -8.109375 14.671875 -14.0625 
Q 9.671875 -20.015625 -1.421875 -20.015625 
L -5.171875 -20.015625 
L -5.171875 -11.71875 
L -2.09375 -11.71875 
Q 4.4375 -11.71875 7.125 -8.046875 
Q 9.8125 -4.390625 9.8125 5.078125 
z
" id="DejaVuSans-74"/>
       <path d="M 8.5 21.578125 
L 8.5 54.6875 
L 17.484375 54.6875 
L 17.484375 21.921875 
Q 17.484375 14.15625 20.5 10.265625 
Q 23.53125 6.390625 29.59375 6.390625 
Q 36.859375 6.390625 41.078125 11.03125 
Q 45.3125 15.671875 45.3125 23.6875 
L 45.3125 54.6875 
L 54.296875 54.6875 
L 54.296875 0 
L 45.3125 0 
L 45.3125 8.40625 
Q 42.046875 3.421875 37.71875 1 
Q 33.40625 -1.421875 27.6875 -1.421875 
Q 18.265625 -1.421875 13.375 4.4375 
Q 8.5 10.296875 8.5 21.578125 
z
M 31.109375 56 
z
" id="DejaVuSans-117"/>
       <path d="M 54.890625 33.015625 
L 54.890625 0 
L 45.90625 0 
L 45.90625 32.71875 
Q 45.90625 40.484375 42.875 44.328125 
Q 39.84375 48.1875 33.796875 48.1875 
Q 26.515625 48.1875 22.3125 43.546875 
Q 18.109375 38.921875 18.109375 30.90625 
L 18.109375 0 
L 9.078125 0 
L 9.078125 54.6875 
L 18.109375 54.6875 
L 18.109375 46.1875 
Q 21.34375 51.125 25.703125 53.5625 
Q 30.078125 56 35.796875 56 
Q 45.21875 56 50.046875 50.171875 
Q 54.890625 44.34375 54.890625 33.015625 
z
" id="DejaVuSans-110"/>
      </defs>
      <g style="fill:#262626;" transform="translate(197.942895 200.098437)scale(0.1 -0.1)">
       <use xlink:href="#DejaVuSans-74"/>
       <use x="29.492188" xlink:href="#DejaVuSans-117"/>
       <use x="92.871094" xlink:href="#DejaVuSans-110"/>
      </g>
     </g>
    </g>
    <g id="xtick_5">
     <g id="line2d_5"/>
     <g id="text_5">
      <!-- Jul -->
      <defs>
       <path d="M 9.421875 75.984375 
L 18.40625 75.984375 
L 18.40625 0 
L 9.421875 0 
z
" id="DejaVuSans-108"/>
      </defs>
      <g style="fill:#262626;" transform="translate(241.205165 200.098437)scale(0.1 -0.1)">
       <use xlink:href="#DejaVuSans-74"/>
       <use x="29.492188" xlink:href="#DejaVuSans-117"/>
       <use x="92.871094" xlink:href="#DejaVuSans-108"/>
      </g>
     </g>
    </g>
    <g id="xtick_6">
     <g id="line2d_6"/>
     <g id="text_6">
      <!-- Aug -->
      <defs>
       <path d="M 45.40625 27.984375 
Q 45.40625 37.75 41.375 43.109375 
Q 37.359375 48.484375 30.078125 48.484375 
Q 22.859375 48.484375 18.828125 43.109375 
Q 14.796875 37.75 14.796875 27.984375 
Q 14.796875 18.265625 18.828125 12.890625 
Q 22.859375 7.515625 30.078125 7.515625 
Q 37.359375 7.515625 41.375 12.890625 
Q 45.40625 18.265625 45.40625 27.984375 
z
M 54.390625 6.78125 
Q 54.390625 -7.171875 48.1875 -13.984375 
Q 42 -20.796875 29.203125 -20.796875 
Q 24.46875 -20.796875 20.265625 -20.09375 
Q 16.0625 -19.390625 12.109375 -17.921875 
L 12.109375 -9.1875 
Q 16.0625 -11.328125 19.921875 -12.34375 
Q 23.78125 -13.375 27.78125 -13.375 
Q 36.625 -13.375 41.015625 -8.765625 
Q 45.40625 -4.15625 45.40625 5.171875 
L 45.40625 9.625 
Q 42.625 4.78125 38.28125 2.390625 
Q 33.9375 0 27.875 0 
Q 17.828125 0 11.671875 7.65625 
Q 5.515625 15.328125 5.515625 27.984375 
Q 5.515625 40.671875 11.671875 48.328125 
Q 17.828125 56 27.875 56 
Q 33.9375 56 38.28125 53.609375 
Q 42.625 51.21875 45.40625 46.390625 
L 45.40625 54.6875 
L 54.390625 54.6875 
z
" id="DejaVuSans-103"/>
      </defs>
      <g style="fill:#262626;" transform="translate(280.340032 200.098437)scale(0.1 -0.1)">
       <use xlink:href="#DejaVuSans-65"/>
       <use x="68.408203" xlink:href="#DejaVuSans-117"/>
       <use x="131.787109" xlink:href="#DejaVuSans-103"/>
      </g>
     </g>
    </g>
    <g id="xtick_7">
     <g id="line2d_7"/>
     <g id="text_7">
      <!-- Sep -->
      <defs>
       <path d="M 53.515625 70.515625 
L 53.515625 60.890625 
Q 47.90625 63.578125 42.921875 64.890625 
Q 37.9375 66.21875 33.296875 66.21875 
Q 25.25 66.21875 20.875 63.09375 
Q 16.5 59.96875 16.5 54.203125 
Q 16.5 49.359375 19.40625 46.890625 
Q 22.3125 44.4375 30.421875 42.921875 
L 36.375 41.703125 
Q 47.40625 39.59375 52.65625 34.296875 
Q 57.90625 29 57.90625 20.125 
Q 57.90625 9.515625 50.796875 4.046875 
Q 43.703125 -1.421875 29.984375 -1.421875 
Q 24.8125 -1.421875 18.96875 -0.25 
Q 13.140625 0.921875 6.890625 3.21875 
L 6.890625 13.375 
Q 12.890625 10.015625 18.65625 8.296875 
Q 24.421875 6.59375 29.984375 6.59375 
Q 38.421875 6.59375 43.015625 9.90625 
Q 47.609375 13.234375 47.609375 19.390625 
Q 47.609375 24.75 44.3125 27.78125 
Q 41.015625 30.8125 33.5 32.328125 
L 27.484375 33.5 
Q 16.453125 35.6875 11.515625 40.375 
Q 6.59375 45.0625 6.59375 53.421875 
Q 6.59375 63.09375 13.40625 68.65625 
Q 20.21875 74.21875 32.171875 74.21875 
Q 37.3125 74.21875 42.625 73.28125 
Q 47.953125 72.359375 53.515625 70.515625 
z
" id="DejaVuSans-83"/>
       <path d="M 56.203125 29.59375 
L 56.203125 25.203125 
L 14.890625 25.203125 
Q 15.484375 15.921875 20.484375 11.0625 
Q 25.484375 6.203125 34.421875 6.203125 
Q 39.59375 6.203125 44.453125 7.46875 
Q 49.3125 8.734375 54.109375 11.28125 
L 54.109375 2.78125 
Q 49.265625 0.734375 44.1875 -0.34375 
Q 39.109375 -1.421875 33.890625 -1.421875 
Q 20.796875 -1.421875 13.15625 6.1875 
Q 5.515625 13.8125 5.515625 26.8125 
Q 5.515625 40.234375 12.765625 48.109375 
Q 20.015625 56 32.328125 56 
Q 43.359375 56 49.78125 48.890625 
Q 56.203125 41.796875 56.203125 29.59375 
z
M 47.21875 32.234375 
Q 47.125 39.59375 43.09375 43.984375 
Q 39.0625 48.390625 32.421875 48.390625 
Q 24.90625 48.390625 20.390625 44.140625 
Q 15.875 39.890625 15.1875 32.171875 
z
" id="DejaVuSans-101"/>
      </defs>
      <g style="fill:#262626;" transform="translate(323.543649 200.098437)scale(0.1 -0.1)">
       <use xlink:href="#DejaVuSans-83"/>
       <use x="63.476562" xlink:href="#DejaVuSans-101"/>
       <use x="125" xlink:href="#DejaVuSans-112"/>
      </g>
     </g>
    </g>
    <g id="xtick_8">
     <g id="line2d_8"/>
     <g id="text_8">
      <!-- Oct -->
      <defs>
       <path d="M 39.40625 66.21875 
Q 28.65625 66.21875 22.328125 58.203125 
Q 16.015625 50.203125 16.015625 36.375 
Q 16.015625 22.609375 22.328125 14.59375 
Q 28.65625 6.59375 39.40625 6.59375 
Q 50.140625 6.59375 56.421875 14.59375 
Q 62.703125 22.609375 62.703125 36.375 
Q 62.703125 50.203125 56.421875 58.203125 
Q 50.140625 66.21875 39.40625 66.21875 
z
M 39.40625 74.21875 
Q 54.734375 74.21875 63.90625 63.9375 
Q 73.09375 53.65625 73.09375 36.375 
Q 73.09375 19.140625 63.90625 8.859375 
Q 54.734375 -1.421875 39.40625 -1.421875 
Q 24.03125 -1.421875 14.8125 8.828125 
Q 5.609375 19.09375 5.609375 36.375 
Q 5.609375 53.65625 14.8125 63.9375 
Q 24.03125 74.21875 39.40625 74.21875 
z
" id="DejaVuSans-79"/>
       <path d="M 48.78125 52.59375 
L 48.78125 44.1875 
Q 44.96875 46.296875 41.140625 47.34375 
Q 37.3125 48.390625 33.40625 48.390625 
Q 24.65625 48.390625 19.8125 42.84375 
Q 14.984375 37.3125 14.984375 27.296875 
Q 14.984375 17.28125 19.8125 11.734375 
Q 24.65625 6.203125 33.40625 6.203125 
Q 37.3125 6.203125 41.140625 7.25 
Q 44.96875 8.296875 48.78125 10.40625 
L 48.78125 2.09375 
Q 45.015625 0.34375 40.984375 -0.53125 
Q 36.96875 -1.421875 32.421875 -1.421875 
Q 20.0625 -1.421875 12.78125 6.34375 
Q 5.515625 14.109375 5.515625 27.296875 
Q 5.515625 40.671875 12.859375 48.328125 
Q 20.21875 56 33.015625 56 
Q 37.15625 56 41.109375 55.140625 
Q 45.0625 54.296875 48.78125 52.59375 
z
" id="DejaVuSans-99"/>
       <path d="M 18.3125 70.21875 
L 18.3125 54.6875 
L 36.8125 54.6875 
L 36.8125 47.703125 
L 18.3125 47.703125 
L 18.3125 18.015625 
Q 18.3125 11.328125 20.140625 9.421875 
Q 21.96875 7.515625 27.59375 7.515625 
L 36.8125 7.515625 
L 36.8125 0 
L 27.59375 0 
Q 17.1875 0 13.234375 3.875 
Q 9.28125 7.765625 9.28125 18.015625 
L 9.28125 47.703125 
L 2.6875 47.703125 
L 2.6875 54.6875 
L 9.28125 54.6875 
L 9.28125 70.21875 
z
" id="DejaVuSans-116"/>
      </defs>
      <g style="fill:#262626;" transform="translate(365.805919 200.098437)scale(0.1 -0.1)">
       <use xlink:href="#DejaVuSans-79"/>
       <use x="78.710938" xlink:href="#DejaVuSans-99"/>
       <use x="133.691406" xlink:href="#DejaVuSans-116"/>
      </g>
     </g>
    </g>
    <g id="xtick_9">
     <g id="line2d_9"/>
     <g id="text_9">
      <!-- Nov -->
      <defs>
       <path d="M 9.8125 72.90625 
L 23.09375 72.90625 
L 55.421875 11.921875 
L 55.421875 72.90625 
L 64.984375 72.90625 
L 64.984375 0 
L 51.703125 0 
L 19.390625 60.984375 
L 19.390625 0 
L 9.8125 0 
z
" id="DejaVuSans-78"/>
       <path d="M 30.609375 48.390625 
Q 23.390625 48.390625 19.1875 42.75 
Q 14.984375 37.109375 14.984375 27.296875 
Q 14.984375 17.484375 19.15625 11.84375 
Q 23.34375 6.203125 30.609375 6.203125 
Q 37.796875 6.203125 41.984375 11.859375 
Q 46.1875 17.53125 46.1875 27.296875 
Q 46.1875 37.015625 41.984375 42.703125 
Q 37.796875 48.390625 30.609375 48.390625 
z
M 30.609375 56 
Q 42.328125 56 49.015625 48.375 
Q 55.71875 40.765625 55.71875 27.296875 
Q 55.71875 13.875 49.015625 6.21875 
Q 42.328125 -1.421875 30.609375 -1.421875 
Q 18.84375 -1.421875 12.171875 6.21875 
Q 5.515625 13.875 5.515625 27.296875 
Q 5.515625 40.765625 12.171875 48.375 
Q 18.84375 56 30.609375 56 
z
" id="DejaVuSans-111"/>
       <path d="M 2.984375 54.6875 
L 12.5 54.6875 
L 29.59375 8.796875 
L 46.6875 54.6875 
L 56.203125 54.6875 
L 35.6875 0 
L 23.484375 0 
z
" id="DejaVuSans-118"/>
      </defs>
      <g style="fill:#262626;" transform="translate(407.557193 200.098437)scale(0.1 -0.1)">
       <use xlink:href="#DejaVuSans-78"/>
       <use x="74.804688" xlink:href="#DejaVuSans-111"/>
       <use x="135.986328" xlink:href="#DejaVuSans-118"/>
      </g>
     </g>
    </g>
   </g>
   <g id="matplotlib.axis_2">
    <g id="ytick_1">
     <g id="line2d_10">
      <path clip-path="url(#p275abc1595)" d="M 63 189 
L 453.6 189 
" style="fill:none;stroke:#cccccc;stroke-linecap:round;stroke-width:0.8;"/>
     </g>
     <g id="line2d_11"/>
     <g id="text_10">
      <!--  0 -->
      <defs>
       <path id="DejaVuSans-32"/>
       <path d="M 31.78125 66.40625 
Q 24.171875 66.40625 20.328125 58.90625 
Q 16.5 51.421875 16.5 36.375 
Q 16.5 21.390625 20.328125 13.890625 
Q 24.171875 6.390625 31.78125 6.390625 
Q 39.453125 6.390625 43.28125 13.890625 
Q 47.125 21.390625 47.125 36.375 
Q 47.125 51.421875 43.28125 58.90625 
Q 39.453125 66.40625 31.78125 66.40625 
z
M 31.78125 74.21875 
Q 44.046875 74.21875 50.515625 64.515625 
Q 56.984375 54.828125 56.984375 36.375 
Q 56.984375 17.96875 50.515625 8.265625 
Q 44.046875 -1.421875 31.78125 -1.421875 
Q 19.53125 -1.421875 13.0625 8.265625 
Q 6.59375 17.96875 6.59375 36.375 
Q 6.59375 54.828125 13.0625 64.515625 
Q 19.53125 74.21875 31.78125 74.21875 
z
" id="DejaVuSans-48"/>
      </defs>
      <g style="fill:#262626;" transform="translate(49.959375 192.799219)scale(0.1 -0.1)">
       <use xlink:href="#DejaVuSans-32"/>
       <use x="31.787109" xlink:href="#DejaVuSans-48"/>
      </g>
     </g>
    </g>
    <g id="ytick_2">
     <g id="line2d_12">
      <path clip-path="url(#p275abc1595)" d="M 63 152.55 
L 453.6 152.55 
" style="fill:none;stroke:#cccccc;stroke-linecap:round;stroke-width:0.8;"/>
     </g>
     <g id="line2d_13"/>
     <g id="text_11">
      <!--  5 -->
      <defs>
       <path d="M 10.796875 72.90625 
L 49.515625 72.90625 
L 49.515625 64.59375 
L 19.828125 64.59375 
L 19.828125 46.734375 
Q 21.96875 47.46875 24.109375 47.828125 
Q 26.265625 48.1875 28.421875 48.1875 
Q 40.625 48.1875 47.75 41.5 
Q 54.890625 34.8125 54.890625 23.390625 
Q 54.890625 11.625 47.5625 5.09375 
Q 40.234375 -1.421875 26.90625 -1.421875 
Q 22.3125 -1.421875 17.546875 -0.640625 
Q 12.796875 0.140625 7.71875 1.703125 
L 7.71875 11.625 
Q 12.109375 9.234375 16.796875 8.0625 
Q 21.484375 6.890625 26.703125 6.890625 
Q 35.15625 6.890625 40.078125 11.328125 
Q 45.015625 15.765625 45.015625 23.390625 
Q 45.015625 31 40.078125 35.4375 
Q 35.15625 39.890625 26.703125 39.890625 
Q 22.75 39.890625 18.8125 39.015625 
Q 14.890625 38.140625 10.796875 36.28125 
z
" id="DejaVuSans-53"/>
      </defs>
      <g style="fill:#262626;" transform="translate(49.959375 156.349219)scale(0.1 -0.1)">
       <use xlink:href="#DejaVuSans-32"/>
       <use x="31.787109" xlink:href="#DejaVuSans-53"/>
      </g>
     </g>
    </g>
    <g id="ytick_3">
     <g id="line2d_14">
      <path clip-path="url(#p275abc1595)" d="M 63 116.1 
L 453.6 116.1 
" style="fill:none;stroke:#cccccc;stroke-linecap:round;stroke-width:0.8;"/>
     </g>
     <g id="line2d_15"/>
     <g id="text_12">
      <!--  10 -->
      <defs>
       <path d="M 12.40625 8.296875 
L 28.515625 8.296875 
L 28.515625 63.921875 
L 10.984375 60.40625 
L 10.984375 69.390625 
L 28.421875 72.90625 
L 38.28125 72.90625 
L 38.28125 8.296875 
L 54.390625 8.296875 
L 54.390625 0 
L 12.40625 0 
z
" id="DejaVuSans-49"/>
      </defs>
      <g style="fill:#262626;" transform="translate(43.596875 119.899219)scale(0.1 -0.1)">
       <use xlink:href="#DejaVuSans-32"/>
       <use x="31.787109" xlink:href="#DejaVuSans-49"/>
       <use x="95.410156" xlink:href="#DejaVuSans-48"/>
      </g>
     </g>
    </g>
    <g id="ytick_4">
     <g id="line2d_16">
      <path clip-path="url(#p275abc1595)" d="M 63 79.65 
L 453.6 79.65 
" style="fill:none;stroke:#cccccc;stroke-linecap:round;stroke-width:0.8;"/>
     </g>
     <g id="line2d_17"/>
     <g id="text_13">
      <!--  15 -->
      <g style="fill:#262626;" transform="translate(43.596875 83.449219)scale(0.1 -0.1)">
       <use xlink:href="#DejaVuSans-32"/>
       <use x="31.787109" xlink:href="#DejaVuSans-49"/>
       <use x="95.410156" xlink:href="#DejaVuSans-53"/>
      </g>
     </g>
    </g>
    <g id="ytick_5">
     <g id="line2d_18">
      <path clip-path="url(#p275abc1595)" d="M 63 43.2 
L 453.6 43.2 
" style="fill:none;stroke:#cccccc;stroke-linecap:round;stroke-width:0.8;"/>
     </g>
     <g id="line2d_19"/>
     <g id="text_14">
      <!--  20 -->
      <defs>
       <path d="M 19.1875 8.296875 
L 53.609375 8.296875 
L 53.609375 0 
L 7.328125 0 
L 7.328125 8.296875 
Q 12.9375 14.109375 22.625 23.890625 
Q 32.328125 33.6875 34.8125 36.53125 
Q 39.546875 41.84375 41.421875 45.53125 
Q 43.3125 49.21875 43.3125 52.78125 
Q 43.3125 58.59375 39.234375 62.25 
Q 35.15625 65.921875 28.609375 65.921875 
Q 23.96875 65.921875 18.8125 64.3125 
Q 13.671875 62.703125 7.8125 59.421875 
L 7.8125 69.390625 
Q 13.765625 71.78125 18.9375 73 
Q 24.125 74.21875 28.421875 74.21875 
Q 39.75 74.21875 46.484375 68.546875 
Q 53.21875 62.890625 53.21875 53.421875 
Q 53.21875 48.921875 51.53125 44.890625 
Q 49.859375 40.875 45.40625 35.40625 
Q 44.1875 33.984375 37.640625 27.21875 
Q 31.109375 20.453125 19.1875 8.296875 
z
" id="DejaVuSans-50"/>
      </defs>
      <g style="fill:#262626;" transform="translate(43.596875 46.999219)scale(0.1 -0.1)">
       <use xlink:href="#DejaVuSans-32"/>
       <use x="31.787109" xlink:href="#DejaVuSans-50"/>
       <use x="95.410156" xlink:href="#DejaVuSans-48"/>
      </g>
     </g>
    </g>
   </g>
   <g id="patch_3">
    <path clip-path="url(#p275abc1595)" d="M 80.754545 189 
L 81.860748 189 
L 81.860748 181.71 
L 80.754545 181.71 
z
" style="fill:#1f77b4;opacity:0.35;"/>
   </g>
   <g id="patch_4">
    <path clip-path="url(#p275abc1595)" d="M 82.137298 189 
L 83.2435 189 
L 83.2435 189 
L 82.137298 189 
z
" style="fill:#1f77b4;opacity:0.35;"/>
   </g>
   <g id="patch_5">
    <path clip-path="url(#p275abc1595)" d="M 83.520051 189 
L 84.626253 189 
L 84.626253 189 
L 83.520051 189 
z
" style="fill:#1f77b4;opacity:0.35;"/>
   </g>
   <g id="patch_6">
    <path clip-path="url(#p275abc1595)" d="M 84.902804 189 
L 86.009006 189 
L 86.009006 189 
L 84.902804 189 
z
" style="fill:#1f77b4;opacity:0.35;"/>
   </g>
   <g id="patch_7">
    <path clip-path="url(#p275abc1595)" d="M 86.285556 189 
L 87.391759 189 
L 87.391759 181.71 
L 86.285556 181.71 
z
" style="fill:#1f77b4;opacity:0.35;"/>
   </g>
   <g id="patch_8">
    <path clip-path="url(#p275abc1595)" d="M 87.668309 189 
L 88.774511 189 
L 88.774511 189 
L 87.668309 189 
z
" style="fill:#1f77b4;opacity:0.35;"/>
   </g>
   <g id="patch_9">
    <path clip-path="url(#p275abc1595)" d="M 89.051062 189 
L 90.157264 189 
L 90.157264 189 
L 89.051062 189 
z
" style="fill:#1f77b4;opacity:0.35;"/>
   </g>
   <g id="patch_10">
    <path clip-path="url(#p275abc1595)" d="M 90.433815 189 
L 91.540017 189 
L 91.540017 189 
L 90.433815 189 
z
" style="fill:#1f77b4;opacity:0.35;"/>
   </g>
   <g id="patch_11">
    <path clip-path="url(#p275abc1595)" d="M 91.816568 189 
L 92.92277 189 
L 92.92277 189 
L 91.816568 189 
z
" style="fill:#1f77b4;opacity:0.35;"/>
   </g>
   <g id="patch_12">
    <path clip-path="url(#p275abc1595)" d="M 93.19932 189 
L 94.305523 189 
L 94.305523 189 
L 93.19932 189 
z
" style="fill:#1f77b4;opacity:0.35;"/>
   </g>
   <g id="patch_13">
    <path clip-path="url(#p275abc1595)" d="M 94.582073 189 
L 95.688275 189 
L 95.688275 189 
L 94.582073 189 
z
" style="fill:#1f77b4;opacity:0.35;"/>
   </g>
   <g id="patch_14">
    <path clip-path="url(#p275abc1595)" d="M 95.964826 189 
L 97.071028 189 
L 97.071028 189 
L 95.964826 189 
z
" style="fill:#1f77b4;opacity:0.35;"/>
   </g>
   <g id="patch_15">
    <path clip-path="url(#p275abc1595)" d="M 97.347579 189 
L 98.453781 189 
L 98.453781 189 
L 97.347579 189 
z
" style="fill:#1f77b4;opacity:0.35;"/>
   </g>
   <g id="patch_16">
    <path clip-path="url(#p275abc1595)" d="M 98.730331 189 
L 99.836534 189 
L 99.836534 174.42 
L 98.730331 174.42 
z
" style="fill:#1f77b4;opacity:0.35;"/>
   </g>
   <g id="patch_17">
    <path clip-path="url(#p275abc1595)" d="M 100.113084 189 
L 101.219286 189 
L 101.219286 174.42 
L 100.113084 174.42 
z
" style="fill:#1f77b4;opacity:0.35;"/>
   </g>
   <g id="patch_18">
    <path clip-path="url(#p275abc1595)" d="M 101.495837 189 
L 102.602039 189 
L 102.602039 189 
L 101.495837 189 
z
" style="fill:#1f77b4;opacity:0.35;"/>
   </g>
   <g id="patch_19">
    <path clip-path="url(#p275abc1595)" d="M 102.87859 189 
L 103.984792 189 
L 103.984792 174.42 
L 102.87859 174.42 
z
" style="fill:#1f77b4;opacity:0.35;"/>
   </g>
   <g id="patch_20">
    <path clip-path="url(#p275abc1595)" d="M 104.261342 189 
L 105.367545 189 
L 105.367545 159.84 
L 104.261342 159.84 
z
" style="fill:#1f77b4;opacity:0.35;"/>
   </g>
   <g id="patch_21">
    <path clip-path="url(#p275abc1595)" d="M 105.644095 189 
L 106.750297 189 
L 106.750297 181.71 
L 105.644095 181.71 
z
" style="fill:#1f77b4;opacity:0.35;"/>
   </g>
   <g id="patch_22">
    <path clip-path="url(#p275abc1595)" d="M 107.026848 189 
L 108.13305 189 
L 108.13305 181.71 
L 107.026848 181.71 
z
" style="fill:#1f77b4;opacity:0.35;"/>
   </g>
   <g id="patch_23">
    <path clip-path="url(#p275abc1595)" d="M 108.409601 189 
L 109.515803 189 
L 109.515803 152.55 
L 108.409601 152.55 
z
" style="fill:#1f77b4;opacity:0.35;"/>
   </g>
   <g id="patch_24">
    <path clip-path="url(#p275abc1595)" d="M 109.792353 189 
L 110.898556 189 
L 110.898556 181.71 
L 109.792353 181.71 
z
" style="fill:#1f77b4;opacity:0.35;"/>
   </g>
   <g id="patch_25">
    <path clip-path="url(#p275abc1595)" d="M 111.175106 189 
L 112.281308 189 
L 112.281308 181.71 
L 111.175106 181.71 
z
" style="fill:#1f77b4;opacity:0.35;"/>
   </g>
   <g id="patch_26">
    <path clip-path="url(#p275abc1595)" d="M 112.557859 189 
L 113.664061 189 
L 113.664061 181.71 
L 112.557859 181.71 
z
" style="fill:#1f77b4;opacity:0.35;"/>
   </g>
   <g id="patch_27">
    <path clip-path="url(#p275abc1595)" d="M 113.940612 189 
L 115.046814 189 
L 115.046814 167.13 
L 113.940612 167.13 
z
" style="fill:#1f77b4;opacity:0.35;"/>
   </g>
   <g id="patch_28">
    <path clip-path="url(#p275abc1595)" d="M 115.323364 189 
L 116.429567 189 
L 116.429567 174.42 
L 115.323364 174.42 
z
" style="fill:#1f77b4;opacity:0.35;"/>
   </g>
   <g id="patch_29">
    <path clip-path="url(#p275abc1595)" d="M 116.706117 189 
L 117.812319 189 
L 117.812319 174.42 
L 116.706117 174.42 
z
" style="fill:#1f77b4;opacity:0.35;"/>
   </g>
   <g id="patch_30">
    <path clip-path="url(#p275abc1595)" d="M 118.08887 189 
L 119.195072 189 
L 119.195072 152.55 
L 118.08887 152.55 
z
" style="fill:#1f77b4;opacity:0.35;"/>
   </g>
   <g id="patch_31">
    <path clip-path="url(#p275abc1595)" d="M 119.471623 189 
L 120.577825 189 
L 120.577825 189 
L 119.471623 189 
z
" style="fill:#1f77b4;opacity:0.35;"/>
   </g>
   <g id="patch_32">
    <path clip-path="url(#p275abc1595)" d="M 120.854376 189 
L 121.960578 189 
L 121.960578 181.71 
L 120.854376 181.71 
z
" style="fill:#1f77b4;opacity:0.35;"/>
   </g>
   <g id="patch_33">
    <path clip-path="url(#p275abc1595)" d="M 122.237128 189 
L 123.343331 189 
L 123.343331 174.42 
L 122.237128 174.42 
z
" style="fill:#1f77b4;opacity:0.35;"/>
   </g>
   <g id="patch_34">
    <path clip-path="url(#p275abc1595)" d="M 123.619881 189 
L 124.726083 189 
L 124.726083 189 
L 123.619881 189 
z
" style="fill:#1f77b4;opacity:0.35;"/>
   </g>
   <g id="patch_35">
    <path clip-path="url(#p275abc1595)" d="M 125.002634 189 
L 126.108836 189 
L 126.108836 167.13 
L 125.002634 167.13 
z
" style="fill:#1f77b4;opacity:0.35;"/>
   </g>
   <g id="patch_36">
    <path clip-path="url(#p275abc1595)" d="M 126.385387 189 
L 127.491589 189 
L 127.491589 189 
L 126.385387 189 
z
" style="fill:#1f77b4;opacity:0.35;"/>
   </g>
   <g id="patch_37">
    <path clip-path="url(#p275abc1595)" d="M 127.768139 189 
L 128.874342 189 
L 128.874342 189 
L 127.768139 189 
z
" style="fill:#1f77b4;opacity:0.35;"/>
   </g>
   <g id="patch_38">
    <path clip-path="url(#p275abc1595)" d="M 129.150892 189 
L 130.257094 189 
L 130.257094 189 
L 129.150892 189 
z
" style="fill:#1f77b4;opacity:0.35;"/>
   </g>
   <g id="patch_39">
    <path clip-path="url(#p275abc1595)" d="M 130.533645 189 
L 131.639847 189 
L 131.639847 174.42 
L 130.533645 174.42 
z
" style="fill:#1f77b4;opacity:0.35;"/>
   </g>
   <g id="patch_40">
    <path clip-path="url(#p275abc1595)" d="M 131.916398 189 
L 133.0226 189 
L 133.0226 189 
L 131.916398 189 
z
" style="fill:#1f77b4;opacity:0.35;"/>
   </g>
   <g id="patch_41">
    <path clip-path="url(#p275abc1595)" d="M 133.29915 189 
L 134.405353 189 
L 134.405353 189 
L 133.29915 189 
z
" style="fill:#1f77b4;opacity:0.35;"/>
   </g>
   <g id="patch_42">
    <path clip-path="url(#p275abc1595)" d="M 134.681903 189 
L 135.788105 189 
L 135.788105 189 
L 134.681903 189 
z
" style="fill:#1f77b4;opacity:0.35;"/>
   </g>
   <g id="patch_43">
    <path clip-path="url(#p275abc1595)" d="M 136.064656 189 
L 137.170858 189 
L 137.170858 174.42 
L 136.064656 174.42 
z
" style="fill:#1f77b4;opacity:0.35;"/>
   </g>
   <g id="patch_44">
    <path clip-path="url(#p275abc1595)" d="M 137.447409 189 
L 138.553611 189 
L 138.553611 189 
L 137.447409 189 
z
" style="fill:#1f77b4;opacity:0.35;"/>
   </g>
   <g id="patch_45">
    <path clip-path="url(#p275abc1595)" d="M 138.830161 189 
L 139.936364 189 
L 139.936364 189 
L 138.830161 189 
z
" style="fill:#1f77b4;opacity:0.35;"/>
   </g>
   <g id="patch_46">
    <path clip-path="url(#p275abc1595)" d="M 140.212914 189 
L 141.319116 189 
L 141.319116 196.29 
L 140.212914 196.29 
z
" style="fill:#1f77b4;opacity:0.35;"/>
   </g>
   <g id="patch_47">
    <path clip-path="url(#p275abc1595)" d="M 141.595667 189 
L 142.701869 189 
L 142.701869 189 
L 141.595667 189 
z
" style="fill:#1f77b4;opacity:0.35;"/>
   </g>
   <g id="patch_48">
    <path clip-path="url(#p275abc1595)" d="M 142.97842 189 
L 144.084622 189 
L 144.084622 189 
L 142.97842 189 
z
" style="fill:#1f77b4;opacity:0.35;"/>
   </g>
   <g id="patch_49">
    <path clip-path="url(#p275abc1595)" d="M 144.361172 189 
L 145.467375 189 
L 145.467375 181.71 
L 144.361172 181.71 
z
" style="fill:#1f77b4;opacity:0.35;"/>
   </g>
   <g id="patch_50">
    <path clip-path="url(#p275abc1595)" d="M 145.743925 189 
L 146.850127 189 
L 146.850127 189 
L 145.743925 189 
z
" style="fill:#1f77b4;opacity:0.35;"/>
   </g>
   <g id="patch_51">
    <path clip-path="url(#p275abc1595)" d="M 147.126678 189 
L 148.23288 189 
L 148.23288 189 
L 147.126678 189 
z
" style="fill:#1f77b4;opacity:0.35;"/>
   </g>
   <g id="patch_52">
    <path clip-path="url(#p275abc1595)" d="M 148.509431 189 
L 149.615633 189 
L 149.615633 189 
L 148.509431 189 
z
" style="fill:#1f77b4;opacity:0.35;"/>
   </g>
   <g id="patch_53">
    <path clip-path="url(#p275abc1595)" d="M 149.892184 189 
L 150.998386 189 
L 150.998386 189 
L 149.892184 189 
z
" style="fill:#1f77b4;opacity:0.35;"/>
   </g>
   <g id="patch_54">
    <path clip-path="url(#p275abc1595)" d="M 151.274936 189 
L 152.381138 189 
L 152.381138 181.71 
L 151.274936 181.71 
z
" style="fill:#1f77b4;opacity:0.35;"/>
   </g>
   <g id="patch_55">
    <path clip-path="url(#p275abc1595)" d="M 152.657689 189 
L 153.763891 189 
L 153.763891 181.71 
L 152.657689 181.71 
z
" style="fill:#1f77b4;opacity:0.35;"/>
   </g>
   <g id="patch_56">
    <path clip-path="url(#p275abc1595)" d="M 154.040442 189 
L 155.146644 189 
L 155.146644 189 
L 154.040442 189 
z
" style="fill:#1f77b4;opacity:0.35;"/>
   </g>
   <g id="patch_57">
    <path clip-path="url(#p275abc1595)" d="M 155.423195 189 
L 156.529397 189 
L 156.529397 181.71 
L 155.423195 181.71 
z
" style="fill:#1f77b4;opacity:0.35;"/>
   </g>
   <g id="patch_58">
    <path clip-path="url(#p275abc1595)" d="M 156.805947 189 
L 157.91215 189 
L 157.91215 189 
L 156.805947 189 
z
" style="fill:#1f77b4;opacity:0.35;"/>
   </g>
   <g id="patch_59">
    <path clip-path="url(#p275abc1595)" d="M 158.1887 189 
L 159.294902 189 
L 159.294902 189 
L 158.1887 189 
z
" style="fill:#1f77b4;opacity:0.35;"/>
   </g>
   <g id="patch_60">
    <path clip-path="url(#p275abc1595)" d="M 159.571453 189 
L 160.677655 189 
L 160.677655 189 
L 159.571453 189 
z
" style="fill:#1f77b4;opacity:0.35;"/>
   </g>
   <g id="patch_61">
    <path clip-path="url(#p275abc1595)" d="M 160.954206 189 
L 162.060408 189 
L 162.060408 174.42 
L 160.954206 174.42 
z
" style="fill:#1f77b4;opacity:0.35;"/>
   </g>
   <g id="patch_62">
    <path clip-path="url(#p275abc1595)" d="M 162.336958 189 
L 163.443161 189 
L 163.443161 181.71 
L 162.336958 181.71 
z
" style="fill:#1f77b4;opacity:0.35;"/>
   </g>
   <g id="patch_63">
    <path clip-path="url(#p275abc1595)" d="M 163.719711 189 
L 164.825913 189 
L 164.825913 174.42 
L 163.719711 174.42 
z
" style="fill:#1f77b4;opacity:0.35;"/>
   </g>
   <g id="patch_64">
    <path clip-path="url(#p275abc1595)" d="M 165.102464 189 
L 166.208666 189 
L 166.208666 189 
L 165.102464 189 
z
" style="fill:#1f77b4;opacity:0.35;"/>
   </g>
   <g id="patch_65">
    <path clip-path="url(#p275abc1595)" d="M 166.485217 189 
L 167.591419 189 
L 167.591419 189 
L 166.485217 189 
z
" style="fill:#1f77b4;opacity:0.35;"/>
   </g>
   <g id="patch_66">
    <path clip-path="url(#p275abc1595)" d="M 167.867969 189 
L 168.974172 189 
L 168.974172 181.71 
L 167.867969 181.71 
z
" style="fill:#1f77b4;opacity:0.35;"/>
   </g>
   <g id="patch_67">
    <path clip-path="url(#p275abc1595)" d="M 169.250722 189 
L 170.356924 189 
L 170.356924 189 
L 169.250722 189 
z
" style="fill:#1f77b4;opacity:0.35;"/>
   </g>
   <g id="patch_68">
    <path clip-path="url(#p275abc1595)" d="M 170.633475 189 
L 171.739677 189 
L 171.739677 181.71 
L 170.633475 181.71 
z
" style="fill:#1f77b4;opacity:0.35;"/>
   </g>
   <g id="patch_69">
    <path clip-path="url(#p275abc1595)" d="M 172.016228 189 
L 173.12243 189 
L 173.12243 181.71 
L 172.016228 181.71 
z
" style="fill:#1f77b4;opacity:0.35;"/>
   </g>
   <g id="patch_70">
    <path clip-path="url(#p275abc1595)" d="M 173.39898 189 
L 174.505183 189 
L 174.505183 196.29 
L 173.39898 196.29 
z
" style="fill:#1f77b4;opacity:0.35;"/>
   </g>
   <g id="patch_71">
    <path clip-path="url(#p275abc1595)" d="M 174.781733 189 
L 175.887935 189 
L 175.887935 181.71 
L 174.781733 181.71 
z
" style="fill:#1f77b4;opacity:0.35;"/>
   </g>
   <g id="patch_72">
    <path clip-path="url(#p275abc1595)" d="M 176.164486 189 
L 177.270688 189 
L 177.270688 174.42 
L 176.164486 174.42 
z
" style="fill:#1f77b4;opacity:0.35;"/>
   </g>
   <g id="patch_73">
    <path clip-path="url(#p275abc1595)" d="M 177.547239 189 
L 178.653441 189 
L 178.653441 196.29 
L 177.547239 196.29 
z
" style="fill:#1f77b4;opacity:0.35;"/>
   </g>
   <g id="patch_74">
    <path clip-path="url(#p275abc1595)" d="M 178.929992 189 
L 180.036194 189 
L 180.036194 181.71 
L 178.929992 181.71 
z
" style="fill:#1f77b4;opacity:0.35;"/>
   </g>
   <g id="patch_75">
    <path clip-path="url(#p275abc1595)" d="M 180.312744 189 
L 181.418946 189 
L 181.418946 181.71 
L 180.312744 181.71 
z
" style="fill:#1f77b4;opacity:0.35;"/>
   </g>
   <g id="patch_76">
    <path clip-path="url(#p275abc1595)" d="M 181.695497 189 
L 182.801699 189 
L 182.801699 174.42 
L 181.695497 174.42 
z
" style="fill:#1f77b4;opacity:0.35;"/>
   </g>
   <g id="patch_77">
    <path clip-path="url(#p275abc1595)" d="M 183.07825 189 
L 184.184452 189 
L 184.184452 189 
L 183.07825 189 
z
" style="fill:#1f77b4;opacity:0.35;"/>
   </g>
   <g id="patch_78">
    <path clip-path="url(#p275abc1595)" d="M 184.461003 189 
L 185.567205 189 
L 185.567205 189 
L 184.461003 189 
z
" style="fill:#1f77b4;opacity:0.35;"/>
   </g>
   <g id="patch_79">
    <path clip-path="url(#p275abc1595)" d="M 185.843755 189 
L 186.949958 189 
L 186.949958 181.71 
L 185.843755 181.71 
z
" style="fill:#1f77b4;opacity:0.35;"/>
   </g>
   <g id="patch_80">
    <path clip-path="url(#p275abc1595)" d="M 187.226508 189 
L 188.33271 189 
L 188.33271 181.71 
L 187.226508 181.71 
z
" style="fill:#1f77b4;opacity:0.35;"/>
   </g>
   <g id="patch_81">
    <path clip-path="url(#p275abc1595)" d="M 188.609261 189 
L 189.715463 189 
L 189.715463 181.71 
L 188.609261 181.71 
z
" style="fill:#1f77b4;opacity:0.35;"/>
   </g>
   <g id="patch_82">
    <path clip-path="url(#p275abc1595)" d="M 189.992014 189 
L 191.098216 189 
L 191.098216 174.42 
L 189.992014 174.42 
z
" style="fill:#1f77b4;opacity:0.35;"/>
   </g>
   <g id="patch_83">
    <path clip-path="url(#p275abc1595)" d="M 191.374766 189 
L 192.480969 189 
L 192.480969 174.42 
L 191.374766 174.42 
z
" style="fill:#1f77b4;opacity:0.35;"/>
   </g>
   <g id="patch_84">
    <path clip-path="url(#p275abc1595)" d="M 192.757519 189 
L 193.863721 189 
L 193.863721 181.71 
L 192.757519 181.71 
z
" style="fill:#1f77b4;opacity:0.35;"/>
   </g>
   <g id="patch_85">
    <path clip-path="url(#p275abc1595)" d="M 194.140272 189 
L 195.246474 189 
L 195.246474 189 
L 194.140272 189 
z
" style="fill:#1f77b4;opacity:0.35;"/>
   </g>
   <g id="patch_86">
    <path clip-path="url(#p275abc1595)" d="M 195.523025 189 
L 196.629227 189 
L 196.629227 189 
L 195.523025 189 
z
" style="fill:#1f77b4;opacity:0.35;"/>
   </g>
   <g id="patch_87">
    <path clip-path="url(#p275abc1595)" d="M 196.905777 189 
L 198.01198 189 
L 198.01198 189 
L 196.905777 189 
z
" style="fill:#1f77b4;opacity:0.35;"/>
   </g>
   <g id="patch_88">
    <path clip-path="url(#p275abc1595)" d="M 198.28853 189 
L 199.394732 189 
L 199.394732 167.13 
L 198.28853 167.13 
z
" style="fill:#1f77b4;opacity:0.35;"/>
   </g>
   <g id="patch_89">
    <path clip-path="url(#p275abc1595)" d="M 199.671283 189 
L 200.777485 189 
L 200.777485 174.42 
L 199.671283 174.42 
z
" style="fill:#1f77b4;opacity:0.35;"/>
   </g>
   <g id="patch_90">
    <path clip-path="url(#p275abc1595)" d="M 201.054036 189 
L 202.160238 189 
L 202.160238 189 
L 201.054036 189 
z
" style="fill:#1f77b4;opacity:0.35;"/>
   </g>
   <g id="patch_91">
    <path clip-path="url(#p275abc1595)" d="M 202.436788 189 
L 203.542991 189 
L 203.542991 181.71 
L 202.436788 181.71 
z
" style="fill:#1f77b4;opacity:0.35;"/>
   </g>
   <g id="patch_92">
    <path clip-path="url(#p275abc1595)" d="M 203.819541 189 
L 204.925743 189 
L 204.925743 181.71 
L 203.819541 181.71 
z
" style="fill:#1f77b4;opacity:0.35;"/>
   </g>
   <g id="patch_93">
    <path clip-path="url(#p275abc1595)" d="M 205.202294 189 
L 206.308496 189 
L 206.308496 189 
L 205.202294 189 
z
" style="fill:#1f77b4;opacity:0.35;"/>
   </g>
   <g id="patch_94">
    <path clip-path="url(#p275abc1595)" d="M 206.585047 189 
L 207.691249 189 
L 207.691249 189 
L 206.585047 189 
z
" style="fill:#1f77b4;opacity:0.35;"/>
   </g>
   <g id="patch_95">
    <path clip-path="url(#p275abc1595)" d="M 207.967799 189 
L 209.074002 189 
L 209.074002 189 
L 207.967799 189 
z
" style="fill:#1f77b4;opacity:0.35;"/>
   </g>
   <g id="patch_96">
    <path clip-path="url(#p275abc1595)" d="M 209.350552 189 
L 210.456754 189 
L 210.456754 189 
L 209.350552 189 
z
" style="fill:#1f77b4;opacity:0.35;"/>
   </g>
   <g id="patch_97">
    <path clip-path="url(#p275abc1595)" d="M 210.733305 189 
L 211.839507 189 
L 211.839507 189 
L 210.733305 189 
z
" style="fill:#1f77b4;opacity:0.35;"/>
   </g>
   <g id="patch_98">
    <path clip-path="url(#p275abc1595)" d="M 212.116058 189 
L 213.22226 189 
L 213.22226 181.71 
L 212.116058 181.71 
z
" style="fill:#1f77b4;opacity:0.35;"/>
   </g>
   <g id="patch_99">
    <path clip-path="url(#p275abc1595)" d="M 213.498811 189 
L 214.605013 189 
L 214.605013 196.29 
L 213.498811 196.29 
z
" style="fill:#1f77b4;opacity:0.35;"/>
   </g>
   <g id="patch_100">
    <path clip-path="url(#p275abc1595)" d="M 214.881563 189 
L 215.987766 189 
L 215.987766 189 
L 214.881563 189 
z
" style="fill:#1f77b4;opacity:0.35;"/>
   </g>
   <g id="patch_101">
    <path clip-path="url(#p275abc1595)" d="M 216.264316 189 
L 217.370518 189 
L 217.370518 189 
L 216.264316 189 
z
" style="fill:#1f77b4;opacity:0.35;"/>
   </g>
   <g id="patch_102">
    <path clip-path="url(#p275abc1595)" d="M 217.647069 189 
L 218.753271 189 
L 218.753271 189 
L 217.647069 189 
z
" style="fill:#1f77b4;opacity:0.35;"/>
   </g>
   <g id="patch_103">
    <path clip-path="url(#p275abc1595)" d="M 219.029822 189 
L 220.136024 189 
L 220.136024 189 
L 219.029822 189 
z
" style="fill:#1f77b4;opacity:0.35;"/>
   </g>
   <g id="patch_104">
    <path clip-path="url(#p275abc1595)" d="M 220.412574 189 
L 221.518777 189 
L 221.518777 189 
L 220.412574 189 
z
" style="fill:#1f77b4;opacity:0.35;"/>
   </g>
   <g id="patch_105">
    <path clip-path="url(#p275abc1595)" d="M 221.795327 189 
L 222.901529 189 
L 222.901529 189 
L 221.795327 189 
z
" style="fill:#1f77b4;opacity:0.35;"/>
   </g>
   <g id="patch_106">
    <path clip-path="url(#p275abc1595)" d="M 223.17808 189 
L 224.284282 189 
L 224.284282 189 
L 223.17808 189 
z
" style="fill:#1f77b4;opacity:0.35;"/>
   </g>
   <g id="patch_107">
    <path clip-path="url(#p275abc1595)" d="M 224.560833 189 
L 225.667035 189 
L 225.667035 189 
L 224.560833 189 
z
" style="fill:#1f77b4;opacity:0.35;"/>
   </g>
   <g id="patch_108">
    <path clip-path="url(#p275abc1595)" d="M 225.943585 189 
L 227.049788 189 
L 227.049788 196.29 
L 225.943585 196.29 
z
" style="fill:#1f77b4;opacity:0.35;"/>
   </g>
   <g id="patch_109">
    <path clip-path="url(#p275abc1595)" d="M 227.326338 189 
L 228.43254 189 
L 228.43254 189 
L 227.326338 189 
z
" style="fill:#1f77b4;opacity:0.35;"/>
   </g>
   <g id="patch_110">
    <path clip-path="url(#p275abc1595)" d="M 228.709091 189 
L 229.815293 189 
L 229.815293 181.71 
L 228.709091 181.71 
z
" style="fill:#1f77b4;opacity:0.35;"/>
   </g>
   <g id="patch_111">
    <path clip-path="url(#p275abc1595)" d="M 230.091844 189 
L 231.198046 189 
L 231.198046 189 
L 230.091844 189 
z
" style="fill:#1f77b4;opacity:0.35;"/>
   </g>
   <g id="patch_112">
    <path clip-path="url(#p275abc1595)" d="M 231.474596 189 
L 232.580799 189 
L 232.580799 189 
L 231.474596 189 
z
" style="fill:#1f77b4;opacity:0.35;"/>
   </g>
   <g id="patch_113">
    <path clip-path="url(#p275abc1595)" d="M 232.857349 189 
L 233.963551 189 
L 233.963551 189 
L 232.857349 189 
z
" style="fill:#1f77b4;opacity:0.35;"/>
   </g>
   <g id="patch_114">
    <path clip-path="url(#p275abc1595)" d="M 234.240102 189 
L 235.346304 189 
L 235.346304 189 
L 234.240102 189 
z
" style="fill:#1f77b4;opacity:0.35;"/>
   </g>
   <g id="patch_115">
    <path clip-path="url(#p275abc1595)" d="M 235.622855 189 
L 236.729057 189 
L 236.729057 189 
L 235.622855 189 
z
" style="fill:#1f77b4;opacity:0.35;"/>
   </g>
   <g id="patch_116">
    <path clip-path="url(#p275abc1595)" d="M 237.005607 189 
L 238.11181 189 
L 238.11181 181.71 
L 237.005607 181.71 
z
" style="fill:#1f77b4;opacity:0.35;"/>
   </g>
   <g id="patch_117">
    <path clip-path="url(#p275abc1595)" d="M 238.38836 189 
L 239.494562 189 
L 239.494562 167.13 
L 238.38836 167.13 
z
" style="fill:#1f77b4;opacity:0.35;"/>
   </g>
   <g id="patch_118">
    <path clip-path="url(#p275abc1595)" d="M 239.771113 189 
L 240.877315 189 
L 240.877315 167.13 
L 239.771113 167.13 
z
" style="fill:#1f77b4;opacity:0.35;"/>
   </g>
   <g id="patch_119">
    <path clip-path="url(#p275abc1595)" d="M 241.153866 189 
L 242.260068 189 
L 242.260068 189 
L 241.153866 189 
z
" style="fill:#1f77b4;opacity:0.35;"/>
   </g>
   <g id="patch_120">
    <path clip-path="url(#p275abc1595)" d="M 242.536619 189 
L 243.642821 189 
L 243.642821 181.71 
L 242.536619 181.71 
z
" style="fill:#1f77b4;opacity:0.35;"/>
   </g>
   <g id="patch_121">
    <path clip-path="url(#p275abc1595)" d="M 243.919371 189 
L 245.025573 189 
L 245.025573 189 
L 243.919371 189 
z
" style="fill:#1f77b4;opacity:0.35;"/>
   </g>
   <g id="patch_122">
    <path clip-path="url(#p275abc1595)" d="M 245.302124 189 
L 246.408326 189 
L 246.408326 181.71 
L 245.302124 181.71 
z
" style="fill:#1f77b4;opacity:0.35;"/>
   </g>
   <g id="patch_123">
    <path clip-path="url(#p275abc1595)" d="M 246.684877 189 
L 247.791079 189 
L 247.791079 181.71 
L 246.684877 181.71 
z
" style="fill:#1f77b4;opacity:0.35;"/>
   </g>
   <g id="patch_124">
    <path clip-path="url(#p275abc1595)" d="M 248.06763 189 
L 249.173832 189 
L 249.173832 189 
L 248.06763 189 
z
" style="fill:#1f77b4;opacity:0.35;"/>
   </g>
   <g id="patch_125">
    <path clip-path="url(#p275abc1595)" d="M 249.450382 189 
L 250.556585 189 
L 250.556585 181.71 
L 249.450382 181.71 
z
" style="fill:#1f77b4;opacity:0.35;"/>
   </g>
   <g id="patch_126">
    <path clip-path="url(#p275abc1595)" d="M 250.833135 189 
L 251.939337 189 
L 251.939337 189 
L 250.833135 189 
z
" style="fill:#1f77b4;opacity:0.35;"/>
   </g>
   <g id="patch_127">
    <path clip-path="url(#p275abc1595)" d="M 252.215888 189 
L 253.32209 189 
L 253.32209 181.71 
L 252.215888 181.71 
z
" style="fill:#1f77b4;opacity:0.35;"/>
   </g>
   <g id="patch_128">
    <path clip-path="url(#p275abc1595)" d="M 253.598641 189 
L 254.704843 189 
L 254.704843 189 
L 253.598641 189 
z
" style="fill:#1f77b4;opacity:0.35;"/>
   </g>
   <g id="patch_129">
    <path clip-path="url(#p275abc1595)" d="M 254.981393 189 
L 256.087596 189 
L 256.087596 189 
L 254.981393 189 
z
" style="fill:#1f77b4;opacity:0.35;"/>
   </g>
   <g id="patch_130">
    <path clip-path="url(#p275abc1595)" d="M 256.364146 189 
L 257.470348 189 
L 257.470348 174.42 
L 256.364146 174.42 
z
" style="fill:#1f77b4;opacity:0.35;"/>
   </g>
   <g id="patch_131">
    <path clip-path="url(#p275abc1595)" d="M 257.746899 189 
L 258.853101 189 
L 258.853101 189 
L 257.746899 189 
z
" style="fill:#1f77b4;opacity:0.35;"/>
   </g>
   <g id="patch_132">
    <path clip-path="url(#p275abc1595)" d="M 259.129652 189 
L 260.235854 189 
L 260.235854 189 
L 259.129652 189 
z
" style="fill:#1f77b4;opacity:0.35;"/>
   </g>
   <g id="patch_133">
    <path clip-path="url(#p275abc1595)" d="M 260.512404 189 
L 261.618607 189 
L 261.618607 181.71 
L 260.512404 181.71 
z
" style="fill:#1f77b4;opacity:0.35;"/>
   </g>
   <g id="patch_134">
    <path clip-path="url(#p275abc1595)" d="M 261.895157 189 
L 263.001359 189 
L 263.001359 189 
L 261.895157 189 
z
" style="fill:#1f77b4;opacity:0.35;"/>
   </g>
   <g id="patch_135">
    <path clip-path="url(#p275abc1595)" d="M 263.27791 189 
L 264.384112 189 
L 264.384112 181.71 
L 263.27791 181.71 
z
" style="fill:#1f77b4;opacity:0.35;"/>
   </g>
   <g id="patch_136">
    <path clip-path="url(#p275abc1595)" d="M 264.660663 189 
L 265.766865 189 
L 265.766865 174.42 
L 264.660663 174.42 
z
" style="fill:#1f77b4;opacity:0.35;"/>
   </g>
   <g id="patch_137">
    <path clip-path="url(#p275abc1595)" d="M 266.043415 189 
L 267.149618 189 
L 267.149618 174.42 
L 266.043415 174.42 
z
" style="fill:#1f77b4;opacity:0.35;"/>
   </g>
   <g id="patch_138">
    <path clip-path="url(#p275abc1595)" d="M 267.426168 189 
L 268.53237 189 
L 268.53237 181.71 
L 267.426168 181.71 
z
" style="fill:#1f77b4;opacity:0.35;"/>
   </g>
   <g id="patch_139">
    <path clip-path="url(#p275abc1595)" d="M 268.808921 189 
L 269.915123 189 
L 269.915123 181.71 
L 268.808921 181.71 
z
" style="fill:#1f77b4;opacity:0.35;"/>
   </g>
   <g id="patch_140">
    <path clip-path="url(#p275abc1595)" d="M 270.191674 189 
L 271.297876 189 
L 271.297876 189 
L 270.191674 189 
z
" style="fill:#1f77b4;opacity:0.35;"/>
   </g>
   <g id="patch_141">
    <path clip-path="url(#p275abc1595)" d="M 271.574427 189 
L 272.680629 189 
L 272.680629 181.71 
L 271.574427 181.71 
z
" style="fill:#1f77b4;opacity:0.35;"/>
   </g>
   <g id="patch_142">
    <path clip-path="url(#p275abc1595)" d="M 272.957179 189 
L 274.063381 189 
L 274.063381 189 
L 272.957179 189 
z
" style="fill:#1f77b4;opacity:0.35;"/>
   </g>
   <g id="patch_143">
    <path clip-path="url(#p275abc1595)" d="M 274.339932 189 
L 275.446134 189 
L 275.446134 189 
L 274.339932 189 
z
" style="fill:#1f77b4;opacity:0.35;"/>
   </g>
   <g id="patch_144">
    <path clip-path="url(#p275abc1595)" d="M 275.722685 189 
L 276.828887 189 
L 276.828887 189 
L 275.722685 189 
z
" style="fill:#1f77b4;opacity:0.35;"/>
   </g>
   <g id="patch_145">
    <path clip-path="url(#p275abc1595)" d="M 277.105438 189 
L 278.21164 189 
L 278.21164 196.29 
L 277.105438 196.29 
z
" style="fill:#1f77b4;opacity:0.35;"/>
   </g>
   <g id="patch_146">
    <path clip-path="url(#p275abc1595)" d="M 278.48819 189 
L 279.594393 189 
L 279.594393 189 
L 278.48819 189 
z
" style="fill:#1f77b4;opacity:0.35;"/>
   </g>
   <g id="patch_147">
    <path clip-path="url(#p275abc1595)" d="M 279.870943 189 
L 280.977145 189 
L 280.977145 181.71 
L 279.870943 181.71 
z
" style="fill:#1f77b4;opacity:0.35;"/>
   </g>
   <g id="patch_148">
    <path clip-path="url(#p275abc1595)" d="M 281.253696 189 
L 282.359898 189 
L 282.359898 174.42 
L 281.253696 174.42 
z
" style="fill:#1f77b4;opacity:0.35;"/>
   </g>
   <g id="patch_149">
    <path clip-path="url(#p275abc1595)" d="M 282.636449 189 
L 283.742651 189 
L 283.742651 189 
L 282.636449 189 
z
" style="fill:#1f77b4;opacity:0.35;"/>
   </g>
   <g id="patch_150">
    <path clip-path="url(#p275abc1595)" d="M 284.019201 189 
L 285.125404 189 
L 285.125404 174.42 
L 284.019201 174.42 
z
" style="fill:#1f77b4;opacity:0.35;"/>
   </g>
   <g id="patch_151">
    <path clip-path="url(#p275abc1595)" d="M 285.401954 189 
L 286.508156 189 
L 286.508156 189 
L 285.401954 189 
z
" style="fill:#1f77b4;opacity:0.35;"/>
   </g>
   <g id="patch_152">
    <path clip-path="url(#p275abc1595)" d="M 286.784707 189 
L 287.890909 189 
L 287.890909 189 
L 286.784707 189 
z
" style="fill:#1f77b4;opacity:0.35;"/>
   </g>
   <g id="patch_153">
    <path clip-path="url(#p275abc1595)" d="M 288.16746 189 
L 289.273662 189 
L 289.273662 189 
L 288.16746 189 
z
" style="fill:#1f77b4;opacity:0.35;"/>
   </g>
   <g id="patch_154">
    <path clip-path="url(#p275abc1595)" d="M 289.550212 189 
L 290.656415 189 
L 290.656415 189 
L 289.550212 189 
z
" style="fill:#1f77b4;opacity:0.35;"/>
   </g>
   <g id="patch_155">
    <path clip-path="url(#p275abc1595)" d="M 290.932965 189 
L 292.039167 189 
L 292.039167 189 
L 290.932965 189 
z
" style="fill:#1f77b4;opacity:0.35;"/>
   </g>
   <g id="patch_156">
    <path clip-path="url(#p275abc1595)" d="M 292.315718 189 
L 293.42192 189 
L 293.42192 189 
L 292.315718 189 
z
" style="fill:#1f77b4;opacity:0.35;"/>
   </g>
   <g id="patch_157">
    <path clip-path="url(#p275abc1595)" d="M 293.698471 189 
L 294.804673 189 
L 294.804673 189 
L 293.698471 189 
z
" style="fill:#1f77b4;opacity:0.35;"/>
   </g>
   <g id="patch_158">
    <path clip-path="url(#p275abc1595)" d="M 295.081223 189 
L 296.187426 189 
L 296.187426 189 
L 295.081223 189 
z
" style="fill:#1f77b4;opacity:0.35;"/>
   </g>
   <g id="patch_159">
    <path clip-path="url(#p275abc1595)" d="M 296.463976 189 
L 297.570178 189 
L 297.570178 189 
L 296.463976 189 
z
" style="fill:#1f77b4;opacity:0.35;"/>
   </g>
   <g id="patch_160">
    <path clip-path="url(#p275abc1595)" d="M 297.846729 189 
L 298.952931 189 
L 298.952931 189 
L 297.846729 189 
z
" style="fill:#1f77b4;opacity:0.35;"/>
   </g>
   <g id="patch_161">
    <path clip-path="url(#p275abc1595)" d="M 299.229482 189 
L 300.335684 189 
L 300.335684 189 
L 299.229482 189 
z
" style="fill:#1f77b4;opacity:0.35;"/>
   </g>
   <g id="patch_162">
    <path clip-path="url(#p275abc1595)" d="M 300.612234 189 
L 301.718437 189 
L 301.718437 189 
L 300.612234 189 
z
" style="fill:#1f77b4;opacity:0.35;"/>
   </g>
   <g id="patch_163">
    <path clip-path="url(#p275abc1595)" d="M 301.994987 189 
L 303.101189 189 
L 303.101189 189 
L 301.994987 189 
z
" style="fill:#1f77b4;opacity:0.35;"/>
   </g>
   <g id="patch_164">
    <path clip-path="url(#p275abc1595)" d="M 303.37774 189 
L 304.483942 189 
L 304.483942 181.71 
L 303.37774 181.71 
z
" style="fill:#1f77b4;opacity:0.35;"/>
   </g>
   <g id="patch_165">
    <path clip-path="url(#p275abc1595)" d="M 304.760493 189 
L 305.866695 189 
L 305.866695 181.71 
L 304.760493 181.71 
z
" style="fill:#1f77b4;opacity:0.35;"/>
   </g>
   <g id="patch_166">
    <path clip-path="url(#p275abc1595)" d="M 306.143246 189 
L 307.249448 189 
L 307.249448 189 
L 306.143246 189 
z
" style="fill:#1f77b4;opacity:0.35;"/>
   </g>
   <g id="patch_167">
    <path clip-path="url(#p275abc1595)" d="M 307.525998 189 
L 308.632201 189 
L 308.632201 181.71 
L 307.525998 181.71 
z
" style="fill:#1f77b4;opacity:0.35;"/>
   </g>
   <g id="patch_168">
    <path clip-path="url(#p275abc1595)" d="M 308.908751 189 
L 310.014953 189 
L 310.014953 181.71 
L 308.908751 181.71 
z
" style="fill:#1f77b4;opacity:0.35;"/>
   </g>
   <g id="patch_169">
    <path clip-path="url(#p275abc1595)" d="M 310.291504 189 
L 311.397706 189 
L 311.397706 189 
L 310.291504 189 
z
" style="fill:#1f77b4;opacity:0.35;"/>
   </g>
   <g id="patch_170">
    <path clip-path="url(#p275abc1595)" d="M 311.674257 189 
L 312.780459 189 
L 312.780459 189 
L 311.674257 189 
z
" style="fill:#1f77b4;opacity:0.35;"/>
   </g>
   <g id="patch_171">
    <path clip-path="url(#p275abc1595)" d="M 313.057009 189 
L 314.163212 189 
L 314.163212 189 
L 313.057009 189 
z
" style="fill:#1f77b4;opacity:0.35;"/>
   </g>
   <g id="patch_172">
    <path clip-path="url(#p275abc1595)" d="M 314.439762 189 
L 315.545964 189 
L 315.545964 189 
L 314.439762 189 
z
" style="fill:#1f77b4;opacity:0.35;"/>
   </g>
   <g id="patch_173">
    <path clip-path="url(#p275abc1595)" d="M 315.822515 189 
L 316.928717 189 
L 316.928717 189 
L 315.822515 189 
z
" style="fill:#1f77b4;opacity:0.35;"/>
   </g>
   <g id="patch_174">
    <path clip-path="url(#p275abc1595)" d="M 317.205268 189 
L 318.31147 189 
L 318.31147 189 
L 317.205268 189 
z
" style="fill:#1f77b4;opacity:0.35;"/>
   </g>
   <g id="patch_175">
    <path clip-path="url(#p275abc1595)" d="M 318.58802 189 
L 319.694223 189 
L 319.694223 174.42 
L 318.58802 174.42 
z
" style="fill:#1f77b4;opacity:0.35;"/>
   </g>
   <g id="patch_176">
    <path clip-path="url(#p275abc1595)" d="M 319.970773 189 
L 321.076975 189 
L 321.076975 189 
L 319.970773 189 
z
" style="fill:#1f77b4;opacity:0.35;"/>
   </g>
   <g id="patch_177">
    <path clip-path="url(#p275abc1595)" d="M 321.353526 189 
L 322.459728 189 
L 322.459728 189 
L 321.353526 189 
z
" style="fill:#1f77b4;opacity:0.35;"/>
   </g>
   <g id="patch_178">
    <path clip-path="url(#p275abc1595)" d="M 322.736279 189 
L 323.842481 189 
L 323.842481 189 
L 322.736279 189 
z
" style="fill:#1f77b4;opacity:0.35;"/>
   </g>
   <g id="patch_179">
    <path clip-path="url(#p275abc1595)" d="M 324.119031 189 
L 325.225234 189 
L 325.225234 181.71 
L 324.119031 181.71 
z
" style="fill:#1f77b4;opacity:0.35;"/>
   </g>
   <g id="patch_180">
    <path clip-path="url(#p275abc1595)" d="M 325.501784 189 
L 326.607986 189 
L 326.607986 174.42 
L 325.501784 174.42 
z
" style="fill:#1f77b4;opacity:0.35;"/>
   </g>
   <g id="patch_181">
    <path clip-path="url(#p275abc1595)" d="M 326.884537 189 
L 327.990739 189 
L 327.990739 181.71 
L 326.884537 181.71 
z
" style="fill:#1f77b4;opacity:0.35;"/>
   </g>
   <g id="patch_182">
    <path clip-path="url(#p275abc1595)" d="M 328.26729 189 
L 329.373492 189 
L 329.373492 189 
L 328.26729 189 
z
" style="fill:#1f77b4;opacity:0.35;"/>
   </g>
   <g id="patch_183">
    <path clip-path="url(#p275abc1595)" d="M 329.650042 189 
L 330.756245 189 
L 330.756245 189 
L 329.650042 189 
z
" style="fill:#1f77b4;opacity:0.35;"/>
   </g>
   <g id="patch_184">
    <path clip-path="url(#p275abc1595)" d="M 331.032795 189 
L 332.138997 189 
L 332.138997 181.71 
L 331.032795 181.71 
z
" style="fill:#1f77b4;opacity:0.35;"/>
   </g>
   <g id="patch_185">
    <path clip-path="url(#p275abc1595)" d="M 332.415548 189 
L 333.52175 189 
L 333.52175 189 
L 332.415548 189 
z
" style="fill:#1f77b4;opacity:0.35;"/>
   </g>
   <g id="patch_186">
    <path clip-path="url(#p275abc1595)" d="M 333.798301 189 
L 334.904503 189 
L 334.904503 189 
L 333.798301 189 
z
" style="fill:#1f77b4;opacity:0.35;"/>
   </g>
   <g id="patch_187">
    <path clip-path="url(#p275abc1595)" d="M 335.181054 189 
L 336.287256 189 
L 336.287256 189 
L 335.181054 189 
z
" style="fill:#1f77b4;opacity:0.35;"/>
   </g>
   <g id="patch_188">
    <path clip-path="url(#p275abc1595)" d="M 336.563806 189 
L 337.670008 189 
L 337.670008 181.71 
L 336.563806 181.71 
z
" style="fill:#1f77b4;opacity:0.35;"/>
   </g>
   <g id="patch_189">
    <path clip-path="url(#p275abc1595)" d="M 337.946559 189 
L 339.052761 189 
L 339.052761 167.13 
L 337.946559 167.13 
z
" style="fill:#1f77b4;opacity:0.35;"/>
   </g>
   <g id="patch_190">
    <path clip-path="url(#p275abc1595)" d="M 339.329312 189 
L 340.435514 189 
L 340.435514 189 
L 339.329312 189 
z
" style="fill:#1f77b4;opacity:0.35;"/>
   </g>
   <g id="patch_191">
    <path clip-path="url(#p275abc1595)" d="M 340.712065 189 
L 341.818267 189 
L 341.818267 174.42 
L 340.712065 174.42 
z
" style="fill:#1f77b4;opacity:0.35;"/>
   </g>
   <g id="patch_192">
    <path clip-path="url(#p275abc1595)" d="M 342.094817 189 
L 343.20102 189 
L 343.20102 174.42 
L 342.094817 174.42 
z
" style="fill:#1f77b4;opacity:0.35;"/>
   </g>
   <g id="patch_193">
    <path clip-path="url(#p275abc1595)" d="M 343.47757 189 
L 344.583772 189 
L 344.583772 181.71 
L 343.47757 181.71 
z
" style="fill:#1f77b4;opacity:0.35;"/>
   </g>
   <g id="patch_194">
    <path clip-path="url(#p275abc1595)" d="M 344.860323 189 
L 345.966525 189 
L 345.966525 174.42 
L 344.860323 174.42 
z
" style="fill:#1f77b4;opacity:0.35;"/>
   </g>
   <g id="patch_195">
    <path clip-path="url(#p275abc1595)" d="M 346.243076 189 
L 347.349278 189 
L 347.349278 181.71 
L 346.243076 181.71 
z
" style="fill:#1f77b4;opacity:0.35;"/>
   </g>
   <g id="patch_196">
    <path clip-path="url(#p275abc1595)" d="M 347.625828 189 
L 348.732031 189 
L 348.732031 189 
L 347.625828 189 
z
" style="fill:#1f77b4;opacity:0.35;"/>
   </g>
   <g id="patch_197">
    <path clip-path="url(#p275abc1595)" d="M 349.008581 189 
L 350.114783 189 
L 350.114783 181.71 
L 349.008581 181.71 
z
" style="fill:#1f77b4;opacity:0.35;"/>
   </g>
   <g id="patch_198">
    <path clip-path="url(#p275abc1595)" d="M 350.391334 189 
L 351.497536 189 
L 351.497536 181.71 
L 350.391334 181.71 
z
" style="fill:#1f77b4;opacity:0.35;"/>
   </g>
   <g id="patch_199">
    <path clip-path="url(#p275abc1595)" d="M 351.774087 189 
L 352.880289 189 
L 352.880289 181.71 
L 351.774087 181.71 
z
" style="fill:#1f77b4;opacity:0.35;"/>
   </g>
   <g id="patch_200">
    <path clip-path="url(#p275abc1595)" d="M 353.156839 189 
L 354.263042 189 
L 354.263042 181.71 
L 353.156839 181.71 
z
" style="fill:#1f77b4;opacity:0.35;"/>
   </g>
   <g id="patch_201">
    <path clip-path="url(#p275abc1595)" d="M 354.539592 189 
L 355.645794 189 
L 355.645794 189 
L 354.539592 189 
z
" style="fill:#1f77b4;opacity:0.35;"/>
   </g>
   <g id="patch_202">
    <path clip-path="url(#p275abc1595)" d="M 355.922345 189 
L 357.028547 189 
L 357.028547 181.71 
L 355.922345 181.71 
z
" style="fill:#1f77b4;opacity:0.35;"/>
   </g>
   <g id="patch_203">
    <path clip-path="url(#p275abc1595)" d="M 357.305098 189 
L 358.4113 189 
L 358.4113 181.71 
L 357.305098 181.71 
z
" style="fill:#1f77b4;opacity:0.35;"/>
   </g>
   <g id="patch_204">
    <path clip-path="url(#p275abc1595)" d="M 358.68785 189 
L 359.794053 189 
L 359.794053 174.42 
L 358.68785 174.42 
z
" style="fill:#1f77b4;opacity:0.35;"/>
   </g>
   <g id="patch_205">
    <path clip-path="url(#p275abc1595)" d="M 360.070603 189 
L 361.176805 189 
L 361.176805 189 
L 360.070603 189 
z
" style="fill:#1f77b4;opacity:0.35;"/>
   </g>
   <g id="patch_206">
    <path clip-path="url(#p275abc1595)" d="M 361.453356 189 
L 362.559558 189 
L 362.559558 167.13 
L 361.453356 167.13 
z
" style="fill:#1f77b4;opacity:0.35;"/>
   </g>
   <g id="patch_207">
    <path clip-path="url(#p275abc1595)" d="M 362.836109 189 
L 363.942311 189 
L 363.942311 189 
L 362.836109 189 
z
" style="fill:#1f77b4;opacity:0.35;"/>
   </g>
   <g id="patch_208">
    <path clip-path="url(#p275abc1595)" d="M 364.218862 189 
L 365.325064 189 
L 365.325064 181.71 
L 364.218862 181.71 
z
" style="fill:#1f77b4;opacity:0.35;"/>
   </g>
   <g id="patch_209">
    <path clip-path="url(#p275abc1595)" d="M 365.601614 189 
L 366.707816 189 
L 366.707816 189 
L 365.601614 189 
z
" style="fill:#1f77b4;opacity:0.35;"/>
   </g>
   <g id="patch_210">
    <path clip-path="url(#p275abc1595)" d="M 366.984367 189 
L 368.090569 189 
L 368.090569 189 
L 366.984367 189 
z
" style="fill:#1f77b4;opacity:0.35;"/>
   </g>
   <g id="patch_211">
    <path clip-path="url(#p275abc1595)" d="M 368.36712 189 
L 369.473322 189 
L 369.473322 167.13 
L 368.36712 167.13 
z
" style="fill:#1f77b4;opacity:0.35;"/>
   </g>
   <g id="patch_212">
    <path clip-path="url(#p275abc1595)" d="M 369.749873 189 
L 370.856075 189 
L 370.856075 181.71 
L 369.749873 181.71 
z
" style="fill:#1f77b4;opacity:0.35;"/>
   </g>
   <g id="patch_213">
    <path clip-path="url(#p275abc1595)" d="M 371.132625 189 
L 372.238828 189 
L 372.238828 189 
L 371.132625 189 
z
" style="fill:#1f77b4;opacity:0.35;"/>
   </g>
   <g id="patch_214">
    <path clip-path="url(#p275abc1595)" d="M 372.515378 189 
L 373.62158 189 
L 373.62158 174.42 
L 372.515378 174.42 
z
" style="fill:#1f77b4;opacity:0.35;"/>
   </g>
   <g id="patch_215">
    <path clip-path="url(#p275abc1595)" d="M 373.898131 189 
L 375.004333 189 
L 375.004333 181.71 
L 373.898131 181.71 
z
" style="fill:#1f77b4;opacity:0.35;"/>
   </g>
   <g id="patch_216">
    <path clip-path="url(#p275abc1595)" d="M 375.280884 189 
L 376.387086 189 
L 376.387086 137.97 
L 375.280884 137.97 
z
" style="fill:#1f77b4;opacity:0.35;"/>
   </g>
   <g id="patch_217">
    <path clip-path="url(#p275abc1595)" d="M 376.663636 189 
L 377.769839 189 
L 377.769839 174.42 
L 376.663636 174.42 
z
" style="fill:#1f77b4;opacity:0.35;"/>
   </g>
   <g id="patch_218">
    <path clip-path="url(#p275abc1595)" d="M 378.046389 189 
L 379.152591 189 
L 379.152591 181.71 
L 378.046389 181.71 
z
" style="fill:#1f77b4;opacity:0.35;"/>
   </g>
   <g id="patch_219">
    <path clip-path="url(#p275abc1595)" d="M 379.429142 189 
L 380.535344 189 
L 380.535344 189 
L 379.429142 189 
z
" style="fill:#1f77b4;opacity:0.35;"/>
   </g>
   <g id="patch_220">
    <path clip-path="url(#p275abc1595)" d="M 380.811895 189 
L 381.918097 189 
L 381.918097 181.71 
L 380.811895 181.71 
z
" style="fill:#1f77b4;opacity:0.35;"/>
   </g>
   <g id="patch_221">
    <path clip-path="url(#p275abc1595)" d="M 382.194647 189 
L 383.30085 189 
L 383.30085 189 
L 382.194647 189 
z
" style="fill:#1f77b4;opacity:0.35;"/>
   </g>
   <g id="patch_222">
    <path clip-path="url(#p275abc1595)" d="M 383.5774 189 
L 384.683602 189 
L 384.683602 181.71 
L 383.5774 181.71 
z
" style="fill:#1f77b4;opacity:0.35;"/>
   </g>
   <g id="patch_223">
    <path clip-path="url(#p275abc1595)" d="M 384.960153 189 
L 386.066355 189 
L 386.066355 174.42 
L 384.960153 174.42 
z
" style="fill:#1f77b4;opacity:0.35;"/>
   </g>
   <g id="patch_224">
    <path clip-path="url(#p275abc1595)" d="M 386.342906 189 
L 387.449108 189 
L 387.449108 152.55 
L 386.342906 152.55 
z
" style="fill:#1f77b4;opacity:0.35;"/>
   </g>
   <g id="patch_225">
    <path clip-path="url(#p275abc1595)" d="M 387.725658 189 
L 388.831861 189 
L 388.831861 181.71 
L 387.725658 181.71 
z
" style="fill:#1f77b4;opacity:0.35;"/>
   </g>
   <g id="patch_226">
    <path clip-path="url(#p275abc1595)" d="M 389.108411 189 
L 390.214613 189 
L 390.214613 159.84 
L 389.108411 159.84 
z
" style="fill:#1f77b4;opacity:0.35;"/>
   </g>
   <g id="patch_227">
    <path clip-path="url(#p275abc1595)" d="M 390.491164 189 
L 391.597366 189 
L 391.597366 181.71 
L 390.491164 181.71 
z
" style="fill:#1f77b4;opacity:0.35;"/>
   </g>
   <g id="patch_228">
    <path clip-path="url(#p275abc1595)" d="M 391.873917 189 
L 392.980119 189 
L 392.980119 174.42 
L 391.873917 174.42 
z
" style="fill:#1f77b4;opacity:0.35;"/>
   </g>
   <g id="patch_229">
    <path clip-path="url(#p275abc1595)" d="M 393.256669 189 
L 394.362872 189 
L 394.362872 174.42 
L 393.256669 174.42 
z
" style="fill:#1f77b4;opacity:0.35;"/>
   </g>
   <g id="patch_230">
    <path clip-path="url(#p275abc1595)" d="M 394.639422 189 
L 395.745624 189 
L 395.745624 174.42 
L 394.639422 174.42 
z
" style="fill:#1f77b4;opacity:0.35;"/>
   </g>
   <g id="patch_231">
    <path clip-path="url(#p275abc1595)" d="M 396.022175 189 
L 397.128377 189 
L 397.128377 159.84 
L 396.022175 159.84 
z
" style="fill:#1f77b4;opacity:0.35;"/>
   </g>
   <g id="patch_232">
    <path clip-path="url(#p275abc1595)" d="M 397.404928 189 
L 398.51113 189 
L 398.51113 181.71 
L 397.404928 181.71 
z
" style="fill:#1f77b4;opacity:0.35;"/>
   </g>
   <g id="patch_233">
    <path clip-path="url(#p275abc1595)" d="M 398.787681 189 
L 399.893883 189 
L 399.893883 174.42 
L 398.787681 174.42 
z
" style="fill:#1f77b4;opacity:0.35;"/>
   </g>
   <g id="patch_234">
    <path clip-path="url(#p275abc1595)" d="M 400.170433 189 
L 401.276636 189 
L 401.276636 174.42 
L 400.170433 174.42 
z
" style="fill:#1f77b4;opacity:0.35;"/>
   </g>
   <g id="patch_235">
    <path clip-path="url(#p275abc1595)" d="M 401.553186 189 
L 402.659388 189 
L 402.659388 174.42 
L 401.553186 174.42 
z
" style="fill:#1f77b4;opacity:0.35;"/>
   </g>
   <g id="patch_236">
    <path clip-path="url(#p275abc1595)" d="M 402.935939 189 
L 404.042141 189 
L 404.042141 174.42 
L 402.935939 174.42 
z
" style="fill:#1f77b4;opacity:0.35;"/>
   </g>
   <g id="patch_237">
    <path clip-path="url(#p275abc1595)" d="M 404.318692 189 
L 405.424894 189 
L 405.424894 174.42 
L 404.318692 174.42 
z
" style="fill:#1f77b4;opacity:0.35;"/>
   </g>
   <g id="patch_238">
    <path clip-path="url(#p275abc1595)" d="M 405.701444 189 
L 406.807647 189 
L 406.807647 167.13 
L 405.701444 167.13 
z
" style="fill:#1f77b4;opacity:0.35;"/>
   </g>
   <g id="patch_239">
    <path clip-path="url(#p275abc1595)" d="M 407.084197 189 
L 408.190399 189 
L 408.190399 174.42 
L 407.084197 174.42 
z
" style="fill:#1f77b4;opacity:0.35;"/>
   </g>
   <g id="patch_240">
    <path clip-path="url(#p275abc1595)" d="M 408.46695 189 
L 409.573152 189 
L 409.573152 167.13 
L 408.46695 167.13 
z
" style="fill:#1f77b4;opacity:0.35;"/>
   </g>
   <g id="patch_241">
    <path clip-path="url(#p275abc1595)" d="M 409.849703 189 
L 410.955905 189 
L 410.955905 130.68 
L 409.849703 130.68 
z
" style="fill:#1f77b4;opacity:0.35;"/>
   </g>
   <g id="patch_242">
    <path clip-path="url(#p275abc1595)" d="M 411.232455 189 
L 412.338658 189 
L 412.338658 152.55 
L 411.232455 152.55 
z
" style="fill:#1f77b4;opacity:0.35;"/>
   </g>
   <g id="patch_243">
    <path clip-path="url(#p275abc1595)" d="M 412.615208 189 
L 413.72141 189 
L 413.72141 57.78 
L 412.615208 57.78 
z
" style="fill:#1f77b4;opacity:0.35;"/>
   </g>
   <g id="patch_244">
    <path clip-path="url(#p275abc1595)" d="M 413.997961 189 
L 415.104163 189 
L 415.104163 145.26 
L 413.997961 145.26 
z
" style="fill:#1f77b4;opacity:0.35;"/>
   </g>
   <g id="patch_245">
    <path clip-path="url(#p275abc1595)" d="M 415.380714 189 
L 416.486916 189 
L 416.486916 123.39 
L 415.380714 123.39 
z
" style="fill:#1f77b4;opacity:0.35;"/>
   </g>
   <g id="patch_246">
    <path clip-path="url(#p275abc1595)" d="M 416.763466 189 
L 417.869669 189 
L 417.869669 116.1 
L 416.763466 116.1 
z
" style="fill:#1f77b4;opacity:0.35;"/>
   </g>
   <g id="patch_247">
    <path clip-path="url(#p275abc1595)" d="M 418.146219 189 
L 419.252421 189 
L 419.252421 123.39 
L 418.146219 123.39 
z
" style="fill:#1f77b4;opacity:0.35;"/>
   </g>
   <g id="patch_248">
    <path clip-path="url(#p275abc1595)" d="M 419.528972 189 
L 420.635174 189 
L 420.635174 152.55 
L 419.528972 152.55 
z
" style="fill:#1f77b4;opacity:0.35;"/>
   </g>
   <g id="patch_249">
    <path clip-path="url(#p275abc1595)" d="M 420.911725 189 
L 422.017927 189 
L 422.017927 130.68 
L 420.911725 130.68 
z
" style="fill:#1f77b4;opacity:0.35;"/>
   </g>
   <g id="patch_250">
    <path clip-path="url(#p275abc1595)" d="M 422.294477 189 
L 423.40068 189 
L 423.40068 152.55 
L 422.294477 152.55 
z
" style="fill:#1f77b4;opacity:0.35;"/>
   </g>
   <g id="patch_251">
    <path clip-path="url(#p275abc1595)" d="M 423.67723 189 
L 424.783432 189 
L 424.783432 101.52 
L 423.67723 101.52 
z
" style="fill:#1f77b4;opacity:0.35;"/>
   </g>
   <g id="patch_252">
    <path clip-path="url(#p275abc1595)" d="M 425.059983 189 
L 426.166185 189 
L 426.166185 130.68 
L 425.059983 130.68 
z
" style="fill:#1f77b4;opacity:0.35;"/>
   </g>
   <g id="patch_253">
    <path clip-path="url(#p275abc1595)" d="M 426.442736 189 
L 427.548938 189 
L 427.548938 86.94 
L 426.442736 86.94 
z
" style="fill:#1f77b4;opacity:0.35;"/>
   </g>
   <g id="patch_254">
    <path clip-path="url(#p275abc1595)" d="M 427.825489 189 
L 428.931691 189 
L 428.931691 130.68 
L 427.825489 130.68 
z
" style="fill:#1f77b4;opacity:0.35;"/>
   </g>
   <g id="patch_255">
    <path clip-path="url(#p275abc1595)" d="M 429.208241 189 
L 430.314444 189 
L 430.314444 123.39 
L 429.208241 123.39 
z
" style="fill:#1f77b4;opacity:0.35;"/>
   </g>
   <g id="patch_256">
    <path clip-path="url(#p275abc1595)" d="M 430.590994 189 
L 431.697196 189 
L 431.697196 123.39 
L 430.590994 123.39 
z
" style="fill:#1f77b4;opacity:0.35;"/>
   </g>
   <g id="patch_257">
    <path clip-path="url(#p275abc1595)" d="M 431.973747 189 
L 433.079949 189 
L 433.079949 123.39 
L 431.973747 123.39 
z
" style="fill:#1f77b4;opacity:0.35;"/>
   </g>
   <g id="patch_258">
    <path clip-path="url(#p275abc1595)" d="M 433.3565 189 
L 434.462702 189 
L 434.462702 50.49 
L 433.3565 50.49 
z
" style="fill:#1f77b4;opacity:0.35;"/>
   </g>
   <g id="patch_259">
    <path clip-path="url(#p275abc1595)" d="M 434.739252 189 
L 435.845455 189 
L 435.845455 79.65 
L 434.739252 79.65 
z
" style="fill:#1f77b4;opacity:0.35;"/>
   </g>
   <g id="line2d_20">
    <path clip-path="url(#p275abc1595)" d="M 89.604163 186.917143 
L 90.986916 187.958571 
L 95.135174 187.958571 
L 96.517927 189 
L 97.90068 189 
L 100.666185 184.834286 
L 102.048938 184.834286 
L 103.431691 182.751429 
L 104.814444 178.585714 
L 107.579949 176.502857 
L 108.962702 173.378571 
L 110.345455 174.42 
L 111.728207 173.378571 
L 114.493713 175.461429 
L 117.259218 173.378571 
L 118.641971 173.378571 
L 120.024724 174.42 
L 121.407477 174.42 
L 122.790229 173.378571 
L 124.172982 176.502857 
L 125.555735 175.461429 
L 126.938488 177.544286 
L 128.32124 182.751429 
L 129.703993 182.751429 
L 131.086746 181.71 
L 132.469499 183.792857 
L 133.852251 183.792857 
L 135.235004 186.917143 
L 136.617757 184.834286 
L 139.383263 184.834286 
L 140.766015 187.958571 
L 143.531521 187.958571 
L 144.914274 186.917143 
L 146.297026 189 
L 149.062532 189 
L 153.21079 185.875714 
L 154.593543 186.917143 
L 155.976296 185.875714 
L 160.124554 185.875714 
L 161.507307 184.834286 
L 162.890059 184.834286 
L 164.272812 182.751429 
L 165.655565 183.792857 
L 167.038318 183.792857 
L 168.421071 182.751429 
L 169.803823 182.751429 
L 171.186576 183.792857 
L 172.569329 183.792857 
L 173.952082 186.917143 
L 175.334834 185.875714 
L 176.717587 183.792857 
L 178.10034 185.875714 
L 179.483093 184.834286 
L 180.865845 184.834286 
L 183.631351 182.751429 
L 186.396856 184.834286 
L 187.779609 182.751429 
L 189.162362 182.751429 
L 190.545115 181.71 
L 191.927867 181.71 
L 193.31062 180.668571 
L 194.693373 180.668571 
L 197.458879 182.751429 
L 198.841631 180.668571 
L 200.224384 180.668571 
L 201.607137 182.751429 
L 202.98989 182.751429 
L 204.372642 181.71 
L 207.138148 181.71 
L 208.520901 184.834286 
L 209.903653 186.917143 
L 212.669159 186.917143 
L 214.051912 189 
L 220.965675 189 
L 222.348428 190.041429 
L 223.731181 189 
L 225.113934 189 
L 226.496686 190.041429 
L 227.879439 190.041429 
L 229.262192 189 
L 234.793203 189 
L 237.558709 186.917143 
L 238.941461 184.834286 
L 240.324214 181.71 
L 241.706967 181.71 
L 243.08972 180.668571 
L 244.472472 180.668571 
L 245.855225 179.627143 
L 247.237978 179.627143 
L 248.620731 182.751429 
L 250.003483 184.834286 
L 254.151742 184.834286 
L 255.534494 185.875714 
L 256.917247 184.834286 
L 258.3 184.834286 
L 259.682753 185.875714 
L 261.065506 184.834286 
L 262.448258 185.875714 
L 263.831011 184.834286 
L 265.213764 182.751429 
L 266.596517 182.751429 
L 269.362022 180.668571 
L 270.744775 181.71 
L 272.127528 180.668571 
L 273.51028 181.71 
L 277.658539 187.958571 
L 279.041291 189 
L 281.806797 186.917143 
L 283.18955 186.917143 
L 284.572302 184.834286 
L 285.955055 184.834286 
L 287.337808 183.792857 
L 288.720561 183.792857 
L 290.103314 184.834286 
L 291.486066 186.917143 
L 292.868819 186.917143 
L 294.251572 189 
L 302.548088 189 
L 305.313594 186.917143 
L 306.696347 186.917143 
L 309.461852 184.834286 
L 312.227358 184.834286 
L 314.992863 186.917143 
L 316.375616 186.917143 
L 317.758369 187.958571 
L 319.141121 186.917143 
L 323.28938 186.917143 
L 324.672133 185.875714 
L 326.054885 183.792857 
L 327.437638 182.751429 
L 328.820391 184.834286 
L 330.203144 184.834286 
L 331.585896 183.792857 
L 332.968649 183.792857 
L 334.351402 184.834286 
L 335.734155 186.917143 
L 337.116907 186.917143 
L 338.49966 183.792857 
L 339.882413 183.792857 
L 341.265166 182.751429 
L 342.647918 180.668571 
L 344.030671 179.627143 
L 345.413424 177.544286 
L 346.796177 177.544286 
L 348.178929 180.668571 
L 349.561682 179.627143 
L 352.327188 181.71 
L 353.709941 181.71 
L 355.092693 183.792857 
L 356.475446 183.792857 
L 359.240952 181.71 
L 360.623704 182.751429 
L 362.006457 180.668571 
L 363.38921 181.71 
L 364.771963 180.668571 
L 367.537468 182.751429 
L 370.302974 180.668571 
L 371.685726 183.792857 
L 373.068479 181.71 
L 374.451232 181.71 
L 375.833985 174.42 
L 377.216737 172.337143 
L 378.59949 174.42 
L 379.982243 175.461429 
L 381.364996 174.42 
L 382.747749 176.502857 
L 384.130501 176.502857 
L 385.513254 181.71 
L 386.896007 178.585714 
L 388.27876 178.585714 
L 389.661512 174.42 
L 391.044265 174.42 
L 392.427018 172.337143 
L 393.809771 171.295714 
L 395.192523 171.295714 
L 396.575276 172.337143 
L 397.958029 172.337143 
L 399.340782 174.42 
L 400.723534 173.378571 
L 404.871793 173.378571 
L 406.254545 174.42 
L 409.020051 172.337143 
L 410.402804 166.088571 
L 411.785556 162.964286 
L 413.168309 146.301429 
L 414.551062 142.135714 
L 415.933815 135.887143 
L 417.316568 127.555714 
L 418.69932 121.307143 
L 420.082073 124.431429 
L 421.464826 121.307143 
L 422.847579 134.845714 
L 424.230331 128.597143 
L 425.613084 129.638571 
L 426.995837 125.472857 
L 428.37859 126.514286 
L 429.761342 122.348571 
L 431.144095 121.307143 
L 432.526848 117.141429 
L 435.292353 102.561429 
L 435.292353 102.561429 
" style="fill:none;stroke:#1f77b4;stroke-linecap:round;stroke-width:1.5;"/>
   </g>
   <g id="patch_260">
    <path d="M 63 189 
L 453.6 189 
" style="fill:none;stroke:#cccccc;stroke-linecap:square;stroke-linejoin:miter;"/>
   </g>
   <g id="text_15">
    <!-- 7-day -->
    <defs>
     <path d="M 14.40625 72.90625 
L 69.390625 72.90625 
L 67.1875 62.203125 
L 26.609375 0 
L 7.8125 0 
L 46.390625 59.078125 
L 11.8125 59.078125 
z
" id="DejaVuSans-BoldOblique-55"/>
     <path d="M 5.328125 35.890625 
L 35.984375 35.890625 
L 33.203125 21.6875 
L 2.484375 21.6875 
z
" id="DejaVuSans-BoldOblique-45"/>
     <path d="M 30.71875 11.28125 
Q 37.453125 11.28125 41.671875 17.484375 
Q 45.90625 23.6875 45.90625 33.6875 
Q 45.90625 38.234375 43.53125 40.765625 
Q 41.15625 43.3125 36.921875 43.3125 
Q 30.28125 43.3125 25.984375 37.1875 
Q 21.6875 31.0625 21.6875 21.484375 
Q 21.6875 16.5 24 13.890625 
Q 26.3125 11.28125 30.71875 11.28125 
z
M 49.125 46.6875 
L 54.78125 75.984375 
L 72.40625 75.984375 
L 57.625 0 
L 39.984375 0 
L 41.609375 7.90625 
Q 37.59375 3.125 33.203125 0.84375 
Q 28.8125 -1.421875 23.578125 -1.421875 
Q 14.359375 -1.421875 8.984375 4.4375 
Q 3.609375 10.296875 3.609375 20.40625 
Q 3.609375 26.703125 5.484375 32.65625 
Q 7.375 38.625 10.890625 43.5 
Q 15.328125 49.65625 20.921875 52.828125 
Q 26.515625 56 32.90625 56 
Q 38.53125 56 42.453125 53.734375 
Q 46.390625 51.46875 49.125 46.6875 
z
" id="DejaVuSans-BoldOblique-100"/>
     <path d="M 32.90625 24.609375 
Q 26.375 24.609375 23.015625 22.578125 
Q 19.671875 20.5625 19.671875 16.609375 
Q 19.671875 13.625 21.65625 11.90625 
Q 23.640625 10.203125 27.09375 10.203125 
Q 32.46875 10.203125 36.078125 13.453125 
Q 39.703125 16.703125 40.921875 22.609375 
L 41.3125 24.609375 
z
M 60.203125 31.203125 
L 54.109375 0 
L 36.625 0 
L 38.09375 8.109375 
Q 33.796875 3.21875 29 0.890625 
Q 24.21875 -1.421875 18.609375 -1.421875 
Q 10.84375 -1.421875 6.265625 2.609375 
Q 1.703125 6.640625 1.703125 13.484375 
Q 1.703125 23.921875 9.78125 29.46875 
Q 17.875 35.015625 33.109375 35.015625 
L 43.40625 35.015625 
L 43.609375 36.375 
Q 43.75 37.0625 43.765625 37.34375 
Q 43.796875 37.640625 43.796875 37.890625 
Q 43.796875 41.109375 40.75 42.75 
Q 37.703125 44.390625 31.6875 44.390625 
Q 26.265625 44.390625 21.1875 43.265625 
Q 16.109375 42.140625 11.375 39.890625 
L 14.015625 53.21875 
Q 19.484375 54.59375 25.21875 55.296875 
Q 30.953125 56 37.109375 56 
Q 49.265625 56 55.171875 51.828125 
Q 61.078125 47.65625 61.078125 39.109375 
Q 61.078125 37.453125 60.859375 35.46875 
Q 60.640625 33.5 60.203125 31.203125 
z
" id="DejaVuSans-BoldOblique-97"/>
     <path d="M 6.59375 54.6875 
L 23.09375 54.6875 
L 30.609375 16.796875 
L 50 54.6875 
L 68.703125 54.6875 
L 34.078125 -5.171875 
Q 28.265625 -15.28125 23.328125 -18.421875 
Q 18.40625 -21.578125 10.59375 -21.578125 
L 0 -21.578125 
L 1.8125 -10.109375 
L 7.328125 -10.109375 
Q 11.625 -10.109375 13.984375 -8.671875 
Q 16.359375 -7.234375 18.21875 -3.609375 
L 19.828125 -0.6875 
z
" id="DejaVuSans-BoldOblique-121"/>
    </defs>
    <g style="fill:#1f77b4;" transform="translate(439.440612 91.285491)scale(0.1 -0.1)">
     <use xlink:href="#DejaVuSans-BoldOblique-55"/>
     <use x="69.580078" xlink:href="#DejaVuSans-BoldOblique-45"/>
     <use x="111.083984" xlink:href="#DejaVuSans-BoldOblique-100"/>
     <use x="182.666016" xlink:href="#DejaVuSans-BoldOblique-97"/>
     <use x="247.021484" xlink:href="#DejaVuSans-BoldOblique-121"/>
    </g>
    <!-- avg. -->
    <defs>
     <path d="M 6.296875 54.6875 
L 22.40625 54.6875 
L 29.5 16.5 
L 50.09375 54.6875 
L 67.828125 54.6875 
L 35.6875 0 
L 17.1875 0 
z
" id="DejaVuSans-BoldOblique-118"/>
     <path d="M 41.796875 9.28125 
Q 37.59375 4.5 33.25 2.25 
Q 28.90625 0 23.78125 0 
Q 14.5 0 9.109375 5.984375 
Q 3.71875 11.96875 3.71875 22.3125 
Q 3.71875 27.828125 5.59375 33.375 
Q 7.46875 38.921875 10.984375 43.796875 
Q 15.28125 49.703125 20.84375 52.796875 
Q 26.421875 55.90625 32.8125 55.90625 
Q 38.578125 55.90625 42.5 53.65625 
Q 46.4375 51.421875 49.125 46.578125 
L 50.59375 54.6875 
L 68.21875 54.6875 
L 58.984375 7.171875 
Q 56.15625 -7.515625 46.875 -14.546875 
Q 37.59375 -21.578125 21.09375 -21.578125 
Q 16.015625 -21.578125 11.296875 -20.796875 
Q 6.59375 -20.015625 2 -18.40625 
L 4.59375 -4.78125 
Q 8.734375 -7.421875 12.890625 -8.71875 
Q 17.046875 -10.015625 21.390625 -10.015625 
Q 30.078125 -10.015625 34.734375 -6.296875 
Q 39.40625 -2.59375 41.015625 5.515625 
z
M 36.921875 43.3125 
Q 30.46875 43.3125 26.1875 37.5 
Q 21.921875 31.6875 21.921875 22.90625 
Q 21.921875 17.921875 24.21875 15.3125 
Q 26.515625 12.703125 30.90625 12.703125 
Q 37.3125 12.703125 41.609375 18.484375 
Q 45.90625 24.265625 45.90625 32.90625 
Q 45.90625 37.984375 43.609375 40.640625 
Q 41.3125 43.3125 36.921875 43.3125 
z
" id="DejaVuSans-BoldOblique-103"/>
     <path d="M 8.296875 18.890625 
L 25.875 18.890625 
L 22.21875 0 
L 4.59375 0 
z
" id="DejaVuSans-BoldOblique-46"/>
    </defs>
    <g style="fill:#1f77b4;" transform="translate(439.440612 102.561429)scale(0.1 -0.1)">
     <use xlink:href="#DejaVuSans-BoldOblique-97"/>
     <use x="67.480469" xlink:href="#DejaVuSans-BoldOblique-118"/>
     <use x="132.666016" xlink:href="#DejaVuSans-BoldOblique-103"/>
     <use x="204.248047" xlink:href="#DejaVuSans-BoldOblique-46"/>
    </g>
   </g>
   <g id="text_16">
    <!-- New Covid-19 cases_nyt per day in Grafton county, New Hampshire -->
    <defs>
     <path d="M 9.1875 72.90625 
L 30.171875 72.90625 
L 56.6875 22.90625 
L 56.6875 72.90625 
L 74.515625 72.90625 
L 74.515625 0 
L 53.515625 0 
L 27 50 
L 27 0 
L 9.1875 0 
z
" id="DejaVuSans-Bold-78"/>
     <path d="M 62.984375 27.484375 
L 62.984375 22.515625 
L 22.125 22.515625 
Q 22.75 16.359375 26.5625 13.28125 
Q 30.375 10.203125 37.203125 10.203125 
Q 42.71875 10.203125 48.5 11.84375 
Q 54.296875 13.484375 60.40625 16.796875 
L 60.40625 3.328125 
Q 54.203125 0.984375 48 -0.21875 
Q 41.796875 -1.421875 35.59375 -1.421875 
Q 20.75 -1.421875 12.515625 6.125 
Q 4.296875 13.671875 4.296875 27.296875 
Q 4.296875 40.671875 12.375 48.328125 
Q 20.453125 56 34.625 56 
Q 47.515625 56 55.25 48.234375 
Q 62.984375 40.484375 62.984375 27.484375 
z
M 45.015625 33.296875 
Q 45.015625 38.28125 42.109375 41.328125 
Q 39.203125 44.390625 34.515625 44.390625 
Q 29.4375 44.390625 26.265625 41.53125 
Q 23.09375 38.671875 22.3125 33.296875 
z
" id="DejaVuSans-Bold-101"/>
     <path d="M 3.515625 54.6875 
L 20.515625 54.6875 
L 29.6875 17 
L 38.921875 54.6875 
L 53.515625 54.6875 
L 62.703125 17.390625 
L 71.921875 54.6875 
L 88.921875 54.6875 
L 74.515625 0 
L 55.421875 0 
L 46.1875 37.59375 
L 37.015625 0 
L 17.921875 0 
z
" id="DejaVuSans-Bold-119"/>
     <path id="DejaVuSans-Bold-32"/>
     <path d="M 67 4 
Q 61.8125 1.3125 56.203125 -0.046875 
Q 50.59375 -1.421875 44.484375 -1.421875 
Q 26.265625 -1.421875 15.625 8.765625 
Q 4.984375 18.953125 4.984375 36.375 
Q 4.984375 53.859375 15.625 64.03125 
Q 26.265625 74.21875 44.484375 74.21875 
Q 50.59375 74.21875 56.203125 72.84375 
Q 61.8125 71.484375 67 68.796875 
L 67 53.71875 
Q 61.765625 57.28125 56.6875 58.9375 
Q 51.609375 60.59375 46 60.59375 
Q 35.9375 60.59375 30.171875 54.140625 
Q 24.421875 47.703125 24.421875 36.375 
Q 24.421875 25.09375 30.171875 18.640625 
Q 35.9375 12.203125 46 12.203125 
Q 51.609375 12.203125 56.6875 13.859375 
Q 61.765625 15.53125 67 19.09375 
z
" id="DejaVuSans-Bold-67"/>
     <path d="M 34.421875 43.5 
Q 28.609375 43.5 25.5625 39.328125 
Q 22.515625 35.15625 22.515625 27.296875 
Q 22.515625 19.4375 25.5625 15.25 
Q 28.609375 11.078125 34.421875 11.078125 
Q 40.140625 11.078125 43.15625 15.25 
Q 46.1875 19.4375 46.1875 27.296875 
Q 46.1875 35.15625 43.15625 39.328125 
Q 40.140625 43.5 34.421875 43.5 
z
M 34.421875 56 
Q 48.53125 56 56.46875 48.375 
Q 64.40625 40.765625 64.40625 27.296875 
Q 64.40625 13.8125 56.46875 6.1875 
Q 48.53125 -1.421875 34.421875 -1.421875 
Q 20.265625 -1.421875 12.28125 6.1875 
Q 4.296875 13.8125 4.296875 27.296875 
Q 4.296875 40.765625 12.28125 48.375 
Q 20.265625 56 34.421875 56 
z
" id="DejaVuSans-Bold-111"/>
     <path d="M 1.515625 54.6875 
L 19 54.6875 
L 32.625 16.890625 
L 46.1875 54.6875 
L 63.71875 54.6875 
L 42.1875 0 
L 23 0 
z
" id="DejaVuSans-Bold-118"/>
     <path d="M 8.40625 54.6875 
L 25.875 54.6875 
L 25.875 0 
L 8.40625 0 
z
M 8.40625 75.984375 
L 25.875 75.984375 
L 25.875 61.71875 
L 8.40625 61.71875 
z
" id="DejaVuSans-Bold-105"/>
     <path d="M 45.609375 46.6875 
L 45.609375 75.984375 
L 63.1875 75.984375 
L 63.1875 0 
L 45.609375 0 
L 45.609375 7.90625 
Q 42 3.078125 37.640625 0.828125 
Q 33.296875 -1.421875 27.59375 -1.421875 
Q 17.484375 -1.421875 10.984375 6.609375 
Q 4.5 14.65625 4.5 27.296875 
Q 4.5 39.9375 10.984375 47.96875 
Q 17.484375 56 27.59375 56 
Q 33.25 56 37.625 53.734375 
Q 42 51.46875 45.609375 46.6875 
z
M 34.078125 11.28125 
Q 39.703125 11.28125 42.65625 15.375 
Q 45.609375 19.484375 45.609375 27.296875 
Q 45.609375 35.109375 42.65625 39.203125 
Q 39.703125 43.3125 34.078125 43.3125 
Q 28.515625 43.3125 25.5625 39.203125 
Q 22.609375 35.109375 22.609375 27.296875 
Q 22.609375 19.484375 25.5625 15.375 
Q 28.515625 11.28125 34.078125 11.28125 
z
" id="DejaVuSans-Bold-100"/>
     <path d="M 5.421875 35.890625 
L 36.078125 35.890625 
L 36.078125 21.6875 
L 5.421875 21.6875 
z
" id="DejaVuSans-Bold-45"/>
     <path d="M 11.71875 12.984375 
L 28.328125 12.984375 
L 28.328125 60.109375 
L 11.28125 56.59375 
L 11.28125 69.390625 
L 28.21875 72.90625 
L 46.09375 72.90625 
L 46.09375 12.984375 
L 62.703125 12.984375 
L 62.703125 0 
L 11.71875 0 
z
" id="DejaVuSans-Bold-49"/>
     <path d="M 10.015625 1.609375 
L 10.015625 15.09375 
Q 14.5 12.984375 18.59375 11.9375 
Q 22.703125 10.890625 26.703125 10.890625 
Q 35.109375 10.890625 39.796875 15.546875 
Q 44.484375 20.21875 45.3125 29.390625 
Q 42 26.953125 38.234375 25.734375 
Q 34.46875 24.515625 30.078125 24.515625 
Q 18.890625 24.515625 12.03125 31.03125 
Q 5.171875 37.546875 5.171875 48.1875 
Q 5.171875 59.96875 12.8125 67.046875 
Q 20.453125 74.125 33.296875 74.125 
Q 47.5625 74.125 55.375 64.5 
Q 63.1875 54.890625 63.1875 37.3125 
Q 63.1875 19.234375 54.046875 8.90625 
Q 44.921875 -1.421875 29 -1.421875 
Q 23.875 -1.421875 19.1875 -0.65625 
Q 14.5 0.09375 10.015625 1.609375 
z
M 33.203125 36.71875 
Q 38.140625 36.71875 40.625 39.90625 
Q 43.109375 43.109375 43.109375 49.515625 
Q 43.109375 55.859375 40.625 59.078125 
Q 38.140625 62.3125 33.203125 62.3125 
Q 28.265625 62.3125 25.78125 59.078125 
Q 23.296875 55.859375 23.296875 49.515625 
Q 23.296875 43.109375 25.78125 39.90625 
Q 28.265625 36.71875 33.203125 36.71875 
z
" id="DejaVuSans-Bold-57"/>
     <path d="M 52.59375 52.984375 
L 52.59375 38.71875 
Q 49.03125 41.15625 45.4375 42.328125 
Q 41.84375 43.5 37.984375 43.5 
Q 30.671875 43.5 26.59375 39.234375 
Q 22.515625 34.96875 22.515625 27.296875 
Q 22.515625 19.625 26.59375 15.34375 
Q 30.671875 11.078125 37.984375 11.078125 
Q 42.09375 11.078125 45.78125 12.296875 
Q 49.46875 13.53125 52.59375 15.921875 
L 52.59375 1.609375 
Q 48.484375 0.09375 44.265625 -0.65625 
Q 40.046875 -1.421875 35.796875 -1.421875 
Q 21 -1.421875 12.640625 6.171875 
Q 4.296875 13.765625 4.296875 27.296875 
Q 4.296875 40.828125 12.640625 48.40625 
Q 21 56 35.796875 56 
Q 40.09375 56 44.265625 55.25 
Q 48.4375 54.5 52.59375 52.984375 
z
" id="DejaVuSans-Bold-99"/>
     <path d="M 32.90625 24.609375 
Q 27.4375 24.609375 24.671875 22.75 
Q 21.921875 20.90625 21.921875 17.28125 
Q 21.921875 13.96875 24.140625 12.078125 
Q 26.375 10.203125 30.328125 10.203125 
Q 35.25 10.203125 38.625 13.734375 
Q 42 17.28125 42 22.609375 
L 42 24.609375 
z
M 59.625 31.203125 
L 59.625 0 
L 42 0 
L 42 8.109375 
Q 38.484375 3.125 34.078125 0.84375 
Q 29.6875 -1.421875 23.390625 -1.421875 
Q 14.890625 -1.421875 9.59375 3.53125 
Q 4.296875 8.5 4.296875 16.40625 
Q 4.296875 26.03125 10.90625 30.515625 
Q 17.53125 35.015625 31.6875 35.015625 
L 42 35.015625 
L 42 36.375 
Q 42 40.53125 38.71875 42.453125 
Q 35.453125 44.390625 28.515625 44.390625 
Q 22.90625 44.390625 18.0625 43.265625 
Q 13.234375 42.140625 9.078125 39.890625 
L 9.078125 53.21875 
Q 14.703125 54.59375 20.359375 55.296875 
Q 26.03125 56 31.6875 56 
Q 46.484375 56 53.046875 50.171875 
Q 59.625 44.34375 59.625 31.203125 
z
" id="DejaVuSans-Bold-97"/>
     <path d="M 51.125 52.984375 
L 51.125 39.703125 
Q 45.515625 42.046875 40.28125 43.21875 
Q 35.0625 44.390625 30.421875 44.390625 
Q 25.4375 44.390625 23.015625 43.140625 
Q 20.609375 41.890625 20.609375 39.3125 
Q 20.609375 37.203125 22.4375 36.078125 
Q 24.265625 34.96875 29 34.421875 
L 32.078125 33.984375 
Q 45.515625 32.28125 50.140625 28.375 
Q 54.78125 24.46875 54.78125 16.109375 
Q 54.78125 7.375 48.328125 2.96875 
Q 41.890625 -1.421875 29.109375 -1.421875 
Q 23.6875 -1.421875 17.890625 -0.5625 
Q 12.109375 0.296875 6 2 
L 6 15.28125 
Q 11.234375 12.75 16.71875 11.46875 
Q 22.21875 10.203125 27.875 10.203125 
Q 33.015625 10.203125 35.59375 11.609375 
Q 38.1875 13.03125 38.1875 15.828125 
Q 38.1875 18.171875 36.40625 19.3125 
Q 34.625 20.453125 29.296875 21.09375 
L 26.21875 21.484375 
Q 14.546875 22.953125 9.859375 26.90625 
Q 5.171875 30.859375 5.171875 38.921875 
Q 5.171875 47.609375 11.125 51.796875 
Q 17.09375 56 29.390625 56 
Q 34.234375 56 39.546875 55.265625 
Q 44.875 54.546875 51.125 52.984375 
z
" id="DejaVuSans-Bold-115"/>
     <path d="M 50 -14.3125 
L 50 -23.578125 
L 0 -23.578125 
L 0 -14.3125 
z
" id="DejaVuSans-Bold-95"/>
     <path d="M 63.375 33.296875 
L 63.375 0 
L 45.796875 0 
L 45.796875 5.421875 
L 45.796875 25.484375 
Q 45.796875 32.5625 45.484375 35.25 
Q 45.171875 37.9375 44.390625 39.203125 
Q 43.359375 40.921875 41.59375 41.875 
Q 39.84375 42.828125 37.59375 42.828125 
Q 32.125 42.828125 29 38.59375 
Q 25.875 34.375 25.875 26.90625 
L 25.875 0 
L 8.40625 0 
L 8.40625 54.6875 
L 25.875 54.6875 
L 25.875 46.6875 
Q 29.828125 51.46875 34.265625 53.734375 
Q 38.71875 56 44.09375 56 
Q 53.5625 56 58.46875 50.1875 
Q 63.375 44.390625 63.375 33.296875 
z
" id="DejaVuSans-Bold-110"/>
     <path d="M 1.21875 54.6875 
L 18.703125 54.6875 
L 33.40625 17.578125 
L 45.90625 54.6875 
L 63.375 54.6875 
L 40.375 -5.171875 
Q 36.921875 -14.3125 32.296875 -17.9375 
Q 27.6875 -21.578125 20.125 -21.578125 
L 10.015625 -21.578125 
L 10.015625 -10.109375 
L 15.484375 -10.109375 
Q 19.921875 -10.109375 21.9375 -8.6875 
Q 23.96875 -7.28125 25.09375 -3.609375 
L 25.59375 -2.09375 
z
" id="DejaVuSans-Bold-121"/>
     <path d="M 27.484375 70.21875 
L 27.484375 54.6875 
L 45.515625 54.6875 
L 45.515625 42.1875 
L 27.484375 42.1875 
L 27.484375 19 
Q 27.484375 15.1875 29 13.84375 
Q 30.515625 12.5 35.015625 12.5 
L 44 12.5 
L 44 0 
L 29 0 
Q 18.65625 0 14.328125 4.3125 
Q 10.015625 8.640625 10.015625 19 
L 10.015625 42.1875 
L 1.3125 42.1875 
L 1.3125 54.6875 
L 10.015625 54.6875 
L 10.015625 70.21875 
z
" id="DejaVuSans-Bold-116"/>
     <path d="M 25.875 7.90625 
L 25.875 -20.796875 
L 8.40625 -20.796875 
L 8.40625 54.6875 
L 25.875 54.6875 
L 25.875 46.6875 
Q 29.5 51.46875 33.890625 53.734375 
Q 38.28125 56 44 56 
Q 54.109375 56 60.59375 47.96875 
Q 67.09375 39.9375 67.09375 27.296875 
Q 67.09375 14.65625 60.59375 6.609375 
Q 54.109375 -1.421875 44 -1.421875 
Q 38.28125 -1.421875 33.890625 0.84375 
Q 29.5 3.125 25.875 7.90625 
z
M 37.5 43.3125 
Q 31.890625 43.3125 28.875 39.1875 
Q 25.875 35.0625 25.875 27.296875 
Q 25.875 19.53125 28.875 15.40625 
Q 31.890625 11.28125 37.5 11.28125 
Q 43.109375 11.28125 46.0625 15.375 
Q 49.03125 19.484375 49.03125 27.296875 
Q 49.03125 35.109375 46.0625 39.203125 
Q 43.109375 43.3125 37.5 43.3125 
z
" id="DejaVuSans-Bold-112"/>
     <path d="M 49.03125 39.796875 
Q 46.734375 40.875 44.453125 41.375 
Q 42.1875 41.890625 39.890625 41.890625 
Q 33.15625 41.890625 29.515625 37.5625 
Q 25.875 33.25 25.875 25.203125 
L 25.875 0 
L 8.40625 0 
L 8.40625 54.6875 
L 25.875 54.6875 
L 25.875 45.703125 
Q 29.25 51.078125 33.609375 53.53125 
Q 37.984375 56 44.09375 56 
Q 44.96875 56 45.984375 55.921875 
Q 47.015625 55.859375 48.96875 55.609375 
z
" id="DejaVuSans-Bold-114"/>
     <path d="M 74.703125 5.421875 
Q 67.671875 2 60.109375 0.28125 
Q 52.546875 -1.421875 44.484375 -1.421875 
Q 26.265625 -1.421875 15.625 8.765625 
Q 4.984375 18.953125 4.984375 36.375 
Q 4.984375 54 15.8125 64.109375 
Q 26.65625 74.21875 45.515625 74.21875 
Q 52.78125 74.21875 59.4375 72.84375 
Q 66.109375 71.484375 72.015625 68.796875 
L 72.015625 53.71875 
Q 65.921875 57.171875 59.890625 58.875 
Q 53.859375 60.59375 47.796875 60.59375 
Q 36.578125 60.59375 30.5 54.3125 
Q 24.421875 48.046875 24.421875 36.375 
Q 24.421875 24.8125 30.28125 18.5 
Q 36.140625 12.203125 46.921875 12.203125 
Q 49.859375 12.203125 52.375 12.5625 
Q 54.890625 12.9375 56.890625 13.71875 
L 56.890625 27.875 
L 45.40625 27.875 
L 45.40625 40.484375 
L 74.703125 40.484375 
z
" id="DejaVuSans-Bold-71"/>
     <path d="M 44.390625 75.984375 
L 44.390625 64.5 
L 34.71875 64.5 
Q 31 64.5 29.53125 63.15625 
Q 28.078125 61.8125 28.078125 58.5 
L 28.078125 54.6875 
L 43.015625 54.6875 
L 43.015625 42.1875 
L 28.078125 42.1875 
L 28.078125 0 
L 10.59375 0 
L 10.59375 42.1875 
L 1.90625 42.1875 
L 1.90625 54.6875 
L 10.59375 54.6875 
L 10.59375 58.5 
Q 10.59375 67.4375 15.578125 71.703125 
Q 20.5625 75.984375 31 75.984375 
z
" id="DejaVuSans-Bold-102"/>
     <path d="M 7.8125 21.296875 
L 7.8125 54.6875 
L 25.390625 54.6875 
L 25.390625 49.21875 
Q 25.390625 44.78125 25.34375 38.0625 
Q 25.296875 31.34375 25.296875 29.109375 
Q 25.296875 22.515625 25.640625 19.609375 
Q 25.984375 16.703125 26.8125 15.375 
Q 27.875 13.671875 29.609375 12.734375 
Q 31.34375 11.8125 33.59375 11.8125 
Q 39.0625 11.8125 42.1875 16.015625 
Q 45.3125 20.21875 45.3125 27.6875 
L 45.3125 54.6875 
L 62.796875 54.6875 
L 62.796875 0 
L 45.3125 0 
L 45.3125 7.90625 
Q 41.359375 3.125 36.9375 0.84375 
Q 32.515625 -1.421875 27.203125 -1.421875 
Q 17.71875 -1.421875 12.765625 4.390625 
Q 7.8125 10.203125 7.8125 21.296875 
z
" id="DejaVuSans-Bold-117"/>
     <path d="M 10.203125 18.890625 
L 27.78125 18.890625 
L 27.78125 4 
L 15.71875 -14.203125 
L 5.328125 -14.203125 
L 10.203125 4 
z
" id="DejaVuSans-Bold-44"/>
     <path d="M 9.1875 72.90625 
L 27.984375 72.90625 
L 27.984375 45.125 
L 55.71875 45.125 
L 55.71875 72.90625 
L 74.515625 72.90625 
L 74.515625 0 
L 55.71875 0 
L 55.71875 30.90625 
L 27.984375 30.90625 
L 27.984375 0 
L 9.1875 0 
z
" id="DejaVuSans-Bold-72"/>
     <path d="M 59.078125 45.609375 
Q 62.40625 50.6875 66.96875 53.34375 
Q 71.53125 56 77 56 
Q 86.421875 56 91.359375 50.1875 
Q 96.296875 44.390625 96.296875 33.296875 
L 96.296875 0 
L 78.71875 0 
L 78.71875 28.515625 
Q 78.765625 29.15625 78.78125 29.828125 
Q 78.8125 30.515625 78.8125 31.78125 
Q 78.8125 37.59375 77.09375 40.203125 
Q 75.390625 42.828125 71.578125 42.828125 
Q 66.609375 42.828125 63.890625 38.71875 
Q 61.1875 34.625 61.078125 26.859375 
L 61.078125 0 
L 43.5 0 
L 43.5 28.515625 
Q 43.5 37.59375 41.9375 40.203125 
Q 40.375 42.828125 36.375 42.828125 
Q 31.34375 42.828125 28.609375 38.703125 
Q 25.875 34.578125 25.875 26.90625 
L 25.875 0 
L 8.296875 0 
L 8.296875 54.6875 
L 25.875 54.6875 
L 25.875 46.6875 
Q 29.109375 51.3125 33.28125 53.65625 
Q 37.453125 56 42.484375 56 
Q 48.140625 56 52.484375 53.265625 
Q 56.84375 50.53125 59.078125 45.609375 
z
" id="DejaVuSans-Bold-109"/>
     <path d="M 63.375 33.296875 
L 63.375 0 
L 45.796875 0 
L 45.796875 5.421875 
L 45.796875 25.390625 
Q 45.796875 32.5625 45.484375 35.25 
Q 45.171875 37.9375 44.390625 39.203125 
Q 43.359375 40.921875 41.59375 41.875 
Q 39.84375 42.828125 37.59375 42.828125 
Q 32.125 42.828125 29 38.59375 
Q 25.875 34.375 25.875 26.90625 
L 25.875 0 
L 8.40625 0 
L 8.40625 75.984375 
L 25.875 75.984375 
L 25.875 46.6875 
Q 29.828125 51.46875 34.265625 53.734375 
Q 38.71875 56 44.09375 56 
Q 53.5625 56 58.46875 50.1875 
Q 63.375 44.390625 63.375 33.296875 
z
" id="DejaVuSans-Bold-104"/>
    </defs>
    <g style="fill:#262626;" transform="translate(30.855 23.2)scale(0.12 -0.12)">
     <use xlink:href="#DejaVuSans-Bold-78"/>
     <use x="83.691406" xlink:href="#DejaVuSans-Bold-101"/>
     <use x="151.513672" xlink:href="#DejaVuSans-Bold-119"/>
     <use x="243.896484" xlink:href="#DejaVuSans-Bold-32"/>
     <use x="278.710938" xlink:href="#DejaVuSans-Bold-67"/>
     <use x="352.099609" xlink:href="#DejaVuSans-Bold-111"/>
     <use x="420.800781" xlink:href="#DejaVuSans-Bold-118"/>
     <use x="485.986328" xlink:href="#DejaVuSans-Bold-105"/>
     <use x="520.263672" xlink:href="#DejaVuSans-Bold-100"/>
     <use x="591.845703" xlink:href="#DejaVuSans-Bold-45"/>
     <use x="633.349609" xlink:href="#DejaVuSans-Bold-49"/>
     <use x="702.929688" xlink:href="#DejaVuSans-Bold-57"/>
     <use x="772.509766" xlink:href="#DejaVuSans-Bold-32"/>
     <use x="807.324219" xlink:href="#DejaVuSans-Bold-99"/>
     <use x="866.601562" xlink:href="#DejaVuSans-Bold-97"/>
     <use x="934.082031" xlink:href="#DejaVuSans-Bold-115"/>
     <use x="993.603516" xlink:href="#DejaVuSans-Bold-101"/>
     <use x="1061.425781" xlink:href="#DejaVuSans-Bold-115"/>
     <use x="1120.947266" xlink:href="#DejaVuSans-Bold-95"/>
     <use x="1170.947266" xlink:href="#DejaVuSans-Bold-110"/>
     <use x="1242.138672" xlink:href="#DejaVuSans-Bold-121"/>
     <use x="1307.324219" xlink:href="#DejaVuSans-Bold-116"/>
     <use x="1355.126953" xlink:href="#DejaVuSans-Bold-32"/>
     <use x="1389.941406" xlink:href="#DejaVuSans-Bold-112"/>
     <use x="1461.523438" xlink:href="#DejaVuSans-Bold-101"/>
     <use x="1529.345703" xlink:href="#DejaVuSans-Bold-114"/>
     <use x="1578.662109" xlink:href="#DejaVuSans-Bold-32"/>
     <use x="1613.476562" xlink:href="#DejaVuSans-Bold-100"/>
     <use x="1685.058594" xlink:href="#DejaVuSans-Bold-97"/>
     <use x="1749.414062" xlink:href="#DejaVuSans-Bold-121"/>
     <use x="1814.599609" xlink:href="#DejaVuSans-Bold-32"/>
     <use x="1849.414062" xlink:href="#DejaVuSans-Bold-105"/>
     <use x="1883.691406" xlink:href="#DejaVuSans-Bold-110"/>
     <use x="1954.882812" xlink:href="#DejaVuSans-Bold-32"/>
     <use x="1989.697266" xlink:href="#DejaVuSans-Bold-71"/>
     <use x="2071.777344" xlink:href="#DejaVuSans-Bold-114"/>
     <use x="2121.09375" xlink:href="#DejaVuSans-Bold-97"/>
     <use x="2188.574219" xlink:href="#DejaVuSans-Bold-102"/>
     <use x="2232.080078" xlink:href="#DejaVuSans-Bold-116"/>
     <use x="2279.882812" xlink:href="#DejaVuSans-Bold-111"/>
     <use x="2348.583984" xlink:href="#DejaVuSans-Bold-110"/>
     <use x="2419.775391" xlink:href="#DejaVuSans-Bold-32"/>
     <use x="2454.589844" xlink:href="#DejaVuSans-Bold-99"/>
     <use x="2513.867188" xlink:href="#DejaVuSans-Bold-111"/>
     <use x="2582.568359" xlink:href="#DejaVuSans-Bold-117"/>
     <use x="2653.759766" xlink:href="#DejaVuSans-Bold-110"/>
     <use x="2724.951172" xlink:href="#DejaVuSans-Bold-116"/>
     <use x="2772.753906" xlink:href="#DejaVuSans-Bold-121"/>
     <use x="2830.189453" xlink:href="#DejaVuSans-Bold-44"/>
     <use x="2868.177734" xlink:href="#DejaVuSans-Bold-32"/>
     <use x="2902.992188" xlink:href="#DejaVuSans-Bold-78"/>
     <use x="2986.683594" xlink:href="#DejaVuSans-Bold-101"/>
     <use x="3054.505859" xlink:href="#DejaVuSans-Bold-119"/>
     <use x="3146.888672" xlink:href="#DejaVuSans-Bold-32"/>
     <use x="3181.703125" xlink:href="#DejaVuSans-Bold-72"/>
     <use x="3265.394531" xlink:href="#DejaVuSans-Bold-97"/>
     <use x="3332.875" xlink:href="#DejaVuSans-Bold-109"/>
     <use x="3437.074219" xlink:href="#DejaVuSans-Bold-112"/>
     <use x="3508.65625" xlink:href="#DejaVuSans-Bold-115"/>
     <use x="3568.177734" xlink:href="#DejaVuSans-Bold-104"/>
     <use x="3639.369141" xlink:href="#DejaVuSans-Bold-105"/>
     <use x="3673.646484" xlink:href="#DejaVuSans-Bold-114"/>
     <use x="3722.962891" xlink:href="#DejaVuSans-Bold-101"/>
    </g>
   </g>
  </g>
 </g>
 <defs>
  <clipPath id="p275abc1595">
   <rect height="145.8" width="390.6" x="63" y="43.2"/>
  </clipPath>
 </defs>
</svg>
